<?xml version="1.0" standalone="no"?>
 <!DOCTYPE svg PUBLIC "-//W3C//DTD SVG 1.1//EN" 
 "http://www.w3.org/Graphics/SVG/1.1/DTD/svg11.dtd"> 
<svg
  xmlns:svg="http://www.w3.org/2000/svg"
  xmlns="http://www.w3.org/2000/svg"
  xmlns:xlink="http://www.w3.org/1999/xlink"
  version="1.1"
  width="297.002200mm" height="210.007200mm" viewBox="0.000000 0.000000 297.002200 210.007200">
<title>SVG Image created as mariposa-B_Mask.svg date 2025/06/16 18:28:30 </title>
  <desc>Image generated by PCBNEW </desc>
<g style="fill:#000000; fill-opacity:1.000000;stroke:#000000; stroke-opacity:1.000000;
stroke-linecap:round; stroke-linejoin:round;"
 transform="translate(0 0) scale(1 1)">
<path style="fill:#000000; fill-opacity:1.000000; stroke:none;fill-rule:evenodd;"
d="M 155.614182,129.602031
155.625297,129.603540
155.636350,129.605882
155.647298,129.609068
155.658103,129.613104
155.663401,129.615428
155.668579,129.617931
155.673635,129.620608
155.678562,129.623458
155.683361,129.626471
155.688027,129.629647
155.692555,129.632979
155.696947,129.636463
155.701194,129.640093
155.705296,129.643867
155.709251,129.647778
155.713053,129.651823
155.716700,129.655996
155.720190,129.660292
155.723518,129.664710
155.726682,129.669242
155.729678,129.673884
155.732505,129.678631
155.735157,129.683480
155.737633,129.688424
155.739927,129.693462
155.742040,129.698585
155.743966,129.703792
155.745703,129.709076
155.747246,129.714433
155.748594,129.719859
155.749745,129.725349
155.750692,129.730899
155.751434,129.736502
155.751968,129.742156
155.752292,129.747857
155.752399,129.753597
155.752400,129.905998
156.514400,129.905998
156.553627,129.906989
156.592336,129.909930
156.630482,129.914773
156.668017,129.921472
156.704890,129.929977
156.741056,129.940241
156.776467,129.952217
156.811073,129.965855
156.844830,129.981110
156.877687,129.997934
156.909598,130.016277
156.940514,130.036092
156.970387,130.057332
156.999170,130.079949
157.026817,130.103894
157.053276,130.129120
157.078503,130.155580
157.102448,130.183227
157.125066,130.212011
157.146306,130.241884
157.166120,130.272799
157.184464,130.304711
157.201287,130.337568
157.216540,130.371324
157.230180,130.405931
157.242156,130.441341
157.252420,130.477507
157.260926,130.514381
157.267624,130.551914
157.272467,130.590061
157.275409,130.628771
157.276400,130.667997
157.276201,130.675851
157.275614,130.683600
157.274646,130.691236
157.273308,130.698748
157.271609,130.706128
157.269558,130.713364
157.267166,130.720449
157.264442,130.727372
157.261393,130.734125
157.258032,130.740697
157.254365,130.747079
157.250406,130.753262
157.246161,130.759235
157.241641,130.764991
157.236854,130.770518
157.231811,130.775809
157.226520,130.780852
157.220993,130.785638
157.215238,130.790158
157.209265,130.794403
157.203082,130.798363
157.196700,130.802030
157.190128,130.805391
157.183374,130.808439
157.176452,130.811165
157.169366,130.813556
157.162130,130.815608
157.154751,130.817307
157.147239,130.818644
157.139603,130.819611
157.131854,130.820200
157.124000,130.820398
157.116145,130.820200
157.108396,130.819612
157.100760,130.818645
157.093249,130.817306
157.085870,130.815608
157.078632,130.813556
157.071547,130.811165
157.064624,130.808439
157.057872,130.805391
157.051300,130.802030
157.044918,130.798364
157.038735,130.794403
157.032762,130.790159
157.027005,130.785638
157.021478,130.780851
157.016189,130.775808
157.011146,130.770519
157.006359,130.764991
157.001838,130.759236
156.997594,130.753262
156.993633,130.747080
156.989967,130.740697
156.986606,130.734125
156.983558,130.727372
156.980833,130.720449
156.978440,130.713364
156.976390,130.706128
156.974690,130.698748
156.973353,130.691235
156.972385,130.683601
156.971797,130.675851
156.971599,130.667997
156.971005,130.644477
156.969239,130.621266
156.966330,130.598392
156.962308,130.575882
156.957200,130.553767
156.951037,130.532075
156.943847,130.510834
156.935658,130.490073
156.926499,130.469823
156.916400,130.450110
156.905387,130.430964
156.893493,130.412412
156.880744,130.394486
156.867168,130.377214
156.852795,130.360623
156.837655,130.344743
156.821773,130.329601
156.805182,130.315230
156.787911,130.301653
156.769983,130.288905
156.751434,130.277010
156.732288,130.265997
156.712575,130.255898
156.692324,130.246740
156.671563,130.238551
156.650323,130.231360
156.628630,130.225197
156.606514,130.220090
156.584006,130.216068
156.561131,130.213159
156.537919,130.211392
156.514399,130.210797
155.752400,130.210798
155.752400,130.363197
155.751968,130.374644
155.750692,130.385916
155.748595,130.396980
155.745703,130.407793
155.742039,130.418321
155.737633,130.428520
155.732505,130.438358
155.726682,130.447792
155.720189,130.456785
155.713054,130.465298
155.705297,130.473295
155.696947,130.480735
155.688027,130.487581
155.678562,130.493793
155.668579,130.499335
155.658103,130.504168
155.647299,130.508199
155.636350,130.511369
155.625296,130.513690
155.614183,130.515173
155.603054,130.515827
155.591949,130.515661
155.580917,130.514689
155.569996,130.512919
155.559232,130.510362
155.548667,130.507028
155.538346,130.502927
155.528310,130.498073
155.518602,130.492472
155.509269,130.486138
155.500351,130.479078
155.491891,130.471306
155.187091,130.166507
155.181685,130.160819
155.176626,130.154927
155.171918,130.148845
155.167558,130.142586
155.163545,130.136164
155.159883,130.129592
155.156569,130.122884
155.153605,130.116054
155.150989,130.109115
155.148722,130.102080
155.146802,130.094964
155.145234,130.087779
155.144013,130.080541
155.143140,130.073262
155.142617,130.065955
155.142443,130.058636
155.142617,130.051316
155.143141,130.044008
155.144013,130.036730
155.145233,130.029492
155.146803,130.022308
155.148721,130.015192
155.150989,130.008156
155.153605,130.001218
155.156570,129.994387
155.159884,129.987680
155.163546,129.981108
155.167558,129.974686
155.171917,129.968426
155.176626,129.962345
155.181684,129.956453
155.187091,129.950765
155.491891,129.645965
155.500351,129.638113
155.509268,129.630997
155.518602,129.624622
155.528310,129.618998
155.538345,129.614132
155.548667,129.610034
155.559232,129.606712
155.569996,129.604173
155.580916,129.602429
155.591950,129.601483
155.603053,129.601349
Z" /> 
<path style="fill:#000000; fill-opacity:1.000000; stroke:none;fill-rule:evenodd;"
d="M 138.638679,129.914093
138.640538,129.914208
138.642378,129.914398
138.644199,129.914661
138.647773,129.915405
138.651245,129.916428
138.654602,129.917721
138.657832,129.919273
138.660920,129.921074
138.663854,129.923117
138.666621,129.925387
138.669207,129.927878
138.671599,129.930577
138.673784,129.933476
138.675748,129.936564
138.677481,129.939832
138.678968,129.943267
138.679613,129.945046
138.680192,129.946863
138.738402,130.151121
138.942659,130.209329
138.944429,130.209862
138.946167,130.210467
138.947870,130.211143
138.949538,130.211888
138.951170,130.212699
138.952760,130.213576
138.954313,130.214515
138.955822,130.215515
138.957288,130.216573
138.958710,130.217689
138.960085,130.218858
138.961411,130.220082
138.962688,130.221358
138.963913,130.222680
138.965088,130.224053
138.966207,130.225469
138.967270,130.226930
138.968276,130.228430
138.969223,130.229971
138.970109,130.231550
138.970933,130.233164
138.971695,130.234812
138.972391,130.236493
138.973020,130.238202
138.973581,130.239940
138.974072,130.241703
138.974492,130.243491
138.974839,130.245300
138.975111,130.247130
138.975308,130.248978
138.975427,130.250842
138.975467,130.252722
138.975429,130.254599
138.975314,130.256459
138.975124,130.258299
138.974860,130.260121
138.974117,130.263693
138.973093,130.267166
138.971801,130.270524
138.970249,130.273752
138.968447,130.276841
138.966405,130.279774
138.964134,130.282541
138.961643,130.285127
138.958944,130.287520
138.956045,130.289705
138.952957,130.291671
138.949689,130.293402
138.946254,130.294888
138.944476,130.295533
138.942658,130.296112
138.738401,130.354322
138.680192,130.558579
138.679659,130.560349
138.679054,130.562087
138.678378,130.563790
138.677633,130.565458
138.676823,130.567089
138.675946,130.568681
138.675008,130.570232
138.674007,130.571743
138.672949,130.573209
138.671832,130.574630
138.670663,130.576004
138.669439,130.577331
138.668165,130.578609
138.666841,130.579835
138.665469,130.581008
138.664053,130.582128
138.662592,130.583191
138.661091,130.584196
138.659550,130.585144
138.657971,130.586029
138.656357,130.586855
138.654710,130.587615
138.653029,130.588311
138.651319,130.588941
138.649583,130.589502
138.647818,130.589993
138.646031,130.590412
138.644222,130.590759
138.642391,130.591032
138.640544,130.591229
138.638679,130.591347
138.636800,130.591388
138.634923,130.591349
138.633064,130.591234
138.631222,130.591044
138.629401,130.590781
138.625829,130.590037
138.622357,130.589015
138.618997,130.587721
138.615769,130.586170
138.612681,130.584367
138.609748,130.582325
138.606980,130.580054
138.604393,130.577565
138.602002,130.574864
138.599817,130.571964
138.597850,130.568877
138.596120,130.565610
138.594633,130.562174
138.593989,130.560396
138.593409,130.558580
138.535200,130.354320
138.330943,130.296113
138.329172,130.295579
138.327435,130.294975
138.325731,130.294299
138.324064,130.293553
138.322432,130.292742
138.320840,130.291866
138.319289,130.290927
138.317779,130.289929
138.316313,130.288870
138.314891,130.287755
138.313516,130.286584
138.312191,130.285359
138.310913,130.284085
138.309685,130.282761
138.308514,130.281389
138.307394,130.279973
138.306331,130.278514
138.305325,130.277011
138.304378,130.275471
138.303492,130.273892
138.302666,130.272278
138.301906,130.270629
138.301210,130.268950
138.300582,130.267241
138.300020,130.265502
138.299529,130.263739
138.299109,130.261952
138.298762,130.260141
138.298489,130.258312
138.298293,130.256464
138.298174,130.254599
138.298134,130.252722
138.298172,130.250844
138.298288,130.248984
138.298477,130.247143
138.298741,130.245322
138.299484,130.241748
138.300507,130.238276
138.301799,130.234919
138.303352,130.231689
138.305155,130.228601
138.307196,130.225667
138.309467,130.222900
138.311957,130.220315
138.314657,130.217923
138.317556,130.215737
138.320644,130.213773
138.323911,130.212040
138.327347,130.210556
138.329125,130.209909
138.330941,130.209329
138.535200,130.151121
138.593409,129.946862
138.593942,129.945092
138.594547,129.943355
138.595223,129.941651
138.595969,129.939983
138.596779,129.938353
138.597655,129.936762
138.598594,129.935209
138.599592,129.933700
138.600652,129.932233
138.601767,129.930813
138.602938,129.929437
138.604163,129.928110
138.605436,129.926833
138.606760,129.925608
138.608132,129.924433
138.609548,129.923315
138.611008,129.922251
138.612510,129.921245
138.614050,129.920298
138.615630,129.919412
138.617244,129.918588
138.618892,129.917827
138.620572,129.917132
138.622281,129.916501
138.624019,129.915940
138.625783,129.915449
138.627570,129.915029
138.629380,129.914683
138.631209,129.914410
138.633058,129.914214
138.634922,129.914095
138.636800,129.914055
Z" /> 
<path style="fill:#000000; fill-opacity:1.000000; stroke:none;fill-rule:evenodd;"
d="M 138.050370,130.378778
138.053120,130.378952
138.055852,130.379240
138.058556,130.379640
138.063882,130.380765
138.069074,130.382308
138.074105,130.384255
138.078956,130.386590
138.083600,130.389291
138.088015,130.392346
138.092175,130.395735
138.096057,130.399442
138.099636,130.403451
138.102891,130.407741
138.105792,130.412299
138.107105,130.414674
138.108321,130.417107
138.109437,130.419600
138.110451,130.422147
138.111359,130.424749
138.112158,130.427403
138.200000,130.734321
138.506917,130.822162
138.509617,130.823007
138.512260,130.823956
138.514843,130.825005
138.517365,130.826151
138.519823,130.827391
138.522216,130.828724
138.524544,130.830145
138.526802,130.831654
138.528989,130.833246
138.531104,130.834918
138.533145,130.836670
138.535111,130.838495
138.536996,130.840395
138.538805,130.842364
138.540530,130.844401
138.542173,130.846503
138.543729,130.848667
138.545199,130.850891
138.546580,130.853170
138.547870,130.855504
138.549068,130.857888
138.550171,130.860322
138.551177,130.862801
138.552086,130.865322
138.552895,130.867884
138.553601,130.870483
138.554204,130.873118
138.554702,130.875786
138.555092,130.878482
138.555373,130.881204
138.555543,130.883951
138.555600,130.886720
138.555541,130.889490
138.555367,130.892241
138.555078,130.894971
138.554680,130.897676
138.553556,130.903001
138.552012,130.908192
138.550064,130.913226
138.547732,130.918076
138.545028,130.922720
138.541974,130.927136
138.538585,130.931296
138.534877,130.935177
138.530870,130.938756
138.526579,130.942009
138.522020,130.944912
138.519648,130.946224
138.517213,130.947441
138.514721,130.948558
138.512172,130.949571
138.509569,130.950478
138.506917,130.951278
138.200000,131.039121
138.112158,131.346037
138.111313,131.348736
138.110364,131.351380
138.109315,131.353963
138.108169,131.356484
138.106928,131.358943
138.105596,131.361337
138.104174,131.363663
138.102667,131.365922
138.101075,131.368109
138.099402,131.370225
138.097651,131.372265
138.095824,131.374230
138.093925,131.376117
138.091955,131.377924
138.089918,131.379650
138.087816,131.381292
138.085653,131.382850
138.083429,131.384319
138.081150,131.385701
138.078818,131.386990
138.076431,131.388187
138.073999,131.389291
138.071521,131.390297
138.068998,131.391206
138.066436,131.392014
138.063836,131.392721
138.061201,131.393324
138.058535,131.393822
138.055838,131.394212
138.053115,131.394494
138.050368,131.394663
138.047600,131.394720
138.044830,131.394662
138.042079,131.394487
138.039349,131.394199
138.036643,131.393801
138.031317,131.392676
138.026127,131.391131
138.021094,131.389184
138.016244,131.386851
138.011599,131.384148
138.007186,131.381094
138.003026,131.377705
137.999143,131.373997
137.995563,131.369990
137.992310,131.365699
137.989408,131.361141
137.988095,131.358766
137.986879,131.356332
137.985763,131.353840
137.984749,131.351292
137.983841,131.348690
137.983042,131.346036
137.895200,131.039121
137.588283,130.951279
137.585582,130.950432
137.582940,130.949483
137.580358,130.948434
137.577835,130.947289
137.575376,130.946048
137.572983,130.944715
137.570656,130.943294
137.568399,130.941787
137.566210,130.940194
137.564096,130.938523
137.562054,130.936772
137.560089,130.934944
137.558203,130.933046
137.556394,130.931076
137.554669,130.929039
137.553027,130.926936
137.551470,130.924772
137.550000,130.922549
137.548621,130.920270
137.547330,130.917937
137.546132,130.915552
137.545029,130.913119
137.544022,130.910640
137.543114,130.908118
137.542305,130.905557
137.541599,130.902956
137.540994,130.900321
137.540499,130.897655
137.540108,130.894958
137.539827,130.892236
137.539657,130.889488
137.539600,130.886721
137.539658,130.883951
137.539833,130.881198
137.540119,130.878469
137.540520,130.875764
137.541644,130.870438
137.543188,130.865248
137.545137,130.860214
137.547469,130.855364
137.550171,130.850719
137.553227,130.846305
137.556615,130.842144
137.560322,130.838264
137.564330,130.834682
137.568622,130.831431
137.573179,130.828527
137.575553,130.827215
137.577987,130.825999
137.580479,130.824883
137.583027,130.823870
137.585629,130.822961
137.588283,130.822161
137.895200,130.734320
137.983042,130.427403
137.983888,130.424703
137.984836,130.422061
137.985885,130.419477
137.987032,130.416956
137.988272,130.414497
137.989603,130.412103
137.991027,130.409777
137.992533,130.407518
137.994125,130.405331
137.995799,130.403216
137.997549,130.401174
137.999375,130.399210
138.001276,130.397323
138.003244,130.395515
138.005281,130.393789
138.007382,130.392147
138.009547,130.390590
138.011770,130.389120
138.014050,130.387739
138.016383,130.386450
138.018769,130.385252
138.021202,130.384149
138.023680,130.383142
138.026202,130.382235
138.028764,130.381425
138.031364,130.380719
138.033998,130.380115
138.036666,130.379619
138.039362,130.379228
138.042085,130.378947
138.044832,130.378777
138.047601,130.378720
Z" /> 
</g>
<g style="fill:#000000; fill-opacity:1.000000; stroke:none;">
<circle cx="150.390000" cy="61.849321" r="0.335000" /> 
</g>
<g style="fill:#000000; fill-opacity:1.000000; stroke:none;">
<circle cx="144.610000" cy="61.849321" r="0.335000" /> 
</g>
<g style="fill:none; 
stroke:#000000; stroke-width:1.020000; stroke-opacity:1; 
stroke-linecap:round; stroke-linejoin:round;">
<path d="M151.820000 62.899321
L151.820000 61.799321
" />
<path d="M151.820000 58.569321
L151.820000 57.769321
" />
<path d="M143.180000 62.899321
L143.180000 61.799321
" />
<path d="M143.180000 58.569321
L143.180000 57.769321
" />
</g>
<g style="fill:#000000; fill-opacity:1.000000; stroke:none;">
<circle cx="162.000000" cy="65.676642" r="2.800000" /> 
<path style="fill:#000000; fill-opacity:1.000000; stroke:none;fill-rule:evenodd;"
d="M 155.890000,68.914321
155.794329,68.895291
155.713223,68.841098
155.659030,68.759992
155.640000,68.664321
155.640000,66.164321
155.659030,66.068650
155.713223,65.987544
155.794329,65.933351
155.890000,65.914321
156.390000,65.914321
156.485671,65.933351
156.566777,65.987544
156.620970,66.068650
156.640000,66.164321
156.640000,68.664321
156.620970,68.759992
156.566777,68.841098
156.485671,68.895291
156.390000,68.914321
Z" /> 
<path style="fill:#000000; fill-opacity:1.000000; stroke:none;fill-rule:evenodd;"
d="M 155.890000,73.954321
155.794329,73.935291
155.713223,73.881098
155.659030,73.799992
155.640000,73.704321
155.640000,71.204321
155.659030,71.108650
155.713223,71.027544
155.794329,70.973351
155.890000,70.954321
156.390000,70.954321
156.485671,70.973351
156.566777,71.027544
156.620970,71.108650
156.640000,71.204321
156.640000,73.704321
156.620970,73.799992
156.566777,73.881098
156.485671,73.935291
156.390000,73.954321
Z" /> 
<path style="fill:#000000; fill-opacity:1.000000; stroke:none;fill-rule:evenodd;"
d="M 153.350000,68.914321
153.254329,68.895291
153.173223,68.841098
153.119030,68.759992
153.100000,68.664321
153.100000,66.164321
153.119030,66.068650
153.173223,65.987544
153.254329,65.933351
153.350000,65.914321
153.850000,65.914321
153.945671,65.933351
154.026777,65.987544
154.080970,66.068650
154.100000,66.164321
154.100000,68.664321
154.080970,68.759992
154.026777,68.841098
153.945671,68.895291
153.850000,68.914321
Z" /> 
<path style="fill:#000000; fill-opacity:1.000000; stroke:none;fill-rule:evenodd;"
d="M 153.350000,73.954321
153.254329,73.935291
153.173223,73.881098
153.119030,73.799992
153.100000,73.704321
153.100000,71.204321
153.119030,71.108650
153.173223,71.027544
153.254329,70.973351
153.350000,70.954321
153.850000,70.954321
153.945671,70.973351
154.026777,71.027544
154.080970,71.108650
154.100000,71.204321
154.100000,73.704321
154.080970,73.799992
154.026777,73.881098
153.945671,73.935291
153.850000,73.954321
Z" /> 
<path style="fill:#000000; fill-opacity:1.000000; stroke:none;fill-rule:evenodd;"
d="M 150.810000,68.914321
150.714329,68.895291
150.633223,68.841098
150.579030,68.759992
150.560000,68.664321
150.560000,66.164321
150.579030,66.068650
150.633223,65.987544
150.714329,65.933351
150.810000,65.914321
151.310000,65.914321
151.405671,65.933351
151.486777,65.987544
151.540970,66.068650
151.560000,66.164321
151.560000,68.664321
151.540970,68.759992
151.486777,68.841098
151.405671,68.895291
151.310000,68.914321
Z" /> 
<path style="fill:#000000; fill-opacity:1.000000; stroke:none;fill-rule:evenodd;"
d="M 150.810000,73.954321
150.714329,73.935291
150.633223,73.881098
150.579030,73.799992
150.560000,73.704321
150.560000,71.204321
150.579030,71.108650
150.633223,71.027544
150.714329,70.973351
150.810000,70.954321
151.310000,70.954321
151.405671,70.973351
151.486777,71.027544
151.540970,71.108650
151.560000,71.204321
151.560000,73.704321
151.540970,73.799992
151.486777,73.881098
151.405671,73.935291
151.310000,73.954321
Z" /> 
</g>
<g style="fill:#000000; fill-opacity:1.000000; stroke:none;">
<circle cx="162.000000" cy="129.751642" r="2.800000" /> 
</g>
<g style="fill:#000000; fill-opacity:1.000000; stroke:none;">
<circle cx="162.516000" cy="105.014321" r="0.495300" /> 
</g>
<g style="fill:#000000; fill-opacity:1.000000; stroke:none;">
<circle cx="161.500000" cy="99.934321" r="0.495300" /> 
</g>
<g style="fill:#000000; fill-opacity:1.000000; stroke:none;">
<circle cx="163.532000" cy="99.934321" r="0.495300" /> 
</g>
<g style="fill:#000000; fill-opacity:1.000000; stroke:none;">
<circle cx="161.881000" cy="103.744321" r="0.393700" /> 
</g>
<g style="fill:#000000; fill-opacity:1.000000; stroke:none;">
<circle cx="163.151000" cy="103.744321" r="0.393700" /> 
</g>
<g style="fill:#000000; fill-opacity:1.000000; stroke:none;">
<circle cx="161.881000" cy="102.474321" r="0.393700" /> 
</g>
<g style="fill:#000000; fill-opacity:1.000000; stroke:none;">
<circle cx="163.151000" cy="102.474321" r="0.393700" /> 
</g>
<g style="fill:#000000; fill-opacity:1.000000; stroke:none;">
<circle cx="161.881000" cy="101.204321" r="0.393700" /> 
</g>
<g style="fill:#000000; fill-opacity:1.000000; stroke:none;">
<circle cx="163.151000" cy="101.204321" r="0.393700" /> 
</g>
<g style="fill:#000000; fill-opacity:1.000000; stroke:none;">
<circle cx="133.000000" cy="129.751642" r="2.800000" /> 
</g>
<g style="fill:#000000; fill-opacity:1.000000; stroke:none;">
<circle cx="133.000000" cy="65.676642" r="2.800000" /> 
</g> 
</svg>
