<?xml version="1.0" standalone="no"?>
 <!DOCTYPE svg PUBLIC "-//W3C//DTD SVG 1.1//EN" 
 "http://www.w3.org/Graphics/SVG/1.1/DTD/svg11.dtd"> 
<svg
  xmlns:svg="http://www.w3.org/2000/svg"
  xmlns="http://www.w3.org/2000/svg"
  xmlns:xlink="http://www.w3.org/1999/xlink"
  version="1.1"
  width="297.002200mm" height="210.007200mm" viewBox="0.000000 0.000000 297.002200 210.007200">
<title>SVG Image created as mariposa-B_Paste.svg date 2025/06/16 18:28:30 </title>
  <desc>Image generated by PCBNEW </desc>
<g style="fill:#000000; fill-opacity:1.000000;stroke:#000000; stroke-opacity:1.000000;
stroke-linecap:round; stroke-linejoin:round;"
 transform="translate(0 0) scale(1 1)">
<path style="fill:#000000; fill-opacity:1.000000; stroke:none;fill-rule:evenodd;"
d="M 155.890000,68.914321
155.794329,68.895291
155.713223,68.841098
155.659030,68.759992
155.640000,68.664321
155.640000,66.164321
155.659030,66.068650
155.713223,65.987544
155.794329,65.933351
155.890000,65.914321
156.390000,65.914321
156.485671,65.933351
156.566777,65.987544
156.620970,66.068650
156.640000,66.164321
156.640000,68.664321
156.620970,68.759992
156.566777,68.841098
156.485671,68.895291
156.390000,68.914321
Z" /> 
<path style="fill:#000000; fill-opacity:1.000000; stroke:none;fill-rule:evenodd;"
d="M 155.890000,73.954321
155.794329,73.935291
155.713223,73.881098
155.659030,73.799992
155.640000,73.704321
155.640000,71.204321
155.659030,71.108650
155.713223,71.027544
155.794329,70.973351
155.890000,70.954321
156.390000,70.954321
156.485671,70.973351
156.566777,71.027544
156.620970,71.108650
156.640000,71.204321
156.640000,73.704321
156.620970,73.799992
156.566777,73.881098
156.485671,73.935291
156.390000,73.954321
Z" /> 
<path style="fill:#000000; fill-opacity:1.000000; stroke:none;fill-rule:evenodd;"
d="M 153.350000,68.914321
153.254329,68.895291
153.173223,68.841098
153.119030,68.759992
153.100000,68.664321
153.100000,66.164321
153.119030,66.068650
153.173223,65.987544
153.254329,65.933351
153.350000,65.914321
153.850000,65.914321
153.945671,65.933351
154.026777,65.987544
154.080970,66.068650
154.100000,66.164321
154.100000,68.664321
154.080970,68.759992
154.026777,68.841098
153.945671,68.895291
153.850000,68.914321
Z" /> 
<path style="fill:#000000; fill-opacity:1.000000; stroke:none;fill-rule:evenodd;"
d="M 153.350000,73.954321
153.254329,73.935291
153.173223,73.881098
153.119030,73.799992
153.100000,73.704321
153.100000,71.204321
153.119030,71.108650
153.173223,71.027544
153.254329,70.973351
153.350000,70.954321
153.850000,70.954321
153.945671,70.973351
154.026777,71.027544
154.080970,71.108650
154.100000,71.204321
154.100000,73.704321
154.080970,73.799992
154.026777,73.881098
153.945671,73.935291
153.850000,73.954321
Z" /> 
<path style="fill:#000000; fill-opacity:1.000000; stroke:none;fill-rule:evenodd;"
d="M 150.810000,68.914321
150.714329,68.895291
150.633223,68.841098
150.579030,68.759992
150.560000,68.664321
150.560000,66.164321
150.579030,66.068650
150.633223,65.987544
150.714329,65.933351
150.810000,65.914321
151.310000,65.914321
151.405671,65.933351
151.486777,65.987544
151.540970,66.068650
151.560000,66.164321
151.560000,68.664321
151.540970,68.759992
151.486777,68.841098
151.405671,68.895291
151.310000,68.914321
Z" /> 
<path style="fill:#000000; fill-opacity:1.000000; stroke:none;fill-rule:evenodd;"
d="M 150.810000,73.954321
150.714329,73.935291
150.633223,73.881098
150.579030,73.799992
150.560000,73.704321
150.560000,71.204321
150.579030,71.108650
150.633223,71.027544
150.714329,70.973351
150.810000,70.954321
151.310000,70.954321
151.405671,70.973351
151.486777,71.027544
151.540970,71.108650
151.560000,71.204321
151.560000,73.704321
151.540970,73.799992
151.486777,73.881098
151.405671,73.935291
151.310000,73.954321
Z" /> 
</g> 
</svg>
