<?xml version="1.0" standalone="no"?>
 <!DOCTYPE svg PUBLIC "-//W3C//DTD SVG 1.1//EN" 
 "http://www.w3.org/Graphics/SVG/1.1/DTD/svg11.dtd"> 
<svg
  xmlns:svg="http://www.w3.org/2000/svg"
  xmlns="http://www.w3.org/2000/svg"
  xmlns:xlink="http://www.w3.org/1999/xlink"
  version="1.1"
  width="297.002200mm" height="210.007200mm" viewBox="0.000000 0.000000 297.002200 210.007200">
<title>SVG Image created as mariposa-B_Silkscreen.svg date 2025/06/16 18:28:30 </title>
  <desc>Image generated by PCBNEW </desc>
<g style="fill:#000000; fill-opacity:1.000000;stroke:#000000; stroke-opacity:1.000000;
stroke-linecap:round; stroke-linejoin:round;"
 transform="translate(0 0) scale(1 1)">
<path style="fill:#000000; fill-opacity:1.000000; stroke:none;fill-rule:evenodd;"
d="M 154.998254,130.820596
155.006003,130.821183
155.013639,130.822150
155.021150,130.823489
155.028530,130.825188
155.035767,130.827237
155.042852,130.829631
155.049775,130.832356
155.056528,130.835403
155.063099,130.838766
155.069481,130.842431
155.075665,130.846391
155.081639,130.850637
155.087393,130.855157
155.092920,130.859943
155.098211,130.864987
155.103253,130.870277
155.108040,130.875804
155.112560,130.881559
155.116806,130.887532
155.120766,130.893716
155.124431,130.900098
155.127793,130.906670
155.130841,130.913423
155.133566,130.920346
155.135959,130.927430
155.138009,130.934668
155.139709,130.942047
155.141046,130.949558
155.142015,130.957195
155.142602,130.964944
155.142800,130.972797
155.143395,130.996317
155.145161,131.019529
155.148070,131.042404
155.152093,131.064913
155.157199,131.087028
155.163363,131.108721
155.170552,131.129962
155.178741,131.150722
155.187901,131.170973
155.197999,131.190686
155.209012,131.209832
155.220907,131.228382
155.233657,131.246307
155.247231,131.263581
155.261605,131.280172
155.276745,131.296052
155.292625,131.311193
155.309217,131.325566
155.326490,131.339140
155.344416,131.351891
155.362966,131.363786
155.382111,131.374797
155.401825,131.384896
155.422075,131.394056
155.442836,131.402245
155.464077,131.409434
155.485768,131.415598
155.507885,131.420705
155.530393,131.424727
155.553269,131.427636
155.576481,131.429402
155.599999,131.429997
156.362000,131.429998
156.362000,131.277597
156.362431,131.266152
156.363708,131.254878
156.365804,131.243815
156.368697,131.233001
156.372360,131.222474
156.376768,131.212274
156.381894,131.202438
156.387718,131.193003
156.394210,131.184011
156.401346,131.175496
156.409102,131.167501
156.417453,131.160061
156.426373,131.153215
156.435837,131.147001
156.445820,131.141459
156.456298,131.136628
156.467101,131.132595
156.478051,131.129424
156.489103,131.127104
156.500217,131.125622
156.511346,131.124969
156.522449,131.125133
156.533482,131.126106
156.544403,131.127877
156.555167,131.130434
156.565733,131.133766
156.576055,131.137866
156.586091,131.142721
156.595796,131.148322
156.605131,131.154657
156.614050,131.161716
156.622508,131.169489
156.927309,131.474289
156.932714,131.479976
156.937773,131.485868
156.942482,131.491950
156.946843,131.498209
156.950853,131.504631
156.954516,131.511203
156.957829,131.517910
156.960795,131.524742
156.963411,131.531681
156.965678,131.538715
156.967597,131.545831
156.969167,131.553015
156.970387,131.560254
156.971260,131.567533
156.971783,131.574838
156.971957,131.582158
156.971783,131.589480
156.971260,131.596785
156.970388,131.604065
156.969167,131.611304
156.967597,131.618488
156.965679,131.625604
156.963411,131.632638
156.960794,131.639577
156.957829,131.646408
156.954516,131.653116
156.950854,131.659686
156.946843,131.666109
156.942481,131.672368
156.937773,131.678451
156.932715,131.684342
156.927309,131.690030
156.622508,131.994830
156.614050,132.002680
156.605130,132.009798
156.595797,132.016173
156.586090,132.021798
156.576054,132.026662
156.565733,132.030761
156.555168,132.034083
156.544403,132.036620
156.533482,132.038366
156.522450,132.039311
156.511346,132.039445
156.500216,132.038764
156.489104,132.037255
156.478051,132.034913
156.467101,132.031728
156.456297,132.027690
156.450999,132.025367
156.445821,132.022864
156.440766,132.020186
156.435837,132.017336
156.431039,132.014321
156.426372,132.011144
156.421843,132.007811
156.417453,132.004325
156.413204,132.000691
156.409103,131.996913
156.405149,131.992997
156.401347,131.988947
156.397698,131.984767
156.394210,131.980461
156.390882,131.976036
156.387718,131.971493
156.384720,131.966840
156.381894,131.962079
156.379242,131.957215
156.376768,131.952254
156.374471,131.947198
156.372359,131.942055
156.370434,131.936827
156.368697,131.931518
156.367153,131.926135
156.365804,131.920680
156.364655,131.915160
156.363708,131.909578
156.362965,131.903938
156.362431,131.898245
156.362108,131.892505
156.362000,131.886720
156.362000,131.734321
155.600000,131.734321
155.560773,131.733330
155.522063,131.730389
155.483917,131.725544
155.446383,131.718847
155.409510,131.710342
155.373343,131.700076
155.337933,131.688102
155.303326,131.674463
155.269569,131.659207
155.236713,131.642385
155.204803,131.624041
155.173886,131.604226
155.144012,131.582987
155.115229,131.560370
155.087583,131.536425
155.061123,131.511197
155.035896,131.484738
155.011951,131.457092
154.989333,131.428308
154.968094,131.398434
154.948279,131.367518
154.929936,131.335608
154.913114,131.302750
154.897859,131.268995
154.884220,131.234388
154.872244,131.198978
154.861980,131.162812
154.853475,131.125938
154.846775,131.088403
154.841932,131.050257
154.838990,131.011548
154.838006,130.972558
154.838197,130.964944
154.838786,130.957195
154.839753,130.949559
154.841090,130.942047
154.842790,130.934667
154.844840,130.927430
154.847233,130.920346
154.849958,130.913422
154.853007,130.906670
154.856368,130.900097
154.860033,130.893715
154.863993,130.887533
154.868238,130.881558
154.872760,130.875804
154.877545,130.870276
154.882588,130.864987
154.887879,130.859944
154.893406,130.855157
154.899161,130.850636
154.905135,130.846391
154.911318,130.842431
154.917699,130.838766
154.924272,130.835404
154.931025,130.832356
154.937949,130.829631
154.945032,130.827237
154.952269,130.825188
154.959648,130.823489
154.967162,130.822151
154.974797,130.821183
154.982545,130.820596
154.990400,130.820398
Z" /> 
<path style="fill:#000000; fill-opacity:1.000000; stroke:none;fill-rule:evenodd;"
d="M 139.210743,129.771040
139.262314,129.774969
139.313134,129.781442
139.363135,129.790389
139.412256,129.801751
139.460433,129.815463
139.507601,129.831460
139.553701,129.849678
139.598663,129.870053
139.642429,129.892521
139.684931,129.917020
139.726110,129.943483
139.765898,129.971847
139.804234,130.002046
139.841055,130.034020
139.876293,130.067704
139.909891,130.103031
139.941780,130.139938
139.971901,130.178363
140.000186,130.218241
140.026573,130.259508
140.051000,130.302099
140.073402,130.345950
140.093715,130.390999
140.111878,130.437179
140.127824,130.484429
140.141491,130.532682
140.152817,130.581877
140.161736,130.631947
140.168185,130.682829
140.172101,130.734460
140.173421,130.786775
140.172101,130.839089
140.168185,130.890719
140.161736,130.941603
140.152817,130.991672
140.141492,131.040866
140.127824,131.089120
140.111877,131.136369
140.093715,131.182548
140.073402,131.227597
140.051001,131.271450
140.026574,131.314041
140.000185,131.355307
139.971900,131.395184
139.941780,131.433611
139.909891,131.470519
139.876294,131.505845
139.841054,131.539528
139.804234,131.571503
139.765897,131.601702
139.726110,131.630066
139.684933,131.656529
139.642429,131.681026
139.598664,131.703495
139.553701,131.723871
139.507602,131.742089
139.460433,131.758085
139.412256,131.771797
139.363135,131.783160
139.313134,131.792108
139.262314,131.798578
139.210742,131.802508
139.158479,131.803832
139.107199,131.802559
139.056587,131.798777
139.006701,131.792549
138.957603,131.783932
138.909351,131.772985
138.862004,131.759770
138.815624,131.744346
138.770269,131.726772
138.725999,131.707109
138.682875,131.685416
138.640955,131.661753
138.600299,131.636177
138.560968,131.608752
138.523019,131.579535
138.486514,131.548587
138.451513,131.515966
138.449090,131.513494
138.446782,131.510942
138.444591,131.508314
138.442517,131.505615
138.440560,131.502848
138.438724,131.500017
138.435406,131.494179
138.432573,131.488133
138.430229,131.481912
138.428383,131.475546
138.427039,131.469068
138.426203,131.462510
138.425881,131.455903
138.426081,131.449278
138.426378,131.445969
138.426807,131.442669
138.427370,131.439378
138.428067,131.436105
138.428899,131.432851
138.429865,131.429621
138.430970,131.426417
138.432211,131.423246
138.433591,131.420108
138.435108,131.417012
138.436753,131.413978
138.438508,131.411031
138.440372,131.408171
138.442338,131.405399
138.444405,131.402719
138.446570,131.400133
138.448827,131.397644
138.451174,131.395249
138.453607,131.392955
138.456122,131.390762
138.458716,131.388674
138.461386,131.386689
138.464127,131.384810
138.466937,131.383041
138.469810,131.381383
138.472745,131.379837
138.475737,131.378408
138.478784,131.377093
138.481879,131.375898
138.485023,131.374823
138.488209,131.373870
138.491435,131.373043
138.494695,131.372342
138.497989,131.371769
138.501310,131.371326
138.504658,131.371014
138.508026,131.370838
138.511413,131.370796
138.514814,131.370893
138.518226,131.371131
138.521644,131.371510
138.525067,131.372032
138.541214,131.374660
138.557503,131.376978
138.573929,131.378972
138.590484,131.380631
138.607165,131.381945
138.623963,131.382897
138.640873,131.383478
138.657888,131.383675
138.697680,131.382665
138.736950,131.379672
138.775651,131.374741
138.813736,131.367921
138.851154,131.359264
138.887858,131.348814
138.923797,131.336623
138.958926,131.322737
138.993192,131.307208
139.026548,131.290082
139.058945,131.271408
139.090336,131.251237
139.120670,131.229613
139.149900,131.206589
139.177974,131.182212
139.204847,131.156529
139.230470,131.129593
139.254792,131.101447
139.277766,131.072145
139.299343,131.041731
139.319472,131.010257
139.338108,130.977770
139.355200,130.944320
139.370700,130.909954
139.384559,130.874723
139.396728,130.838671
139.407159,130.801852
139.415802,130.764311
139.422610,130.726100
139.427532,130.687263
139.430522,130.647853
139.431529,130.607916
139.429689,130.553998
139.424249,130.501070
139.415330,130.449251
139.403053,130.398663
139.387541,130.349428
139.368910,130.301665
139.347285,130.255495
139.322785,130.211042
139.295533,130.168422
139.265648,130.127759
139.233251,130.089174
139.198464,130.052788
139.161408,130.018720
139.122202,129.987092
139.080969,129.958026
139.037828,129.931642
139.034850,129.929851
139.031965,129.927956
139.029176,129.925960
139.026485,129.923866
139.023893,129.921677
139.021402,129.919398
139.019014,129.917033
139.016729,129.914583
139.014549,129.912055
139.012477,129.909449
139.010513,129.906771
139.008659,129.904024
139.006917,129.901212
139.005287,129.898338
139.003773,129.895404
139.002374,129.892416
139.001095,129.889378
138.999934,129.886291
138.998895,129.883161
138.997976,129.879990
138.997184,129.876784
138.996516,129.873542
138.995975,129.870272
138.995562,129.866975
138.995280,129.863657
138.995130,129.860318
138.995113,129.856966
138.995231,129.853600
138.995486,129.850227
138.995878,129.846850
138.996410,129.843472
138.997083,129.840095
138.997894,129.836748
138.998833,129.833457
138.999902,129.830224
139.001095,129.827052
139.002408,129.823944
139.003840,129.820901
139.005388,129.817928
139.007047,129.815027
139.008814,129.812198
139.010690,129.809448
139.012669,129.806779
139.014748,129.804191
139.016923,129.801689
139.019194,129.799273
139.021556,129.796949
139.024005,129.794719
139.026540,129.792585
139.029157,129.790549
139.031854,129.788616
139.034626,129.786785
139.037472,129.785063
139.040390,129.783451
139.043372,129.781950
139.046420,129.780564
139.049530,129.779297
139.052696,129.778149
139.055919,129.777125
139.059193,129.776227
139.062518,129.775458
139.065887,129.774820
139.069301,129.774317
139.072754,129.773950
139.083471,129.773030
139.094193,129.772254
139.104929,129.771614
139.115683,129.771105
139.126462,129.770719
139.137271,129.770452
139.159008,129.770245
139.158479,129.769716
Z" /> 
<path style="fill:#000000; fill-opacity:1.000000; stroke:none;fill-rule:evenodd;"
d="M 161.203075,106.219518
161.380004,106.393761
161.381496,106.397285
161.381496,106.595794
161.380032,106.599330
161.379816,106.599533
161.216320,106.744711
161.212704,106.745963
161.211639,106.745783
160.982208,106.680903
160.982208,106.825519
161.069181,106.929413
161.309281,106.929413
161.312817,106.930877
161.314281,106.934413
161.314230,106.935127
161.301383,107.024129
161.299428,107.027419
161.296434,107.028415
161.013063,107.028415
161.009527,107.026951
161.009238,107.026635
160.868701,106.859719
160.867526,106.856499
160.867526,106.596890
160.979424,106.596890
161.179578,106.645249
161.267351,106.561703
161.267351,106.437528
161.149316,106.318254
160.979424,106.318254
160.979424,106.596890
160.867526,106.596890
160.867526,106.223666
160.868990,106.220130
160.872526,106.218666
160.918689,106.218666
160.920104,106.218080
161.199567,106.218080
Z" /> 
<path style="fill:#000000; fill-opacity:1.000000; stroke:none;fill-rule:evenodd;"
d="M 161.677618,106.219544
161.679082,106.223080
161.679082,106.665537
161.869545,106.709907
161.941803,106.634476
161.941803,106.223080
161.943267,106.219544
161.946803,106.218080
162.054319,106.218080
162.057855,106.219544
162.059319,106.223080
162.059319,106.662815
162.057883,106.666322
161.912266,106.814333
161.908743,106.815826
161.907229,106.815604
161.672009,106.743111
161.649622,106.800148
161.646967,106.802904
161.644968,106.803321
161.567103,106.803321
161.563567,106.801857
161.562103,106.798321
161.562103,106.223080
161.563567,106.219544
161.567103,106.218080
161.674082,106.218080
Z" /> 
<path style="fill:#000000; fill-opacity:1.000000; stroke:none;fill-rule:evenodd;"
d="M 163.642251,105.936783
163.750304,105.955248
163.753543,105.957288
163.754462,105.960177
163.754462,106.218080
163.979050,106.218080
163.982556,106.219515
164.159535,106.393562
164.161029,106.397085
164.161029,106.660470
164.159565,106.664006
164.159370,106.664190
163.991917,106.814546
163.988307,106.815819
163.987058,106.815590
163.740913,106.737183
163.720611,106.799862
163.718128,106.802774
163.715854,106.803321
163.641409,106.803321
163.637873,106.801857
163.636409,106.798321
163.636409,106.655492
163.747770,106.655492
163.953677,106.704409
164.044637,106.627952
164.044637,106.431595
163.928777,106.312685
163.747770,106.312685
163.747770,106.655492
163.636409,106.655492
163.636409,105.941712
163.637873,105.938176
163.641409,105.936712
Z" /> 
<path style="fill:#000000; fill-opacity:1.000000; stroke:none;fill-rule:evenodd;"
d="M 162.648969,105.936784
162.757022,105.955346
162.760258,105.957388
162.761175,105.960274
162.761175,106.798321
162.759711,106.801857
162.756175,106.803321
162.418485,106.803321
162.414979,106.801886
162.238050,106.627887
162.236556,106.624364
162.236556,106.393558
162.352948,106.393558
162.352948,106.590439
162.468760,106.709350
162.649815,106.709350
162.649815,106.367169
162.443842,106.317821
162.352948,106.393558
162.236556,106.393558
162.236556,106.360979
162.238020,106.357443
162.238215,106.357259
162.405668,106.206855
162.409277,106.205582
162.410535,106.205814
162.643122,106.280365
162.643122,105.941712
162.644586,105.938176
162.648122,105.936712
Z" /> 
<path style="fill:#000000; fill-opacity:1.000000; stroke:none;fill-rule:evenodd;"
d="M 163.298658,106.219544
163.298930,106.219840
163.461888,106.411326
163.463080,106.414566
163.463080,106.605711
163.461714,106.609145
163.279705,106.801755
163.276212,106.803319
163.276071,106.803321
162.980390,106.803321
162.976854,106.801857
162.975454,106.799116
162.962021,106.715682
162.962904,106.711958
162.966162,106.709951
162.966957,106.709887
163.226920,106.709887
163.352843,106.580620
163.352843,106.531332
163.012875,106.531332
163.009442,106.529967
162.938318,106.462800
162.936753,106.459308
162.936751,106.459165
162.936751,106.345545
163.035802,106.345545
163.035802,106.411813
163.077526,106.449671
163.352843,106.449671
163.352843,106.443004
163.247299,106.307605
163.078616,106.307605
163.035802,106.345545
162.936751,106.345545
162.936751,106.319898
162.938196,106.316382
163.033939,106.219564
163.037466,106.218080
163.295122,106.218080
Z" /> 
<path style="fill:#000000; fill-opacity:1.000000; stroke:none;fill-rule:evenodd;"
d="M 130.015606,92.136081
130.015599,92.136321
130.015599,92.135844
Z" /> 
<path style="fill:#000000; fill-opacity:1.000000; stroke:none;fill-rule:evenodd;"
d="M 157.492961,72.478888
157.525433,72.511360
157.525433,72.557282
157.492961,72.589754
157.470000,72.594321
156.900000,72.594321
156.877039,72.589754
156.844567,72.557282
156.844567,72.511360
156.877039,72.478888
156.900000,72.474321
157.470000,72.474321
Z" /> 
<path style="fill:#000000; fill-opacity:1.000000; stroke:none;fill-rule:evenodd;"
d="M 150.322961,67.278888
150.355433,67.311360
150.355433,67.357282
150.322961,67.389754
150.300000,67.394321
149.790000,67.394321
149.790000,67.934321
149.785433,67.957282
149.752961,67.989754
149.707039,67.989754
149.674567,67.957282
149.670000,67.934321
149.670000,67.334321
149.674567,67.311360
149.707039,67.278888
149.730000,67.274321
150.300000,67.274321
Z" /> 
<path style="fill:#000000; fill-opacity:1.000000; stroke:none;fill-rule:evenodd;"
d="M 157.506348,67.275160
157.559161,67.327973
157.587743,67.396977
157.587743,67.471665
157.559161,67.540669
157.506348,67.593482
157.437344,67.622064
157.362656,67.622064
157.293652,67.593482
157.240839,67.540669
157.212257,67.471665
157.212257,67.396977
157.240839,67.327973
157.293652,67.275160
157.362656,67.246578
157.437344,67.246578
Z" /> 
<path style="fill:#000000; fill-opacity:1.000000; stroke:none;fill-rule:evenodd;"
d="M 154.565657,65.609265
154.567121,65.612801
154.567121,65.830648
154.777690,65.830648
154.781226,65.832112
154.782690,65.835648
154.782690,65.927532
154.781226,65.931068
154.777690,65.932532
154.567121,65.932532
154.567121,66.150379
154.565657,66.153915
154.562121,66.155379
154.463007,66.155379
154.459471,66.153915
154.458007,66.150379
154.458007,65.932532
154.247927,65.932532
154.244391,65.931068
154.242927,65.927532
154.242927,65.835648
154.244391,65.832112
154.247927,65.830648
154.458007,65.830648
154.458007,65.612801
154.459471,65.609265
154.463007,65.607801
154.562121,65.607801
Z" /> 
</g> 
</svg>
