<?xml version="1.0" standalone="no"?>
 <!DOCTYPE svg PUBLIC "-//W3C//DTD SVG 1.1//EN" 
 "http://www.w3.org/Graphics/SVG/1.1/DTD/svg11.dtd"> 
<svg
  xmlns:svg="http://www.w3.org/2000/svg"
  xmlns="http://www.w3.org/2000/svg"
  xmlns:xlink="http://www.w3.org/1999/xlink"
  version="1.1"
  width="297.002200mm" height="210.007200mm" viewBox="0.000000 0.000000 297.002200 210.007200">
<title>SVG Image created as mariposa-Edge_Cuts.svg date 2025/06/16 18:28:30 </title>
  <desc>Image generated by PCBNEW </desc>
<g style="fill:#000000; fill-opacity:1.000000;stroke:#000000; stroke-opacity:1.000000;
stroke-linecap:round; stroke-linejoin:round;"
 transform="translate(0 0) scale(1 1)">
</g>
<g style="fill:none; 
stroke:#000000; stroke-width:0.050000; stroke-opacity:1; 
stroke-linecap:round; stroke-linejoin:round;">
<path d="M133.643887 60.229611
L133.929199 60.192049
" />
<path d="M156.662297 59.737598
L156.315963 59.997349
" />
<path d="M133.500000 85.588900
L133.500000 81.580595
" />
<path d="M161.500000 85.606395
L161.500000 81.571300
" />
<path d="M159.845952 59.484882
L159.670767 59.256576
" />
<path d="M131.342272 57.605122
L131.304710 57.890434
" />
<path d="M131.670767 59.256576
L131.845952 59.484882
" />
<path d="M161.070801 55.876593
L161.356113 55.839031
" />
<path d="M159.845952 56.583760
L160.049439 56.380273
" />
<path d="M160.277745 56.205088
L160.526965 56.061201
" />
<path d="M161.643887 55.839031
L161.929199 55.876593
" />
<path d="M156.000000 60.634300
L156.000000 60.697665
" />
<path d="M163.154048 59.484882
L162.950561 59.688369
" />
<path d="M134.722255 59.863554
L134.950561 59.688369
" />
<path d="M134.950561 56.380273
L134.722255 56.205088
" />
<path d="M165.499971 63.988500 A1.799971 1.799971 0.0 0 0 163.700000 62.188529" />
<path d="M138.337663 59.737568
L138.679910 59.994254
" />
<path d="M165.500000 105.588900
L165.500000 92.571300
" />
<path d="M132.049439 59.688369
L132.277745 59.863554
" />
<path d="M129.500000 105.606395 A3.600243 3.600243 0.0 0 0 130.554443 108.134556" />
<path d="M133.499989 112.571300 A3.599589 3.599589 0.0 0 0 132.445644 110.025757" />
<path d="M155.999999 60.697665 A1.500029 1.500029 0.0 0 0 157.500000 62.188529" />
<path d="M161.356113 60.229611
L161.070801 60.192049
" />
<path d="M138.301974 56.341286
L138.480177 56.173567
" />
<path d="M153.000032 77.880768 A0.500032 0.500032 0.0 0 0 152.500000 77.380768" />
<path d="M161.500000 121.990121
L161.500000 112.571300
" />
<path d="M152.500000 78.375100 A0.499900 0.499900 0.0 0 0 153.000000 77.875144" />
<path d="M160.792833 60.117567
L160.526965 60.007441
" />
<path d="M133.643887 55.839031
L133.356113 55.839031
" />
<path d="M132.792833 55.951075
L132.526965 56.061201
" />
<path d="M131.304710 58.178208
L131.342272 58.463520
" />
<path d="M156.698013 56.341289 A3.599960 3.599960 0.0 0 0 159.075514 57.318640" />
<path d="M133.070801 55.876593
L132.792833 55.951075
" />
<path d="M163.473120 57.061286
L163.583246 57.327154
" />
<path d="M129.500022 74.589000 A3.599678 3.599678 0.0 0 0 130.554343 77.134456" />
<path d="M131.845952 56.583760
L131.670767 56.812066
" />
<path d="M163.154048 56.583760
L163.329233 56.812066
" />
<path d="M132.445563 88.134506 A3.600000 3.600000 0.0 0 0 133.500000 85.588900" />
<path d="M161.929199 55.876593
L162.207167 55.951075
" />
<path d="M135.154048 59.484882
L135.329233 59.256576
" />
<path d="M163.473120 59.007356
L163.329233 59.256576
" />
<path d="M134.207167 55.951075
L133.929199 55.876593
" />
<path d="M135.583246 57.327154
L135.473120 57.061286
" />
<path d="M132.277745 56.205088
L132.049439 56.380273
" />
<path d="M162.473035 56.061201
L162.722255 56.205088
" />
<path d="M131.845952 59.484882
L132.049439 59.688369
" />
<path d="M159.416754 57.327154
L159.526880 57.061286
" />
<path d="M160.049439 59.688369
L159.845952 59.484882
" />
<path d="M161.929199 60.192049
L161.643887 60.229611
" />
<path d="M129.499999 131.351826 A1.800027 1.800027 0.0 0 0 131.300000 133.161527" />
<path d="M152.500000 78.375144
L142.500000 78.375144
" />
<path d="M163.695290 58.178208
L163.657728 58.463520
" />
<path d="M165.500000 131.361400
L165.500000 130.170105
" />
<path d="M132.049439 56.380273
L131.845952 56.583760
" />
<path d="M160.792833 55.951075
L161.070801 55.876593
" />
<path d="M158.771963 59.017950 A3.600303 3.600303 0.0 0 0 156.662297 59.737598" />
<path d="M133.356113 60.229611
L133.643887 60.229611
" />
<path d="M159.670767 59.256576
L159.526880 59.007356
" />
<path d="M161.500000 85.606395 A3.600243 3.600243 0.0 0 0 162.554443 88.134556" />
<path d="M135.329233 56.812066
L135.154048 56.583760
" />
<path d="M162.554416 79.025697
L164.445585 77.134528
" />
<path d="M161.643887 60.229611
L161.356113 60.229611
" />
<path d="M133.929199 55.876593
L133.643887 55.839031
" />
<path d="M141.999932 77.880768 A0.500068 0.500068 0.0 0 0 142.500000 78.380768" />
<path d="M135.329233 59.256576
L135.473120 59.007356
" />
<path d="M164.445593 90.025706
L162.554443 88.134556
" />
<path d="M163.700000 62.188529
L157.500000 62.188529
" />
<path d="M163.715900 133.161527
L131.300000 133.161527
" />
<path d="M142.508346 77.380768 A0.500100 0.500100 0.0 0 0 142.000000 77.880768" />
<path d="M133.929199 60.192049
L134.207167 60.117567
" />
<path d="M131.342272 58.463520
L131.416754 58.741488
" />
<path d="M159.075514 57.318640
L159.416754 57.327154
" />
<path d="M133.500000 121.990100
L133.500000 112.571300
" />
<path d="M142.508346 77.380768
L152.500000 77.380768
" />
<path d="M130.099997 128.173178 A3.600019 3.600019 0.0 0 0 129.495381 130.170100" />
<path d="M160.277745 59.863554
L160.049439 59.688369
" />
<path d="M134.207167 60.117567
L134.473035 60.007441
" />
<path d="M130.554416 90.025697
L132.445585 88.134528
" />
<path d="M162.473035 60.007441
L162.207167 60.117567
" />
<path d="M139.713839 55.684301 A1.800099 1.800099 0.0 0 0 138.480177 56.173567" />
<path d="M161.356113 55.839031
L161.643887 55.839031
" />
<path d="M131.304710 57.890434
L131.304710 58.178208
" />
<path d="M162.722255 59.863554
L162.473035 60.007441
" />
<path d="M132.445644 110.025757
L130.554443 108.134556
" />
<path d="M163.715900 133.161528 A1.800200 1.800200 0.0 0 0 165.500000 131.361400" />
<path d="M164.895348 128.173134
L162.104594 123.987005
" />
<path d="M133.356113 55.839031
L133.070801 55.876593
" />
<path d="M159.670767 56.812066
L159.845952 56.583760
" />
<path d="M163.329233 59.256576
L163.154048 59.484882
" />
<path d="M131.416754 57.327154
L131.342272 57.605122
" />
<path d="M129.500000 63.988600
L129.500000 74.589000
" />
<path d="M132.526965 60.007441
L132.792833 60.117567
" />
<path d="M133.500001 81.580595 A3.600013 3.600013 0.0 0 0 132.445594 79.025707" />
<path d="M160.049439 56.380273
L160.277745 56.205088
" />
<path d="M159.526880 57.061286
L159.670767 56.812066
" />
<path d="M131.526880 57.061286
L131.416754 57.327154
" />
<path d="M163.695290 57.890434
L163.695290 58.178208
" />
<path d="M131.670767 56.812066
L131.526880 57.061286
" />
<path d="M134.473035 56.061201
L134.207167 55.951075
" />
<path d="M132.895385 123.987045 A3.600100 3.600100 0.0 0 0 133.500000 121.990100" />
<path d="M135.473120 59.007356
L136.228068 59.017920
" />
<path d="M134.950561 59.688369
L135.154048 59.484882
" />
<path d="M164.445571 77.134514 A3.599800 3.599800 0.0 0 0 165.500000 74.589000" />
<path d="M162.722255 56.205088
L162.950561 56.380273
" />
<path d="M163.329233 56.812066
L163.473120 57.061286
" />
<path d="M163.583246 58.741488
L163.473120 59.007356
" />
<path d="M139.000000 60.640466 A0.800123 0.800123 0.0 0 0 138.679910 59.994254" />
<path d="M156.513503 56.167601 A1.800279 1.800279 0.0 0 0 155.286200 55.684321" />
<path d="M137.485205 62.188529 A1.500200 1.500200 0.0 0 0 139.000000 60.688400" />
<path d="M132.526965 56.061201
L132.277745 56.205088
" />
<path d="M163.583246 57.327154
L163.657728 57.605122
" />
<path d="M129.500000 105.606395
L129.500000 92.571300
" />
<path d="M163.657728 58.463520
L163.583246 58.741488
" />
<path d="M165.499989 92.571300 A3.599589 3.599589 0.0 0 0 164.445593 90.025706" />
<path d="M134.473035 60.007441
L134.722255 59.863554
" />
<path d="M165.500000 63.988500
L165.500000 74.589000
" />
<path d="M164.445563 108.134506 A3.600000 3.600000 0.0 0 0 165.500000 105.588900" />
<path d="M163.657728 57.605122
L163.695290 57.890434
" />
<path d="M160.526965 60.007441
L160.277745 59.863554
" />
<path d="M139.000000 60.640466
L139.000000 60.688400
" />
<path d="M135.154048 56.583760
L134.950561 56.380273
" />
<path d="M162.554425 79.025706 A3.600000 3.600000 0.0 0 0 161.500000 81.571300" />
<path d="M161.070801 60.192049
L160.792833 60.117567
" />
<path d="M156.698020 56.341281
L156.513495 56.167610
" />
<path d="M131.300000 62.188600 A1.799900 1.799900 0.0 0 0 129.500000 63.988600" />
<path d="M131.526880 59.007356
L131.670767 59.256576
" />
<path d="M162.950561 59.688369
L162.722255 59.863554
" />
<path d="M135.924460 57.318641
L135.583246 57.327154
" />
<path d="M130.554425 90.025706 A3.600000 3.600000 0.0 0 0 129.500000 92.571300" />
<path d="M130.100002 128.173180
L132.890762 123.987042
" />
<path d="M137.485205 62.188529
L131.300000 62.188529
" />
<path d="M138.337645 59.737592 A3.600034 3.600034 0.0 0 0 136.228068 59.017920" />
<path d="M162.950561 56.380273
L163.154048 56.583760
" />
<path d="M132.445594 79.025707
L130.554343 77.134456
" />
<path d="M160.526965 56.061201
L160.792833 55.951075
" />
<path d="M131.416754 58.741488
L131.526880 59.007356
" />
<path d="M156.315986 59.997380 A0.799900 0.799900 0.0 0 0 156.000000 60.634300" />
<path d="M162.207167 60.117567
L161.929199 60.192049
" />
<path d="M133.070801 60.192049
L133.356113 60.229611
" />
<path d="M165.499978 130.170105 A3.600078 3.600078 0.0 0 0 164.895345 128.173134" />
<path d="M162.554425 110.025706 A3.600000 3.600000 0.0 0 0 161.500000 112.571300" />
<path d="M135.473120 57.061286
L135.329233 56.812066
" />
<path d="M162.554416 110.025697
L164.445585 108.134528
" />
<path d="M161.500010 121.990121 A3.599790 3.599790 0.0 0 0 162.104594 123.987005" />
<path d="M159.526880 59.007356
L158.771963 59.017920
" />
<path d="M129.500000 131.351826
L129.500000 130.170100
" />
<path d="M162.207167 55.951075
L162.473035 56.061201
" />
<path d="M135.924459 57.318602 A3.600021 3.600021 0.0 0 0 138.301974 56.341286" />
<path d="M134.722255 56.205088
L134.473035 56.061201
" />
<path d="M132.792833 60.117567
L133.070801 60.192049
" />
<path d="M132.277745 59.863554
L132.526965 60.007441
" />
<path d="M155.286200 55.684321
L139.713839 55.684321
" />
</g> 
</svg>
