<?xml version="1.0" encoding="UTF-8" standalone="no"?>
<!DOCTYPE svg PUBLIC "-//W3C//DTD SVG 1.1//EN" "http://www.w3.org/Graphics/SVG/1.1/DTD/svg11.dtd">
<svg width="100%" height="100%" viewBox="0 0 842 596" version="1.1" xmlns="http://www.w3.org/2000/svg" xmlns:xlink="http://www.w3.org/1999/xlink" xml:space="preserve" xmlns:serif="http://www.serif.com/" style="fill-rule:evenodd;clip-rule:evenodd;stroke-linecap:round;stroke-linejoin:round;">
    <g>
        <path d="M378.833,170.73L379.642,170.623" style="fill:none;fill-rule:nonzero;stroke:black;stroke-width:0.14px;"/>
        <path d="M444.082,169.335L443.1,170.071" style="fill:none;fill-rule:nonzero;stroke:black;stroke-width:0.14px;"/>
        <path d="M378.425,242.614L378.425,231.252" style="fill:none;fill-rule:nonzero;stroke:black;stroke-width:0.14px;"/>
        <path d="M457.795,242.664L457.795,231.226" style="fill:none;fill-rule:nonzero;stroke:black;stroke-width:0.14px;"/>
        <path d="M453.107,168.619L452.61,167.971" style="fill:none;fill-rule:nonzero;stroke:black;stroke-width:0.14px;"/>
        <path d="M372.309,163.29L372.202,164.099" style="fill:none;fill-rule:nonzero;stroke:black;stroke-width:0.14px;"/>
        <path d="M373.24,167.971L373.737,168.619" style="fill:none;fill-rule:nonzero;stroke:black;stroke-width:0.14px;"/>
        <path d="M456.579,158.39L457.387,158.284" style="fill:none;fill-rule:nonzero;stroke:black;stroke-width:0.14px;"/>
        <path d="M453.107,160.395L453.683,159.818" style="fill:none;fill-rule:nonzero;stroke:black;stroke-width:0.14px;"/>
        <path d="M454.331,159.322L455.037,158.914" style="fill:none;fill-rule:nonzero;stroke:black;stroke-width:0.14px;"/>
        <path d="M458.203,158.284L459.012,158.39" style="fill:none;fill-rule:nonzero;stroke:black;stroke-width:0.14px;"/>
        <path d="M442.205,171.877L442.205,172.056" style="fill:none;fill-rule:nonzero;stroke:black;stroke-width:0.14px;"/>
        <path d="M462.484,168.619L461.907,169.195" style="fill:none;fill-rule:nonzero;stroke:black;stroke-width:0.14px;"/>
        <path d="M381.89,169.692L382.537,169.195" style="fill:none;fill-rule:nonzero;stroke:black;stroke-width:0.14px;"/>
        <path d="M382.537,159.818L381.89,159.322" style="fill:none;fill-rule:nonzero;stroke:black;stroke-width:0.14px;"/>
        <path d="M469.134,181.385C469.134,178.586 466.831,176.282 464.031,176.282" style="fill:none;fill-rule:nonzero;stroke:black;stroke-width:0.14px;"/>
        <path d="M392.138,169.335L393.108,170.062" style="fill:none;fill-rule:nonzero;stroke:black;stroke-width:0.14px;"/>
        <path d="M469.134,299.307L469.134,262.407" style="fill:none;fill-rule:nonzero;stroke:black;stroke-width:0.14px;"/>
        <path d="M374.313,169.195L374.961,169.692" style="fill:none;fill-rule:nonzero;stroke:black;stroke-width:0.14px;"/>
        <path d="M367.087,299.357C367.1,302.045 368.175,304.622 370.076,306.523" style="fill:none;fill-rule:nonzero;stroke:black;stroke-width:0.14px;"/>
        <path d="M378.425,319.1C378.425,316.394 377.35,313.797 375.436,311.884" style="fill:none;fill-rule:nonzero;stroke:black;stroke-width:0.14px;"/>
        <path d="M442.205,172.056C442.219,174.379 444.134,176.282 446.457,176.282" style="fill:none;fill-rule:nonzero;stroke:black;stroke-width:0.14px;"/>
        <path d="M457.387,170.73L456.579,170.623" style="fill:none;fill-rule:nonzero;stroke:black;stroke-width:0.14px;"/>
        <path d="M392.037,159.708L392.542,159.232" style="fill:none;fill-rule:nonzero;stroke:black;stroke-width:0.14px;"/>
        <path d="M433.701,220.764C433.701,219.987 433.061,219.347 432.283,219.347" style="fill:none;fill-rule:nonzero;stroke:black;stroke-width:0.14px;"/>
        <path d="M457.795,345.799L457.795,319.1" style="fill:none;fill-rule:nonzero;stroke:black;stroke-width:0.14px;"/>
        <path d="M432.283,222.166C432.284,222.166 432.284,222.166 432.284,222.166C433.061,222.166 433.701,221.526 433.701,220.749C433.701,220.749 433.701,220.748 433.701,220.748" style="fill:none;fill-rule:nonzero;stroke:black;stroke-width:0.14px;"/>
        <path d="M455.791,170.412L455.037,170.1" style="fill:none;fill-rule:nonzero;stroke:black;stroke-width:0.14px;"/>
        <path d="M378.833,158.284L378.017,158.284" style="fill:none;fill-rule:nonzero;stroke:black;stroke-width:0.14px;"/>
        <path d="M376.421,158.601L375.667,158.914" style="fill:none;fill-rule:nonzero;stroke:black;stroke-width:0.14px;"/>
        <path d="M372.202,164.915L372.309,165.723" style="fill:none;fill-rule:nonzero;stroke:black;stroke-width:0.14px;"/>
        <path d="M444.183,159.708C446.012,161.428 448.413,162.415 450.923,162.478" style="fill:none;fill-rule:nonzero;stroke:black;stroke-width:0.14px;"/>
        <path d="M377.209,158.39L376.421,158.601" style="fill:none;fill-rule:nonzero;stroke:black;stroke-width:0.14px;"/>
        <path d="M463.388,161.749L463.701,162.502" style="fill:none;fill-rule:nonzero;stroke:black;stroke-width:0.14px;"/>
        <path d="M367.087,211.433C367.087,214.139 368.162,216.736 370.075,218.649" style="fill:none;fill-rule:nonzero;stroke:black;stroke-width:0.14px;"/>
        <path d="M373.737,160.395L373.24,161.042" style="fill:none;fill-rule:nonzero;stroke:black;stroke-width:0.14px;"/>
        <path d="M462.484,160.395L462.981,161.042" style="fill:none;fill-rule:nonzero;stroke:black;stroke-width:0.14px;"/>
        <path d="M375.436,249.83C377.349,247.917 378.425,245.32 378.425,242.614" style="fill:none;fill-rule:nonzero;stroke:black;stroke-width:0.14px;"/>
        <path d="M459.012,158.39L459.8,158.601" style="fill:none;fill-rule:nonzero;stroke:black;stroke-width:0.14px;"/>
        <path d="M383.114,168.619L383.61,167.971" style="fill:none;fill-rule:nonzero;stroke:black;stroke-width:0.14px;"/>
        <path d="M463.388,167.265L462.981,167.971" style="fill:none;fill-rule:nonzero;stroke:black;stroke-width:0.14px;"/>
        <path d="M380.43,158.601L379.642,158.39" style="fill:none;fill-rule:nonzero;stroke:black;stroke-width:0.14px;"/>
        <path d="M384.33,162.502L384.018,161.749" style="fill:none;fill-rule:nonzero;stroke:black;stroke-width:0.14px;"/>
        <path d="M374.961,159.322L374.313,159.818" style="fill:none;fill-rule:nonzero;stroke:black;stroke-width:0.14px;"/>
        <path d="M460.553,158.914L461.26,159.322" style="fill:none;fill-rule:nonzero;stroke:black;stroke-width:0.14px;"/>
        <path d="M373.737,168.619L374.313,169.195" style="fill:none;fill-rule:nonzero;stroke:black;stroke-width:0.14px;"/>
        <path d="M451.89,162.502L452.202,161.749" style="fill:none;fill-rule:nonzero;stroke:black;stroke-width:0.14px;"/>
        <path d="M453.683,169.195L453.107,168.619" style="fill:none;fill-rule:nonzero;stroke:black;stroke-width:0.14px;"/>
        <path d="M459.012,170.623L458.203,170.73" style="fill:none;fill-rule:nonzero;stroke:black;stroke-width:0.14px;"/>
        <path d="M367.087,372.336C367.087,372.345 367.087,372.354 367.087,372.363C367.087,375.162 369.39,377.466 372.189,377.466" style="fill:none;fill-rule:nonzero;stroke:black;stroke-width:0.14px;"/>
        <path d="M432.283,222.166L403.937,222.166" style="fill:none;fill-rule:nonzero;stroke:black;stroke-width:0.14px;"/>
        <path d="M464.018,164.915L463.912,165.723" style="fill:none;fill-rule:nonzero;stroke:black;stroke-width:0.14px;"/>
        <path d="M469.134,372.363L469.134,368.986" style="fill:none;fill-rule:nonzero;stroke:black;stroke-width:0.14px;"/>
        <path d="M374.313,159.818L373.737,160.395" style="fill:none;fill-rule:nonzero;stroke:black;stroke-width:0.14px;"/>
        <path d="M455.791,158.601L456.579,158.39" style="fill:none;fill-rule:nonzero;stroke:black;stroke-width:0.14px;"/>
        <path d="M450.062,167.295C447.904,167.325 445.809,168.04 444.082,169.335" style="fill:none;fill-rule:nonzero;stroke:black;stroke-width:0.14px;"/>
        <path d="M378.017,170.73L378.833,170.73" style="fill:none;fill-rule:nonzero;stroke:black;stroke-width:0.14px;"/>
        <path d="M452.61,167.971L452.202,167.265" style="fill:none;fill-rule:nonzero;stroke:black;stroke-width:0.14px;"/>
        <path d="M457.795,242.664C457.808,245.352 458.883,247.929 460.784,249.83" style="fill:none;fill-rule:nonzero;stroke:black;stroke-width:0.14px;"/>
        <path d="M383.61,161.042L383.114,160.395" style="fill:none;fill-rule:nonzero;stroke:black;stroke-width:0.14px;"/>
        <path d="M460.784,224.01L466.145,218.649" style="fill:none;fill-rule:nonzero;stroke:black;stroke-width:0.14px;"/>
        <path d="M458.203,170.73L457.387,170.73" style="fill:none;fill-rule:nonzero;stroke:black;stroke-width:0.14px;"/>
        <path d="M379.642,158.39L378.833,158.284" style="fill:none;fill-rule:nonzero;stroke:black;stroke-width:0.14px;"/>
        <path d="M402.519,220.764C402.52,221.542 403.159,222.182 403.937,222.182" style="fill:none;fill-rule:nonzero;stroke:black;stroke-width:0.14px;"/>
        <path d="M383.61,167.971L384.018,167.265" style="fill:none;fill-rule:nonzero;stroke:black;stroke-width:0.14px;"/>
        <path d="M466.145,255.191L460.784,249.83" style="fill:none;fill-rule:nonzero;stroke:black;stroke-width:0.14px;"/>
        <path d="M464.031,176.282L446.457,176.282" style="fill:none;fill-rule:nonzero;stroke:black;stroke-width:0.14px;"/>
        <path d="M464.077,377.466L372.189,377.466" style="fill:none;fill-rule:nonzero;stroke:black;stroke-width:0.14px;"/>
        <path d="M403.961,219.347C403.953,219.347 403.945,219.347 403.937,219.347C403.16,219.347 402.52,219.987 402.52,220.764" style="fill:none;fill-rule:nonzero;stroke:black;stroke-width:0.14px;"/>
        <path d="M379.642,170.623L380.43,170.412" style="fill:none;fill-rule:nonzero;stroke:black;stroke-width:0.14px;"/>
        <path d="M372.309,165.723L372.52,166.511" style="fill:none;fill-rule:nonzero;stroke:black;stroke-width:0.14px;"/>
        <path d="M450.923,162.478L451.89,162.502" style="fill:none;fill-rule:nonzero;stroke:black;stroke-width:0.14px;"/>
        <path d="M378.425,345.799L378.425,319.1" style="fill:none;fill-rule:nonzero;stroke:black;stroke-width:0.14px;"/>
        <path d="M403.961,219.347L432.283,219.347" style="fill:none;fill-rule:nonzero;stroke:black;stroke-width:0.14px;"/>
        <path d="M368.787,363.326C367.67,365.002 367.074,366.972 367.074,368.986" style="fill:none;fill-rule:nonzero;stroke:black;stroke-width:0.14px;"/>
        <path d="M454.331,169.692L453.683,169.195" style="fill:none;fill-rule:nonzero;stroke:black;stroke-width:0.14px;"/>
        <path d="M380.43,170.412L381.183,170.1" style="fill:none;fill-rule:nonzero;stroke:black;stroke-width:0.14px;"/>
        <path d="M370.076,255.191L375.436,249.83" style="fill:none;fill-rule:nonzero;stroke:black;stroke-width:0.14px;"/>
        <path d="M460.553,170.1L459.8,170.412" style="fill:none;fill-rule:nonzero;stroke:black;stroke-width:0.14px;"/>
        <path d="M396.039,157.845C394.74,157.845 393.488,158.342 392.542,159.232" style="fill:none;fill-rule:nonzero;stroke:black;stroke-width:0.14px;"/>
        <path d="M457.387,158.284L458.203,158.284" style="fill:none;fill-rule:nonzero;stroke:black;stroke-width:0.14px;"/>
        <path d="M372.202,164.099L372.202,164.915" style="fill:none;fill-rule:nonzero;stroke:black;stroke-width:0.14px;"/>
        <path d="M461.26,169.692L460.553,170.1" style="fill:none;fill-rule:nonzero;stroke:black;stroke-width:0.14px;"/>
        <path d="M375.436,311.884L370.076,306.523" style="fill:none;fill-rule:nonzero;stroke:black;stroke-width:0.14px;"/>
        <path d="M464.077,377.466C466.859,377.441 469.134,375.145 469.134,372.363" style="fill:none;fill-rule:nonzero;stroke:black;stroke-width:0.14px;"/>
        <path d="M467.42,363.325L459.509,351.459" style="fill:none;fill-rule:nonzero;stroke:black;stroke-width:0.14px;"/>
        <path d="M378.017,158.284L377.209,158.39" style="fill:none;fill-rule:nonzero;stroke:black;stroke-width:0.14px;"/>
        <path d="M452.61,161.042L453.107,160.395" style="fill:none;fill-rule:nonzero;stroke:black;stroke-width:0.14px;"/>
        <path d="M462.981,167.971L462.484,168.619" style="fill:none;fill-rule:nonzero;stroke:black;stroke-width:0.14px;"/>
        <path d="M372.52,162.502L372.309,163.29" style="fill:none;fill-rule:nonzero;stroke:black;stroke-width:0.14px;"/>
        <path d="M367.087,181.385L367.087,211.433" style="fill:none;fill-rule:nonzero;stroke:black;stroke-width:0.14px;"/>
        <path d="M375.667,170.1L376.421,170.412" style="fill:none;fill-rule:nonzero;stroke:black;stroke-width:0.14px;"/>
        <path d="M378.425,231.252C378.432,228.538 377.356,225.929 375.436,224.01" style="fill:none;fill-rule:nonzero;stroke:black;stroke-width:0.14px;"/>
        <path d="M453.683,159.818L454.331,159.322" style="fill:none;fill-rule:nonzero;stroke:black;stroke-width:0.14px;"/>
        <path d="M452.202,161.749L452.61,161.042" style="fill:none;fill-rule:nonzero;stroke:black;stroke-width:0.14px;"/>
        <path d="M372.832,161.749L372.52,162.502" style="fill:none;fill-rule:nonzero;stroke:black;stroke-width:0.14px;"/>
        <path d="M464.018,164.099L464.018,164.915" style="fill:none;fill-rule:nonzero;stroke:black;stroke-width:0.14px;"/>
        <path d="M373.24,161.042L372.832,161.749" style="fill:none;fill-rule:nonzero;stroke:black;stroke-width:0.14px;"/>
        <path d="M381.183,158.914L380.43,158.601" style="fill:none;fill-rule:nonzero;stroke:black;stroke-width:0.14px;"/>
        <path d="M376.711,351.459C377.829,349.783 378.425,347.813 378.425,345.799" style="fill:none;fill-rule:nonzero;stroke:black;stroke-width:0.14px;"/>
        <path d="M384.018,167.265L386.158,167.295" style="fill:none;fill-rule:nonzero;stroke:black;stroke-width:0.14px;"/>
        <path d="M382.537,169.195L383.114,168.619" style="fill:none;fill-rule:nonzero;stroke:black;stroke-width:0.14px;"/>
        <path d="M466.145,218.649C468.058,216.736 469.134,214.139 469.134,211.433" style="fill:none;fill-rule:nonzero;stroke:black;stroke-width:0.14px;"/>
        <path d="M461.26,159.322L461.907,159.818" style="fill:none;fill-rule:nonzero;stroke:black;stroke-width:0.14px;"/>
        <path d="M462.981,161.042L463.388,161.749" style="fill:none;fill-rule:nonzero;stroke:black;stroke-width:0.14px;"/>
        <path d="M463.701,166.511L463.388,167.265" style="fill:none;fill-rule:nonzero;stroke:black;stroke-width:0.14px;"/>
        <path d="M394.016,171.894C394.021,171.175 393.684,170.494 393.108,170.062" style="fill:none;fill-rule:nonzero;stroke:black;stroke-width:0.14px;"/>
        <path d="M443.66,159.215C442.716,158.335 441.472,157.845 440.181,157.845" style="fill:none;fill-rule:nonzero;stroke:black;stroke-width:0.14px;"/>
        <path d="M389.722,176.282C389.736,176.283 389.749,176.283 389.763,176.283C392.096,176.283 394.016,174.363 394.016,172.03" style="fill:none;fill-rule:nonzero;stroke:black;stroke-width:0.14px;"/>
        <path d="M375.667,158.914L374.961,159.322" style="fill:none;fill-rule:nonzero;stroke:black;stroke-width:0.14px;"/>
        <path d="M463.701,162.502L463.912,163.29" style="fill:none;fill-rule:nonzero;stroke:black;stroke-width:0.14px;"/>
        <path d="M367.087,299.357L367.087,262.407" style="fill:none;fill-rule:nonzero;stroke:black;stroke-width:0.14px;"/>
        <path d="M463.912,165.723L463.701,166.511" style="fill:none;fill-rule:nonzero;stroke:black;stroke-width:0.14px;"/>
        <path d="M469.134,262.407C469.134,259.701 468.058,257.104 466.145,255.191" style="fill:none;fill-rule:nonzero;stroke:black;stroke-width:0.14px;"/>
        <path d="M381.183,170.1L381.89,169.692" style="fill:none;fill-rule:nonzero;stroke:black;stroke-width:0.14px;"/>
        <path d="M469.134,181.385L469.134,211.433" style="fill:none;fill-rule:nonzero;stroke:black;stroke-width:0.14px;"/>
        <path d="M466.145,306.523C468.058,304.61 469.134,302.013 469.134,299.307" style="fill:none;fill-rule:nonzero;stroke:black;stroke-width:0.14px;"/>
        <path d="M463.912,163.29L464.018,164.099" style="fill:none;fill-rule:nonzero;stroke:black;stroke-width:0.14px;"/>
        <path d="M455.037,170.1L454.331,169.692" style="fill:none;fill-rule:nonzero;stroke:black;stroke-width:0.14px;"/>
        <path d="M394.016,171.894L394.016,172.03" style="fill:none;fill-rule:nonzero;stroke:black;stroke-width:0.14px;"/>
        <path d="M383.114,160.395L382.537,159.818" style="fill:none;fill-rule:nonzero;stroke:black;stroke-width:0.14px;"/>
        <path d="M460.784,224.01C458.871,225.923 457.795,228.52 457.795,231.226" style="fill:none;fill-rule:nonzero;stroke:black;stroke-width:0.14px;"/>
        <path d="M456.579,170.623L455.791,170.412" style="fill:none;fill-rule:nonzero;stroke:black;stroke-width:0.14px;"/>
        <path d="M444.183,159.708L443.66,159.215" style="fill:none;fill-rule:nonzero;stroke:black;stroke-width:0.14px;"/>
        <path d="M372.189,176.283C372.189,176.283 372.189,176.283 372.189,176.283C369.39,176.283 367.087,178.586 367.087,181.385C367.087,181.385 367.087,181.385 367.087,181.385" style="fill:none;fill-rule:nonzero;stroke:black;stroke-width:0.14px;"/>
        <path d="M372.832,167.265L373.24,167.971" style="fill:none;fill-rule:nonzero;stroke:black;stroke-width:0.14px;"/>
        <path d="M461.907,169.195L461.26,169.692" style="fill:none;fill-rule:nonzero;stroke:black;stroke-width:0.14px;"/>
        <path d="M385.298,162.478L384.33,162.502" style="fill:none;fill-rule:nonzero;stroke:black;stroke-width:0.14px;"/>
        <path d="M370.076,255.191C368.162,257.104 367.087,259.701 367.087,262.407" style="fill:none;fill-rule:nonzero;stroke:black;stroke-width:0.14px;"/>
        <path d="M368.787,363.326L376.698,351.459" style="fill:none;fill-rule:nonzero;stroke:black;stroke-width:0.14px;"/>
        <path d="M389.722,176.282L372.189,176.282" style="fill:none;fill-rule:nonzero;stroke:black;stroke-width:0.14px;"/>
        <path d="M392.138,169.335C390.411,168.04 388.317,167.325 386.158,167.295" style="fill:none;fill-rule:nonzero;stroke:black;stroke-width:0.14px;"/>
        <path d="M461.907,159.818L462.484,160.395" style="fill:none;fill-rule:nonzero;stroke:black;stroke-width:0.14px;"/>
        <path d="M375.436,224.01L370.075,218.649" style="fill:none;fill-rule:nonzero;stroke:black;stroke-width:0.14px;"/>
        <path d="M455.037,158.914L455.791,158.601" style="fill:none;fill-rule:nonzero;stroke:black;stroke-width:0.14px;"/>
        <path d="M372.52,166.511L372.832,167.265" style="fill:none;fill-rule:nonzero;stroke:black;stroke-width:0.14px;"/>
        <path d="M443.1,170.071C442.537,170.5 442.205,171.169 442.205,171.877" style="fill:none;fill-rule:nonzero;stroke:black;stroke-width:0.14px;"/>
        <path d="M459.8,170.412L459.012,170.623" style="fill:none;fill-rule:nonzero;stroke:black;stroke-width:0.14px;"/>
        <path d="M377.209,170.623L378.017,170.73" style="fill:none;fill-rule:nonzero;stroke:black;stroke-width:0.14px;"/>
        <path d="M469.134,368.986C469.134,366.972 468.537,365.002 467.42,363.325" style="fill:none;fill-rule:nonzero;stroke:black;stroke-width:0.14px;"/>
        <path d="M460.784,311.884C458.871,313.797 457.795,316.394 457.795,319.1" style="fill:none;fill-rule:nonzero;stroke:black;stroke-width:0.14px;"/>
        <path d="M384.018,161.749L383.61,161.042" style="fill:none;fill-rule:nonzero;stroke:black;stroke-width:0.14px;"/>
        <path d="M460.784,311.884L466.145,306.523" style="fill:none;fill-rule:nonzero;stroke:black;stroke-width:0.14px;"/>
        <path d="M457.795,345.799C457.795,347.813 458.392,349.783 459.509,351.459" style="fill:none;fill-rule:nonzero;stroke:black;stroke-width:0.14px;"/>
        <path d="M452.202,167.265L450.062,167.295" style="fill:none;fill-rule:nonzero;stroke:black;stroke-width:0.14px;"/>
        <path d="M367.087,372.336L367.087,368.986" style="fill:none;fill-rule:nonzero;stroke:black;stroke-width:0.14px;"/>
        <path d="M459.8,158.601L460.553,158.914" style="fill:none;fill-rule:nonzero;stroke:black;stroke-width:0.14px;"/>
        <path d="M385.298,162.478C387.808,162.415 390.209,161.428 392.037,159.708" style="fill:none;fill-rule:nonzero;stroke:black;stroke-width:0.14px;"/>
        <path d="M381.89,159.322L381.183,158.914" style="fill:none;fill-rule:nonzero;stroke:black;stroke-width:0.14px;"/>
        <path d="M376.421,170.412L377.209,170.623" style="fill:none;fill-rule:nonzero;stroke:black;stroke-width:0.14px;"/>
        <path d="M374.961,169.692L375.667,170.1" style="fill:none;fill-rule:nonzero;stroke:black;stroke-width:0.14px;"/>
        <path d="M440.181,157.845L396.039,157.845" style="fill:none;fill-rule:nonzero;stroke:black;stroke-width:0.14px;"/>
    </g>
</svg>
