%TF.GenerationSoftware,KiCad,Pcbnew,9.0.1*%
%TF.CreationDate,2025-04-05T00:33:59+01:00*%
%TF.ProjectId,mariposa,6d617269-706f-4736-912e-6b696361645f,2.0*%
%TF.SameCoordinates,Original*%
%TF.FileFunction,Soldermask,Top*%
%TF.FilePolarity,Negative*%
%FSLAX46Y46*%
G04 Gerber Fmt 4.6, Leading zero omitted, Abs format (unit mm)*
G04 Created by KiCad (PCBNEW 9.0.1) date 2025-04-05 00:33:59*
%MOMM*%
%LPD*%
G01*
G04 APERTURE LIST*
G04 Aperture macros list*
%AMRoundRect*
0 Rectangle with rounded corners*
0 $1 Rounding radius*
0 $2 $3 $4 $5 $6 $7 $8 $9 X,Y pos of 4 corners*
0 Add a 4 corners polygon primitive as box body*
4,1,4,$2,$3,$4,$5,$6,$7,$8,$9,$2,$3,0*
0 Add four circle primitives for the rounded corners*
1,1,$1+$1,$2,$3*
1,1,$1+$1,$4,$5*
1,1,$1+$1,$6,$7*
1,1,$1+$1,$8,$9*
0 Add four rect primitives between the rounded corners*
20,1,$1+$1,$2,$3,$4,$5,0*
20,1,$1+$1,$4,$5,$6,$7,0*
20,1,$1+$1,$6,$7,$8,$9,0*
20,1,$1+$1,$8,$9,$2,$3,0*%
%AMFreePoly0*
4,1,23,0.500000,-0.750000,0.000000,-0.750000,0.000000,-0.745722,-0.065263,-0.745722,-0.191342,-0.711940,-0.304381,-0.646677,-0.396677,-0.554381,-0.461940,-0.441342,-0.495722,-0.315263,-0.495722,-0.250000,-0.500000,-0.250000,-0.500000,0.250000,-0.495722,0.250000,-0.495722,0.315263,-0.461940,0.441342,-0.396677,0.554381,-0.304381,0.646677,-0.191342,0.711940,-0.065263,0.745722,0.000000,0.745722,
0.000000,0.750000,0.500000,0.750000,0.500000,-0.750000,0.500000,-0.750000,$1*%
%AMFreePoly1*
4,1,23,0.000000,0.745722,0.065263,0.745722,0.191342,0.711940,0.304381,0.646677,0.396677,0.554381,0.461940,0.441342,0.495722,0.315263,0.495722,0.250000,0.500000,0.250000,0.500000,-0.250000,0.495722,-0.250000,0.495722,-0.315263,0.461940,-0.441342,0.396677,-0.554381,0.304381,-0.646677,0.191342,-0.711940,0.065263,-0.745722,0.000000,-0.745722,0.000000,-0.750000,-0.500000,-0.750000,
-0.500000,0.750000,0.000000,0.750000,0.000000,0.745722,0.000000,0.745722,$1*%
G04 Aperture macros list end*
%ADD10C,0.000000*%
%ADD11C,0.031792*%
%ADD12C,0.028759*%
%ADD13C,0.100000*%
%ADD14C,0.499999*%
%ADD15RoundRect,0.052222X-0.767778X0.417778X-0.767778X-0.417778X0.767778X-0.417778X0.767778X0.417778X0*%
%ADD16RoundRect,0.058000X-0.087000X-0.212000X0.087000X-0.212000X0.087000X0.212000X-0.087000X0.212000X0*%
%ADD17RoundRect,0.080000X0.170000X-0.320000X0.170000X0.320000X-0.170000X0.320000X-0.170000X-0.320000X0*%
%ADD18RoundRect,0.200000X-0.200000X-0.600000X0.200000X-0.600000X0.200000X0.600000X-0.200000X0.600000X0*%
%ADD19RoundRect,0.250001X-0.799999X-1.249999X0.799999X-1.249999X0.799999X1.249999X-0.799999X1.249999X0*%
%ADD20RoundRect,0.225000X-0.225000X-0.250000X0.225000X-0.250000X0.225000X0.250000X-0.225000X0.250000X0*%
%ADD21RoundRect,0.225000X-0.250000X0.225000X-0.250000X-0.225000X0.250000X-0.225000X0.250000X0.225000X0*%
%ADD22RoundRect,0.225000X0.250000X-0.225000X0.250000X0.225000X-0.250000X0.225000X-0.250000X-0.225000X0*%
%ADD23RoundRect,0.200000X0.200000X0.275000X-0.200000X0.275000X-0.200000X-0.275000X0.200000X-0.275000X0*%
%ADD24RoundRect,0.150000X0.622263X0.160978X0.481422X0.425862X-0.622263X-0.160978X-0.481422X-0.425862X0*%
%ADD25RoundRect,0.250000X0.738231X-0.003875X0.409601X0.614188X-0.738231X0.003875X-0.409601X-0.614188X0*%
%ADD26RoundRect,0.058333X-0.291667X0.541667X-0.291667X-0.541667X0.291667X-0.541667X0.291667X0.541667X0*%
%ADD27RoundRect,0.054000X-0.216000X-0.216000X0.216000X-0.216000X0.216000X0.216000X-0.216000X0.216000X0*%
%ADD28RoundRect,0.218750X0.256250X-0.218750X0.256250X0.218750X-0.256250X0.218750X-0.256250X-0.218750X0*%
%ADD29RoundRect,0.080000X-0.170000X0.320000X-0.170000X-0.320000X0.170000X-0.320000X0.170000X0.320000X0*%
%ADD30RoundRect,0.200000X0.275000X-0.200000X0.275000X0.200000X-0.275000X0.200000X-0.275000X-0.200000X0*%
%ADD31RoundRect,0.070000X-0.330000X0.280000X-0.330000X-0.280000X0.330000X-0.280000X0.330000X0.280000X0*%
%ADD32RoundRect,0.250000X-0.925000X0.412500X-0.925000X-0.412500X0.925000X-0.412500X0.925000X0.412500X0*%
%ADD33RoundRect,0.060000X0.430000X0.180000X-0.430000X0.180000X-0.430000X-0.180000X0.430000X-0.180000X0*%
%ADD34C,1.000000*%
%ADD35FreePoly0,180.000000*%
%ADD36FreePoly1,180.000000*%
%ADD37RoundRect,0.218750X-0.256250X0.218750X-0.256250X-0.218750X0.256250X-0.218750X0.256250X0.218750X0*%
%ADD38RoundRect,0.086400X-0.183600X-0.183600X0.183600X-0.183600X0.183600X0.183600X-0.183600X0.183600X0*%
%ADD39RoundRect,0.060000X-0.180000X0.430000X-0.180000X-0.430000X0.180000X-0.430000X0.180000X0.430000X0*%
%ADD40FreePoly0,270.000000*%
%ADD41FreePoly1,270.000000*%
%ADD42RoundRect,0.050000X0.400000X0.200000X-0.400000X0.200000X-0.400000X-0.200000X0.400000X-0.200000X0*%
%ADD43RoundRect,0.200000X-0.200000X-0.275000X0.200000X-0.275000X0.200000X0.275000X-0.200000X0.275000X0*%
%ADD44RoundRect,0.120000X0.395000X0.120000X-0.395000X0.120000X-0.395000X-0.120000X0.395000X-0.120000X0*%
%ADD45RoundRect,0.125000X-0.125000X0.275000X-0.125000X-0.275000X0.125000X-0.275000X0.125000X0.275000X0*%
%ADD46RoundRect,0.100000X-0.100000X0.300000X-0.100000X-0.300000X0.100000X-0.300000X0.100000X0.300000X0*%
%ADD47RoundRect,0.055000X0.415000X0.165000X-0.415000X0.165000X-0.415000X-0.165000X0.415000X-0.165000X0*%
%ADD48RoundRect,0.225000X0.225000X0.250000X-0.225000X0.250000X-0.225000X-0.250000X0.225000X-0.250000X0*%
%ADD49C,0.670000*%
%ADD50RoundRect,0.082667X0.227333X0.552333X-0.227333X0.552333X-0.227333X-0.552333X0.227333X-0.552333X0*%
%ADD51RoundRect,0.085333X0.074667X0.549667X-0.074667X0.549667X-0.074667X-0.549667X0.074667X-0.549667X0*%
%ADD52O,1.020000X2.120000*%
%ADD53O,1.020000X1.820000*%
%ADD54RoundRect,0.200000X-0.275000X0.200000X-0.275000X-0.200000X0.275000X-0.200000X0.275000X0.200000X0*%
%ADD55RoundRect,0.058000X-0.087000X0.262000X-0.087000X-0.262000X0.087000X-0.262000X0.087000X0.262000X0*%
%ADD56RoundRect,0.075000X0.075000X0.575000X-0.075000X0.575000X-0.075000X-0.575000X0.075000X-0.575000X0*%
%ADD57RoundRect,0.250000X0.650000X0.850000X-0.650000X0.850000X-0.650000X-0.850000X0.650000X-0.850000X0*%
%ADD58RoundRect,0.055000X-0.415000X-0.165000X0.415000X-0.165000X0.415000X0.165000X-0.415000X0.165000X0*%
%ADD59RoundRect,0.125000X0.125000X-0.275000X0.125000X0.275000X-0.125000X0.275000X-0.125000X-0.275000X0*%
%ADD60RoundRect,0.100000X0.100000X-0.300000X0.100000X0.300000X-0.100000X0.300000X-0.100000X-0.300000X0*%
%ADD61RoundRect,0.218750X0.218750X0.256250X-0.218750X0.256250X-0.218750X-0.256250X0.218750X-0.256250X0*%
%ADD62RoundRect,0.100000X-0.150000X-0.100000X0.150000X-0.100000X0.150000X0.100000X-0.150000X0.100000X0*%
%ADD63RoundRect,0.080000X-0.808778X-0.072826X0.440546X-0.682161X0.808778X0.072826X-0.440546X0.682161X0*%
%ADD64RoundRect,0.046000X0.259000X0.184000X-0.259000X0.184000X-0.259000X-0.184000X0.259000X-0.184000X0*%
%ADD65RoundRect,0.046000X-0.184000X0.259000X-0.184000X-0.259000X0.184000X-0.259000X0.184000X0.259000X0*%
%ADD66RoundRect,0.250000X-0.375000X-0.850000X0.375000X-0.850000X0.375000X0.850000X-0.375000X0.850000X0*%
%ADD67RoundRect,0.080000X-0.440546X-0.682161X0.808778X-0.072826X0.440546X0.682161X-0.808778X0.072826X0*%
%ADD68RoundRect,0.250000X-0.700000X0.275000X-0.700000X-0.275000X0.700000X-0.275000X0.700000X0.275000X0*%
%ADD69RoundRect,0.143000X0.407000X0.807000X-0.407000X0.807000X-0.407000X-0.807000X0.407000X-0.807000X0*%
%ADD70RoundRect,0.150000X-0.150000X-0.625000X0.150000X-0.625000X0.150000X0.625000X-0.150000X0.625000X0*%
%ADD71RoundRect,0.250000X-0.350000X-0.650000X0.350000X-0.650000X0.350000X0.650000X-0.350000X0.650000X0*%
%ADD72RoundRect,0.250000X-0.275000X-0.700000X0.275000X-0.700000X0.275000X0.700000X-0.275000X0.700000X0*%
%ADD73RoundRect,0.075000X-0.075000X-0.575000X0.075000X-0.575000X0.075000X0.575000X-0.075000X0.575000X0*%
%ADD74RoundRect,0.250000X-0.650000X-0.850000X0.650000X-0.850000X0.650000X0.850000X-0.650000X0.850000X0*%
%ADD75C,5.600000*%
%ADD76C,0.990600*%
G04 APERTURE END LIST*
D10*
G36*
X132715594Y-88658939D02*
G01*
X132726232Y-88659772D01*
X132737133Y-88661119D01*
X132748305Y-88662982D01*
X132759742Y-88665360D01*
X132771445Y-88668248D01*
X132783415Y-88671644D01*
X132795652Y-88675547D01*
X132820923Y-88684859D01*
X132854638Y-88699228D01*
X132887436Y-88715777D01*
X132919315Y-88734501D01*
X132950275Y-88755407D01*
X132980317Y-88778489D01*
X133009441Y-88803751D01*
X133037643Y-88831188D01*
X133064930Y-88860806D01*
X133091295Y-88892602D01*
X133116745Y-88926575D01*
X133141273Y-88962726D01*
X133164887Y-89001056D01*
X133187579Y-89041564D01*
X133209355Y-89084249D01*
X133230207Y-89129113D01*
X133250144Y-89176157D01*
X133265652Y-89217274D01*
X133280079Y-89258523D01*
X133293584Y-89299890D01*
X133306317Y-89341350D01*
X133318434Y-89382888D01*
X133330090Y-89424481D01*
X133352633Y-89507766D01*
X133357455Y-89529503D01*
X133361495Y-89550974D01*
X133364760Y-89572189D01*
X133367260Y-89593158D01*
X133368995Y-89613894D01*
X133369970Y-89634407D01*
X133370191Y-89654708D01*
X133369664Y-89674810D01*
X133368395Y-89694722D01*
X133366388Y-89714454D01*
X133363647Y-89734021D01*
X133360183Y-89753432D01*
X133355995Y-89772694D01*
X133351091Y-89791826D01*
X133345478Y-89810833D01*
X133339154Y-89829729D01*
X133337177Y-89835309D01*
X133382022Y-89847361D01*
X133403759Y-89852037D01*
X133425040Y-89855809D01*
X133445862Y-89858679D01*
X133466225Y-89860648D01*
X133486130Y-89861705D01*
X133505574Y-89861858D01*
X133524557Y-89861100D01*
X133543081Y-89859437D01*
X133561142Y-89856859D01*
X133578741Y-89853368D01*
X133595874Y-89848966D01*
X133612546Y-89843644D01*
X133628753Y-89837408D01*
X133644495Y-89830253D01*
X133659768Y-89822177D01*
X133674580Y-89813181D01*
X133688921Y-89803265D01*
X133702794Y-89792420D01*
X133716200Y-89780654D01*
X133729136Y-89767958D01*
X133741603Y-89754339D01*
X133753601Y-89739786D01*
X133765125Y-89724302D01*
X133776179Y-89707888D01*
X133786758Y-89690541D01*
X133796867Y-89672257D01*
X133806499Y-89653037D01*
X133815660Y-89632881D01*
X133824342Y-89611785D01*
X133832550Y-89589748D01*
X133837590Y-89574893D01*
X133842316Y-89559640D01*
X133846721Y-89544001D01*
X133850793Y-89527976D01*
X133854521Y-89511570D01*
X133857895Y-89494790D01*
X133860901Y-89477640D01*
X133863528Y-89460126D01*
X133865772Y-89442258D01*
X133867612Y-89424034D01*
X133869042Y-89405459D01*
X133870048Y-89386545D01*
X133870624Y-89367293D01*
X133870755Y-89347710D01*
X133870431Y-89327800D01*
X133869643Y-89307565D01*
X133869326Y-89306847D01*
X133869055Y-89306103D01*
X133868825Y-89305344D01*
X133868635Y-89304557D01*
X133868486Y-89303750D01*
X133868375Y-89302920D01*
X133868304Y-89302066D01*
X133868268Y-89301189D01*
X133868307Y-89299358D01*
X133868481Y-89297436D01*
X133868785Y-89295408D01*
X133869207Y-89293272D01*
X133869742Y-89291034D01*
X133870378Y-89288682D01*
X133871113Y-89286219D01*
X133871933Y-89283636D01*
X133873803Y-89278111D01*
X133875923Y-89272091D01*
X133879407Y-89263088D01*
X133881262Y-89258899D01*
X133883194Y-89254919D01*
X133885205Y-89251145D01*
X133887295Y-89247579D01*
X133889467Y-89244219D01*
X133891720Y-89241064D01*
X133894057Y-89238114D01*
X133896483Y-89235366D01*
X133898993Y-89232822D01*
X133901592Y-89230483D01*
X133904278Y-89228343D01*
X133907057Y-89226406D01*
X133909928Y-89224670D01*
X133912893Y-89223133D01*
X133915955Y-89221796D01*
X133919112Y-89220656D01*
X133922365Y-89219715D01*
X133925720Y-89218974D01*
X133929174Y-89218426D01*
X133932730Y-89218079D01*
X133936390Y-89217921D01*
X133940155Y-89217963D01*
X133944024Y-89218194D01*
X133948002Y-89218623D01*
X133952090Y-89219242D01*
X133956287Y-89220055D01*
X133960597Y-89221059D01*
X133965018Y-89222252D01*
X133974208Y-89225209D01*
X133980352Y-89227606D01*
X133986218Y-89230347D01*
X133991801Y-89233428D01*
X133997086Y-89236847D01*
X134002069Y-89240599D01*
X134006743Y-89244685D01*
X134011096Y-89249097D01*
X134015124Y-89253837D01*
X134018814Y-89258899D01*
X134022161Y-89264282D01*
X134025157Y-89269982D01*
X134027793Y-89275996D01*
X134030062Y-89282321D01*
X134031955Y-89288956D01*
X134033462Y-89295898D01*
X134034577Y-89303139D01*
X134040619Y-89327884D01*
X134045610Y-89352696D01*
X134049564Y-89377587D01*
X134052488Y-89402553D01*
X134054388Y-89427597D01*
X134055276Y-89452728D01*
X134055156Y-89477940D01*
X134054040Y-89503244D01*
X134051933Y-89528637D01*
X134048846Y-89554123D01*
X134044784Y-89579711D01*
X134039760Y-89605397D01*
X134033776Y-89631185D01*
X134026844Y-89657078D01*
X134018974Y-89683082D01*
X134010169Y-89709197D01*
X133998944Y-89739017D01*
X133986780Y-89767762D01*
X133973673Y-89795414D01*
X133959628Y-89821975D01*
X133944649Y-89847428D01*
X133928741Y-89871771D01*
X133911903Y-89894991D01*
X133894138Y-89917086D01*
X133875452Y-89938043D01*
X133855844Y-89957856D01*
X133835320Y-89976513D01*
X133813882Y-89994009D01*
X133791535Y-90010338D01*
X133768276Y-90025489D01*
X133744113Y-90039452D01*
X133719047Y-90052224D01*
X133692997Y-90064647D01*
X133666617Y-90075492D01*
X133639886Y-90084761D01*
X133612807Y-90092456D01*
X133585359Y-90098590D01*
X133557535Y-90103158D01*
X133529323Y-90106174D01*
X133500711Y-90107642D01*
X133471689Y-90107565D01*
X133442245Y-90105949D01*
X133412370Y-90102796D01*
X133382050Y-90098117D01*
X133351276Y-90091915D01*
X133320036Y-90084196D01*
X133288318Y-90074963D01*
X133256113Y-90064224D01*
X133241786Y-90058866D01*
X133228015Y-90053194D01*
X133214642Y-90047219D01*
X133201517Y-90040964D01*
X133188485Y-90034446D01*
X133175392Y-90027686D01*
X133148404Y-90013515D01*
X133042672Y-89957222D01*
X133015165Y-89938206D01*
X132988151Y-89917322D01*
X132963690Y-89896364D01*
X132961612Y-89894583D01*
X132935524Y-89869993D01*
X132909865Y-89843570D01*
X132884614Y-89815321D01*
X132859748Y-89785259D01*
X132835245Y-89753388D01*
X132811082Y-89719728D01*
X132787238Y-89684283D01*
X132763689Y-89647064D01*
X132740417Y-89608083D01*
X132717396Y-89567352D01*
X132694602Y-89524879D01*
X132672020Y-89480677D01*
X132649622Y-89434753D01*
X132627718Y-89383704D01*
X132607857Y-89333986D01*
X132590039Y-89285613D01*
X132574267Y-89238613D01*
X132560542Y-89193001D01*
X132548873Y-89148797D01*
X132539253Y-89106018D01*
X132531692Y-89064686D01*
X132527443Y-89033906D01*
X132689856Y-89033906D01*
X132690698Y-89059604D01*
X132693453Y-89086132D01*
X132698125Y-89113486D01*
X132704714Y-89141664D01*
X132713219Y-89170669D01*
X132723639Y-89200500D01*
X132735977Y-89231156D01*
X132750236Y-89262636D01*
X132766406Y-89294947D01*
X132784493Y-89328080D01*
X132804498Y-89362040D01*
X132826420Y-89396827D01*
X132834832Y-89407169D01*
X132843583Y-89418220D01*
X132852674Y-89429981D01*
X132862100Y-89442448D01*
X132871866Y-89455627D01*
X132881968Y-89469512D01*
X132892413Y-89484107D01*
X132903189Y-89499412D01*
X132916506Y-89515907D01*
X132930411Y-89532613D01*
X132944968Y-89549550D01*
X132960245Y-89566742D01*
X132976309Y-89584210D01*
X132993224Y-89601982D01*
X133011053Y-89620078D01*
X133029863Y-89638520D01*
X133030226Y-89639217D01*
X133030625Y-89639896D01*
X133031067Y-89640553D01*
X133031543Y-89641189D01*
X133032057Y-89641804D01*
X133032602Y-89642403D01*
X133033782Y-89643540D01*
X133035059Y-89644602D01*
X133036417Y-89645590D01*
X133037838Y-89646510D01*
X133039299Y-89647359D01*
X133040787Y-89648145D01*
X133042277Y-89648868D01*
X133043749Y-89649527D01*
X133045188Y-89650133D01*
X133047891Y-89651175D01*
X133050218Y-89652011D01*
X133053339Y-89653025D01*
X133056422Y-89653841D01*
X133059458Y-89654459D01*
X133062457Y-89654885D01*
X133065413Y-89655114D01*
X133068327Y-89655151D01*
X133071197Y-89654993D01*
X133074025Y-89654650D01*
X133076812Y-89654111D01*
X133079552Y-89653387D01*
X133082251Y-89652472D01*
X133084904Y-89651371D01*
X133087514Y-89650087D01*
X133090078Y-89648613D01*
X133092599Y-89646957D01*
X133095074Y-89645117D01*
X133097501Y-89643097D01*
X133099882Y-89640892D01*
X133102216Y-89638514D01*
X133104502Y-89635952D01*
X133106745Y-89633213D01*
X133108935Y-89630298D01*
X133111081Y-89627205D01*
X133113178Y-89623940D01*
X133115221Y-89620501D01*
X133117218Y-89616888D01*
X133119168Y-89613104D01*
X133121065Y-89609149D01*
X133122912Y-89605023D01*
X133124708Y-89600729D01*
X133126454Y-89596268D01*
X133128146Y-89591641D01*
X133130408Y-89567990D01*
X133132078Y-89544705D01*
X133133152Y-89521759D01*
X133133615Y-89499130D01*
X133133457Y-89476797D01*
X133132669Y-89454739D01*
X133131240Y-89432931D01*
X133129160Y-89411351D01*
X133126416Y-89389981D01*
X133122996Y-89368796D01*
X133118898Y-89347772D01*
X133114104Y-89326889D01*
X133108603Y-89306127D01*
X133102390Y-89285457D01*
X133095448Y-89264863D01*
X133087773Y-89244324D01*
X133074142Y-89209823D01*
X133060044Y-89177073D01*
X133045474Y-89146066D01*
X133030431Y-89116809D01*
X133014918Y-89089300D01*
X132998932Y-89063536D01*
X132982474Y-89039522D01*
X132965544Y-89017254D01*
X132948144Y-88996733D01*
X132930272Y-88977961D01*
X132911929Y-88960935D01*
X132893113Y-88945657D01*
X132873826Y-88932126D01*
X132854068Y-88920344D01*
X132833840Y-88910308D01*
X132813140Y-88902022D01*
X132801971Y-88898066D01*
X132796818Y-88896388D01*
X132791826Y-88895050D01*
X132786970Y-88894038D01*
X132782243Y-88893339D01*
X132777634Y-88892937D01*
X132773125Y-88892821D01*
X132768705Y-88892976D01*
X132764360Y-88893386D01*
X132760074Y-88894039D01*
X132755836Y-88894921D01*
X132751635Y-88896018D01*
X132747456Y-88897317D01*
X132743283Y-88898800D01*
X132739102Y-88900458D01*
X132734904Y-88902275D01*
X132730672Y-88904235D01*
X132728594Y-88905266D01*
X132726613Y-88906329D01*
X132724727Y-88907421D01*
X132722937Y-88908539D01*
X132719631Y-88910844D01*
X132716688Y-88913224D01*
X132714095Y-88915652D01*
X132711842Y-88918109D01*
X132709916Y-88920575D01*
X132708310Y-88923020D01*
X132707013Y-88925431D01*
X132706013Y-88927778D01*
X132705298Y-88930044D01*
X132704862Y-88932206D01*
X132704691Y-88934242D01*
X132704772Y-88936127D01*
X132705103Y-88937841D01*
X132705355Y-88938628D01*
X132705666Y-88939362D01*
X132702012Y-88950458D01*
X132698836Y-88961761D01*
X132696145Y-88973268D01*
X132693929Y-88984983D01*
X132690935Y-89009032D01*
X132689856Y-89033906D01*
X132527443Y-89033906D01*
X132526189Y-89024818D01*
X132522746Y-88986434D01*
X132521366Y-88949559D01*
X132522050Y-88914203D01*
X132524803Y-88880389D01*
X132529627Y-88848135D01*
X132536521Y-88817465D01*
X132545492Y-88788392D01*
X132549893Y-88776642D01*
X132554569Y-88765464D01*
X132559519Y-88754858D01*
X132564739Y-88744818D01*
X132570236Y-88735346D01*
X132576005Y-88726440D01*
X132582049Y-88718093D01*
X132588362Y-88710306D01*
X132594949Y-88703075D01*
X132601811Y-88696398D01*
X132608939Y-88690273D01*
X132616343Y-88684698D01*
X132624017Y-88679669D01*
X132631959Y-88675185D01*
X132640173Y-88671244D01*
X132648660Y-88667842D01*
X132657414Y-88664979D01*
X132666439Y-88662647D01*
X132675732Y-88660851D01*
X132685295Y-88659585D01*
X132695125Y-88658844D01*
X132705228Y-88658631D01*
X132715594Y-88658939D01*
G37*
G36*
X133314497Y-90137203D02*
G01*
X133316936Y-90137440D01*
X133319408Y-90137808D01*
X133324454Y-90138919D01*
X133329627Y-90140529D01*
X133332261Y-90141556D01*
X133334940Y-90142780D01*
X133337651Y-90144204D01*
X133340403Y-90145830D01*
X133346004Y-90149684D01*
X133351730Y-90154347D01*
X133357576Y-90159825D01*
X133363528Y-90166119D01*
X133369575Y-90173242D01*
X133375702Y-90181192D01*
X133381905Y-90189983D01*
X133388166Y-90199612D01*
X133394479Y-90210085D01*
X133400830Y-90221409D01*
X133407209Y-90233596D01*
X133413607Y-90246639D01*
X133420007Y-90260550D01*
X133426404Y-90275333D01*
X133438830Y-90305947D01*
X133450549Y-90336902D01*
X133461559Y-90368190D01*
X133471860Y-90399819D01*
X133481451Y-90431786D01*
X133490336Y-90464088D01*
X133498509Y-90496732D01*
X133505975Y-90529712D01*
X133512414Y-90561471D01*
X133517518Y-90590549D01*
X133521310Y-90617097D01*
X133522717Y-90629470D01*
X133523806Y-90641272D01*
X133524572Y-90652519D01*
X133525025Y-90663231D01*
X133525165Y-90673423D01*
X133524988Y-90683122D01*
X133524505Y-90692343D01*
X133523714Y-90701104D01*
X133522618Y-90709426D01*
X133521221Y-90717329D01*
X133518821Y-90725244D01*
X133516146Y-90732908D01*
X133513188Y-90740335D01*
X133509954Y-90747516D01*
X133506439Y-90754458D01*
X133502648Y-90761158D01*
X133498581Y-90767623D01*
X133494238Y-90773847D01*
X133489614Y-90779835D01*
X133484721Y-90785593D01*
X133479553Y-90791114D01*
X133474110Y-90796406D01*
X133468395Y-90801466D01*
X133462407Y-90806298D01*
X133456150Y-90810903D01*
X133449618Y-90815283D01*
X133442817Y-90819437D01*
X133435747Y-90823370D01*
X133428407Y-90827078D01*
X133420802Y-90830568D01*
X133404787Y-90836892D01*
X133387702Y-90842347D01*
X133369563Y-90846953D01*
X133350369Y-90850714D01*
X133330124Y-90853644D01*
X133308835Y-90855755D01*
X133291397Y-90855372D01*
X133267646Y-90854519D01*
X133253622Y-90853814D01*
X133238289Y-90852860D01*
X133221729Y-90851624D01*
X133204033Y-90850058D01*
X133165048Y-90846755D01*
X133120797Y-90843359D01*
X133070940Y-90839154D01*
X133043802Y-90836527D01*
X133015138Y-90833432D01*
X132996924Y-90830592D01*
X132980085Y-90828394D01*
X132964596Y-90826844D01*
X132950443Y-90825935D01*
X132937608Y-90825681D01*
X132926071Y-90826080D01*
X132915811Y-90827134D01*
X132906806Y-90828842D01*
X132899042Y-90831212D01*
X132895620Y-90832648D01*
X132892498Y-90834243D01*
X132889678Y-90836009D01*
X132887154Y-90837942D01*
X132884930Y-90840041D01*
X132882991Y-90842304D01*
X132881350Y-90844737D01*
X132879992Y-90847338D01*
X132878923Y-90850105D01*
X132878136Y-90853040D01*
X132877630Y-90856145D01*
X132877401Y-90859419D01*
X132877773Y-90866472D01*
X132905109Y-90903261D01*
X132932265Y-90942420D01*
X132959295Y-90984032D01*
X132986228Y-91028190D01*
X133013114Y-91074981D01*
X133039992Y-91124494D01*
X133066909Y-91176819D01*
X133093902Y-91232040D01*
X133110158Y-91266811D01*
X133125113Y-91300233D01*
X133138759Y-91332311D01*
X133151090Y-91363039D01*
X133162096Y-91392414D01*
X133171767Y-91420431D01*
X133180096Y-91447090D01*
X133187080Y-91472388D01*
X133192704Y-91496323D01*
X133196961Y-91518890D01*
X133199844Y-91540086D01*
X133201348Y-91559910D01*
X133201456Y-91578359D01*
X133200171Y-91595426D01*
X133197475Y-91611113D01*
X133193368Y-91625417D01*
X133190605Y-91632647D01*
X133187504Y-91639688D01*
X133184070Y-91646534D01*
X133180304Y-91653186D01*
X133176205Y-91659651D01*
X133171772Y-91665926D01*
X133167011Y-91672007D01*
X133161919Y-91677899D01*
X133156498Y-91683601D01*
X133150755Y-91689113D01*
X133144680Y-91694436D01*
X133138281Y-91699569D01*
X133131556Y-91704516D01*
X133124510Y-91709274D01*
X133117140Y-91713842D01*
X133109449Y-91718225D01*
X133101438Y-91722419D01*
X133093108Y-91726428D01*
X133075492Y-91733886D01*
X133056613Y-91740602D01*
X133036478Y-91746576D01*
X133015092Y-91751817D01*
X132992467Y-91756322D01*
X132968611Y-91760096D01*
X132943528Y-91763144D01*
X132922577Y-91765964D01*
X132901983Y-91768179D01*
X132881746Y-91769802D01*
X132861866Y-91770845D01*
X132842336Y-91771311D01*
X132823151Y-91771214D01*
X132804316Y-91770555D01*
X132785819Y-91769343D01*
X132767665Y-91767593D01*
X132749845Y-91765307D01*
X132732358Y-91762494D01*
X132715202Y-91759164D01*
X132698376Y-91755324D01*
X132681872Y-91750981D01*
X132665695Y-91746146D01*
X132649832Y-91740825D01*
X132545268Y-91701747D01*
X132445119Y-91660183D01*
X132349363Y-91616197D01*
X132257972Y-91569857D01*
X132170932Y-91521227D01*
X132088208Y-91470373D01*
X132009787Y-91417357D01*
X131935641Y-91362250D01*
X131928688Y-91356103D01*
X131922349Y-91349884D01*
X131916626Y-91343588D01*
X131911519Y-91337212D01*
X131907031Y-91330765D01*
X131905017Y-91327510D01*
X131903156Y-91324239D01*
X131901450Y-91320945D01*
X131899898Y-91317635D01*
X131898502Y-91314304D01*
X131897256Y-91310958D01*
X131896168Y-91307586D01*
X131895231Y-91304202D01*
X131894446Y-91300795D01*
X131893821Y-91297368D01*
X131893348Y-91293926D01*
X131893027Y-91290462D01*
X131892861Y-91286978D01*
X131892850Y-91283478D01*
X131892992Y-91279955D01*
X131893287Y-91276415D01*
X131893740Y-91272858D01*
X131894343Y-91269279D01*
X131895100Y-91265682D01*
X131896016Y-91262066D01*
X131898301Y-91254777D01*
X131900721Y-91248567D01*
X131903529Y-91242504D01*
X131906727Y-91236596D01*
X131910306Y-91230852D01*
X131914271Y-91225278D01*
X131918609Y-91219885D01*
X131923323Y-91214681D01*
X131928411Y-91209672D01*
X131933868Y-91204869D01*
X131939687Y-91200280D01*
X131945875Y-91195910D01*
X131952424Y-91191767D01*
X131959327Y-91187863D01*
X131966586Y-91184203D01*
X131974200Y-91180800D01*
X131982160Y-91177654D01*
X131990312Y-91174800D01*
X131998493Y-91172256D01*
X132006686Y-91170035D01*
X132014887Y-91168136D01*
X132023081Y-91166565D01*
X132031257Y-91165329D01*
X132039405Y-91164433D01*
X132047513Y-91163883D01*
X132055571Y-91163683D01*
X132063570Y-91163837D01*
X132071495Y-91164353D01*
X132079337Y-91165235D01*
X132087080Y-91166491D01*
X132094724Y-91168120D01*
X132102245Y-91170131D01*
X132109642Y-91172531D01*
X132114022Y-91174302D01*
X132118789Y-91176643D01*
X132123946Y-91179544D01*
X132129499Y-91182996D01*
X132135445Y-91186998D01*
X132141791Y-91191537D01*
X132148536Y-91196603D01*
X132155689Y-91202191D01*
X132171220Y-91214890D01*
X132188403Y-91229579D01*
X132207262Y-91246186D01*
X132227822Y-91264647D01*
X132249468Y-91287115D01*
X132271716Y-91308774D01*
X132294575Y-91329637D01*
X132318063Y-91349717D01*
X132342187Y-91369031D01*
X132366966Y-91387593D01*
X132392414Y-91405412D01*
X132418540Y-91422509D01*
X132445360Y-91438892D01*
X132472890Y-91454580D01*
X132501137Y-91469583D01*
X132530120Y-91483916D01*
X132559853Y-91497590D01*
X132590343Y-91510626D01*
X132621607Y-91523037D01*
X132653662Y-91534829D01*
X132687298Y-91546299D01*
X132719115Y-91556230D01*
X132749106Y-91564610D01*
X132777263Y-91571434D01*
X132803586Y-91576685D01*
X132828065Y-91580354D01*
X132850698Y-91582428D01*
X132871480Y-91582902D01*
X132890398Y-91581758D01*
X132907459Y-91578990D01*
X132922649Y-91574584D01*
X132935963Y-91568529D01*
X132941921Y-91564878D01*
X132947400Y-91560814D01*
X132952414Y-91556333D01*
X132956954Y-91551429D01*
X132961023Y-91546109D01*
X132964618Y-91540363D01*
X132967741Y-91534197D01*
X132970387Y-91527602D01*
X132971389Y-91524256D01*
X132972167Y-91520504D01*
X132972725Y-91516343D01*
X132973059Y-91511773D01*
X132973073Y-91501426D01*
X132972207Y-91489470D01*
X132970475Y-91475916D01*
X132967876Y-91460778D01*
X132964418Y-91444063D01*
X132960104Y-91425787D01*
X132954941Y-91405956D01*
X132948933Y-91384583D01*
X132942088Y-91361680D01*
X132934410Y-91337260D01*
X132925904Y-91311332D01*
X132916573Y-91283906D01*
X132906427Y-91254994D01*
X132895467Y-91224607D01*
X132873050Y-91169176D01*
X132848683Y-91114686D01*
X132822361Y-91061139D01*
X132794082Y-91008546D01*
X132763838Y-90956921D01*
X132731635Y-90906259D01*
X132697464Y-90856582D01*
X132661322Y-90807888D01*
X132623209Y-90760192D01*
X132583121Y-90713494D01*
X132541055Y-90667815D01*
X132497007Y-90623151D01*
X132450976Y-90579515D01*
X132402958Y-90536916D01*
X132352950Y-90495362D01*
X132300949Y-90454857D01*
X132297400Y-90451780D01*
X132294017Y-90448650D01*
X132290797Y-90445475D01*
X132287742Y-90442253D01*
X132284848Y-90438989D01*
X132282117Y-90435681D01*
X132279548Y-90432336D01*
X132277137Y-90428951D01*
X132274887Y-90425530D01*
X132272794Y-90422078D01*
X132270863Y-90418593D01*
X132269088Y-90415081D01*
X132267472Y-90411539D01*
X132266010Y-90407972D01*
X132264703Y-90404384D01*
X132263554Y-90400774D01*
X132262554Y-90397142D01*
X132261711Y-90393498D01*
X132261019Y-90389836D01*
X132260481Y-90386161D01*
X132260091Y-90382473D01*
X132259853Y-90378782D01*
X132259766Y-90375081D01*
X132259823Y-90371375D01*
X132260033Y-90367665D01*
X132260391Y-90363956D01*
X132260894Y-90360250D01*
X132261543Y-90356545D01*
X132262336Y-90352846D01*
X132263276Y-90349154D01*
X132265586Y-90341802D01*
X132270221Y-90329750D01*
X132275232Y-90318711D01*
X132280624Y-90308689D01*
X132283462Y-90304062D01*
X132286389Y-90299686D01*
X132289413Y-90295567D01*
X132292531Y-90291699D01*
X132295743Y-90288087D01*
X132299051Y-90284730D01*
X132302449Y-90281628D01*
X132305943Y-90278777D01*
X132309532Y-90276184D01*
X132313216Y-90273844D01*
X132316991Y-90271755D01*
X132320861Y-90269923D01*
X132324823Y-90268345D01*
X132328883Y-90267020D01*
X132333037Y-90265950D01*
X132337281Y-90265134D01*
X132341623Y-90264575D01*
X132346057Y-90264267D01*
X132350586Y-90264214D01*
X132355212Y-90264413D01*
X132359925Y-90264869D01*
X132364736Y-90265579D01*
X132369642Y-90266543D01*
X132374641Y-90267762D01*
X132379734Y-90269233D01*
X132384920Y-90270959D01*
X132399499Y-90276404D01*
X132413981Y-90282331D01*
X132428454Y-90288695D01*
X132443005Y-90295457D01*
X132457728Y-90302573D01*
X132472709Y-90309999D01*
X132503794Y-90325623D01*
X132519237Y-90336087D01*
X132535038Y-90347192D01*
X132567815Y-90371070D01*
X132638726Y-90423670D01*
X132657270Y-90437011D01*
X132675477Y-90449644D01*
X132693345Y-90461568D01*
X132710872Y-90472781D01*
X132728065Y-90483288D01*
X132744919Y-90493085D01*
X132761435Y-90502170D01*
X132777612Y-90510551D01*
X132808698Y-90526175D01*
X132838401Y-90540719D01*
X132852956Y-90547481D01*
X132867427Y-90553844D01*
X132881907Y-90559771D01*
X132896487Y-90565215D01*
X132917541Y-90572571D01*
X132928291Y-90576144D01*
X132939308Y-90579594D01*
X132950673Y-90582870D01*
X132962489Y-90585936D01*
X132974830Y-90588750D01*
X132987795Y-90591265D01*
X133110973Y-90616034D01*
X133153056Y-90623587D01*
X133191047Y-90629174D01*
X133224859Y-90632839D01*
X133240173Y-90633964D01*
X133254406Y-90634625D01*
X133267550Y-90634826D01*
X133279593Y-90634576D01*
X133290525Y-90633872D01*
X133300339Y-90632728D01*
X133309014Y-90631146D01*
X133316547Y-90629129D01*
X133322923Y-90626687D01*
X133328134Y-90623819D01*
X133327492Y-90618980D01*
X133325442Y-90604801D01*
X133323834Y-90594376D01*
X133321801Y-90581816D01*
X133319326Y-90567182D01*
X133316383Y-90550542D01*
X133315122Y-90533307D01*
X133313524Y-90515363D01*
X133311588Y-90496710D01*
X133309312Y-90477351D01*
X133306701Y-90457282D01*
X133303750Y-90436503D01*
X133300464Y-90415016D01*
X133296836Y-90392820D01*
X133294957Y-90371513D01*
X133292751Y-90351121D01*
X133290270Y-90331514D01*
X133287556Y-90312561D01*
X133284658Y-90294133D01*
X133281621Y-90276097D01*
X133275310Y-90240678D01*
X133273475Y-90226776D01*
X133271667Y-90214649D01*
X133269960Y-90204325D01*
X133268416Y-90195825D01*
X133266084Y-90184395D01*
X133265190Y-90180545D01*
X133267887Y-90173545D01*
X133270787Y-90167199D01*
X133273883Y-90161491D01*
X133275501Y-90158874D01*
X133277170Y-90156414D01*
X133278885Y-90154108D01*
X133280646Y-90151954D01*
X133282450Y-90149953D01*
X133284297Y-90148102D01*
X133286191Y-90146399D01*
X133288129Y-90144846D01*
X133290107Y-90143436D01*
X133292130Y-90142173D01*
X133294191Y-90141052D01*
X133296294Y-90140077D01*
X133298437Y-90139238D01*
X133300620Y-90138543D01*
X133302841Y-90137982D01*
X133305098Y-90137558D01*
X133307396Y-90137270D01*
X133309726Y-90137115D01*
X133312096Y-90137092D01*
X133314497Y-90137203D01*
G37*
G36*
X134101554Y-84745114D02*
G01*
X134112188Y-84745944D01*
X134123094Y-84747293D01*
X134134264Y-84749157D01*
X134145701Y-84751535D01*
X134157403Y-84754421D01*
X134169375Y-84757820D01*
X134181610Y-84761720D01*
X134206880Y-84771034D01*
X134240599Y-84785405D01*
X134273394Y-84801949D01*
X134305273Y-84820676D01*
X134336232Y-84841580D01*
X134366275Y-84864663D01*
X134395398Y-84889923D01*
X134423603Y-84917361D01*
X134450889Y-84946979D01*
X134477256Y-84978773D01*
X134502704Y-85012747D01*
X134527232Y-85048898D01*
X134550844Y-85087226D01*
X134573537Y-85127736D01*
X134595312Y-85170425D01*
X134616166Y-85215287D01*
X134636104Y-85262331D01*
X134651610Y-85303447D01*
X134666039Y-85344696D01*
X134679544Y-85386064D01*
X134692275Y-85427525D01*
X134704394Y-85469060D01*
X134716049Y-85510656D01*
X134738590Y-85593941D01*
X134743412Y-85615677D01*
X134747457Y-85637149D01*
X134750719Y-85658362D01*
X134753218Y-85679329D01*
X134754954Y-85700067D01*
X134755928Y-85720583D01*
X134756150Y-85740881D01*
X134755625Y-85760984D01*
X134754355Y-85780893D01*
X134752347Y-85800628D01*
X134749609Y-85820194D01*
X134746141Y-85839604D01*
X134741953Y-85858869D01*
X134737049Y-85878000D01*
X134731433Y-85897006D01*
X134725112Y-85915902D01*
X134723135Y-85921484D01*
X134767980Y-85933533D01*
X134789716Y-85938210D01*
X134810997Y-85941981D01*
X134831820Y-85944852D01*
X134852185Y-85946819D01*
X134872086Y-85947878D01*
X134891531Y-85948031D01*
X134910516Y-85947275D01*
X134929038Y-85945610D01*
X134947099Y-85943032D01*
X134964699Y-85939542D01*
X134981834Y-85935139D01*
X134998506Y-85929816D01*
X135014711Y-85923581D01*
X135030454Y-85916426D01*
X135045728Y-85908352D01*
X135060536Y-85899355D01*
X135074881Y-85889436D01*
X135088754Y-85878597D01*
X135102159Y-85866828D01*
X135115096Y-85854131D01*
X135127563Y-85840510D01*
X135139559Y-85825960D01*
X135151083Y-85810477D01*
X135162136Y-85794059D01*
X135172718Y-85776714D01*
X135182827Y-85758430D01*
X135192456Y-85739211D01*
X135201618Y-85719054D01*
X135210304Y-85697960D01*
X135218510Y-85675921D01*
X135223548Y-85661066D01*
X135228274Y-85645815D01*
X135232680Y-85630175D01*
X135236752Y-85614147D01*
X135240481Y-85597741D01*
X135243852Y-85580964D01*
X135246860Y-85563813D01*
X135249487Y-85546302D01*
X135251728Y-85528430D01*
X135253568Y-85510205D01*
X135255000Y-85491634D01*
X135256008Y-85472716D01*
X135256583Y-85453466D01*
X135256714Y-85433883D01*
X135256392Y-85413972D01*
X135255602Y-85393739D01*
X135255286Y-85393020D01*
X135255012Y-85392279D01*
X135254782Y-85391516D01*
X135254593Y-85390731D01*
X135254444Y-85389923D01*
X135254335Y-85389093D01*
X135254262Y-85388240D01*
X135254228Y-85387359D01*
X135254266Y-85385535D01*
X135254440Y-85383607D01*
X135254743Y-85381580D01*
X135255164Y-85379447D01*
X135255700Y-85377208D01*
X135256338Y-85374855D01*
X135257071Y-85372389D01*
X135257892Y-85369807D01*
X135259761Y-85364286D01*
X135261881Y-85358263D01*
X135265365Y-85349259D01*
X135267222Y-85345071D01*
X135269152Y-85341092D01*
X135271164Y-85337318D01*
X135273254Y-85333751D01*
X135275425Y-85330392D01*
X135277681Y-85327235D01*
X135280017Y-85324286D01*
X135282442Y-85321542D01*
X135284953Y-85318996D01*
X135287549Y-85316656D01*
X135290238Y-85314517D01*
X135293017Y-85312580D01*
X135295888Y-85310844D01*
X135298852Y-85309307D01*
X135301913Y-85307969D01*
X135305069Y-85306829D01*
X135308325Y-85305891D01*
X135311679Y-85305147D01*
X135315133Y-85304602D01*
X135318688Y-85304249D01*
X135322348Y-85304097D01*
X135326113Y-85304134D01*
X135329984Y-85304369D01*
X135333962Y-85304796D01*
X135338046Y-85305418D01*
X135342244Y-85306227D01*
X135346555Y-85307230D01*
X135350977Y-85308426D01*
X135360167Y-85311383D01*
X135366312Y-85313781D01*
X135372179Y-85316521D01*
X135377756Y-85319601D01*
X135383043Y-85323020D01*
X135388028Y-85326771D01*
X135392701Y-85330855D01*
X135397055Y-85335271D01*
X135401081Y-85340010D01*
X135404770Y-85345073D01*
X135408120Y-85350456D01*
X135411115Y-85356154D01*
X135413753Y-85362169D01*
X135416022Y-85368493D01*
X135417913Y-85375129D01*
X135419421Y-85382072D01*
X135420535Y-85389312D01*
X135426576Y-85414058D01*
X135431568Y-85438872D01*
X135435523Y-85463760D01*
X135438446Y-85488725D01*
X135440347Y-85513772D01*
X135441234Y-85538900D01*
X135441114Y-85564115D01*
X135439998Y-85589416D01*
X135437891Y-85614810D01*
X135434804Y-85640299D01*
X135430744Y-85665884D01*
X135425719Y-85691571D01*
X135419736Y-85717357D01*
X135412803Y-85743253D01*
X135404931Y-85769255D01*
X135396128Y-85795371D01*
X135384905Y-85825191D01*
X135372737Y-85853934D01*
X135359631Y-85881587D01*
X135345587Y-85908146D01*
X135330608Y-85933601D01*
X135314700Y-85957945D01*
X135297862Y-85981165D01*
X135280097Y-86003257D01*
X135261410Y-86024218D01*
X135241802Y-86044027D01*
X135221280Y-86062686D01*
X135199842Y-86080184D01*
X135177491Y-86096512D01*
X135154235Y-86111660D01*
X135130070Y-86125625D01*
X135105009Y-86138396D01*
X135078956Y-86150820D01*
X135052576Y-86161663D01*
X135025848Y-86170932D01*
X134998767Y-86178630D01*
X134971319Y-86184760D01*
X134943494Y-86189332D01*
X134915283Y-86192348D01*
X134886670Y-86193818D01*
X134857649Y-86193737D01*
X134828203Y-86192123D01*
X134798327Y-86188969D01*
X134768009Y-86184291D01*
X134737235Y-86178091D01*
X134705996Y-86170369D01*
X134674278Y-86161136D01*
X134642074Y-86150395D01*
X134627748Y-86145041D01*
X134613974Y-86139366D01*
X134600601Y-86133391D01*
X134587476Y-86127135D01*
X134574443Y-86120619D01*
X134561349Y-86113859D01*
X134534365Y-86099687D01*
X134428632Y-86043396D01*
X134401122Y-86024379D01*
X134374110Y-86003496D01*
X134349649Y-85982534D01*
X134347571Y-85980754D01*
X134321481Y-85956167D01*
X134295822Y-85929742D01*
X134270572Y-85901496D01*
X134245706Y-85871430D01*
X134221204Y-85839562D01*
X134197040Y-85805899D01*
X134173197Y-85770455D01*
X134149650Y-85733236D01*
X134126376Y-85694257D01*
X134103353Y-85653526D01*
X134080564Y-85611051D01*
X134057978Y-85566848D01*
X134035582Y-85520924D01*
X134013676Y-85469874D01*
X133993815Y-85420156D01*
X133975998Y-85371789D01*
X133960226Y-85324786D01*
X133946506Y-85279175D01*
X133934831Y-85234969D01*
X133925214Y-85192190D01*
X133917649Y-85150859D01*
X133913400Y-85120080D01*
X134075816Y-85120080D01*
X134076657Y-85145781D01*
X134079410Y-85172306D01*
X134084083Y-85199661D01*
X134090673Y-85227838D01*
X134099177Y-85256841D01*
X134109601Y-85286672D01*
X134121938Y-85317329D01*
X134136193Y-85348811D01*
X134152364Y-85381118D01*
X134170451Y-85414254D01*
X134190456Y-85448215D01*
X134212376Y-85482999D01*
X134220790Y-85493341D01*
X134229543Y-85504394D01*
X134238631Y-85516151D01*
X134248060Y-85528622D01*
X134257825Y-85541799D01*
X134267928Y-85555685D01*
X134278369Y-85570281D01*
X134289148Y-85585585D01*
X134302465Y-85602082D01*
X134316367Y-85618787D01*
X134330928Y-85635723D01*
X134346205Y-85652915D01*
X134362269Y-85670382D01*
X134379182Y-85688153D01*
X134397011Y-85706249D01*
X134415823Y-85724693D01*
X134416184Y-85725391D01*
X134416584Y-85726067D01*
X134417026Y-85726726D01*
X134417503Y-85727360D01*
X134418015Y-85727979D01*
X134418562Y-85728577D01*
X134419740Y-85729711D01*
X134421018Y-85730773D01*
X134422377Y-85731762D01*
X134423795Y-85732682D01*
X134425259Y-85733532D01*
X134426744Y-85734319D01*
X134428237Y-85735040D01*
X134429709Y-85735701D01*
X134431149Y-85736305D01*
X134433848Y-85737346D01*
X134436179Y-85738186D01*
X134439297Y-85739197D01*
X134442379Y-85740013D01*
X134445417Y-85740633D01*
X134448415Y-85741058D01*
X134451370Y-85741287D01*
X134454285Y-85741325D01*
X134457156Y-85741167D01*
X134459985Y-85740820D01*
X134462771Y-85740286D01*
X134465512Y-85739560D01*
X134468211Y-85738643D01*
X134470866Y-85737545D01*
X134473475Y-85736259D01*
X134476040Y-85734786D01*
X134478560Y-85733130D01*
X134481031Y-85731290D01*
X134483457Y-85729271D01*
X134485841Y-85727070D01*
X134488177Y-85724685D01*
X134490463Y-85722125D01*
X134492703Y-85719387D01*
X134494896Y-85716471D01*
X134497039Y-85713379D01*
X134499133Y-85710114D01*
X134501179Y-85706675D01*
X134503178Y-85703061D01*
X134505125Y-85699277D01*
X134507023Y-85695322D01*
X134508870Y-85691197D01*
X134510667Y-85686904D01*
X134512412Y-85682441D01*
X134514108Y-85677813D01*
X134516367Y-85654165D01*
X134518039Y-85630877D01*
X134519109Y-85607931D01*
X134519575Y-85585303D01*
X134519417Y-85562971D01*
X134518627Y-85540911D01*
X134517200Y-85519104D01*
X134515115Y-85497524D01*
X134512372Y-85476155D01*
X134508955Y-85454968D01*
X134504854Y-85433944D01*
X134500062Y-85413062D01*
X134494563Y-85392298D01*
X134488350Y-85371633D01*
X134481409Y-85351036D01*
X134473731Y-85330497D01*
X134460105Y-85295996D01*
X134446004Y-85263247D01*
X134431432Y-85232240D01*
X134416391Y-85202982D01*
X134400876Y-85175472D01*
X134384892Y-85149709D01*
X134368432Y-85125693D01*
X134351503Y-85103427D01*
X134334103Y-85082906D01*
X134316232Y-85064134D01*
X134297888Y-85047107D01*
X134279074Y-85031831D01*
X134259785Y-85018301D01*
X134240028Y-85006518D01*
X134219798Y-84996482D01*
X134199098Y-84988195D01*
X134187930Y-84984239D01*
X134182778Y-84982559D01*
X134177781Y-84981223D01*
X134172928Y-84980211D01*
X134168204Y-84979513D01*
X134163591Y-84979111D01*
X134159081Y-84978994D01*
X134154664Y-84979149D01*
X134150317Y-84979559D01*
X134146033Y-84980213D01*
X134141797Y-84981095D01*
X134137595Y-84982193D01*
X134133414Y-84983489D01*
X134129241Y-84984974D01*
X134125062Y-84986633D01*
X134120860Y-84988448D01*
X134116632Y-84990409D01*
X134114552Y-84991437D01*
X134112570Y-84992502D01*
X134110686Y-84993595D01*
X134108895Y-84994713D01*
X134105592Y-84997019D01*
X134102647Y-84999397D01*
X134100053Y-85001826D01*
X134097798Y-85004284D01*
X134095874Y-85006746D01*
X134094270Y-85009193D01*
X134092970Y-85011604D01*
X134091970Y-85013950D01*
X134091259Y-85016219D01*
X134090818Y-85018378D01*
X134090648Y-85020414D01*
X134090733Y-85022300D01*
X134091060Y-85024012D01*
X134091314Y-85024802D01*
X134091624Y-85025535D01*
X134087971Y-85036631D01*
X134084799Y-85047934D01*
X134082103Y-85059441D01*
X134079886Y-85071157D01*
X134076894Y-85095204D01*
X134075816Y-85120080D01*
X133913400Y-85120080D01*
X133912145Y-85110993D01*
X133908705Y-85072609D01*
X133907323Y-85035730D01*
X133908008Y-85000374D01*
X133910763Y-84966558D01*
X133915585Y-84934307D01*
X133922480Y-84903638D01*
X133931451Y-84874567D01*
X133935855Y-84862815D01*
X133940525Y-84851638D01*
X133945476Y-84841030D01*
X133950699Y-84830992D01*
X133956195Y-84821518D01*
X133961965Y-84812614D01*
X133968006Y-84804265D01*
X133974322Y-84796478D01*
X133980909Y-84789246D01*
X133987768Y-84782568D01*
X133994898Y-84776445D01*
X134002302Y-84770871D01*
X134009975Y-84765843D01*
X134017919Y-84761358D01*
X134026133Y-84757416D01*
X134034620Y-84754014D01*
X134043373Y-84751149D01*
X134052396Y-84748822D01*
X134061691Y-84747026D01*
X134071253Y-84745755D01*
X134081085Y-84745017D01*
X134091185Y-84744807D01*
X134101554Y-84745114D01*
G37*
G36*
X133247375Y-85715062D02*
G01*
X133249658Y-85715264D01*
X133252000Y-85715597D01*
X133254402Y-85716063D01*
X133256864Y-85716655D01*
X133259387Y-85717382D01*
X133261973Y-85718245D01*
X133264050Y-85719034D01*
X133266091Y-85719922D01*
X133268107Y-85720904D01*
X133270088Y-85721977D01*
X133273972Y-85724399D01*
X133277760Y-85727173D01*
X133281463Y-85730285D01*
X133285098Y-85733725D01*
X133288678Y-85737474D01*
X133292214Y-85741521D01*
X133295727Y-85745853D01*
X133299224Y-85750457D01*
X133302723Y-85755321D01*
X133306236Y-85760427D01*
X133313363Y-85771322D01*
X133320715Y-85783031D01*
X133323880Y-85790111D01*
X133326613Y-85797182D01*
X133328931Y-85804233D01*
X133330844Y-85811258D01*
X133332363Y-85818254D01*
X133333497Y-85825220D01*
X133334259Y-85832141D01*
X133334659Y-85839020D01*
X133334711Y-85845848D01*
X133334422Y-85852619D01*
X133333807Y-85859329D01*
X133332872Y-85865973D01*
X133331631Y-85872548D01*
X133330096Y-85879042D01*
X133328277Y-85885457D01*
X133326186Y-85891782D01*
X133320145Y-85909673D01*
X133313887Y-85929842D01*
X133307413Y-85952288D01*
X133300716Y-85977014D01*
X133293806Y-86004019D01*
X133286674Y-86033306D01*
X133279325Y-86064866D01*
X133271759Y-86098711D01*
X133259256Y-86174493D01*
X133244649Y-86259548D01*
X133228801Y-86354763D01*
X133220679Y-86406460D01*
X133212571Y-86461036D01*
X133384903Y-86544153D01*
X133573407Y-86630049D01*
X133778149Y-86718752D01*
X133999192Y-86810280D01*
X134236605Y-86904661D01*
X134490451Y-87001916D01*
X134760794Y-87102069D01*
X135047701Y-87205139D01*
X135052813Y-87207076D01*
X135057680Y-87209188D01*
X135062303Y-87211467D01*
X135066685Y-87213910D01*
X135070822Y-87216524D01*
X135074718Y-87219304D01*
X135078368Y-87222248D01*
X135081777Y-87225354D01*
X135084943Y-87228626D01*
X135087871Y-87232058D01*
X135090556Y-87235654D01*
X135093001Y-87239404D01*
X135095206Y-87243319D01*
X135097170Y-87247386D01*
X135098895Y-87251615D01*
X135100379Y-87255998D01*
X135101625Y-87260533D01*
X135102633Y-87265224D01*
X135103405Y-87270068D01*
X135103937Y-87275063D01*
X135104231Y-87280207D01*
X135104289Y-87285504D01*
X135104110Y-87290949D01*
X135103695Y-87296539D01*
X135103044Y-87302278D01*
X135102156Y-87308159D01*
X135101035Y-87314189D01*
X135099678Y-87320362D01*
X135098085Y-87326674D01*
X135096259Y-87333130D01*
X135094199Y-87339726D01*
X135091906Y-87346462D01*
X135088646Y-87355156D01*
X135085158Y-87363440D01*
X135081449Y-87371315D01*
X135077515Y-87378784D01*
X135073357Y-87385848D01*
X135068975Y-87392503D01*
X135064369Y-87398755D01*
X135059534Y-87404605D01*
X135054477Y-87410054D01*
X135049191Y-87415100D01*
X135043681Y-87419747D01*
X135037942Y-87423994D01*
X135031980Y-87427846D01*
X135025784Y-87431298D01*
X135019363Y-87434355D01*
X135012714Y-87437015D01*
X135005838Y-87439284D01*
X134998729Y-87441159D01*
X134991392Y-87442643D01*
X134983829Y-87443735D01*
X134976032Y-87444434D01*
X134968006Y-87444749D01*
X134959747Y-87444676D01*
X134951259Y-87444215D01*
X134942540Y-87443368D01*
X134933585Y-87442137D01*
X134924402Y-87440522D01*
X134914985Y-87438525D01*
X134905336Y-87436146D01*
X134895453Y-87433385D01*
X134874984Y-87426727D01*
X134666535Y-87350853D01*
X134455785Y-87270037D01*
X134242799Y-87184304D01*
X134027645Y-87093683D01*
X133810386Y-86998190D01*
X133591084Y-86897853D01*
X133369813Y-86792695D01*
X133146627Y-86682735D01*
X133026486Y-86897809D01*
X133016400Y-86915888D01*
X133006507Y-86932570D01*
X132996791Y-86947862D01*
X132987243Y-86961767D01*
X132977855Y-86974292D01*
X132968611Y-86985445D01*
X132959505Y-86995225D01*
X132950521Y-87003643D01*
X132941652Y-87010701D01*
X132932883Y-87016406D01*
X132924205Y-87020762D01*
X132915608Y-87023775D01*
X132907081Y-87025452D01*
X132898608Y-87025795D01*
X132890183Y-87024810D01*
X132881793Y-87022503D01*
X132873710Y-87019344D01*
X132866201Y-87015804D01*
X132862662Y-87013889D01*
X132859271Y-87011876D01*
X132856022Y-87009770D01*
X132852918Y-87007566D01*
X132849960Y-87005266D01*
X132847144Y-87002870D01*
X132844472Y-87000379D01*
X132841948Y-86997789D01*
X132839569Y-86995107D01*
X132837328Y-86992324D01*
X132835238Y-86989450D01*
X132833290Y-86986477D01*
X132831485Y-86983409D01*
X132829828Y-86980245D01*
X132828311Y-86976984D01*
X132826941Y-86973626D01*
X132825717Y-86970172D01*
X132824637Y-86966626D01*
X132823700Y-86962979D01*
X132822908Y-86959238D01*
X132822259Y-86955400D01*
X132821756Y-86951466D01*
X132821185Y-86943311D01*
X132821189Y-86934772D01*
X132821771Y-86925848D01*
X132819794Y-86931434D01*
X132817667Y-86937232D01*
X132815743Y-86942072D01*
X132814030Y-86945960D01*
X132812532Y-86948887D01*
X132811868Y-86949996D01*
X132811262Y-86950867D01*
X132810714Y-86951501D01*
X132810227Y-86951900D01*
X132809798Y-86952061D01*
X132809431Y-86951989D01*
X132809129Y-86951678D01*
X132808891Y-86951131D01*
X132808715Y-86950354D01*
X132808607Y-86949339D01*
X132808590Y-86946609D01*
X132808850Y-86942945D01*
X132809390Y-86938350D01*
X132810224Y-86932828D01*
X132811358Y-86926383D01*
X132812802Y-86919017D01*
X132814561Y-86910730D01*
X132823007Y-86873564D01*
X132833125Y-86831691D01*
X132845091Y-86784584D01*
X132859100Y-86731716D01*
X132885530Y-86632687D01*
X132896715Y-86593059D01*
X132902032Y-86575795D01*
X132907248Y-86560268D01*
X132861133Y-86533332D01*
X132813204Y-86503401D01*
X132763532Y-86470495D01*
X132712183Y-86434640D01*
X132659218Y-86395856D01*
X132604703Y-86354168D01*
X132548707Y-86309598D01*
X132491293Y-86262168D01*
X132457048Y-86234113D01*
X132423527Y-86207344D01*
X132358834Y-86157141D01*
X132240161Y-86066422D01*
X132145406Y-85999093D01*
X132105492Y-85970134D01*
X132070105Y-85943366D01*
X132063989Y-85939323D01*
X132058137Y-85935154D01*
X132052557Y-85930862D01*
X132047243Y-85926448D01*
X132042198Y-85921911D01*
X132037420Y-85917254D01*
X132032914Y-85912482D01*
X132028678Y-85907589D01*
X132024713Y-85902580D01*
X132021020Y-85897461D01*
X132017598Y-85892225D01*
X132014449Y-85886879D01*
X132011575Y-85881421D01*
X132008975Y-85875859D01*
X132006650Y-85870185D01*
X132004601Y-85864407D01*
X132002827Y-85858524D01*
X132001333Y-85852535D01*
X132000114Y-85846446D01*
X131999174Y-85840261D01*
X131998513Y-85833973D01*
X131998131Y-85827586D01*
X131998031Y-85821105D01*
X131998209Y-85814527D01*
X131998672Y-85807857D01*
X131999416Y-85801095D01*
X132000443Y-85794241D01*
X132001754Y-85787298D01*
X132003347Y-85780268D01*
X132005228Y-85773151D01*
X132007395Y-85765948D01*
X132009846Y-85758662D01*
X132010983Y-85755603D01*
X132012174Y-85752711D01*
X132013417Y-85749981D01*
X132014711Y-85747413D01*
X132016061Y-85745009D01*
X132017464Y-85742762D01*
X132018922Y-85740676D01*
X132020430Y-85738749D01*
X132021999Y-85736979D01*
X132023618Y-85735364D01*
X132025295Y-85733907D01*
X132027023Y-85732603D01*
X132028813Y-85731452D01*
X132030656Y-85730455D01*
X132032558Y-85729610D01*
X132034516Y-85728913D01*
X132036533Y-85728366D01*
X132038608Y-85727965D01*
X132040740Y-85727714D01*
X132042930Y-85727607D01*
X132045181Y-85727648D01*
X132047489Y-85727832D01*
X132049860Y-85728158D01*
X132052290Y-85728628D01*
X132054779Y-85729237D01*
X132057329Y-85729988D01*
X132059942Y-85730876D01*
X132062618Y-85731905D01*
X132065351Y-85733069D01*
X132068150Y-85734369D01*
X132073933Y-85737372D01*
X132150603Y-85790346D01*
X132236446Y-85850685D01*
X132436382Y-85991390D01*
X132555122Y-86072215D01*
X132684299Y-86158508D01*
X132824620Y-86249924D01*
X132976795Y-86346125D01*
X133022269Y-86217713D01*
X133036106Y-86178923D01*
X133051389Y-86137700D01*
X133059796Y-86116074D01*
X133068830Y-86093710D01*
X133078585Y-86070568D01*
X133089144Y-86046608D01*
X133099787Y-86022409D01*
X133109764Y-85998639D01*
X133119115Y-85975381D01*
X133127887Y-85952727D01*
X133143851Y-85909588D01*
X133157993Y-85869925D01*
X133166325Y-85852258D01*
X133173827Y-85835473D01*
X133180566Y-85819601D01*
X133186605Y-85804656D01*
X133196855Y-85777653D01*
X133205095Y-85754655D01*
X133207384Y-85748614D01*
X133209803Y-85743067D01*
X133212358Y-85738006D01*
X133215062Y-85733443D01*
X133217922Y-85729377D01*
X133219414Y-85727528D01*
X133220946Y-85725805D01*
X133222522Y-85724210D01*
X133224140Y-85722739D01*
X133225806Y-85721397D01*
X133227515Y-85720180D01*
X133229273Y-85719088D01*
X133231077Y-85718127D01*
X133232933Y-85717294D01*
X133234836Y-85716590D01*
X133236793Y-85716009D01*
X133238801Y-85715562D01*
X133240861Y-85715242D01*
X133242978Y-85715051D01*
X133245149Y-85714991D01*
X133247375Y-85715062D01*
G37*
G36*
X134564975Y-93508311D02*
G01*
X134590833Y-93513899D01*
X134611653Y-93523124D01*
X134627720Y-93535737D01*
X134639312Y-93551499D01*
X134646716Y-93570165D01*
X134650209Y-93591498D01*
X134650074Y-93615253D01*
X134646592Y-93641192D01*
X134640045Y-93669067D01*
X134630719Y-93698641D01*
X134618889Y-93729670D01*
X134588853Y-93795136D01*
X134552192Y-93863525D01*
X134511158Y-93932902D01*
X134424987Y-94066897D01*
X134348366Y-94181651D01*
X134319272Y-94226976D01*
X134299323Y-94261695D01*
X134281175Y-94299706D01*
X134264639Y-94339137D01*
X134249799Y-94379802D01*
X134236739Y-94421516D01*
X134225540Y-94464088D01*
X134216292Y-94507332D01*
X134209078Y-94551058D01*
X134203979Y-94595087D01*
X134201082Y-94639223D01*
X134200469Y-94683284D01*
X134202230Y-94727078D01*
X134206444Y-94770420D01*
X134213192Y-94813124D01*
X134222570Y-94855002D01*
X134234654Y-94895864D01*
X134249527Y-94935527D01*
X134257235Y-94952918D01*
X134265422Y-94969426D01*
X134274066Y-94985097D01*
X134283138Y-94999981D01*
X134292611Y-95014124D01*
X134302460Y-95027572D01*
X134323168Y-95052572D01*
X134345046Y-95075353D01*
X134367877Y-95096289D01*
X134391442Y-95115758D01*
X134415527Y-95134127D01*
X134512706Y-95204126D01*
X134536125Y-95222622D01*
X134558759Y-95242268D01*
X134580392Y-95263431D01*
X134600808Y-95286495D01*
X134838154Y-95483052D01*
X134843265Y-95489575D01*
X134848083Y-95496248D01*
X134856904Y-95510014D01*
X134864789Y-95524281D01*
X134871903Y-95538974D01*
X134878410Y-95554026D01*
X134884473Y-95569360D01*
X134895948Y-95600599D01*
X134907645Y-95632116D01*
X134913994Y-95647801D01*
X134920901Y-95663336D01*
X134928524Y-95678657D01*
X134937036Y-95693688D01*
X134946598Y-95708358D01*
X134951827Y-95715536D01*
X134957379Y-95722596D01*
X134965037Y-95732797D01*
X134971857Y-95743582D01*
X134977876Y-95754903D01*
X134983129Y-95766724D01*
X134987662Y-95778995D01*
X134991512Y-95791675D01*
X134994719Y-95804720D01*
X134997317Y-95818091D01*
X134999349Y-95831740D01*
X135000857Y-95845627D01*
X135001877Y-95859706D01*
X135002449Y-95873936D01*
X135002406Y-95902676D01*
X135001041Y-95931500D01*
X134998667Y-95960062D01*
X134995598Y-95988020D01*
X134988637Y-96040737D01*
X134982665Y-96086894D01*
X134980834Y-96106648D01*
X134980193Y-96123723D01*
X134980898Y-96140744D01*
X134982699Y-96160768D01*
X134988435Y-96208140D01*
X134995099Y-96262526D01*
X134998060Y-96291308D01*
X135000394Y-96320590D01*
X135001809Y-96349966D01*
X135002019Y-96379011D01*
X135000738Y-96407314D01*
X134999451Y-96421059D01*
X134997680Y-96434461D01*
X134995395Y-96447469D01*
X134992557Y-96460031D01*
X134989130Y-96472094D01*
X134985079Y-96483611D01*
X134980366Y-96494522D01*
X134974958Y-96504782D01*
X134968822Y-96514338D01*
X134961913Y-96523137D01*
X134942906Y-96545774D01*
X134923444Y-96570411D01*
X134883588Y-96624726D01*
X134843216Y-96684189D01*
X134803203Y-96746903D01*
X134764412Y-96810976D01*
X134727721Y-96874515D01*
X134693997Y-96935625D01*
X134664110Y-96992411D01*
X134514929Y-97283053D01*
X134366833Y-97576407D01*
X134294393Y-97724312D01*
X134223672Y-97873145D01*
X134155141Y-98022992D01*
X134089291Y-98173939D01*
X134064225Y-98230252D01*
X134038013Y-98284971D01*
X133983829Y-98392317D01*
X133956675Y-98446290D01*
X133930032Y-98501359D01*
X133904319Y-98558195D01*
X133891939Y-98587485D01*
X133879943Y-98617472D01*
X133874364Y-98632812D01*
X133869436Y-98648312D01*
X133861292Y-98679709D01*
X133855023Y-98711485D01*
X133850145Y-98743470D01*
X133834866Y-98870065D01*
X133829682Y-98900512D01*
X133822978Y-98930134D01*
X133818906Y-98944584D01*
X133814275Y-98958761D01*
X133809022Y-98972646D01*
X133803087Y-98986219D01*
X133796409Y-98999456D01*
X133788927Y-99012331D01*
X133780585Y-99024831D01*
X133771314Y-99036933D01*
X133761061Y-99048611D01*
X133749762Y-99059846D01*
X133737357Y-99070615D01*
X133723783Y-99080899D01*
X133746365Y-98962997D01*
X133766345Y-98845176D01*
X133785758Y-98728044D01*
X133806638Y-98612202D01*
X133818266Y-98554954D01*
X133831021Y-98498253D01*
X133845155Y-98442180D01*
X133860932Y-98386805D01*
X133878601Y-98332204D01*
X133898411Y-98278455D01*
X133920624Y-98225632D01*
X133945489Y-98173811D01*
X134041375Y-97990071D01*
X134091052Y-97899500D01*
X134142489Y-97810545D01*
X134196133Y-97723775D01*
X134252447Y-97639757D01*
X134281746Y-97598952D01*
X134311879Y-97559047D01*
X134342902Y-97520111D01*
X134374878Y-97482217D01*
X134394704Y-97456589D01*
X134414881Y-97425270D01*
X134435216Y-97389023D01*
X134455520Y-97348600D01*
X134475597Y-97304768D01*
X134495255Y-97258278D01*
X134514306Y-97209895D01*
X134532554Y-97160374D01*
X134565868Y-97060953D01*
X134593669Y-96966088D01*
X134605019Y-96922259D01*
X134614413Y-96881847D01*
X134621661Y-96845607D01*
X134626565Y-96814299D01*
X134629588Y-96787248D01*
X134631377Y-96762946D01*
X134631977Y-96741302D01*
X134631440Y-96722221D01*
X134629815Y-96705612D01*
X134627144Y-96691378D01*
X134623480Y-96679430D01*
X134618869Y-96669668D01*
X134613361Y-96662007D01*
X134607004Y-96656349D01*
X134599842Y-96652600D01*
X134591925Y-96650667D01*
X134583303Y-96650459D01*
X134574021Y-96651881D01*
X134564130Y-96654839D01*
X134553677Y-96659242D01*
X134542709Y-96664993D01*
X134531272Y-96672001D01*
X134519417Y-96680172D01*
X134507191Y-96689413D01*
X134481823Y-96710731D01*
X134455545Y-96735210D01*
X134428744Y-96762100D01*
X134401804Y-96790655D01*
X134375105Y-96820129D01*
X134349035Y-96849773D01*
X134366541Y-96801232D01*
X134385977Y-96736767D01*
X134395330Y-96701116D01*
X134403855Y-96664548D01*
X134411116Y-96628082D01*
X134416678Y-96592743D01*
X134420102Y-96559549D01*
X134420955Y-96529523D01*
X134420277Y-96516017D01*
X134418796Y-96503685D01*
X134416450Y-96492660D01*
X134413190Y-96483059D01*
X134408961Y-96475016D01*
X134403700Y-96468663D01*
X134397367Y-96464122D01*
X134389892Y-96461518D01*
X134381233Y-96460986D01*
X134371330Y-96462650D01*
X134360126Y-96466638D01*
X134347569Y-96473075D01*
X134354024Y-96457330D01*
X134358213Y-96444194D01*
X134360276Y-96433470D01*
X134360349Y-96424956D01*
X134358565Y-96418453D01*
X134355061Y-96413763D01*
X134349981Y-96410691D01*
X134343455Y-96409029D01*
X134335625Y-96408583D01*
X134326621Y-96409154D01*
X134305655Y-96412545D01*
X134255699Y-96422759D01*
X134228903Y-96426393D01*
X134215526Y-96427149D01*
X134202350Y-96426924D01*
X134189510Y-96425528D01*
X134177138Y-96422754D01*
X134165380Y-96418408D01*
X134154364Y-96412290D01*
X134144231Y-96404202D01*
X134135117Y-96393943D01*
X134127162Y-96381312D01*
X134120494Y-96366115D01*
X134115263Y-96348144D01*
X134111594Y-96327211D01*
X134109631Y-96303110D01*
X134109507Y-96275641D01*
X134090185Y-96299345D01*
X134071861Y-96324558D01*
X134054381Y-96351013D01*
X134037592Y-96378445D01*
X134005457Y-96435191D01*
X133974217Y-96492681D01*
X133942640Y-96548803D01*
X133926333Y-96575689D01*
X133909478Y-96601439D01*
X133891917Y-96625793D01*
X133873494Y-96648477D01*
X133854061Y-96669236D01*
X133833455Y-96687805D01*
X133810156Y-96557964D01*
X133798047Y-96486162D01*
X133787597Y-96413432D01*
X133783448Y-96377579D01*
X133780269Y-96342523D01*
X133778238Y-96308610D01*
X133777539Y-96276180D01*
X133778359Y-96245581D01*
X133780879Y-96217154D01*
X133785283Y-96191240D01*
X133788247Y-96179337D01*
X133791756Y-96168188D01*
X133778255Y-96180010D01*
X133765724Y-96192530D01*
X133754107Y-96205700D01*
X133743330Y-96219483D01*
X133733328Y-96233826D01*
X133724036Y-96248693D01*
X133707322Y-96279813D01*
X133692658Y-96312494D01*
X133679518Y-96346380D01*
X133655703Y-96416374D01*
X133631663Y-96486992D01*
X133618242Y-96521658D01*
X133603186Y-96555428D01*
X133585964Y-96587953D01*
X133576376Y-96603640D01*
X133566053Y-96618880D01*
X133554925Y-96633635D01*
X133542926Y-96647859D01*
X133529989Y-96661509D01*
X133516054Y-96674539D01*
X133516264Y-96658876D01*
X133516131Y-96644775D01*
X133515672Y-96632161D01*
X133514899Y-96620958D01*
X133513835Y-96611095D01*
X133512493Y-96602493D01*
X133510889Y-96595077D01*
X133509045Y-96588777D01*
X133506973Y-96583514D01*
X133504695Y-96579213D01*
X133502224Y-96575802D01*
X133499577Y-96573206D01*
X133496775Y-96571348D01*
X133493831Y-96570155D01*
X133490768Y-96569551D01*
X133487594Y-96569461D01*
X133484336Y-96569813D01*
X133481002Y-96570530D01*
X133474188Y-96572757D01*
X133460447Y-96578311D01*
X133453795Y-96580438D01*
X133450581Y-96581078D01*
X133447467Y-96581337D01*
X133444470Y-96581137D01*
X133441604Y-96580405D01*
X133438888Y-96579065D01*
X133436339Y-96577047D01*
X133437811Y-96579011D01*
X133438326Y-96581058D01*
X133437959Y-96583160D01*
X133436783Y-96585293D01*
X133434870Y-96587432D01*
X133432296Y-96589545D01*
X133429140Y-96591615D01*
X133425470Y-96593609D01*
X133416892Y-96597265D01*
X133407152Y-96600312D01*
X133396853Y-96602537D01*
X133391679Y-96603276D01*
X133386583Y-96603731D01*
X133381647Y-96603873D01*
X133376937Y-96603685D01*
X133372531Y-96603130D01*
X133368506Y-96602187D01*
X133364934Y-96600828D01*
X133361889Y-96599030D01*
X133359443Y-96596763D01*
X133357676Y-96594004D01*
X133356654Y-96590724D01*
X133356461Y-96586898D01*
X133357160Y-96582502D01*
X133358833Y-96577505D01*
X133361554Y-96571885D01*
X133365400Y-96565612D01*
X133370434Y-96558664D01*
X133376737Y-96551017D01*
X133379590Y-96547253D01*
X133381917Y-96543148D01*
X133383750Y-96538713D01*
X133385106Y-96533966D01*
X133386014Y-96528915D01*
X133386491Y-96523584D01*
X133386562Y-96517982D01*
X133386251Y-96512121D01*
X133385581Y-96506018D01*
X133384573Y-96499687D01*
X133383253Y-96493145D01*
X133381639Y-96486401D01*
X133377627Y-96472377D01*
X133372729Y-96457727D01*
X133367123Y-96442568D01*
X133360994Y-96427017D01*
X133347894Y-96395192D01*
X133334898Y-96363179D01*
X133328894Y-96347385D01*
X133323469Y-96331889D01*
X133322671Y-96350737D01*
X133321113Y-96369362D01*
X133315920Y-96406007D01*
X133308277Y-96441935D01*
X133298559Y-96477253D01*
X133287160Y-96512078D01*
X133274461Y-96546515D01*
X133246701Y-96614689D01*
X133218360Y-96682653D01*
X133204935Y-96716837D01*
X133192516Y-96751305D01*
X133181490Y-96786168D01*
X133172242Y-96821536D01*
X133165155Y-96857518D01*
X133160619Y-96894230D01*
X133141406Y-96874866D01*
X133124046Y-96853689D01*
X133108438Y-96830803D01*
X133094482Y-96806320D01*
X133082071Y-96780333D01*
X133071104Y-96752957D01*
X133061482Y-96724300D01*
X133053100Y-96694461D01*
X133045859Y-96663547D01*
X133039648Y-96631664D01*
X133029936Y-96565416D01*
X133023139Y-96496558D01*
X133018447Y-96425936D01*
X133012090Y-96282777D01*
X133008789Y-96211931D01*
X133004324Y-96142698D01*
X132997868Y-96075922D01*
X132988606Y-96012448D01*
X132982670Y-95982214D01*
X132975723Y-95953121D01*
X132967670Y-95925276D01*
X132958403Y-95898781D01*
X132958123Y-95946209D01*
X132956929Y-95991812D01*
X132954895Y-96035801D01*
X132952077Y-96078376D01*
X132948547Y-96119740D01*
X132944374Y-96160100D01*
X132934349Y-96238607D01*
X132922533Y-96315527D01*
X132909454Y-96392479D01*
X132881636Y-96553000D01*
X132872582Y-96552702D01*
X132863725Y-96552197D01*
X132859378Y-96551842D01*
X132855085Y-96551411D01*
X132850850Y-96550894D01*
X132846677Y-96550283D01*
X132842563Y-96549570D01*
X132838517Y-96548746D01*
X132834536Y-96547801D01*
X132830624Y-96546730D01*
X132826785Y-96545518D01*
X132823019Y-96544168D01*
X132819326Y-96542662D01*
X132815716Y-96540996D01*
X132824344Y-96573208D01*
X132831659Y-96605395D01*
X132837490Y-96636942D01*
X132841676Y-96667242D01*
X132844050Y-96695673D01*
X132844453Y-96721633D01*
X132843861Y-96733491D01*
X132842715Y-96744501D01*
X132840992Y-96754588D01*
X132838674Y-96763672D01*
X132835741Y-96771678D01*
X132832170Y-96778530D01*
X132827937Y-96784150D01*
X132823031Y-96788464D01*
X132817424Y-96791392D01*
X132811099Y-96792858D01*
X132804031Y-96792788D01*
X132796204Y-96791105D01*
X132787597Y-96787729D01*
X132778187Y-96782588D01*
X132767954Y-96775601D01*
X132756882Y-96766695D01*
X132744944Y-96755793D01*
X132732123Y-96742817D01*
X132718398Y-96727690D01*
X132703748Y-96710339D01*
X132681433Y-96684153D01*
X132656967Y-96657016D01*
X132604348Y-96599986D01*
X132577585Y-96570159D01*
X132551443Y-96539506D01*
X132538819Y-96523873D01*
X132526612Y-96508049D01*
X132514908Y-96492032D01*
X132503791Y-96475827D01*
X132528490Y-96565899D01*
X132551520Y-96660267D01*
X132572029Y-96755994D01*
X132589171Y-96850159D01*
X132596209Y-96895742D01*
X132602088Y-96939837D01*
X132606699Y-96982078D01*
X132609936Y-97022101D01*
X132611690Y-97059540D01*
X132611857Y-97094026D01*
X132610331Y-97125199D01*
X132607003Y-97152688D01*
X132601063Y-97188215D01*
X132598656Y-97200644D01*
X132597488Y-97205580D01*
X132596308Y-97209683D01*
X132595085Y-97212974D01*
X132593791Y-97215464D01*
X132592394Y-97217175D01*
X132590868Y-97218116D01*
X132589180Y-97218305D01*
X132587304Y-97217766D01*
X132585209Y-97216502D01*
X132582866Y-97214536D01*
X132580246Y-97211886D01*
X132577321Y-97208565D01*
X132570432Y-97199972D01*
X132551693Y-97175452D01*
X132539374Y-97159775D01*
X132524772Y-97141994D01*
X132507661Y-97122234D01*
X132498090Y-97111652D01*
X132487802Y-97100627D01*
X132456274Y-97067404D01*
X132440609Y-97050522D01*
X132425247Y-97033359D01*
X132410366Y-97015838D01*
X132396140Y-96997882D01*
X132389329Y-96988714D01*
X132382754Y-96979415D01*
X132376430Y-96969966D01*
X132370379Y-96960364D01*
X132393911Y-97020050D01*
X132419176Y-97079997D01*
X132444779Y-97139964D01*
X132469317Y-97199716D01*
X132480747Y-97229439D01*
X132491386Y-97259021D01*
X132501055Y-97288433D01*
X132509581Y-97317644D01*
X132516792Y-97346622D01*
X132522506Y-97375344D01*
X132526555Y-97403776D01*
X132528761Y-97431894D01*
X132449047Y-97334400D01*
X132449065Y-97344901D01*
X132449858Y-97356194D01*
X132453625Y-97380921D01*
X132460046Y-97408103D01*
X132468821Y-97437258D01*
X132479650Y-97467909D01*
X132492241Y-97499578D01*
X132506290Y-97531780D01*
X132521498Y-97564036D01*
X132537567Y-97595868D01*
X132554200Y-97626795D01*
X132571095Y-97656337D01*
X132587953Y-97684017D01*
X132604478Y-97709348D01*
X132620369Y-97731855D01*
X132635330Y-97751058D01*
X132649059Y-97766478D01*
X132638954Y-97766330D01*
X132629156Y-97765556D01*
X132619649Y-97764177D01*
X132610422Y-97762214D01*
X132601457Y-97759701D01*
X132592746Y-97756651D01*
X132584271Y-97753090D01*
X132576022Y-97749048D01*
X132567980Y-97744545D01*
X132560140Y-97739601D01*
X132552481Y-97734247D01*
X132544993Y-97728497D01*
X132530477Y-97715930D01*
X132516479Y-97702085D01*
X132502895Y-97687153D01*
X132489614Y-97671326D01*
X132463537Y-97637741D01*
X132437381Y-97602853D01*
X132424005Y-97585393D01*
X132410289Y-97568174D01*
X132421544Y-97599691D01*
X132435795Y-97634160D01*
X132468881Y-97708481D01*
X132485506Y-97746606D01*
X132500716Y-97784219D01*
X132513415Y-97820451D01*
X132522487Y-97854438D01*
X132525322Y-97870320D01*
X132526840Y-97885316D01*
X132526899Y-97899316D01*
X132525363Y-97912212D01*
X132522097Y-97923899D01*
X132516959Y-97934269D01*
X132509816Y-97943209D01*
X132500524Y-97950612D01*
X132488952Y-97956371D01*
X132474956Y-97960377D01*
X132458400Y-97962524D01*
X132439146Y-97962702D01*
X132417059Y-97960801D01*
X132392001Y-97956714D01*
X132363828Y-97950335D01*
X132332405Y-97941555D01*
X132730625Y-98522314D01*
X133168333Y-99057652D01*
X133248459Y-99158100D01*
X133309540Y-99237146D01*
X133373380Y-99322779D01*
X133431544Y-99405531D01*
X133455859Y-99442867D01*
X133475586Y-99475932D01*
X133489675Y-99503543D01*
X133497072Y-99524515D01*
X133497929Y-99532138D01*
X133496719Y-99537661D01*
X133493305Y-99540929D01*
X133487560Y-99541800D01*
X133479861Y-99540301D01*
X133471247Y-99536685D01*
X133461791Y-99531082D01*
X133451556Y-99523615D01*
X133429001Y-99503611D01*
X133404095Y-99477701D01*
X133377353Y-99446906D01*
X133349287Y-99412252D01*
X133291243Y-99335459D01*
X133108921Y-99078709D01*
X132912614Y-98835464D01*
X132816889Y-98713426D01*
X132723121Y-98590629D01*
X132631557Y-98466700D01*
X132542457Y-98341278D01*
X132456064Y-98213992D01*
X132372642Y-98084481D01*
X132204745Y-97801731D01*
X132160481Y-97732485D01*
X132137633Y-97699085D01*
X132114220Y-97666740D01*
X132090175Y-97635637D01*
X132065430Y-97605956D01*
X132039915Y-97577880D01*
X132013567Y-97551592D01*
X131963934Y-97507395D01*
X131935260Y-97483842D01*
X131904484Y-97459884D01*
X131871953Y-97435939D01*
X131838015Y-97412435D01*
X131803024Y-97389796D01*
X131767330Y-97368441D01*
X131731275Y-97348796D01*
X131695219Y-97331282D01*
X131659502Y-97316321D01*
X131624481Y-97304342D01*
X131590504Y-97295764D01*
X131574016Y-97292879D01*
X131557919Y-97291008D01*
X131542257Y-97290193D01*
X131527076Y-97290498D01*
X131512417Y-97291969D01*
X131498329Y-97294659D01*
X131498030Y-97304992D01*
X131498302Y-97315388D01*
X131499109Y-97325842D01*
X131500424Y-97336348D01*
X131504453Y-97357499D01*
X131510139Y-97378793D01*
X131517238Y-97400183D01*
X131525506Y-97421629D01*
X131534700Y-97443088D01*
X131544575Y-97464508D01*
X131585962Y-97548949D01*
X131595559Y-97569521D01*
X131604365Y-97589794D01*
X131612138Y-97609715D01*
X131618629Y-97629247D01*
X131631071Y-97672565D01*
X131643562Y-97719415D01*
X131655735Y-97768612D01*
X131667214Y-97818973D01*
X131677626Y-97869315D01*
X131686599Y-97918454D01*
X131693758Y-97965206D01*
X131696542Y-97987318D01*
X131698733Y-98008392D01*
X131688899Y-97999492D01*
X131679567Y-97990407D01*
X131662321Y-97971710D01*
X131646771Y-97952365D01*
X131632701Y-97932436D01*
X131619890Y-97911991D01*
X131608122Y-97891088D01*
X131597177Y-97869798D01*
X131586839Y-97848181D01*
X131547187Y-97759768D01*
X131536610Y-97737503D01*
X131525328Y-97715300D01*
X131513127Y-97693228D01*
X131499786Y-97671347D01*
X131488971Y-97655022D01*
X131477702Y-97638937D01*
X131453999Y-97607416D01*
X131429083Y-97576613D01*
X131403359Y-97546367D01*
X131351113Y-97486875D01*
X131325400Y-97457299D01*
X131300501Y-97427614D01*
X131302726Y-97514482D01*
X131308662Y-97597355D01*
X131318232Y-97676575D01*
X131331367Y-97752481D01*
X131347993Y-97825409D01*
X131368038Y-97895699D01*
X131391426Y-97963690D01*
X131418086Y-98029721D01*
X131447948Y-98094129D01*
X131480933Y-98157253D01*
X131516973Y-98219433D01*
X131555990Y-98281007D01*
X131597915Y-98342312D01*
X131642677Y-98403687D01*
X131690199Y-98465474D01*
X131740409Y-98528009D01*
X131727779Y-98527415D01*
X131714452Y-98525335D01*
X131700475Y-98521842D01*
X131685905Y-98517008D01*
X131655217Y-98503614D01*
X131622826Y-98485727D01*
X131589183Y-98463931D01*
X131554728Y-98438805D01*
X131519912Y-98410930D01*
X131485174Y-98380893D01*
X131450962Y-98349265D01*
X131417719Y-98316633D01*
X131385894Y-98283579D01*
X131355930Y-98250680D01*
X131328266Y-98218517D01*
X131303358Y-98187673D01*
X131281642Y-98158732D01*
X131263567Y-98132268D01*
X131096021Y-97865987D01*
X131052669Y-97800065D01*
X131006907Y-97733843D01*
X130957818Y-97667040D01*
X130904492Y-97599379D01*
X130978315Y-97856339D01*
X131023335Y-97998489D01*
X131048038Y-98070344D01*
X131074264Y-98141717D01*
X131102068Y-98211849D01*
X131131491Y-98279989D01*
X131162585Y-98345384D01*
X131195393Y-98407278D01*
X131229969Y-98464917D01*
X131266353Y-98517551D01*
X131304598Y-98564426D01*
X131324433Y-98585464D01*
X131344751Y-98604783D01*
X131311276Y-98586915D01*
X131277586Y-98567227D01*
X131243756Y-98545815D01*
X131209871Y-98522793D01*
X131176009Y-98498270D01*
X131142252Y-98472349D01*
X131108679Y-98445145D01*
X131075371Y-98416765D01*
X131042407Y-98387313D01*
X131009867Y-98356901D01*
X130977835Y-98325634D01*
X130946387Y-98293627D01*
X130915607Y-98260978D01*
X130885571Y-98227804D01*
X130828063Y-98160305D01*
X130839472Y-98223179D01*
X130853365Y-98290061D01*
X130861383Y-98324416D01*
X130870185Y-98359065D01*
X130879831Y-98393775D01*
X130890370Y-98428309D01*
X130901860Y-98462430D01*
X130914356Y-98495903D01*
X130927910Y-98528495D01*
X130942580Y-98559966D01*
X130958420Y-98590085D01*
X130975486Y-98618614D01*
X130993828Y-98645318D01*
X131013505Y-98669958D01*
X131013496Y-98669856D01*
X131013491Y-98669753D01*
X131013489Y-98669649D01*
X131013488Y-98669542D01*
X131013495Y-98669327D01*
X131013504Y-98669115D01*
X131013513Y-98668900D01*
X131013517Y-98668689D01*
X131013517Y-98668585D01*
X131013511Y-98668482D01*
X131013506Y-98668380D01*
X131013495Y-98668278D01*
X131027731Y-98685686D01*
X131172923Y-98863263D01*
X131161569Y-98863035D01*
X131150796Y-98862265D01*
X131140586Y-98860975D01*
X131130921Y-98859178D01*
X131121789Y-98856902D01*
X131113168Y-98854164D01*
X131105044Y-98850980D01*
X131097403Y-98847371D01*
X131090226Y-98843357D01*
X131083496Y-98838960D01*
X131077200Y-98834197D01*
X131071317Y-98829087D01*
X131065834Y-98823651D01*
X131060734Y-98817909D01*
X131056000Y-98811878D01*
X131051616Y-98805583D01*
X131047566Y-98799035D01*
X131043832Y-98792260D01*
X131037251Y-98778102D01*
X131031742Y-98763266D01*
X131027173Y-98747900D01*
X131023415Y-98732172D01*
X131020334Y-98716233D01*
X131017802Y-98700237D01*
X131015683Y-98684345D01*
X131004287Y-98682953D01*
X130993028Y-98680611D01*
X130981908Y-98677361D01*
X130970925Y-98673249D01*
X130960071Y-98668322D01*
X130949352Y-98662619D01*
X130938761Y-98656192D01*
X130928294Y-98649082D01*
X130907740Y-98632998D01*
X130887671Y-98614723D01*
X130868066Y-98594618D01*
X130848912Y-98573045D01*
X130830191Y-98550365D01*
X130811893Y-98526935D01*
X130776482Y-98479263D01*
X130742548Y-98432914D01*
X130726090Y-98411133D01*
X130709957Y-98390762D01*
X130718636Y-98408547D01*
X130726538Y-98426023D01*
X130733717Y-98443259D01*
X130740238Y-98460322D01*
X130746165Y-98477278D01*
X130751559Y-98494193D01*
X130756477Y-98511133D01*
X130760986Y-98528166D01*
X130765148Y-98545357D01*
X130769022Y-98562773D01*
X130776154Y-98598549D01*
X130789691Y-98675730D01*
X130777624Y-98656146D01*
X130765468Y-98638411D01*
X130753229Y-98622419D01*
X130740924Y-98608072D01*
X130728556Y-98595271D01*
X130716137Y-98583909D01*
X130703681Y-98573884D01*
X130691197Y-98565095D01*
X130678692Y-98557443D01*
X130666178Y-98550820D01*
X130653666Y-98545128D01*
X130641167Y-98540265D01*
X130628686Y-98536124D01*
X130616241Y-98532610D01*
X130603837Y-98529619D01*
X130591486Y-98527045D01*
X130593591Y-98542540D01*
X130596343Y-98557683D01*
X130599685Y-98572574D01*
X130603545Y-98587304D01*
X130607856Y-98601977D01*
X130612554Y-98616690D01*
X130622840Y-98646622D01*
X130633876Y-98677879D01*
X130645130Y-98711242D01*
X130650674Y-98728961D01*
X130656071Y-98747498D01*
X130661256Y-98766952D01*
X130666165Y-98787425D01*
X130673020Y-98783619D01*
X130679982Y-98781046D01*
X130687041Y-98779656D01*
X130694190Y-98779388D01*
X130701419Y-98780182D01*
X130708721Y-98781981D01*
X130716086Y-98784728D01*
X130723505Y-98788367D01*
X130730970Y-98792837D01*
X130738478Y-98798086D01*
X130746008Y-98804051D01*
X130753560Y-98810677D01*
X130768695Y-98825672D01*
X130783812Y-98842617D01*
X130798838Y-98861046D01*
X130813705Y-98880500D01*
X130842693Y-98920638D01*
X130870226Y-98959337D01*
X130883273Y-98976994D01*
X130895754Y-98992908D01*
X130669773Y-98805226D01*
X130670136Y-98806953D01*
X130670500Y-98808603D01*
X130670864Y-98810262D01*
X130671042Y-98811122D01*
X130671218Y-98812011D01*
X130670173Y-98810415D01*
X130669127Y-98808870D01*
X130668076Y-98807364D01*
X130667018Y-98805882D01*
X130662669Y-98799884D01*
X130656974Y-98794616D01*
X130658385Y-98792991D01*
X130652053Y-98784823D01*
X130645533Y-98776828D01*
X130632036Y-98761245D01*
X130604170Y-98730865D01*
X130590332Y-98715597D01*
X130576905Y-98699962D01*
X130570428Y-98691935D01*
X130564155Y-98683727D01*
X130558118Y-98675311D01*
X130552347Y-98666655D01*
X130559160Y-98706359D01*
X130565886Y-98743834D01*
X130573023Y-98779606D01*
X130576899Y-98797022D01*
X130581059Y-98814211D01*
X130585569Y-98831244D01*
X130590488Y-98848184D01*
X130595881Y-98865097D01*
X130601811Y-98882052D01*
X130608330Y-98899119D01*
X130615510Y-98916356D01*
X130623407Y-98933836D01*
X130632086Y-98951624D01*
X130616513Y-98947840D01*
X130600893Y-98942629D01*
X130585179Y-98936130D01*
X130569341Y-98928489D01*
X130553333Y-98919837D01*
X130537122Y-98910325D01*
X130503925Y-98889276D01*
X130433380Y-98843034D01*
X130414653Y-98831435D01*
X130395412Y-98820105D01*
X130375619Y-98809183D01*
X130355239Y-98798808D01*
X130355168Y-98812960D01*
X130356004Y-98826966D01*
X130357708Y-98840824D01*
X130360234Y-98854535D01*
X130363544Y-98868105D01*
X130367593Y-98881533D01*
X130372335Y-98894816D01*
X130377739Y-98907961D01*
X130390332Y-98933834D01*
X130405044Y-98959161D01*
X130421529Y-98983950D01*
X130439451Y-99008213D01*
X130458473Y-99031963D01*
X130478258Y-99055202D01*
X130518761Y-99100208D01*
X130558255Y-99143310D01*
X130576780Y-99164170D01*
X130594037Y-99184590D01*
X130581263Y-99184135D01*
X130568552Y-99182379D01*
X130555907Y-99179389D01*
X130543336Y-99175225D01*
X130530837Y-99169953D01*
X130518418Y-99163636D01*
X130506080Y-99156337D01*
X130493832Y-99148120D01*
X130469609Y-99129185D01*
X130445785Y-99107345D01*
X130422389Y-99083104D01*
X130399454Y-99056970D01*
X130377011Y-99029458D01*
X130355095Y-99001073D01*
X130312960Y-98943716D01*
X130273313Y-98888978D01*
X130254504Y-98863861D01*
X130236413Y-98840924D01*
X130233750Y-98858609D01*
X130232134Y-98876711D01*
X130231534Y-98895194D01*
X130231899Y-98914016D01*
X130233198Y-98933137D01*
X130235387Y-98952517D01*
X130238427Y-98972114D01*
X130242281Y-98991889D01*
X130252267Y-99031813D01*
X130265030Y-99071962D01*
X130280254Y-99112017D01*
X130297623Y-99151656D01*
X130316820Y-99190556D01*
X130337532Y-99228390D01*
X130359443Y-99264842D01*
X130382239Y-99299585D01*
X130405598Y-99332300D01*
X130429210Y-99362665D01*
X130452758Y-99390353D01*
X130475926Y-99415041D01*
X130396213Y-99317552D01*
X130507575Y-99436960D01*
X130541059Y-99475028D01*
X130556090Y-99493246D01*
X130569358Y-99510423D01*
X130580395Y-99526190D01*
X130588744Y-99540167D01*
X130593928Y-99551989D01*
X130595195Y-99556973D01*
X130595495Y-99561280D01*
X130594370Y-99571181D01*
X130592083Y-99580417D01*
X130588702Y-99589016D01*
X130584294Y-99597006D01*
X130578923Y-99604417D01*
X130572667Y-99611278D01*
X130565581Y-99617617D01*
X130557741Y-99623466D01*
X130549211Y-99628848D01*
X130540059Y-99633797D01*
X130530356Y-99638337D01*
X130520165Y-99642505D01*
X130498595Y-99649814D01*
X130475890Y-99655962D01*
X130452594Y-99661178D01*
X130429244Y-99665690D01*
X130384551Y-99673531D01*
X130364289Y-99677321D01*
X130346140Y-99681330D01*
X130330640Y-99685789D01*
X130324054Y-99688260D01*
X130318333Y-99690930D01*
X130358295Y-99713980D01*
X130400836Y-99736076D01*
X130445615Y-99757010D01*
X130492311Y-99776572D01*
X130540584Y-99794557D01*
X130590107Y-99810753D01*
X130640544Y-99824959D01*
X130691569Y-99836957D01*
X130742848Y-99846548D01*
X130794047Y-99853523D01*
X130844837Y-99857670D01*
X130894886Y-99858784D01*
X130943863Y-99856654D01*
X130991438Y-99851077D01*
X131037277Y-99841844D01*
X131059440Y-99835790D01*
X131081047Y-99828741D01*
X131088791Y-99826296D01*
X131097254Y-99824160D01*
X131116162Y-99820767D01*
X131137426Y-99818456D01*
X131160691Y-99817104D01*
X131185613Y-99816593D01*
X131211840Y-99816811D01*
X131239028Y-99817635D01*
X131266821Y-99818954D01*
X131469232Y-99833207D01*
X131494702Y-99833597D01*
X131520399Y-99832820D01*
X131546263Y-99831121D01*
X131572243Y-99828746D01*
X131676268Y-99817431D01*
X131702033Y-99815383D01*
X131727593Y-99814146D01*
X131752897Y-99813959D01*
X131777893Y-99815076D01*
X131802524Y-99817744D01*
X131814687Y-99819735D01*
X131826741Y-99822203D01*
X131838675Y-99825187D01*
X131850483Y-99828710D01*
X131862163Y-99832806D01*
X131873703Y-99837505D01*
X131880715Y-99840039D01*
X131888626Y-99841939D01*
X131897373Y-99843244D01*
X131906901Y-99843981D01*
X131917150Y-99844183D01*
X131928062Y-99843876D01*
X131951633Y-99841870D01*
X131977151Y-99838208D01*
X132004142Y-99833142D01*
X132032135Y-99826908D01*
X132060662Y-99819763D01*
X132089252Y-99811945D01*
X132117434Y-99803705D01*
X132170697Y-99786939D01*
X132216690Y-99771429D01*
X132251651Y-99759151D01*
X132299984Y-99742664D01*
X132349639Y-99726934D01*
X132400260Y-99711942D01*
X132451500Y-99697665D01*
X132503011Y-99684092D01*
X132554442Y-99671204D01*
X132655676Y-99647415D01*
X132703252Y-99637149D01*
X132751803Y-99627435D01*
X132850240Y-99608805D01*
X132899338Y-99599443D01*
X132947830Y-99589758D01*
X132995318Y-99579532D01*
X133041410Y-99568543D01*
X133009044Y-99582901D01*
X132975606Y-99598752D01*
X132906127Y-99634144D01*
X132834176Y-99673111D01*
X132760960Y-99714050D01*
X132615530Y-99795399D01*
X132545718Y-99832600D01*
X132479449Y-99865340D01*
X132342651Y-99924496D01*
X132203523Y-99975339D01*
X132062333Y-100018139D01*
X131919351Y-100053171D01*
X131774842Y-100080700D01*
X131629080Y-100101001D01*
X131482330Y-100114343D01*
X131334862Y-100120998D01*
X131186943Y-100121234D01*
X131038843Y-100115326D01*
X130890825Y-100103543D01*
X130743165Y-100086153D01*
X130596131Y-100063429D01*
X130449987Y-100035644D01*
X130305004Y-100003066D01*
X130161450Y-99965965D01*
X130094219Y-99945920D01*
X130017989Y-99920197D01*
X129933976Y-99888973D01*
X129843398Y-99852425D01*
X129747474Y-99810736D01*
X129647414Y-99764079D01*
X129544444Y-99712636D01*
X129439776Y-99656582D01*
X129334627Y-99596101D01*
X129230217Y-99531365D01*
X129127765Y-99462554D01*
X129028483Y-99389846D01*
X128933590Y-99313422D01*
X128844304Y-99233455D01*
X128761845Y-99150128D01*
X128687427Y-99063617D01*
X128687427Y-99063655D01*
X128687426Y-99063673D01*
X128687427Y-99063692D01*
X128656588Y-99023364D01*
X128627780Y-98982433D01*
X128601117Y-98940914D01*
X128576710Y-98898825D01*
X128554674Y-98856183D01*
X128535122Y-98813006D01*
X128518169Y-98769309D01*
X128503924Y-98725116D01*
X128492506Y-98680435D01*
X128484024Y-98635291D01*
X128478596Y-98589696D01*
X128476335Y-98543672D01*
X128477352Y-98497233D01*
X128481758Y-98450395D01*
X128489673Y-98403178D01*
X128501206Y-98355599D01*
X128511606Y-98323276D01*
X128524212Y-98292337D01*
X128538911Y-98262739D01*
X128555590Y-98234428D01*
X128574129Y-98207360D01*
X128594419Y-98181484D01*
X128616339Y-98156755D01*
X128639785Y-98133124D01*
X128664629Y-98110541D01*
X128690768Y-98088955D01*
X128746457Y-98048593D01*
X128805930Y-98011651D01*
X128868274Y-97977745D01*
X128932567Y-97946487D01*
X128997897Y-97917493D01*
X129127993Y-97864743D01*
X129251229Y-97816407D01*
X129307982Y-97792930D01*
X129360269Y-97769394D01*
X129471414Y-97715649D01*
X129580409Y-97660289D01*
X129686926Y-97601896D01*
X129739159Y-97571119D01*
X129790655Y-97539053D01*
X129841370Y-97505520D01*
X129891271Y-97470341D01*
X129940315Y-97433340D01*
X129988462Y-97394337D01*
X130035673Y-97353164D01*
X130081905Y-97309634D01*
X130127125Y-97263573D01*
X130171288Y-97214805D01*
X130183841Y-97201430D01*
X130197098Y-97189180D01*
X130210975Y-97177879D01*
X130225390Y-97167349D01*
X130240251Y-97157415D01*
X130255471Y-97147892D01*
X130286659Y-97129385D01*
X130318254Y-97110406D01*
X130333989Y-97100297D01*
X130349570Y-97089532D01*
X130364905Y-97077940D01*
X130379911Y-97065342D01*
X130394504Y-97051560D01*
X130408595Y-97036412D01*
X130485526Y-96939388D01*
X130495753Y-96927638D01*
X130506221Y-96916418D01*
X130516964Y-96905862D01*
X130528006Y-96896102D01*
X130539380Y-96887272D01*
X130551117Y-96879507D01*
X130563254Y-96872936D01*
X130569477Y-96870143D01*
X130575813Y-96867698D01*
X130609470Y-96854651D01*
X130641353Y-96840210D01*
X130671761Y-96824619D01*
X130700990Y-96808115D01*
X130729340Y-96790935D01*
X130757105Y-96773323D01*
X130812064Y-96737754D01*
X130839855Y-96720275D01*
X130868246Y-96703317D01*
X130897539Y-96687125D01*
X130928027Y-96671934D01*
X130960007Y-96657985D01*
X130993774Y-96645520D01*
X131029628Y-96634773D01*
X131067865Y-96625984D01*
X131100218Y-96621089D01*
X131132281Y-96619037D01*
X131164055Y-96619705D01*
X131195531Y-96622965D01*
X131226701Y-96628702D01*
X131257561Y-96636783D01*
X131288109Y-96647089D01*
X131318334Y-96659497D01*
X131348239Y-96673884D01*
X131377810Y-96690124D01*
X131407046Y-96708095D01*
X131435940Y-96727674D01*
X131492682Y-96771161D01*
X131547994Y-96819597D01*
X131601834Y-96871990D01*
X131654155Y-96927357D01*
X131704920Y-96984710D01*
X131754079Y-97043057D01*
X131933825Y-97266663D01*
X131914271Y-97207334D01*
X131894618Y-97151836D01*
X131856463Y-97050084D01*
X131822254Y-96956896D01*
X131807536Y-96912101D01*
X131794887Y-96867751D01*
X131784674Y-96823280D01*
X131777253Y-96778125D01*
X131772994Y-96731721D01*
X131772250Y-96683505D01*
X131773309Y-96658540D01*
X131775387Y-96632908D01*
X131778523Y-96606542D01*
X131782767Y-96579368D01*
X131788160Y-96551317D01*
X131794751Y-96522321D01*
X131811699Y-96461199D01*
X131820879Y-96429946D01*
X131829479Y-96398055D01*
X131845632Y-96333011D01*
X131861573Y-96267350D01*
X131878720Y-96202374D01*
X131888185Y-96170543D01*
X131898481Y-96139363D01*
X131909787Y-96109003D01*
X131922273Y-96079615D01*
X131936123Y-96051366D01*
X131951510Y-96024415D01*
X131968610Y-95998924D01*
X131977856Y-95986778D01*
X131987602Y-95975059D01*
X132008265Y-95952573D01*
X132028576Y-95932696D01*
X132048499Y-95914922D01*
X132067995Y-95898738D01*
X132105549Y-95869119D01*
X132123534Y-95854671D01*
X132140943Y-95839782D01*
X132157730Y-95823951D01*
X132173865Y-95806669D01*
X132181675Y-95797324D01*
X132189304Y-95787427D01*
X132196756Y-95776910D01*
X132204015Y-95765715D01*
X132211086Y-95753776D01*
X132217956Y-95741030D01*
X132224625Y-95727413D01*
X132231090Y-95712862D01*
X132237341Y-95697315D01*
X132243376Y-95680705D01*
X132249194Y-95662972D01*
X132254782Y-95644053D01*
X132266864Y-95601731D01*
X132277840Y-95565488D01*
X132288076Y-95534898D01*
X132297939Y-95509532D01*
X132302847Y-95498676D01*
X132307794Y-95488964D01*
X132312835Y-95480343D01*
X132318011Y-95472761D01*
X132323366Y-95466164D01*
X132328950Y-95460498D01*
X132334809Y-95455709D01*
X132340980Y-95451746D01*
X132347518Y-95448554D01*
X132354464Y-95446077D01*
X132361869Y-95444268D01*
X132369774Y-95443062D01*
X132378226Y-95442420D01*
X132387270Y-95442278D01*
X132407322Y-95443287D01*
X132520388Y-95456754D01*
X132527497Y-95457701D01*
X132533904Y-95458946D01*
X132539658Y-95460462D01*
X132544808Y-95462225D01*
X132549402Y-95464209D01*
X132553488Y-95466385D01*
X132557114Y-95468733D01*
X132560329Y-95471225D01*
X132563182Y-95473836D01*
X132565718Y-95476542D01*
X132567987Y-95479316D01*
X132570039Y-95482136D01*
X132573683Y-95487806D01*
X132577031Y-95493346D01*
X132580473Y-95498556D01*
X132582346Y-95500972D01*
X132584391Y-95503234D01*
X132586652Y-95505311D01*
X132589176Y-95507178D01*
X132592014Y-95508814D01*
X132595213Y-95510185D01*
X132598820Y-95511277D01*
X132602886Y-95512057D01*
X132607457Y-95512500D01*
X132612583Y-95512588D01*
X132618310Y-95512286D01*
X132624690Y-95511574D01*
X132631765Y-95510426D01*
X132639591Y-95508816D01*
X132643693Y-95507623D01*
X132647741Y-95505913D01*
X132651731Y-95503725D01*
X132655669Y-95501087D01*
X132659558Y-95498031D01*
X132663404Y-95494587D01*
X132670970Y-95486669D01*
X132678397Y-95477583D01*
X132685703Y-95467580D01*
X132692920Y-95456914D01*
X132700070Y-95445831D01*
X132714283Y-95423439D01*
X132721396Y-95412631D01*
X132728550Y-95402416D01*
X132735766Y-95393047D01*
X132743073Y-95384777D01*
X132746769Y-95381129D01*
X132750495Y-95377855D01*
X132754259Y-95374977D01*
X132758060Y-95372533D01*
X132760126Y-95371687D01*
X132762477Y-95371352D01*
X132765110Y-95371479D01*
X132768012Y-95372028D01*
X132771171Y-95372951D01*
X132774581Y-95374207D01*
X132782105Y-95377536D01*
X132799683Y-95386245D01*
X132809571Y-95390918D01*
X132820083Y-95395331D01*
X132831138Y-95399138D01*
X132836841Y-95400703D01*
X132842651Y-95401986D01*
X132848554Y-95402937D01*
X132854540Y-95403520D01*
X132860601Y-95403682D01*
X132866725Y-95403388D01*
X132872902Y-95402588D01*
X132879120Y-95401240D01*
X132885372Y-95399296D01*
X132891645Y-95396722D01*
X132897931Y-95393464D01*
X132904218Y-95389482D01*
X132910496Y-95384732D01*
X132916755Y-95379169D01*
X132926795Y-95368720D01*
X132936087Y-95357379D01*
X132944651Y-95345219D01*
X132952495Y-95332317D01*
X132959632Y-95318748D01*
X132966076Y-95304585D01*
X132971840Y-95289909D01*
X132976933Y-95274790D01*
X132981375Y-95259307D01*
X132985172Y-95243536D01*
X132988339Y-95227551D01*
X132990889Y-95211425D01*
X132992836Y-95195238D01*
X132994194Y-95179062D01*
X132994971Y-95162977D01*
X132995183Y-95147053D01*
X132995863Y-95130361D01*
X132997982Y-95114992D01*
X133001457Y-95100892D01*
X133006200Y-95088017D01*
X133012128Y-95076313D01*
X133019158Y-95065730D01*
X133027200Y-95056220D01*
X133036177Y-95047731D01*
X133045999Y-95040210D01*
X133056588Y-95033613D01*
X133067851Y-95027885D01*
X133079709Y-95022977D01*
X133092077Y-95018838D01*
X133104868Y-95015423D01*
X133117996Y-95012676D01*
X133131383Y-95010553D01*
X133158585Y-95007956D01*
X133185792Y-95007239D01*
X133212332Y-95007996D01*
X133237525Y-95009827D01*
X133260693Y-95012334D01*
X133281167Y-95015109D01*
X133311314Y-95019875D01*
X133345759Y-95024537D01*
X133378955Y-95027372D01*
X133410950Y-95028418D01*
X133441784Y-95027701D01*
X133471500Y-95025253D01*
X133500138Y-95021111D01*
X133527749Y-95015302D01*
X133554371Y-95007856D01*
X133580053Y-94998804D01*
X133604832Y-94988184D01*
X133628754Y-94976020D01*
X133651865Y-94962348D01*
X133674205Y-94947197D01*
X133695818Y-94930597D01*
X133716747Y-94912586D01*
X133737041Y-94893189D01*
X133756737Y-94872440D01*
X133775881Y-94850368D01*
X133794516Y-94827007D01*
X133812685Y-94802387D01*
X133847799Y-94749501D01*
X133881579Y-94691959D01*
X133914361Y-94630011D01*
X133946500Y-94563909D01*
X133978344Y-94493905D01*
X134010236Y-94420249D01*
X134033336Y-94359040D01*
X134053095Y-94293974D01*
X134070361Y-94226015D01*
X134085983Y-94156118D01*
X134115695Y-94014359D01*
X134131484Y-93944417D01*
X134149022Y-93876377D01*
X134169167Y-93811201D01*
X134192759Y-93749846D01*
X134206118Y-93720904D01*
X134220657Y-93693275D01*
X134236483Y-93667083D01*
X134253704Y-93642446D01*
X134272424Y-93619485D01*
X134292750Y-93598317D01*
X134314785Y-93579068D01*
X134338641Y-93561851D01*
X134364424Y-93546794D01*
X134392235Y-93534007D01*
X134422183Y-93523618D01*
X134454372Y-93515743D01*
X134497029Y-93508989D01*
X134533801Y-93506591D01*
X134564975Y-93508311D01*
G37*
D11*
X131949485Y-100462950D02*
X131874148Y-100495394D01*
X131835839Y-100511269D01*
X131797895Y-100526484D01*
X131760918Y-100540718D01*
X131725501Y-100553652D01*
X131706981Y-100560980D01*
X131688261Y-100569782D01*
X131669366Y-100579811D01*
X131650329Y-100590810D01*
X131611942Y-100614713D01*
X131573332Y-100639463D01*
X131554012Y-100651521D01*
X131534725Y-100663035D01*
X131515493Y-100673743D01*
X131496346Y-100683403D01*
X131477320Y-100691756D01*
X131472301Y-100693561D01*
X131503471Y-100670619D01*
X131571060Y-100627553D01*
X131641168Y-100588507D01*
X131713452Y-100552938D01*
X131787567Y-100520307D01*
X131863165Y-100490065D01*
X131939904Y-100461667D01*
X131996122Y-100442024D01*
X131949485Y-100462950D01*
G36*
X131949485Y-100462950D02*
G01*
X131874148Y-100495394D01*
X131835839Y-100511269D01*
X131797895Y-100526484D01*
X131760918Y-100540718D01*
X131725501Y-100553652D01*
X131706981Y-100560980D01*
X131688261Y-100569782D01*
X131669366Y-100579811D01*
X131650329Y-100590810D01*
X131611942Y-100614713D01*
X131573332Y-100639463D01*
X131554012Y-100651521D01*
X131534725Y-100663035D01*
X131515493Y-100673743D01*
X131496346Y-100683403D01*
X131477320Y-100691756D01*
X131472301Y-100693561D01*
X131503471Y-100670619D01*
X131571060Y-100627553D01*
X131641168Y-100588507D01*
X131713452Y-100552938D01*
X131787567Y-100520307D01*
X131863165Y-100490065D01*
X131939904Y-100461667D01*
X131996122Y-100442024D01*
X131949485Y-100462950D01*
G37*
D10*
G36*
X134264966Y-98216421D02*
G01*
X134280328Y-98222282D01*
X134295931Y-98242253D01*
X134307724Y-98263275D01*
X134315910Y-98285280D01*
X134320683Y-98308197D01*
X134322242Y-98331956D01*
X134320785Y-98356479D01*
X134316508Y-98381697D01*
X134309605Y-98407538D01*
X134300280Y-98433933D01*
X134288726Y-98460810D01*
X134275143Y-98488093D01*
X134259721Y-98515713D01*
X134224179Y-98571675D01*
X134183667Y-98628123D01*
X134139772Y-98684482D01*
X134094068Y-98740181D01*
X134003555Y-98847289D01*
X133961902Y-98897553D01*
X133924760Y-98944856D01*
X133893702Y-98988627D01*
X133870308Y-99028290D01*
X133576010Y-99419125D01*
X133459430Y-99571769D01*
X133351296Y-99707787D01*
X133242653Y-99836103D01*
X133124550Y-99965632D01*
X132988034Y-100105289D01*
X132824152Y-100263999D01*
X132807285Y-100282892D01*
X132790248Y-100300810D01*
X132772996Y-100317576D01*
X132755491Y-100333011D01*
X132737697Y-100346933D01*
X132719570Y-100359163D01*
X132701070Y-100369526D01*
X132691668Y-100373950D01*
X132682160Y-100377837D01*
X132672536Y-100381169D01*
X132662796Y-100383921D01*
X132652934Y-100386069D01*
X132642943Y-100387592D01*
X132632819Y-100388471D01*
X132622556Y-100388679D01*
X132612153Y-100388195D01*
X132601601Y-100386997D01*
X132590896Y-100385061D01*
X132580033Y-100382366D01*
X132569009Y-100378892D01*
X132557815Y-100374611D01*
X132546449Y-100369502D01*
X132534906Y-100363549D01*
X132523181Y-100356723D01*
X132511265Y-100349002D01*
X132504602Y-100302274D01*
X132501782Y-100256130D01*
X132502666Y-100210508D01*
X132507119Y-100165334D01*
X132515005Y-100120545D01*
X132526189Y-100076069D01*
X132540532Y-100031846D01*
X132557905Y-99987804D01*
X132578163Y-99943877D01*
X132601179Y-99899998D01*
X132626812Y-99856101D01*
X132654927Y-99812118D01*
X132718066Y-99723623D01*
X132789503Y-99633979D01*
X132868161Y-99542649D01*
X132952942Y-99449093D01*
X133136548Y-99253169D01*
X133331634Y-99041909D01*
X133430766Y-98929189D01*
X133529506Y-98811020D01*
X133591565Y-98740857D01*
X133678213Y-98646585D01*
X133781699Y-98539769D01*
X133894271Y-98431972D01*
X133951539Y-98381321D01*
X134008171Y-98334761D01*
X134063200Y-98293739D01*
X134115652Y-98259700D01*
X134164561Y-98234089D01*
X134187383Y-98224896D01*
X134208954Y-98218350D01*
X134229157Y-98214639D01*
X134247870Y-98213934D01*
X134264966Y-98216421D01*
G37*
G36*
X132786708Y-87015944D02*
G01*
X132788992Y-87016147D01*
X132791334Y-87016480D01*
X132793737Y-87016943D01*
X132796198Y-87017536D01*
X132798721Y-87018264D01*
X132801306Y-87019126D01*
X132803384Y-87019917D01*
X132805428Y-87020802D01*
X132807439Y-87021787D01*
X132809422Y-87022859D01*
X132813306Y-87025281D01*
X132817094Y-87028055D01*
X132820796Y-87031166D01*
X132824431Y-87034607D01*
X132828011Y-87038356D01*
X132831549Y-87042402D01*
X132835061Y-87046737D01*
X132838560Y-87051341D01*
X132842057Y-87056202D01*
X132845571Y-87061308D01*
X132852697Y-87072199D01*
X132860049Y-87083910D01*
X132863212Y-87090994D01*
X132865947Y-87098065D01*
X132868266Y-87105114D01*
X132870177Y-87112140D01*
X132871699Y-87119138D01*
X132872830Y-87126099D01*
X132873595Y-87133024D01*
X132873994Y-87139901D01*
X132874044Y-87146729D01*
X132873755Y-87153501D01*
X132873139Y-87160211D01*
X132872206Y-87166855D01*
X132870965Y-87173429D01*
X132869429Y-87179926D01*
X132867612Y-87186339D01*
X132865519Y-87192667D01*
X132859483Y-87210555D01*
X132853223Y-87230724D01*
X132846745Y-87253169D01*
X132840051Y-87277896D01*
X132833138Y-87304902D01*
X132826007Y-87334185D01*
X132818660Y-87365750D01*
X132811093Y-87399592D01*
X132798592Y-87475377D01*
X132783984Y-87560426D01*
X132768134Y-87655644D01*
X132760013Y-87707342D01*
X132751903Y-87761917D01*
X132924237Y-87845035D01*
X133112741Y-87930933D01*
X133317483Y-88019632D01*
X133538527Y-88111163D01*
X133775940Y-88205543D01*
X134029783Y-88302799D01*
X134300128Y-88402948D01*
X134587035Y-88506023D01*
X134592147Y-88507961D01*
X134597014Y-88510069D01*
X134601638Y-88512348D01*
X134606018Y-88514794D01*
X134610157Y-88517406D01*
X134614050Y-88520185D01*
X134617701Y-88523130D01*
X134621110Y-88526237D01*
X134624279Y-88529510D01*
X134627204Y-88532940D01*
X134629890Y-88536534D01*
X134632335Y-88540285D01*
X134634539Y-88544200D01*
X134636502Y-88548269D01*
X134638225Y-88552496D01*
X134639713Y-88556878D01*
X134640958Y-88561415D01*
X134641969Y-88566106D01*
X134642738Y-88570951D01*
X134643271Y-88575945D01*
X134643565Y-88581091D01*
X134643622Y-88586385D01*
X134643443Y-88591829D01*
X134643027Y-88597420D01*
X134642375Y-88603161D01*
X134641488Y-88609043D01*
X134640367Y-88615073D01*
X134639010Y-88621242D01*
X134637417Y-88627556D01*
X134635594Y-88634013D01*
X134633536Y-88640607D01*
X134631240Y-88647343D01*
X134627979Y-88656036D01*
X134624492Y-88664318D01*
X134620784Y-88672195D01*
X134616850Y-88679665D01*
X134612692Y-88686728D01*
X134608311Y-88693386D01*
X134603701Y-88699636D01*
X134598870Y-88705487D01*
X134593811Y-88710934D01*
X134588526Y-88715983D01*
X134583015Y-88720628D01*
X134577278Y-88724877D01*
X134571312Y-88728727D01*
X134565119Y-88732178D01*
X134558698Y-88735237D01*
X134552048Y-88737899D01*
X134545171Y-88740165D01*
X134538064Y-88742040D01*
X134530729Y-88743525D01*
X134523163Y-88744615D01*
X134515365Y-88745318D01*
X134507339Y-88745633D01*
X134499082Y-88745559D01*
X134490594Y-88745097D01*
X134481871Y-88744250D01*
X134472920Y-88743019D01*
X134463737Y-88741405D01*
X134454318Y-88739405D01*
X134444670Y-88737029D01*
X134434784Y-88734266D01*
X134414315Y-88727609D01*
X134205867Y-88651731D01*
X133995120Y-88570917D01*
X133782134Y-88485187D01*
X133566978Y-88394564D01*
X133349716Y-88299073D01*
X133130417Y-88198737D01*
X132909145Y-88093577D01*
X132685965Y-87983617D01*
X132565819Y-88198689D01*
X132555734Y-88216765D01*
X132545838Y-88233450D01*
X132536123Y-88248740D01*
X132526573Y-88262648D01*
X132517187Y-88275174D01*
X132507946Y-88286325D01*
X132498838Y-88296107D01*
X132489855Y-88304526D01*
X132480984Y-88311584D01*
X132472216Y-88317289D01*
X132463539Y-88321645D01*
X132454940Y-88324659D01*
X132446412Y-88326335D01*
X132437941Y-88326676D01*
X132429516Y-88325692D01*
X132421128Y-88323384D01*
X132413042Y-88320228D01*
X132405534Y-88316687D01*
X132401998Y-88314768D01*
X132398603Y-88312758D01*
X132395356Y-88310649D01*
X132392252Y-88308446D01*
X132389294Y-88306149D01*
X132386477Y-88303750D01*
X132383808Y-88301260D01*
X132381280Y-88298672D01*
X132378901Y-88295988D01*
X132376665Y-88293207D01*
X132374571Y-88290332D01*
X132372623Y-88287359D01*
X132370820Y-88284290D01*
X132369160Y-88281126D01*
X132367648Y-88277864D01*
X132366277Y-88274508D01*
X132365048Y-88271054D01*
X132363970Y-88267505D01*
X132363034Y-88263860D01*
X132362240Y-88260119D01*
X132361593Y-88256281D01*
X132361090Y-88252349D01*
X132360518Y-88244195D01*
X132360521Y-88235655D01*
X132361106Y-88226730D01*
X132359127Y-88232313D01*
X132357003Y-88238114D01*
X132355078Y-88242955D01*
X132353363Y-88246839D01*
X132351867Y-88249770D01*
X132351203Y-88250880D01*
X132350595Y-88251752D01*
X132350049Y-88252385D01*
X132349559Y-88252782D01*
X132349133Y-88252943D01*
X132348767Y-88252870D01*
X132348464Y-88252561D01*
X132348225Y-88252015D01*
X132348050Y-88251234D01*
X132347941Y-88250220D01*
X132347924Y-88247490D01*
X132348184Y-88243826D01*
X132348724Y-88239232D01*
X132349560Y-88233711D01*
X132350694Y-88227263D01*
X132352136Y-88219897D01*
X132353893Y-88211609D01*
X132362340Y-88174446D01*
X132372456Y-88132573D01*
X132384426Y-88085464D01*
X132398434Y-88032598D01*
X132424862Y-87933569D01*
X132436050Y-87893940D01*
X132441364Y-87876679D01*
X132446581Y-87861148D01*
X132400464Y-87834214D01*
X132352539Y-87804283D01*
X132302866Y-87771377D01*
X132251518Y-87735521D01*
X132198550Y-87696737D01*
X132144039Y-87655049D01*
X132088041Y-87610478D01*
X132030627Y-87563052D01*
X131996383Y-87534994D01*
X131962861Y-87508225D01*
X131898170Y-87458023D01*
X131779495Y-87367302D01*
X131684740Y-87299974D01*
X131644825Y-87271015D01*
X131609437Y-87244250D01*
X131603323Y-87240206D01*
X131597473Y-87236039D01*
X131591891Y-87231746D01*
X131586576Y-87227329D01*
X131581532Y-87222793D01*
X131576756Y-87218137D01*
X131572248Y-87213361D01*
X131568011Y-87208471D01*
X131564046Y-87203463D01*
X131560351Y-87198341D01*
X131556931Y-87193107D01*
X131553781Y-87187760D01*
X131550908Y-87182305D01*
X131548309Y-87176739D01*
X131545983Y-87171065D01*
X131543936Y-87165290D01*
X131542161Y-87159404D01*
X131540666Y-87153417D01*
X131539447Y-87147330D01*
X131538509Y-87141142D01*
X131537848Y-87134854D01*
X131537467Y-87128467D01*
X131537364Y-87121987D01*
X131537545Y-87115411D01*
X131538006Y-87108737D01*
X131538751Y-87101976D01*
X131539777Y-87095122D01*
X131541087Y-87088181D01*
X131542681Y-87081148D01*
X131544561Y-87074031D01*
X131546728Y-87066829D01*
X131549177Y-87059541D01*
X131550317Y-87056485D01*
X131551506Y-87053591D01*
X131552751Y-87050863D01*
X131554046Y-87048294D01*
X131555395Y-87045887D01*
X131556796Y-87043643D01*
X131558253Y-87041559D01*
X131559767Y-87039631D01*
X131561331Y-87037862D01*
X131562952Y-87036249D01*
X131564626Y-87034790D01*
X131566357Y-87033487D01*
X131568147Y-87032336D01*
X131569992Y-87031336D01*
X131571893Y-87030491D01*
X131573852Y-87029795D01*
X131575866Y-87029245D01*
X131577941Y-87028848D01*
X131580072Y-87028596D01*
X131582264Y-87028491D01*
X131584517Y-87028531D01*
X131586825Y-87028714D01*
X131589194Y-87029039D01*
X131591623Y-87029508D01*
X131594113Y-87030119D01*
X131596667Y-87030869D01*
X131599273Y-87031759D01*
X131601949Y-87032788D01*
X131604688Y-87033951D01*
X131607485Y-87035250D01*
X131613267Y-87038252D01*
X131689938Y-87091225D01*
X131775778Y-87151565D01*
X131975715Y-87292270D01*
X132094454Y-87373100D01*
X132223632Y-87459391D01*
X132363953Y-87550805D01*
X132516129Y-87647005D01*
X132561602Y-87518595D01*
X132575437Y-87479804D01*
X132590721Y-87438583D01*
X132599130Y-87416954D01*
X132608166Y-87394591D01*
X132617918Y-87371452D01*
X132628477Y-87347492D01*
X132639120Y-87323293D01*
X132649095Y-87299520D01*
X132658448Y-87276263D01*
X132667220Y-87253608D01*
X132683185Y-87210469D01*
X132697327Y-87170805D01*
X132705660Y-87153139D01*
X132713160Y-87136354D01*
X132719897Y-87120482D01*
X132725939Y-87105538D01*
X132736188Y-87078532D01*
X132744430Y-87055535D01*
X132746717Y-87049497D01*
X132749137Y-87043949D01*
X132751691Y-87038889D01*
X132754395Y-87034325D01*
X132757255Y-87030256D01*
X132758747Y-87028408D01*
X132760278Y-87026687D01*
X132761854Y-87025092D01*
X132763472Y-87023621D01*
X132765137Y-87022276D01*
X132766850Y-87021061D01*
X132768607Y-87019972D01*
X132770411Y-87019008D01*
X132772267Y-87018176D01*
X132774170Y-87017468D01*
X132776126Y-87016893D01*
X132778134Y-87016444D01*
X132780196Y-87016124D01*
X132782312Y-87015934D01*
X132784482Y-87015874D01*
X132786708Y-87015944D01*
G37*
G36*
X131679837Y-91482448D02*
G01*
X131682491Y-91482595D01*
X131685214Y-91482864D01*
X131687998Y-91483262D01*
X131690850Y-91483785D01*
X131693767Y-91484437D01*
X131696747Y-91485222D01*
X131699793Y-91486135D01*
X131702901Y-91487181D01*
X131708283Y-91489235D01*
X131713948Y-91491681D01*
X131719881Y-91494520D01*
X131726063Y-91497740D01*
X131732482Y-91501338D01*
X131739116Y-91505306D01*
X131745953Y-91509642D01*
X131752977Y-91514338D01*
X131760170Y-91519389D01*
X131767512Y-91524790D01*
X131774993Y-91530528D01*
X131782595Y-91536607D01*
X131790298Y-91543019D01*
X131798092Y-91549751D01*
X131805954Y-91556809D01*
X131813869Y-91564175D01*
X131826034Y-91569958D01*
X131838140Y-91576319D01*
X131850186Y-91583264D01*
X131862167Y-91590805D01*
X131874087Y-91598946D01*
X131885935Y-91607699D01*
X131897709Y-91617071D01*
X131909411Y-91627069D01*
X131921035Y-91637702D01*
X131932577Y-91648983D01*
X131944035Y-91660910D01*
X131955409Y-91673499D01*
X131966693Y-91686757D01*
X131977885Y-91700689D01*
X131988982Y-91715306D01*
X131999979Y-91730614D01*
X132032714Y-91767929D01*
X132070617Y-91810609D01*
X132091623Y-91833633D01*
X132114057Y-91857606D01*
X132137971Y-91882396D01*
X132163410Y-91907874D01*
X132272198Y-92026509D01*
X132394771Y-92159451D01*
X132492185Y-92247624D01*
X132591069Y-92332922D01*
X132691434Y-92415339D01*
X132793290Y-92494869D01*
X132896647Y-92571505D01*
X133001519Y-92645246D01*
X133107915Y-92716085D01*
X133215850Y-92784015D01*
X133325329Y-92849030D01*
X133436366Y-92911131D01*
X133548974Y-92970309D01*
X133663163Y-93026554D01*
X133778940Y-93079867D01*
X133896320Y-93130240D01*
X134015314Y-93177669D01*
X134135934Y-93222147D01*
X134161395Y-93230722D01*
X134185441Y-93237911D01*
X134208080Y-93243720D01*
X134229320Y-93248149D01*
X134249170Y-93251203D01*
X134267640Y-93252883D01*
X134284734Y-93253193D01*
X134300461Y-93252135D01*
X134314832Y-93249713D01*
X134327853Y-93245932D01*
X134333860Y-93243530D01*
X134339533Y-93240789D01*
X134344873Y-93237710D01*
X134349882Y-93234293D01*
X134354556Y-93230534D01*
X134358903Y-93226442D01*
X134362919Y-93222011D01*
X134366605Y-93217242D01*
X134369967Y-93212136D01*
X134373004Y-93206694D01*
X134378100Y-93194802D01*
X134380182Y-93188398D01*
X134381987Y-93181746D01*
X134384743Y-93167692D01*
X134386365Y-93152627D01*
X134386852Y-93136541D01*
X134386191Y-93119426D01*
X134384382Y-93101269D01*
X134381421Y-93082057D01*
X134377295Y-93061783D01*
X134372005Y-93040433D01*
X134365545Y-93017995D01*
X134357906Y-92994460D01*
X134349091Y-92969816D01*
X134339086Y-92944056D01*
X134327888Y-92917160D01*
X134315494Y-92889125D01*
X134301900Y-92859935D01*
X134299977Y-92855792D01*
X134298266Y-92851861D01*
X134296759Y-92848134D01*
X134295452Y-92844594D01*
X134294339Y-92841235D01*
X134293414Y-92838045D01*
X134292675Y-92835011D01*
X134292112Y-92832122D01*
X134291724Y-92829370D01*
X134291504Y-92826740D01*
X134291445Y-92824223D01*
X134291544Y-92821808D01*
X134291796Y-92819485D01*
X134292193Y-92817240D01*
X134292731Y-92815064D01*
X134293406Y-92812943D01*
X134294382Y-92810401D01*
X134295452Y-92807997D01*
X134296619Y-92805739D01*
X134297886Y-92803619D01*
X134299250Y-92801642D01*
X134300710Y-92799807D01*
X134302269Y-92798106D01*
X134303927Y-92796544D01*
X134305683Y-92795118D01*
X134307539Y-92793828D01*
X134309495Y-92792669D01*
X134311551Y-92791647D01*
X134313708Y-92790756D01*
X134315965Y-92789994D01*
X134318324Y-92789367D01*
X134320783Y-92788868D01*
X134323343Y-92788494D01*
X134326008Y-92788247D01*
X134328774Y-92788130D01*
X134331644Y-92788137D01*
X134334619Y-92788265D01*
X134337693Y-92788519D01*
X134340875Y-92788892D01*
X134344160Y-92789388D01*
X134347550Y-92790004D01*
X134351047Y-92790738D01*
X134354646Y-92791591D01*
X134358354Y-92792562D01*
X134366086Y-92794848D01*
X134374245Y-92797589D01*
X134382443Y-92800638D01*
X134390292Y-92803873D01*
X134397798Y-92807295D01*
X134404965Y-92810921D01*
X134411798Y-92814759D01*
X134418304Y-92818823D01*
X134424486Y-92823121D01*
X134430353Y-92827666D01*
X134435907Y-92832469D01*
X134441155Y-92837541D01*
X134446099Y-92842892D01*
X134450747Y-92848537D01*
X134455106Y-92854479D01*
X134459178Y-92860737D01*
X134462970Y-92867320D01*
X134466485Y-92874235D01*
X134484003Y-92908568D01*
X134499911Y-92942034D01*
X134514210Y-92974636D01*
X134526904Y-93006373D01*
X134537985Y-93037248D01*
X134547459Y-93067260D01*
X134555327Y-93096405D01*
X134561583Y-93124686D01*
X134566233Y-93152103D01*
X134569273Y-93178660D01*
X134570706Y-93204348D01*
X134570529Y-93229174D01*
X134568745Y-93253135D01*
X134565352Y-93276232D01*
X134560350Y-93298465D01*
X134553742Y-93319833D01*
X134551014Y-93327063D01*
X134548031Y-93334085D01*
X134544782Y-93340906D01*
X134541270Y-93347522D01*
X134537499Y-93353939D01*
X134533459Y-93360147D01*
X134529155Y-93366152D01*
X134524584Y-93371952D01*
X134519743Y-93377545D01*
X134514637Y-93382934D01*
X134509258Y-93388116D01*
X134503610Y-93393094D01*
X134497689Y-93397863D01*
X134491496Y-93402428D01*
X134485026Y-93406778D01*
X134478284Y-93410927D01*
X134471265Y-93414869D01*
X134463969Y-93418597D01*
X134456395Y-93422118D01*
X134448541Y-93425430D01*
X134431994Y-93431427D01*
X134414321Y-93436580D01*
X134395507Y-93440889D01*
X134375551Y-93444351D01*
X134354438Y-93446964D01*
X134332167Y-93448723D01*
X134299080Y-93448197D01*
X134265909Y-93446466D01*
X134232717Y-93443545D01*
X134199566Y-93439465D01*
X134166526Y-93434244D01*
X134133658Y-93427909D01*
X134101033Y-93420477D01*
X134068712Y-93411979D01*
X133924335Y-93363280D01*
X133783101Y-93311132D01*
X133645023Y-93255535D01*
X133510106Y-93196495D01*
X133378361Y-93134010D01*
X133249794Y-93068085D01*
X133124414Y-92998723D01*
X133002226Y-92925929D01*
X132883245Y-92849702D01*
X132767474Y-92770050D01*
X132654923Y-92686968D01*
X132545599Y-92600467D01*
X132439507Y-92510547D01*
X132336667Y-92417210D01*
X132237074Y-92320459D01*
X132140742Y-92220296D01*
X132142119Y-92229103D01*
X132144423Y-92240743D01*
X132151889Y-92272548D01*
X132163268Y-92315750D01*
X132178696Y-92370399D01*
X132198300Y-92436541D01*
X132222210Y-92514226D01*
X132250562Y-92603491D01*
X132283482Y-92704392D01*
X132341825Y-92872321D01*
X132391578Y-93011288D01*
X132432737Y-93121290D01*
X132450093Y-93165433D01*
X132465301Y-93202331D01*
X132474259Y-93218834D01*
X132482070Y-93235688D01*
X132488742Y-93252907D01*
X132494269Y-93270515D01*
X132498660Y-93288528D01*
X132501916Y-93306970D01*
X132504040Y-93325858D01*
X132505029Y-93345208D01*
X132504892Y-93365044D01*
X132503626Y-93385383D01*
X132501240Y-93406244D01*
X132497729Y-93427646D01*
X132493100Y-93449610D01*
X132487356Y-93472153D01*
X132480498Y-93495296D01*
X132472526Y-93519059D01*
X132467667Y-93531331D01*
X132461989Y-93543024D01*
X132455498Y-93554157D01*
X132448200Y-93564738D01*
X132440102Y-93574774D01*
X132431205Y-93584281D01*
X132421515Y-93593268D01*
X132411043Y-93601746D01*
X132399788Y-93609727D01*
X132387754Y-93617221D01*
X132374954Y-93624242D01*
X132361385Y-93630796D01*
X132347059Y-93636898D01*
X132331977Y-93642558D01*
X132316147Y-93647787D01*
X132299572Y-93652595D01*
X132282828Y-93656828D01*
X132266482Y-93660331D01*
X132250522Y-93663103D01*
X132234943Y-93665152D01*
X132219723Y-93666482D01*
X132204859Y-93667101D01*
X132190337Y-93667016D01*
X132176148Y-93666225D01*
X132162277Y-93664737D01*
X132148716Y-93662559D01*
X132135451Y-93659695D01*
X132122476Y-93656152D01*
X132109776Y-93651932D01*
X132097340Y-93647044D01*
X132085161Y-93641487D01*
X132073221Y-93635276D01*
X132056152Y-93626507D01*
X132039053Y-93616988D01*
X132021920Y-93606727D01*
X132004760Y-93595717D01*
X131987570Y-93583960D01*
X131970349Y-93571455D01*
X131953102Y-93558203D01*
X131935821Y-93544205D01*
X131918510Y-93529460D01*
X131901170Y-93513969D01*
X131883801Y-93497731D01*
X131866401Y-93480744D01*
X131848968Y-93463012D01*
X131831509Y-93444532D01*
X131814019Y-93425304D01*
X131796502Y-93405330D01*
X131763789Y-93364590D01*
X131731570Y-93322255D01*
X131699777Y-93278303D01*
X131668341Y-93232711D01*
X131637203Y-93185457D01*
X131606292Y-93136513D01*
X131575544Y-93085866D01*
X131544895Y-93033481D01*
X131516335Y-92982723D01*
X131489191Y-92931286D01*
X131463464Y-92879175D01*
X131439154Y-92826388D01*
X131416265Y-92772925D01*
X131394793Y-92718785D01*
X131374736Y-92663969D01*
X131356096Y-92608475D01*
X131340478Y-92556102D01*
X131326791Y-92504928D01*
X131315056Y-92454887D01*
X131305303Y-92405912D01*
X131297551Y-92357945D01*
X131294429Y-92334317D01*
X131291819Y-92310914D01*
X131289720Y-92287730D01*
X131288136Y-92264755D01*
X131287072Y-92241982D01*
X131286526Y-92219403D01*
X131285694Y-92202615D01*
X131285391Y-92186013D01*
X131285607Y-92169597D01*
X131286349Y-92153366D01*
X131287613Y-92137319D01*
X131289401Y-92121459D01*
X131291712Y-92105785D01*
X131294546Y-92090293D01*
X131300517Y-92060403D01*
X131303503Y-92045973D01*
X131306637Y-92031741D01*
X131310038Y-92017606D01*
X131313811Y-92003453D01*
X131318066Y-91989181D01*
X131322921Y-91974674D01*
X131333981Y-91945527D01*
X131345654Y-91918800D01*
X131357946Y-91894478D01*
X131370864Y-91872561D01*
X131384405Y-91853038D01*
X131398572Y-91835900D01*
X131405893Y-91828223D01*
X131413370Y-91821140D01*
X131421011Y-91814648D01*
X131428804Y-91808747D01*
X131436760Y-91803437D01*
X131444873Y-91798715D01*
X131453148Y-91794581D01*
X131461585Y-91791037D01*
X131470180Y-91788077D01*
X131478936Y-91785702D01*
X131487855Y-91783911D01*
X131496933Y-91782703D01*
X131506173Y-91782078D01*
X131515581Y-91782032D01*
X131525146Y-91782568D01*
X131534876Y-91783681D01*
X131544771Y-91785375D01*
X131554826Y-91787644D01*
X131575433Y-91793909D01*
X131582496Y-91796632D01*
X131589013Y-91799614D01*
X131594978Y-91802860D01*
X131597747Y-91804583D01*
X131600373Y-91806374D01*
X131602858Y-91808234D01*
X131605198Y-91810163D01*
X131607391Y-91812163D01*
X131609434Y-91814233D01*
X131611328Y-91816376D01*
X131613074Y-91818589D01*
X131614664Y-91820875D01*
X131616101Y-91823234D01*
X131617384Y-91825666D01*
X131618508Y-91828176D01*
X131619479Y-91830757D01*
X131620287Y-91833418D01*
X131620937Y-91836153D01*
X131621424Y-91838966D01*
X131621745Y-91841856D01*
X131621907Y-91844827D01*
X131621897Y-91847875D01*
X131621723Y-91851005D01*
X131621381Y-91854212D01*
X131620864Y-91857502D01*
X131620180Y-91860874D01*
X131619320Y-91864329D01*
X131618288Y-91867869D01*
X131617075Y-91871489D01*
X131615550Y-91875590D01*
X131613928Y-91879519D01*
X131612199Y-91883282D01*
X131610351Y-91886877D01*
X131608375Y-91890322D01*
X131606261Y-91893615D01*
X131603993Y-91896763D01*
X131601566Y-91899772D01*
X131598962Y-91902641D01*
X131596178Y-91905385D01*
X131593196Y-91908003D01*
X131590009Y-91910503D01*
X131586605Y-91912888D01*
X131582969Y-91915164D01*
X131579097Y-91917340D01*
X131574974Y-91919415D01*
X131561042Y-91929648D01*
X131547734Y-91939811D01*
X131535061Y-91949902D01*
X131523025Y-91959925D01*
X131511641Y-91969884D01*
X131500913Y-91979779D01*
X131490851Y-91989618D01*
X131481459Y-91999400D01*
X131472751Y-92009130D01*
X131464734Y-92018805D01*
X131457411Y-92028438D01*
X131450798Y-92038024D01*
X131444896Y-92047567D01*
X131439719Y-92057075D01*
X131435273Y-92066542D01*
X131431562Y-92075981D01*
X131428132Y-92086910D01*
X131425248Y-92098767D01*
X131422909Y-92111533D01*
X131421107Y-92125195D01*
X131419838Y-92139746D01*
X131419093Y-92155174D01*
X131418871Y-92171467D01*
X131419166Y-92188616D01*
X131419973Y-92206609D01*
X131421284Y-92225435D01*
X131423096Y-92245082D01*
X131425408Y-92265539D01*
X131428205Y-92286797D01*
X131431486Y-92308842D01*
X131435250Y-92331664D01*
X131439485Y-92355254D01*
X131447982Y-92393606D01*
X131457981Y-92432489D01*
X131469423Y-92471886D01*
X131482235Y-92511768D01*
X131496360Y-92552114D01*
X131511726Y-92592898D01*
X131528270Y-92634100D01*
X131545927Y-92675695D01*
X131564723Y-92717404D01*
X131584686Y-92758932D01*
X131605750Y-92800262D01*
X131627847Y-92841370D01*
X131650919Y-92882232D01*
X131674893Y-92922825D01*
X131699709Y-92963129D01*
X131725297Y-93003117D01*
X131750766Y-93041884D01*
X131775353Y-93078571D01*
X131799185Y-93113223D01*
X131822397Y-93145889D01*
X131845119Y-93176615D01*
X131867479Y-93205443D01*
X131889611Y-93232425D01*
X131911644Y-93257605D01*
X131935197Y-93281827D01*
X131957724Y-93304358D01*
X131979409Y-93325117D01*
X132000426Y-93344023D01*
X132010738Y-93352755D01*
X132020950Y-93360989D01*
X132031086Y-93368718D01*
X132041162Y-93375925D01*
X132051206Y-93382609D01*
X132061237Y-93388753D01*
X132071279Y-93394350D01*
X132081352Y-93399386D01*
X132084148Y-93401482D01*
X132086995Y-93403456D01*
X132089894Y-93405325D01*
X132092861Y-93407093D01*
X132095891Y-93408777D01*
X132098997Y-93410387D01*
X132102180Y-93411927D01*
X132105446Y-93413414D01*
X132112249Y-93416280D01*
X132119449Y-93419062D01*
X132127089Y-93421852D01*
X132135208Y-93424741D01*
X132146425Y-93428418D01*
X132157054Y-93431288D01*
X132167104Y-93433343D01*
X132176590Y-93434585D01*
X132181124Y-93434897D01*
X132185520Y-93435001D01*
X132189778Y-93434901D01*
X132193904Y-93434592D01*
X132197894Y-93434075D01*
X132201754Y-93433349D01*
X132205483Y-93432412D01*
X132209083Y-93431266D01*
X132212557Y-93429908D01*
X132215900Y-93428342D01*
X132219121Y-93426559D01*
X132222218Y-93424566D01*
X132225195Y-93422360D01*
X132228047Y-93419938D01*
X132230784Y-93417301D01*
X132233397Y-93414448D01*
X132235900Y-93411382D01*
X132238281Y-93408096D01*
X132240552Y-93404591D01*
X132242711Y-93400873D01*
X132244756Y-93396932D01*
X132246694Y-93392775D01*
X132250242Y-93383793D01*
X132253877Y-93371458D01*
X132256624Y-93357485D01*
X132258501Y-93341875D01*
X132259509Y-93324633D01*
X132259659Y-93305764D01*
X132258957Y-93285266D01*
X132257410Y-93263146D01*
X132255032Y-93239401D01*
X132251831Y-93214043D01*
X132247809Y-93187068D01*
X132242977Y-93158480D01*
X132237344Y-93128284D01*
X132230916Y-93096480D01*
X132223704Y-93063074D01*
X132215716Y-93028068D01*
X132206958Y-92991464D01*
X132160061Y-92816115D01*
X132112327Y-92652913D01*
X132063660Y-92501904D01*
X132013978Y-92363123D01*
X131988731Y-92298333D01*
X131963191Y-92236614D01*
X131937355Y-92177977D01*
X131911206Y-92122421D01*
X131884739Y-92069958D01*
X131857939Y-92020586D01*
X131830796Y-91974317D01*
X131803299Y-91931151D01*
X131792910Y-91916967D01*
X131786985Y-91908917D01*
X131780458Y-91900285D01*
X131773237Y-91891114D01*
X131769339Y-91886340D01*
X131765237Y-91881447D01*
X131760915Y-91876439D01*
X131756365Y-91871322D01*
X131751575Y-91866101D01*
X131746535Y-91860785D01*
X131737775Y-91850587D01*
X131728015Y-91839890D01*
X131705678Y-91816469D01*
X131679894Y-91789472D01*
X131665828Y-91774305D01*
X131651036Y-91757848D01*
X131637428Y-91744712D01*
X131624910Y-91731819D01*
X131613480Y-91719188D01*
X131603133Y-91706817D01*
X131593867Y-91694720D01*
X131585684Y-91682905D01*
X131578572Y-91671377D01*
X131572534Y-91660148D01*
X131567567Y-91649223D01*
X131563667Y-91638609D01*
X131560832Y-91628322D01*
X131559057Y-91618362D01*
X131558340Y-91608740D01*
X131558679Y-91599464D01*
X131560073Y-91590543D01*
X131562513Y-91581985D01*
X131564560Y-91576822D01*
X131566987Y-91571812D01*
X131569777Y-91566967D01*
X131572919Y-91562301D01*
X131576399Y-91557831D01*
X131580198Y-91553566D01*
X131584308Y-91549521D01*
X131588714Y-91545707D01*
X131593398Y-91542141D01*
X131598349Y-91538837D01*
X131603555Y-91535807D01*
X131608997Y-91533058D01*
X131614666Y-91530615D01*
X131620547Y-91528485D01*
X131626621Y-91526682D01*
X131632882Y-91525220D01*
X131636839Y-91514053D01*
X131637801Y-91511485D01*
X131638840Y-91509021D01*
X131639952Y-91506656D01*
X131641140Y-91504397D01*
X131642401Y-91502240D01*
X131643734Y-91500189D01*
X131645139Y-91498245D01*
X131646619Y-91496407D01*
X131648170Y-91494679D01*
X131649793Y-91493061D01*
X131651487Y-91491552D01*
X131653252Y-91490153D01*
X131655089Y-91488868D01*
X131656994Y-91487699D01*
X131658968Y-91486641D01*
X131661015Y-91485699D01*
X131663128Y-91484874D01*
X131665311Y-91484167D01*
X131667564Y-91483577D01*
X131669884Y-91483109D01*
X131672272Y-91482761D01*
X131674727Y-91482534D01*
X131677249Y-91482429D01*
X131679837Y-91482448D01*
G37*
G36*
X131407435Y-93624109D02*
G01*
X131428053Y-93625149D01*
X131448831Y-93626985D01*
X131469768Y-93629613D01*
X131490866Y-93633034D01*
X131512127Y-93637250D01*
X131533548Y-93642258D01*
X131555129Y-93648061D01*
X131576874Y-93654656D01*
X131598775Y-93662043D01*
X131616542Y-93668633D01*
X131634244Y-93675796D01*
X131651869Y-93683537D01*
X131669408Y-93691866D01*
X131686845Y-93700787D01*
X131704174Y-93710304D01*
X131721383Y-93720419D01*
X131738458Y-93731144D01*
X131755390Y-93742479D01*
X131772170Y-93754434D01*
X131788783Y-93767009D01*
X131805218Y-93780213D01*
X131821469Y-93794050D01*
X131837521Y-93808525D01*
X131853362Y-93823645D01*
X131868982Y-93839413D01*
X131884331Y-93855742D01*
X131899365Y-93872518D01*
X131914082Y-93889719D01*
X131928486Y-93907317D01*
X131942575Y-93925278D01*
X131956351Y-93943580D01*
X131969814Y-93962195D01*
X131982962Y-93981096D01*
X132008326Y-94019638D01*
X132032445Y-94058994D01*
X132055323Y-94098945D01*
X132076967Y-94139266D01*
X132087911Y-94160955D01*
X132098368Y-94182751D01*
X132108338Y-94204631D01*
X132117814Y-94226576D01*
X132126796Y-94248567D01*
X132135278Y-94270585D01*
X132143263Y-94292609D01*
X132150746Y-94314622D01*
X132157725Y-94336600D01*
X132164195Y-94358532D01*
X132170156Y-94380391D01*
X132175608Y-94402163D01*
X132180545Y-94423827D01*
X132184965Y-94445364D01*
X132188869Y-94466750D01*
X132192249Y-94487973D01*
X132195105Y-94509009D01*
X132197433Y-94529850D01*
X132199229Y-94550485D01*
X132200483Y-94570904D01*
X132201192Y-94591090D01*
X132201354Y-94611033D01*
X132200961Y-94630729D01*
X132200004Y-94650158D01*
X132198484Y-94669318D01*
X132196391Y-94688188D01*
X132193724Y-94706763D01*
X132190475Y-94725032D01*
X132186640Y-94742983D01*
X132182211Y-94760602D01*
X132177184Y-94777881D01*
X132171557Y-94794813D01*
X132163316Y-94816415D01*
X132154160Y-94837251D01*
X132144080Y-94857315D01*
X132133068Y-94876611D01*
X132121115Y-94895131D01*
X132108212Y-94912873D01*
X132094354Y-94929834D01*
X132079529Y-94946011D01*
X132063731Y-94961404D01*
X132046952Y-94976007D01*
X132029185Y-94989815D01*
X132010418Y-95002830D01*
X131990648Y-95015049D01*
X131969860Y-95026461D01*
X131948052Y-95037075D01*
X131925212Y-95046880D01*
X131904637Y-95054466D01*
X131883966Y-95061125D01*
X131863218Y-95066856D01*
X131842414Y-95071654D01*
X131821573Y-95075519D01*
X131800711Y-95078449D01*
X131779854Y-95080441D01*
X131759014Y-95081490D01*
X131738216Y-95081596D01*
X131717475Y-95080758D01*
X131696813Y-95078970D01*
X131676247Y-95076233D01*
X131655799Y-95072545D01*
X131635488Y-95067901D01*
X131615327Y-95062298D01*
X131606602Y-95059430D01*
X131595345Y-95055733D01*
X131557896Y-95041293D01*
X131520921Y-95024654D01*
X131484420Y-95005808D01*
X131448377Y-94984741D01*
X131412800Y-94961446D01*
X131377669Y-94935908D01*
X131342987Y-94908118D01*
X131308751Y-94878059D01*
X131274950Y-94845731D01*
X131241584Y-94811114D01*
X131208641Y-94774199D01*
X131176121Y-94734979D01*
X131144020Y-94693438D01*
X131112327Y-94649566D01*
X131081042Y-94603354D01*
X131050155Y-94554787D01*
X131024662Y-94514564D01*
X131000147Y-94473657D01*
X130976696Y-94432240D01*
X130954394Y-94390497D01*
X130933322Y-94348600D01*
X130913566Y-94306726D01*
X130895211Y-94265054D01*
X130878343Y-94223762D01*
X130862604Y-94182549D01*
X130847568Y-94140997D01*
X130833245Y-94099111D01*
X130819628Y-94056883D01*
X130806721Y-94014318D01*
X130794522Y-93971412D01*
X130783031Y-93928170D01*
X130772252Y-93884589D01*
X130771380Y-93880603D01*
X130770731Y-93876408D01*
X130770299Y-93872012D01*
X130770080Y-93867428D01*
X130770077Y-93862661D01*
X130770281Y-93857718D01*
X130770692Y-93852609D01*
X130770842Y-93851316D01*
X130997669Y-93851316D01*
X131009192Y-93889271D01*
X131021297Y-93926849D01*
X131033992Y-93964065D01*
X131047283Y-94000933D01*
X131061168Y-94037461D01*
X131075658Y-94073658D01*
X131090760Y-94109535D01*
X131106478Y-94145108D01*
X131122814Y-94180384D01*
X131139779Y-94215378D01*
X131157369Y-94250096D01*
X131175600Y-94284550D01*
X131194469Y-94318755D01*
X131213986Y-94352718D01*
X131234155Y-94386452D01*
X131254979Y-94419968D01*
X131281039Y-94458870D01*
X131307298Y-94495932D01*
X131333750Y-94531141D01*
X131360390Y-94564505D01*
X131387204Y-94596018D01*
X131414189Y-94625676D01*
X131441335Y-94653478D01*
X131468633Y-94679415D01*
X131496075Y-94703491D01*
X131523651Y-94725703D01*
X131551360Y-94746043D01*
X131579186Y-94764511D01*
X131607124Y-94781105D01*
X131635166Y-94795822D01*
X131663302Y-94808657D01*
X131691526Y-94819607D01*
X131721222Y-94829315D01*
X131749585Y-94836941D01*
X131776604Y-94842488D01*
X131802265Y-94845964D01*
X131826562Y-94847370D01*
X131838193Y-94847300D01*
X131849479Y-94846716D01*
X131860418Y-94845618D01*
X131871008Y-94844005D01*
X131881250Y-94841881D01*
X131891138Y-94839241D01*
X131900675Y-94836094D01*
X131909858Y-94832435D01*
X131918686Y-94828265D01*
X131927153Y-94823588D01*
X131935267Y-94818399D01*
X131943018Y-94812704D01*
X131950410Y-94806498D01*
X131957439Y-94799791D01*
X131964102Y-94792574D01*
X131970403Y-94784852D01*
X131976337Y-94776625D01*
X131981901Y-94767893D01*
X131987096Y-94758657D01*
X131991923Y-94748919D01*
X131996376Y-94738679D01*
X132000453Y-94727940D01*
X132005319Y-94709628D01*
X132009404Y-94691028D01*
X132012716Y-94672114D01*
X132015256Y-94652873D01*
X132017036Y-94633287D01*
X132018065Y-94613344D01*
X132018338Y-94593024D01*
X132017870Y-94572310D01*
X132016659Y-94551187D01*
X132014715Y-94529639D01*
X132012044Y-94507651D01*
X132008657Y-94485202D01*
X132004550Y-94462282D01*
X131999736Y-94438869D01*
X131994214Y-94414951D01*
X131987995Y-94390509D01*
X131982147Y-94366273D01*
X131975647Y-94342238D01*
X131968507Y-94318401D01*
X131960738Y-94294756D01*
X131952352Y-94271297D01*
X131943359Y-94248016D01*
X131933769Y-94224912D01*
X131923592Y-94201981D01*
X131912846Y-94179210D01*
X131901532Y-94156603D01*
X131889670Y-94134148D01*
X131877266Y-94111843D01*
X131864332Y-94089680D01*
X131850880Y-94067657D01*
X131836919Y-94045770D01*
X131822464Y-94024008D01*
X131807383Y-94003791D01*
X131792268Y-93984449D01*
X131777105Y-93965974D01*
X131761875Y-93948358D01*
X131746565Y-93931596D01*
X131731156Y-93915681D01*
X131715632Y-93900614D01*
X131699978Y-93886381D01*
X131684177Y-93872982D01*
X131668212Y-93860407D01*
X131652068Y-93848654D01*
X131635729Y-93837710D01*
X131619176Y-93827577D01*
X131602391Y-93818250D01*
X131585364Y-93809715D01*
X131568075Y-93801972D01*
X131540704Y-93792135D01*
X131512283Y-93783995D01*
X131482795Y-93777558D01*
X131452235Y-93772831D01*
X131420590Y-93769818D01*
X131387849Y-93768523D01*
X131353998Y-93768955D01*
X131319030Y-93771117D01*
X131282930Y-93775013D01*
X131245689Y-93780650D01*
X131207296Y-93788029D01*
X131167742Y-93797166D01*
X131127012Y-93808055D01*
X131085098Y-93820707D01*
X131041987Y-93835124D01*
X130997669Y-93851316D01*
X130770842Y-93851316D01*
X130771304Y-93847342D01*
X130772119Y-93841924D01*
X130773130Y-93836366D01*
X130774335Y-93830674D01*
X130775732Y-93824858D01*
X130777321Y-93818923D01*
X130779091Y-93812878D01*
X130781047Y-93806732D01*
X130783182Y-93800496D01*
X130790343Y-93781311D01*
X130797728Y-93763542D01*
X130805330Y-93747188D01*
X130813135Y-93732266D01*
X130821135Y-93718771D01*
X130829314Y-93706712D01*
X130837665Y-93696098D01*
X130846175Y-93686926D01*
X130854835Y-93679205D01*
X130863629Y-93672944D01*
X130872556Y-93668143D01*
X130877061Y-93666294D01*
X130881594Y-93664811D01*
X130886154Y-93663698D01*
X130890738Y-93662951D01*
X130895345Y-93662576D01*
X130899975Y-93662571D01*
X130904623Y-93662935D01*
X130909293Y-93663670D01*
X130913980Y-93664778D01*
X130918682Y-93666261D01*
X130921778Y-93667503D01*
X130924778Y-93669009D01*
X130927687Y-93670775D01*
X130930505Y-93672802D01*
X130933226Y-93675093D01*
X130935858Y-93677645D01*
X130938397Y-93680460D01*
X130940840Y-93683531D01*
X130943195Y-93686869D01*
X130945453Y-93690469D01*
X130947622Y-93694329D01*
X130949697Y-93698451D01*
X130951680Y-93702833D01*
X130953567Y-93707478D01*
X130955364Y-93712386D01*
X130957069Y-93717555D01*
X130962651Y-93719533D01*
X131037064Y-93698758D01*
X131113045Y-93678538D01*
X131267625Y-93639028D01*
X131287116Y-93634518D01*
X131306767Y-93630801D01*
X131326578Y-93627875D01*
X131346552Y-93625743D01*
X131366686Y-93624405D01*
X131386981Y-93623859D01*
X131407435Y-93624109D01*
G37*
D12*
X132490123Y-100192671D02*
X132412434Y-100222343D01*
X132332524Y-100250039D01*
X132250925Y-100275945D01*
X132168165Y-100300246D01*
X132001289Y-100344774D01*
X131836144Y-100385099D01*
X131809011Y-100391612D01*
X131838356Y-100381489D01*
X131998727Y-100330361D01*
X132160217Y-100282329D01*
X132322429Y-100236824D01*
X132484963Y-100193280D01*
X132494424Y-100190845D01*
X132490123Y-100192671D01*
G36*
X132490123Y-100192671D02*
G01*
X132412434Y-100222343D01*
X132332524Y-100250039D01*
X132250925Y-100275945D01*
X132168165Y-100300246D01*
X132001289Y-100344774D01*
X131836144Y-100385099D01*
X131809011Y-100391612D01*
X131838356Y-100381489D01*
X131998727Y-100330361D01*
X132160217Y-100282329D01*
X132322429Y-100236824D01*
X132484963Y-100193280D01*
X132494424Y-100190845D01*
X132490123Y-100192671D01*
G37*
D11*
X132560191Y-100181710D02*
X132577593Y-100183464D01*
X132594218Y-100186954D01*
X132610002Y-100192279D01*
X132624866Y-100199534D01*
X132553422Y-100235759D01*
X132479990Y-100268948D01*
X132404939Y-100299636D01*
X132328610Y-100328369D01*
X132173503Y-100382127D01*
X132017436Y-100434576D01*
X131996122Y-100442024D01*
X132019131Y-100431700D01*
X132046192Y-100418098D01*
X132077094Y-100400640D01*
X132148354Y-100357357D01*
X132228800Y-100308259D01*
X132271180Y-100283526D01*
X132314318Y-100259741D01*
X132357694Y-100237704D01*
X132400797Y-100218211D01*
X132443112Y-100202067D01*
X132484128Y-100190067D01*
X132503985Y-100185871D01*
X132523325Y-100183015D01*
X132542082Y-100181593D01*
X132560191Y-100181710D01*
G36*
X132560191Y-100181710D02*
G01*
X132577593Y-100183464D01*
X132594218Y-100186954D01*
X132610002Y-100192279D01*
X132624866Y-100199534D01*
X132553422Y-100235759D01*
X132479990Y-100268948D01*
X132404939Y-100299636D01*
X132328610Y-100328369D01*
X132173503Y-100382127D01*
X132017436Y-100434576D01*
X131996122Y-100442024D01*
X132019131Y-100431700D01*
X132046192Y-100418098D01*
X132077094Y-100400640D01*
X132148354Y-100357357D01*
X132228800Y-100308259D01*
X132271180Y-100283526D01*
X132314318Y-100259741D01*
X132357694Y-100237704D01*
X132400797Y-100218211D01*
X132443112Y-100202067D01*
X132484128Y-100190067D01*
X132503985Y-100185871D01*
X132523325Y-100183015D01*
X132542082Y-100181593D01*
X132560191Y-100181710D01*
G37*
D12*
X131679497Y-100436286D02*
X131522545Y-100495319D01*
X131501734Y-100503089D01*
X131480650Y-100510174D01*
X131459316Y-100516636D01*
X131437765Y-100522545D01*
X131416019Y-100527961D01*
X131394104Y-100532943D01*
X131349887Y-100541868D01*
X131171750Y-100572923D01*
X131152884Y-100577076D01*
X131133802Y-100582202D01*
X131114554Y-100588139D01*
X131095187Y-100594732D01*
X131056291Y-100609280D01*
X131017496Y-100624614D01*
X130979197Y-100639494D01*
X130960350Y-100646376D01*
X130941776Y-100652681D01*
X130923515Y-100658260D01*
X130905618Y-100662947D01*
X130888137Y-100666598D01*
X130871119Y-100669053D01*
X130791366Y-100679769D01*
X130781278Y-100680753D01*
X130771200Y-100681496D01*
X130761133Y-100681937D01*
X130751096Y-100682040D01*
X130741094Y-100681744D01*
X130731139Y-100681003D01*
X130721238Y-100679768D01*
X130711401Y-100677986D01*
X130702085Y-100676122D01*
X130693702Y-100674660D01*
X130686205Y-100673574D01*
X130679545Y-100672849D01*
X130673667Y-100672453D01*
X130668522Y-100672378D01*
X130664062Y-100672593D01*
X130660237Y-100673080D01*
X130656999Y-100673819D01*
X130654293Y-100674787D01*
X130652071Y-100675963D01*
X130650283Y-100677323D01*
X130648881Y-100678853D01*
X130647813Y-100680526D01*
X130647026Y-100682321D01*
X130646478Y-100684219D01*
X130645883Y-100688237D01*
X130645621Y-100692407D01*
X130645297Y-100696557D01*
X130644989Y-100698573D01*
X130644510Y-100700522D01*
X130643819Y-100702380D01*
X130642863Y-100704125D01*
X130641589Y-100705742D01*
X130639948Y-100707204D01*
X130637894Y-100708491D01*
X130635370Y-100709581D01*
X130632334Y-100710456D01*
X130628731Y-100711092D01*
X130621441Y-100712354D01*
X130611839Y-100714423D01*
X130587015Y-100720211D01*
X130556911Y-100726867D01*
X130540709Y-100730021D01*
X130524182Y-100732798D01*
X130507664Y-100735001D01*
X130491489Y-100736424D01*
X130475987Y-100736878D01*
X130468588Y-100736678D01*
X130461487Y-100736161D01*
X130454717Y-100735301D01*
X130448323Y-100734071D01*
X130442347Y-100732453D01*
X130436829Y-100730416D01*
X130431809Y-100727939D01*
X130427335Y-100724995D01*
X130423440Y-100721560D01*
X130420172Y-100717608D01*
X130418072Y-100712589D01*
X130418739Y-100707687D01*
X130422008Y-100702900D01*
X130427708Y-100698232D01*
X130435683Y-100693679D01*
X130445765Y-100689247D01*
X130471576Y-100680738D01*
X130503822Y-100672711D01*
X130541179Y-100665171D01*
X130582320Y-100658123D01*
X130625927Y-100651572D01*
X130904551Y-100617659D01*
X130983185Y-100601504D01*
X131061632Y-100583352D01*
X131139888Y-100563683D01*
X131217942Y-100542964D01*
X131373420Y-100500271D01*
X131450837Y-100479243D01*
X131528023Y-100459057D01*
X131809011Y-100391612D01*
X131679497Y-100436286D01*
G36*
X131679497Y-100436286D02*
G01*
X131522545Y-100495319D01*
X131501734Y-100503089D01*
X131480650Y-100510174D01*
X131459316Y-100516636D01*
X131437765Y-100522545D01*
X131416019Y-100527961D01*
X131394104Y-100532943D01*
X131349887Y-100541868D01*
X131171750Y-100572923D01*
X131152884Y-100577076D01*
X131133802Y-100582202D01*
X131114554Y-100588139D01*
X131095187Y-100594732D01*
X131056291Y-100609280D01*
X131017496Y-100624614D01*
X130979197Y-100639494D01*
X130960350Y-100646376D01*
X130941776Y-100652681D01*
X130923515Y-100658260D01*
X130905618Y-100662947D01*
X130888137Y-100666598D01*
X130871119Y-100669053D01*
X130791366Y-100679769D01*
X130781278Y-100680753D01*
X130771200Y-100681496D01*
X130761133Y-100681937D01*
X130751096Y-100682040D01*
X130741094Y-100681744D01*
X130731139Y-100681003D01*
X130721238Y-100679768D01*
X130711401Y-100677986D01*
X130702085Y-100676122D01*
X130693702Y-100674660D01*
X130686205Y-100673574D01*
X130679545Y-100672849D01*
X130673667Y-100672453D01*
X130668522Y-100672378D01*
X130664062Y-100672593D01*
X130660237Y-100673080D01*
X130656999Y-100673819D01*
X130654293Y-100674787D01*
X130652071Y-100675963D01*
X130650283Y-100677323D01*
X130648881Y-100678853D01*
X130647813Y-100680526D01*
X130647026Y-100682321D01*
X130646478Y-100684219D01*
X130645883Y-100688237D01*
X130645621Y-100692407D01*
X130645297Y-100696557D01*
X130644989Y-100698573D01*
X130644510Y-100700522D01*
X130643819Y-100702380D01*
X130642863Y-100704125D01*
X130641589Y-100705742D01*
X130639948Y-100707204D01*
X130637894Y-100708491D01*
X130635370Y-100709581D01*
X130632334Y-100710456D01*
X130628731Y-100711092D01*
X130621441Y-100712354D01*
X130611839Y-100714423D01*
X130587015Y-100720211D01*
X130556911Y-100726867D01*
X130540709Y-100730021D01*
X130524182Y-100732798D01*
X130507664Y-100735001D01*
X130491489Y-100736424D01*
X130475987Y-100736878D01*
X130468588Y-100736678D01*
X130461487Y-100736161D01*
X130454717Y-100735301D01*
X130448323Y-100734071D01*
X130442347Y-100732453D01*
X130436829Y-100730416D01*
X130431809Y-100727939D01*
X130427335Y-100724995D01*
X130423440Y-100721560D01*
X130420172Y-100717608D01*
X130418072Y-100712589D01*
X130418739Y-100707687D01*
X130422008Y-100702900D01*
X130427708Y-100698232D01*
X130435683Y-100693679D01*
X130445765Y-100689247D01*
X130471576Y-100680738D01*
X130503822Y-100672711D01*
X130541179Y-100665171D01*
X130582320Y-100658123D01*
X130625927Y-100651572D01*
X130904551Y-100617659D01*
X130983185Y-100601504D01*
X131061632Y-100583352D01*
X131139888Y-100563683D01*
X131217942Y-100542964D01*
X131373420Y-100500271D01*
X131450837Y-100479243D01*
X131528023Y-100459057D01*
X131809011Y-100391612D01*
X131679497Y-100436286D01*
G37*
D10*
G36*
X130535720Y-94767679D02*
G01*
X130549129Y-94769003D01*
X130562344Y-94771058D01*
X130575358Y-94773835D01*
X130588167Y-94777321D01*
X130600767Y-94781504D01*
X130613152Y-94786375D01*
X130625311Y-94791922D01*
X130637247Y-94798137D01*
X130655343Y-94808372D01*
X130672066Y-94818713D01*
X130687411Y-94829155D01*
X130701368Y-94839691D01*
X130713930Y-94850325D01*
X130725086Y-94861050D01*
X130734831Y-94871864D01*
X130743156Y-94882766D01*
X130750052Y-94893747D01*
X130755511Y-94904812D01*
X130757702Y-94910374D01*
X130759527Y-94915955D01*
X130760989Y-94921551D01*
X130762089Y-94927168D01*
X130762822Y-94932805D01*
X130763191Y-94938457D01*
X130763186Y-94944125D01*
X130762820Y-94949813D01*
X130762082Y-94955514D01*
X130760974Y-94961234D01*
X130759494Y-94966970D01*
X130757642Y-94972719D01*
X130755724Y-94977713D01*
X130753674Y-94982223D01*
X130752593Y-94984303D01*
X130751480Y-94986262D01*
X130750324Y-94988104D01*
X130749128Y-94989831D01*
X130747890Y-94991440D01*
X130746609Y-94992934D01*
X130745283Y-94994316D01*
X130743913Y-94995581D01*
X130742493Y-94996735D01*
X130741029Y-94997772D01*
X130739509Y-94998700D01*
X130737942Y-94999516D01*
X130736319Y-95000223D01*
X130734645Y-95000818D01*
X130732914Y-95001303D01*
X130731126Y-95001680D01*
X130729277Y-95001949D01*
X130727374Y-95002111D01*
X130725406Y-95002165D01*
X130723375Y-95002114D01*
X130721280Y-95001957D01*
X130719123Y-95001695D01*
X130716895Y-95001330D01*
X130714603Y-95000861D01*
X130709805Y-94999614D01*
X130704720Y-94997962D01*
X130701665Y-94996807D01*
X130698770Y-94995562D01*
X130696021Y-94994219D01*
X130693401Y-94992776D01*
X130690890Y-94991225D01*
X130688476Y-94989560D01*
X130686142Y-94987776D01*
X130683870Y-94985867D01*
X130681643Y-94983824D01*
X130679446Y-94981650D01*
X130677264Y-94979331D01*
X130675079Y-94976863D01*
X130672875Y-94974242D01*
X130670636Y-94971461D01*
X130665987Y-94965396D01*
X130664008Y-94970979D01*
X130662950Y-94968875D01*
X130661805Y-94966811D01*
X130659266Y-94962808D01*
X130656415Y-94958972D01*
X130653263Y-94955294D01*
X130649836Y-94951780D01*
X130646150Y-94948420D01*
X130642227Y-94945216D01*
X130638083Y-94942163D01*
X130633738Y-94939262D01*
X130629213Y-94936507D01*
X130624525Y-94933896D01*
X130619696Y-94931430D01*
X130614744Y-94929105D01*
X130609685Y-94926916D01*
X130604541Y-94924860D01*
X130599336Y-94922944D01*
X130591939Y-94920546D01*
X130584411Y-94918545D01*
X130576761Y-94916938D01*
X130568998Y-94915736D01*
X130561128Y-94914936D01*
X130553158Y-94914544D01*
X130545100Y-94914561D01*
X130536963Y-94914993D01*
X130528747Y-94915840D01*
X130520467Y-94917107D01*
X130512131Y-94918791D01*
X130503746Y-94920903D01*
X130495319Y-94923442D01*
X130486861Y-94926410D01*
X130478375Y-94929812D01*
X130469876Y-94933650D01*
X130462179Y-94939172D01*
X130454752Y-94944788D01*
X130447602Y-94950505D01*
X130440742Y-94956321D01*
X130434173Y-94962242D01*
X130427905Y-94968269D01*
X130421949Y-94974407D01*
X130416315Y-94980660D01*
X130411007Y-94987027D01*
X130406033Y-94993511D01*
X130401402Y-95000118D01*
X130397124Y-95006852D01*
X130393205Y-95013710D01*
X130389656Y-95020700D01*
X130386482Y-95027822D01*
X130383689Y-95035080D01*
X130378645Y-95050322D01*
X130374254Y-95065682D01*
X130370523Y-95081158D01*
X130367448Y-95096754D01*
X130365035Y-95112460D01*
X130363279Y-95128278D01*
X130362185Y-95144209D01*
X130361752Y-95160243D01*
X130361981Y-95176386D01*
X130362876Y-95192632D01*
X130366651Y-95225426D01*
X130373088Y-95258611D01*
X130382189Y-95292168D01*
X130393965Y-95326081D01*
X130408413Y-95360335D01*
X130425551Y-95394912D01*
X130445374Y-95429801D01*
X130467891Y-95464978D01*
X130493110Y-95500432D01*
X130521035Y-95536147D01*
X130551674Y-95572102D01*
X130579475Y-95603593D01*
X130607871Y-95633837D01*
X130636879Y-95662842D01*
X130666493Y-95690617D01*
X130696722Y-95717172D01*
X130727572Y-95742523D01*
X130759049Y-95766673D01*
X130791160Y-95789646D01*
X130823903Y-95811440D01*
X130857290Y-95832072D01*
X130891325Y-95851553D01*
X130926011Y-95869892D01*
X130961355Y-95887107D01*
X130997361Y-95903198D01*
X131034034Y-95918186D01*
X131071382Y-95932074D01*
X131090209Y-95938372D01*
X131108994Y-95943932D01*
X131127729Y-95948755D01*
X131146398Y-95952845D01*
X131164992Y-95956210D01*
X131183505Y-95958856D01*
X131201916Y-95960784D01*
X131220223Y-95962004D01*
X131238411Y-95962518D01*
X131256469Y-95962332D01*
X131274384Y-95961454D01*
X131292150Y-95959886D01*
X131309752Y-95957637D01*
X131327182Y-95954704D01*
X131344425Y-95951103D01*
X131361473Y-95946834D01*
X131380515Y-95941501D01*
X131398814Y-95935328D01*
X131416363Y-95928318D01*
X131433148Y-95920475D01*
X131449159Y-95911807D01*
X131464381Y-95902317D01*
X131478808Y-95892008D01*
X131485717Y-95886551D01*
X131492424Y-95880892D01*
X131498929Y-95875029D01*
X131505223Y-95868967D01*
X131511314Y-95862706D01*
X131517191Y-95856244D01*
X131522863Y-95849586D01*
X131528321Y-95842726D01*
X131533564Y-95835669D01*
X131538595Y-95828420D01*
X131543409Y-95820969D01*
X131548006Y-95813328D01*
X131552384Y-95805488D01*
X131556542Y-95797453D01*
X131564192Y-95780807D01*
X131570946Y-95763395D01*
X131581019Y-95732869D01*
X131589724Y-95702020D01*
X131597053Y-95670845D01*
X131602994Y-95639356D01*
X131607535Y-95607555D01*
X131610665Y-95575446D01*
X131612375Y-95543039D01*
X131612650Y-95510334D01*
X131611484Y-95477341D01*
X131608863Y-95444060D01*
X131604775Y-95410503D01*
X131599214Y-95376669D01*
X131592161Y-95342566D01*
X131583612Y-95308199D01*
X131573552Y-95273577D01*
X131561969Y-95238697D01*
X131560071Y-95234489D01*
X131558429Y-95230363D01*
X131557038Y-95226308D01*
X131555894Y-95222309D01*
X131554990Y-95218362D01*
X131554320Y-95214451D01*
X131553880Y-95210566D01*
X131553668Y-95206695D01*
X131553673Y-95202830D01*
X131553892Y-95198958D01*
X131554319Y-95195067D01*
X131554951Y-95191149D01*
X131555781Y-95187189D01*
X131556805Y-95183178D01*
X131558015Y-95179103D01*
X131559408Y-95174955D01*
X131560749Y-95171380D01*
X131562173Y-95167980D01*
X131563683Y-95164760D01*
X131565278Y-95161708D01*
X131566960Y-95158832D01*
X131568729Y-95156125D01*
X131570583Y-95153590D01*
X131572524Y-95151226D01*
X131574553Y-95149034D01*
X131576669Y-95147007D01*
X131578873Y-95145147D01*
X131581168Y-95143454D01*
X131583550Y-95141924D01*
X131586022Y-95140557D01*
X131588583Y-95139357D01*
X131591234Y-95138316D01*
X131593974Y-95137437D01*
X131596807Y-95136718D01*
X131599730Y-95136156D01*
X131602744Y-95135753D01*
X131605852Y-95135507D01*
X131609047Y-95135417D01*
X131612340Y-95135479D01*
X131615722Y-95135698D01*
X131619200Y-95136068D01*
X131622769Y-95136591D01*
X131626433Y-95137263D01*
X131630195Y-95138085D01*
X131637995Y-95140174D01*
X131646178Y-95142849D01*
X131651364Y-95144836D01*
X131656450Y-95147076D01*
X131661426Y-95149574D01*
X131666288Y-95152325D01*
X131671021Y-95155327D01*
X131675621Y-95158577D01*
X131680079Y-95162071D01*
X131684386Y-95165806D01*
X131688539Y-95169777D01*
X131692524Y-95173990D01*
X131696333Y-95178430D01*
X131699960Y-95183102D01*
X131703397Y-95188000D01*
X131706634Y-95193122D01*
X131709665Y-95198467D01*
X131712479Y-95204027D01*
X131732399Y-95241344D01*
X131749972Y-95279438D01*
X131765191Y-95318302D01*
X131778054Y-95357923D01*
X131788553Y-95398291D01*
X131796684Y-95439394D01*
X131802441Y-95481221D01*
X131805823Y-95523762D01*
X131806816Y-95567005D01*
X131805424Y-95610938D01*
X131801634Y-95655549D01*
X131795445Y-95700831D01*
X131786854Y-95746772D01*
X131775849Y-95793358D01*
X131762429Y-95840580D01*
X131746588Y-95888425D01*
X131736629Y-95914054D01*
X131725291Y-95938588D01*
X131712577Y-95962009D01*
X131698499Y-95984301D01*
X131683059Y-96005448D01*
X131666262Y-96025432D01*
X131648114Y-96044244D01*
X131628622Y-96061857D01*
X131607795Y-96078261D01*
X131585630Y-96093437D01*
X131562139Y-96107373D01*
X131537331Y-96120047D01*
X131511203Y-96131447D01*
X131483767Y-96141554D01*
X131455028Y-96150351D01*
X131424987Y-96157825D01*
X131400312Y-96163889D01*
X131375691Y-96168950D01*
X131351129Y-96173021D01*
X131326625Y-96176106D01*
X131302166Y-96178215D01*
X131277757Y-96179358D01*
X131253392Y-96179542D01*
X131229072Y-96178770D01*
X131204789Y-96177061D01*
X131180545Y-96174413D01*
X131156335Y-96170838D01*
X131132155Y-96166343D01*
X131108002Y-96160940D01*
X131083874Y-96154635D01*
X131059768Y-96147436D01*
X131035683Y-96139348D01*
X130984219Y-96119958D01*
X130934456Y-96098888D01*
X130886305Y-96076180D01*
X130839675Y-96051875D01*
X130794477Y-96026014D01*
X130750626Y-95998646D01*
X130708033Y-95969804D01*
X130666607Y-95939537D01*
X130647005Y-95925233D01*
X130627715Y-95910459D01*
X130608738Y-95895228D01*
X130590067Y-95879543D01*
X130571699Y-95863413D01*
X130553637Y-95846847D01*
X130535870Y-95829853D01*
X130518401Y-95812441D01*
X130501226Y-95794613D01*
X130484339Y-95776383D01*
X130451424Y-95738749D01*
X130419638Y-95699599D01*
X130388951Y-95658995D01*
X130358929Y-95614861D01*
X130331845Y-95570738D01*
X130307707Y-95526623D01*
X130286506Y-95482521D01*
X130268249Y-95438429D01*
X130252933Y-95394348D01*
X130240560Y-95350277D01*
X130231126Y-95306218D01*
X130224637Y-95262170D01*
X130221086Y-95218133D01*
X130220476Y-95174106D01*
X130222810Y-95130088D01*
X130228084Y-95086083D01*
X130236299Y-95042087D01*
X130247458Y-94998103D01*
X130261558Y-94954130D01*
X130267378Y-94938740D01*
X130273720Y-94923977D01*
X130280594Y-94909844D01*
X130288010Y-94896347D01*
X130295971Y-94883481D01*
X130304489Y-94871255D01*
X130313573Y-94859671D01*
X130323230Y-94848733D01*
X130333463Y-94838439D01*
X130344290Y-94828798D01*
X130355713Y-94819808D01*
X130367738Y-94811476D01*
X130380382Y-94803805D01*
X130393644Y-94796794D01*
X130407534Y-94790448D01*
X130422064Y-94784769D01*
X130436843Y-94779838D01*
X130451466Y-94775729D01*
X130465933Y-94772429D01*
X130480238Y-94769927D01*
X130494372Y-94768213D01*
X130508334Y-94767273D01*
X130522121Y-94767101D01*
X130535720Y-94767679D01*
G37*
D11*
X131438747Y-100718251D02*
X130863542Y-101050246D01*
X130831471Y-101074060D01*
X130779086Y-101110782D01*
X130713788Y-101154605D01*
X130642968Y-101199720D01*
X130574022Y-101240323D01*
X130542564Y-101257117D01*
X130514350Y-101270603D01*
X130490300Y-101280063D01*
X130471344Y-101284761D01*
X130464064Y-101285099D01*
X130458404Y-101283978D01*
X130454480Y-101281302D01*
X130452404Y-101276984D01*
X130451560Y-101271003D01*
X130451559Y-101265042D01*
X130452358Y-101259108D01*
X130453905Y-101253201D01*
X130456151Y-101247340D01*
X130459051Y-101241527D01*
X130462554Y-101235766D01*
X130466610Y-101230069D01*
X130471172Y-101224443D01*
X130476188Y-101218900D01*
X130487399Y-101208076D01*
X130499848Y-101197658D01*
X130513153Y-101187713D01*
X130526918Y-101178294D01*
X130540755Y-101169468D01*
X130567089Y-101153845D01*
X130589037Y-101141325D01*
X130597390Y-101136386D01*
X130603476Y-101132403D01*
X130606645Y-101130370D01*
X130609583Y-101128973D01*
X130612312Y-101128160D01*
X130614854Y-101127871D01*
X130617226Y-101128053D01*
X130619445Y-101128643D01*
X130621534Y-101129593D01*
X130623510Y-101130843D01*
X130625395Y-101132335D01*
X130627204Y-101134010D01*
X130630682Y-101137693D01*
X130634097Y-101141444D01*
X130637608Y-101144805D01*
X130639446Y-101146199D01*
X130641365Y-101147325D01*
X130643384Y-101148128D01*
X130645525Y-101148550D01*
X130647805Y-101148537D01*
X130650240Y-101148031D01*
X130652858Y-101146974D01*
X130655672Y-101145311D01*
X130658701Y-101142983D01*
X130661969Y-101139936D01*
X130665490Y-101136116D01*
X130669288Y-101131459D01*
X130673378Y-101125916D01*
X130677782Y-101119426D01*
X130682519Y-101111931D01*
X130687610Y-101103381D01*
X130689990Y-101099472D01*
X130692499Y-101095742D01*
X130695130Y-101092184D01*
X130697880Y-101088784D01*
X130700739Y-101085537D01*
X130703702Y-101082440D01*
X130709922Y-101076644D01*
X130716494Y-101071333D01*
X130723376Y-101066449D01*
X130730523Y-101061920D01*
X130737887Y-101057686D01*
X130745425Y-101053685D01*
X130753095Y-101049848D01*
X130768638Y-101042424D01*
X130784162Y-101034901D01*
X130791804Y-101030944D01*
X130799307Y-101026771D01*
X131102172Y-100836485D01*
X131143561Y-100812517D01*
X131184973Y-100789910D01*
X131226183Y-100769085D01*
X131266959Y-100750467D01*
X131307081Y-100734471D01*
X131346316Y-100721520D01*
X131384436Y-100712031D01*
X131421216Y-100706435D01*
X131430442Y-100705253D01*
X131439724Y-100703524D01*
X131449056Y-100701277D01*
X131458434Y-100698544D01*
X131472301Y-100693561D01*
X131438747Y-100718251D01*
G36*
X131438747Y-100718251D02*
G01*
X130863542Y-101050246D01*
X130831471Y-101074060D01*
X130779086Y-101110782D01*
X130713788Y-101154605D01*
X130642968Y-101199720D01*
X130574022Y-101240323D01*
X130542564Y-101257117D01*
X130514350Y-101270603D01*
X130490300Y-101280063D01*
X130471344Y-101284761D01*
X130464064Y-101285099D01*
X130458404Y-101283978D01*
X130454480Y-101281302D01*
X130452404Y-101276984D01*
X130451560Y-101271003D01*
X130451559Y-101265042D01*
X130452358Y-101259108D01*
X130453905Y-101253201D01*
X130456151Y-101247340D01*
X130459051Y-101241527D01*
X130462554Y-101235766D01*
X130466610Y-101230069D01*
X130471172Y-101224443D01*
X130476188Y-101218900D01*
X130487399Y-101208076D01*
X130499848Y-101197658D01*
X130513153Y-101187713D01*
X130526918Y-101178294D01*
X130540755Y-101169468D01*
X130567089Y-101153845D01*
X130589037Y-101141325D01*
X130597390Y-101136386D01*
X130603476Y-101132403D01*
X130606645Y-101130370D01*
X130609583Y-101128973D01*
X130612312Y-101128160D01*
X130614854Y-101127871D01*
X130617226Y-101128053D01*
X130619445Y-101128643D01*
X130621534Y-101129593D01*
X130623510Y-101130843D01*
X130625395Y-101132335D01*
X130627204Y-101134010D01*
X130630682Y-101137693D01*
X130634097Y-101141444D01*
X130637608Y-101144805D01*
X130639446Y-101146199D01*
X130641365Y-101147325D01*
X130643384Y-101148128D01*
X130645525Y-101148550D01*
X130647805Y-101148537D01*
X130650240Y-101148031D01*
X130652858Y-101146974D01*
X130655672Y-101145311D01*
X130658701Y-101142983D01*
X130661969Y-101139936D01*
X130665490Y-101136116D01*
X130669288Y-101131459D01*
X130673378Y-101125916D01*
X130677782Y-101119426D01*
X130682519Y-101111931D01*
X130687610Y-101103381D01*
X130689990Y-101099472D01*
X130692499Y-101095742D01*
X130695130Y-101092184D01*
X130697880Y-101088784D01*
X130700739Y-101085537D01*
X130703702Y-101082440D01*
X130709922Y-101076644D01*
X130716494Y-101071333D01*
X130723376Y-101066449D01*
X130730523Y-101061920D01*
X130737887Y-101057686D01*
X130745425Y-101053685D01*
X130753095Y-101049848D01*
X130768638Y-101042424D01*
X130784162Y-101034901D01*
X130791804Y-101030944D01*
X130799307Y-101026771D01*
X131102172Y-100836485D01*
X131143561Y-100812517D01*
X131184973Y-100789910D01*
X131226183Y-100769085D01*
X131266959Y-100750467D01*
X131307081Y-100734471D01*
X131346316Y-100721520D01*
X131384436Y-100712031D01*
X131421216Y-100706435D01*
X131430442Y-100705253D01*
X131439724Y-100703524D01*
X131449056Y-100701277D01*
X131458434Y-100698544D01*
X131472301Y-100693561D01*
X131438747Y-100718251D01*
G37*
D13*
G36*
X146188603Y-74153974D02*
G01*
X146246818Y-74172817D01*
X146299876Y-74203115D01*
X146346408Y-74244013D01*
X146384552Y-74293707D01*
X146413941Y-74352518D01*
X146432214Y-74416989D01*
X146438488Y-74488501D01*
X146432197Y-74559480D01*
X146413941Y-74622895D01*
X146384609Y-74680430D01*
X146346591Y-74728958D01*
X146300275Y-74768685D01*
X146247184Y-74798262D01*
X146188956Y-74816541D01*
X146125552Y-74822747D01*
X146059303Y-74816353D01*
X146001293Y-74797895D01*
X145949634Y-74767803D01*
X145906099Y-74727370D01*
X145897001Y-74714460D01*
X145897001Y-75040062D01*
X145893521Y-75073829D01*
X145887017Y-75086614D01*
X145875813Y-75096055D01*
X145860435Y-75101523D01*
X145835086Y-75103748D01*
X145809998Y-75101531D01*
X145794602Y-75096055D01*
X145783357Y-75086733D01*
X145776773Y-75074500D01*
X145772437Y-75041466D01*
X145772437Y-74485997D01*
X145900176Y-74485997D01*
X145907287Y-74547726D01*
X145927837Y-74600852D01*
X145960564Y-74645909D01*
X146002575Y-74679437D01*
X146052030Y-74700450D01*
X146107722Y-74707586D01*
X146164657Y-74700412D01*
X146214456Y-74679437D01*
X146256617Y-74645895D01*
X146289377Y-74600852D01*
X146309927Y-74547726D01*
X146317038Y-74485997D01*
X146309905Y-74423248D01*
X146289561Y-74370898D01*
X146256983Y-74326821D01*
X146214822Y-74294022D01*
X146165064Y-74273558D01*
X146108088Y-74266545D01*
X146052056Y-74273702D01*
X146002392Y-74294755D01*
X145960189Y-74328054D01*
X145927654Y-74372119D01*
X145907286Y-74424179D01*
X145900176Y-74485997D01*
X145772437Y-74485997D01*
X145772437Y-74214094D01*
X145776284Y-74179961D01*
X145782417Y-74167698D01*
X145793442Y-74158223D01*
X145808689Y-74152617D01*
X145833681Y-74150346D01*
X145861488Y-74153257D01*
X145878622Y-74160543D01*
X145890255Y-74173594D01*
X145897001Y-74195531D01*
X145897001Y-74257245D01*
X145907137Y-74242975D01*
X145950596Y-74202741D01*
X146002026Y-74172633D01*
X146059683Y-74154038D01*
X146125552Y-74147599D01*
X146188603Y-74153974D01*
G37*
G36*
X146654215Y-74829036D02*
G01*
X146629846Y-74826787D01*
X146614526Y-74821159D01*
X146603374Y-74811621D01*
X146597184Y-74799116D01*
X146593338Y-74765655D01*
X146593338Y-74212689D01*
X146597368Y-74179411D01*
X146603692Y-74167161D01*
X146614831Y-74158101D01*
X146630237Y-74152853D01*
X146655620Y-74150713D01*
X146680914Y-74153011D01*
X146695736Y-74158590D01*
X146706335Y-74168064D01*
X146712528Y-74180632D01*
X146716558Y-74215498D01*
X146716558Y-74767060D01*
X146712528Y-74800521D01*
X146706206Y-74812896D01*
X146695187Y-74821831D01*
X146679912Y-74826934D01*
X146654215Y-74829036D01*
G37*
G36*
X146654215Y-73982368D02*
G01*
X146625987Y-73979800D01*
X146608725Y-73973453D01*
X146596226Y-73962573D01*
X146588758Y-73947747D01*
X146583873Y-73908546D01*
X146588941Y-73870200D01*
X146596585Y-73856572D01*
X146609641Y-73846386D01*
X146627269Y-73840514D01*
X146655620Y-73838143D01*
X146683862Y-73840737D01*
X146700927Y-73847119D01*
X146713389Y-73857908D01*
X146720893Y-73872337D01*
X146726023Y-73912026D01*
X146720893Y-73949701D01*
X146713369Y-73963942D01*
X146700927Y-73974186D01*
X146683768Y-73979964D01*
X146654215Y-73982368D01*
G37*
G36*
X147421443Y-74160177D02*
G01*
X147439647Y-74176940D01*
X147448920Y-74189914D01*
X147452636Y-74203600D01*
X147450142Y-74218795D01*
X147441957Y-74234698D01*
X147424618Y-74257447D01*
X146982172Y-74801742D01*
X146963551Y-74821022D01*
X146949627Y-74831112D01*
X146935606Y-74835813D01*
X146922516Y-74834409D01*
X146891925Y-74816397D01*
X146866890Y-74787210D01*
X146863472Y-74774024D01*
X146866890Y-74758694D01*
X146891925Y-74720531D01*
X147334309Y-74175931D01*
X147361809Y-74149811D01*
X147378395Y-74141676D01*
X147395314Y-74143866D01*
X147421443Y-74160177D01*
G37*
G36*
X146894001Y-74160177D02*
G01*
X146925325Y-74142531D01*
X146938163Y-74141727D01*
X146951031Y-74146866D01*
X146981134Y-74175931D01*
X147423580Y-74720531D01*
X147440817Y-74742922D01*
X147449470Y-74758877D01*
X147452645Y-74774060D01*
X147449592Y-74787210D01*
X147441053Y-74799727D01*
X147423580Y-74816397D01*
X147393111Y-74834593D01*
X147380204Y-74835863D01*
X147366305Y-74831112D01*
X147333271Y-74801742D01*
X146890825Y-74257447D01*
X146866157Y-74218612D01*
X146863294Y-74202905D01*
X146866890Y-74189059D01*
X146876165Y-74176088D01*
X146894001Y-74160177D01*
G37*
G36*
X147946257Y-74154280D02*
G01*
X148003962Y-74170313D01*
X148055853Y-74195989D01*
X148098301Y-74228077D01*
X148133032Y-74266655D01*
X148158140Y-74308921D01*
X148173872Y-74354318D01*
X148178962Y-74398863D01*
X148174516Y-74445253D01*
X148162893Y-74477386D01*
X148145501Y-74499125D01*
X148121834Y-74515005D01*
X148094696Y-74524653D01*
X148063130Y-74528007D01*
X147657809Y-74528007D01*
X147661390Y-74567658D01*
X147672614Y-74602373D01*
X147691392Y-74633214D01*
X147730046Y-74671965D01*
X147778038Y-74700931D01*
X147831180Y-74718884D01*
X147884283Y-74724744D01*
X147950961Y-74720714D01*
X148000115Y-74709540D01*
X148035958Y-74695191D01*
X148063619Y-74681330D01*
X148087249Y-74671499D01*
X148110880Y-74674186D01*
X148121559Y-74680911D01*
X148130297Y-74692504D01*
X148141166Y-74714242D01*
X148144341Y-74734881D01*
X148137496Y-74753511D01*
X148110513Y-74778111D01*
X148072875Y-74798676D01*
X148017579Y-74818167D01*
X147956102Y-74830528D01*
X147882512Y-74834959D01*
X147801487Y-74827810D01*
X147732486Y-74807482D01*
X147671199Y-74774410D01*
X147621234Y-74731522D01*
X147581298Y-74679474D01*
X147551747Y-74619720D01*
X147533764Y-74554619D01*
X147527628Y-74483555D01*
X147530815Y-74444720D01*
X147657809Y-74444720D01*
X148009946Y-74444720D01*
X148034170Y-74442766D01*
X148049636Y-74437881D01*
X148059283Y-74426903D01*
X148063435Y-74400634D01*
X148057425Y-74363336D01*
X148039255Y-74329437D01*
X148011367Y-74300952D01*
X147973859Y-74277963D01*
X147930461Y-74263596D01*
X147879032Y-74258546D01*
X147820070Y-74264737D01*
X147767169Y-74282848D01*
X147721149Y-74312033D01*
X147686691Y-74349526D01*
X147670353Y-74378894D01*
X147660767Y-74410392D01*
X147657809Y-74444720D01*
X147530815Y-74444720D01*
X147532771Y-74420887D01*
X147547755Y-74364096D01*
X147572385Y-74312096D01*
X147606011Y-74265303D01*
X147647180Y-74225617D01*
X147696644Y-74192539D01*
X147751174Y-74168496D01*
X147811462Y-74153735D01*
X147878666Y-74148637D01*
X147946257Y-74154280D01*
G37*
G36*
X148531344Y-74829036D02*
G01*
X148487076Y-74827000D01*
X148450072Y-74821342D01*
X148416156Y-74811133D01*
X148388156Y-74796857D01*
X148364186Y-74777588D01*
X148344559Y-74753260D01*
X148329859Y-74724469D01*
X148319035Y-74688474D01*
X148312989Y-74648983D01*
X148310792Y-74600791D01*
X148310792Y-73899753D01*
X148314822Y-73865132D01*
X148321138Y-73852775D01*
X148332347Y-73843272D01*
X148347667Y-73837644D01*
X148372036Y-73835395D01*
X148397445Y-73837527D01*
X148412642Y-73842722D01*
X148423815Y-73851709D01*
X148430471Y-73863727D01*
X148435051Y-73896944D01*
X148435051Y-74599081D01*
X148440485Y-74647747D01*
X148447704Y-74666647D01*
X148457826Y-74681513D01*
X148471185Y-74693006D01*
X148487929Y-74700931D01*
X148530611Y-74706854D01*
X148559676Y-74710700D01*
X148570107Y-74716665D01*
X148578360Y-74727553D01*
X148583207Y-74742355D01*
X148585199Y-74767060D01*
X148583210Y-74792485D01*
X148578360Y-74807848D01*
X148570040Y-74819126D01*
X148559493Y-74825189D01*
X148531344Y-74829036D01*
G37*
G36*
X148937031Y-74835325D02*
G01*
X148866323Y-74828303D01*
X148795614Y-74808031D01*
X148763073Y-74793276D01*
X148735408Y-74776707D01*
X148712273Y-74756994D01*
X148697612Y-74736285D01*
X148688697Y-74710517D01*
X148692544Y-74687253D01*
X148709519Y-74664539D01*
X148724276Y-74652090D01*
X148737301Y-74648785D01*
X148751399Y-74652670D01*
X148772533Y-74666981D01*
X148808926Y-74689024D01*
X148852279Y-74710212D01*
X148898318Y-74725599D01*
X148943687Y-74731400D01*
X149003982Y-74724859D01*
X149047062Y-74707403D01*
X149069210Y-74688898D01*
X149081807Y-74667393D01*
X149086080Y-74641763D01*
X149083576Y-74620109D01*
X149076433Y-74602073D01*
X149065157Y-74586485D01*
X149050237Y-74573375D01*
X149012075Y-74552675D01*
X148965180Y-74536616D01*
X148913584Y-74522084D01*
X148839517Y-74499308D01*
X148804426Y-74484356D01*
X148773694Y-74466091D01*
X148747383Y-74443023D01*
X148726616Y-74414251D01*
X148713580Y-74380020D01*
X148708786Y-74334444D01*
X148712165Y-74296639D01*
X148721873Y-74263711D01*
X148737668Y-74234732D01*
X148771936Y-74198275D01*
X148819733Y-74170008D01*
X148876012Y-74152981D01*
X148945396Y-74146866D01*
X149002427Y-74151262D01*
X149053901Y-74164390D01*
X149100796Y-74185395D01*
X149143172Y-74214094D01*
X149163474Y-74232917D01*
X149170100Y-74250669D01*
X149167420Y-74269716D01*
X149155384Y-74291397D01*
X149140829Y-74305974D01*
X149126869Y-74313501D01*
X149112208Y-74314382D01*
X149095911Y-74306845D01*
X149048467Y-74276925D01*
X148996626Y-74255371D01*
X148969519Y-74249056D01*
X148941549Y-74246944D01*
X148908141Y-74249777D01*
X148879756Y-74257813D01*
X148855351Y-74271283D01*
X148838113Y-74288649D01*
X148827271Y-74309959D01*
X148823580Y-74334811D01*
X148826589Y-74355082D01*
X148835121Y-74370898D01*
X148848299Y-74383891D01*
X148865773Y-74395078D01*
X148910592Y-74412175D01*
X148964997Y-74426890D01*
X149047734Y-74449605D01*
X149088409Y-74464943D01*
X149124732Y-74484471D01*
X149156221Y-74509807D01*
X149181274Y-74542417D01*
X149197124Y-74581956D01*
X149203011Y-74636145D01*
X149198278Y-74680865D01*
X149184666Y-74719289D01*
X149162273Y-74752775D01*
X149130166Y-74782142D01*
X149079057Y-74810592D01*
X149015694Y-74828766D01*
X148937031Y-74835325D01*
G37*
D14*
%TO.C,U2*%
X134590000Y-52278818D03*
D15*
X135140001Y-52278818D03*
D14*
X135689997Y-52278818D03*
D16*
X135889999Y-53228819D03*
X135390001Y-53228819D03*
X134889999Y-53228819D03*
X134390000Y-53228819D03*
X134390000Y-51328817D03*
X134889999Y-51328817D03*
X135390001Y-51328817D03*
X135889999Y-51328817D03*
%TD*%
D17*
%TO.C,RN2*%
X146330000Y-123234321D03*
X147330000Y-123234321D03*
X147330000Y-121434321D03*
X146330000Y-121434321D03*
%TD*%
D18*
%TO.C,BT1*%
X132410000Y-55244321D03*
X133660000Y-55244321D03*
D19*
X129860000Y-58144321D03*
X136210000Y-58144321D03*
%TD*%
D20*
%TO.C,C7*%
X143805000Y-59870304D03*
X145355000Y-59870304D03*
%TD*%
D21*
%TO.C,C22*%
X134700000Y-79359321D03*
X134700000Y-80909321D03*
%TD*%
%TO.C,C49*%
X143580000Y-125224321D03*
X143580000Y-126774321D03*
%TD*%
D22*
%TO.C,C8*%
X157430000Y-62729321D03*
X157430000Y-61179321D03*
%TD*%
D23*
%TO.C,R11*%
X135405000Y-69414321D03*
X133755000Y-69414321D03*
%TD*%
D24*
%TO.C,J8*%
X160767304Y-57770199D03*
X160297835Y-56887250D03*
X159828364Y-56004304D03*
X159358891Y-55121356D03*
D25*
X164799041Y-57098828D03*
X162170000Y-52154321D03*
%TD*%
D26*
%TO.C,U4*%
X157250000Y-64334321D03*
X156300000Y-64334321D03*
X155350000Y-64334321D03*
X155350000Y-66934321D03*
X156300000Y-66934321D03*
X157250000Y-66934321D03*
%TD*%
D27*
%TO.C,D20*%
X167050000Y-45724321D03*
X167050000Y-46624321D03*
X167950000Y-46624321D03*
X167950000Y-45724321D03*
%TD*%
D28*
%TO.C,L2*%
X140400000Y-133061821D03*
X140400000Y-131486821D03*
%TD*%
D29*
%TO.C,RN5*%
X137690000Y-116694321D03*
X136690000Y-116694321D03*
X136690000Y-118494321D03*
X137690000Y-118494321D03*
%TD*%
D30*
%TO.C,R7*%
X136240000Y-50009321D03*
X136240000Y-48359321D03*
%TD*%
D31*
%TO.C,LED1*%
X149000000Y-70794321D03*
X146000000Y-70794321D03*
X149000000Y-71894321D03*
X146000000Y-71894321D03*
%TD*%
D21*
%TO.C,C18*%
X138880000Y-131499321D03*
X138880000Y-133049321D03*
%TD*%
D32*
%TO.C,C13*%
X164500000Y-69496821D03*
X164500000Y-72571821D03*
%TD*%
D33*
%TO.C,D13*%
X161620750Y-125805071D03*
X161620750Y-125155071D03*
X161620750Y-124505071D03*
X159420750Y-124505071D03*
X159420750Y-125155071D03*
X159420750Y-125805071D03*
%TD*%
D21*
%TO.C,C19*%
X138880000Y-134519321D03*
X138880000Y-136069321D03*
%TD*%
D22*
%TO.C,C45*%
X140050000Y-67109321D03*
X140050000Y-65559321D03*
%TD*%
D20*
%TO.C,C4*%
X140495000Y-54084321D03*
X142045000Y-54084321D03*
%TD*%
D30*
%TO.C,R5*%
X132830000Y-137209321D03*
X132830000Y-135559321D03*
%TD*%
D34*
%TO.C,TP5*%
X135380000Y-107114321D03*
%TD*%
D35*
%TO.C,JP5*%
X147630000Y-95994321D03*
D36*
X146330000Y-95994321D03*
%TD*%
D30*
%TO.C,R15*%
X132660000Y-53094321D03*
X132660000Y-51444321D03*
%TD*%
D37*
%TO.C,FB3*%
X144840000Y-90144142D03*
X144840000Y-91719142D03*
%TD*%
D20*
%TO.C,C5*%
X140490000Y-57234321D03*
X142040000Y-57234321D03*
%TD*%
D38*
%TO.C,D16*%
X131350000Y-133501642D03*
X131350000Y-134401642D03*
X132250000Y-134401642D03*
X132250000Y-133501642D03*
%TD*%
D20*
%TO.C,C21*%
X159670000Y-133954321D03*
X161220000Y-133954321D03*
%TD*%
D39*
%TO.C,U3*%
X140912500Y-61344321D03*
X140262500Y-61344321D03*
X139612500Y-61344321D03*
X139612500Y-63544321D03*
X140262500Y-63544321D03*
X140912500Y-63544321D03*
%TD*%
D30*
%TO.C,R16*%
X141590000Y-67159321D03*
X141590000Y-65509321D03*
%TD*%
D27*
%TO.C,D15*%
X133550000Y-109301642D03*
X133550000Y-110201642D03*
X134450000Y-110201642D03*
X134450000Y-109301642D03*
%TD*%
D40*
%TO.C,JP2*%
X149700000Y-63954321D03*
D41*
X149700000Y-65254321D03*
%TD*%
D42*
%TO.C,D9*%
X148800000Y-54154321D03*
X146200000Y-54154321D03*
%TD*%
D38*
%TO.C,D19*%
X159850000Y-82184321D03*
X159850000Y-83084321D03*
X160750000Y-83084321D03*
X160750000Y-82184321D03*
%TD*%
D43*
%TO.C,R12*%
X137875000Y-50134321D03*
X139525000Y-50134321D03*
%TD*%
D44*
%TO.C,U7*%
X135580000Y-104964321D03*
X135580000Y-104314321D03*
X135580000Y-103664321D03*
X133380000Y-103664321D03*
X133380000Y-104964321D03*
%TD*%
D45*
%TO.C,RN7*%
X151990000Y-93264321D03*
D46*
X151190000Y-93264321D03*
X150390000Y-93264321D03*
D45*
X149590000Y-93264321D03*
X149590000Y-95064321D03*
D46*
X150390000Y-95064321D03*
X151190000Y-95064321D03*
D45*
X151990000Y-95064321D03*
%TD*%
D47*
%TO.C,D12*%
X157275750Y-51641054D03*
X157275750Y-50991054D03*
X157275750Y-50341054D03*
X155075750Y-50341054D03*
X155075750Y-50991054D03*
X155075750Y-51641054D03*
%TD*%
D48*
%TO.C,C3*%
X144845000Y-93341642D03*
X143295000Y-93341642D03*
%TD*%
D21*
%TO.C,C1*%
X147740000Y-86799321D03*
X147740000Y-88349321D03*
%TD*%
D27*
%TO.C,D18*%
X160550000Y-109301642D03*
X160550000Y-110201642D03*
X161450000Y-110201642D03*
X161450000Y-109301642D03*
%TD*%
D39*
%TO.C,U6*%
X143802500Y-61344321D03*
X143152500Y-61344321D03*
X142502500Y-61344321D03*
X142502500Y-63544321D03*
X143152500Y-63544321D03*
X143802500Y-63544321D03*
%TD*%
D21*
%TO.C,C14*%
X131960000Y-106519321D03*
X131960000Y-108069321D03*
%TD*%
%TO.C,C23*%
X160300000Y-79359321D03*
X160300000Y-80909321D03*
%TD*%
D49*
%TO.C,J4*%
X150390000Y-49699321D03*
X144610000Y-49699321D03*
D50*
X150700000Y-50824321D03*
X149900000Y-50824321D03*
D51*
X148750000Y-50824321D03*
X147750000Y-50824321D03*
X147250000Y-50824321D03*
X146250000Y-50824321D03*
D50*
X145100000Y-50824321D03*
X144300000Y-50824321D03*
X144300000Y-50824321D03*
X145100000Y-50824321D03*
D51*
X145750000Y-50824321D03*
X146750000Y-50824321D03*
X148250000Y-50824321D03*
X149250000Y-50824321D03*
D50*
X149900000Y-50824321D03*
X150700000Y-50824321D03*
D52*
X151820000Y-50199321D03*
D53*
X151820000Y-46019321D03*
D52*
X143180000Y-50199321D03*
D53*
X143180000Y-46019321D03*
%TD*%
D54*
%TO.C,R13*%
X154940000Y-70639321D03*
X154940000Y-72289321D03*
%TD*%
%TO.C,R14*%
X138890000Y-58279321D03*
X138890000Y-59929321D03*
%TD*%
D30*
%TO.C,R21*%
X142080000Y-126829321D03*
X142080000Y-125179321D03*
%TD*%
D48*
%TO.C,C20*%
X135125000Y-133934321D03*
X133575000Y-133934321D03*
%TD*%
D38*
%TO.C,D17*%
X162750000Y-133501642D03*
X162750000Y-134401642D03*
X163650000Y-134401642D03*
X163650000Y-133501642D03*
%TD*%
D55*
%TO.C,U1*%
X138580000Y-65719321D03*
X138080000Y-65719321D03*
X137580000Y-65719321D03*
X137080000Y-65719321D03*
X137080000Y-67019321D03*
X137580000Y-67019321D03*
X138080000Y-67019321D03*
X138580000Y-67019321D03*
%TD*%
D56*
%TO.C,J6*%
X149750000Y-84264321D03*
X149250000Y-84264321D03*
X148750000Y-84264321D03*
X148250000Y-84264321D03*
X147750000Y-84264321D03*
X147250000Y-84264321D03*
X146750000Y-84264321D03*
X146250000Y-84264321D03*
X145750000Y-84264321D03*
X145250000Y-84264321D03*
D57*
X151650000Y-81014321D03*
X143350000Y-81014321D03*
%TD*%
D20*
%TO.C,C47*%
X137345000Y-53174321D03*
X138895000Y-53174321D03*
%TD*%
D22*
%TO.C,C16*%
X132660000Y-50019321D03*
X132660000Y-48469321D03*
%TD*%
D21*
%TO.C,C2*%
X143180000Y-90136642D03*
X143180000Y-91686642D03*
%TD*%
D58*
%TO.C,D10*%
X146400000Y-56004321D03*
X146400000Y-56654321D03*
X146400000Y-57304321D03*
X148600000Y-57304321D03*
X148600000Y-56654321D03*
X148600000Y-56004321D03*
%TD*%
D54*
%TO.C,R9*%
X137130000Y-131569321D03*
X137130000Y-129919321D03*
%TD*%
%TO.C,R6*%
X162170000Y-135559321D03*
X162170000Y-137209321D03*
%TD*%
D59*
%TO.C,RN6*%
X146300000Y-69014321D03*
D60*
X147100000Y-69014321D03*
X147900000Y-69014321D03*
D59*
X148700000Y-69014321D03*
X148700000Y-67214321D03*
D60*
X147900000Y-67214321D03*
X147100000Y-67214321D03*
D59*
X146300000Y-67214321D03*
%TD*%
D61*
%TO.C,FB4*%
X144827500Y-88324321D03*
X143252500Y-88324321D03*
%TD*%
D62*
%TO.C,RN4*%
X155660000Y-55424321D03*
X155660000Y-56124321D03*
X156660000Y-56124321D03*
X156660000Y-55424321D03*
%TD*%
D63*
%TO.C,SW3*%
X135362678Y-136938807D03*
X139182552Y-138801884D03*
X134617448Y-138466758D03*
X138437322Y-140329835D03*
%TD*%
D20*
%TO.C,C17*%
X161230000Y-49614321D03*
X162780000Y-49614321D03*
%TD*%
D21*
%TO.C,C15*%
X133550000Y-106529321D03*
X133550000Y-108079321D03*
%TD*%
D48*
%TO.C,C44*%
X138090000Y-64024321D03*
X136540000Y-64024321D03*
%TD*%
%TO.C,C46*%
X138895000Y-51644321D03*
X137345000Y-51644321D03*
%TD*%
D64*
%TO.C,MDBT1*%
X151550000Y-138874321D03*
X151550000Y-137899321D03*
X150600000Y-137524321D03*
X151550000Y-137149321D03*
X150600000Y-136774321D03*
X151550000Y-136399321D03*
X150600000Y-136024321D03*
X151550000Y-135649321D03*
X150600000Y-135274321D03*
X151550000Y-134899321D03*
X150600000Y-134524321D03*
X151550000Y-134149321D03*
X150600000Y-133774321D03*
X151550000Y-133399321D03*
X150600000Y-133024321D03*
X151550000Y-132649321D03*
X150600000Y-132274321D03*
X151550000Y-131899321D03*
X150600000Y-131524321D03*
X151550000Y-131149321D03*
X150600000Y-130774321D03*
X151550000Y-130399321D03*
X150600000Y-130024321D03*
D65*
X151625000Y-129074321D03*
X150875000Y-129074321D03*
X150125000Y-129074321D03*
X149750000Y-130024321D03*
X149375000Y-129074321D03*
X149000000Y-130024321D03*
X148625000Y-129074321D03*
X148250000Y-130024321D03*
X147875000Y-129074321D03*
X147500000Y-130024321D03*
X147125000Y-129074321D03*
X146750000Y-130024321D03*
X146375000Y-129074321D03*
X146000000Y-130024321D03*
X145625000Y-129074321D03*
X145250000Y-130024321D03*
X144875000Y-129074321D03*
X144125000Y-129074321D03*
X143375000Y-129074321D03*
D64*
X144400000Y-130024321D03*
X143450000Y-130399321D03*
X144400000Y-130774321D03*
X143450000Y-131149321D03*
X144400000Y-131524321D03*
X143450000Y-131899321D03*
X144400000Y-132274321D03*
X143450000Y-132649321D03*
X144400000Y-133024321D03*
X143450000Y-133399321D03*
X144400000Y-133774321D03*
X143450000Y-134149321D03*
X144400000Y-134524321D03*
X143450000Y-134899321D03*
X144400000Y-135274321D03*
X143450000Y-135649321D03*
X144400000Y-136024321D03*
X143450000Y-136399321D03*
X143450000Y-138874321D03*
D65*
X149875000Y-136924321D03*
X149225000Y-136924321D03*
X148475000Y-136924321D03*
X147725000Y-136924321D03*
%TD*%
D66*
%TO.C,L1*%
X137015000Y-69314321D03*
X139165000Y-69314321D03*
%TD*%
D20*
%TO.C,C6*%
X140495000Y-59874321D03*
X142045000Y-59874321D03*
%TD*%
D54*
%TO.C,R3*%
X141400000Y-51009321D03*
X141400000Y-52659321D03*
%TD*%
D67*
%TO.C,SW1*%
X155817447Y-138801885D03*
X159637322Y-136938807D03*
X156562678Y-140329835D03*
X160382553Y-138466757D03*
%TD*%
D21*
%TO.C,C9*%
X153760000Y-65444321D03*
X153760000Y-66994321D03*
%TD*%
D54*
%TO.C,R4*%
X153650000Y-48309321D03*
X153650000Y-49959321D03*
%TD*%
%TO.C,R10*%
X137130000Y-134569321D03*
X137130000Y-132919321D03*
%TD*%
D68*
%TO.C,FB1*%
X144160000Y-54094321D03*
X144160000Y-57244321D03*
%TD*%
D48*
%TO.C,C48*%
X143595000Y-123734321D03*
X142045000Y-123734321D03*
%TD*%
D17*
%TO.C,RN1*%
X157480000Y-129184321D03*
X158480000Y-129184321D03*
X158480000Y-127384321D03*
X157480000Y-127384321D03*
%TD*%
D69*
%TO.C,Y1*%
X145500000Y-126797942D03*
X148000000Y-126797942D03*
%TD*%
D38*
%TO.C,D22*%
X134250000Y-82184321D03*
X134250000Y-83084321D03*
X135150000Y-83084321D03*
X135150000Y-82184321D03*
%TD*%
D37*
%TO.C,L3*%
X140400000Y-134506821D03*
X140400000Y-136081821D03*
%TD*%
D21*
%TO.C,C12*%
X157440000Y-57769321D03*
X157440000Y-59319321D03*
%TD*%
D70*
%TO.C,J2*%
X158360000Y-69564320D03*
X159360001Y-69564321D03*
X160360000Y-69564321D03*
D71*
X157059999Y-73439321D03*
X161660000Y-73439321D03*
%TD*%
D22*
%TO.C,C11*%
X160550000Y-108079321D03*
X160550000Y-106529321D03*
%TD*%
D72*
%TO.C,FB2*%
X138125000Y-47934321D03*
X141275000Y-47934321D03*
%TD*%
D73*
%TO.C,J1*%
X140750000Y-105784321D03*
X141250000Y-105784321D03*
X141750000Y-105784321D03*
X142250000Y-105784321D03*
X142750000Y-105784321D03*
X143250000Y-105784321D03*
X143750000Y-105784321D03*
X144250000Y-105784321D03*
X144750000Y-105784321D03*
X145250000Y-105784321D03*
X145750000Y-105784321D03*
X146250000Y-105784321D03*
X146750000Y-105784321D03*
X147250000Y-105784321D03*
X147750000Y-105784321D03*
X148250000Y-105784321D03*
X148750000Y-105784321D03*
X149250000Y-105784321D03*
X149750000Y-105784321D03*
X150250000Y-105784321D03*
X150750000Y-105784321D03*
X151250000Y-105784321D03*
X151750000Y-105784321D03*
X152250000Y-105784321D03*
X152750000Y-105784321D03*
X153250000Y-105784321D03*
X153750000Y-105784321D03*
X154250000Y-105784321D03*
D74*
X138850000Y-109034321D03*
X156150000Y-109034321D03*
%TD*%
D27*
%TO.C,D21*%
X127050000Y-45724321D03*
X127050000Y-46624321D03*
X127950000Y-46624321D03*
X127950000Y-45724321D03*
%TD*%
D75*
%TO.C,H2*%
X162000000Y-65676642D03*
%TD*%
%TO.C,H4*%
X162000000Y-129751642D03*
%TD*%
D76*
%TO.C,J3*%
X159495000Y-117554321D03*
X160511000Y-122634321D03*
X158479000Y-122634321D03*
%TD*%
D75*
%TO.C,H5*%
X133000000Y-129751642D03*
%TD*%
%TO.C,H3*%
X133000000Y-65676642D03*
%TD*%
M02*
