%TF.GenerationSoftware,KiCad,Pcbnew,8.0.8*%
%TF.CreationDate,2025-01-29T17:42:58+00:00*%
%TF.ProjectId,mariposa,6d617269-706f-4736-912e-6b696361645f,2.0*%
%TF.SameCoordinates,Original*%
%TF.FileFunction,Paste,Bot*%
%TF.FilePolarity,Positive*%
%FSLAX46Y46*%
G04 Gerber Fmt 4.6, Leading zero omitted, Abs format (unit mm)*
G04 Created by KiCad (PCBNEW 8.0.8) date 2025-01-29 17:42:58*
%MOMM*%
%LPD*%
G01*
G04 APERTURE LIST*
G04 Aperture macros list*
%AMRoundRect*
0 Rectangle with rounded corners*
0 $1 Rounding radius*
0 $2 $3 $4 $5 $6 $7 $8 $9 X,Y pos of 4 corners*
0 Add a 4 corners polygon primitive as box body*
4,1,4,$2,$3,$4,$5,$6,$7,$8,$9,$2,$3,0*
0 Add four circle primitives for the rounded corners*
1,1,$1+$1,$2,$3*
1,1,$1+$1,$4,$5*
1,1,$1+$1,$6,$7*
1,1,$1+$1,$8,$9*
0 Add four rect primitives between the rounded corners*
20,1,$1+$1,$2,$3,$4,$5,0*
20,1,$1+$1,$4,$5,$6,$7,0*
20,1,$1+$1,$6,$7,$8,$9,0*
20,1,$1+$1,$8,$9,$2,$3,0*%
%AMFreePoly0*
4,1,21,1.053536,1.503536,1.055000,1.500000,1.055000,-0.800000,1.053536,-0.803536,1.050000,-0.805000,-0.900000,-0.805000,-0.903536,-0.803536,-0.905000,-0.800000,-0.905000,-0.305000,-1.600000,-0.305000,-1.603536,-0.303536,-1.605000,-0.300000,-1.605000,0.800000,-1.603536,0.803536,-1.600000,0.805000,-0.205000,0.805000,-0.205000,1.500000,-0.203536,1.503536,-0.200000,1.505000,1.050000,1.505000,
1.053536,1.503536,1.053536,1.503536,$1*%
%AMFreePoly1*
4,1,21,0.203536,1.503536,0.205000,1.500000,0.205000,0.805000,1.600000,0.805000,1.603536,0.803536,1.605000,0.800000,1.605000,-0.300000,1.603536,-0.303536,1.600000,-0.305000,0.905000,-0.305000,0.905000,-0.800000,0.903536,-0.803536,0.900000,-0.805000,-1.050000,-0.805000,-1.053536,-0.803536,-1.055000,-0.800000,-1.055000,1.500000,-1.053536,1.503536,-1.050000,1.505000,0.200000,1.505000,
0.203536,1.503536,0.203536,1.503536,$1*%
G04 Aperture macros list end*
%ADD10C,0.000000*%
%ADD11RoundRect,0.080000X-0.770000X0.270000X-0.770000X-0.270000X0.770000X-0.270000X0.770000X0.270000X0*%
%ADD12RoundRect,0.080000X-0.270000X-0.770000X0.270000X-0.770000X0.270000X0.770000X-0.270000X0.770000X0*%
%ADD13RoundRect,0.080000X0.270000X0.770000X-0.270000X0.770000X-0.270000X-0.770000X0.270000X-0.770000X0*%
%ADD14C,5.600000*%
%ADD15RoundRect,0.225000X0.225000X0.250000X-0.225000X0.250000X-0.225000X-0.250000X0.225000X-0.250000X0*%
%ADD16RoundRect,0.050000X-0.150000X0.400000X-0.150000X-0.400000X0.150000X-0.400000X0.150000X0.400000X0*%
%ADD17RoundRect,0.225000X-0.250000X0.225000X-0.250000X-0.225000X0.250000X-0.225000X0.250000X0.225000X0*%
%ADD18RoundRect,0.200000X0.200000X0.275000X-0.200000X0.275000X-0.200000X-0.275000X0.200000X-0.275000X0*%
%ADD19RoundRect,0.150000X0.625000X-0.150000X0.625000X0.150000X-0.625000X0.150000X-0.625000X-0.150000X0*%
%ADD20RoundRect,0.250000X0.650000X-0.350000X0.650000X0.350000X-0.650000X0.350000X-0.650000X-0.350000X0*%
%ADD21RoundRect,0.050000X0.500000X0.250000X-0.500000X0.250000X-0.500000X-0.250000X0.500000X-0.250000X0*%
%ADD22RoundRect,0.225000X0.250000X-0.225000X0.250000X0.225000X-0.250000X0.225000X-0.250000X-0.225000X0*%
%ADD23RoundRect,0.200000X0.275000X-0.200000X0.275000X0.200000X-0.275000X0.200000X-0.275000X-0.200000X0*%
%ADD24RoundRect,0.218750X-0.256250X0.218750X-0.256250X-0.218750X0.256250X-0.218750X0.256250X0.218750X0*%
%ADD25RoundRect,0.200000X-0.275000X0.200000X-0.275000X-0.200000X0.275000X-0.200000X0.275000X0.200000X0*%
%ADD26RoundRect,0.050000X0.400000X0.150000X-0.400000X0.150000X-0.400000X-0.150000X0.400000X-0.150000X0*%
%ADD27RoundRect,0.050000X-0.400000X-0.200000X0.400000X-0.200000X0.400000X0.200000X-0.400000X0.200000X0*%
%ADD28RoundRect,0.050000X0.400000X-0.300000X0.400000X0.300000X-0.400000X0.300000X-0.400000X-0.300000X0*%
%ADD29RoundRect,0.050000X-0.400000X0.300000X-0.400000X-0.300000X0.400000X-0.300000X0.400000X0.300000X0*%
%ADD30RoundRect,0.050000X-0.300000X-0.400000X0.300000X-0.400000X0.300000X0.400000X-0.300000X0.400000X0*%
%ADD31RoundRect,0.050000X-0.450000X-0.300000X0.450000X-0.300000X0.450000X0.300000X-0.450000X0.300000X0*%
%ADD32RoundRect,0.050000X0.150000X-0.400000X0.150000X0.400000X-0.150000X0.400000X-0.150000X-0.400000X0*%
%ADD33RoundRect,0.225000X-0.225000X-0.250000X0.225000X-0.250000X0.225000X0.250000X-0.225000X0.250000X0*%
%ADD34RoundRect,0.150000X-0.150000X-0.425000X0.150000X-0.425000X0.150000X0.425000X-0.150000X0.425000X0*%
%ADD35RoundRect,0.075000X-0.075000X-0.500000X0.075000X-0.500000X0.075000X0.500000X-0.075000X0.500000X0*%
%ADD36O,1.000000X1.800000*%
%ADD37O,1.000000X2.100000*%
%ADD38RoundRect,0.150000X0.700000X-0.150000X0.700000X0.150000X-0.700000X0.150000X-0.700000X-0.150000X0*%
%ADD39RoundRect,0.250000X1.100000X-0.250000X1.100000X0.250000X-1.100000X0.250000X-1.100000X-0.250000X0*%
%ADD40RoundRect,0.100000X0.100000X-0.150000X0.100000X0.150000X-0.100000X0.150000X-0.100000X-0.150000X0*%
%ADD41RoundRect,0.200000X-0.200000X-0.275000X0.200000X-0.275000X0.200000X0.275000X-0.200000X0.275000X0*%
%ADD42RoundRect,0.030000X-0.120000X-0.670000X0.120000X-0.670000X0.120000X0.670000X-0.120000X0.670000X0*%
%ADD43FreePoly0,0.000000*%
%ADD44FreePoly1,0.000000*%
%ADD45RoundRect,0.218750X-0.218750X-0.256250X0.218750X-0.256250X0.218750X0.256250X-0.218750X0.256250X0*%
%ADD46RoundRect,0.218750X0.218750X0.256250X-0.218750X0.256250X-0.218750X-0.256250X0.218750X-0.256250X0*%
%ADD47RoundRect,0.218750X-0.381250X0.218750X-0.381250X-0.218750X0.381250X-0.218750X0.381250X0.218750X0*%
%ADD48RoundRect,0.250000X-0.700000X0.275000X-0.700000X-0.275000X0.700000X-0.275000X0.700000X0.275000X0*%
%ADD49RoundRect,0.050000X0.075000X0.200000X-0.075000X0.200000X-0.075000X-0.200000X0.075000X-0.200000X0*%
%ADD50RoundRect,0.050000X-0.750000X0.400000X-0.750000X-0.400000X0.750000X-0.400000X0.750000X0.400000X0*%
%ADD51RoundRect,0.100000X-0.150000X-0.100000X0.150000X-0.100000X0.150000X0.100000X-0.150000X0.100000X0*%
%ADD52RoundRect,0.050000X-0.100000X0.285000X-0.100000X-0.285000X0.100000X-0.285000X0.100000X0.285000X0*%
%ADD53RoundRect,0.150000X-0.625000X0.150000X-0.625000X-0.150000X0.625000X-0.150000X0.625000X0.150000X0*%
%ADD54RoundRect,0.250000X-0.650000X0.350000X-0.650000X-0.350000X0.650000X-0.350000X0.650000X0.350000X0*%
%ADD55RoundRect,0.250000X0.700000X-0.275000X0.700000X0.275000X-0.700000X0.275000X-0.700000X-0.275000X0*%
%ADD56RoundRect,0.030000X0.120000X0.670000X-0.120000X0.670000X-0.120000X-0.670000X0.120000X-0.670000X0*%
%ADD57FreePoly0,180.000000*%
%ADD58FreePoly1,180.000000*%
G04 APERTURE END LIST*
D10*
%TO.C,U2*%
G36*
X164410563Y-53540941D02*
G01*
X164419755Y-53543730D01*
X164428226Y-53548258D01*
X164435651Y-53554352D01*
X164441744Y-53561776D01*
X164446273Y-53570247D01*
X164449062Y-53579439D01*
X164450004Y-53589000D01*
X164450004Y-54391000D01*
X164449062Y-54400561D01*
X164446273Y-54409753D01*
X164441744Y-54418224D01*
X164435651Y-54425648D01*
X164428226Y-54431742D01*
X164419755Y-54436270D01*
X164410563Y-54439059D01*
X164401003Y-54440002D01*
X163799002Y-54440002D01*
X163789442Y-54439059D01*
X163780249Y-54436270D01*
X163771779Y-54431742D01*
X163764354Y-54425648D01*
X163758261Y-54418224D01*
X163753732Y-54409753D01*
X163750943Y-54400561D01*
X163750003Y-54391000D01*
X163750003Y-53589000D01*
X163750943Y-53579439D01*
X163753732Y-53570247D01*
X163758261Y-53561776D01*
X163764354Y-53554352D01*
X163771779Y-53548258D01*
X163780249Y-53543730D01*
X163789442Y-53540941D01*
X163799002Y-53539998D01*
X164401003Y-53539998D01*
X164410563Y-53540941D01*
G37*
G36*
X165310561Y-53540941D02*
G01*
X165319754Y-53543730D01*
X165328225Y-53548258D01*
X165335649Y-53554352D01*
X165341742Y-53561776D01*
X165346271Y-53570247D01*
X165349060Y-53579439D01*
X165350002Y-53589000D01*
X165350002Y-54391000D01*
X165349060Y-54400561D01*
X165346271Y-54409753D01*
X165341742Y-54418224D01*
X165335649Y-54425648D01*
X165328225Y-54431742D01*
X165319754Y-54436270D01*
X165310561Y-54439059D01*
X165301001Y-54440002D01*
X164699000Y-54440002D01*
X164689440Y-54439059D01*
X164680248Y-54436270D01*
X164671777Y-54431742D01*
X164664352Y-54425648D01*
X164658259Y-54418224D01*
X164653730Y-54409753D01*
X164650941Y-54400561D01*
X164650001Y-54391000D01*
X164650001Y-53589000D01*
X164650941Y-53579439D01*
X164653730Y-53570247D01*
X164658259Y-53561776D01*
X164664352Y-53554352D01*
X164671777Y-53548258D01*
X164680248Y-53543730D01*
X164689440Y-53540941D01*
X164699000Y-53539998D01*
X165301001Y-53539998D01*
X165310561Y-53540941D01*
G37*
%TD*%
D11*
%TO.C,D1*%
X150000000Y-70682679D03*
X150000000Y-73882679D03*
%TD*%
D12*
%TO.C,D5*%
X127520000Y-39600000D03*
X130720000Y-39600000D03*
%TD*%
D13*
%TO.C,D6*%
X172550000Y-39600000D03*
X169350000Y-39600000D03*
%TD*%
D14*
%TO.C,H2*%
X135500000Y-65925000D03*
%TD*%
%TO.C,H4*%
X135500000Y-130000000D03*
%TD*%
%TO.C,H5*%
X164500000Y-130000000D03*
%TD*%
%TO.C,H3*%
X164500000Y-65925000D03*
%TD*%
D15*
%TO.C,C7*%
X154305000Y-58912679D03*
X152755000Y-58912679D03*
%TD*%
D16*
%TO.C,D14*%
X144840000Y-99042679D03*
X145490000Y-99042679D03*
X146140000Y-99042679D03*
X146140000Y-101242679D03*
X145490000Y-101242679D03*
X144840000Y-101242679D03*
%TD*%
D17*
%TO.C,C8*%
X147260000Y-59612679D03*
X147260000Y-61162679D03*
%TD*%
D18*
%TO.C,R11*%
X163485000Y-69850000D03*
X161835000Y-69850000D03*
%TD*%
D19*
%TO.C,J8*%
X138100000Y-53810000D03*
X138100000Y-52810000D03*
X138100000Y-51810000D03*
X138100000Y-50810000D03*
D20*
X134225000Y-55110000D03*
X134225000Y-49510000D03*
%TD*%
D21*
%TO.C,U4*%
X145267500Y-59610000D03*
X145267500Y-60560000D03*
X145267500Y-61510000D03*
X142667500Y-61510000D03*
X142667500Y-60560000D03*
X142667500Y-59610000D03*
%TD*%
D16*
%TO.C,D4*%
X155534436Y-99042679D03*
X156184436Y-99042679D03*
X156834436Y-99042679D03*
X156834436Y-101242679D03*
X156184436Y-101242679D03*
X155534436Y-101242679D03*
%TD*%
D22*
%TO.C,C10*%
X139600000Y-70647679D03*
X139600000Y-69097679D03*
%TD*%
D23*
%TO.C,R7*%
X164130000Y-51405000D03*
X164130000Y-49755000D03*
%TD*%
D16*
%TO.C,D13*%
X161400000Y-122000000D03*
X162050000Y-122000000D03*
X162700000Y-122000000D03*
X162700000Y-124200000D03*
X162050000Y-124200000D03*
X161400000Y-124200000D03*
%TD*%
%TO.C,D3*%
X159099250Y-101171929D03*
X159749250Y-101171929D03*
X160399250Y-101171929D03*
X160399250Y-103371929D03*
X159749250Y-103371929D03*
X159099250Y-103371929D03*
%TD*%
D22*
%TO.C,C45*%
X163130000Y-72950000D03*
X163130000Y-71400000D03*
%TD*%
D15*
%TO.C,C4*%
X158095000Y-52152679D03*
X156545000Y-52152679D03*
%TD*%
D23*
%TO.C,R15*%
X167870000Y-54940000D03*
X167870000Y-53290000D03*
%TD*%
D24*
%TO.C,FB3*%
X152660000Y-90392500D03*
X152660000Y-91967500D03*
%TD*%
D15*
%TO.C,C5*%
X158165000Y-55992679D03*
X156615000Y-55992679D03*
%TD*%
D16*
%TO.C,U3*%
X158310000Y-61592679D03*
X158960000Y-61592679D03*
X159610000Y-61592679D03*
X159610000Y-63792679D03*
X158960000Y-63792679D03*
X158310000Y-63792679D03*
%TD*%
D25*
%TO.C,R16*%
X136530000Y-123727679D03*
X136530000Y-125377679D03*
%TD*%
D26*
%TO.C,D11*%
X151100000Y-90850000D03*
X151100000Y-91500000D03*
X151100000Y-92150000D03*
X148900000Y-92150000D03*
X148900000Y-91500000D03*
X148900000Y-90850000D03*
%TD*%
D27*
%TO.C,D9*%
X148640000Y-51680000D03*
X151240000Y-51680000D03*
%TD*%
D16*
%TO.C,D7*%
X151969624Y-99042679D03*
X152619624Y-99042679D03*
X153269624Y-99042679D03*
X153269624Y-101242679D03*
X152619624Y-101242679D03*
X151969624Y-101242679D03*
%TD*%
D23*
%TO.C,R12*%
X165650000Y-51405000D03*
X165650000Y-49755000D03*
%TD*%
D28*
%TO.C,U1*%
X143250000Y-135000000D03*
D29*
X143250000Y-133900000D03*
X143250000Y-132800000D03*
X143250000Y-131700000D03*
X143250000Y-130600000D03*
X143250000Y-129500000D03*
X143250000Y-128400000D03*
X143250000Y-127300000D03*
X143250000Y-126200000D03*
X143250000Y-125100000D03*
D28*
X143250000Y-124000000D03*
X143250000Y-122900000D03*
D30*
X144500000Y-121400000D03*
X145600000Y-121400000D03*
X146700000Y-121400000D03*
X147800000Y-121400000D03*
X148900000Y-121400000D03*
X150000000Y-121400000D03*
X151100000Y-121400000D03*
X152200000Y-121400000D03*
X153300000Y-121400000D03*
X154400000Y-121400000D03*
X155500000Y-121400000D03*
D29*
X156750000Y-122900000D03*
X156750000Y-124000000D03*
X156750000Y-125100000D03*
X156750000Y-126200000D03*
X156750000Y-127300000D03*
X156750000Y-128400000D03*
X156750000Y-129500000D03*
X156750000Y-130600000D03*
X156750000Y-131700000D03*
X156750000Y-132800000D03*
X156750000Y-133900000D03*
X156750000Y-135000000D03*
X156750000Y-136100000D03*
D31*
X145750000Y-133900000D03*
X145750000Y-132800000D03*
X145750000Y-131700000D03*
X145750000Y-130600000D03*
X145750000Y-129500000D03*
X145750000Y-128400000D03*
X145750000Y-127300000D03*
X145750000Y-126200000D03*
X145750000Y-125100000D03*
X145750000Y-124000000D03*
X145750000Y-122900000D03*
X154550000Y-122900000D03*
X154550000Y-124000000D03*
X154550000Y-125100000D03*
X154550000Y-126200000D03*
X154550000Y-127300000D03*
X154550000Y-128400000D03*
X154550000Y-129500000D03*
X154550000Y-130600000D03*
X154550000Y-131700000D03*
X154550000Y-132800000D03*
X154550000Y-133900000D03*
%TD*%
D23*
%TO.C,R1*%
X159800000Y-128777679D03*
X159800000Y-127127679D03*
%TD*%
D32*
%TO.C,D12*%
X141570000Y-51960000D03*
X140920000Y-51960000D03*
X140270000Y-51960000D03*
X140270000Y-49760000D03*
X140920000Y-49760000D03*
X141570000Y-49760000D03*
%TD*%
D33*
%TO.C,C3*%
X152655000Y-93590000D03*
X154205000Y-93590000D03*
%TD*%
D17*
%TO.C,C1*%
X143120000Y-87302679D03*
X143120000Y-88852679D03*
%TD*%
D16*
%TO.C,U6*%
X154310000Y-61592679D03*
X154960000Y-61592679D03*
X155610000Y-61592679D03*
X155610000Y-63792679D03*
X154960000Y-63792679D03*
X154310000Y-63792679D03*
%TD*%
D34*
%TO.C,J4*%
X146800000Y-48506927D03*
X147600000Y-48506927D03*
D35*
X148750000Y-48506927D03*
X149750000Y-48506927D03*
X150250000Y-48506927D03*
X151250000Y-48506927D03*
D34*
X152400000Y-48506927D03*
X153200000Y-48506927D03*
X153200000Y-48506927D03*
X152400000Y-48506927D03*
D35*
X151750000Y-48506927D03*
X150750000Y-48506927D03*
X149250000Y-48506927D03*
X148250000Y-48506927D03*
D34*
X147600000Y-48506927D03*
X146800000Y-48506927D03*
D36*
X145680000Y-43751927D03*
D37*
X145680000Y-47931927D03*
D36*
X154320000Y-43751927D03*
D37*
X154320000Y-47931927D03*
%TD*%
D38*
%TO.C,BT1*%
X168590000Y-59840000D03*
X168590000Y-58590000D03*
D39*
X165390000Y-61690000D03*
X165390000Y-56740000D03*
%TD*%
D18*
%TO.C,R8*%
X154025000Y-73850000D03*
X152375000Y-73850000D03*
%TD*%
D40*
%TO.C,RN2*%
X142150000Y-58002679D03*
X141450000Y-58002679D03*
X141450000Y-57002679D03*
X142150000Y-57002679D03*
%TD*%
D41*
%TO.C,R2*%
X132100000Y-40330000D03*
X133750000Y-40330000D03*
%TD*%
D42*
%TO.C,J6*%
X147750000Y-85462679D03*
X148250000Y-85462679D03*
X148750000Y-85462679D03*
X149250000Y-85462679D03*
X149750000Y-85462679D03*
X150250000Y-85462679D03*
X150750000Y-85462679D03*
X151250000Y-85462679D03*
X151750000Y-85462679D03*
X152250000Y-85462679D03*
D43*
X146250000Y-84557679D03*
D44*
X153750000Y-84557679D03*
%TD*%
D15*
%TO.C,C47*%
X162420000Y-55160000D03*
X160870000Y-55160000D03*
%TD*%
D17*
%TO.C,C2*%
X154320000Y-90385000D03*
X154320000Y-91935000D03*
%TD*%
D41*
%TO.C,R14*%
X166265000Y-40330000D03*
X167915000Y-40330000D03*
%TD*%
D26*
%TO.C,D10*%
X151110000Y-53656573D03*
X151110000Y-54306573D03*
X151110000Y-54956573D03*
X148910000Y-54956573D03*
X148910000Y-54306573D03*
X148910000Y-53656573D03*
%TD*%
D25*
%TO.C,R9*%
X160629900Y-131155000D03*
X160629900Y-132805000D03*
%TD*%
D16*
%TO.C,D2*%
X159100000Y-96972679D03*
X159750000Y-96972679D03*
X160400000Y-96972679D03*
X160400000Y-99172679D03*
X159750000Y-99172679D03*
X159100000Y-99172679D03*
%TD*%
D45*
%TO.C,FB4*%
X152672500Y-88572679D03*
X154247500Y-88572679D03*
%TD*%
D33*
%TO.C,C44*%
X166625000Y-72330000D03*
X168175000Y-72330000D03*
%TD*%
D17*
%TO.C,C46*%
X162400000Y-51485000D03*
X162400000Y-53035000D03*
%TD*%
D46*
%TO.C,L1*%
X165037500Y-74450000D03*
X163462500Y-74450000D03*
%TD*%
D23*
%TO.C,R5*%
X143110000Y-91937679D03*
X143110000Y-90287679D03*
%TD*%
D40*
%TO.C,RN3*%
X139150000Y-124352679D03*
X138450000Y-124352679D03*
X138450000Y-123352679D03*
X139150000Y-123352679D03*
%TD*%
D15*
%TO.C,C6*%
X159325000Y-58912679D03*
X157775000Y-58912679D03*
%TD*%
D25*
%TO.C,R3*%
X156100000Y-47285000D03*
X156100000Y-48935000D03*
%TD*%
D23*
%TO.C,R13*%
X157030000Y-85617679D03*
X157030000Y-83967679D03*
%TD*%
D15*
%TO.C,C9*%
X144375000Y-63052679D03*
X142825000Y-63052679D03*
%TD*%
D25*
%TO.C,R4*%
X143900000Y-47285000D03*
X143900000Y-48935000D03*
%TD*%
D47*
%TO.C,FB5*%
X139590000Y-65330179D03*
X139590000Y-67455179D03*
%TD*%
D23*
%TO.C,R10*%
X158990000Y-132805000D03*
X158990000Y-131155000D03*
%TD*%
D48*
%TO.C,FB1*%
X154520000Y-52387679D03*
X154520000Y-55537679D03*
%TD*%
D23*
%TO.C,R6*%
X143120000Y-85877679D03*
X143120000Y-84227679D03*
%TD*%
D49*
%TO.C,U2*%
X163800001Y-53039999D03*
X164299999Y-53039999D03*
X164800001Y-53039999D03*
X165300000Y-53039999D03*
X165300000Y-54940001D03*
X164800001Y-54940001D03*
X164299999Y-54940001D03*
X163800001Y-54940001D03*
D50*
X164549999Y-53990000D03*
%TD*%
D51*
%TO.C,RN1*%
X158690000Y-135892679D03*
X158690000Y-135192679D03*
X159690000Y-135192679D03*
X159690000Y-135892679D03*
%TD*%
D33*
%TO.C,C12*%
X140160000Y-54502679D03*
X141710000Y-54502679D03*
%TD*%
D52*
%TO.C,U5*%
X164370000Y-71722500D03*
X164870000Y-71722500D03*
X165370000Y-71722500D03*
X165370000Y-73202500D03*
X164870000Y-73202500D03*
X164370000Y-73202500D03*
%TD*%
D53*
%TO.C,J2*%
X131940000Y-58610000D03*
X131940000Y-59610000D03*
X131940000Y-60610000D03*
D54*
X135815000Y-57310000D03*
X135815000Y-61910000D03*
%TD*%
D55*
%TO.C,FB2*%
X158220000Y-47787679D03*
X158220000Y-44637679D03*
%TD*%
D56*
%TO.C,J1*%
X156750000Y-105082679D03*
X156250000Y-105082679D03*
X155750000Y-105082679D03*
X155250000Y-105082679D03*
X154750000Y-105082679D03*
X154250000Y-105082679D03*
X153750000Y-105082679D03*
X153250000Y-105082679D03*
X152750000Y-105082679D03*
X152250000Y-105082679D03*
X151750000Y-105082679D03*
X151250000Y-105082679D03*
X150750000Y-105082679D03*
X150250000Y-105082679D03*
X149750000Y-105082679D03*
X149250000Y-105082679D03*
X148750000Y-105082679D03*
X148250000Y-105082679D03*
X147750000Y-105082679D03*
X147250000Y-105082679D03*
X146750000Y-105082679D03*
X146250000Y-105082679D03*
X145750000Y-105082679D03*
X145250000Y-105082679D03*
X144750000Y-105082679D03*
X144250000Y-105082679D03*
X143750000Y-105082679D03*
X143250000Y-105082679D03*
D57*
X158250000Y-105987679D03*
D58*
X141750000Y-105987679D03*
%TD*%
D16*
%TO.C,D8*%
X148404812Y-99042679D03*
X149054812Y-99042679D03*
X149704812Y-99042679D03*
X149704812Y-101242679D03*
X149054812Y-101242679D03*
X148404812Y-101242679D03*
%TD*%
D18*
%TO.C,R17*%
X138095000Y-69952679D03*
X136445000Y-69952679D03*
%TD*%
M02*
