M48
; DRILL file {KiCad 8.0.8} date 2025-01-20T10:11:23+0100
; FORMAT={-:-/ absolute / metric / decimal}
; #@! TF.CreationDate,2025-01-20T10:11:23+01:00
; #@! TF.GenerationSoftware,Kicad,Pcbnew,8.0.8
; #@! TF.FileFunction,Plated,1,2,PTH
FMAT,2
METRIC
; #@! TA.AperFunction,Plated,PTH,ComponentDrill
T1C0.203
; #@! TA.AperFunction,Plated,PTH,ViaDrill
T2C0.250
; #@! TA.AperFunction,Plated,PTH,ViaDrill
T3C0.300
; #@! TA.AperFunction,Plated,PTH,ViaDrill
T4C0.350
; #@! TA.AperFunction,Plated,PTH,ViaDrill
T5C0.360
; #@! TA.AperFunction,Plated,PTH,ViaDrill
T6C0.400
; #@! TA.AperFunction,Plated,PTH,ComponentDrill
T7C0.600
; #@! TA.AperFunction,Plated,PTH,ComponentDrill
T8C3.200
%
G90
G05
T1
X164.0Y-53.99
X165.1Y-53.99
T2
X139.18Y-51.3
X140.41Y-118.01
X140.93Y-52.41
X141.07Y-49.14
X141.41Y-60.33
X144.68Y-48.92
X150.54Y-122.25
X157.68Y-131.22
X161.03Y-120.58
X162.87Y-121.06
X164.8Y-55.45
X165.56Y-71.14
T3
X138.69Y-132.81
X139.016Y-50.326
X139.53Y-127.88
X140.09Y-126.77
X140.27Y-53.22
X140.97Y-125.07
X141.302Y-71.34
X141.5Y-126.2
X141.705Y-71.89
X141.86Y-130.04
X141.86Y-131.15
X141.87Y-128.96
X141.88Y-127.3
X142.02Y-122.08
X142.44Y-122.92
X142.44Y-124.01
X142.5Y-135.0
X142.63Y-52.9
X142.63Y-57.09
X143.33Y-58.6
X144.0Y-135.0
X144.01Y-133.91
X144.03Y-110.53
X144.04Y-122.91
X144.04Y-124.01
X144.125Y-126.2
X144.13Y-127.3
X144.16Y-128.38
X144.16Y-129.5
X144.16Y-130.59
X144.17Y-131.69
X144.17Y-132.77
X144.19Y-61.51
X144.39Y-125.6
X144.59Y-88.79
X144.602Y-58.231
X144.69Y-122.91
X144.8Y-46.4
X144.82Y-125.1
X144.94Y-128.4
X144.94Y-130.6
X144.94Y-131.7
X144.94Y-132.76
X144.95Y-127.28
X144.95Y-129.5
X145.24Y-106.75
X145.73Y-103.72
X145.74Y-107.17
X146.25Y-118.33
X146.6Y-46.4
X146.7Y-133.27
X146.79Y-117.924
X147.22Y-90.7
X147.275Y-117.474
X147.76Y-92.92
X147.775Y-117.059
X148.275Y-115.03
X148.49Y-91.51
X148.725Y-116.29
X148.75Y-90.4
X149.05Y-55.47
X149.5Y-89.49
X149.7Y-49.34
X150.0Y-69.93
X150.38Y-91.51
X150.55Y-120.54
X150.79Y-49.34
X150.95Y-55.47
X151.51Y-50.94
X151.75Y-89.37
X151.765Y-95.02
X151.77Y-123.76
X152.29Y-103.75
X152.74Y-120.53
X152.92Y-87.3
X153.4Y-46.4
X153.5Y-91.16
X153.59Y-124.0
X153.59Y-125.098
X153.86Y-120.53
X154.25Y-92.75
X154.53Y-115.58
X155.2Y-46.4
X155.27Y-115.57
X155.9Y-126.2
X155.9Y-127.3
X155.9Y-131.15
X155.9Y-132.25
X155.91Y-128.95
X155.91Y-130.06
X155.91Y-133.35
X155.91Y-134.46
X155.91Y-135.55
X155.92Y-125.1
X156.03Y-115.58
X156.7Y-115.59
X157.35Y-115.58
X157.56Y-124.0
X157.57Y-122.9
X157.68Y-135.553
X159.87Y-131.95
X160.43Y-126.51
X160.45Y-135.0
X160.7Y-123.1
X160.92Y-121.34
X161.14Y-127.55
X161.55Y-136.1
X163.311Y-122.16
X163.36Y-123.1
X164.02Y-69.92
X165.73Y-54.94
X167.88Y-39.448
X168.07Y-103.75
T4
X132.73Y-55.103
X134.15Y-57.253
X134.15Y-61.863
X135.65Y-49.493
X137.2Y-57.973
X139.97Y-44.17
X145.46Y-55.59
X145.46Y-58.22
X146.81Y-53.74
X148.05Y-47.14
X149.99Y-45.61
X150.15Y-90.18
X151.39Y-90.18
X153.56Y-128.94
X153.56Y-130.05
X153.56Y-131.15
X153.56Y-132.26
X153.56Y-133.36
X153.57Y-126.69
X160.53Y-122.223
T5
X129.16Y-42.79
X132.61Y-99.61
X137.6Y-56.823
X138.38Y-63.53
X144.78Y-91.89
X146.74Y-132.25
X146.8Y-49.53
X147.11Y-69.47
X148.89Y-52.55
X149.98Y-92.98
X149.98Y-94.43
X150.01Y-77.54
X151.89Y-92.77
X152.02Y-54.3
X153.23Y-49.51
X153.48Y-122.88
X156.0Y-105.8
X157.15Y-110.64
X158.95Y-120.54
X158.97Y-124.37
X160.65Y-124.36
X167.41Y-99.61
X170.95Y-42.81
T6
X136.26Y-52.81
X139.59Y-63.72
X144.92Y-66.14
X147.6Y-49.97
X148.81Y-59.61
X151.16Y-59.6
X152.486Y-49.974
X159.45Y-72.19
X162.51Y-74.39
X167.3Y-70.22
T8
X135.5Y-65.925
X135.5Y-130.0
X164.5Y-65.925
X164.5Y-130.0
T7
X145.68Y-43.352G85X145.68Y-44.152
G05
X145.68Y-47.382G85X145.68Y-48.482
G05
X154.32Y-43.352G85X154.32Y-44.152
G05
X154.32Y-47.382G85X154.32Y-48.482
G05
M30
