%TF.GenerationSoftware,KiCad,Pcbnew,8.0.8*%
%TF.CreationDate,2025-02-03T19:12:47+00:00*%
%TF.ProjectId,mariposa,6d617269-706f-4736-912e-6b696361645f,2.0*%
%TF.SameCoordinates,Original*%
%TF.FileFunction,Paste,Bot*%
%TF.FilePolarity,Positive*%
%FSLAX46Y46*%
G04 Gerber Fmt 4.6, Leading zero omitted, Abs format (unit mm)*
G04 Created by KiCad (PCBNEW 8.0.8) date 2025-02-03 19:12:47*
%MOMM*%
%LPD*%
G01*
G04 APERTURE LIST*
G04 Aperture macros list*
%AMRoundRect*
0 Rectangle with rounded corners*
0 $1 Rounding radius*
0 $2 $3 $4 $5 $6 $7 $8 $9 X,Y pos of 4 corners*
0 Add a 4 corners polygon primitive as box body*
4,1,4,$2,$3,$4,$5,$6,$7,$8,$9,$2,$3,0*
0 Add four circle primitives for the rounded corners*
1,1,$1+$1,$2,$3*
1,1,$1+$1,$4,$5*
1,1,$1+$1,$6,$7*
1,1,$1+$1,$8,$9*
0 Add four rect primitives between the rounded corners*
20,1,$1+$1,$2,$3,$4,$5,0*
20,1,$1+$1,$4,$5,$6,$7,0*
20,1,$1+$1,$6,$7,$8,$9,0*
20,1,$1+$1,$8,$9,$2,$3,0*%
%AMFreePoly0*
4,1,13,1.005000,-0.755000,-0.855000,-0.755000,-0.855000,-0.305000,-0.869645,-0.269645,-0.905000,-0.255000,-1.555000,-0.255000,-1.555000,0.755000,-0.205000,0.755000,-0.169645,0.769645,-0.155000,0.805000,-0.155000,1.455000,1.005000,1.455000,1.005000,-0.755000,1.005000,-0.755000,$1*%
%AMFreePoly1*
4,1,13,0.155000,0.805000,0.169645,0.769645,0.205000,0.755000,1.555000,0.755000,1.555000,-0.255000,0.905000,-0.255000,0.869645,-0.269645,0.855000,-0.305000,0.855000,-0.755000,-1.005000,-0.755000,-1.005000,1.455000,0.155000,1.455000,0.155000,0.805000,0.155000,0.805000,$1*%
G04 Aperture macros list end*
%ADD10C,0.000000*%
%ADD11RoundRect,0.200000X-0.275000X0.200000X-0.275000X-0.200000X0.275000X-0.200000X0.275000X0.200000X0*%
%ADD12C,5.600000*%
%ADD13RoundRect,0.225000X0.225000X0.250000X-0.225000X0.250000X-0.225000X-0.250000X0.225000X-0.250000X0*%
%ADD14RoundRect,0.047500X-0.142500X0.392500X-0.142500X-0.392500X0.142500X-0.392500X0.142500X0.392500X0*%
%ADD15RoundRect,0.225000X-0.250000X0.225000X-0.250000X-0.225000X0.250000X-0.225000X0.250000X0.225000X0*%
%ADD16RoundRect,0.200000X0.200000X0.275000X-0.200000X0.275000X-0.200000X-0.275000X0.200000X-0.275000X0*%
%ADD17RoundRect,0.150000X0.625000X-0.150000X0.625000X0.150000X-0.625000X0.150000X-0.625000X-0.150000X0*%
%ADD18RoundRect,0.250000X0.650000X-0.350000X0.650000X0.350000X-0.650000X0.350000X-0.650000X-0.350000X0*%
%ADD19RoundRect,0.048333X0.491667X0.241667X-0.491667X0.241667X-0.491667X-0.241667X0.491667X-0.241667X0*%
%ADD20RoundRect,0.044000X0.176000X0.176000X-0.176000X0.176000X-0.176000X-0.176000X0.176000X-0.176000X0*%
%ADD21RoundRect,0.225000X0.250000X-0.225000X0.250000X0.225000X-0.250000X0.225000X-0.250000X-0.225000X0*%
%ADD22RoundRect,0.200000X0.275000X-0.200000X0.275000X0.200000X-0.275000X0.200000X-0.275000X-0.200000X0*%
%ADD23RoundRect,0.135000X0.185000X-0.135000X0.185000X0.135000X-0.185000X0.135000X-0.185000X-0.135000X0*%
%ADD24RoundRect,0.070000X-0.330000X0.280000X-0.330000X-0.280000X0.330000X-0.280000X0.330000X0.280000X0*%
%ADD25RoundRect,0.140000X0.140000X0.170000X-0.140000X0.170000X-0.140000X-0.170000X0.140000X-0.170000X0*%
%ADD26RoundRect,0.218750X-0.256250X0.218750X-0.256250X-0.218750X0.256250X-0.218750X0.256250X0.218750X0*%
%ADD27RoundRect,0.047500X0.392500X0.142500X-0.392500X0.142500X-0.392500X-0.142500X0.392500X-0.142500X0*%
%ADD28RoundRect,0.050000X-0.400000X-0.200000X0.400000X-0.200000X0.400000X0.200000X-0.400000X0.200000X0*%
%ADD29RoundRect,0.050000X-0.400000X0.300000X-0.400000X-0.300000X0.400000X-0.300000X0.400000X0.300000X0*%
%ADD30RoundRect,0.050000X-0.300000X-0.400000X0.300000X-0.400000X0.300000X0.400000X-0.300000X0.400000X0*%
%ADD31RoundRect,0.038571X-0.381429X-0.231429X0.381429X-0.231429X0.381429X0.231429X-0.381429X0.231429X0*%
%ADD32RoundRect,0.095000X-0.095000X0.370000X-0.095000X-0.370000X0.095000X-0.370000X0.095000X0.370000X0*%
%ADD33RoundRect,0.047500X0.142500X-0.392500X0.142500X0.392500X-0.142500X0.392500X-0.142500X-0.392500X0*%
%ADD34RoundRect,0.225000X-0.225000X-0.250000X0.225000X-0.250000X0.225000X0.250000X-0.225000X0.250000X0*%
%ADD35RoundRect,0.140000X-0.170000X0.140000X-0.170000X-0.140000X0.170000X-0.140000X0.170000X0.140000X0*%
%ADD36RoundRect,0.140000X-0.140000X-0.415000X0.140000X-0.415000X0.140000X0.415000X-0.140000X0.415000X0*%
%ADD37RoundRect,0.065000X-0.065000X-0.490000X0.065000X-0.490000X0.065000X0.490000X-0.065000X0.490000X0*%
%ADD38O,0.960000X1.760000*%
%ADD39O,0.960000X2.060000*%
%ADD40RoundRect,0.200000X0.600000X-0.200000X0.600000X0.200000X-0.600000X0.200000X-0.600000X-0.200000X0*%
%ADD41RoundRect,0.250001X1.249999X-0.799999X1.249999X0.799999X-1.249999X0.799999X-1.249999X-0.799999X0*%
%ADD42RoundRect,0.100000X0.100000X-0.150000X0.100000X0.150000X-0.100000X0.150000X-0.100000X-0.150000X0*%
%ADD43RoundRect,0.025200X-0.100800X-0.650800X0.100800X-0.650800X0.100800X0.650800X-0.100800X0.650800X0*%
%ADD44FreePoly0,0.000000*%
%ADD45FreePoly1,0.000000*%
%ADD46RoundRect,0.218750X-0.218750X-0.256250X0.218750X-0.256250X0.218750X0.256250X-0.218750X0.256250X0*%
%ADD47RoundRect,0.140000X0.170000X-0.140000X0.170000X0.140000X-0.170000X0.140000X-0.170000X-0.140000X0*%
%ADD48RoundRect,0.218750X0.218750X0.256250X-0.218750X0.256250X-0.218750X-0.256250X0.218750X-0.256250X0*%
%ADD49RoundRect,0.218750X-0.381250X0.218750X-0.381250X-0.218750X0.381250X-0.218750X0.381250X0.218750X0*%
%ADD50RoundRect,0.250000X-0.700000X0.275000X-0.700000X-0.275000X0.700000X-0.275000X0.700000X0.275000X0*%
%ADD51RoundRect,0.046000X0.069000X0.194000X-0.069000X0.194000X-0.069000X-0.194000X0.069000X-0.194000X0*%
%ADD52RoundRect,0.100000X-0.150000X-0.100000X0.150000X-0.100000X0.150000X0.100000X-0.150000X0.100000X0*%
%ADD53RoundRect,0.140000X-0.140000X-0.170000X0.140000X-0.170000X0.140000X0.170000X-0.140000X0.170000X0*%
%ADD54RoundRect,0.046667X-0.093333X0.278333X-0.093333X-0.278333X0.093333X-0.278333X0.093333X0.278333X0*%
%ADD55RoundRect,0.150000X-0.625000X0.150000X-0.625000X-0.150000X0.625000X-0.150000X0.625000X0.150000X0*%
%ADD56RoundRect,0.250000X-0.650000X0.350000X-0.650000X-0.350000X0.650000X-0.350000X0.650000X0.350000X0*%
%ADD57RoundRect,0.250000X0.700000X-0.275000X0.700000X0.275000X-0.700000X0.275000X-0.700000X-0.275000X0*%
%ADD58RoundRect,0.025200X0.100800X0.650800X-0.100800X0.650800X-0.100800X-0.650800X0.100800X-0.650800X0*%
%ADD59FreePoly0,180.000000*%
%ADD60FreePoly1,180.000000*%
G04 APERTURE END LIST*
D10*
%TO.C,U2*%
G36*
X164230563Y-52630941D02*
G01*
X164239755Y-52633730D01*
X164248226Y-52638258D01*
X164255651Y-52644352D01*
X164261744Y-52651776D01*
X164266273Y-52660247D01*
X164269062Y-52669439D01*
X164270004Y-52679000D01*
X164270004Y-53481000D01*
X164269062Y-53490561D01*
X164266273Y-53499753D01*
X164261744Y-53508224D01*
X164255651Y-53515648D01*
X164248226Y-53521742D01*
X164239755Y-53526270D01*
X164230563Y-53529059D01*
X164221003Y-53530002D01*
X163619002Y-53530002D01*
X163609442Y-53529059D01*
X163600249Y-53526270D01*
X163591779Y-53521742D01*
X163584354Y-53515648D01*
X163578261Y-53508224D01*
X163573732Y-53499753D01*
X163570943Y-53490561D01*
X163570003Y-53481000D01*
X163570003Y-52679000D01*
X163570943Y-52669439D01*
X163573732Y-52660247D01*
X163578261Y-52651776D01*
X163584354Y-52644352D01*
X163591779Y-52638258D01*
X163600249Y-52633730D01*
X163609442Y-52630941D01*
X163619002Y-52629998D01*
X164221003Y-52629998D01*
X164230563Y-52630941D01*
G37*
G36*
X165130561Y-52630941D02*
G01*
X165139754Y-52633730D01*
X165148225Y-52638258D01*
X165155649Y-52644352D01*
X165161742Y-52651776D01*
X165166271Y-52660247D01*
X165169060Y-52669439D01*
X165170002Y-52679000D01*
X165170002Y-53481000D01*
X165169060Y-53490561D01*
X165166271Y-53499753D01*
X165161742Y-53508224D01*
X165155649Y-53515648D01*
X165148225Y-53521742D01*
X165139754Y-53526270D01*
X165130561Y-53529059D01*
X165121001Y-53530002D01*
X164519000Y-53530002D01*
X164509440Y-53529059D01*
X164500248Y-53526270D01*
X164491777Y-53521742D01*
X164484352Y-53515648D01*
X164478259Y-53508224D01*
X164473730Y-53499753D01*
X164470941Y-53490561D01*
X164470001Y-53481000D01*
X164470001Y-52679000D01*
X164470941Y-52669439D01*
X164473730Y-52660247D01*
X164478259Y-52651776D01*
X164484352Y-52644352D01*
X164491777Y-52638258D01*
X164500248Y-52633730D01*
X164509440Y-52630941D01*
X164519000Y-52629998D01*
X165121001Y-52629998D01*
X165130561Y-52630941D01*
G37*
%TD*%
D11*
%TO.C,R8*%
X161165000Y-61750304D03*
X161165000Y-63400304D03*
%TD*%
D12*
%TO.C,H2*%
X135500000Y-65925000D03*
%TD*%
%TO.C,H4*%
X135500000Y-130000000D03*
%TD*%
%TO.C,H5*%
X164500000Y-130000000D03*
%TD*%
%TO.C,H3*%
X164500000Y-65925000D03*
%TD*%
D13*
%TO.C,C7*%
X154305000Y-58912679D03*
X152755000Y-58912679D03*
%TD*%
D14*
%TO.C,D14*%
X144840000Y-99042679D03*
X145490000Y-99042679D03*
X146140000Y-99042679D03*
X146140000Y-101242679D03*
X145490000Y-101242679D03*
X144840000Y-101242679D03*
%TD*%
D15*
%TO.C,C8*%
X147260000Y-59612679D03*
X147260000Y-61162679D03*
%TD*%
D16*
%TO.C,R11*%
X163485000Y-69850000D03*
X161835000Y-69850000D03*
%TD*%
D17*
%TO.C,J8*%
X138100000Y-53810000D03*
X138100000Y-52810000D03*
X138100000Y-51810000D03*
X138100000Y-50810000D03*
D18*
X134225000Y-55110000D03*
X134225000Y-49510000D03*
%TD*%
D19*
%TO.C,U4*%
X145267500Y-59610000D03*
X145267500Y-60560000D03*
X145267500Y-61510000D03*
X142667500Y-61510000D03*
X142667500Y-60560000D03*
X142667500Y-59610000D03*
%TD*%
D20*
%TO.C,D18*%
X129450000Y-39332679D03*
X129450000Y-40232679D03*
X128550000Y-40232679D03*
X128550000Y-39332679D03*
%TD*%
D14*
%TO.C,D4*%
X155534436Y-99042679D03*
X156184436Y-99042679D03*
X156834436Y-99042679D03*
X156834436Y-101242679D03*
X156184436Y-101242679D03*
X155534436Y-101242679D03*
%TD*%
D21*
%TO.C,C10*%
X139600000Y-70647679D03*
X139600000Y-69097679D03*
%TD*%
D22*
%TO.C,R7*%
X163950000Y-50495000D03*
X163950000Y-48845000D03*
%TD*%
D23*
%TO.C,R19*%
X150000000Y-70192679D03*
X150000000Y-69172679D03*
%TD*%
D24*
%TO.C,LED1*%
X148500000Y-72832679D03*
X151500000Y-72832679D03*
X148500000Y-71732679D03*
X151500000Y-71732679D03*
%TD*%
D15*
%TO.C,C13*%
X129360000Y-61237679D03*
X129360000Y-62787679D03*
%TD*%
D14*
%TO.C,D13*%
X161400000Y-122000000D03*
X162050000Y-122000000D03*
X162700000Y-122000000D03*
X162700000Y-124200000D03*
X162050000Y-124200000D03*
X161400000Y-124200000D03*
%TD*%
%TO.C,D3*%
X159099250Y-101171929D03*
X159749250Y-101171929D03*
X160399250Y-101171929D03*
X160399250Y-103371929D03*
X159749250Y-103371929D03*
X159099250Y-103371929D03*
%TD*%
D21*
%TO.C,C45*%
X163090000Y-72950000D03*
X163090000Y-71400000D03*
%TD*%
D25*
%TO.C,C4*%
X157370000Y-52262679D03*
X156410000Y-52262679D03*
%TD*%
D22*
%TO.C,R15*%
X167830000Y-53717679D03*
X167830000Y-52067679D03*
%TD*%
D26*
%TO.C,FB3*%
X152660000Y-90392500D03*
X152660000Y-91967500D03*
%TD*%
D25*
%TO.C,C5*%
X157370000Y-55532679D03*
X156410000Y-55532679D03*
%TD*%
D14*
%TO.C,U3*%
X158310000Y-61592679D03*
X158960000Y-61592679D03*
X159610000Y-61592679D03*
X159610000Y-63792679D03*
X158960000Y-63792679D03*
X158310000Y-63792679D03*
%TD*%
D11*
%TO.C,R16*%
X136530000Y-123727679D03*
X136530000Y-125377679D03*
%TD*%
D27*
%TO.C,D11*%
X151100000Y-90850000D03*
X151100000Y-91500000D03*
X151100000Y-92150000D03*
X148900000Y-92150000D03*
X148900000Y-91500000D03*
X148900000Y-90850000D03*
%TD*%
D20*
%TO.C,D16*%
X168450000Y-103832679D03*
X168450000Y-104732679D03*
X167550000Y-104732679D03*
X167550000Y-103832679D03*
%TD*%
D28*
%TO.C,D9*%
X148640000Y-51680000D03*
X151240000Y-51680000D03*
%TD*%
D14*
%TO.C,D7*%
X151969624Y-99042679D03*
X152619624Y-99042679D03*
X153269624Y-99042679D03*
X153269624Y-101242679D03*
X152619624Y-101242679D03*
X151969624Y-101242679D03*
%TD*%
D22*
%TO.C,R12*%
X165470000Y-50495000D03*
X165470000Y-48845000D03*
%TD*%
D29*
%TO.C,U1*%
X143250000Y-135000000D03*
X143250000Y-133900000D03*
X143250000Y-132800000D03*
X143250000Y-131700000D03*
X143250000Y-130600000D03*
X143250000Y-129500000D03*
X143250000Y-128400000D03*
X143250000Y-127300000D03*
X143250000Y-126200000D03*
X143250000Y-125100000D03*
X143250000Y-124000000D03*
X143250000Y-122900000D03*
D30*
X144500000Y-121400000D03*
X145600000Y-121400000D03*
X146700000Y-121400000D03*
X147800000Y-121400000D03*
X148900000Y-121400000D03*
X150000000Y-121400000D03*
X151100000Y-121400000D03*
X152200000Y-121400000D03*
X153300000Y-121400000D03*
X154400000Y-121400000D03*
X155500000Y-121400000D03*
D29*
X156750000Y-122900000D03*
X156750000Y-124000000D03*
X156750000Y-125100000D03*
X156750000Y-126200000D03*
X156750000Y-127300000D03*
X156750000Y-128400000D03*
X156750000Y-129500000D03*
X156750000Y-130600000D03*
X156750000Y-131700000D03*
X156750000Y-132800000D03*
X156750000Y-133900000D03*
X156750000Y-135000000D03*
X156750000Y-136100000D03*
D31*
X145750000Y-133900000D03*
X145750000Y-132800000D03*
X145750000Y-131700000D03*
X145750000Y-130600000D03*
X145750000Y-129500000D03*
X145750000Y-128400000D03*
X145750000Y-127300000D03*
X145750000Y-126200000D03*
X145750000Y-125100000D03*
X145750000Y-124000000D03*
X145750000Y-122900000D03*
X154550000Y-122900000D03*
X154550000Y-124000000D03*
X154550000Y-125100000D03*
X154550000Y-126200000D03*
X154550000Y-127300000D03*
X154550000Y-128400000D03*
X154550000Y-129500000D03*
X154550000Y-130600000D03*
X154550000Y-131700000D03*
X154550000Y-132800000D03*
X154550000Y-133900000D03*
%TD*%
D32*
%TO.C,U7*%
X131350000Y-98602679D03*
X132000000Y-98602679D03*
X132650000Y-98602679D03*
X132650000Y-100802679D03*
X131350000Y-100802679D03*
%TD*%
D22*
%TO.C,R1*%
X159800000Y-128777679D03*
X159800000Y-127127679D03*
%TD*%
D33*
%TO.C,D12*%
X141570000Y-51960000D03*
X140920000Y-51960000D03*
X140270000Y-51960000D03*
X140270000Y-49760000D03*
X140920000Y-49760000D03*
X141570000Y-49760000D03*
%TD*%
D34*
%TO.C,C3*%
X152655000Y-93590000D03*
X154205000Y-93590000D03*
%TD*%
D15*
%TO.C,C1*%
X143120000Y-87302679D03*
X143120000Y-88852679D03*
%TD*%
D20*
%TO.C,D15*%
X132450000Y-103832679D03*
X132450000Y-104732679D03*
X131550000Y-104732679D03*
X131550000Y-103832679D03*
%TD*%
D14*
%TO.C,U6*%
X154310000Y-61592679D03*
X154960000Y-61592679D03*
X155610000Y-61592679D03*
X155610000Y-63792679D03*
X154960000Y-63792679D03*
X154310000Y-63792679D03*
%TD*%
D35*
%TO.C,C14*%
X134000000Y-102902679D03*
X134000000Y-103862679D03*
%TD*%
D36*
%TO.C,J4*%
X146800000Y-48506927D03*
X147600000Y-48506927D03*
D37*
X148750000Y-48506927D03*
X149750000Y-48506927D03*
X150250000Y-48506927D03*
X151250000Y-48506927D03*
D36*
X152400000Y-48506927D03*
X153200000Y-48506927D03*
X153200000Y-48506927D03*
X152400000Y-48506927D03*
D37*
X151750000Y-48506927D03*
X150750000Y-48506927D03*
X149250000Y-48506927D03*
X148250000Y-48506927D03*
D36*
X147600000Y-48506927D03*
X146800000Y-48506927D03*
D38*
X145680000Y-43751927D03*
D39*
X145680000Y-47931927D03*
D38*
X154320000Y-43751927D03*
D39*
X154320000Y-47931927D03*
%TD*%
D40*
%TO.C,BT1*%
X170790000Y-59877679D03*
X170790000Y-58627679D03*
D41*
X167890000Y-62427679D03*
X167890000Y-56077679D03*
%TD*%
D42*
%TO.C,RN2*%
X142150000Y-58002679D03*
X141450000Y-58002679D03*
X141450000Y-57002679D03*
X142150000Y-57002679D03*
%TD*%
D23*
%TO.C,R2*%
X148400000Y-70192679D03*
X148400000Y-69172679D03*
%TD*%
D43*
%TO.C,J6*%
X147750000Y-85462679D03*
X148250000Y-85462679D03*
X148750000Y-85462679D03*
X149250000Y-85462679D03*
X149750000Y-85462679D03*
X150250000Y-85462679D03*
X150750000Y-85462679D03*
X151250000Y-85462679D03*
X151750000Y-85462679D03*
X152250000Y-85462679D03*
D44*
X146250000Y-84557679D03*
D45*
X153750000Y-84557679D03*
%TD*%
D13*
%TO.C,C47*%
X162240000Y-54250000D03*
X160690000Y-54250000D03*
%TD*%
D35*
%TO.C,C16*%
X173000000Y-38302679D03*
X173000000Y-39262679D03*
%TD*%
D11*
%TO.C,R18*%
X131340000Y-94937679D03*
X131340000Y-96587679D03*
%TD*%
D15*
%TO.C,C2*%
X154320000Y-90385000D03*
X154320000Y-91935000D03*
%TD*%
D27*
%TO.C,D10*%
X151110000Y-53656573D03*
X151110000Y-54306573D03*
X151110000Y-54956573D03*
X148910000Y-54956573D03*
X148910000Y-54306573D03*
X148910000Y-53656573D03*
%TD*%
D11*
%TO.C,R9*%
X160629900Y-131155000D03*
X160629900Y-132805000D03*
%TD*%
D14*
%TO.C,D2*%
X159100000Y-96972679D03*
X159750000Y-96972679D03*
X160400000Y-96972679D03*
X160400000Y-99172679D03*
X159750000Y-99172679D03*
X159100000Y-99172679D03*
%TD*%
D46*
%TO.C,FB4*%
X152672500Y-88572679D03*
X154247500Y-88572679D03*
%TD*%
D47*
%TO.C,C17*%
X130840000Y-40952679D03*
X130840000Y-39992679D03*
%TD*%
D35*
%TO.C,C15*%
X170000000Y-102902679D03*
X170000000Y-103862679D03*
%TD*%
D34*
%TO.C,C44*%
X166645000Y-72330000D03*
X168195000Y-72330000D03*
%TD*%
D15*
%TO.C,C46*%
X162220000Y-50575000D03*
X162220000Y-52125000D03*
%TD*%
D48*
%TO.C,L1*%
X165037500Y-74482679D03*
X163462500Y-74482679D03*
%TD*%
D22*
%TO.C,R5*%
X143110000Y-91937679D03*
X143110000Y-90287679D03*
%TD*%
D42*
%TO.C,RN3*%
X139150000Y-124352679D03*
X138450000Y-124352679D03*
X138450000Y-123352679D03*
X139150000Y-123352679D03*
%TD*%
D13*
%TO.C,C6*%
X159325000Y-58912679D03*
X157775000Y-58912679D03*
%TD*%
D11*
%TO.C,R3*%
X156100000Y-47285000D03*
X156100000Y-48935000D03*
%TD*%
D22*
%TO.C,R13*%
X157030000Y-85617679D03*
X157030000Y-83967679D03*
%TD*%
D13*
%TO.C,C9*%
X144375000Y-63052679D03*
X142825000Y-63052679D03*
%TD*%
D23*
%TO.C,R20*%
X151600000Y-70192679D03*
X151600000Y-69172679D03*
%TD*%
D11*
%TO.C,R4*%
X143900000Y-47285000D03*
X143900000Y-48935000D03*
%TD*%
D49*
%TO.C,FB5*%
X139590000Y-65330179D03*
X139590000Y-67455179D03*
%TD*%
D22*
%TO.C,R10*%
X158990000Y-132805000D03*
X158990000Y-131155000D03*
%TD*%
D50*
%TO.C,FB1*%
X154520000Y-52387679D03*
X154520000Y-55537679D03*
%TD*%
D22*
%TO.C,R6*%
X143120000Y-85877679D03*
X143120000Y-84227679D03*
%TD*%
D51*
%TO.C,U2*%
X163620001Y-52129999D03*
X164119999Y-52129999D03*
X164620001Y-52129999D03*
X165120000Y-52129999D03*
X165120000Y-54030001D03*
X164620001Y-54030001D03*
X164119999Y-54030001D03*
X163620001Y-54030001D03*
%TD*%
D52*
%TO.C,RN1*%
X158690000Y-135892679D03*
X158690000Y-135192679D03*
X159690000Y-135192679D03*
X159690000Y-135892679D03*
%TD*%
D53*
%TO.C,C12*%
X140150000Y-54502679D03*
X141110000Y-54502679D03*
%TD*%
D54*
%TO.C,U5*%
X164370000Y-71722500D03*
X164870000Y-71722500D03*
X165370000Y-71722500D03*
X165370000Y-73202500D03*
X164870000Y-73202500D03*
X164370000Y-73202500D03*
%TD*%
D55*
%TO.C,J2*%
X131940000Y-58610000D03*
X131940000Y-59610000D03*
X131940000Y-60610000D03*
D56*
X135815000Y-57310000D03*
X135815000Y-61910000D03*
%TD*%
D35*
%TO.C,C11*%
X129930000Y-100812679D03*
X129930000Y-101772679D03*
%TD*%
D57*
%TO.C,FB2*%
X158220000Y-47787679D03*
X158220000Y-44637679D03*
%TD*%
D58*
%TO.C,J1*%
X156750000Y-105082679D03*
X156250000Y-105082679D03*
X155750000Y-105082679D03*
X155250000Y-105082679D03*
X154750000Y-105082679D03*
X154250000Y-105082679D03*
X153750000Y-105082679D03*
X153250000Y-105082679D03*
X152750000Y-105082679D03*
X152250000Y-105082679D03*
X151750000Y-105082679D03*
X151250000Y-105082679D03*
X150750000Y-105082679D03*
X150250000Y-105082679D03*
X149750000Y-105082679D03*
X149250000Y-105082679D03*
X148750000Y-105082679D03*
X148250000Y-105082679D03*
X147750000Y-105082679D03*
X147250000Y-105082679D03*
X146750000Y-105082679D03*
X146250000Y-105082679D03*
X145750000Y-105082679D03*
X145250000Y-105082679D03*
X144750000Y-105082679D03*
X144250000Y-105082679D03*
X143750000Y-105082679D03*
X143250000Y-105082679D03*
D59*
X158250000Y-105987679D03*
D60*
X141750000Y-105987679D03*
%TD*%
D14*
%TO.C,D8*%
X148404812Y-99042679D03*
X149054812Y-99042679D03*
X149704812Y-99042679D03*
X149704812Y-101242679D03*
X149054812Y-101242679D03*
X148404812Y-101242679D03*
%TD*%
D20*
%TO.C,D17*%
X171450000Y-39332679D03*
X171450000Y-40232679D03*
X170550000Y-40232679D03*
X170550000Y-39332679D03*
%TD*%
D16*
%TO.C,R17*%
X138095000Y-69952679D03*
X136445000Y-69952679D03*
%TD*%
M02*
