%TF.GenerationSoftware,KiCad,Pcbnew,8.0.8*%
%TF.CreationDate,2025-01-29T17:42:58+00:00*%
%TF.ProjectId,mariposa,6d617269-706f-4736-912e-6b696361645f,2.0*%
%TF.SameCoordinates,Original*%
%TF.FileFunction,Profile,NP*%
%FSLAX46Y46*%
G04 Gerber Fmt 4.6, Leading zero omitted, Abs format (unit mm)*
G04 Created by KiCad (PCBNEW 8.0.8) date 2025-01-29 17:42:58*
%MOMM*%
%LPD*%
G01*
G04 APERTURE LIST*
%TA.AperFunction,Profile*%
%ADD10C,0.050000*%
%TD*%
%TA.AperFunction,Profile*%
%ADD11C,0.201083*%
%TD*%
G04 APERTURE END LIST*
D10*
X144500000Y-76300000D02*
G75*
G02*
X145000000Y-75800000I500000J0D01*
G01*
X145000000Y-76800000D02*
G75*
G02*
X144500000Y-76300000I0J500000D01*
G01*
D11*
X170894960Y-36045845D02*
X171094030Y-36059773D01*
X171292866Y-36083263D01*
X171490953Y-36116166D01*
X171687772Y-36158333D01*
X171882808Y-36209617D01*
X172075546Y-36269870D01*
X172265468Y-36338944D01*
X172452058Y-36416690D01*
X172634800Y-36502960D01*
X172813179Y-36597606D01*
X172986677Y-36700480D01*
X173154778Y-36811433D01*
X173316967Y-36930318D01*
X173472726Y-37056987D01*
X173621540Y-37191291D01*
X173762893Y-37333082D01*
X173896267Y-37482212D01*
X174021148Y-37638533D01*
X174137018Y-37801897D01*
X174243361Y-37972155D01*
X174339662Y-38149159D01*
X174425403Y-38332762D01*
X174500070Y-38522815D01*
X174567900Y-38736345D01*
X174620159Y-38951885D01*
X174657261Y-39168844D01*
X174679619Y-39386630D01*
X174687648Y-39604652D01*
X174681760Y-39822320D01*
X174662370Y-40039040D01*
X174629892Y-40254222D01*
X174584739Y-40467275D01*
X174527326Y-40677608D01*
X174458066Y-40884628D01*
X174377373Y-41087745D01*
X174285661Y-41286368D01*
X174183344Y-41479904D01*
X174070835Y-41667763D01*
X173948548Y-41849354D01*
X173816898Y-42024084D01*
X173676298Y-42191363D01*
X173527162Y-42350599D01*
X173369903Y-42501201D01*
X173204936Y-42642578D01*
X173032675Y-42774138D01*
X172853533Y-42895290D01*
X172667923Y-43005443D01*
X172476261Y-43104004D01*
X172278960Y-43190384D01*
X172076433Y-43263990D01*
X171869094Y-43324232D01*
X171657358Y-43370517D01*
X171441638Y-43402255D01*
X171222348Y-43418854D01*
X170999902Y-43419722D01*
X170808978Y-43408119D01*
X170624721Y-43386274D01*
X170447090Y-43354883D01*
X170276048Y-43314642D01*
X170111552Y-43266247D01*
X169953565Y-43210394D01*
X169802046Y-43147778D01*
X169656955Y-43079095D01*
X169518253Y-43005042D01*
X169385901Y-42926313D01*
X169259857Y-42843605D01*
X169140083Y-42757613D01*
X168919185Y-42578562D01*
X168722888Y-42394726D01*
X168550875Y-42211672D01*
X168402828Y-42034965D01*
X168278430Y-41870172D01*
X168177362Y-41722859D01*
X168043946Y-41502940D01*
X168000039Y-41419738D01*
X167936623Y-41425284D01*
X167859986Y-41435332D01*
X167755738Y-41452997D01*
X167625635Y-41480356D01*
X167471431Y-41519486D01*
X167294883Y-41572462D01*
X167097747Y-41641360D01*
X166881777Y-41728258D01*
X166767279Y-41779105D01*
X166648731Y-41835230D01*
X166526352Y-41896893D01*
X166400363Y-41964354D01*
X166270982Y-42037872D01*
X166138429Y-42117705D01*
X166002924Y-42204115D01*
X165864686Y-42297361D01*
X165723934Y-42397701D01*
X165580888Y-42505396D01*
X165435767Y-42620705D01*
X165288791Y-42743887D01*
X165140179Y-42875203D01*
X164990151Y-43014911D01*
X164906068Y-43097990D01*
X164827184Y-43181448D01*
X164753322Y-43265302D01*
X164684306Y-43349573D01*
X164619957Y-43434281D01*
X164560099Y-43519444D01*
X164504554Y-43605082D01*
X164453147Y-43691215D01*
X164362032Y-43865044D01*
X164285339Y-44041086D01*
X164221649Y-44219498D01*
X164169547Y-44400435D01*
X164127615Y-44584054D01*
X164094435Y-44770512D01*
X164068592Y-44959964D01*
X164048668Y-45152566D01*
X164020910Y-45547848D01*
X163999825Y-45957606D01*
X165002543Y-46718975D01*
X165957408Y-47530721D01*
X166862098Y-48390675D01*
X167714289Y-49296673D01*
X168511657Y-50246547D01*
X169251880Y-51238131D01*
X169932633Y-52269258D01*
X170551593Y-53337762D01*
X171106436Y-54441476D01*
X171594838Y-55578234D01*
X172014477Y-56745869D01*
X172363028Y-57942215D01*
X172638168Y-59165105D01*
X172837574Y-60412372D01*
X172908150Y-61044470D01*
X172958921Y-61681851D01*
X172989597Y-62324242D01*
X172999886Y-62971373D01*
X172960671Y-64252241D01*
X172844328Y-65509785D01*
X172652816Y-66742350D01*
X172388090Y-67948280D01*
X172052109Y-69125919D01*
X171646828Y-70273611D01*
X171174204Y-71389700D01*
X170636195Y-72472528D01*
X170034757Y-73520442D01*
X169371848Y-74531783D01*
X168649423Y-75504896D01*
X167869441Y-76438126D01*
X167033857Y-77329815D01*
X166144629Y-78178308D01*
X165203713Y-78981949D01*
X164213067Y-79739081D01*
X164175876Y-79766951D01*
X164140315Y-79796243D01*
X164106399Y-79826894D01*
X164074142Y-79858837D01*
X164043562Y-79892008D01*
X164014673Y-79926341D01*
X163987491Y-79961772D01*
X163962031Y-79998235D01*
X163938308Y-80035664D01*
X163916340Y-80073996D01*
X163896140Y-80113164D01*
X163877724Y-80153104D01*
X163861108Y-80193750D01*
X163846308Y-80235038D01*
X163833338Y-80276901D01*
X163822215Y-80319276D01*
X163812954Y-80362096D01*
X163805570Y-80405297D01*
X163800078Y-80448813D01*
X163796496Y-80492579D01*
X163794837Y-80536531D01*
X163795117Y-80580602D01*
X163797352Y-80624729D01*
X163801558Y-80668844D01*
X163807750Y-80712885D01*
X163815943Y-80756784D01*
X163826153Y-80800478D01*
X163838395Y-80843901D01*
X163852685Y-80886988D01*
X163869039Y-80929673D01*
X163887471Y-80971892D01*
X163907998Y-81013579D01*
X172115380Y-96747558D01*
X172272504Y-97068365D01*
X172412449Y-97395240D01*
X172535163Y-97727509D01*
X172640596Y-98064498D01*
X172728697Y-98405536D01*
X172799414Y-98749948D01*
X172852697Y-99097062D01*
X172888494Y-99446204D01*
X172906753Y-99796701D01*
X172907425Y-100147880D01*
X172890457Y-100499068D01*
X172855799Y-100849591D01*
X172803399Y-101198776D01*
X172733207Y-101545951D01*
X172645170Y-101890441D01*
X172539239Y-102231574D01*
X172416022Y-102566862D01*
X172276554Y-102893933D01*
X172121285Y-103212284D01*
X171950665Y-103521413D01*
X171765142Y-103820817D01*
X171565168Y-104109993D01*
X171351190Y-104388439D01*
X171123660Y-104655652D01*
X170883027Y-104911129D01*
X170629739Y-105154368D01*
X170364248Y-105384866D01*
X170087002Y-105602119D01*
X169798452Y-105805627D01*
X169499047Y-105994885D01*
X169189236Y-106169391D01*
X168869470Y-106328643D01*
X163882607Y-108655921D01*
X163706236Y-108743495D01*
X163535979Y-108838590D01*
X163371951Y-108940915D01*
X163214270Y-109050178D01*
X163063053Y-109166087D01*
X162918417Y-109288349D01*
X162780478Y-109416674D01*
X162649353Y-109550769D01*
X162525158Y-109690342D01*
X162408011Y-109835102D01*
X162298028Y-109984757D01*
X162195326Y-110139014D01*
X162100021Y-110297582D01*
X162012232Y-110460169D01*
X161932073Y-110626482D01*
X161859662Y-110796231D01*
X161795116Y-110969123D01*
X161738551Y-111144867D01*
X161690085Y-111323170D01*
X161649833Y-111503740D01*
X161617913Y-111686287D01*
X161594442Y-111870517D01*
X161579536Y-112056139D01*
X161573311Y-112242861D01*
X161575886Y-112430391D01*
X161587375Y-112618437D01*
X161607897Y-112806708D01*
X161637568Y-112994911D01*
X161676505Y-113182754D01*
X161724824Y-113369947D01*
X161782642Y-113556196D01*
X161850076Y-113741210D01*
X162978742Y-116558279D01*
X164341462Y-119844751D01*
X165089571Y-121593228D01*
X165870969Y-123374112D01*
X166677246Y-125159089D01*
X167499993Y-126919845D01*
X167908136Y-127886686D01*
X168198818Y-128818646D01*
X168377624Y-129715996D01*
X168450138Y-130579014D01*
X168421946Y-131407972D01*
X168298633Y-132203147D01*
X168085781Y-132964813D01*
X167788977Y-133693244D01*
X167413805Y-134388715D01*
X166965850Y-135051502D01*
X166450695Y-135681878D01*
X165873927Y-136280119D01*
X165241129Y-136846499D01*
X164557886Y-137381293D01*
X163829782Y-137884776D01*
X163062404Y-138357222D01*
X162261334Y-138798907D01*
X161432157Y-139210105D01*
X160580459Y-139591091D01*
X159711824Y-139942139D01*
X157946081Y-140555521D01*
X156179606Y-141052451D01*
X154457074Y-141435126D01*
X152823164Y-141705744D01*
X151322553Y-141866503D01*
X149999917Y-141919600D01*
X148765182Y-141866503D01*
X147340746Y-141705744D01*
X145771287Y-141435126D01*
X144101484Y-141052451D01*
X142376014Y-140555521D01*
X140639555Y-139942139D01*
X138936787Y-139210105D01*
X137312387Y-138357222D01*
X136543538Y-137884776D01*
X135811034Y-137381293D01*
X135120462Y-136846499D01*
X134477406Y-136280119D01*
X133887451Y-135681878D01*
X133356181Y-135051502D01*
X132889181Y-134388715D01*
X132492037Y-133693244D01*
X132170332Y-132964813D01*
X131929653Y-132203147D01*
X131775582Y-131407972D01*
X131713706Y-130579014D01*
X131749609Y-129715996D01*
X131888876Y-128818646D01*
X132137092Y-127886686D01*
X132499841Y-126919845D01*
X135552979Y-119720365D01*
X138036797Y-113773231D01*
X138108696Y-113586977D01*
X138170734Y-113399299D01*
X138223029Y-113210502D01*
X138265700Y-113020889D01*
X138298865Y-112830765D01*
X138322643Y-112640435D01*
X138337151Y-112450203D01*
X138342508Y-112260374D01*
X138338832Y-112071251D01*
X138326242Y-111883140D01*
X138304856Y-111696345D01*
X138274792Y-111511170D01*
X138236169Y-111327919D01*
X138189104Y-111146898D01*
X138133717Y-110968410D01*
X138070125Y-110792761D01*
X137998446Y-110620254D01*
X137918800Y-110451193D01*
X137831304Y-110285884D01*
X137736076Y-110124631D01*
X137633236Y-109967738D01*
X137522901Y-109815510D01*
X137405189Y-109668250D01*
X137280219Y-109526265D01*
X137148110Y-109389857D01*
X137008978Y-109259332D01*
X136862944Y-109134993D01*
X136710125Y-109017146D01*
X136550639Y-108906095D01*
X136384604Y-108802143D01*
X136212140Y-108705597D01*
X136033364Y-108616759D01*
X131130364Y-106328643D01*
X130810642Y-106169391D01*
X130500864Y-105994885D01*
X130201482Y-105805627D01*
X129912946Y-105602119D01*
X129635707Y-105384866D01*
X129370216Y-105154368D01*
X129116923Y-104911129D01*
X128876280Y-104655652D01*
X128648736Y-104388439D01*
X128434744Y-104109993D01*
X128234752Y-103820817D01*
X128049213Y-103521413D01*
X127878577Y-103212284D01*
X127723295Y-102893933D01*
X127583817Y-102566862D01*
X127460595Y-102231574D01*
X127354664Y-101890441D01*
X127266628Y-101545951D01*
X127196436Y-101198776D01*
X127144036Y-100849591D01*
X127109379Y-100499068D01*
X127092411Y-100147880D01*
X127093083Y-99796701D01*
X127111343Y-99446204D01*
X127147140Y-99097062D01*
X127200423Y-98749948D01*
X127271140Y-98405536D01*
X127359241Y-98064498D01*
X127464674Y-97727509D01*
X127587388Y-97395240D01*
X127727331Y-97068365D01*
X127884454Y-96747558D01*
X136093148Y-81014113D01*
X136113699Y-80972375D01*
X136132153Y-80930104D01*
X136148525Y-80887365D01*
X136162830Y-80844224D01*
X136175084Y-80800746D01*
X136185303Y-80756996D01*
X136193503Y-80713039D01*
X136199698Y-80668942D01*
X136206138Y-80580584D01*
X136204748Y-80492445D01*
X136195652Y-80405047D01*
X136178975Y-80318912D01*
X136154841Y-80234564D01*
X136123375Y-80152525D01*
X136084700Y-80073316D01*
X136038942Y-79997461D01*
X136013445Y-79960954D01*
X135986224Y-79925481D01*
X135957295Y-79891108D01*
X135926672Y-79857900D01*
X135894372Y-79825921D01*
X135860409Y-79795239D01*
X135824800Y-79765917D01*
X135787560Y-79738021D01*
X134796775Y-78981075D01*
X133855737Y-78177598D01*
X132966403Y-77329246D01*
X132130729Y-76437679D01*
X131350670Y-75504552D01*
X130628182Y-74531524D01*
X129965221Y-73520253D01*
X129363742Y-72472396D01*
X128825701Y-71389611D01*
X128353053Y-70273555D01*
X127947755Y-69125887D01*
X127611763Y-67948264D01*
X127347030Y-66742343D01*
X127155515Y-65509783D01*
X127039171Y-64252240D01*
X126999955Y-62971373D01*
X127041183Y-61677743D01*
X127163304Y-60404290D01*
X127363971Y-59153202D01*
X127640839Y-57926667D01*
X127991561Y-56726873D01*
X128413791Y-55556008D01*
X128905184Y-54416259D01*
X129463393Y-53309815D01*
X130086073Y-52238864D01*
X130770877Y-51205593D01*
X131515460Y-50212190D01*
X132317475Y-49260843D01*
X133174577Y-48353740D01*
X134084419Y-47493068D01*
X135044656Y-46681016D01*
X136052941Y-45919772D01*
X136042010Y-45714937D01*
X136029817Y-45514595D01*
X136015094Y-45318470D01*
X136006389Y-45221903D01*
X135996575Y-45126288D01*
X135984725Y-45025510D01*
X135971276Y-44925756D01*
X135956041Y-44826983D01*
X135938834Y-44729145D01*
X135919469Y-44632202D01*
X135897761Y-44536107D01*
X135873522Y-44440819D01*
X135846566Y-44346293D01*
X135819061Y-44259733D01*
X135788934Y-44173761D01*
X135756041Y-44088349D01*
X135720234Y-44003464D01*
X135681367Y-43919078D01*
X135639293Y-43835158D01*
X135593866Y-43751675D01*
X135544940Y-43668597D01*
X135492367Y-43585895D01*
X135436002Y-43503537D01*
X135375697Y-43421493D01*
X135311307Y-43339732D01*
X135242684Y-43258224D01*
X135169683Y-43176938D01*
X135092156Y-43095844D01*
X135009957Y-43014911D01*
X134711272Y-42743887D01*
X134419141Y-42505396D01*
X134135320Y-42297361D01*
X133861561Y-42117705D01*
X133599620Y-41964354D01*
X133351252Y-41835230D01*
X133118211Y-41728258D01*
X132902251Y-41641360D01*
X132705128Y-41572462D01*
X132528595Y-41519486D01*
X132244319Y-41452997D01*
X132063460Y-41425284D01*
X132000054Y-41419738D01*
X131956136Y-41502940D01*
X131900763Y-41598593D01*
X131822691Y-41722859D01*
X131721604Y-41870172D01*
X131597183Y-42034965D01*
X131449113Y-42211672D01*
X131277077Y-42394726D01*
X131181972Y-42486894D01*
X131080756Y-42578562D01*
X130973390Y-42669034D01*
X130859835Y-42757613D01*
X130740050Y-42843605D01*
X130613996Y-42926313D01*
X130481633Y-43005042D01*
X130342922Y-43079095D01*
X130197823Y-43147778D01*
X130046297Y-43210394D01*
X129888303Y-43266247D01*
X129723803Y-43314642D01*
X129552756Y-43354883D01*
X129375123Y-43386274D01*
X129190864Y-43408119D01*
X128999940Y-43419722D01*
X128777493Y-43418854D01*
X128558202Y-43402255D01*
X128342482Y-43370517D01*
X128130746Y-43324232D01*
X127923408Y-43263990D01*
X127720881Y-43190384D01*
X127523581Y-43104004D01*
X127331920Y-43005443D01*
X127146313Y-42895290D01*
X126967173Y-42774138D01*
X126794914Y-42642578D01*
X126629951Y-42501201D01*
X126472696Y-42350599D01*
X126323565Y-42191363D01*
X126182970Y-42024084D01*
X126051326Y-41849354D01*
X125929046Y-41667763D01*
X125816545Y-41479904D01*
X125714236Y-41286368D01*
X125622533Y-41087745D01*
X125541851Y-40884628D01*
X125472602Y-40677608D01*
X125415201Y-40467275D01*
X125370061Y-40254222D01*
X125337598Y-40039040D01*
X125318223Y-39822320D01*
X125312352Y-39604652D01*
X125320398Y-39386630D01*
X125342775Y-39168844D01*
X125379897Y-38951885D01*
X125432178Y-38736345D01*
X125500031Y-38522815D01*
X125574674Y-38332762D01*
X125660393Y-38149159D01*
X125756673Y-37972155D01*
X125862998Y-37801897D01*
X125978850Y-37638533D01*
X126103713Y-37482212D01*
X126237073Y-37333082D01*
X126378411Y-37191291D01*
X126527212Y-37056987D01*
X126682959Y-36930318D01*
X126845136Y-36811433D01*
X127013228Y-36700480D01*
X127186717Y-36597606D01*
X127365087Y-36502960D01*
X127547822Y-36416690D01*
X127734405Y-36338944D01*
X127924322Y-36269870D01*
X128117054Y-36209617D01*
X128312086Y-36158333D01*
X128508901Y-36116166D01*
X128706983Y-36083263D01*
X128905817Y-36059773D01*
X129104885Y-36045845D01*
X129303671Y-36041626D01*
X129501659Y-36047265D01*
X129698333Y-36062909D01*
X129893176Y-36088707D01*
X130085672Y-36124807D01*
X130275305Y-36171357D01*
X130461559Y-36228505D01*
X130643917Y-36296400D01*
X130821862Y-36375190D01*
X130963181Y-36446880D01*
X131096388Y-36522049D01*
X131221721Y-36600318D01*
X131339417Y-36681311D01*
X131449714Y-36764650D01*
X131552851Y-36849958D01*
X131649064Y-36936857D01*
X131738591Y-37024971D01*
X131821671Y-37113921D01*
X131898541Y-37203330D01*
X131969439Y-37292822D01*
X132034603Y-37382018D01*
X132148678Y-37558016D01*
X132242669Y-37728304D01*
X132318479Y-37889864D01*
X132378008Y-38039677D01*
X132423161Y-38174724D01*
X132455838Y-38291986D01*
X132491376Y-38461083D01*
X132499841Y-38522815D01*
X132662121Y-38496839D01*
X133114265Y-38446230D01*
X133432773Y-38424492D01*
X133804231Y-38411960D01*
X134222133Y-38413758D01*
X134679975Y-38435005D01*
X135171249Y-38480825D01*
X135689452Y-38556339D01*
X135956619Y-38606831D01*
X136228078Y-38666668D01*
X136503016Y-38736489D01*
X136780621Y-38816935D01*
X137060078Y-38908646D01*
X137340575Y-39012261D01*
X137621299Y-39128422D01*
X137901436Y-39257769D01*
X138180174Y-39400941D01*
X138456698Y-39558579D01*
X138730197Y-39731323D01*
X138999856Y-39919814D01*
X139222092Y-40089283D01*
X139436253Y-40264911D01*
X139642185Y-40446103D01*
X139839733Y-40632264D01*
X140028741Y-40822800D01*
X140209055Y-41017116D01*
X140380520Y-41214618D01*
X140542981Y-41414711D01*
X140696283Y-41616802D01*
X140840270Y-41820294D01*
X140974788Y-42024594D01*
X141099682Y-42229108D01*
X141214797Y-42433240D01*
X141319978Y-42636396D01*
X141415069Y-42837981D01*
X141499917Y-43037402D01*
X141995802Y-42859371D01*
X142497121Y-42691790D01*
X143003719Y-42534801D01*
X143515443Y-42388548D01*
X144032138Y-42253173D01*
X144553652Y-42128819D01*
X145079829Y-42015630D01*
X145610517Y-41913748D01*
X146145560Y-41823317D01*
X146684806Y-41744479D01*
X147228101Y-41677378D01*
X147775290Y-41622157D01*
X148326221Y-41578957D01*
X148880738Y-41547924D01*
X149438688Y-41529199D01*
X149999917Y-41522925D01*
X150561149Y-41529199D01*
X151119101Y-41547924D01*
X151673620Y-41578957D01*
X152224552Y-41622157D01*
X152771743Y-41677378D01*
X153315038Y-41744479D01*
X153854285Y-41823317D01*
X154389329Y-41913748D01*
X154920016Y-42015630D01*
X155446193Y-42128819D01*
X155967705Y-42253173D01*
X156484400Y-42388548D01*
X156996122Y-42534801D01*
X157502718Y-42691790D01*
X158499917Y-43037402D01*
X158584764Y-42837981D01*
X158679856Y-42636396D01*
X158785037Y-42433240D01*
X158900152Y-42229108D01*
X159025046Y-42024594D01*
X159159564Y-41820294D01*
X159303551Y-41616802D01*
X159456853Y-41414711D01*
X159619314Y-41214618D01*
X159790779Y-41017116D01*
X159971093Y-40822800D01*
X160160101Y-40632264D01*
X160357649Y-40446103D01*
X160563581Y-40264911D01*
X160777742Y-40089283D01*
X160999978Y-39919814D01*
X161269637Y-39731323D01*
X161543136Y-39558579D01*
X161819660Y-39400941D01*
X162098398Y-39257769D01*
X162659259Y-39012261D01*
X163219213Y-38816935D01*
X163771756Y-38666668D01*
X164310382Y-38556339D01*
X164828585Y-38480825D01*
X165319859Y-38435005D01*
X165777701Y-38413758D01*
X166195603Y-38411960D01*
X166885569Y-38446230D01*
X167499993Y-38522815D01*
X167508458Y-38461083D01*
X167521891Y-38388446D01*
X167543996Y-38291986D01*
X167576673Y-38174724D01*
X167621826Y-38039677D01*
X167681356Y-37889864D01*
X167717106Y-37810364D01*
X167757165Y-37728304D01*
X167801769Y-37644062D01*
X167851156Y-37558016D01*
X167905564Y-37470542D01*
X167965231Y-37382018D01*
X168030395Y-37292822D01*
X168101293Y-37203330D01*
X168178163Y-37113921D01*
X168261243Y-37024971D01*
X168350770Y-36936857D01*
X168446984Y-36849958D01*
X168550120Y-36764650D01*
X168660417Y-36681311D01*
X168778113Y-36600318D01*
X168903446Y-36522049D01*
X169036653Y-36446880D01*
X169177972Y-36375190D01*
X169355918Y-36296400D01*
X169538276Y-36228505D01*
X169724531Y-36171357D01*
X169914165Y-36124807D01*
X170106662Y-36088707D01*
X170301506Y-36062909D01*
X170498182Y-36047265D01*
X170696171Y-36041626D01*
X170894960Y-36045845D01*
D10*
X145000000Y-76800000D02*
X155000000Y-76800000D01*
X155500000Y-76300000D02*
G75*
G02*
X155000000Y-76800000I-500000J0D01*
G01*
X155000000Y-75800000D02*
G75*
G02*
X155500000Y-76300000I0J-500000D01*
G01*
X155000000Y-75800000D02*
X145000000Y-75800000D01*
%TO.C,D1*%
X149250000Y-71182679D02*
X150750000Y-71182679D01*
X149150000Y-73282679D02*
X149150000Y-71282679D01*
X150850000Y-71282679D02*
X150850000Y-73282679D01*
X150750000Y-73382679D02*
X149250000Y-73382679D01*
X149150000Y-71282679D02*
G75*
G02*
X149250000Y-71182679I99999J1D01*
G01*
X150750000Y-71182679D02*
G75*
G02*
X150850000Y-71282679I1J-99999D01*
G01*
X149250000Y-73382679D02*
G75*
G02*
X149150000Y-73282679I0J100000D01*
G01*
X150850000Y-73282679D02*
G75*
G02*
X150750000Y-73382679I-100000J0D01*
G01*
%TO.C,D5*%
X128020000Y-40350000D02*
X128020000Y-38850000D01*
X130120000Y-40450000D02*
X128120000Y-40450000D01*
X128120000Y-38750000D02*
X130120000Y-38750000D01*
X130220000Y-38850000D02*
X130220000Y-40350000D01*
X128120000Y-40450000D02*
G75*
G02*
X128020000Y-40350000I-1J99999D01*
G01*
X128020000Y-38850000D02*
G75*
G02*
X128120000Y-38750000I99999J1D01*
G01*
X130220000Y-40350000D02*
G75*
G02*
X130120000Y-40450000I-100000J0D01*
G01*
X130120000Y-38750000D02*
G75*
G02*
X130220000Y-38850000I0J-100000D01*
G01*
%TO.C,D6*%
X172050000Y-38850000D02*
X172050000Y-40350000D01*
X169950000Y-38750000D02*
X171950000Y-38750000D01*
X171950000Y-40450000D02*
X169950000Y-40450000D01*
X169850000Y-40350000D02*
X169850000Y-38850000D01*
X171950000Y-38750000D02*
G75*
G02*
X172050000Y-38850000I1J-99999D01*
G01*
X172050000Y-40350000D02*
G75*
G02*
X171950000Y-40450000I-99999J-1D01*
G01*
X169850000Y-38850000D02*
G75*
G02*
X169950000Y-38750000I100000J0D01*
G01*
X169950000Y-40450000D02*
G75*
G02*
X169850000Y-40350000I0J100000D01*
G01*
%TD*%
M02*
