%TF.GenerationSoftware,KiCad,Pcbnew,9.0.1*%
%TF.CreationDate,2025-04-05T00:33:59+01:00*%
%TF.ProjectId,mariposa,6d617269-706f-4736-912e-6b696361645f,2.0*%
%TF.SameCoordinates,Original*%
%TF.FileFunction,Soldermask,Bot*%
%TF.FilePolarity,Negative*%
%FSLAX46Y46*%
G04 Gerber Fmt 4.6, Leading zero omitted, Abs format (unit mm)*
G04 Created by KiCad (PCBNEW 9.0.1) date 2025-04-05 00:33:59*
%MOMM*%
%LPD*%
G01*
G04 APERTURE LIST*
G04 Aperture macros list*
%AMRoundRect*
0 Rectangle with rounded corners*
0 $1 Rounding radius*
0 $2 $3 $4 $5 $6 $7 $8 $9 X,Y pos of 4 corners*
0 Add a 4 corners polygon primitive as box body*
4,1,4,$2,$3,$4,$5,$6,$7,$8,$9,$2,$3,0*
0 Add four circle primitives for the rounded corners*
1,1,$1+$1,$2,$3*
1,1,$1+$1,$4,$5*
1,1,$1+$1,$6,$7*
1,1,$1+$1,$8,$9*
0 Add four rect primitives between the rounded corners*
20,1,$1+$1,$2,$3,$4,$5,0*
20,1,$1+$1,$4,$5,$6,$7,0*
20,1,$1+$1,$6,$7,$8,$9,0*
20,1,$1+$1,$8,$9,$2,$3,0*%
G04 Aperture macros list end*
%ADD10C,0.000000*%
%ADD11C,0.670000*%
%ADD12O,1.020000X2.120000*%
%ADD13O,1.020000X1.820000*%
%ADD14C,5.600000*%
%ADD15RoundRect,0.250000X0.250000X-1.250000X0.250000X1.250000X-0.250000X1.250000X-0.250000X-1.250000X0*%
%ADD16C,0.990600*%
%ADD17C,0.787400*%
G04 APERTURE END LIST*
D10*
G36*
X157647091Y-137329845D02*
G01*
X157658206Y-137331354D01*
X157669259Y-137333696D01*
X157680207Y-137336882D01*
X157691012Y-137340918D01*
X157696310Y-137343242D01*
X157701488Y-137345745D01*
X157706544Y-137348422D01*
X157711471Y-137351272D01*
X157716270Y-137354285D01*
X157720936Y-137357461D01*
X157725464Y-137360793D01*
X157729856Y-137364277D01*
X157734103Y-137367907D01*
X157738205Y-137371681D01*
X157742160Y-137375592D01*
X157745962Y-137379637D01*
X157749609Y-137383810D01*
X157753099Y-137388106D01*
X157756427Y-137392524D01*
X157759591Y-137397056D01*
X157762587Y-137401698D01*
X157765414Y-137406445D01*
X157768066Y-137411294D01*
X157770542Y-137416238D01*
X157772836Y-137421276D01*
X157774949Y-137426399D01*
X157776875Y-137431606D01*
X157778612Y-137436890D01*
X157780155Y-137442247D01*
X157781503Y-137447673D01*
X157782654Y-137453163D01*
X157783601Y-137458713D01*
X157784343Y-137464316D01*
X157784877Y-137469970D01*
X157785201Y-137475671D01*
X157785308Y-137481411D01*
X157785309Y-137633812D01*
X158547309Y-137633812D01*
X158586536Y-137634803D01*
X158625245Y-137637744D01*
X158663391Y-137642587D01*
X158700926Y-137649286D01*
X158737799Y-137657791D01*
X158773965Y-137668055D01*
X158809376Y-137680031D01*
X158843982Y-137693669D01*
X158877739Y-137708924D01*
X158910596Y-137725748D01*
X158942507Y-137744091D01*
X158973423Y-137763906D01*
X159003296Y-137785146D01*
X159032079Y-137807763D01*
X159059726Y-137831708D01*
X159086185Y-137856934D01*
X159111412Y-137883394D01*
X159135357Y-137911041D01*
X159157975Y-137939825D01*
X159179215Y-137969698D01*
X159199029Y-138000613D01*
X159217373Y-138032525D01*
X159234196Y-138065382D01*
X159249449Y-138099138D01*
X159263089Y-138133745D01*
X159275065Y-138169155D01*
X159285329Y-138205321D01*
X159293835Y-138242195D01*
X159300533Y-138279728D01*
X159305376Y-138317875D01*
X159308318Y-138356585D01*
X159309309Y-138395811D01*
X159309110Y-138403665D01*
X159308523Y-138411414D01*
X159307555Y-138419050D01*
X159306217Y-138426562D01*
X159304518Y-138433942D01*
X159302467Y-138441178D01*
X159300075Y-138448263D01*
X159297351Y-138455186D01*
X159294302Y-138461939D01*
X159290941Y-138468511D01*
X159287274Y-138474893D01*
X159283315Y-138481076D01*
X159279070Y-138487049D01*
X159274550Y-138492805D01*
X159269763Y-138498332D01*
X159264720Y-138503623D01*
X159259429Y-138508666D01*
X159253902Y-138513452D01*
X159248147Y-138517972D01*
X159242174Y-138522217D01*
X159235991Y-138526177D01*
X159229609Y-138529844D01*
X159223037Y-138533205D01*
X159216283Y-138536253D01*
X159209361Y-138538979D01*
X159202275Y-138541370D01*
X159195039Y-138543422D01*
X159187660Y-138545121D01*
X159180148Y-138546458D01*
X159172512Y-138547425D01*
X159164763Y-138548014D01*
X159156909Y-138548212D01*
X159149054Y-138548014D01*
X159141305Y-138547426D01*
X159133669Y-138546459D01*
X159126158Y-138545120D01*
X159118779Y-138543422D01*
X159111541Y-138541370D01*
X159104456Y-138538979D01*
X159097533Y-138536253D01*
X159090781Y-138533205D01*
X159084209Y-138529844D01*
X159077827Y-138526178D01*
X159071644Y-138522217D01*
X159065671Y-138517973D01*
X159059914Y-138513452D01*
X159054387Y-138508665D01*
X159049098Y-138503622D01*
X159044055Y-138498333D01*
X159039268Y-138492805D01*
X159034747Y-138487050D01*
X159030503Y-138481076D01*
X159026542Y-138474894D01*
X159022876Y-138468511D01*
X159019515Y-138461939D01*
X159016467Y-138455186D01*
X159013742Y-138448263D01*
X159011349Y-138441178D01*
X159009299Y-138433942D01*
X159007599Y-138426562D01*
X159006262Y-138419049D01*
X159005294Y-138411415D01*
X159004706Y-138403665D01*
X159004508Y-138395811D01*
X159003914Y-138372291D01*
X159002148Y-138349080D01*
X158999239Y-138326206D01*
X158995217Y-138303696D01*
X158990109Y-138281581D01*
X158983946Y-138259889D01*
X158976756Y-138238648D01*
X158968567Y-138217887D01*
X158959408Y-138197637D01*
X158949309Y-138177924D01*
X158938296Y-138158778D01*
X158926402Y-138140226D01*
X158913653Y-138122300D01*
X158900077Y-138105028D01*
X158885704Y-138088437D01*
X158870564Y-138072557D01*
X158854682Y-138057415D01*
X158838091Y-138043044D01*
X158820820Y-138029467D01*
X158802892Y-138016719D01*
X158784343Y-138004824D01*
X158765197Y-137993811D01*
X158745484Y-137983712D01*
X158725233Y-137974554D01*
X158704472Y-137966365D01*
X158683232Y-137959174D01*
X158661539Y-137953011D01*
X158639423Y-137947904D01*
X158616915Y-137943882D01*
X158594040Y-137940973D01*
X158570828Y-137939206D01*
X158547308Y-137938611D01*
X157785309Y-137938612D01*
X157785309Y-138091011D01*
X157784877Y-138102458D01*
X157783601Y-138113730D01*
X157781504Y-138124794D01*
X157778612Y-138135607D01*
X157774948Y-138146135D01*
X157770542Y-138156334D01*
X157765414Y-138166172D01*
X157759591Y-138175606D01*
X157753098Y-138184599D01*
X157745963Y-138193112D01*
X157738206Y-138201109D01*
X157729856Y-138208549D01*
X157720936Y-138215395D01*
X157711471Y-138221607D01*
X157701488Y-138227149D01*
X157691012Y-138231982D01*
X157680208Y-138236013D01*
X157669259Y-138239183D01*
X157658205Y-138241504D01*
X157647092Y-138242987D01*
X157635963Y-138243641D01*
X157624858Y-138243475D01*
X157613826Y-138242503D01*
X157602905Y-138240733D01*
X157592141Y-138238176D01*
X157581576Y-138234842D01*
X157571255Y-138230741D01*
X157561219Y-138225887D01*
X157551511Y-138220286D01*
X157542178Y-138213952D01*
X157533260Y-138206892D01*
X157524800Y-138199120D01*
X157220000Y-137894321D01*
X157214594Y-137888633D01*
X157209535Y-137882741D01*
X157204827Y-137876659D01*
X157200467Y-137870400D01*
X157196454Y-137863978D01*
X157192792Y-137857406D01*
X157189478Y-137850698D01*
X157186514Y-137843868D01*
X157183898Y-137836929D01*
X157181631Y-137829894D01*
X157179711Y-137822778D01*
X157178143Y-137815593D01*
X157176922Y-137808355D01*
X157176049Y-137801076D01*
X157175526Y-137793769D01*
X157175352Y-137786450D01*
X157175526Y-137779130D01*
X157176050Y-137771822D01*
X157176922Y-137764544D01*
X157178142Y-137757306D01*
X157179712Y-137750122D01*
X157181630Y-137743006D01*
X157183898Y-137735970D01*
X157186514Y-137729032D01*
X157189479Y-137722201D01*
X157192793Y-137715494D01*
X157196455Y-137708922D01*
X157200467Y-137702500D01*
X157204826Y-137696240D01*
X157209535Y-137690159D01*
X157214593Y-137684267D01*
X157220000Y-137678579D01*
X157524800Y-137373779D01*
X157533260Y-137365927D01*
X157542177Y-137358811D01*
X157551511Y-137352436D01*
X157561219Y-137346812D01*
X157571254Y-137341946D01*
X157581576Y-137337848D01*
X157592141Y-137334526D01*
X157602905Y-137331987D01*
X157613825Y-137330243D01*
X157624859Y-137329297D01*
X157635962Y-137329163D01*
X157647091Y-137329845D01*
G37*
G36*
X136643479Y-137934094D02*
G01*
X136645338Y-137934209D01*
X136647178Y-137934399D01*
X136648999Y-137934662D01*
X136652573Y-137935406D01*
X136656045Y-137936429D01*
X136659402Y-137937722D01*
X136662632Y-137939274D01*
X136665720Y-137941075D01*
X136668654Y-137943118D01*
X136671421Y-137945388D01*
X136674007Y-137947879D01*
X136676399Y-137950578D01*
X136678584Y-137953477D01*
X136680548Y-137956565D01*
X136682281Y-137959833D01*
X136683768Y-137963268D01*
X136684413Y-137965047D01*
X136684992Y-137966864D01*
X136743202Y-138171122D01*
X136947459Y-138229330D01*
X136949229Y-138229863D01*
X136950967Y-138230468D01*
X136952670Y-138231144D01*
X136954338Y-138231889D01*
X136955970Y-138232700D01*
X136957560Y-138233577D01*
X136959113Y-138234516D01*
X136960622Y-138235516D01*
X136962088Y-138236574D01*
X136963510Y-138237690D01*
X136964885Y-138238859D01*
X136966211Y-138240083D01*
X136967488Y-138241359D01*
X136968713Y-138242681D01*
X136969888Y-138244054D01*
X136971007Y-138245470D01*
X136972070Y-138246931D01*
X136973076Y-138248431D01*
X136974023Y-138249972D01*
X136974909Y-138251551D01*
X136975733Y-138253165D01*
X136976495Y-138254813D01*
X136977191Y-138256494D01*
X136977820Y-138258203D01*
X136978381Y-138259941D01*
X136978872Y-138261704D01*
X136979292Y-138263492D01*
X136979639Y-138265301D01*
X136979911Y-138267131D01*
X136980108Y-138268979D01*
X136980227Y-138270843D01*
X136980267Y-138272723D01*
X136980229Y-138274600D01*
X136980114Y-138276460D01*
X136979924Y-138278300D01*
X136979660Y-138280122D01*
X136978917Y-138283694D01*
X136977893Y-138287167D01*
X136976601Y-138290525D01*
X136975049Y-138293753D01*
X136973247Y-138296842D01*
X136971205Y-138299775D01*
X136968934Y-138302542D01*
X136966443Y-138305128D01*
X136963744Y-138307521D01*
X136960845Y-138309706D01*
X136957757Y-138311672D01*
X136954489Y-138313403D01*
X136951054Y-138314889D01*
X136949276Y-138315534D01*
X136947458Y-138316113D01*
X136743201Y-138374323D01*
X136684992Y-138578580D01*
X136684459Y-138580350D01*
X136683854Y-138582088D01*
X136683178Y-138583791D01*
X136682433Y-138585459D01*
X136681623Y-138587090D01*
X136680746Y-138588682D01*
X136679808Y-138590233D01*
X136678807Y-138591744D01*
X136677749Y-138593210D01*
X136676632Y-138594631D01*
X136675463Y-138596005D01*
X136674239Y-138597332D01*
X136672965Y-138598610D01*
X136671641Y-138599836D01*
X136670269Y-138601009D01*
X136668853Y-138602129D01*
X136667392Y-138603192D01*
X136665891Y-138604197D01*
X136664350Y-138605145D01*
X136662771Y-138606030D01*
X136661157Y-138606856D01*
X136659510Y-138607616D01*
X136657829Y-138608312D01*
X136656119Y-138608942D01*
X136654383Y-138609503D01*
X136652618Y-138609994D01*
X136650831Y-138610413D01*
X136649022Y-138610760D01*
X136647191Y-138611033D01*
X136645344Y-138611230D01*
X136643479Y-138611348D01*
X136641600Y-138611389D01*
X136639723Y-138611350D01*
X136637864Y-138611235D01*
X136636022Y-138611045D01*
X136634201Y-138610782D01*
X136630629Y-138610038D01*
X136627157Y-138609016D01*
X136623797Y-138607722D01*
X136620569Y-138606171D01*
X136617481Y-138604368D01*
X136614548Y-138602326D01*
X136611780Y-138600055D01*
X136609193Y-138597566D01*
X136606802Y-138594865D01*
X136604617Y-138591965D01*
X136602650Y-138588878D01*
X136600920Y-138585611D01*
X136599433Y-138582175D01*
X136598789Y-138580397D01*
X136598209Y-138578581D01*
X136540000Y-138374321D01*
X136335743Y-138316114D01*
X136333972Y-138315580D01*
X136332235Y-138314976D01*
X136330531Y-138314300D01*
X136328864Y-138313554D01*
X136327232Y-138312743D01*
X136325640Y-138311867D01*
X136324089Y-138310928D01*
X136322579Y-138309930D01*
X136321113Y-138308871D01*
X136319691Y-138307756D01*
X136318316Y-138306585D01*
X136316991Y-138305360D01*
X136315713Y-138304086D01*
X136314485Y-138302762D01*
X136313314Y-138301390D01*
X136312194Y-138299974D01*
X136311131Y-138298515D01*
X136310125Y-138297012D01*
X136309178Y-138295472D01*
X136308292Y-138293893D01*
X136307466Y-138292279D01*
X136306706Y-138290630D01*
X136306010Y-138288951D01*
X136305382Y-138287242D01*
X136304820Y-138285503D01*
X136304329Y-138283740D01*
X136303909Y-138281953D01*
X136303562Y-138280142D01*
X136303289Y-138278313D01*
X136303093Y-138276465D01*
X136302974Y-138274600D01*
X136302934Y-138272723D01*
X136302972Y-138270845D01*
X136303088Y-138268985D01*
X136303277Y-138267144D01*
X136303541Y-138265323D01*
X136304284Y-138261749D01*
X136305307Y-138258277D01*
X136306599Y-138254920D01*
X136308152Y-138251690D01*
X136309955Y-138248602D01*
X136311996Y-138245668D01*
X136314267Y-138242901D01*
X136316757Y-138240316D01*
X136319457Y-138237924D01*
X136322356Y-138235738D01*
X136325444Y-138233774D01*
X136328711Y-138232041D01*
X136332147Y-138230557D01*
X136333925Y-138229910D01*
X136335741Y-138229330D01*
X136540000Y-138171122D01*
X136598209Y-137966863D01*
X136598742Y-137965093D01*
X136599347Y-137963356D01*
X136600023Y-137961652D01*
X136600769Y-137959984D01*
X136601579Y-137958354D01*
X136602455Y-137956763D01*
X136603394Y-137955210D01*
X136604392Y-137953701D01*
X136605452Y-137952234D01*
X136606567Y-137950814D01*
X136607738Y-137949438D01*
X136608963Y-137948111D01*
X136610236Y-137946834D01*
X136611560Y-137945609D01*
X136612932Y-137944434D01*
X136614348Y-137943316D01*
X136615808Y-137942252D01*
X136617310Y-137941246D01*
X136618850Y-137940299D01*
X136620430Y-137939413D01*
X136622044Y-137938589D01*
X136623692Y-137937828D01*
X136625372Y-137937133D01*
X136627081Y-137936502D01*
X136628819Y-137935941D01*
X136630583Y-137935450D01*
X136632370Y-137935030D01*
X136634180Y-137934684D01*
X136636009Y-137934411D01*
X136637858Y-137934215D01*
X136639722Y-137934096D01*
X136641600Y-137934056D01*
X136643479Y-137934094D01*
G37*
G36*
X136055170Y-138398779D02*
G01*
X136057920Y-138398953D01*
X136060652Y-138399241D01*
X136063356Y-138399641D01*
X136068682Y-138400766D01*
X136073874Y-138402309D01*
X136078905Y-138404256D01*
X136083756Y-138406591D01*
X136088400Y-138409292D01*
X136092815Y-138412347D01*
X136096975Y-138415736D01*
X136100857Y-138419443D01*
X136104436Y-138423452D01*
X136107691Y-138427742D01*
X136110592Y-138432300D01*
X136111905Y-138434675D01*
X136113121Y-138437108D01*
X136114237Y-138439601D01*
X136115251Y-138442148D01*
X136116159Y-138444750D01*
X136116958Y-138447404D01*
X136204800Y-138754322D01*
X136511717Y-138842163D01*
X136514417Y-138843008D01*
X136517060Y-138843957D01*
X136519643Y-138845006D01*
X136522165Y-138846152D01*
X136524623Y-138847392D01*
X136527016Y-138848725D01*
X136529344Y-138850146D01*
X136531602Y-138851655D01*
X136533789Y-138853247D01*
X136535904Y-138854919D01*
X136537945Y-138856671D01*
X136539911Y-138858496D01*
X136541796Y-138860396D01*
X136543605Y-138862365D01*
X136545330Y-138864402D01*
X136546973Y-138866504D01*
X136548529Y-138868668D01*
X136549999Y-138870892D01*
X136551380Y-138873171D01*
X136552670Y-138875505D01*
X136553868Y-138877889D01*
X136554971Y-138880323D01*
X136555977Y-138882802D01*
X136556886Y-138885323D01*
X136557695Y-138887885D01*
X136558401Y-138890484D01*
X136559004Y-138893119D01*
X136559502Y-138895787D01*
X136559892Y-138898483D01*
X136560173Y-138901205D01*
X136560343Y-138903952D01*
X136560400Y-138906721D01*
X136560341Y-138909491D01*
X136560167Y-138912242D01*
X136559878Y-138914972D01*
X136559480Y-138917677D01*
X136558356Y-138923002D01*
X136556812Y-138928193D01*
X136554864Y-138933227D01*
X136552532Y-138938077D01*
X136549828Y-138942721D01*
X136546774Y-138947137D01*
X136543385Y-138951297D01*
X136539677Y-138955178D01*
X136535670Y-138958757D01*
X136531379Y-138962010D01*
X136526820Y-138964913D01*
X136524448Y-138966225D01*
X136522013Y-138967442D01*
X136519521Y-138968559D01*
X136516972Y-138969572D01*
X136514369Y-138970479D01*
X136511717Y-138971279D01*
X136204800Y-139059122D01*
X136116958Y-139366038D01*
X136116113Y-139368737D01*
X136115164Y-139371381D01*
X136114115Y-139373964D01*
X136112969Y-139376485D01*
X136111728Y-139378944D01*
X136110396Y-139381338D01*
X136108974Y-139383664D01*
X136107467Y-139385923D01*
X136105875Y-139388110D01*
X136104202Y-139390226D01*
X136102451Y-139392266D01*
X136100624Y-139394231D01*
X136098725Y-139396118D01*
X136096755Y-139397925D01*
X136094718Y-139399651D01*
X136092616Y-139401293D01*
X136090453Y-139402851D01*
X136088229Y-139404320D01*
X136085950Y-139405702D01*
X136083618Y-139406991D01*
X136081231Y-139408188D01*
X136078799Y-139409292D01*
X136076321Y-139410298D01*
X136073798Y-139411207D01*
X136071236Y-139412015D01*
X136068636Y-139412722D01*
X136066001Y-139413325D01*
X136063335Y-139413823D01*
X136060638Y-139414213D01*
X136057915Y-139414495D01*
X136055168Y-139414664D01*
X136052400Y-139414721D01*
X136049630Y-139414663D01*
X136046879Y-139414488D01*
X136044149Y-139414200D01*
X136041443Y-139413802D01*
X136036117Y-139412677D01*
X136030927Y-139411132D01*
X136025894Y-139409185D01*
X136021044Y-139406852D01*
X136016399Y-139404149D01*
X136011986Y-139401095D01*
X136007826Y-139397706D01*
X136003943Y-139393998D01*
X136000363Y-139389991D01*
X135997110Y-139385700D01*
X135994208Y-139381142D01*
X135992895Y-139378767D01*
X135991679Y-139376333D01*
X135990563Y-139373841D01*
X135989549Y-139371293D01*
X135988641Y-139368691D01*
X135987842Y-139366037D01*
X135900000Y-139059122D01*
X135593083Y-138971280D01*
X135590382Y-138970433D01*
X135587740Y-138969484D01*
X135585158Y-138968435D01*
X135582635Y-138967290D01*
X135580176Y-138966049D01*
X135577783Y-138964716D01*
X135575456Y-138963295D01*
X135573199Y-138961788D01*
X135571010Y-138960195D01*
X135568896Y-138958524D01*
X135566854Y-138956773D01*
X135564889Y-138954945D01*
X135563003Y-138953047D01*
X135561194Y-138951077D01*
X135559469Y-138949040D01*
X135557827Y-138946937D01*
X135556270Y-138944773D01*
X135554800Y-138942550D01*
X135553421Y-138940271D01*
X135552130Y-138937938D01*
X135550932Y-138935553D01*
X135549829Y-138933120D01*
X135548822Y-138930641D01*
X135547914Y-138928119D01*
X135547105Y-138925558D01*
X135546399Y-138922957D01*
X135545794Y-138920322D01*
X135545299Y-138917656D01*
X135544908Y-138914959D01*
X135544627Y-138912237D01*
X135544457Y-138909489D01*
X135544400Y-138906722D01*
X135544458Y-138903952D01*
X135544633Y-138901199D01*
X135544919Y-138898470D01*
X135545320Y-138895765D01*
X135546444Y-138890439D01*
X135547988Y-138885249D01*
X135549937Y-138880215D01*
X135552269Y-138875365D01*
X135554971Y-138870720D01*
X135558027Y-138866306D01*
X135561415Y-138862145D01*
X135565122Y-138858265D01*
X135569130Y-138854683D01*
X135573422Y-138851432D01*
X135577979Y-138848528D01*
X135580353Y-138847216D01*
X135582787Y-138846000D01*
X135585279Y-138844884D01*
X135587827Y-138843871D01*
X135590429Y-138842962D01*
X135593083Y-138842162D01*
X135900000Y-138754321D01*
X135987842Y-138447404D01*
X135988688Y-138444704D01*
X135989636Y-138442062D01*
X135990685Y-138439478D01*
X135991832Y-138436957D01*
X135993072Y-138434498D01*
X135994403Y-138432104D01*
X135995827Y-138429778D01*
X135997333Y-138427519D01*
X135998925Y-138425332D01*
X136000599Y-138423217D01*
X136002349Y-138421175D01*
X136004175Y-138419211D01*
X136006076Y-138417324D01*
X136008044Y-138415516D01*
X136010081Y-138413790D01*
X136012182Y-138412148D01*
X136014347Y-138410591D01*
X136016570Y-138409121D01*
X136018850Y-138407740D01*
X136021183Y-138406451D01*
X136023569Y-138405253D01*
X136026002Y-138404150D01*
X136028480Y-138403143D01*
X136031002Y-138402236D01*
X136033564Y-138401426D01*
X136036164Y-138400720D01*
X136038798Y-138400116D01*
X136041466Y-138399620D01*
X136044162Y-138399229D01*
X136046885Y-138398948D01*
X136049632Y-138398778D01*
X136052401Y-138398721D01*
X136055170Y-138398779D01*
G37*
D11*
%TO.C,J4*%
X150390000Y-49699321D03*
X144610000Y-49699321D03*
D12*
X151820000Y-50199321D03*
D13*
X151820000Y-46019321D03*
D12*
X143180000Y-50199321D03*
D13*
X143180000Y-46019321D03*
%TD*%
D14*
%TO.C,H2*%
X162000000Y-65676642D03*
%TD*%
D15*
%TO.C,J9*%
X159650000Y-50034321D03*
X159650000Y-55074321D03*
X157110000Y-50034321D03*
X157110000Y-55074321D03*
X154570000Y-50034321D03*
X154570000Y-55074321D03*
%TD*%
D14*
%TO.C,H4*%
X162000000Y-129751642D03*
%TD*%
D16*
%TO.C,J3*%
X159495000Y-117554321D03*
X160511000Y-122634321D03*
X158479000Y-122634321D03*
D17*
X160130000Y-118824321D03*
X158860000Y-118824321D03*
X160130000Y-120094321D03*
X158860000Y-120094321D03*
X160130000Y-121364321D03*
X158860000Y-121364321D03*
%TD*%
D14*
%TO.C,H5*%
X133000000Y-129751642D03*
%TD*%
%TO.C,H3*%
X133000000Y-65676642D03*
%TD*%
M02*
