%TF.GenerationSoftware,KiCad,Pcbnew,9.0.2*%
%TF.CreationDate,2025-05-11T21:09:18+01:00*%
%TF.ProjectId,mariposa,6d617269-706f-4736-912e-6b696361645f,2.0*%
%TF.SameCoordinates,Original*%
%TF.FileFunction,Drillmap*%
%TF.FilePolarity,Positive*%
%FSLAX45Y45*%
G04 Gerber Fmt 4.5, Leading zero omitted, Abs format (unit mm)*
G04 Created by KiCad (PCBNEW 9.0.2) date 2025-05-11 21:09:18*
%MOMM*%
%LPD*%
G01*
G04 APERTURE LIST*
%ADD10C,0.050000*%
%ADD11C,0.200000*%
%ADD12C,0.100000*%
G04 APERTURE END LIST*
D10*
X13364389Y-6022961D02*
X13392920Y-6019205D01*
X15666230Y-5973760D02*
X15631596Y-5999735D01*
X13350000Y-8558890D02*
X13350000Y-8158059D01*
X16150000Y-8560640D02*
X16150000Y-8157130D01*
X15984595Y-5948488D02*
X15967077Y-5925658D01*
X13134227Y-5760512D02*
X13130471Y-5789043D01*
X13167077Y-5925658D02*
X13184595Y-5948488D01*
X16107080Y-5587659D02*
X16135611Y-5583903D01*
X15984595Y-5658376D02*
X16004944Y-5638027D01*
X16027774Y-5620509D02*
X16052696Y-5606120D01*
X16164389Y-5583903D02*
X16192920Y-5587659D01*
X15600000Y-6063430D02*
X15600000Y-6069766D01*
X16315405Y-5948488D02*
X16295056Y-5968837D01*
X13472225Y-5986355D02*
X13495056Y-5968837D01*
X13495056Y-5638027D02*
X13472225Y-5620509D01*
X16370000Y-6218853D02*
G75*
G02*
X16549997Y-6398850I0J-179997D01*
G01*
X13833766Y-5973757D02*
X13867991Y-5999425D01*
X16550000Y-10558890D02*
X16550000Y-9257130D01*
X13204944Y-5968837D02*
X13227774Y-5986355D01*
X13055444Y-10813456D02*
G75*
G02*
X12950000Y-10560640I254576J254576D01*
G01*
X13244564Y-11002576D02*
G75*
G02*
X13349999Y-11257130I-254524J-254534D01*
G01*
X15750000Y-6218853D02*
G75*
G02*
X15600000Y-6069766I0J150003D01*
G01*
X16135611Y-6022961D02*
X16107080Y-6019205D01*
X13830197Y-5634129D02*
X13848018Y-5617357D01*
X15250000Y-7738077D02*
G75*
G02*
X15300003Y-7788077I0J-50003D01*
G01*
X16150000Y-12199012D02*
X16150000Y-11257130D01*
X15300000Y-7787514D02*
G75*
G02*
X15250000Y-7837510I-49990J-6D01*
G01*
X16079283Y-6011757D02*
X16052696Y-6000744D01*
X13364389Y-5583903D02*
X13335611Y-5583903D01*
X13279283Y-5595107D02*
X13252696Y-5606120D01*
X13130471Y-5817821D02*
X13134227Y-5846352D01*
X15907551Y-5731864D02*
G75*
G02*
X15669801Y-5634129I8979J359884D01*
G01*
X13307080Y-5587659D02*
X13279283Y-5595107D01*
X16347312Y-5706129D02*
X16358325Y-5732715D01*
X13055434Y-7713446D02*
G75*
G02*
X12950002Y-7458900I254536J254536D01*
G01*
X13184595Y-5658376D02*
X13167077Y-5681207D01*
X16315405Y-5658376D02*
X16332923Y-5681207D01*
X13350000Y-8558890D02*
G75*
G02*
X13244556Y-8813451I-360000J0D01*
G01*
X16192920Y-5587659D02*
X16220717Y-5595107D01*
X13515405Y-5948488D02*
X13532923Y-5925658D01*
X16347312Y-5900736D02*
X16332923Y-5925658D01*
X13420717Y-5595107D02*
X13392920Y-5587659D01*
X13558325Y-5732715D02*
X13547312Y-5706129D01*
X13227774Y-5620509D02*
X13204944Y-5638027D01*
X16247303Y-5606120D02*
X16272225Y-5620509D01*
X13184595Y-5948488D02*
X13204944Y-5968837D01*
X15941675Y-5732715D02*
X15952688Y-5706129D01*
X16004944Y-5968837D02*
X15984595Y-5948488D01*
X16192920Y-6019205D02*
X16164389Y-6022961D01*
X13130000Y-13316153D02*
G75*
G02*
X12950000Y-13135183I0J180003D01*
G01*
X15250000Y-7837514D02*
X14250000Y-7837514D01*
X16369529Y-5817821D02*
X16365773Y-5846352D01*
X16550000Y-13136140D02*
X16550000Y-13017010D01*
X13204944Y-5638027D02*
X13184595Y-5658376D01*
X16079283Y-5595107D02*
X16107080Y-5587659D01*
X15666230Y-5973760D02*
G75*
G02*
X15877196Y-5901795I216010J-288030D01*
G01*
X13335611Y-6022961D02*
X13364389Y-6022961D01*
X15967077Y-5925658D02*
X15952688Y-5900736D01*
X16255444Y-8813456D02*
G75*
G02*
X16150000Y-8560640I254576J254576D01*
G01*
X13532923Y-5681207D02*
X13515405Y-5658376D01*
X16255442Y-7902570D02*
X16444558Y-7713453D01*
X16164389Y-6022961D02*
X16135611Y-6022961D01*
X13392920Y-5587659D02*
X13364389Y-5583903D01*
X14250000Y-7838077D02*
G75*
G02*
X14199993Y-7788077I0J50007D01*
G01*
X13532923Y-5925658D02*
X13547312Y-5900736D01*
X16444559Y-9002571D02*
X16255444Y-8813456D01*
X16370000Y-6218853D02*
X15750000Y-6218853D01*
X16371590Y-13316153D02*
X13130000Y-13316153D01*
X14200000Y-7788077D02*
G75*
G02*
X14250835Y-7738077I50010J-3D01*
G01*
X13392920Y-6019205D02*
X13420717Y-6011757D01*
X13134227Y-5846352D02*
X13141675Y-5874149D01*
X15907551Y-5731864D02*
X15941675Y-5732715D01*
X13350000Y-12199010D02*
X13350000Y-11257130D01*
X14250835Y-7738077D02*
X15250000Y-7738077D01*
X12949538Y-13017010D02*
G75*
G02*
X13010000Y-12817318I360002J0D01*
G01*
X16027774Y-5986355D02*
X16004944Y-5968837D01*
X13420717Y-6011757D02*
X13447303Y-6000744D01*
X13055442Y-9002570D02*
X13244558Y-8813453D01*
X16247303Y-6000744D02*
X16220717Y-6011757D01*
X13848018Y-5617357D02*
G75*
G02*
X13971384Y-5568430I123372J-131083D01*
G01*
X16135611Y-5583903D02*
X16164389Y-5583903D01*
X13130471Y-5789043D02*
X13130471Y-5817821D01*
X16272225Y-5986355D02*
X16247303Y-6000744D01*
X13244564Y-11002576D02*
X13055444Y-10813456D01*
X16550000Y-13136140D02*
G75*
G02*
X16371590Y-13316153I-180020J0D01*
G01*
X16489535Y-12817313D02*
X16210459Y-12398700D01*
X13335611Y-5583903D02*
X13307080Y-5587659D01*
X15967077Y-5681207D02*
X15984595Y-5658376D01*
X16332923Y-5925658D02*
X16315405Y-5948488D01*
X13141675Y-5732715D02*
X13134227Y-5760512D01*
X12950000Y-6398860D02*
X12950000Y-7458900D01*
X13252696Y-6000744D02*
X13279283Y-6011757D01*
X13244559Y-7902571D02*
G75*
G02*
X13350000Y-8158059I-254559J-254559D01*
G01*
X16004944Y-5638027D02*
X16027774Y-5620509D01*
X15952688Y-5706129D02*
X15967077Y-5681207D01*
X13152688Y-5706129D02*
X13141675Y-5732715D01*
X16369529Y-5789043D02*
X16369529Y-5817821D01*
X13167077Y-5681207D02*
X13152688Y-5706129D01*
X13447303Y-5606120D02*
X13420717Y-5595107D01*
X13350000Y-12199010D02*
G75*
G02*
X13289538Y-12398704I-360010J0D01*
G01*
X13547312Y-5900736D02*
X13622807Y-5901792D01*
X13495056Y-5968837D02*
X13515405Y-5948488D01*
X16550000Y-7458900D02*
G75*
G02*
X16444557Y-7713451I-359980J0D01*
G01*
X16272225Y-5620509D02*
X16295056Y-5638027D01*
X16332923Y-5681207D02*
X16347312Y-5706129D01*
X16358325Y-5874149D02*
X16347312Y-5900736D01*
X13867991Y-5999425D02*
G75*
G02*
X13900000Y-6064047I-48001J-64015D01*
G01*
X15528620Y-5568432D02*
G75*
G02*
X15651350Y-5616760I-10J-180028D01*
G01*
X13900000Y-6068840D02*
G75*
G02*
X13748520Y-6218853I-150020J0D01*
G01*
X13252696Y-5606120D02*
X13227774Y-5620509D01*
X16358325Y-5732715D02*
X16365773Y-5760512D01*
X12950000Y-10560640D02*
X12950000Y-9257130D01*
X16365773Y-5846352D02*
X16358325Y-5874149D01*
X16444559Y-9002571D02*
G75*
G02*
X16549999Y-9257130I-254519J-254539D01*
G01*
X13447303Y-6000744D02*
X13472225Y-5986355D01*
X16550000Y-6398850D02*
X16550000Y-7458900D01*
X16550000Y-10558890D02*
G75*
G02*
X16444556Y-10813451I-360000J0D01*
G01*
X16365773Y-5760512D02*
X16369529Y-5789043D01*
X16052696Y-6000744D02*
X16027774Y-5986355D01*
X13900000Y-6064047D02*
X13900000Y-6068840D01*
X13515405Y-5658376D02*
X13495056Y-5638027D01*
X16150000Y-8157130D02*
G75*
G02*
X16255442Y-7902571I360000J0D01*
G01*
X16107080Y-6019205D02*
X16079283Y-6011757D01*
X15669802Y-5634128D02*
X15651349Y-5616761D01*
X12950000Y-6398860D02*
G75*
G02*
X13130000Y-6218860I179990J10D01*
G01*
X13152688Y-5900736D02*
X13167077Y-5925658D01*
X16295056Y-5968837D02*
X16272225Y-5986355D01*
X13592446Y-5731864D02*
X13558325Y-5732715D01*
X12950000Y-9257130D02*
G75*
G02*
X13055442Y-9002571I360000J0D01*
G01*
X13010000Y-12817318D02*
X13289076Y-12398704D01*
X13748520Y-6218853D02*
X13130000Y-6218853D01*
X13622807Y-5901792D02*
G75*
G02*
X13833764Y-5973759I-5047J-359968D01*
G01*
X16295056Y-5638027D02*
X16315405Y-5658376D01*
X13244559Y-7902571D02*
X13055434Y-7713446D01*
X16052696Y-5606120D02*
X16079283Y-5595107D01*
X13141675Y-5874149D02*
X13152688Y-5900736D01*
X15600000Y-6063430D02*
G75*
G02*
X15631599Y-5999738I79990J0D01*
G01*
X16220717Y-6011757D02*
X16192920Y-6019205D01*
X13307080Y-6019205D02*
X13335611Y-6022961D01*
X16489534Y-12817313D02*
G75*
G02*
X16549998Y-13017010I-299545J-199697D01*
G01*
X16150000Y-11257130D02*
G75*
G02*
X16255442Y-11002571I360000J0D01*
G01*
X13547312Y-5706129D02*
X13532923Y-5681207D01*
X16255442Y-11002570D02*
X16444558Y-10813453D01*
X16210459Y-12398700D02*
G75*
G02*
X16150001Y-12199012I299521J199681D01*
G01*
X15952688Y-5900736D02*
X15877196Y-5901792D01*
X12950000Y-13135183D02*
X12950000Y-13017010D01*
X16220717Y-5595107D02*
X16247303Y-5606120D01*
X13830197Y-5634129D02*
G75*
G02*
X13592446Y-5731860I-246727J262159D01*
G01*
X13472225Y-5620509D02*
X13447303Y-5606120D01*
X13279283Y-6011757D02*
X13307080Y-6019205D01*
X13227774Y-5986355D02*
X13252696Y-6000744D01*
X15528620Y-5568432D02*
X13971384Y-5568432D01*
D11*
D12*
X14428500Y-6152432D02*
X14493500Y-6217432D01*
X14493500Y-6152432D02*
X14428500Y-6217432D01*
X15006500Y-6152432D02*
X15071500Y-6217432D01*
X15071500Y-6152432D02*
X15006500Y-6217432D01*
X16199530Y-9993432D02*
G75*
G02*
X16100470Y-9993432I-49530J0D01*
G01*
X16100470Y-9993432D02*
G75*
G02*
X16199530Y-9993432I49530J0D01*
G01*
X16301130Y-10501432D02*
G75*
G02*
X16202070Y-10501432I-49530J0D01*
G01*
X16202070Y-10501432D02*
G75*
G02*
X16301130Y-10501432I49530J0D01*
G01*
X16402730Y-9993432D02*
G75*
G02*
X16303670Y-9993432I-49530J0D01*
G01*
X16303670Y-9993432D02*
G75*
G02*
X16402730Y-9993432I49530J0D01*
G01*
D11*
X13207815Y-13630136D02*
X13207815Y-13430136D01*
X13207815Y-13430136D02*
X13255434Y-13430136D01*
X13255434Y-13430136D02*
X13284005Y-13439660D01*
X13284005Y-13439660D02*
X13303053Y-13458708D01*
X13303053Y-13458708D02*
X13312577Y-13477755D01*
X13312577Y-13477755D02*
X13322101Y-13515851D01*
X13322101Y-13515851D02*
X13322101Y-13544422D01*
X13322101Y-13544422D02*
X13312577Y-13582517D01*
X13312577Y-13582517D02*
X13303053Y-13601565D01*
X13303053Y-13601565D02*
X13284005Y-13620613D01*
X13284005Y-13620613D02*
X13255434Y-13630136D01*
X13255434Y-13630136D02*
X13207815Y-13630136D01*
X13407815Y-13630136D02*
X13407815Y-13496803D01*
X13407815Y-13534898D02*
X13417339Y-13515851D01*
X13417339Y-13515851D02*
X13426862Y-13506327D01*
X13426862Y-13506327D02*
X13445910Y-13496803D01*
X13445910Y-13496803D02*
X13464958Y-13496803D01*
X13531624Y-13630136D02*
X13531624Y-13496803D01*
X13531624Y-13430136D02*
X13522101Y-13439660D01*
X13522101Y-13439660D02*
X13531624Y-13449184D01*
X13531624Y-13449184D02*
X13541148Y-13439660D01*
X13541148Y-13439660D02*
X13531624Y-13430136D01*
X13531624Y-13430136D02*
X13531624Y-13449184D01*
X13655434Y-13630136D02*
X13636386Y-13620613D01*
X13636386Y-13620613D02*
X13626862Y-13601565D01*
X13626862Y-13601565D02*
X13626862Y-13430136D01*
X13760196Y-13630136D02*
X13741148Y-13620613D01*
X13741148Y-13620613D02*
X13731624Y-13601565D01*
X13731624Y-13601565D02*
X13731624Y-13430136D01*
X13988767Y-13630136D02*
X13988767Y-13430136D01*
X13988767Y-13430136D02*
X14055434Y-13572994D01*
X14055434Y-13572994D02*
X14122101Y-13430136D01*
X14122101Y-13430136D02*
X14122101Y-13630136D01*
X14303053Y-13630136D02*
X14303053Y-13525375D01*
X14303053Y-13525375D02*
X14293529Y-13506327D01*
X14293529Y-13506327D02*
X14274482Y-13496803D01*
X14274482Y-13496803D02*
X14236386Y-13496803D01*
X14236386Y-13496803D02*
X14217339Y-13506327D01*
X14303053Y-13620613D02*
X14284005Y-13630136D01*
X14284005Y-13630136D02*
X14236386Y-13630136D01*
X14236386Y-13630136D02*
X14217339Y-13620613D01*
X14217339Y-13620613D02*
X14207815Y-13601565D01*
X14207815Y-13601565D02*
X14207815Y-13582517D01*
X14207815Y-13582517D02*
X14217339Y-13563470D01*
X14217339Y-13563470D02*
X14236386Y-13553946D01*
X14236386Y-13553946D02*
X14284005Y-13553946D01*
X14284005Y-13553946D02*
X14303053Y-13544422D01*
X14398291Y-13496803D02*
X14398291Y-13696803D01*
X14398291Y-13506327D02*
X14417339Y-13496803D01*
X14417339Y-13496803D02*
X14455434Y-13496803D01*
X14455434Y-13496803D02*
X14474482Y-13506327D01*
X14474482Y-13506327D02*
X14484005Y-13515851D01*
X14484005Y-13515851D02*
X14493529Y-13534898D01*
X14493529Y-13534898D02*
X14493529Y-13592041D01*
X14493529Y-13592041D02*
X14484005Y-13611089D01*
X14484005Y-13611089D02*
X14474482Y-13620613D01*
X14474482Y-13620613D02*
X14455434Y-13630136D01*
X14455434Y-13630136D02*
X14417339Y-13630136D01*
X14417339Y-13630136D02*
X14398291Y-13620613D01*
X14579243Y-13611089D02*
X14588767Y-13620613D01*
X14588767Y-13620613D02*
X14579243Y-13630136D01*
X14579243Y-13630136D02*
X14569720Y-13620613D01*
X14569720Y-13620613D02*
X14579243Y-13611089D01*
X14579243Y-13611089D02*
X14579243Y-13630136D01*
X14579243Y-13506327D02*
X14588767Y-13515851D01*
X14588767Y-13515851D02*
X14579243Y-13525375D01*
X14579243Y-13525375D02*
X14569720Y-13515851D01*
X14569720Y-13515851D02*
X14579243Y-13506327D01*
X14579243Y-13506327D02*
X14579243Y-13525375D01*
D12*
X12882038Y-13926153D02*
X12947038Y-13991153D01*
X12947038Y-13926153D02*
X12882038Y-13991153D01*
D11*
X13245910Y-13850136D02*
X13264958Y-13850136D01*
X13264958Y-13850136D02*
X13284005Y-13859660D01*
X13284005Y-13859660D02*
X13293529Y-13869184D01*
X13293529Y-13869184D02*
X13303053Y-13888232D01*
X13303053Y-13888232D02*
X13312577Y-13926327D01*
X13312577Y-13926327D02*
X13312577Y-13973946D01*
X13312577Y-13973946D02*
X13303053Y-14012041D01*
X13303053Y-14012041D02*
X13293529Y-14031089D01*
X13293529Y-14031089D02*
X13284005Y-14040613D01*
X13284005Y-14040613D02*
X13264958Y-14050136D01*
X13264958Y-14050136D02*
X13245910Y-14050136D01*
X13245910Y-14050136D02*
X13226862Y-14040613D01*
X13226862Y-14040613D02*
X13217339Y-14031089D01*
X13217339Y-14031089D02*
X13207815Y-14012041D01*
X13207815Y-14012041D02*
X13198291Y-13973946D01*
X13198291Y-13973946D02*
X13198291Y-13926327D01*
X13198291Y-13926327D02*
X13207815Y-13888232D01*
X13207815Y-13888232D02*
X13217339Y-13869184D01*
X13217339Y-13869184D02*
X13226862Y-13859660D01*
X13226862Y-13859660D02*
X13245910Y-13850136D01*
X13398291Y-14031089D02*
X13407815Y-14040613D01*
X13407815Y-14040613D02*
X13398291Y-14050136D01*
X13398291Y-14050136D02*
X13388767Y-14040613D01*
X13388767Y-14040613D02*
X13398291Y-14031089D01*
X13398291Y-14031089D02*
X13398291Y-14050136D01*
X13579243Y-13850136D02*
X13541148Y-13850136D01*
X13541148Y-13850136D02*
X13522101Y-13859660D01*
X13522101Y-13859660D02*
X13512577Y-13869184D01*
X13512577Y-13869184D02*
X13493529Y-13897755D01*
X13493529Y-13897755D02*
X13484005Y-13935851D01*
X13484005Y-13935851D02*
X13484005Y-14012041D01*
X13484005Y-14012041D02*
X13493529Y-14031089D01*
X13493529Y-14031089D02*
X13503053Y-14040613D01*
X13503053Y-14040613D02*
X13522101Y-14050136D01*
X13522101Y-14050136D02*
X13560196Y-14050136D01*
X13560196Y-14050136D02*
X13579243Y-14040613D01*
X13579243Y-14040613D02*
X13588767Y-14031089D01*
X13588767Y-14031089D02*
X13598291Y-14012041D01*
X13598291Y-14012041D02*
X13598291Y-13964422D01*
X13598291Y-13964422D02*
X13588767Y-13945375D01*
X13588767Y-13945375D02*
X13579243Y-13935851D01*
X13579243Y-13935851D02*
X13560196Y-13926327D01*
X13560196Y-13926327D02*
X13522101Y-13926327D01*
X13522101Y-13926327D02*
X13503053Y-13935851D01*
X13503053Y-13935851D02*
X13493529Y-13945375D01*
X13493529Y-13945375D02*
X13484005Y-13964422D01*
X13779243Y-13850136D02*
X13684005Y-13850136D01*
X13684005Y-13850136D02*
X13674482Y-13945375D01*
X13674482Y-13945375D02*
X13684005Y-13935851D01*
X13684005Y-13935851D02*
X13703053Y-13926327D01*
X13703053Y-13926327D02*
X13750672Y-13926327D01*
X13750672Y-13926327D02*
X13769720Y-13935851D01*
X13769720Y-13935851D02*
X13779243Y-13945375D01*
X13779243Y-13945375D02*
X13788767Y-13964422D01*
X13788767Y-13964422D02*
X13788767Y-14012041D01*
X13788767Y-14012041D02*
X13779243Y-14031089D01*
X13779243Y-14031089D02*
X13769720Y-14040613D01*
X13769720Y-14040613D02*
X13750672Y-14050136D01*
X13750672Y-14050136D02*
X13703053Y-14050136D01*
X13703053Y-14050136D02*
X13684005Y-14040613D01*
X13684005Y-14040613D02*
X13674482Y-14031089D01*
X13912577Y-13850136D02*
X13931624Y-13850136D01*
X13931624Y-13850136D02*
X13950672Y-13859660D01*
X13950672Y-13859660D02*
X13960196Y-13869184D01*
X13960196Y-13869184D02*
X13969720Y-13888232D01*
X13969720Y-13888232D02*
X13979243Y-13926327D01*
X13979243Y-13926327D02*
X13979243Y-13973946D01*
X13979243Y-13973946D02*
X13969720Y-14012041D01*
X13969720Y-14012041D02*
X13960196Y-14031089D01*
X13960196Y-14031089D02*
X13950672Y-14040613D01*
X13950672Y-14040613D02*
X13931624Y-14050136D01*
X13931624Y-14050136D02*
X13912577Y-14050136D01*
X13912577Y-14050136D02*
X13893529Y-14040613D01*
X13893529Y-14040613D02*
X13884005Y-14031089D01*
X13884005Y-14031089D02*
X13874482Y-14012041D01*
X13874482Y-14012041D02*
X13864958Y-13973946D01*
X13864958Y-13973946D02*
X13864958Y-13926327D01*
X13864958Y-13926327D02*
X13874482Y-13888232D01*
X13874482Y-13888232D02*
X13884005Y-13869184D01*
X13884005Y-13869184D02*
X13893529Y-13859660D01*
X13893529Y-13859660D02*
X13912577Y-13850136D01*
X14064958Y-14050136D02*
X14064958Y-13916803D01*
X14064958Y-13935851D02*
X14074482Y-13926327D01*
X14074482Y-13926327D02*
X14093529Y-13916803D01*
X14093529Y-13916803D02*
X14122101Y-13916803D01*
X14122101Y-13916803D02*
X14141148Y-13926327D01*
X14141148Y-13926327D02*
X14150672Y-13945375D01*
X14150672Y-13945375D02*
X14150672Y-14050136D01*
X14150672Y-13945375D02*
X14160196Y-13926327D01*
X14160196Y-13926327D02*
X14179243Y-13916803D01*
X14179243Y-13916803D02*
X14207815Y-13916803D01*
X14207815Y-13916803D02*
X14226863Y-13926327D01*
X14226863Y-13926327D02*
X14236386Y-13945375D01*
X14236386Y-13945375D02*
X14236386Y-14050136D01*
X14331624Y-14050136D02*
X14331624Y-13916803D01*
X14331624Y-13935851D02*
X14341148Y-13926327D01*
X14341148Y-13926327D02*
X14360196Y-13916803D01*
X14360196Y-13916803D02*
X14388767Y-13916803D01*
X14388767Y-13916803D02*
X14407815Y-13926327D01*
X14407815Y-13926327D02*
X14417339Y-13945375D01*
X14417339Y-13945375D02*
X14417339Y-14050136D01*
X14417339Y-13945375D02*
X14426863Y-13926327D01*
X14426863Y-13926327D02*
X14445910Y-13916803D01*
X14445910Y-13916803D02*
X14474482Y-13916803D01*
X14474482Y-13916803D02*
X14493529Y-13926327D01*
X14493529Y-13926327D02*
X14503053Y-13945375D01*
X14503053Y-13945375D02*
X14503053Y-14050136D01*
X14893529Y-13840613D02*
X14722101Y-14097755D01*
X15150672Y-13850136D02*
X15169720Y-13850136D01*
X15169720Y-13850136D02*
X15188767Y-13859660D01*
X15188767Y-13859660D02*
X15198291Y-13869184D01*
X15198291Y-13869184D02*
X15207815Y-13888232D01*
X15207815Y-13888232D02*
X15217339Y-13926327D01*
X15217339Y-13926327D02*
X15217339Y-13973946D01*
X15217339Y-13973946D02*
X15207815Y-14012041D01*
X15207815Y-14012041D02*
X15198291Y-14031089D01*
X15198291Y-14031089D02*
X15188767Y-14040613D01*
X15188767Y-14040613D02*
X15169720Y-14050136D01*
X15169720Y-14050136D02*
X15150672Y-14050136D01*
X15150672Y-14050136D02*
X15131625Y-14040613D01*
X15131625Y-14040613D02*
X15122101Y-14031089D01*
X15122101Y-14031089D02*
X15112577Y-14012041D01*
X15112577Y-14012041D02*
X15103053Y-13973946D01*
X15103053Y-13973946D02*
X15103053Y-13926327D01*
X15103053Y-13926327D02*
X15112577Y-13888232D01*
X15112577Y-13888232D02*
X15122101Y-13869184D01*
X15122101Y-13869184D02*
X15131625Y-13859660D01*
X15131625Y-13859660D02*
X15150672Y-13850136D01*
X15303053Y-14031089D02*
X15312577Y-14040613D01*
X15312577Y-14040613D02*
X15303053Y-14050136D01*
X15303053Y-14050136D02*
X15293529Y-14040613D01*
X15293529Y-14040613D02*
X15303053Y-14031089D01*
X15303053Y-14031089D02*
X15303053Y-14050136D01*
X15436386Y-13850136D02*
X15455434Y-13850136D01*
X15455434Y-13850136D02*
X15474482Y-13859660D01*
X15474482Y-13859660D02*
X15484006Y-13869184D01*
X15484006Y-13869184D02*
X15493529Y-13888232D01*
X15493529Y-13888232D02*
X15503053Y-13926327D01*
X15503053Y-13926327D02*
X15503053Y-13973946D01*
X15503053Y-13973946D02*
X15493529Y-14012041D01*
X15493529Y-14012041D02*
X15484006Y-14031089D01*
X15484006Y-14031089D02*
X15474482Y-14040613D01*
X15474482Y-14040613D02*
X15455434Y-14050136D01*
X15455434Y-14050136D02*
X15436386Y-14050136D01*
X15436386Y-14050136D02*
X15417339Y-14040613D01*
X15417339Y-14040613D02*
X15407815Y-14031089D01*
X15407815Y-14031089D02*
X15398291Y-14012041D01*
X15398291Y-14012041D02*
X15388767Y-13973946D01*
X15388767Y-13973946D02*
X15388767Y-13926327D01*
X15388767Y-13926327D02*
X15398291Y-13888232D01*
X15398291Y-13888232D02*
X15407815Y-13869184D01*
X15407815Y-13869184D02*
X15417339Y-13859660D01*
X15417339Y-13859660D02*
X15436386Y-13850136D01*
X15579244Y-13869184D02*
X15588767Y-13859660D01*
X15588767Y-13859660D02*
X15607815Y-13850136D01*
X15607815Y-13850136D02*
X15655434Y-13850136D01*
X15655434Y-13850136D02*
X15674482Y-13859660D01*
X15674482Y-13859660D02*
X15684006Y-13869184D01*
X15684006Y-13869184D02*
X15693529Y-13888232D01*
X15693529Y-13888232D02*
X15693529Y-13907279D01*
X15693529Y-13907279D02*
X15684006Y-13935851D01*
X15684006Y-13935851D02*
X15569720Y-14050136D01*
X15569720Y-14050136D02*
X15693529Y-14050136D01*
X15874482Y-13850136D02*
X15779244Y-13850136D01*
X15779244Y-13850136D02*
X15769720Y-13945375D01*
X15769720Y-13945375D02*
X15779244Y-13935851D01*
X15779244Y-13935851D02*
X15798291Y-13926327D01*
X15798291Y-13926327D02*
X15845910Y-13926327D01*
X15845910Y-13926327D02*
X15864958Y-13935851D01*
X15864958Y-13935851D02*
X15874482Y-13945375D01*
X15874482Y-13945375D02*
X15884006Y-13964422D01*
X15884006Y-13964422D02*
X15884006Y-14012041D01*
X15884006Y-14012041D02*
X15874482Y-14031089D01*
X15874482Y-14031089D02*
X15864958Y-14040613D01*
X15864958Y-14040613D02*
X15845910Y-14050136D01*
X15845910Y-14050136D02*
X15798291Y-14050136D01*
X15798291Y-14050136D02*
X15779244Y-14040613D01*
X15779244Y-14040613D02*
X15769720Y-14031089D01*
X16055434Y-13850136D02*
X16017339Y-13850136D01*
X16017339Y-13850136D02*
X15998291Y-13859660D01*
X15998291Y-13859660D02*
X15988767Y-13869184D01*
X15988767Y-13869184D02*
X15969720Y-13897755D01*
X15969720Y-13897755D02*
X15960196Y-13935851D01*
X15960196Y-13935851D02*
X15960196Y-14012041D01*
X15960196Y-14012041D02*
X15969720Y-14031089D01*
X15969720Y-14031089D02*
X15979244Y-14040613D01*
X15979244Y-14040613D02*
X15998291Y-14050136D01*
X15998291Y-14050136D02*
X16036387Y-14050136D01*
X16036387Y-14050136D02*
X16055434Y-14040613D01*
X16055434Y-14040613D02*
X16064958Y-14031089D01*
X16064958Y-14031089D02*
X16074482Y-14012041D01*
X16074482Y-14012041D02*
X16074482Y-13964422D01*
X16074482Y-13964422D02*
X16064958Y-13945375D01*
X16064958Y-13945375D02*
X16055434Y-13935851D01*
X16055434Y-13935851D02*
X16036387Y-13926327D01*
X16036387Y-13926327D02*
X15998291Y-13926327D01*
X15998291Y-13926327D02*
X15979244Y-13935851D01*
X15979244Y-13935851D02*
X15969720Y-13945375D01*
X15969720Y-13945375D02*
X15960196Y-13964422D01*
X16150672Y-13850136D02*
X16150672Y-13888232D01*
X16226863Y-13850136D02*
X16226863Y-13888232D01*
X16522101Y-14126327D02*
X16512577Y-14116803D01*
X16512577Y-14116803D02*
X16493529Y-14088232D01*
X16493529Y-14088232D02*
X16484006Y-14069184D01*
X16484006Y-14069184D02*
X16474482Y-14040613D01*
X16474482Y-14040613D02*
X16464958Y-13992994D01*
X16464958Y-13992994D02*
X16464958Y-13954898D01*
X16464958Y-13954898D02*
X16474482Y-13907279D01*
X16474482Y-13907279D02*
X16484006Y-13878708D01*
X16484006Y-13878708D02*
X16493529Y-13859660D01*
X16493529Y-13859660D02*
X16512577Y-13831089D01*
X16512577Y-13831089D02*
X16522101Y-13821565D01*
X16588768Y-13869184D02*
X16598291Y-13859660D01*
X16598291Y-13859660D02*
X16617339Y-13850136D01*
X16617339Y-13850136D02*
X16664958Y-13850136D01*
X16664958Y-13850136D02*
X16684006Y-13859660D01*
X16684006Y-13859660D02*
X16693529Y-13869184D01*
X16693529Y-13869184D02*
X16703053Y-13888232D01*
X16703053Y-13888232D02*
X16703053Y-13907279D01*
X16703053Y-13907279D02*
X16693529Y-13935851D01*
X16693529Y-13935851D02*
X16579244Y-14050136D01*
X16579244Y-14050136D02*
X16703053Y-14050136D01*
X16941149Y-14050136D02*
X16941149Y-13850136D01*
X17026863Y-14050136D02*
X17026863Y-13945375D01*
X17026863Y-13945375D02*
X17017339Y-13926327D01*
X17017339Y-13926327D02*
X16998292Y-13916803D01*
X16998292Y-13916803D02*
X16969720Y-13916803D01*
X16969720Y-13916803D02*
X16950672Y-13926327D01*
X16950672Y-13926327D02*
X16941149Y-13935851D01*
X17150672Y-14050136D02*
X17131625Y-14040613D01*
X17131625Y-14040613D02*
X17122101Y-14031089D01*
X17122101Y-14031089D02*
X17112577Y-14012041D01*
X17112577Y-14012041D02*
X17112577Y-13954898D01*
X17112577Y-13954898D02*
X17122101Y-13935851D01*
X17122101Y-13935851D02*
X17131625Y-13926327D01*
X17131625Y-13926327D02*
X17150672Y-13916803D01*
X17150672Y-13916803D02*
X17179244Y-13916803D01*
X17179244Y-13916803D02*
X17198292Y-13926327D01*
X17198292Y-13926327D02*
X17207815Y-13935851D01*
X17207815Y-13935851D02*
X17217339Y-13954898D01*
X17217339Y-13954898D02*
X17217339Y-14012041D01*
X17217339Y-14012041D02*
X17207815Y-14031089D01*
X17207815Y-14031089D02*
X17198292Y-14040613D01*
X17198292Y-14040613D02*
X17179244Y-14050136D01*
X17179244Y-14050136D02*
X17150672Y-14050136D01*
X17331625Y-14050136D02*
X17312577Y-14040613D01*
X17312577Y-14040613D02*
X17303053Y-14021565D01*
X17303053Y-14021565D02*
X17303053Y-13850136D01*
X17484006Y-14040613D02*
X17464958Y-14050136D01*
X17464958Y-14050136D02*
X17426863Y-14050136D01*
X17426863Y-14050136D02*
X17407815Y-14040613D01*
X17407815Y-14040613D02*
X17398292Y-14021565D01*
X17398292Y-14021565D02*
X17398292Y-13945375D01*
X17398292Y-13945375D02*
X17407815Y-13926327D01*
X17407815Y-13926327D02*
X17426863Y-13916803D01*
X17426863Y-13916803D02*
X17464958Y-13916803D01*
X17464958Y-13916803D02*
X17484006Y-13926327D01*
X17484006Y-13926327D02*
X17493530Y-13945375D01*
X17493530Y-13945375D02*
X17493530Y-13964422D01*
X17493530Y-13964422D02*
X17398292Y-13983470D01*
X17569720Y-14040613D02*
X17588768Y-14050136D01*
X17588768Y-14050136D02*
X17626863Y-14050136D01*
X17626863Y-14050136D02*
X17645911Y-14040613D01*
X17645911Y-14040613D02*
X17655434Y-14021565D01*
X17655434Y-14021565D02*
X17655434Y-14012041D01*
X17655434Y-14012041D02*
X17645911Y-13992994D01*
X17645911Y-13992994D02*
X17626863Y-13983470D01*
X17626863Y-13983470D02*
X17598292Y-13983470D01*
X17598292Y-13983470D02*
X17579244Y-13973946D01*
X17579244Y-13973946D02*
X17569720Y-13954898D01*
X17569720Y-13954898D02*
X17569720Y-13945375D01*
X17569720Y-13945375D02*
X17579244Y-13926327D01*
X17579244Y-13926327D02*
X17598292Y-13916803D01*
X17598292Y-13916803D02*
X17626863Y-13916803D01*
X17626863Y-13916803D02*
X17645911Y-13926327D01*
X17722101Y-14126327D02*
X17731625Y-14116803D01*
X17731625Y-14116803D02*
X17750673Y-14088232D01*
X17750673Y-14088232D02*
X17760196Y-14069184D01*
X17760196Y-14069184D02*
X17769720Y-14040613D01*
X17769720Y-14040613D02*
X17779244Y-13992994D01*
X17779244Y-13992994D02*
X17779244Y-13954898D01*
X17779244Y-13954898D02*
X17769720Y-13907279D01*
X17769720Y-13907279D02*
X17760196Y-13878708D01*
X17760196Y-13878708D02*
X17750673Y-13859660D01*
X17750673Y-13859660D02*
X17731625Y-13831089D01*
X17731625Y-13831089D02*
X17722101Y-13821565D01*
X18084006Y-14126327D02*
X18074482Y-14116803D01*
X18074482Y-14116803D02*
X18055434Y-14088232D01*
X18055434Y-14088232D02*
X18045911Y-14069184D01*
X18045911Y-14069184D02*
X18036387Y-14040613D01*
X18036387Y-14040613D02*
X18026863Y-13992994D01*
X18026863Y-13992994D02*
X18026863Y-13954898D01*
X18026863Y-13954898D02*
X18036387Y-13907279D01*
X18036387Y-13907279D02*
X18045911Y-13878708D01*
X18045911Y-13878708D02*
X18055434Y-13859660D01*
X18055434Y-13859660D02*
X18074482Y-13831089D01*
X18074482Y-13831089D02*
X18084006Y-13821565D01*
X18160196Y-13916803D02*
X18160196Y-14050136D01*
X18160196Y-13935851D02*
X18169720Y-13926327D01*
X18169720Y-13926327D02*
X18188768Y-13916803D01*
X18188768Y-13916803D02*
X18217339Y-13916803D01*
X18217339Y-13916803D02*
X18236387Y-13926327D01*
X18236387Y-13926327D02*
X18245911Y-13945375D01*
X18245911Y-13945375D02*
X18245911Y-14050136D01*
X18369720Y-14050136D02*
X18350673Y-14040613D01*
X18350673Y-14040613D02*
X18341149Y-14031089D01*
X18341149Y-14031089D02*
X18331625Y-14012041D01*
X18331625Y-14012041D02*
X18331625Y-13954898D01*
X18331625Y-13954898D02*
X18341149Y-13935851D01*
X18341149Y-13935851D02*
X18350673Y-13926327D01*
X18350673Y-13926327D02*
X18369720Y-13916803D01*
X18369720Y-13916803D02*
X18398292Y-13916803D01*
X18398292Y-13916803D02*
X18417339Y-13926327D01*
X18417339Y-13926327D02*
X18426863Y-13935851D01*
X18426863Y-13935851D02*
X18436387Y-13954898D01*
X18436387Y-13954898D02*
X18436387Y-14012041D01*
X18436387Y-14012041D02*
X18426863Y-14031089D01*
X18426863Y-14031089D02*
X18417339Y-14040613D01*
X18417339Y-14040613D02*
X18398292Y-14050136D01*
X18398292Y-14050136D02*
X18369720Y-14050136D01*
X18493530Y-13916803D02*
X18569720Y-13916803D01*
X18522101Y-13850136D02*
X18522101Y-14021565D01*
X18522101Y-14021565D02*
X18531625Y-14040613D01*
X18531625Y-14040613D02*
X18550673Y-14050136D01*
X18550673Y-14050136D02*
X18569720Y-14050136D01*
X18788768Y-13916803D02*
X18788768Y-14116803D01*
X18788768Y-13926327D02*
X18807815Y-13916803D01*
X18807815Y-13916803D02*
X18845911Y-13916803D01*
X18845911Y-13916803D02*
X18864958Y-13926327D01*
X18864958Y-13926327D02*
X18874482Y-13935851D01*
X18874482Y-13935851D02*
X18884006Y-13954898D01*
X18884006Y-13954898D02*
X18884006Y-14012041D01*
X18884006Y-14012041D02*
X18874482Y-14031089D01*
X18874482Y-14031089D02*
X18864958Y-14040613D01*
X18864958Y-14040613D02*
X18845911Y-14050136D01*
X18845911Y-14050136D02*
X18807815Y-14050136D01*
X18807815Y-14050136D02*
X18788768Y-14040613D01*
X18998292Y-14050136D02*
X18979244Y-14040613D01*
X18979244Y-14040613D02*
X18969720Y-14021565D01*
X18969720Y-14021565D02*
X18969720Y-13850136D01*
X19160196Y-14050136D02*
X19160196Y-13945375D01*
X19160196Y-13945375D02*
X19150673Y-13926327D01*
X19150673Y-13926327D02*
X19131625Y-13916803D01*
X19131625Y-13916803D02*
X19093530Y-13916803D01*
X19093530Y-13916803D02*
X19074482Y-13926327D01*
X19160196Y-14040613D02*
X19141149Y-14050136D01*
X19141149Y-14050136D02*
X19093530Y-14050136D01*
X19093530Y-14050136D02*
X19074482Y-14040613D01*
X19074482Y-14040613D02*
X19064958Y-14021565D01*
X19064958Y-14021565D02*
X19064958Y-14002517D01*
X19064958Y-14002517D02*
X19074482Y-13983470D01*
X19074482Y-13983470D02*
X19093530Y-13973946D01*
X19093530Y-13973946D02*
X19141149Y-13973946D01*
X19141149Y-13973946D02*
X19160196Y-13964422D01*
X19226863Y-13916803D02*
X19303054Y-13916803D01*
X19255435Y-13850136D02*
X19255435Y-14021565D01*
X19255435Y-14021565D02*
X19264958Y-14040613D01*
X19264958Y-14040613D02*
X19284006Y-14050136D01*
X19284006Y-14050136D02*
X19303054Y-14050136D01*
X19445911Y-14040613D02*
X19426863Y-14050136D01*
X19426863Y-14050136D02*
X19388768Y-14050136D01*
X19388768Y-14050136D02*
X19369720Y-14040613D01*
X19369720Y-14040613D02*
X19360196Y-14021565D01*
X19360196Y-14021565D02*
X19360196Y-13945375D01*
X19360196Y-13945375D02*
X19369720Y-13926327D01*
X19369720Y-13926327D02*
X19388768Y-13916803D01*
X19388768Y-13916803D02*
X19426863Y-13916803D01*
X19426863Y-13916803D02*
X19445911Y-13926327D01*
X19445911Y-13926327D02*
X19455435Y-13945375D01*
X19455435Y-13945375D02*
X19455435Y-13964422D01*
X19455435Y-13964422D02*
X19360196Y-13983470D01*
X19626863Y-14050136D02*
X19626863Y-13850136D01*
X19626863Y-14040613D02*
X19607816Y-14050136D01*
X19607816Y-14050136D02*
X19569720Y-14050136D01*
X19569720Y-14050136D02*
X19550673Y-14040613D01*
X19550673Y-14040613D02*
X19541149Y-14031089D01*
X19541149Y-14031089D02*
X19531625Y-14012041D01*
X19531625Y-14012041D02*
X19531625Y-13954898D01*
X19531625Y-13954898D02*
X19541149Y-13935851D01*
X19541149Y-13935851D02*
X19550673Y-13926327D01*
X19550673Y-13926327D02*
X19569720Y-13916803D01*
X19569720Y-13916803D02*
X19607816Y-13916803D01*
X19607816Y-13916803D02*
X19626863Y-13926327D01*
X19703054Y-14126327D02*
X19712577Y-14116803D01*
X19712577Y-14116803D02*
X19731625Y-14088232D01*
X19731625Y-14088232D02*
X19741149Y-14069184D01*
X19741149Y-14069184D02*
X19750673Y-14040613D01*
X19750673Y-14040613D02*
X19760196Y-13992994D01*
X19760196Y-13992994D02*
X19760196Y-13954898D01*
X19760196Y-13954898D02*
X19750673Y-13907279D01*
X19750673Y-13907279D02*
X19741149Y-13878708D01*
X19741149Y-13878708D02*
X19731625Y-13859660D01*
X19731625Y-13859660D02*
X19712577Y-13831089D01*
X19712577Y-13831089D02*
X19703054Y-13821565D01*
D12*
X12947038Y-14222653D02*
G75*
G02*
X12847978Y-14222653I-49530J0D01*
G01*
X12847978Y-14222653D02*
G75*
G02*
X12947038Y-14222653I49530J0D01*
G01*
D11*
X13245910Y-14114136D02*
X13264958Y-14114136D01*
X13264958Y-14114136D02*
X13284005Y-14123660D01*
X13284005Y-14123660D02*
X13293529Y-14133184D01*
X13293529Y-14133184D02*
X13303053Y-14152232D01*
X13303053Y-14152232D02*
X13312577Y-14190327D01*
X13312577Y-14190327D02*
X13312577Y-14237946D01*
X13312577Y-14237946D02*
X13303053Y-14276041D01*
X13303053Y-14276041D02*
X13293529Y-14295089D01*
X13293529Y-14295089D02*
X13284005Y-14304613D01*
X13284005Y-14304613D02*
X13264958Y-14314136D01*
X13264958Y-14314136D02*
X13245910Y-14314136D01*
X13245910Y-14314136D02*
X13226862Y-14304613D01*
X13226862Y-14304613D02*
X13217339Y-14295089D01*
X13217339Y-14295089D02*
X13207815Y-14276041D01*
X13207815Y-14276041D02*
X13198291Y-14237946D01*
X13198291Y-14237946D02*
X13198291Y-14190327D01*
X13198291Y-14190327D02*
X13207815Y-14152232D01*
X13207815Y-14152232D02*
X13217339Y-14133184D01*
X13217339Y-14133184D02*
X13226862Y-14123660D01*
X13226862Y-14123660D02*
X13245910Y-14114136D01*
X13398291Y-14295089D02*
X13407815Y-14304613D01*
X13407815Y-14304613D02*
X13398291Y-14314136D01*
X13398291Y-14314136D02*
X13388767Y-14304613D01*
X13388767Y-14304613D02*
X13398291Y-14295089D01*
X13398291Y-14295089D02*
X13398291Y-14314136D01*
X13503053Y-14314136D02*
X13541148Y-14314136D01*
X13541148Y-14314136D02*
X13560196Y-14304613D01*
X13560196Y-14304613D02*
X13569720Y-14295089D01*
X13569720Y-14295089D02*
X13588767Y-14266517D01*
X13588767Y-14266517D02*
X13598291Y-14228422D01*
X13598291Y-14228422D02*
X13598291Y-14152232D01*
X13598291Y-14152232D02*
X13588767Y-14133184D01*
X13588767Y-14133184D02*
X13579243Y-14123660D01*
X13579243Y-14123660D02*
X13560196Y-14114136D01*
X13560196Y-14114136D02*
X13522101Y-14114136D01*
X13522101Y-14114136D02*
X13503053Y-14123660D01*
X13503053Y-14123660D02*
X13493529Y-14133184D01*
X13493529Y-14133184D02*
X13484005Y-14152232D01*
X13484005Y-14152232D02*
X13484005Y-14199851D01*
X13484005Y-14199851D02*
X13493529Y-14218898D01*
X13493529Y-14218898D02*
X13503053Y-14228422D01*
X13503053Y-14228422D02*
X13522101Y-14237946D01*
X13522101Y-14237946D02*
X13560196Y-14237946D01*
X13560196Y-14237946D02*
X13579243Y-14228422D01*
X13579243Y-14228422D02*
X13588767Y-14218898D01*
X13588767Y-14218898D02*
X13598291Y-14199851D01*
X13693529Y-14314136D02*
X13731624Y-14314136D01*
X13731624Y-14314136D02*
X13750672Y-14304613D01*
X13750672Y-14304613D02*
X13760196Y-14295089D01*
X13760196Y-14295089D02*
X13779243Y-14266517D01*
X13779243Y-14266517D02*
X13788767Y-14228422D01*
X13788767Y-14228422D02*
X13788767Y-14152232D01*
X13788767Y-14152232D02*
X13779243Y-14133184D01*
X13779243Y-14133184D02*
X13769720Y-14123660D01*
X13769720Y-14123660D02*
X13750672Y-14114136D01*
X13750672Y-14114136D02*
X13712577Y-14114136D01*
X13712577Y-14114136D02*
X13693529Y-14123660D01*
X13693529Y-14123660D02*
X13684005Y-14133184D01*
X13684005Y-14133184D02*
X13674482Y-14152232D01*
X13674482Y-14152232D02*
X13674482Y-14199851D01*
X13674482Y-14199851D02*
X13684005Y-14218898D01*
X13684005Y-14218898D02*
X13693529Y-14228422D01*
X13693529Y-14228422D02*
X13712577Y-14237946D01*
X13712577Y-14237946D02*
X13750672Y-14237946D01*
X13750672Y-14237946D02*
X13769720Y-14228422D01*
X13769720Y-14228422D02*
X13779243Y-14218898D01*
X13779243Y-14218898D02*
X13788767Y-14199851D01*
X13979243Y-14314136D02*
X13864958Y-14314136D01*
X13922101Y-14314136D02*
X13922101Y-14114136D01*
X13922101Y-14114136D02*
X13903053Y-14142708D01*
X13903053Y-14142708D02*
X13884005Y-14161755D01*
X13884005Y-14161755D02*
X13864958Y-14171279D01*
X14064958Y-14314136D02*
X14064958Y-14180803D01*
X14064958Y-14199851D02*
X14074482Y-14190327D01*
X14074482Y-14190327D02*
X14093529Y-14180803D01*
X14093529Y-14180803D02*
X14122101Y-14180803D01*
X14122101Y-14180803D02*
X14141148Y-14190327D01*
X14141148Y-14190327D02*
X14150672Y-14209375D01*
X14150672Y-14209375D02*
X14150672Y-14314136D01*
X14150672Y-14209375D02*
X14160196Y-14190327D01*
X14160196Y-14190327D02*
X14179243Y-14180803D01*
X14179243Y-14180803D02*
X14207815Y-14180803D01*
X14207815Y-14180803D02*
X14226863Y-14190327D01*
X14226863Y-14190327D02*
X14236386Y-14209375D01*
X14236386Y-14209375D02*
X14236386Y-14314136D01*
X14331624Y-14314136D02*
X14331624Y-14180803D01*
X14331624Y-14199851D02*
X14341148Y-14190327D01*
X14341148Y-14190327D02*
X14360196Y-14180803D01*
X14360196Y-14180803D02*
X14388767Y-14180803D01*
X14388767Y-14180803D02*
X14407815Y-14190327D01*
X14407815Y-14190327D02*
X14417339Y-14209375D01*
X14417339Y-14209375D02*
X14417339Y-14314136D01*
X14417339Y-14209375D02*
X14426863Y-14190327D01*
X14426863Y-14190327D02*
X14445910Y-14180803D01*
X14445910Y-14180803D02*
X14474482Y-14180803D01*
X14474482Y-14180803D02*
X14493529Y-14190327D01*
X14493529Y-14190327D02*
X14503053Y-14209375D01*
X14503053Y-14209375D02*
X14503053Y-14314136D01*
X14893529Y-14104613D02*
X14722101Y-14361755D01*
X15150672Y-14114136D02*
X15169720Y-14114136D01*
X15169720Y-14114136D02*
X15188767Y-14123660D01*
X15188767Y-14123660D02*
X15198291Y-14133184D01*
X15198291Y-14133184D02*
X15207815Y-14152232D01*
X15207815Y-14152232D02*
X15217339Y-14190327D01*
X15217339Y-14190327D02*
X15217339Y-14237946D01*
X15217339Y-14237946D02*
X15207815Y-14276041D01*
X15207815Y-14276041D02*
X15198291Y-14295089D01*
X15198291Y-14295089D02*
X15188767Y-14304613D01*
X15188767Y-14304613D02*
X15169720Y-14314136D01*
X15169720Y-14314136D02*
X15150672Y-14314136D01*
X15150672Y-14314136D02*
X15131625Y-14304613D01*
X15131625Y-14304613D02*
X15122101Y-14295089D01*
X15122101Y-14295089D02*
X15112577Y-14276041D01*
X15112577Y-14276041D02*
X15103053Y-14237946D01*
X15103053Y-14237946D02*
X15103053Y-14190327D01*
X15103053Y-14190327D02*
X15112577Y-14152232D01*
X15112577Y-14152232D02*
X15122101Y-14133184D01*
X15122101Y-14133184D02*
X15131625Y-14123660D01*
X15131625Y-14123660D02*
X15150672Y-14114136D01*
X15303053Y-14295089D02*
X15312577Y-14304613D01*
X15312577Y-14304613D02*
X15303053Y-14314136D01*
X15303053Y-14314136D02*
X15293529Y-14304613D01*
X15293529Y-14304613D02*
X15303053Y-14295089D01*
X15303053Y-14295089D02*
X15303053Y-14314136D01*
X15436386Y-14114136D02*
X15455434Y-14114136D01*
X15455434Y-14114136D02*
X15474482Y-14123660D01*
X15474482Y-14123660D02*
X15484006Y-14133184D01*
X15484006Y-14133184D02*
X15493529Y-14152232D01*
X15493529Y-14152232D02*
X15503053Y-14190327D01*
X15503053Y-14190327D02*
X15503053Y-14237946D01*
X15503053Y-14237946D02*
X15493529Y-14276041D01*
X15493529Y-14276041D02*
X15484006Y-14295089D01*
X15484006Y-14295089D02*
X15474482Y-14304613D01*
X15474482Y-14304613D02*
X15455434Y-14314136D01*
X15455434Y-14314136D02*
X15436386Y-14314136D01*
X15436386Y-14314136D02*
X15417339Y-14304613D01*
X15417339Y-14304613D02*
X15407815Y-14295089D01*
X15407815Y-14295089D02*
X15398291Y-14276041D01*
X15398291Y-14276041D02*
X15388767Y-14237946D01*
X15388767Y-14237946D02*
X15388767Y-14190327D01*
X15388767Y-14190327D02*
X15398291Y-14152232D01*
X15398291Y-14152232D02*
X15407815Y-14133184D01*
X15407815Y-14133184D02*
X15417339Y-14123660D01*
X15417339Y-14123660D02*
X15436386Y-14114136D01*
X15569720Y-14114136D02*
X15693529Y-14114136D01*
X15693529Y-14114136D02*
X15626863Y-14190327D01*
X15626863Y-14190327D02*
X15655434Y-14190327D01*
X15655434Y-14190327D02*
X15674482Y-14199851D01*
X15674482Y-14199851D02*
X15684006Y-14209375D01*
X15684006Y-14209375D02*
X15693529Y-14228422D01*
X15693529Y-14228422D02*
X15693529Y-14276041D01*
X15693529Y-14276041D02*
X15684006Y-14295089D01*
X15684006Y-14295089D02*
X15674482Y-14304613D01*
X15674482Y-14304613D02*
X15655434Y-14314136D01*
X15655434Y-14314136D02*
X15598291Y-14314136D01*
X15598291Y-14314136D02*
X15579244Y-14304613D01*
X15579244Y-14304613D02*
X15569720Y-14295089D01*
X15788767Y-14314136D02*
X15826863Y-14314136D01*
X15826863Y-14314136D02*
X15845910Y-14304613D01*
X15845910Y-14304613D02*
X15855434Y-14295089D01*
X15855434Y-14295089D02*
X15874482Y-14266517D01*
X15874482Y-14266517D02*
X15884006Y-14228422D01*
X15884006Y-14228422D02*
X15884006Y-14152232D01*
X15884006Y-14152232D02*
X15874482Y-14133184D01*
X15874482Y-14133184D02*
X15864958Y-14123660D01*
X15864958Y-14123660D02*
X15845910Y-14114136D01*
X15845910Y-14114136D02*
X15807815Y-14114136D01*
X15807815Y-14114136D02*
X15788767Y-14123660D01*
X15788767Y-14123660D02*
X15779244Y-14133184D01*
X15779244Y-14133184D02*
X15769720Y-14152232D01*
X15769720Y-14152232D02*
X15769720Y-14199851D01*
X15769720Y-14199851D02*
X15779244Y-14218898D01*
X15779244Y-14218898D02*
X15788767Y-14228422D01*
X15788767Y-14228422D02*
X15807815Y-14237946D01*
X15807815Y-14237946D02*
X15845910Y-14237946D01*
X15845910Y-14237946D02*
X15864958Y-14228422D01*
X15864958Y-14228422D02*
X15874482Y-14218898D01*
X15874482Y-14218898D02*
X15884006Y-14199851D01*
X16007815Y-14114136D02*
X16026863Y-14114136D01*
X16026863Y-14114136D02*
X16045910Y-14123660D01*
X16045910Y-14123660D02*
X16055434Y-14133184D01*
X16055434Y-14133184D02*
X16064958Y-14152232D01*
X16064958Y-14152232D02*
X16074482Y-14190327D01*
X16074482Y-14190327D02*
X16074482Y-14237946D01*
X16074482Y-14237946D02*
X16064958Y-14276041D01*
X16064958Y-14276041D02*
X16055434Y-14295089D01*
X16055434Y-14295089D02*
X16045910Y-14304613D01*
X16045910Y-14304613D02*
X16026863Y-14314136D01*
X16026863Y-14314136D02*
X16007815Y-14314136D01*
X16007815Y-14314136D02*
X15988767Y-14304613D01*
X15988767Y-14304613D02*
X15979244Y-14295089D01*
X15979244Y-14295089D02*
X15969720Y-14276041D01*
X15969720Y-14276041D02*
X15960196Y-14237946D01*
X15960196Y-14237946D02*
X15960196Y-14190327D01*
X15960196Y-14190327D02*
X15969720Y-14152232D01*
X15969720Y-14152232D02*
X15979244Y-14133184D01*
X15979244Y-14133184D02*
X15988767Y-14123660D01*
X15988767Y-14123660D02*
X16007815Y-14114136D01*
X16150672Y-14114136D02*
X16150672Y-14152232D01*
X16226863Y-14114136D02*
X16226863Y-14152232D01*
X16522101Y-14390327D02*
X16512577Y-14380803D01*
X16512577Y-14380803D02*
X16493529Y-14352232D01*
X16493529Y-14352232D02*
X16484006Y-14333184D01*
X16484006Y-14333184D02*
X16474482Y-14304613D01*
X16474482Y-14304613D02*
X16464958Y-14256994D01*
X16464958Y-14256994D02*
X16464958Y-14218898D01*
X16464958Y-14218898D02*
X16474482Y-14171279D01*
X16474482Y-14171279D02*
X16484006Y-14142708D01*
X16484006Y-14142708D02*
X16493529Y-14123660D01*
X16493529Y-14123660D02*
X16512577Y-14095089D01*
X16512577Y-14095089D02*
X16522101Y-14085565D01*
X16579244Y-14114136D02*
X16703053Y-14114136D01*
X16703053Y-14114136D02*
X16636387Y-14190327D01*
X16636387Y-14190327D02*
X16664958Y-14190327D01*
X16664958Y-14190327D02*
X16684006Y-14199851D01*
X16684006Y-14199851D02*
X16693529Y-14209375D01*
X16693529Y-14209375D02*
X16703053Y-14228422D01*
X16703053Y-14228422D02*
X16703053Y-14276041D01*
X16703053Y-14276041D02*
X16693529Y-14295089D01*
X16693529Y-14295089D02*
X16684006Y-14304613D01*
X16684006Y-14304613D02*
X16664958Y-14314136D01*
X16664958Y-14314136D02*
X16607815Y-14314136D01*
X16607815Y-14314136D02*
X16588768Y-14304613D01*
X16588768Y-14304613D02*
X16579244Y-14295089D01*
X16941149Y-14314136D02*
X16941149Y-14114136D01*
X17026863Y-14314136D02*
X17026863Y-14209375D01*
X17026863Y-14209375D02*
X17017339Y-14190327D01*
X17017339Y-14190327D02*
X16998292Y-14180803D01*
X16998292Y-14180803D02*
X16969720Y-14180803D01*
X16969720Y-14180803D02*
X16950672Y-14190327D01*
X16950672Y-14190327D02*
X16941149Y-14199851D01*
X17150672Y-14314136D02*
X17131625Y-14304613D01*
X17131625Y-14304613D02*
X17122101Y-14295089D01*
X17122101Y-14295089D02*
X17112577Y-14276041D01*
X17112577Y-14276041D02*
X17112577Y-14218898D01*
X17112577Y-14218898D02*
X17122101Y-14199851D01*
X17122101Y-14199851D02*
X17131625Y-14190327D01*
X17131625Y-14190327D02*
X17150672Y-14180803D01*
X17150672Y-14180803D02*
X17179244Y-14180803D01*
X17179244Y-14180803D02*
X17198292Y-14190327D01*
X17198292Y-14190327D02*
X17207815Y-14199851D01*
X17207815Y-14199851D02*
X17217339Y-14218898D01*
X17217339Y-14218898D02*
X17217339Y-14276041D01*
X17217339Y-14276041D02*
X17207815Y-14295089D01*
X17207815Y-14295089D02*
X17198292Y-14304613D01*
X17198292Y-14304613D02*
X17179244Y-14314136D01*
X17179244Y-14314136D02*
X17150672Y-14314136D01*
X17331625Y-14314136D02*
X17312577Y-14304613D01*
X17312577Y-14304613D02*
X17303053Y-14285565D01*
X17303053Y-14285565D02*
X17303053Y-14114136D01*
X17484006Y-14304613D02*
X17464958Y-14314136D01*
X17464958Y-14314136D02*
X17426863Y-14314136D01*
X17426863Y-14314136D02*
X17407815Y-14304613D01*
X17407815Y-14304613D02*
X17398292Y-14285565D01*
X17398292Y-14285565D02*
X17398292Y-14209375D01*
X17398292Y-14209375D02*
X17407815Y-14190327D01*
X17407815Y-14190327D02*
X17426863Y-14180803D01*
X17426863Y-14180803D02*
X17464958Y-14180803D01*
X17464958Y-14180803D02*
X17484006Y-14190327D01*
X17484006Y-14190327D02*
X17493530Y-14209375D01*
X17493530Y-14209375D02*
X17493530Y-14228422D01*
X17493530Y-14228422D02*
X17398292Y-14247470D01*
X17569720Y-14304613D02*
X17588768Y-14314136D01*
X17588768Y-14314136D02*
X17626863Y-14314136D01*
X17626863Y-14314136D02*
X17645911Y-14304613D01*
X17645911Y-14304613D02*
X17655434Y-14285565D01*
X17655434Y-14285565D02*
X17655434Y-14276041D01*
X17655434Y-14276041D02*
X17645911Y-14256994D01*
X17645911Y-14256994D02*
X17626863Y-14247470D01*
X17626863Y-14247470D02*
X17598292Y-14247470D01*
X17598292Y-14247470D02*
X17579244Y-14237946D01*
X17579244Y-14237946D02*
X17569720Y-14218898D01*
X17569720Y-14218898D02*
X17569720Y-14209375D01*
X17569720Y-14209375D02*
X17579244Y-14190327D01*
X17579244Y-14190327D02*
X17598292Y-14180803D01*
X17598292Y-14180803D02*
X17626863Y-14180803D01*
X17626863Y-14180803D02*
X17645911Y-14190327D01*
X17722101Y-14390327D02*
X17731625Y-14380803D01*
X17731625Y-14380803D02*
X17750673Y-14352232D01*
X17750673Y-14352232D02*
X17760196Y-14333184D01*
X17760196Y-14333184D02*
X17769720Y-14304613D01*
X17769720Y-14304613D02*
X17779244Y-14256994D01*
X17779244Y-14256994D02*
X17779244Y-14218898D01*
X17779244Y-14218898D02*
X17769720Y-14171279D01*
X17769720Y-14171279D02*
X17760196Y-14142708D01*
X17760196Y-14142708D02*
X17750673Y-14123660D01*
X17750673Y-14123660D02*
X17731625Y-14095089D01*
X17731625Y-14095089D02*
X17722101Y-14085565D01*
X18084006Y-14390327D02*
X18074482Y-14380803D01*
X18074482Y-14380803D02*
X18055434Y-14352232D01*
X18055434Y-14352232D02*
X18045911Y-14333184D01*
X18045911Y-14333184D02*
X18036387Y-14304613D01*
X18036387Y-14304613D02*
X18026863Y-14256994D01*
X18026863Y-14256994D02*
X18026863Y-14218898D01*
X18026863Y-14218898D02*
X18036387Y-14171279D01*
X18036387Y-14171279D02*
X18045911Y-14142708D01*
X18045911Y-14142708D02*
X18055434Y-14123660D01*
X18055434Y-14123660D02*
X18074482Y-14095089D01*
X18074482Y-14095089D02*
X18084006Y-14085565D01*
X18160196Y-14180803D02*
X18160196Y-14314136D01*
X18160196Y-14199851D02*
X18169720Y-14190327D01*
X18169720Y-14190327D02*
X18188768Y-14180803D01*
X18188768Y-14180803D02*
X18217339Y-14180803D01*
X18217339Y-14180803D02*
X18236387Y-14190327D01*
X18236387Y-14190327D02*
X18245911Y-14209375D01*
X18245911Y-14209375D02*
X18245911Y-14314136D01*
X18369720Y-14314136D02*
X18350673Y-14304613D01*
X18350673Y-14304613D02*
X18341149Y-14295089D01*
X18341149Y-14295089D02*
X18331625Y-14276041D01*
X18331625Y-14276041D02*
X18331625Y-14218898D01*
X18331625Y-14218898D02*
X18341149Y-14199851D01*
X18341149Y-14199851D02*
X18350673Y-14190327D01*
X18350673Y-14190327D02*
X18369720Y-14180803D01*
X18369720Y-14180803D02*
X18398292Y-14180803D01*
X18398292Y-14180803D02*
X18417339Y-14190327D01*
X18417339Y-14190327D02*
X18426863Y-14199851D01*
X18426863Y-14199851D02*
X18436387Y-14218898D01*
X18436387Y-14218898D02*
X18436387Y-14276041D01*
X18436387Y-14276041D02*
X18426863Y-14295089D01*
X18426863Y-14295089D02*
X18417339Y-14304613D01*
X18417339Y-14304613D02*
X18398292Y-14314136D01*
X18398292Y-14314136D02*
X18369720Y-14314136D01*
X18493530Y-14180803D02*
X18569720Y-14180803D01*
X18522101Y-14114136D02*
X18522101Y-14285565D01*
X18522101Y-14285565D02*
X18531625Y-14304613D01*
X18531625Y-14304613D02*
X18550673Y-14314136D01*
X18550673Y-14314136D02*
X18569720Y-14314136D01*
X18788768Y-14180803D02*
X18788768Y-14380803D01*
X18788768Y-14190327D02*
X18807815Y-14180803D01*
X18807815Y-14180803D02*
X18845911Y-14180803D01*
X18845911Y-14180803D02*
X18864958Y-14190327D01*
X18864958Y-14190327D02*
X18874482Y-14199851D01*
X18874482Y-14199851D02*
X18884006Y-14218898D01*
X18884006Y-14218898D02*
X18884006Y-14276041D01*
X18884006Y-14276041D02*
X18874482Y-14295089D01*
X18874482Y-14295089D02*
X18864958Y-14304613D01*
X18864958Y-14304613D02*
X18845911Y-14314136D01*
X18845911Y-14314136D02*
X18807815Y-14314136D01*
X18807815Y-14314136D02*
X18788768Y-14304613D01*
X18998292Y-14314136D02*
X18979244Y-14304613D01*
X18979244Y-14304613D02*
X18969720Y-14285565D01*
X18969720Y-14285565D02*
X18969720Y-14114136D01*
X19160196Y-14314136D02*
X19160196Y-14209375D01*
X19160196Y-14209375D02*
X19150673Y-14190327D01*
X19150673Y-14190327D02*
X19131625Y-14180803D01*
X19131625Y-14180803D02*
X19093530Y-14180803D01*
X19093530Y-14180803D02*
X19074482Y-14190327D01*
X19160196Y-14304613D02*
X19141149Y-14314136D01*
X19141149Y-14314136D02*
X19093530Y-14314136D01*
X19093530Y-14314136D02*
X19074482Y-14304613D01*
X19074482Y-14304613D02*
X19064958Y-14285565D01*
X19064958Y-14285565D02*
X19064958Y-14266517D01*
X19064958Y-14266517D02*
X19074482Y-14247470D01*
X19074482Y-14247470D02*
X19093530Y-14237946D01*
X19093530Y-14237946D02*
X19141149Y-14237946D01*
X19141149Y-14237946D02*
X19160196Y-14228422D01*
X19226863Y-14180803D02*
X19303054Y-14180803D01*
X19255435Y-14114136D02*
X19255435Y-14285565D01*
X19255435Y-14285565D02*
X19264958Y-14304613D01*
X19264958Y-14304613D02*
X19284006Y-14314136D01*
X19284006Y-14314136D02*
X19303054Y-14314136D01*
X19445911Y-14304613D02*
X19426863Y-14314136D01*
X19426863Y-14314136D02*
X19388768Y-14314136D01*
X19388768Y-14314136D02*
X19369720Y-14304613D01*
X19369720Y-14304613D02*
X19360196Y-14285565D01*
X19360196Y-14285565D02*
X19360196Y-14209375D01*
X19360196Y-14209375D02*
X19369720Y-14190327D01*
X19369720Y-14190327D02*
X19388768Y-14180803D01*
X19388768Y-14180803D02*
X19426863Y-14180803D01*
X19426863Y-14180803D02*
X19445911Y-14190327D01*
X19445911Y-14190327D02*
X19455435Y-14209375D01*
X19455435Y-14209375D02*
X19455435Y-14228422D01*
X19455435Y-14228422D02*
X19360196Y-14247470D01*
X19626863Y-14314136D02*
X19626863Y-14114136D01*
X19626863Y-14304613D02*
X19607816Y-14314136D01*
X19607816Y-14314136D02*
X19569720Y-14314136D01*
X19569720Y-14314136D02*
X19550673Y-14304613D01*
X19550673Y-14304613D02*
X19541149Y-14295089D01*
X19541149Y-14295089D02*
X19531625Y-14276041D01*
X19531625Y-14276041D02*
X19531625Y-14218898D01*
X19531625Y-14218898D02*
X19541149Y-14199851D01*
X19541149Y-14199851D02*
X19550673Y-14190327D01*
X19550673Y-14190327D02*
X19569720Y-14180803D01*
X19569720Y-14180803D02*
X19607816Y-14180803D01*
X19607816Y-14180803D02*
X19626863Y-14190327D01*
X19703054Y-14390327D02*
X19712577Y-14380803D01*
X19712577Y-14380803D02*
X19731625Y-14352232D01*
X19731625Y-14352232D02*
X19741149Y-14333184D01*
X19741149Y-14333184D02*
X19750673Y-14304613D01*
X19750673Y-14304613D02*
X19760196Y-14256994D01*
X19760196Y-14256994D02*
X19760196Y-14218898D01*
X19760196Y-14218898D02*
X19750673Y-14171279D01*
X19750673Y-14171279D02*
X19741149Y-14142708D01*
X19741149Y-14142708D02*
X19731625Y-14123660D01*
X19731625Y-14123660D02*
X19712577Y-14095089D01*
X19712577Y-14095089D02*
X19703054Y-14085565D01*
M02*
