%TF.GenerationSoftware,KiCad,Pcbnew,8.0.8*%
%TF.CreationDate,2025-02-04T17:04:21+00:00*%
%TF.ProjectId,mariposa,6d617269-706f-4736-912e-6b696361645f,2.0*%
%TF.SameCoordinates,Original*%
%TF.FileFunction,Drillmap*%
%TF.FilePolarity,Positive*%
%FSLAX45Y45*%
G04 Gerber Fmt 4.5, Leading zero omitted, Abs format (unit mm)*
G04 Created by KiCad (PCBNEW 8.0.8) date 2025-02-04 17:04:21*
%MOMM*%
%LPD*%
G01*
G04 APERTURE LIST*
%ADD10C,0.050000*%
%ADD11C,0.201083*%
%ADD12C,0.200000*%
%ADD13C,0.100000*%
G04 APERTURE END LIST*
D10*
X14450000Y-7630000D02*
G75*
G02*
X14500000Y-7580000I50000J0D01*
G01*
X14500000Y-7680000D02*
G75*
G02*
X14450000Y-7630000I0J50000D01*
G01*
D11*
X17089496Y-3604584D02*
X17109403Y-3605977D01*
X17129287Y-3608326D01*
X17149095Y-3611617D01*
X17168777Y-3615833D01*
X17188281Y-3620962D01*
X17207555Y-3626987D01*
X17226547Y-3633894D01*
X17245206Y-3641669D01*
X17263480Y-3650296D01*
X17281318Y-3659761D01*
X17298668Y-3670048D01*
X17315478Y-3681143D01*
X17331697Y-3693032D01*
X17347273Y-3705699D01*
X17362154Y-3719129D01*
X17376289Y-3733308D01*
X17389627Y-3748221D01*
X17402115Y-3763853D01*
X17413702Y-3780190D01*
X17424336Y-3797215D01*
X17433966Y-3814916D01*
X17442540Y-3833276D01*
X17450007Y-3852281D01*
X17456790Y-3873634D01*
X17462016Y-3895188D01*
X17465726Y-3916884D01*
X17467962Y-3938663D01*
X17468765Y-3960465D01*
X17468176Y-3982232D01*
X17466237Y-4003904D01*
X17462989Y-4025422D01*
X17458474Y-4046727D01*
X17452733Y-4067761D01*
X17445807Y-4088463D01*
X17437737Y-4108774D01*
X17428566Y-4128637D01*
X17418334Y-4147990D01*
X17407084Y-4166776D01*
X17394855Y-4184935D01*
X17381690Y-4202408D01*
X17367630Y-4219136D01*
X17352716Y-4235060D01*
X17336990Y-4250120D01*
X17320494Y-4264258D01*
X17303268Y-4277414D01*
X17285353Y-4289529D01*
X17266792Y-4300544D01*
X17247626Y-4310400D01*
X17227896Y-4319038D01*
X17207643Y-4326399D01*
X17186909Y-4332423D01*
X17165736Y-4337052D01*
X17144164Y-4340226D01*
X17122235Y-4341885D01*
X17099990Y-4341972D01*
X17080898Y-4340812D01*
X17062472Y-4338627D01*
X17044709Y-4335488D01*
X17027605Y-4331464D01*
X17011155Y-4326625D01*
X16995357Y-4321039D01*
X16980205Y-4314778D01*
X16965696Y-4307910D01*
X16951825Y-4300504D01*
X16938590Y-4292631D01*
X16925986Y-4284361D01*
X16914008Y-4275761D01*
X16891919Y-4257856D01*
X16872289Y-4239473D01*
X16855088Y-4221167D01*
X16840283Y-4203497D01*
X16827843Y-4187017D01*
X16817736Y-4172286D01*
X16804395Y-4150294D01*
X16800004Y-4141974D01*
X16793662Y-4142528D01*
X16785999Y-4143533D01*
X16775574Y-4145300D01*
X16762563Y-4148036D01*
X16747143Y-4151949D01*
X16729488Y-4157246D01*
X16709775Y-4164136D01*
X16688178Y-4172826D01*
X16676728Y-4177910D01*
X16664873Y-4183523D01*
X16652635Y-4189689D01*
X16640036Y-4196435D01*
X16627098Y-4203787D01*
X16613843Y-4211771D01*
X16600292Y-4220412D01*
X16586469Y-4229736D01*
X16572393Y-4239770D01*
X16558089Y-4250540D01*
X16543577Y-4262071D01*
X16528879Y-4274389D01*
X16514018Y-4287520D01*
X16499015Y-4301491D01*
X16490607Y-4309799D01*
X16482718Y-4318145D01*
X16475332Y-4326530D01*
X16468431Y-4334957D01*
X16461996Y-4343428D01*
X16456010Y-4351944D01*
X16450455Y-4360508D01*
X16445315Y-4369122D01*
X16436203Y-4386504D01*
X16428534Y-4404109D01*
X16422165Y-4421950D01*
X16416955Y-4440044D01*
X16412761Y-4458405D01*
X16409443Y-4477051D01*
X16406859Y-4495996D01*
X16404867Y-4515257D01*
X16402091Y-4554785D01*
X16399982Y-4595761D01*
X16500254Y-4671898D01*
X16595741Y-4753072D01*
X16686210Y-4839068D01*
X16771429Y-4929667D01*
X16851166Y-5024655D01*
X16925188Y-5123813D01*
X16993263Y-5226926D01*
X17055159Y-5333776D01*
X17110644Y-5444148D01*
X17159484Y-5557823D01*
X17201448Y-5674587D01*
X17236303Y-5794221D01*
X17263817Y-5916510D01*
X17283757Y-6041237D01*
X17290815Y-6104447D01*
X17295892Y-6168185D01*
X17298960Y-6232424D01*
X17299989Y-6297137D01*
X17296067Y-6425224D01*
X17284433Y-6550978D01*
X17265282Y-6674235D01*
X17238809Y-6794828D01*
X17205211Y-6912592D01*
X17164683Y-7027361D01*
X17117420Y-7138970D01*
X17063620Y-7247253D01*
X17003476Y-7352044D01*
X16937185Y-7453178D01*
X16864942Y-7550490D01*
X16786944Y-7643813D01*
X16703386Y-7732981D01*
X16614463Y-7817831D01*
X16520371Y-7898195D01*
X16421307Y-7973908D01*
X16417588Y-7976695D01*
X16414031Y-7979624D01*
X16410640Y-7982689D01*
X16407414Y-7985884D01*
X16404356Y-7989201D01*
X16401467Y-7992634D01*
X16398749Y-7996177D01*
X16396203Y-7999823D01*
X16393831Y-8003566D01*
X16391634Y-8007400D01*
X16389614Y-8011316D01*
X16387772Y-8015310D01*
X16386111Y-8019375D01*
X16384631Y-8023504D01*
X16383334Y-8027690D01*
X16382221Y-8031928D01*
X16381295Y-8036210D01*
X16380557Y-8040530D01*
X16380008Y-8044881D01*
X16379650Y-8049258D01*
X16379484Y-8053653D01*
X16379512Y-8058060D01*
X16379735Y-8062473D01*
X16380156Y-8066884D01*
X16380775Y-8071288D01*
X16381594Y-8075678D01*
X16382615Y-8080048D01*
X16383839Y-8084390D01*
X16385268Y-8088699D01*
X16386904Y-8092967D01*
X16388747Y-8097189D01*
X16390800Y-8101358D01*
X17211538Y-9674756D01*
X17227250Y-9706837D01*
X17241245Y-9739524D01*
X17253516Y-9772751D01*
X17264060Y-9806450D01*
X17272870Y-9840554D01*
X17279941Y-9874995D01*
X17285270Y-9909706D01*
X17288849Y-9944620D01*
X17290675Y-9979670D01*
X17290743Y-10014788D01*
X17289046Y-10049907D01*
X17285580Y-10084959D01*
X17280340Y-10119878D01*
X17273321Y-10154595D01*
X17264517Y-10189044D01*
X17253924Y-10223157D01*
X17241602Y-10256686D01*
X17227655Y-10289393D01*
X17212129Y-10321228D01*
X17195067Y-10352141D01*
X17176514Y-10382082D01*
X17156517Y-10410999D01*
X17135119Y-10438844D01*
X17112366Y-10465565D01*
X17088303Y-10491113D01*
X17062974Y-10515437D01*
X17036425Y-10538487D01*
X17008700Y-10560212D01*
X16979845Y-10580563D01*
X16949905Y-10599489D01*
X16918924Y-10616939D01*
X16886947Y-10632864D01*
X16388261Y-10865592D01*
X16370624Y-10874350D01*
X16353598Y-10883859D01*
X16337195Y-10894092D01*
X16321427Y-10905018D01*
X16306305Y-10916609D01*
X16291842Y-10928835D01*
X16278048Y-10941667D01*
X16264935Y-10955077D01*
X16252516Y-10969034D01*
X16240801Y-10983510D01*
X16229803Y-10998476D01*
X16219533Y-11013901D01*
X16210002Y-11029758D01*
X16201223Y-11046017D01*
X16193207Y-11062648D01*
X16185966Y-11079623D01*
X16179512Y-11096912D01*
X16173855Y-11114487D01*
X16169008Y-11132317D01*
X16164983Y-11150374D01*
X16161791Y-11168629D01*
X16159444Y-11187052D01*
X16157954Y-11205614D01*
X16157331Y-11224286D01*
X16157589Y-11243039D01*
X16158737Y-11261844D01*
X16160790Y-11280671D01*
X16163757Y-11299491D01*
X16167650Y-11318275D01*
X16172482Y-11336995D01*
X16178264Y-11355620D01*
X16185008Y-11374121D01*
X16297874Y-11655828D01*
X16434146Y-11984475D01*
X16508957Y-12159323D01*
X16587097Y-12337411D01*
X16667725Y-12515909D01*
X16749999Y-12691984D01*
X16790814Y-12788669D01*
X16819882Y-12881865D01*
X16837762Y-12971600D01*
X16845014Y-13057901D01*
X16842195Y-13140797D01*
X16829863Y-13220315D01*
X16808578Y-13296481D01*
X16778898Y-13369324D01*
X16741380Y-13438871D01*
X16696585Y-13505150D01*
X16645069Y-13568188D01*
X16587393Y-13628012D01*
X16524113Y-13684650D01*
X16455789Y-13738129D01*
X16382978Y-13788478D01*
X16306240Y-13835722D01*
X16226133Y-13879891D01*
X16143216Y-13921010D01*
X16058046Y-13959109D01*
X15971182Y-13994214D01*
X15794608Y-14055552D01*
X15617961Y-14105245D01*
X15445707Y-14143513D01*
X15282316Y-14170574D01*
X15132255Y-14186650D01*
X14999992Y-14191960D01*
X14876518Y-14186650D01*
X14734075Y-14170574D01*
X14577129Y-14143513D01*
X14410148Y-14105245D01*
X14237601Y-14055552D01*
X14063955Y-13994214D01*
X13893679Y-13921010D01*
X13731239Y-13835722D01*
X13654354Y-13788478D01*
X13581103Y-13738129D01*
X13512046Y-13684650D01*
X13447741Y-13628012D01*
X13388745Y-13568188D01*
X13335618Y-13505150D01*
X13288918Y-13438871D01*
X13249204Y-13369324D01*
X13217033Y-13296481D01*
X13192965Y-13220315D01*
X13177558Y-13140797D01*
X13171371Y-13057901D01*
X13174961Y-12971600D01*
X13188888Y-12881865D01*
X13213709Y-12788669D01*
X13249984Y-12691984D01*
X13555298Y-11972036D01*
X13803680Y-11377323D01*
X13810870Y-11358698D01*
X13817073Y-11339930D01*
X13822303Y-11321050D01*
X13826570Y-11302089D01*
X13829886Y-11283076D01*
X13832264Y-11264043D01*
X13833715Y-11245020D01*
X13834251Y-11226037D01*
X13833883Y-11207125D01*
X13832624Y-11188314D01*
X13830486Y-11169635D01*
X13827479Y-11151117D01*
X13823617Y-11132792D01*
X13818910Y-11114690D01*
X13813372Y-11096841D01*
X13807012Y-11079276D01*
X13799845Y-11062025D01*
X13791880Y-11045119D01*
X13783130Y-11028588D01*
X13773608Y-11012463D01*
X13763324Y-10996774D01*
X13752290Y-10981551D01*
X13740519Y-10966825D01*
X13728022Y-10952627D01*
X13714811Y-10938986D01*
X13700898Y-10925933D01*
X13686294Y-10913499D01*
X13671012Y-10901715D01*
X13655064Y-10890610D01*
X13638460Y-10880214D01*
X13621214Y-10870560D01*
X13603336Y-10861676D01*
X13113036Y-10632864D01*
X13081064Y-10616939D01*
X13050086Y-10599489D01*
X13020148Y-10580563D01*
X12991295Y-10560212D01*
X12963571Y-10538487D01*
X12937022Y-10515437D01*
X12911692Y-10491113D01*
X12887628Y-10465565D01*
X12864874Y-10438844D01*
X12843474Y-10410999D01*
X12823475Y-10382082D01*
X12804921Y-10352141D01*
X12787858Y-10321228D01*
X12772329Y-10289393D01*
X12758382Y-10256686D01*
X12746059Y-10223157D01*
X12735466Y-10189044D01*
X12726663Y-10154595D01*
X12719644Y-10119878D01*
X12714404Y-10084959D01*
X12710938Y-10049907D01*
X12709241Y-10014788D01*
X12709308Y-9979670D01*
X12711134Y-9944620D01*
X12714714Y-9909706D01*
X12720042Y-9874995D01*
X12727114Y-9840554D01*
X12735924Y-9806450D01*
X12746467Y-9772751D01*
X12758739Y-9739524D01*
X12772733Y-9706837D01*
X12788445Y-9674756D01*
X13609315Y-8101411D01*
X13611370Y-8097237D01*
X13613215Y-8093010D01*
X13614852Y-8088736D01*
X13616283Y-8084422D01*
X13617508Y-8080075D01*
X13618530Y-8075700D01*
X13619350Y-8071304D01*
X13619970Y-8066894D01*
X13620614Y-8058058D01*
X13620475Y-8049244D01*
X13619565Y-8040505D01*
X13617897Y-8031891D01*
X13615484Y-8023456D01*
X13612337Y-8015252D01*
X13608470Y-8007332D01*
X13603894Y-7999746D01*
X13601344Y-7996095D01*
X13598622Y-7992548D01*
X13595729Y-7989111D01*
X13592667Y-7985790D01*
X13589437Y-7982592D01*
X13586041Y-7979524D01*
X13582480Y-7976592D01*
X13578756Y-7973802D01*
X13479677Y-7898107D01*
X13385574Y-7817760D01*
X13296640Y-7732925D01*
X13213073Y-7643768D01*
X13135067Y-7550455D01*
X13062818Y-7453152D01*
X12996522Y-7352025D01*
X12936374Y-7247240D01*
X12882570Y-7138961D01*
X12835305Y-7027355D01*
X12794775Y-6912589D01*
X12761176Y-6794826D01*
X12734703Y-6674234D01*
X12715551Y-6550978D01*
X12703917Y-6425224D01*
X12699995Y-6297137D01*
X12704118Y-6167774D01*
X12716330Y-6040429D01*
X12736397Y-5915320D01*
X12764084Y-5792667D01*
X12799156Y-5672687D01*
X12841379Y-5555601D01*
X12890518Y-5441626D01*
X12946339Y-5330982D01*
X13008607Y-5223886D01*
X13077088Y-5120559D01*
X13151546Y-5021219D01*
X13231747Y-4926084D01*
X13317458Y-4835374D01*
X13408442Y-4749307D01*
X13504466Y-4668102D01*
X13605294Y-4591977D01*
X13604201Y-4571494D01*
X13602982Y-4551460D01*
X13601509Y-4531847D01*
X13600639Y-4522190D01*
X13599657Y-4512629D01*
X13598472Y-4502551D01*
X13597128Y-4492576D01*
X13595604Y-4482698D01*
X13593883Y-4472915D01*
X13591947Y-4463220D01*
X13589776Y-4453611D01*
X13587352Y-4444082D01*
X13584657Y-4434629D01*
X13581906Y-4425973D01*
X13578893Y-4417376D01*
X13575604Y-4408835D01*
X13572023Y-4400346D01*
X13568137Y-4391908D01*
X13563929Y-4383516D01*
X13559387Y-4375168D01*
X13554494Y-4366860D01*
X13549237Y-4358590D01*
X13543600Y-4350354D01*
X13537570Y-4342149D01*
X13531131Y-4333973D01*
X13524268Y-4325822D01*
X13516968Y-4317694D01*
X13509216Y-4309584D01*
X13500996Y-4301491D01*
X13471127Y-4274389D01*
X13441914Y-4250540D01*
X13413532Y-4229736D01*
X13386156Y-4211771D01*
X13359962Y-4196435D01*
X13335125Y-4183523D01*
X13311821Y-4172826D01*
X13290225Y-4164136D01*
X13270513Y-4157246D01*
X13252859Y-4151949D01*
X13224432Y-4145300D01*
X13206346Y-4142528D01*
X13200005Y-4141974D01*
X13195614Y-4150294D01*
X13190076Y-4159859D01*
X13182269Y-4172286D01*
X13172160Y-4187017D01*
X13159718Y-4203497D01*
X13144911Y-4221167D01*
X13127708Y-4239473D01*
X13118197Y-4248689D01*
X13108076Y-4257856D01*
X13097339Y-4266903D01*
X13085983Y-4275761D01*
X13074005Y-4284361D01*
X13061400Y-4292631D01*
X13048163Y-4300504D01*
X13034292Y-4307910D01*
X13019782Y-4314778D01*
X13004630Y-4321039D01*
X12988830Y-4326625D01*
X12972380Y-4331464D01*
X12955276Y-4335488D01*
X12937512Y-4338627D01*
X12919086Y-4340812D01*
X12899994Y-4341972D01*
X12877749Y-4341885D01*
X12855820Y-4340226D01*
X12834248Y-4337052D01*
X12813075Y-4332423D01*
X12792341Y-4326399D01*
X12772088Y-4319038D01*
X12752358Y-4310400D01*
X12733192Y-4300544D01*
X12714631Y-4289529D01*
X12696717Y-4277414D01*
X12679491Y-4264258D01*
X12662995Y-4250120D01*
X12647270Y-4235060D01*
X12632356Y-4219136D01*
X12618297Y-4202408D01*
X12605133Y-4184935D01*
X12592905Y-4166776D01*
X12581654Y-4147990D01*
X12571424Y-4128637D01*
X12562253Y-4108774D01*
X12554185Y-4088463D01*
X12547260Y-4067761D01*
X12541520Y-4046727D01*
X12537006Y-4025422D01*
X12533760Y-4003904D01*
X12531822Y-3982232D01*
X12531235Y-3960465D01*
X12532040Y-3938663D01*
X12534277Y-3916884D01*
X12537990Y-3895188D01*
X12543218Y-3873634D01*
X12550003Y-3852281D01*
X12557467Y-3833276D01*
X12566039Y-3814916D01*
X12575667Y-3797215D01*
X12586300Y-3780190D01*
X12597885Y-3763853D01*
X12610371Y-3748221D01*
X12623707Y-3733308D01*
X12637841Y-3719129D01*
X12652721Y-3705699D01*
X12668296Y-3693032D01*
X12684514Y-3681143D01*
X12701323Y-3670048D01*
X12718672Y-3659761D01*
X12736509Y-3650296D01*
X12754782Y-3641669D01*
X12773440Y-3633894D01*
X12792432Y-3626987D01*
X12811705Y-3620962D01*
X12831209Y-3615833D01*
X12850890Y-3611617D01*
X12870698Y-3608326D01*
X12890582Y-3605977D01*
X12910488Y-3604584D01*
X12930367Y-3604163D01*
X12950166Y-3604726D01*
X12969833Y-3606291D01*
X12989318Y-3608871D01*
X13008567Y-3612481D01*
X13027530Y-3617136D01*
X13046156Y-3622850D01*
X13064392Y-3629640D01*
X13082186Y-3637519D01*
X13096318Y-3644688D01*
X13109639Y-3652205D01*
X13122172Y-3660032D01*
X13133942Y-3668131D01*
X13144971Y-3676465D01*
X13155285Y-3684996D01*
X13164906Y-3693686D01*
X13173859Y-3702497D01*
X13182167Y-3711392D01*
X13189854Y-3720333D01*
X13196944Y-3729282D01*
X13203460Y-3738202D01*
X13214868Y-3755802D01*
X13224267Y-3772830D01*
X13231848Y-3788986D01*
X13237801Y-3803968D01*
X13242316Y-3817472D01*
X13245584Y-3829199D01*
X13249138Y-3846108D01*
X13249984Y-3852281D01*
X13266212Y-3849684D01*
X13311426Y-3844623D01*
X13343277Y-3842449D01*
X13380423Y-3841196D01*
X13422213Y-3841376D01*
X13467997Y-3843500D01*
X13517125Y-3848082D01*
X13568945Y-3855634D01*
X13595662Y-3860683D01*
X13622808Y-3866667D01*
X13650302Y-3873649D01*
X13678062Y-3881693D01*
X13706008Y-3890865D01*
X13734057Y-3901226D01*
X13762130Y-3912842D01*
X13790144Y-3925777D01*
X13818017Y-3940094D01*
X13845670Y-3955858D01*
X13873020Y-3973132D01*
X13899986Y-3991981D01*
X13922209Y-4008928D01*
X13943625Y-4026491D01*
X13964218Y-4044610D01*
X13983973Y-4063226D01*
X14002874Y-4082280D01*
X14020905Y-4101712D01*
X14038052Y-4121462D01*
X14054298Y-4141471D01*
X14069628Y-4161680D01*
X14084027Y-4182029D01*
X14097479Y-4202459D01*
X14109968Y-4222911D01*
X14121480Y-4243324D01*
X14131998Y-4263640D01*
X14141507Y-4283798D01*
X14149992Y-4303740D01*
X14199580Y-4285937D01*
X14249712Y-4269179D01*
X14300372Y-4253480D01*
X14351544Y-4238855D01*
X14403214Y-4225317D01*
X14455365Y-4212882D01*
X14507983Y-4201563D01*
X14561052Y-4191375D01*
X14614556Y-4182332D01*
X14668481Y-4174448D01*
X14722810Y-4167738D01*
X14777529Y-4162216D01*
X14832622Y-4157896D01*
X14888074Y-4154792D01*
X14943869Y-4152920D01*
X14999992Y-4152292D01*
X15056115Y-4152920D01*
X15111910Y-4154792D01*
X15167362Y-4157896D01*
X15222455Y-4162216D01*
X15277174Y-4167738D01*
X15331504Y-4174448D01*
X15385428Y-4182332D01*
X15438933Y-4191375D01*
X15492002Y-4201563D01*
X15544619Y-4212882D01*
X15596770Y-4225317D01*
X15648440Y-4238855D01*
X15699612Y-4253480D01*
X15750272Y-4269179D01*
X15849992Y-4303740D01*
X15858476Y-4283798D01*
X15867986Y-4263640D01*
X15878504Y-4243324D01*
X15890015Y-4222911D01*
X15902505Y-4202459D01*
X15915956Y-4182029D01*
X15930355Y-4161680D01*
X15945685Y-4141471D01*
X15961931Y-4121462D01*
X15979078Y-4101712D01*
X15997109Y-4082280D01*
X16016010Y-4063226D01*
X16035765Y-4044610D01*
X16056358Y-4026491D01*
X16077774Y-4008928D01*
X16099998Y-3991981D01*
X16126964Y-3973132D01*
X16154314Y-3955858D01*
X16181966Y-3940094D01*
X16209840Y-3925777D01*
X16265926Y-3901226D01*
X16321921Y-3881693D01*
X16377176Y-3866667D01*
X16431038Y-3855634D01*
X16482858Y-3848082D01*
X16531986Y-3843500D01*
X16577770Y-3841376D01*
X16619560Y-3841196D01*
X16688557Y-3844623D01*
X16749999Y-3852281D01*
X16750846Y-3846108D01*
X16752189Y-3838845D01*
X16754400Y-3829199D01*
X16757667Y-3817472D01*
X16762183Y-3803968D01*
X16768136Y-3788986D01*
X16771711Y-3781036D01*
X16775716Y-3772830D01*
X16780177Y-3764406D01*
X16785116Y-3755802D01*
X16790556Y-3747054D01*
X16796523Y-3738202D01*
X16803040Y-3729282D01*
X16810129Y-3720333D01*
X16817816Y-3711392D01*
X16826124Y-3702497D01*
X16835077Y-3693686D01*
X16844698Y-3684996D01*
X16855012Y-3676465D01*
X16866042Y-3668131D01*
X16877811Y-3660032D01*
X16890345Y-3652205D01*
X16903665Y-3644688D01*
X16917797Y-3637519D01*
X16935592Y-3629640D01*
X16953828Y-3622850D01*
X16972453Y-3617136D01*
X16991417Y-3612481D01*
X17010666Y-3608871D01*
X17030151Y-3606291D01*
X17049818Y-3604726D01*
X17069617Y-3604163D01*
X17089496Y-3604584D01*
D10*
X14500000Y-7680000D02*
X15500000Y-7680000D01*
X15550000Y-7630000D02*
G75*
G02*
X15500000Y-7680000I-50000J0D01*
G01*
X15500000Y-7580000D02*
G75*
G02*
X15550000Y-7630000I0J-50000D01*
G01*
X15500000Y-7580000D02*
X14500000Y-7580000D01*
X14910000Y-7288268D02*
X14910000Y-7168268D01*
X15010000Y-7088268D02*
X14990000Y-7088268D01*
X15010000Y-7368268D02*
X14990000Y-7368268D01*
X15090000Y-7288268D02*
X15090000Y-7168268D01*
X14910000Y-7168268D02*
G75*
G02*
X14990000Y-7088268I80000J0D01*
G01*
X14990000Y-7368268D02*
G75*
G02*
X14910000Y-7288268I0J80000D01*
G01*
X15010000Y-7088268D02*
G75*
G02*
X15090000Y-7168268I0J-80000D01*
G01*
X15090000Y-7288268D02*
G75*
G02*
X15010000Y-7368268I-80000J0D01*
G01*
D12*
D13*
X14678500Y-4710693D02*
X14743500Y-4775693D01*
X14743500Y-4710693D02*
X14678500Y-4775693D01*
X15256500Y-4710693D02*
X15321500Y-4775693D01*
X15321500Y-4710693D02*
X15256500Y-4775693D01*
X16151430Y-12564000D02*
G75*
G02*
X16052370Y-12564000I-49530J0D01*
G01*
X16052370Y-12564000D02*
G75*
G02*
X16151430Y-12564000I49530J0D01*
G01*
X16253030Y-12056000D02*
G75*
G02*
X16153970Y-12056000I-49530J0D01*
G01*
X16153970Y-12056000D02*
G75*
G02*
X16253030Y-12056000I49530J0D01*
G01*
X16354630Y-12564000D02*
G75*
G02*
X16255570Y-12564000I-49530J0D01*
G01*
X16255570Y-12564000D02*
G75*
G02*
X16354630Y-12564000I49530J0D01*
G01*
D12*
X12781958Y-14513498D02*
X12781958Y-14313498D01*
X12781958Y-14313498D02*
X12829577Y-14313498D01*
X12829577Y-14313498D02*
X12858148Y-14323022D01*
X12858148Y-14323022D02*
X12877196Y-14342069D01*
X12877196Y-14342069D02*
X12886720Y-14361117D01*
X12886720Y-14361117D02*
X12896244Y-14399212D01*
X12896244Y-14399212D02*
X12896244Y-14427784D01*
X12896244Y-14427784D02*
X12886720Y-14465879D01*
X12886720Y-14465879D02*
X12877196Y-14484926D01*
X12877196Y-14484926D02*
X12858148Y-14503974D01*
X12858148Y-14503974D02*
X12829577Y-14513498D01*
X12829577Y-14513498D02*
X12781958Y-14513498D01*
X12981958Y-14513498D02*
X12981958Y-14380164D01*
X12981958Y-14418260D02*
X12991482Y-14399212D01*
X12991482Y-14399212D02*
X13001005Y-14389688D01*
X13001005Y-14389688D02*
X13020053Y-14380164D01*
X13020053Y-14380164D02*
X13039101Y-14380164D01*
X13105767Y-14513498D02*
X13105767Y-14380164D01*
X13105767Y-14313498D02*
X13096244Y-14323022D01*
X13096244Y-14323022D02*
X13105767Y-14332545D01*
X13105767Y-14332545D02*
X13115291Y-14323022D01*
X13115291Y-14323022D02*
X13105767Y-14313498D01*
X13105767Y-14313498D02*
X13105767Y-14332545D01*
X13229577Y-14513498D02*
X13210529Y-14503974D01*
X13210529Y-14503974D02*
X13201005Y-14484926D01*
X13201005Y-14484926D02*
X13201005Y-14313498D01*
X13334339Y-14513498D02*
X13315291Y-14503974D01*
X13315291Y-14503974D02*
X13305767Y-14484926D01*
X13305767Y-14484926D02*
X13305767Y-14313498D01*
X13562910Y-14513498D02*
X13562910Y-14313498D01*
X13562910Y-14313498D02*
X13629577Y-14456355D01*
X13629577Y-14456355D02*
X13696244Y-14313498D01*
X13696244Y-14313498D02*
X13696244Y-14513498D01*
X13877196Y-14513498D02*
X13877196Y-14408736D01*
X13877196Y-14408736D02*
X13867672Y-14389688D01*
X13867672Y-14389688D02*
X13848625Y-14380164D01*
X13848625Y-14380164D02*
X13810529Y-14380164D01*
X13810529Y-14380164D02*
X13791482Y-14389688D01*
X13877196Y-14503974D02*
X13858148Y-14513498D01*
X13858148Y-14513498D02*
X13810529Y-14513498D01*
X13810529Y-14513498D02*
X13791482Y-14503974D01*
X13791482Y-14503974D02*
X13781958Y-14484926D01*
X13781958Y-14484926D02*
X13781958Y-14465879D01*
X13781958Y-14465879D02*
X13791482Y-14446831D01*
X13791482Y-14446831D02*
X13810529Y-14437307D01*
X13810529Y-14437307D02*
X13858148Y-14437307D01*
X13858148Y-14437307D02*
X13877196Y-14427784D01*
X13972434Y-14380164D02*
X13972434Y-14580164D01*
X13972434Y-14389688D02*
X13991482Y-14380164D01*
X13991482Y-14380164D02*
X14029577Y-14380164D01*
X14029577Y-14380164D02*
X14048625Y-14389688D01*
X14048625Y-14389688D02*
X14058148Y-14399212D01*
X14058148Y-14399212D02*
X14067672Y-14418260D01*
X14067672Y-14418260D02*
X14067672Y-14475403D01*
X14067672Y-14475403D02*
X14058148Y-14494450D01*
X14058148Y-14494450D02*
X14048625Y-14503974D01*
X14048625Y-14503974D02*
X14029577Y-14513498D01*
X14029577Y-14513498D02*
X13991482Y-14513498D01*
X13991482Y-14513498D02*
X13972434Y-14503974D01*
X14153386Y-14494450D02*
X14162910Y-14503974D01*
X14162910Y-14503974D02*
X14153386Y-14513498D01*
X14153386Y-14513498D02*
X14143863Y-14503974D01*
X14143863Y-14503974D02*
X14153386Y-14494450D01*
X14153386Y-14494450D02*
X14153386Y-14513498D01*
X14153386Y-14389688D02*
X14162910Y-14399212D01*
X14162910Y-14399212D02*
X14153386Y-14408736D01*
X14153386Y-14408736D02*
X14143863Y-14399212D01*
X14143863Y-14399212D02*
X14153386Y-14389688D01*
X14153386Y-14389688D02*
X14153386Y-14408736D01*
D13*
X12456181Y-14809514D02*
X12521181Y-14874514D01*
X12521181Y-14809514D02*
X12456181Y-14874514D01*
D12*
X12820053Y-14733498D02*
X12839101Y-14733498D01*
X12839101Y-14733498D02*
X12858148Y-14743022D01*
X12858148Y-14743022D02*
X12867672Y-14752545D01*
X12867672Y-14752545D02*
X12877196Y-14771593D01*
X12877196Y-14771593D02*
X12886720Y-14809688D01*
X12886720Y-14809688D02*
X12886720Y-14857307D01*
X12886720Y-14857307D02*
X12877196Y-14895403D01*
X12877196Y-14895403D02*
X12867672Y-14914450D01*
X12867672Y-14914450D02*
X12858148Y-14923974D01*
X12858148Y-14923974D02*
X12839101Y-14933498D01*
X12839101Y-14933498D02*
X12820053Y-14933498D01*
X12820053Y-14933498D02*
X12801005Y-14923974D01*
X12801005Y-14923974D02*
X12791482Y-14914450D01*
X12791482Y-14914450D02*
X12781958Y-14895403D01*
X12781958Y-14895403D02*
X12772434Y-14857307D01*
X12772434Y-14857307D02*
X12772434Y-14809688D01*
X12772434Y-14809688D02*
X12781958Y-14771593D01*
X12781958Y-14771593D02*
X12791482Y-14752545D01*
X12791482Y-14752545D02*
X12801005Y-14743022D01*
X12801005Y-14743022D02*
X12820053Y-14733498D01*
X12972434Y-14914450D02*
X12981958Y-14923974D01*
X12981958Y-14923974D02*
X12972434Y-14933498D01*
X12972434Y-14933498D02*
X12962910Y-14923974D01*
X12962910Y-14923974D02*
X12972434Y-14914450D01*
X12972434Y-14914450D02*
X12972434Y-14933498D01*
X13153386Y-14733498D02*
X13115291Y-14733498D01*
X13115291Y-14733498D02*
X13096244Y-14743022D01*
X13096244Y-14743022D02*
X13086720Y-14752545D01*
X13086720Y-14752545D02*
X13067672Y-14781117D01*
X13067672Y-14781117D02*
X13058148Y-14819212D01*
X13058148Y-14819212D02*
X13058148Y-14895403D01*
X13058148Y-14895403D02*
X13067672Y-14914450D01*
X13067672Y-14914450D02*
X13077196Y-14923974D01*
X13077196Y-14923974D02*
X13096244Y-14933498D01*
X13096244Y-14933498D02*
X13134339Y-14933498D01*
X13134339Y-14933498D02*
X13153386Y-14923974D01*
X13153386Y-14923974D02*
X13162910Y-14914450D01*
X13162910Y-14914450D02*
X13172434Y-14895403D01*
X13172434Y-14895403D02*
X13172434Y-14847784D01*
X13172434Y-14847784D02*
X13162910Y-14828736D01*
X13162910Y-14828736D02*
X13153386Y-14819212D01*
X13153386Y-14819212D02*
X13134339Y-14809688D01*
X13134339Y-14809688D02*
X13096244Y-14809688D01*
X13096244Y-14809688D02*
X13077196Y-14819212D01*
X13077196Y-14819212D02*
X13067672Y-14828736D01*
X13067672Y-14828736D02*
X13058148Y-14847784D01*
X13353386Y-14733498D02*
X13258148Y-14733498D01*
X13258148Y-14733498D02*
X13248625Y-14828736D01*
X13248625Y-14828736D02*
X13258148Y-14819212D01*
X13258148Y-14819212D02*
X13277196Y-14809688D01*
X13277196Y-14809688D02*
X13324815Y-14809688D01*
X13324815Y-14809688D02*
X13343863Y-14819212D01*
X13343863Y-14819212D02*
X13353386Y-14828736D01*
X13353386Y-14828736D02*
X13362910Y-14847784D01*
X13362910Y-14847784D02*
X13362910Y-14895403D01*
X13362910Y-14895403D02*
X13353386Y-14914450D01*
X13353386Y-14914450D02*
X13343863Y-14923974D01*
X13343863Y-14923974D02*
X13324815Y-14933498D01*
X13324815Y-14933498D02*
X13277196Y-14933498D01*
X13277196Y-14933498D02*
X13258148Y-14923974D01*
X13258148Y-14923974D02*
X13248625Y-14914450D01*
X13486720Y-14733498D02*
X13505767Y-14733498D01*
X13505767Y-14733498D02*
X13524815Y-14743022D01*
X13524815Y-14743022D02*
X13534339Y-14752545D01*
X13534339Y-14752545D02*
X13543863Y-14771593D01*
X13543863Y-14771593D02*
X13553386Y-14809688D01*
X13553386Y-14809688D02*
X13553386Y-14857307D01*
X13553386Y-14857307D02*
X13543863Y-14895403D01*
X13543863Y-14895403D02*
X13534339Y-14914450D01*
X13534339Y-14914450D02*
X13524815Y-14923974D01*
X13524815Y-14923974D02*
X13505767Y-14933498D01*
X13505767Y-14933498D02*
X13486720Y-14933498D01*
X13486720Y-14933498D02*
X13467672Y-14923974D01*
X13467672Y-14923974D02*
X13458148Y-14914450D01*
X13458148Y-14914450D02*
X13448625Y-14895403D01*
X13448625Y-14895403D02*
X13439101Y-14857307D01*
X13439101Y-14857307D02*
X13439101Y-14809688D01*
X13439101Y-14809688D02*
X13448625Y-14771593D01*
X13448625Y-14771593D02*
X13458148Y-14752545D01*
X13458148Y-14752545D02*
X13467672Y-14743022D01*
X13467672Y-14743022D02*
X13486720Y-14733498D01*
X13639101Y-14933498D02*
X13639101Y-14800164D01*
X13639101Y-14819212D02*
X13648625Y-14809688D01*
X13648625Y-14809688D02*
X13667672Y-14800164D01*
X13667672Y-14800164D02*
X13696244Y-14800164D01*
X13696244Y-14800164D02*
X13715291Y-14809688D01*
X13715291Y-14809688D02*
X13724815Y-14828736D01*
X13724815Y-14828736D02*
X13724815Y-14933498D01*
X13724815Y-14828736D02*
X13734339Y-14809688D01*
X13734339Y-14809688D02*
X13753386Y-14800164D01*
X13753386Y-14800164D02*
X13781958Y-14800164D01*
X13781958Y-14800164D02*
X13801006Y-14809688D01*
X13801006Y-14809688D02*
X13810529Y-14828736D01*
X13810529Y-14828736D02*
X13810529Y-14933498D01*
X13905767Y-14933498D02*
X13905767Y-14800164D01*
X13905767Y-14819212D02*
X13915291Y-14809688D01*
X13915291Y-14809688D02*
X13934339Y-14800164D01*
X13934339Y-14800164D02*
X13962910Y-14800164D01*
X13962910Y-14800164D02*
X13981958Y-14809688D01*
X13981958Y-14809688D02*
X13991482Y-14828736D01*
X13991482Y-14828736D02*
X13991482Y-14933498D01*
X13991482Y-14828736D02*
X14001006Y-14809688D01*
X14001006Y-14809688D02*
X14020053Y-14800164D01*
X14020053Y-14800164D02*
X14048625Y-14800164D01*
X14048625Y-14800164D02*
X14067672Y-14809688D01*
X14067672Y-14809688D02*
X14077196Y-14828736D01*
X14077196Y-14828736D02*
X14077196Y-14933498D01*
X14467672Y-14723974D02*
X14296244Y-14981117D01*
X14724815Y-14733498D02*
X14743863Y-14733498D01*
X14743863Y-14733498D02*
X14762910Y-14743022D01*
X14762910Y-14743022D02*
X14772434Y-14752545D01*
X14772434Y-14752545D02*
X14781958Y-14771593D01*
X14781958Y-14771593D02*
X14791482Y-14809688D01*
X14791482Y-14809688D02*
X14791482Y-14857307D01*
X14791482Y-14857307D02*
X14781958Y-14895403D01*
X14781958Y-14895403D02*
X14772434Y-14914450D01*
X14772434Y-14914450D02*
X14762910Y-14923974D01*
X14762910Y-14923974D02*
X14743863Y-14933498D01*
X14743863Y-14933498D02*
X14724815Y-14933498D01*
X14724815Y-14933498D02*
X14705768Y-14923974D01*
X14705768Y-14923974D02*
X14696244Y-14914450D01*
X14696244Y-14914450D02*
X14686720Y-14895403D01*
X14686720Y-14895403D02*
X14677196Y-14857307D01*
X14677196Y-14857307D02*
X14677196Y-14809688D01*
X14677196Y-14809688D02*
X14686720Y-14771593D01*
X14686720Y-14771593D02*
X14696244Y-14752545D01*
X14696244Y-14752545D02*
X14705768Y-14743022D01*
X14705768Y-14743022D02*
X14724815Y-14733498D01*
X14877196Y-14914450D02*
X14886720Y-14923974D01*
X14886720Y-14923974D02*
X14877196Y-14933498D01*
X14877196Y-14933498D02*
X14867672Y-14923974D01*
X14867672Y-14923974D02*
X14877196Y-14914450D01*
X14877196Y-14914450D02*
X14877196Y-14933498D01*
X15010529Y-14733498D02*
X15029577Y-14733498D01*
X15029577Y-14733498D02*
X15048625Y-14743022D01*
X15048625Y-14743022D02*
X15058149Y-14752545D01*
X15058149Y-14752545D02*
X15067672Y-14771593D01*
X15067672Y-14771593D02*
X15077196Y-14809688D01*
X15077196Y-14809688D02*
X15077196Y-14857307D01*
X15077196Y-14857307D02*
X15067672Y-14895403D01*
X15067672Y-14895403D02*
X15058149Y-14914450D01*
X15058149Y-14914450D02*
X15048625Y-14923974D01*
X15048625Y-14923974D02*
X15029577Y-14933498D01*
X15029577Y-14933498D02*
X15010529Y-14933498D01*
X15010529Y-14933498D02*
X14991482Y-14923974D01*
X14991482Y-14923974D02*
X14981958Y-14914450D01*
X14981958Y-14914450D02*
X14972434Y-14895403D01*
X14972434Y-14895403D02*
X14962910Y-14857307D01*
X14962910Y-14857307D02*
X14962910Y-14809688D01*
X14962910Y-14809688D02*
X14972434Y-14771593D01*
X14972434Y-14771593D02*
X14981958Y-14752545D01*
X14981958Y-14752545D02*
X14991482Y-14743022D01*
X14991482Y-14743022D02*
X15010529Y-14733498D01*
X15153387Y-14752545D02*
X15162910Y-14743022D01*
X15162910Y-14743022D02*
X15181958Y-14733498D01*
X15181958Y-14733498D02*
X15229577Y-14733498D01*
X15229577Y-14733498D02*
X15248625Y-14743022D01*
X15248625Y-14743022D02*
X15258149Y-14752545D01*
X15258149Y-14752545D02*
X15267672Y-14771593D01*
X15267672Y-14771593D02*
X15267672Y-14790641D01*
X15267672Y-14790641D02*
X15258149Y-14819212D01*
X15258149Y-14819212D02*
X15143863Y-14933498D01*
X15143863Y-14933498D02*
X15267672Y-14933498D01*
X15448625Y-14733498D02*
X15353387Y-14733498D01*
X15353387Y-14733498D02*
X15343863Y-14828736D01*
X15343863Y-14828736D02*
X15353387Y-14819212D01*
X15353387Y-14819212D02*
X15372434Y-14809688D01*
X15372434Y-14809688D02*
X15420053Y-14809688D01*
X15420053Y-14809688D02*
X15439101Y-14819212D01*
X15439101Y-14819212D02*
X15448625Y-14828736D01*
X15448625Y-14828736D02*
X15458149Y-14847784D01*
X15458149Y-14847784D02*
X15458149Y-14895403D01*
X15458149Y-14895403D02*
X15448625Y-14914450D01*
X15448625Y-14914450D02*
X15439101Y-14923974D01*
X15439101Y-14923974D02*
X15420053Y-14933498D01*
X15420053Y-14933498D02*
X15372434Y-14933498D01*
X15372434Y-14933498D02*
X15353387Y-14923974D01*
X15353387Y-14923974D02*
X15343863Y-14914450D01*
X15629577Y-14733498D02*
X15591482Y-14733498D01*
X15591482Y-14733498D02*
X15572434Y-14743022D01*
X15572434Y-14743022D02*
X15562910Y-14752545D01*
X15562910Y-14752545D02*
X15543863Y-14781117D01*
X15543863Y-14781117D02*
X15534339Y-14819212D01*
X15534339Y-14819212D02*
X15534339Y-14895403D01*
X15534339Y-14895403D02*
X15543863Y-14914450D01*
X15543863Y-14914450D02*
X15553387Y-14923974D01*
X15553387Y-14923974D02*
X15572434Y-14933498D01*
X15572434Y-14933498D02*
X15610530Y-14933498D01*
X15610530Y-14933498D02*
X15629577Y-14923974D01*
X15629577Y-14923974D02*
X15639101Y-14914450D01*
X15639101Y-14914450D02*
X15648625Y-14895403D01*
X15648625Y-14895403D02*
X15648625Y-14847784D01*
X15648625Y-14847784D02*
X15639101Y-14828736D01*
X15639101Y-14828736D02*
X15629577Y-14819212D01*
X15629577Y-14819212D02*
X15610530Y-14809688D01*
X15610530Y-14809688D02*
X15572434Y-14809688D01*
X15572434Y-14809688D02*
X15553387Y-14819212D01*
X15553387Y-14819212D02*
X15543863Y-14828736D01*
X15543863Y-14828736D02*
X15534339Y-14847784D01*
X15724815Y-14733498D02*
X15724815Y-14771593D01*
X15801006Y-14733498D02*
X15801006Y-14771593D01*
X16096244Y-15009688D02*
X16086720Y-15000164D01*
X16086720Y-15000164D02*
X16067672Y-14971593D01*
X16067672Y-14971593D02*
X16058149Y-14952545D01*
X16058149Y-14952545D02*
X16048625Y-14923974D01*
X16048625Y-14923974D02*
X16039101Y-14876355D01*
X16039101Y-14876355D02*
X16039101Y-14838260D01*
X16039101Y-14838260D02*
X16048625Y-14790641D01*
X16048625Y-14790641D02*
X16058149Y-14762069D01*
X16058149Y-14762069D02*
X16067672Y-14743022D01*
X16067672Y-14743022D02*
X16086720Y-14714450D01*
X16086720Y-14714450D02*
X16096244Y-14704926D01*
X16162911Y-14752545D02*
X16172434Y-14743022D01*
X16172434Y-14743022D02*
X16191482Y-14733498D01*
X16191482Y-14733498D02*
X16239101Y-14733498D01*
X16239101Y-14733498D02*
X16258149Y-14743022D01*
X16258149Y-14743022D02*
X16267672Y-14752545D01*
X16267672Y-14752545D02*
X16277196Y-14771593D01*
X16277196Y-14771593D02*
X16277196Y-14790641D01*
X16277196Y-14790641D02*
X16267672Y-14819212D01*
X16267672Y-14819212D02*
X16153387Y-14933498D01*
X16153387Y-14933498D02*
X16277196Y-14933498D01*
X16515292Y-14933498D02*
X16515292Y-14733498D01*
X16601006Y-14933498D02*
X16601006Y-14828736D01*
X16601006Y-14828736D02*
X16591482Y-14809688D01*
X16591482Y-14809688D02*
X16572434Y-14800164D01*
X16572434Y-14800164D02*
X16543863Y-14800164D01*
X16543863Y-14800164D02*
X16524815Y-14809688D01*
X16524815Y-14809688D02*
X16515292Y-14819212D01*
X16724815Y-14933498D02*
X16705768Y-14923974D01*
X16705768Y-14923974D02*
X16696244Y-14914450D01*
X16696244Y-14914450D02*
X16686720Y-14895403D01*
X16686720Y-14895403D02*
X16686720Y-14838260D01*
X16686720Y-14838260D02*
X16696244Y-14819212D01*
X16696244Y-14819212D02*
X16705768Y-14809688D01*
X16705768Y-14809688D02*
X16724815Y-14800164D01*
X16724815Y-14800164D02*
X16753387Y-14800164D01*
X16753387Y-14800164D02*
X16772434Y-14809688D01*
X16772434Y-14809688D02*
X16781958Y-14819212D01*
X16781958Y-14819212D02*
X16791482Y-14838260D01*
X16791482Y-14838260D02*
X16791482Y-14895403D01*
X16791482Y-14895403D02*
X16781958Y-14914450D01*
X16781958Y-14914450D02*
X16772434Y-14923974D01*
X16772434Y-14923974D02*
X16753387Y-14933498D01*
X16753387Y-14933498D02*
X16724815Y-14933498D01*
X16905768Y-14933498D02*
X16886720Y-14923974D01*
X16886720Y-14923974D02*
X16877196Y-14904926D01*
X16877196Y-14904926D02*
X16877196Y-14733498D01*
X17058149Y-14923974D02*
X17039101Y-14933498D01*
X17039101Y-14933498D02*
X17001006Y-14933498D01*
X17001006Y-14933498D02*
X16981958Y-14923974D01*
X16981958Y-14923974D02*
X16972435Y-14904926D01*
X16972435Y-14904926D02*
X16972435Y-14828736D01*
X16972435Y-14828736D02*
X16981958Y-14809688D01*
X16981958Y-14809688D02*
X17001006Y-14800164D01*
X17001006Y-14800164D02*
X17039101Y-14800164D01*
X17039101Y-14800164D02*
X17058149Y-14809688D01*
X17058149Y-14809688D02*
X17067673Y-14828736D01*
X17067673Y-14828736D02*
X17067673Y-14847784D01*
X17067673Y-14847784D02*
X16972435Y-14866831D01*
X17143863Y-14923974D02*
X17162911Y-14933498D01*
X17162911Y-14933498D02*
X17201006Y-14933498D01*
X17201006Y-14933498D02*
X17220054Y-14923974D01*
X17220054Y-14923974D02*
X17229577Y-14904926D01*
X17229577Y-14904926D02*
X17229577Y-14895403D01*
X17229577Y-14895403D02*
X17220054Y-14876355D01*
X17220054Y-14876355D02*
X17201006Y-14866831D01*
X17201006Y-14866831D02*
X17172435Y-14866831D01*
X17172435Y-14866831D02*
X17153387Y-14857307D01*
X17153387Y-14857307D02*
X17143863Y-14838260D01*
X17143863Y-14838260D02*
X17143863Y-14828736D01*
X17143863Y-14828736D02*
X17153387Y-14809688D01*
X17153387Y-14809688D02*
X17172435Y-14800164D01*
X17172435Y-14800164D02*
X17201006Y-14800164D01*
X17201006Y-14800164D02*
X17220054Y-14809688D01*
X17296244Y-15009688D02*
X17305768Y-15000164D01*
X17305768Y-15000164D02*
X17324816Y-14971593D01*
X17324816Y-14971593D02*
X17334339Y-14952545D01*
X17334339Y-14952545D02*
X17343863Y-14923974D01*
X17343863Y-14923974D02*
X17353387Y-14876355D01*
X17353387Y-14876355D02*
X17353387Y-14838260D01*
X17353387Y-14838260D02*
X17343863Y-14790641D01*
X17343863Y-14790641D02*
X17334339Y-14762069D01*
X17334339Y-14762069D02*
X17324816Y-14743022D01*
X17324816Y-14743022D02*
X17305768Y-14714450D01*
X17305768Y-14714450D02*
X17296244Y-14704926D01*
X17658149Y-15009688D02*
X17648625Y-15000164D01*
X17648625Y-15000164D02*
X17629577Y-14971593D01*
X17629577Y-14971593D02*
X17620054Y-14952545D01*
X17620054Y-14952545D02*
X17610530Y-14923974D01*
X17610530Y-14923974D02*
X17601006Y-14876355D01*
X17601006Y-14876355D02*
X17601006Y-14838260D01*
X17601006Y-14838260D02*
X17610530Y-14790641D01*
X17610530Y-14790641D02*
X17620054Y-14762069D01*
X17620054Y-14762069D02*
X17629577Y-14743022D01*
X17629577Y-14743022D02*
X17648625Y-14714450D01*
X17648625Y-14714450D02*
X17658149Y-14704926D01*
X17734339Y-14800164D02*
X17734339Y-14933498D01*
X17734339Y-14819212D02*
X17743863Y-14809688D01*
X17743863Y-14809688D02*
X17762911Y-14800164D01*
X17762911Y-14800164D02*
X17791482Y-14800164D01*
X17791482Y-14800164D02*
X17810530Y-14809688D01*
X17810530Y-14809688D02*
X17820054Y-14828736D01*
X17820054Y-14828736D02*
X17820054Y-14933498D01*
X17943863Y-14933498D02*
X17924816Y-14923974D01*
X17924816Y-14923974D02*
X17915292Y-14914450D01*
X17915292Y-14914450D02*
X17905768Y-14895403D01*
X17905768Y-14895403D02*
X17905768Y-14838260D01*
X17905768Y-14838260D02*
X17915292Y-14819212D01*
X17915292Y-14819212D02*
X17924816Y-14809688D01*
X17924816Y-14809688D02*
X17943863Y-14800164D01*
X17943863Y-14800164D02*
X17972435Y-14800164D01*
X17972435Y-14800164D02*
X17991482Y-14809688D01*
X17991482Y-14809688D02*
X18001006Y-14819212D01*
X18001006Y-14819212D02*
X18010530Y-14838260D01*
X18010530Y-14838260D02*
X18010530Y-14895403D01*
X18010530Y-14895403D02*
X18001006Y-14914450D01*
X18001006Y-14914450D02*
X17991482Y-14923974D01*
X17991482Y-14923974D02*
X17972435Y-14933498D01*
X17972435Y-14933498D02*
X17943863Y-14933498D01*
X18067673Y-14800164D02*
X18143863Y-14800164D01*
X18096244Y-14733498D02*
X18096244Y-14904926D01*
X18096244Y-14904926D02*
X18105768Y-14923974D01*
X18105768Y-14923974D02*
X18124816Y-14933498D01*
X18124816Y-14933498D02*
X18143863Y-14933498D01*
X18362911Y-14800164D02*
X18362911Y-15000164D01*
X18362911Y-14809688D02*
X18381958Y-14800164D01*
X18381958Y-14800164D02*
X18420054Y-14800164D01*
X18420054Y-14800164D02*
X18439101Y-14809688D01*
X18439101Y-14809688D02*
X18448625Y-14819212D01*
X18448625Y-14819212D02*
X18458149Y-14838260D01*
X18458149Y-14838260D02*
X18458149Y-14895403D01*
X18458149Y-14895403D02*
X18448625Y-14914450D01*
X18448625Y-14914450D02*
X18439101Y-14923974D01*
X18439101Y-14923974D02*
X18420054Y-14933498D01*
X18420054Y-14933498D02*
X18381958Y-14933498D01*
X18381958Y-14933498D02*
X18362911Y-14923974D01*
X18572435Y-14933498D02*
X18553387Y-14923974D01*
X18553387Y-14923974D02*
X18543863Y-14904926D01*
X18543863Y-14904926D02*
X18543863Y-14733498D01*
X18734339Y-14933498D02*
X18734339Y-14828736D01*
X18734339Y-14828736D02*
X18724816Y-14809688D01*
X18724816Y-14809688D02*
X18705768Y-14800164D01*
X18705768Y-14800164D02*
X18667673Y-14800164D01*
X18667673Y-14800164D02*
X18648625Y-14809688D01*
X18734339Y-14923974D02*
X18715292Y-14933498D01*
X18715292Y-14933498D02*
X18667673Y-14933498D01*
X18667673Y-14933498D02*
X18648625Y-14923974D01*
X18648625Y-14923974D02*
X18639101Y-14904926D01*
X18639101Y-14904926D02*
X18639101Y-14885879D01*
X18639101Y-14885879D02*
X18648625Y-14866831D01*
X18648625Y-14866831D02*
X18667673Y-14857307D01*
X18667673Y-14857307D02*
X18715292Y-14857307D01*
X18715292Y-14857307D02*
X18734339Y-14847784D01*
X18801006Y-14800164D02*
X18877197Y-14800164D01*
X18829578Y-14733498D02*
X18829578Y-14904926D01*
X18829578Y-14904926D02*
X18839101Y-14923974D01*
X18839101Y-14923974D02*
X18858149Y-14933498D01*
X18858149Y-14933498D02*
X18877197Y-14933498D01*
X19020054Y-14923974D02*
X19001006Y-14933498D01*
X19001006Y-14933498D02*
X18962911Y-14933498D01*
X18962911Y-14933498D02*
X18943863Y-14923974D01*
X18943863Y-14923974D02*
X18934339Y-14904926D01*
X18934339Y-14904926D02*
X18934339Y-14828736D01*
X18934339Y-14828736D02*
X18943863Y-14809688D01*
X18943863Y-14809688D02*
X18962911Y-14800164D01*
X18962911Y-14800164D02*
X19001006Y-14800164D01*
X19001006Y-14800164D02*
X19020054Y-14809688D01*
X19020054Y-14809688D02*
X19029578Y-14828736D01*
X19029578Y-14828736D02*
X19029578Y-14847784D01*
X19029578Y-14847784D02*
X18934339Y-14866831D01*
X19201006Y-14933498D02*
X19201006Y-14733498D01*
X19201006Y-14923974D02*
X19181959Y-14933498D01*
X19181959Y-14933498D02*
X19143863Y-14933498D01*
X19143863Y-14933498D02*
X19124816Y-14923974D01*
X19124816Y-14923974D02*
X19115292Y-14914450D01*
X19115292Y-14914450D02*
X19105768Y-14895403D01*
X19105768Y-14895403D02*
X19105768Y-14838260D01*
X19105768Y-14838260D02*
X19115292Y-14819212D01*
X19115292Y-14819212D02*
X19124816Y-14809688D01*
X19124816Y-14809688D02*
X19143863Y-14800164D01*
X19143863Y-14800164D02*
X19181959Y-14800164D01*
X19181959Y-14800164D02*
X19201006Y-14809688D01*
X19277197Y-15009688D02*
X19286720Y-15000164D01*
X19286720Y-15000164D02*
X19305768Y-14971593D01*
X19305768Y-14971593D02*
X19315292Y-14952545D01*
X19315292Y-14952545D02*
X19324816Y-14923974D01*
X19324816Y-14923974D02*
X19334339Y-14876355D01*
X19334339Y-14876355D02*
X19334339Y-14838260D01*
X19334339Y-14838260D02*
X19324816Y-14790641D01*
X19324816Y-14790641D02*
X19315292Y-14762069D01*
X19315292Y-14762069D02*
X19305768Y-14743022D01*
X19305768Y-14743022D02*
X19286720Y-14714450D01*
X19286720Y-14714450D02*
X19277197Y-14704926D01*
D13*
X12521181Y-15106014D02*
G75*
G02*
X12422121Y-15106014I-49530J0D01*
G01*
X12422121Y-15106014D02*
G75*
G02*
X12521181Y-15106014I49530J0D01*
G01*
D12*
X12820053Y-14997498D02*
X12839101Y-14997498D01*
X12839101Y-14997498D02*
X12858148Y-15007022D01*
X12858148Y-15007022D02*
X12867672Y-15016545D01*
X12867672Y-15016545D02*
X12877196Y-15035593D01*
X12877196Y-15035593D02*
X12886720Y-15073688D01*
X12886720Y-15073688D02*
X12886720Y-15121307D01*
X12886720Y-15121307D02*
X12877196Y-15159403D01*
X12877196Y-15159403D02*
X12867672Y-15178450D01*
X12867672Y-15178450D02*
X12858148Y-15187974D01*
X12858148Y-15187974D02*
X12839101Y-15197498D01*
X12839101Y-15197498D02*
X12820053Y-15197498D01*
X12820053Y-15197498D02*
X12801005Y-15187974D01*
X12801005Y-15187974D02*
X12791482Y-15178450D01*
X12791482Y-15178450D02*
X12781958Y-15159403D01*
X12781958Y-15159403D02*
X12772434Y-15121307D01*
X12772434Y-15121307D02*
X12772434Y-15073688D01*
X12772434Y-15073688D02*
X12781958Y-15035593D01*
X12781958Y-15035593D02*
X12791482Y-15016545D01*
X12791482Y-15016545D02*
X12801005Y-15007022D01*
X12801005Y-15007022D02*
X12820053Y-14997498D01*
X12972434Y-15178450D02*
X12981958Y-15187974D01*
X12981958Y-15187974D02*
X12972434Y-15197498D01*
X12972434Y-15197498D02*
X12962910Y-15187974D01*
X12962910Y-15187974D02*
X12972434Y-15178450D01*
X12972434Y-15178450D02*
X12972434Y-15197498D01*
X13077196Y-15197498D02*
X13115291Y-15197498D01*
X13115291Y-15197498D02*
X13134339Y-15187974D01*
X13134339Y-15187974D02*
X13143863Y-15178450D01*
X13143863Y-15178450D02*
X13162910Y-15149879D01*
X13162910Y-15149879D02*
X13172434Y-15111784D01*
X13172434Y-15111784D02*
X13172434Y-15035593D01*
X13172434Y-15035593D02*
X13162910Y-15016545D01*
X13162910Y-15016545D02*
X13153386Y-15007022D01*
X13153386Y-15007022D02*
X13134339Y-14997498D01*
X13134339Y-14997498D02*
X13096244Y-14997498D01*
X13096244Y-14997498D02*
X13077196Y-15007022D01*
X13077196Y-15007022D02*
X13067672Y-15016545D01*
X13067672Y-15016545D02*
X13058148Y-15035593D01*
X13058148Y-15035593D02*
X13058148Y-15083212D01*
X13058148Y-15083212D02*
X13067672Y-15102260D01*
X13067672Y-15102260D02*
X13077196Y-15111784D01*
X13077196Y-15111784D02*
X13096244Y-15121307D01*
X13096244Y-15121307D02*
X13134339Y-15121307D01*
X13134339Y-15121307D02*
X13153386Y-15111784D01*
X13153386Y-15111784D02*
X13162910Y-15102260D01*
X13162910Y-15102260D02*
X13172434Y-15083212D01*
X13267672Y-15197498D02*
X13305767Y-15197498D01*
X13305767Y-15197498D02*
X13324815Y-15187974D01*
X13324815Y-15187974D02*
X13334339Y-15178450D01*
X13334339Y-15178450D02*
X13353386Y-15149879D01*
X13353386Y-15149879D02*
X13362910Y-15111784D01*
X13362910Y-15111784D02*
X13362910Y-15035593D01*
X13362910Y-15035593D02*
X13353386Y-15016545D01*
X13353386Y-15016545D02*
X13343863Y-15007022D01*
X13343863Y-15007022D02*
X13324815Y-14997498D01*
X13324815Y-14997498D02*
X13286720Y-14997498D01*
X13286720Y-14997498D02*
X13267672Y-15007022D01*
X13267672Y-15007022D02*
X13258148Y-15016545D01*
X13258148Y-15016545D02*
X13248625Y-15035593D01*
X13248625Y-15035593D02*
X13248625Y-15083212D01*
X13248625Y-15083212D02*
X13258148Y-15102260D01*
X13258148Y-15102260D02*
X13267672Y-15111784D01*
X13267672Y-15111784D02*
X13286720Y-15121307D01*
X13286720Y-15121307D02*
X13324815Y-15121307D01*
X13324815Y-15121307D02*
X13343863Y-15111784D01*
X13343863Y-15111784D02*
X13353386Y-15102260D01*
X13353386Y-15102260D02*
X13362910Y-15083212D01*
X13553386Y-15197498D02*
X13439101Y-15197498D01*
X13496244Y-15197498D02*
X13496244Y-14997498D01*
X13496244Y-14997498D02*
X13477196Y-15026069D01*
X13477196Y-15026069D02*
X13458148Y-15045117D01*
X13458148Y-15045117D02*
X13439101Y-15054641D01*
X13639101Y-15197498D02*
X13639101Y-15064164D01*
X13639101Y-15083212D02*
X13648625Y-15073688D01*
X13648625Y-15073688D02*
X13667672Y-15064164D01*
X13667672Y-15064164D02*
X13696244Y-15064164D01*
X13696244Y-15064164D02*
X13715291Y-15073688D01*
X13715291Y-15073688D02*
X13724815Y-15092736D01*
X13724815Y-15092736D02*
X13724815Y-15197498D01*
X13724815Y-15092736D02*
X13734339Y-15073688D01*
X13734339Y-15073688D02*
X13753386Y-15064164D01*
X13753386Y-15064164D02*
X13781958Y-15064164D01*
X13781958Y-15064164D02*
X13801006Y-15073688D01*
X13801006Y-15073688D02*
X13810529Y-15092736D01*
X13810529Y-15092736D02*
X13810529Y-15197498D01*
X13905767Y-15197498D02*
X13905767Y-15064164D01*
X13905767Y-15083212D02*
X13915291Y-15073688D01*
X13915291Y-15073688D02*
X13934339Y-15064164D01*
X13934339Y-15064164D02*
X13962910Y-15064164D01*
X13962910Y-15064164D02*
X13981958Y-15073688D01*
X13981958Y-15073688D02*
X13991482Y-15092736D01*
X13991482Y-15092736D02*
X13991482Y-15197498D01*
X13991482Y-15092736D02*
X14001006Y-15073688D01*
X14001006Y-15073688D02*
X14020053Y-15064164D01*
X14020053Y-15064164D02*
X14048625Y-15064164D01*
X14048625Y-15064164D02*
X14067672Y-15073688D01*
X14067672Y-15073688D02*
X14077196Y-15092736D01*
X14077196Y-15092736D02*
X14077196Y-15197498D01*
X14467672Y-14987974D02*
X14296244Y-15245117D01*
X14724815Y-14997498D02*
X14743863Y-14997498D01*
X14743863Y-14997498D02*
X14762910Y-15007022D01*
X14762910Y-15007022D02*
X14772434Y-15016545D01*
X14772434Y-15016545D02*
X14781958Y-15035593D01*
X14781958Y-15035593D02*
X14791482Y-15073688D01*
X14791482Y-15073688D02*
X14791482Y-15121307D01*
X14791482Y-15121307D02*
X14781958Y-15159403D01*
X14781958Y-15159403D02*
X14772434Y-15178450D01*
X14772434Y-15178450D02*
X14762910Y-15187974D01*
X14762910Y-15187974D02*
X14743863Y-15197498D01*
X14743863Y-15197498D02*
X14724815Y-15197498D01*
X14724815Y-15197498D02*
X14705768Y-15187974D01*
X14705768Y-15187974D02*
X14696244Y-15178450D01*
X14696244Y-15178450D02*
X14686720Y-15159403D01*
X14686720Y-15159403D02*
X14677196Y-15121307D01*
X14677196Y-15121307D02*
X14677196Y-15073688D01*
X14677196Y-15073688D02*
X14686720Y-15035593D01*
X14686720Y-15035593D02*
X14696244Y-15016545D01*
X14696244Y-15016545D02*
X14705768Y-15007022D01*
X14705768Y-15007022D02*
X14724815Y-14997498D01*
X14877196Y-15178450D02*
X14886720Y-15187974D01*
X14886720Y-15187974D02*
X14877196Y-15197498D01*
X14877196Y-15197498D02*
X14867672Y-15187974D01*
X14867672Y-15187974D02*
X14877196Y-15178450D01*
X14877196Y-15178450D02*
X14877196Y-15197498D01*
X15010529Y-14997498D02*
X15029577Y-14997498D01*
X15029577Y-14997498D02*
X15048625Y-15007022D01*
X15048625Y-15007022D02*
X15058149Y-15016545D01*
X15058149Y-15016545D02*
X15067672Y-15035593D01*
X15067672Y-15035593D02*
X15077196Y-15073688D01*
X15077196Y-15073688D02*
X15077196Y-15121307D01*
X15077196Y-15121307D02*
X15067672Y-15159403D01*
X15067672Y-15159403D02*
X15058149Y-15178450D01*
X15058149Y-15178450D02*
X15048625Y-15187974D01*
X15048625Y-15187974D02*
X15029577Y-15197498D01*
X15029577Y-15197498D02*
X15010529Y-15197498D01*
X15010529Y-15197498D02*
X14991482Y-15187974D01*
X14991482Y-15187974D02*
X14981958Y-15178450D01*
X14981958Y-15178450D02*
X14972434Y-15159403D01*
X14972434Y-15159403D02*
X14962910Y-15121307D01*
X14962910Y-15121307D02*
X14962910Y-15073688D01*
X14962910Y-15073688D02*
X14972434Y-15035593D01*
X14972434Y-15035593D02*
X14981958Y-15016545D01*
X14981958Y-15016545D02*
X14991482Y-15007022D01*
X14991482Y-15007022D02*
X15010529Y-14997498D01*
X15143863Y-14997498D02*
X15267672Y-14997498D01*
X15267672Y-14997498D02*
X15201006Y-15073688D01*
X15201006Y-15073688D02*
X15229577Y-15073688D01*
X15229577Y-15073688D02*
X15248625Y-15083212D01*
X15248625Y-15083212D02*
X15258149Y-15092736D01*
X15258149Y-15092736D02*
X15267672Y-15111784D01*
X15267672Y-15111784D02*
X15267672Y-15159403D01*
X15267672Y-15159403D02*
X15258149Y-15178450D01*
X15258149Y-15178450D02*
X15248625Y-15187974D01*
X15248625Y-15187974D02*
X15229577Y-15197498D01*
X15229577Y-15197498D02*
X15172434Y-15197498D01*
X15172434Y-15197498D02*
X15153387Y-15187974D01*
X15153387Y-15187974D02*
X15143863Y-15178450D01*
X15362910Y-15197498D02*
X15401006Y-15197498D01*
X15401006Y-15197498D02*
X15420053Y-15187974D01*
X15420053Y-15187974D02*
X15429577Y-15178450D01*
X15429577Y-15178450D02*
X15448625Y-15149879D01*
X15448625Y-15149879D02*
X15458149Y-15111784D01*
X15458149Y-15111784D02*
X15458149Y-15035593D01*
X15458149Y-15035593D02*
X15448625Y-15016545D01*
X15448625Y-15016545D02*
X15439101Y-15007022D01*
X15439101Y-15007022D02*
X15420053Y-14997498D01*
X15420053Y-14997498D02*
X15381958Y-14997498D01*
X15381958Y-14997498D02*
X15362910Y-15007022D01*
X15362910Y-15007022D02*
X15353387Y-15016545D01*
X15353387Y-15016545D02*
X15343863Y-15035593D01*
X15343863Y-15035593D02*
X15343863Y-15083212D01*
X15343863Y-15083212D02*
X15353387Y-15102260D01*
X15353387Y-15102260D02*
X15362910Y-15111784D01*
X15362910Y-15111784D02*
X15381958Y-15121307D01*
X15381958Y-15121307D02*
X15420053Y-15121307D01*
X15420053Y-15121307D02*
X15439101Y-15111784D01*
X15439101Y-15111784D02*
X15448625Y-15102260D01*
X15448625Y-15102260D02*
X15458149Y-15083212D01*
X15581958Y-14997498D02*
X15601006Y-14997498D01*
X15601006Y-14997498D02*
X15620053Y-15007022D01*
X15620053Y-15007022D02*
X15629577Y-15016545D01*
X15629577Y-15016545D02*
X15639101Y-15035593D01*
X15639101Y-15035593D02*
X15648625Y-15073688D01*
X15648625Y-15073688D02*
X15648625Y-15121307D01*
X15648625Y-15121307D02*
X15639101Y-15159403D01*
X15639101Y-15159403D02*
X15629577Y-15178450D01*
X15629577Y-15178450D02*
X15620053Y-15187974D01*
X15620053Y-15187974D02*
X15601006Y-15197498D01*
X15601006Y-15197498D02*
X15581958Y-15197498D01*
X15581958Y-15197498D02*
X15562910Y-15187974D01*
X15562910Y-15187974D02*
X15553387Y-15178450D01*
X15553387Y-15178450D02*
X15543863Y-15159403D01*
X15543863Y-15159403D02*
X15534339Y-15121307D01*
X15534339Y-15121307D02*
X15534339Y-15073688D01*
X15534339Y-15073688D02*
X15543863Y-15035593D01*
X15543863Y-15035593D02*
X15553387Y-15016545D01*
X15553387Y-15016545D02*
X15562910Y-15007022D01*
X15562910Y-15007022D02*
X15581958Y-14997498D01*
X15724815Y-14997498D02*
X15724815Y-15035593D01*
X15801006Y-14997498D02*
X15801006Y-15035593D01*
X16096244Y-15273688D02*
X16086720Y-15264164D01*
X16086720Y-15264164D02*
X16067672Y-15235593D01*
X16067672Y-15235593D02*
X16058149Y-15216545D01*
X16058149Y-15216545D02*
X16048625Y-15187974D01*
X16048625Y-15187974D02*
X16039101Y-15140355D01*
X16039101Y-15140355D02*
X16039101Y-15102260D01*
X16039101Y-15102260D02*
X16048625Y-15054641D01*
X16048625Y-15054641D02*
X16058149Y-15026069D01*
X16058149Y-15026069D02*
X16067672Y-15007022D01*
X16067672Y-15007022D02*
X16086720Y-14978450D01*
X16086720Y-14978450D02*
X16096244Y-14968926D01*
X16153387Y-14997498D02*
X16277196Y-14997498D01*
X16277196Y-14997498D02*
X16210530Y-15073688D01*
X16210530Y-15073688D02*
X16239101Y-15073688D01*
X16239101Y-15073688D02*
X16258149Y-15083212D01*
X16258149Y-15083212D02*
X16267672Y-15092736D01*
X16267672Y-15092736D02*
X16277196Y-15111784D01*
X16277196Y-15111784D02*
X16277196Y-15159403D01*
X16277196Y-15159403D02*
X16267672Y-15178450D01*
X16267672Y-15178450D02*
X16258149Y-15187974D01*
X16258149Y-15187974D02*
X16239101Y-15197498D01*
X16239101Y-15197498D02*
X16181958Y-15197498D01*
X16181958Y-15197498D02*
X16162911Y-15187974D01*
X16162911Y-15187974D02*
X16153387Y-15178450D01*
X16515292Y-15197498D02*
X16515292Y-14997498D01*
X16601006Y-15197498D02*
X16601006Y-15092736D01*
X16601006Y-15092736D02*
X16591482Y-15073688D01*
X16591482Y-15073688D02*
X16572434Y-15064164D01*
X16572434Y-15064164D02*
X16543863Y-15064164D01*
X16543863Y-15064164D02*
X16524815Y-15073688D01*
X16524815Y-15073688D02*
X16515292Y-15083212D01*
X16724815Y-15197498D02*
X16705768Y-15187974D01*
X16705768Y-15187974D02*
X16696244Y-15178450D01*
X16696244Y-15178450D02*
X16686720Y-15159403D01*
X16686720Y-15159403D02*
X16686720Y-15102260D01*
X16686720Y-15102260D02*
X16696244Y-15083212D01*
X16696244Y-15083212D02*
X16705768Y-15073688D01*
X16705768Y-15073688D02*
X16724815Y-15064164D01*
X16724815Y-15064164D02*
X16753387Y-15064164D01*
X16753387Y-15064164D02*
X16772434Y-15073688D01*
X16772434Y-15073688D02*
X16781958Y-15083212D01*
X16781958Y-15083212D02*
X16791482Y-15102260D01*
X16791482Y-15102260D02*
X16791482Y-15159403D01*
X16791482Y-15159403D02*
X16781958Y-15178450D01*
X16781958Y-15178450D02*
X16772434Y-15187974D01*
X16772434Y-15187974D02*
X16753387Y-15197498D01*
X16753387Y-15197498D02*
X16724815Y-15197498D01*
X16905768Y-15197498D02*
X16886720Y-15187974D01*
X16886720Y-15187974D02*
X16877196Y-15168926D01*
X16877196Y-15168926D02*
X16877196Y-14997498D01*
X17058149Y-15187974D02*
X17039101Y-15197498D01*
X17039101Y-15197498D02*
X17001006Y-15197498D01*
X17001006Y-15197498D02*
X16981958Y-15187974D01*
X16981958Y-15187974D02*
X16972435Y-15168926D01*
X16972435Y-15168926D02*
X16972435Y-15092736D01*
X16972435Y-15092736D02*
X16981958Y-15073688D01*
X16981958Y-15073688D02*
X17001006Y-15064164D01*
X17001006Y-15064164D02*
X17039101Y-15064164D01*
X17039101Y-15064164D02*
X17058149Y-15073688D01*
X17058149Y-15073688D02*
X17067673Y-15092736D01*
X17067673Y-15092736D02*
X17067673Y-15111784D01*
X17067673Y-15111784D02*
X16972435Y-15130831D01*
X17143863Y-15187974D02*
X17162911Y-15197498D01*
X17162911Y-15197498D02*
X17201006Y-15197498D01*
X17201006Y-15197498D02*
X17220054Y-15187974D01*
X17220054Y-15187974D02*
X17229577Y-15168926D01*
X17229577Y-15168926D02*
X17229577Y-15159403D01*
X17229577Y-15159403D02*
X17220054Y-15140355D01*
X17220054Y-15140355D02*
X17201006Y-15130831D01*
X17201006Y-15130831D02*
X17172435Y-15130831D01*
X17172435Y-15130831D02*
X17153387Y-15121307D01*
X17153387Y-15121307D02*
X17143863Y-15102260D01*
X17143863Y-15102260D02*
X17143863Y-15092736D01*
X17143863Y-15092736D02*
X17153387Y-15073688D01*
X17153387Y-15073688D02*
X17172435Y-15064164D01*
X17172435Y-15064164D02*
X17201006Y-15064164D01*
X17201006Y-15064164D02*
X17220054Y-15073688D01*
X17296244Y-15273688D02*
X17305768Y-15264164D01*
X17305768Y-15264164D02*
X17324816Y-15235593D01*
X17324816Y-15235593D02*
X17334339Y-15216545D01*
X17334339Y-15216545D02*
X17343863Y-15187974D01*
X17343863Y-15187974D02*
X17353387Y-15140355D01*
X17353387Y-15140355D02*
X17353387Y-15102260D01*
X17353387Y-15102260D02*
X17343863Y-15054641D01*
X17343863Y-15054641D02*
X17334339Y-15026069D01*
X17334339Y-15026069D02*
X17324816Y-15007022D01*
X17324816Y-15007022D02*
X17305768Y-14978450D01*
X17305768Y-14978450D02*
X17296244Y-14968926D01*
X17658149Y-15273688D02*
X17648625Y-15264164D01*
X17648625Y-15264164D02*
X17629577Y-15235593D01*
X17629577Y-15235593D02*
X17620054Y-15216545D01*
X17620054Y-15216545D02*
X17610530Y-15187974D01*
X17610530Y-15187974D02*
X17601006Y-15140355D01*
X17601006Y-15140355D02*
X17601006Y-15102260D01*
X17601006Y-15102260D02*
X17610530Y-15054641D01*
X17610530Y-15054641D02*
X17620054Y-15026069D01*
X17620054Y-15026069D02*
X17629577Y-15007022D01*
X17629577Y-15007022D02*
X17648625Y-14978450D01*
X17648625Y-14978450D02*
X17658149Y-14968926D01*
X17734339Y-15064164D02*
X17734339Y-15197498D01*
X17734339Y-15083212D02*
X17743863Y-15073688D01*
X17743863Y-15073688D02*
X17762911Y-15064164D01*
X17762911Y-15064164D02*
X17791482Y-15064164D01*
X17791482Y-15064164D02*
X17810530Y-15073688D01*
X17810530Y-15073688D02*
X17820054Y-15092736D01*
X17820054Y-15092736D02*
X17820054Y-15197498D01*
X17943863Y-15197498D02*
X17924816Y-15187974D01*
X17924816Y-15187974D02*
X17915292Y-15178450D01*
X17915292Y-15178450D02*
X17905768Y-15159403D01*
X17905768Y-15159403D02*
X17905768Y-15102260D01*
X17905768Y-15102260D02*
X17915292Y-15083212D01*
X17915292Y-15083212D02*
X17924816Y-15073688D01*
X17924816Y-15073688D02*
X17943863Y-15064164D01*
X17943863Y-15064164D02*
X17972435Y-15064164D01*
X17972435Y-15064164D02*
X17991482Y-15073688D01*
X17991482Y-15073688D02*
X18001006Y-15083212D01*
X18001006Y-15083212D02*
X18010530Y-15102260D01*
X18010530Y-15102260D02*
X18010530Y-15159403D01*
X18010530Y-15159403D02*
X18001006Y-15178450D01*
X18001006Y-15178450D02*
X17991482Y-15187974D01*
X17991482Y-15187974D02*
X17972435Y-15197498D01*
X17972435Y-15197498D02*
X17943863Y-15197498D01*
X18067673Y-15064164D02*
X18143863Y-15064164D01*
X18096244Y-14997498D02*
X18096244Y-15168926D01*
X18096244Y-15168926D02*
X18105768Y-15187974D01*
X18105768Y-15187974D02*
X18124816Y-15197498D01*
X18124816Y-15197498D02*
X18143863Y-15197498D01*
X18362911Y-15064164D02*
X18362911Y-15264164D01*
X18362911Y-15073688D02*
X18381958Y-15064164D01*
X18381958Y-15064164D02*
X18420054Y-15064164D01*
X18420054Y-15064164D02*
X18439101Y-15073688D01*
X18439101Y-15073688D02*
X18448625Y-15083212D01*
X18448625Y-15083212D02*
X18458149Y-15102260D01*
X18458149Y-15102260D02*
X18458149Y-15159403D01*
X18458149Y-15159403D02*
X18448625Y-15178450D01*
X18448625Y-15178450D02*
X18439101Y-15187974D01*
X18439101Y-15187974D02*
X18420054Y-15197498D01*
X18420054Y-15197498D02*
X18381958Y-15197498D01*
X18381958Y-15197498D02*
X18362911Y-15187974D01*
X18572435Y-15197498D02*
X18553387Y-15187974D01*
X18553387Y-15187974D02*
X18543863Y-15168926D01*
X18543863Y-15168926D02*
X18543863Y-14997498D01*
X18734339Y-15197498D02*
X18734339Y-15092736D01*
X18734339Y-15092736D02*
X18724816Y-15073688D01*
X18724816Y-15073688D02*
X18705768Y-15064164D01*
X18705768Y-15064164D02*
X18667673Y-15064164D01*
X18667673Y-15064164D02*
X18648625Y-15073688D01*
X18734339Y-15187974D02*
X18715292Y-15197498D01*
X18715292Y-15197498D02*
X18667673Y-15197498D01*
X18667673Y-15197498D02*
X18648625Y-15187974D01*
X18648625Y-15187974D02*
X18639101Y-15168926D01*
X18639101Y-15168926D02*
X18639101Y-15149879D01*
X18639101Y-15149879D02*
X18648625Y-15130831D01*
X18648625Y-15130831D02*
X18667673Y-15121307D01*
X18667673Y-15121307D02*
X18715292Y-15121307D01*
X18715292Y-15121307D02*
X18734339Y-15111784D01*
X18801006Y-15064164D02*
X18877197Y-15064164D01*
X18829578Y-14997498D02*
X18829578Y-15168926D01*
X18829578Y-15168926D02*
X18839101Y-15187974D01*
X18839101Y-15187974D02*
X18858149Y-15197498D01*
X18858149Y-15197498D02*
X18877197Y-15197498D01*
X19020054Y-15187974D02*
X19001006Y-15197498D01*
X19001006Y-15197498D02*
X18962911Y-15197498D01*
X18962911Y-15197498D02*
X18943863Y-15187974D01*
X18943863Y-15187974D02*
X18934339Y-15168926D01*
X18934339Y-15168926D02*
X18934339Y-15092736D01*
X18934339Y-15092736D02*
X18943863Y-15073688D01*
X18943863Y-15073688D02*
X18962911Y-15064164D01*
X18962911Y-15064164D02*
X19001006Y-15064164D01*
X19001006Y-15064164D02*
X19020054Y-15073688D01*
X19020054Y-15073688D02*
X19029578Y-15092736D01*
X19029578Y-15092736D02*
X19029578Y-15111784D01*
X19029578Y-15111784D02*
X18934339Y-15130831D01*
X19201006Y-15197498D02*
X19201006Y-14997498D01*
X19201006Y-15187974D02*
X19181959Y-15197498D01*
X19181959Y-15197498D02*
X19143863Y-15197498D01*
X19143863Y-15197498D02*
X19124816Y-15187974D01*
X19124816Y-15187974D02*
X19115292Y-15178450D01*
X19115292Y-15178450D02*
X19105768Y-15159403D01*
X19105768Y-15159403D02*
X19105768Y-15102260D01*
X19105768Y-15102260D02*
X19115292Y-15083212D01*
X19115292Y-15083212D02*
X19124816Y-15073688D01*
X19124816Y-15073688D02*
X19143863Y-15064164D01*
X19143863Y-15064164D02*
X19181959Y-15064164D01*
X19181959Y-15064164D02*
X19201006Y-15073688D01*
X19277197Y-15273688D02*
X19286720Y-15264164D01*
X19286720Y-15264164D02*
X19305768Y-15235593D01*
X19305768Y-15235593D02*
X19315292Y-15216545D01*
X19315292Y-15216545D02*
X19324816Y-15187974D01*
X19324816Y-15187974D02*
X19334339Y-15140355D01*
X19334339Y-15140355D02*
X19334339Y-15102260D01*
X19334339Y-15102260D02*
X19324816Y-15054641D01*
X19324816Y-15054641D02*
X19315292Y-15026069D01*
X19315292Y-15026069D02*
X19305768Y-15007022D01*
X19305768Y-15007022D02*
X19286720Y-14978450D01*
X19286720Y-14978450D02*
X19277197Y-14968926D01*
M02*
