M48
; DRILL file {KiCad 8.0.8} date 2025-01-29T17:43:00+0000
; FORMAT={-:-/ absolute / metric / decimal}
; #@! TF.CreationDate,2025-01-29T17:43:00+00:00
; #@! TF.GenerationSoftware,Kicad,Pcbnew,8.0.8
; #@! TF.FileFunction,Plated,1,4,PTH
FMAT,2
METRIC
; #@! TA.AperFunction,Plated,PTH,ComponentDrill
T1C0.203
; #@! TA.AperFunction,Plated,PTH,ViaDrill
T2C0.250
; #@! TA.AperFunction,Plated,PTH,ViaDrill
T3C0.300
; #@! TA.AperFunction,Plated,PTH,ViaDrill
T4C0.350
; #@! TA.AperFunction,Plated,PTH,ViaDrill
T5C0.360
; #@! TA.AperFunction,Plated,PTH,ViaDrill
T6C0.400
; #@! TA.AperFunction,Plated,PTH,ViaDrill
T7C0.500
; #@! TA.AperFunction,Plated,PTH,ComponentDrill
T8C0.600
; #@! TA.AperFunction,Plated,PTH,ComponentDrill
T9C3.200
%
G90
G05
T1
X164.0Y-53.99
X165.1Y-53.99
T2
X139.18Y-51.3
X140.51Y-122.333
X145.23Y-88.333
X149.32Y-86.663
X150.75Y-51.023
X151.765Y-90.853
X157.56Y-125.643
X157.57Y-123.423
X157.78Y-131.273
X164.8Y-55.45
X165.135Y-106.438
X165.56Y-71.14
T3
X137.56Y-122.733
X137.56Y-126.313
X138.69Y-132.81
X139.016Y-50.326
X139.53Y-127.88
X140.09Y-126.77
X140.27Y-53.22
X140.94Y-57.981
X140.97Y-125.07
X141.25Y-73.793
X141.45Y-95.183
X141.5Y-126.2
X141.68Y-74.323
X141.7Y-53.403
X141.86Y-130.04
X141.86Y-131.15
X141.87Y-128.96
X141.88Y-127.3
X141.89Y-56.033
X142.02Y-122.08
X142.63Y-52.9
X142.63Y-57.093
X142.63Y-58.013
X143.33Y-58.6
X144.01Y-133.91
X144.03Y-122.423
X144.125Y-126.2
X144.13Y-127.3
X144.18Y-130.043
X144.19Y-61.51
X144.2Y-60.583
X144.39Y-125.6
X144.56Y-95.183
X144.59Y-88.79
X144.602Y-58.231
X144.69Y-122.91
X144.82Y-125.1
X144.94Y-128.4
X144.94Y-130.6
X144.94Y-131.7
X144.94Y-132.76
X144.95Y-127.28
X144.95Y-129.5
X145.24Y-117.033
X145.75Y-117.663
X146.25Y-118.33
X146.4Y-94.153
X146.7Y-133.27
X146.79Y-117.924
X146.82Y-97.923
X147.22Y-90.7
X147.275Y-117.474
X147.75Y-95.863
X147.775Y-117.059
X148.275Y-115.03
X148.37Y-90.4
X148.5Y-134.283
X148.5Y-135.783
X148.63Y-95.183
X148.725Y-116.29
X148.783Y-89.553
X149.05Y-55.47
X149.13Y-51.163
X149.47Y-88.043
X149.7Y-49.34
X149.84Y-90.093
X150.0Y-68.723
X150.0Y-133.283
X150.0Y-136.883
X150.03Y-91.5
X150.79Y-49.34
X150.95Y-55.47
X151.27Y-87.433
X151.5Y-134.283
X151.5Y-135.783
X151.77Y-123.76
X151.84Y-84.253
X152.28Y-97.923
X153.28Y-100.293
X153.5Y-91.16
X153.5Y-128.983
X153.5Y-130.083
X153.5Y-131.183
X153.59Y-124.0
X153.59Y-125.098
X154.53Y-115.58
X155.27Y-115.57
X155.48Y-132.803
X155.48Y-133.903
X155.85Y-135.563
X155.9Y-126.2
X155.9Y-127.3
X155.92Y-125.1
X156.03Y-115.58
X156.4Y-113.353
X156.7Y-121.943
X156.96Y-58.893
X157.28Y-100.143
X157.293Y-113.35
X157.52Y-124.433
X157.64Y-133.933
X157.93Y-128.843
X158.1Y-108.143
X158.85Y-129.543
X158.96Y-62.713
X159.56Y-126.303
X159.59Y-104.093
X159.62Y-101.893
X160.1Y-61.743
X160.45Y-135.0
X160.7Y-123.1
X161.12Y-121.223
X161.14Y-127.55
X161.55Y-136.1
X163.311Y-122.16
X163.36Y-123.1
X163.8Y-55.903
X164.02Y-69.92
X165.82Y-54.643
X167.88Y-39.448
T4
X135.34Y-107.663
X138.47Y-44.643
X142.52Y-123.473
X145.46Y-55.59
X145.46Y-58.22
X153.57Y-126.69
T5
X128.5Y-97.643
X129.16Y-42.79
X137.83Y-56.993
X139.59Y-62.823
X139.59Y-68.263
X140.17Y-118.323
X141.02Y-104.483
X142.36Y-46.083
X144.43Y-103.883
X144.5Y-106.413
X144.5Y-115.113
X144.5Y-115.843
X144.75Y-67.463
X144.78Y-91.89
X145.27Y-81.323
X145.46Y-66.133
X145.49Y-100.143
X145.67Y-49.743
X146.84Y-96.983
X147.6Y-50.223
X147.6Y-51.073
X147.78Y-96.983
X148.5Y-58.323
X148.79Y-100.143
X150.01Y-77.54
X150.62Y-122.913
X150.62Y-123.593
X150.75Y-82.663
X152.02Y-54.3
X152.486Y-50.214
X152.52Y-62.023
X152.655Y-92.733
X152.76Y-57.633
X152.9Y-63.733
X153.11Y-52.733
X153.48Y-122.88
X153.575Y-51.558
X154.94Y-62.693
X154.96Y-65.333
X155.09Y-49.253
X155.31Y-94.892
X155.43Y-54.525
X155.65Y-60.393
X156.28Y-59.613
X157.01Y-71.083
X158.12Y-65.333
X158.24Y-46.183
X159.75Y-95.533
X160.28Y-58.913
X160.65Y-124.36
X161.17Y-74.39
X161.5Y-53.035
X161.69Y-46.173
X163.46Y-76.553
X163.8Y-83.493
X167.25Y-101.063
X169.38Y-59.843
X170.95Y-42.81
T6
X136.26Y-51.753
X136.26Y-52.81
X139.59Y-63.72
X155.57Y-58.903
X157.01Y-69.683
X166.71Y-71.193
X166.72Y-70.22
X168.07Y-56.733
T7
X148.5Y-59.61
X162.48Y-74.423
T9
X135.5Y-65.925
X135.5Y-130.0
X164.5Y-65.925
X164.5Y-130.0
T8
X145.68Y-43.352G85X145.68Y-44.152
G05
X145.68Y-47.382G85X145.68Y-48.482
G05
X154.32Y-43.352G85X154.32Y-44.152
G05
X154.32Y-47.382G85X154.32Y-48.482
G05
M30
