M48
; DRILL file {KiCad 8.0.8} date 2025-02-04T17:04:20+0000
; FORMAT={-:-/ absolute / metric / decimal}
; #@! TF.CreationDate,2025-02-04T17:04:20+00:00
; #@! TF.GenerationSoftware,Kicad,Pcbnew,8.0.8
; #@! TF.FileFunction,Plated,1,4,PTH
FMAT,2
METRIC
; #@! TA.AperFunction,Plated,PTH,ComponentDrill
T1C0.203
; #@! TA.AperFunction,Plated,PTH,ViaDrill
T2C0.250
; #@! TA.AperFunction,Plated,PTH,ViaDrill
T3C0.300
; #@! TA.AperFunction,Plated,PTH,ViaDrill
T4C0.350
; #@! TA.AperFunction,Plated,PTH,ViaDrill
T5C0.360
; #@! TA.AperFunction,Plated,PTH,ViaDrill
T6C0.400
; #@! TA.AperFunction,Plated,PTH,ViaDrill
T7C0.500
; #@! TA.AperFunction,Plated,PTH,ComponentDrill
T8C0.600
; #@! TA.AperFunction,Plated,PTH,ComponentDrill
T9C3.200
%
G90
G05
T1
X163.82Y-53.08
X164.92Y-53.08
T2
X139.18Y-51.3
X140.51Y-122.333
X145.23Y-88.333
X149.32Y-86.663
X150.85Y-50.963
X151.765Y-90.853
X157.56Y-125.643
X157.57Y-123.423
X157.78Y-131.273
X164.072Y-107.015
X165.56Y-71.14
T3
X130.035Y-41.874
X130.58Y-100.173
X137.56Y-122.733
X137.56Y-126.313
X138.07Y-95.903
X138.2Y-101.193
X138.69Y-132.81
X138.84Y-49.313
X139.016Y-50.326
X139.12Y-46.113
X139.53Y-127.88
X140.09Y-126.77
X140.27Y-52.823
X140.94Y-57.981
X140.97Y-125.07
X141.09Y-127.603
X141.25Y-73.793
X141.498Y-50.711
X141.5Y-126.2
X141.67Y-53.613
X141.68Y-74.323
X141.86Y-130.04
X141.86Y-131.15
X141.87Y-128.96
X141.89Y-56.033
X142.02Y-122.08
X142.024Y-46.659
X142.63Y-52.9
X142.63Y-57.093
X142.63Y-58.013
X143.24Y-121.933
X143.545Y-64.65
X144.01Y-133.91
X144.065Y-69.74
X144.125Y-126.2
X144.18Y-130.043
X144.24Y-61.493
X144.39Y-125.6
X144.56Y-95.183
X144.59Y-88.79
X144.69Y-122.91
X144.705Y-64.65
X144.82Y-125.1
X144.94Y-128.4
X144.94Y-130.6
X144.94Y-131.7
X144.94Y-132.76
X144.95Y-127.28
X144.95Y-129.5
X145.24Y-117.033
X145.75Y-117.663
X146.25Y-118.33
X146.4Y-94.153
X146.79Y-117.924
X147.22Y-90.7
X147.275Y-117.474
X147.75Y-95.863
X147.775Y-117.059
X148.275Y-115.03
X148.37Y-90.4
X148.5Y-134.283
X148.63Y-95.183
X148.725Y-116.29
X148.783Y-89.553
X148.8Y-130.203
X149.0Y-68.483
X149.05Y-50.983
X149.05Y-55.47
X149.47Y-88.043
X149.7Y-49.34
X149.84Y-90.093
X150.0Y-46.183
X150.0Y-136.883
X150.03Y-91.5
X150.79Y-49.34
X150.95Y-55.47
X151.27Y-87.433
X151.5Y-134.283
X151.77Y-123.76
X151.84Y-84.253
X152.8Y-72.783
X152.815Y-66.88
X153.28Y-100.293
X153.5Y-68.543
X153.5Y-91.16
X153.5Y-128.963
X153.59Y-124.0
X153.59Y-125.098
X153.6Y-122.893
X154.53Y-115.58
X154.975Y-62.95
X155.27Y-115.57
X155.48Y-132.803
X155.48Y-133.903
X155.85Y-135.563
X155.9Y-126.2
X155.9Y-127.3
X155.92Y-125.1
X156.03Y-115.58
X156.205Y-66.88
X156.4Y-113.353
X156.7Y-121.943
X156.96Y-58.893
X157.28Y-100.143
X157.293Y-113.35
X157.52Y-124.433
X157.64Y-133.933
X157.89Y-81.163
X157.93Y-128.843
X158.1Y-108.143
X158.45Y-80.573
X158.96Y-62.493
X158.98Y-129.443
X159.56Y-126.303
X159.59Y-104.093
X159.62Y-101.893
X160.385Y-60.95
X160.45Y-135.0
X160.7Y-123.1
X161.12Y-121.223
X161.14Y-127.55
X161.55Y-136.1
X162.97Y-42.233
X163.311Y-122.16
X163.36Y-123.1
X163.62Y-54.993
X164.02Y-69.92
X165.64Y-53.733
X166.27Y-40.113
X167.16Y-102.813
X167.385Y-73.91
X168.45Y-105.493
X168.495Y-68.02
X172.97Y-37.493
X173.84Y-39.273
T4
X129.27Y-99.583
X133.72Y-100.053
X135.34Y-107.663
X139.74Y-119.973
X153.57Y-126.69
X168.45Y-102.563
T5
X128.5Y-97.643
X129.16Y-42.79
X129.39Y-59.603
X132.45Y-40.053
X132.46Y-102.703
X134.04Y-59.583
X137.83Y-56.993
X139.59Y-62.823
X139.59Y-68.263
X140.17Y-118.323
X141.02Y-104.483
X142.86Y-46.173
X144.02Y-67.463
X144.42Y-108.783
X144.43Y-103.883
X144.5Y-106.413
X144.5Y-115.113
X144.5Y-115.843
X144.75Y-67.463
X145.27Y-81.323
X145.49Y-100.143
X145.67Y-49.743
X146.42Y-89.023
X146.84Y-96.983
X147.6Y-50.223
X147.6Y-51.073
X147.78Y-96.983
X148.5Y-58.323
X148.79Y-100.143
X150.01Y-77.54
X150.62Y-122.913
X150.62Y-123.593
X150.75Y-82.663
X152.02Y-54.3
X152.486Y-50.214
X152.52Y-62.023
X152.655Y-92.733
X152.76Y-57.633
X152.9Y-63.733
X153.11Y-52.733
X153.5Y-65.333
X153.575Y-51.558
X155.09Y-49.253
X155.31Y-94.892
X155.43Y-54.525
X155.65Y-60.393
X156.28Y-59.613
X157.01Y-71.613
X157.01Y-72.313
X158.25Y-46.483
X158.31Y-65.533
X159.75Y-95.533
X160.28Y-58.913
X160.65Y-124.36
X161.17Y-74.39
X161.32Y-52.125
X161.6Y-94.683
X161.6Y-100.213
X161.6Y-105.493
X161.6Y-106.333
X161.69Y-46.173
X163.46Y-76.553
X163.52Y-85.593
X169.38Y-59.843
X170.95Y-42.81
X171.5Y-101.273
T6
X136.26Y-51.753
X136.26Y-52.81
X139.35Y-85.543
X139.35Y-86.463
X139.35Y-102.653
X139.35Y-103.553
X139.59Y-63.72
X155.57Y-58.903
X166.71Y-71.193
X166.72Y-70.22
X167.87Y-57.703
T7
X148.5Y-59.61
X162.48Y-74.423
T9
X135.5Y-65.925
X135.5Y-130.0
X164.5Y-65.925
X164.5Y-130.0
T8
X145.68Y-43.352G85X145.68Y-44.152
G05
X145.68Y-47.382G85X145.68Y-48.482
G05
X154.32Y-43.352G85X154.32Y-44.152
G05
X154.32Y-47.382G85X154.32Y-48.482
G05
M30
