%TF.GenerationSoftware,KiCad,Pcbnew,9.0.1*%
%TF.CreationDate,2025-04-05T00:34:01+01:00*%
%TF.ProjectId,mariposa,6d617269-706f-4736-912e-6b696361645f,2.0*%
%TF.SameCoordinates,Original*%
%TF.FileFunction,Drillmap*%
%TF.FilePolarity,Positive*%
%FSLAX45Y45*%
G04 Gerber Fmt 4.5, Leading zero omitted, Abs format (unit mm)*
G04 Created by KiCad (PCBNEW 9.0.1) date 2025-04-05 00:34:01*
%MOMM*%
%LPD*%
G01*
G04 APERTURE LIST*
%ADD10C,0.050000*%
%ADD11C,0.200024*%
%ADD12C,0.200000*%
%ADD13C,0.100000*%
%ADD14C,0.320000*%
G04 APERTURE END LIST*
D10*
X15250000Y-7555164D02*
G75*
G02*
X15299996Y-7605164I0J-49996D01*
G01*
X15300000Y-7605164D02*
G75*
G02*
X15250000Y-7655160I-50000J4D01*
G01*
X15250000Y-7655164D02*
X14250000Y-7655164D01*
X14250000Y-7655164D02*
G75*
G02*
X14199996Y-7605164I0J50004D01*
G01*
X14200000Y-7605164D02*
G75*
G02*
X14250000Y-7555160I50000J4D01*
G01*
X14250000Y-7555164D02*
X15250000Y-7555164D01*
D11*
X16714065Y-4355498D02*
X16728095Y-4356784D01*
X16742070Y-4358894D01*
X16755962Y-4361801D01*
X16769744Y-4365477D01*
X16783390Y-4369894D01*
X16796870Y-4375025D01*
X16810158Y-4380843D01*
X16823226Y-4387320D01*
X16836047Y-4394428D01*
X16848594Y-4402141D01*
X16860838Y-4410431D01*
X16872753Y-4419270D01*
X16884311Y-4428630D01*
X16895484Y-4438485D01*
X16906246Y-4448807D01*
X16916568Y-4459569D01*
X16926423Y-4470742D01*
X16935784Y-4482300D01*
X16944622Y-4494215D01*
X16952912Y-4506459D01*
X16960625Y-4519006D01*
X16967733Y-4531827D01*
X16974210Y-4544896D01*
X16980028Y-4558184D01*
X16985159Y-4571664D01*
X16989577Y-4585309D01*
X16993252Y-4599092D01*
X16996159Y-4612984D01*
X16998269Y-4626959D01*
X16999555Y-4640988D01*
X16999990Y-4655046D01*
X16999670Y-4668962D01*
X16998721Y-4682576D01*
X16997156Y-4695878D01*
X16994991Y-4708860D01*
X16992240Y-4721512D01*
X16988917Y-4733825D01*
X16985038Y-4745790D01*
X16980617Y-4757398D01*
X16975669Y-4768639D01*
X16970208Y-4779505D01*
X16964250Y-4789987D01*
X16957807Y-4800074D01*
X16950896Y-4809759D01*
X16943532Y-4819032D01*
X16935727Y-4827883D01*
X16927498Y-4836304D01*
X16918859Y-4844286D01*
X16909824Y-4851819D01*
X16900409Y-4858894D01*
X16890627Y-4865502D01*
X16880494Y-4871634D01*
X16870023Y-4877281D01*
X16859231Y-4882433D01*
X16848131Y-4887082D01*
X16836738Y-4891219D01*
X16825067Y-4894833D01*
X16813132Y-4897916D01*
X16800948Y-4900460D01*
X16788529Y-4902454D01*
X16775891Y-4903889D01*
X16763048Y-4904758D01*
X16750014Y-4905049D01*
X16736242Y-4904762D01*
X16723046Y-4903926D01*
X16710417Y-4902577D01*
X16698347Y-4900753D01*
X16686827Y-4898489D01*
X16675847Y-4895822D01*
X16665398Y-4892789D01*
X16655471Y-4889426D01*
X16646056Y-4885771D01*
X16637146Y-4881859D01*
X16620798Y-4873413D01*
X16606356Y-4864381D01*
X16593744Y-4855057D01*
X16582891Y-4845732D01*
X16573722Y-4836700D01*
X16566165Y-4828254D01*
X16560146Y-4820687D01*
X16552430Y-4809360D01*
X16549988Y-4805064D01*
X16544446Y-4812762D01*
X16529670Y-4834623D01*
X16519685Y-4850287D01*
X16508433Y-4868797D01*
X16496259Y-4889924D01*
X16483511Y-4913435D01*
X16470536Y-4939100D01*
X16457680Y-4966688D01*
X16445289Y-4995966D01*
X16439377Y-5011168D01*
X16433712Y-5026705D01*
X16428337Y-5042550D01*
X16423295Y-5058673D01*
X16418629Y-5075045D01*
X16414384Y-5091638D01*
X16410602Y-5108422D01*
X16407327Y-5125369D01*
X16404601Y-5142450D01*
X16402470Y-5159636D01*
X16453685Y-5227637D01*
X16502172Y-5297736D01*
X16547851Y-5369855D01*
X16590642Y-5443914D01*
X16630466Y-5519833D01*
X16667243Y-5597533D01*
X16700895Y-5676936D01*
X16731341Y-5757961D01*
X16758503Y-5840529D01*
X16782302Y-5924561D01*
X16802656Y-6009977D01*
X16819488Y-6096698D01*
X16832718Y-6184646D01*
X16842266Y-6273739D01*
X16848053Y-6363900D01*
X16849999Y-6455048D01*
X16846848Y-6570960D01*
X16837504Y-6685235D01*
X16822130Y-6797708D01*
X16800892Y-6908217D01*
X16773951Y-7016596D01*
X16741473Y-7122683D01*
X16703621Y-7226314D01*
X16660559Y-7327324D01*
X16612451Y-7425550D01*
X16559460Y-7520827D01*
X16501751Y-7612993D01*
X16439487Y-7701884D01*
X16372832Y-7787334D01*
X16301950Y-7869181D01*
X16227005Y-7947262D01*
X16148160Y-8021410D01*
X16276353Y-8272483D01*
X16374167Y-8474574D01*
X16426577Y-8591526D01*
X16479446Y-8717851D01*
X16531366Y-8852626D01*
X16580930Y-8994927D01*
X16626730Y-9143830D01*
X16667359Y-9298413D01*
X16701410Y-9457752D01*
X16715528Y-9538916D01*
X16727474Y-9620923D01*
X16737072Y-9703657D01*
X16744145Y-9787002D01*
X16748518Y-9870845D01*
X16750014Y-9955068D01*
X16748288Y-10037136D01*
X16743255Y-10114756D01*
X16735137Y-10188164D01*
X16724154Y-10257599D01*
X16710525Y-10323298D01*
X16694472Y-10385501D01*
X16676215Y-10444445D01*
X16655975Y-10500367D01*
X16633971Y-10553506D01*
X16610424Y-10604101D01*
X16559584Y-10698606D01*
X16505217Y-10785788D01*
X16449087Y-10867550D01*
X16338591Y-11022432D01*
X16287751Y-11099361D01*
X16242200Y-11178486D01*
X16221960Y-11219468D01*
X16203703Y-11261713D01*
X16187650Y-11305460D01*
X16174021Y-11350946D01*
X16163038Y-11398410D01*
X16154920Y-11448089D01*
X16149887Y-11500221D01*
X16148160Y-11555045D01*
X16152002Y-11667723D01*
X16162860Y-11780107D01*
X16179731Y-11891234D01*
X16201613Y-12000143D01*
X16227504Y-12105870D01*
X16256402Y-12207453D01*
X16287305Y-12303930D01*
X16319209Y-12394337D01*
X16382016Y-12553096D01*
X16436805Y-12676029D01*
X16490258Y-12783615D01*
X16504872Y-12818109D01*
X16517833Y-12853577D01*
X16538845Y-12927061D01*
X16553396Y-13003314D01*
X16561584Y-13081587D01*
X16563510Y-13161129D01*
X16559274Y-13241188D01*
X16548976Y-13321014D01*
X16532715Y-13399856D01*
X16510593Y-13476963D01*
X16482708Y-13551584D01*
X16449162Y-13622969D01*
X16410053Y-13690366D01*
X16388445Y-13722334D01*
X16365483Y-13753024D01*
X16341181Y-13782342D01*
X16315551Y-13810194D01*
X16288605Y-13836485D01*
X16260357Y-13861123D01*
X16230818Y-13884013D01*
X16200001Y-13905061D01*
X16129636Y-13947844D01*
X16055831Y-13990129D01*
X15978743Y-14031606D01*
X15898533Y-14071960D01*
X15815357Y-14110880D01*
X15729374Y-14148055D01*
X15640743Y-14183170D01*
X15549621Y-14215916D01*
X15456168Y-14245978D01*
X15360542Y-14273045D01*
X15262901Y-14296804D01*
X15163403Y-14316944D01*
X15062207Y-14333152D01*
X14959472Y-14345116D01*
X14855354Y-14352523D01*
X14750014Y-14355061D01*
X14644656Y-14352544D01*
X14540498Y-14345196D01*
X14437703Y-14333319D01*
X14336437Y-14317218D01*
X14236862Y-14297197D01*
X14139143Y-14273558D01*
X14043442Y-14246607D01*
X13949924Y-14216646D01*
X13858752Y-14183979D01*
X13770090Y-14148910D01*
X13684102Y-14111743D01*
X13600951Y-14072781D01*
X13520802Y-14032329D01*
X13443817Y-13990688D01*
X13370161Y-13948165D01*
X13299998Y-13905061D01*
X13269274Y-13884067D01*
X13239831Y-13861223D01*
X13211681Y-13836625D01*
X13184836Y-13810368D01*
X13159308Y-13782544D01*
X13135109Y-13753250D01*
X13112252Y-13722579D01*
X13090748Y-13690626D01*
X13070608Y-13657486D01*
X13051846Y-13623251D01*
X13034473Y-13588018D01*
X13018502Y-13551881D01*
X13003943Y-13514933D01*
X12990810Y-13477269D01*
X12979114Y-13438984D01*
X12968867Y-13400172D01*
X12952769Y-13321345D01*
X12942613Y-13241543D01*
X12938494Y-13161522D01*
X12938728Y-13121666D01*
X12940508Y-13082037D01*
X12943846Y-13042731D01*
X12948752Y-13003843D01*
X12955240Y-12965466D01*
X12963322Y-12927695D01*
X12973009Y-12890625D01*
X12984314Y-12854349D01*
X12997248Y-12818963D01*
X13011823Y-12784561D01*
X13117245Y-12559519D01*
X13145621Y-12497034D01*
X13173901Y-12431547D01*
X13201633Y-12362800D01*
X13228365Y-12290537D01*
X13253645Y-12214501D01*
X13277021Y-12134435D01*
X13298041Y-12050083D01*
X13316253Y-11961188D01*
X13331205Y-11867493D01*
X13342444Y-11768742D01*
X13349519Y-11664679D01*
X13351978Y-11555045D01*
X13350251Y-11500221D01*
X13345218Y-11448089D01*
X13337098Y-11398410D01*
X13326113Y-11350946D01*
X13312482Y-11305460D01*
X13296426Y-11261713D01*
X13278165Y-11219468D01*
X13257921Y-11178486D01*
X13235913Y-11138530D01*
X13212362Y-11099361D01*
X13161513Y-11022432D01*
X13050996Y-10867550D01*
X12994855Y-10785788D01*
X12967336Y-10742993D01*
X12940478Y-10698606D01*
X12914503Y-10652388D01*
X12889629Y-10604101D01*
X12866078Y-10553506D01*
X12844070Y-10500367D01*
X12823826Y-10444445D01*
X12805565Y-10385501D01*
X12789510Y-10323298D01*
X12775879Y-10257599D01*
X12764893Y-10188164D01*
X12756773Y-10114756D01*
X12751740Y-10037136D01*
X12750013Y-9955068D01*
X12756773Y-9785038D01*
X12775879Y-9613588D01*
X12805565Y-9442428D01*
X12844070Y-9273267D01*
X12889629Y-9107816D01*
X12940478Y-8947782D01*
X12994855Y-8794876D01*
X13050996Y-8650808D01*
X13161513Y-8396021D01*
X13257921Y-8197098D01*
X13351978Y-8021549D01*
X13273119Y-7947399D01*
X13198159Y-7869316D01*
X13127263Y-7787465D01*
X13060596Y-7702008D01*
X12998319Y-7613111D01*
X12940599Y-7520937D01*
X12887598Y-7425650D01*
X12839480Y-7327414D01*
X12796409Y-7226393D01*
X12758549Y-7122752D01*
X12726064Y-7016653D01*
X12699118Y-6908262D01*
X12677875Y-6797742D01*
X12662499Y-6685257D01*
X12653153Y-6570971D01*
X12650001Y-6455048D01*
X12651951Y-6363822D01*
X12657747Y-6273586D01*
X12667311Y-6184418D01*
X12680563Y-6096399D01*
X12697423Y-6009608D01*
X12717811Y-5924124D01*
X12741649Y-5840028D01*
X12768856Y-5757398D01*
X12799354Y-5676315D01*
X12833062Y-5596858D01*
X12869901Y-5519107D01*
X12909792Y-5443140D01*
X12952654Y-5369039D01*
X12998410Y-5296882D01*
X13046978Y-5226749D01*
X13098280Y-5158719D01*
X13093863Y-5118149D01*
X13087114Y-5079761D01*
X13078396Y-5043614D01*
X13068068Y-5009769D01*
X13056492Y-4978286D01*
X13044028Y-4949225D01*
X13031038Y-4922647D01*
X13017883Y-4898611D01*
X13004923Y-4877177D01*
X12992521Y-4858406D01*
X12970829Y-4829092D01*
X12950010Y-4805064D01*
X12947568Y-4809360D01*
X12944406Y-4814291D01*
X12939853Y-4820687D01*
X12933835Y-4828254D01*
X12926278Y-4836700D01*
X12921900Y-4841161D01*
X12917111Y-4845732D01*
X12911900Y-4850376D01*
X12906259Y-4855057D01*
X12900178Y-4859737D01*
X12893649Y-4864381D01*
X12886662Y-4868952D01*
X12879208Y-4873413D01*
X12871278Y-4877728D01*
X12862863Y-4881859D01*
X12853953Y-4885771D01*
X12844540Y-4889426D01*
X12834615Y-4892789D01*
X12824168Y-4895822D01*
X12813189Y-4898489D01*
X12801671Y-4900753D01*
X12789603Y-4902577D01*
X12776977Y-4903926D01*
X12763783Y-4904762D01*
X12750013Y-4905049D01*
X12736977Y-4904758D01*
X12724131Y-4903889D01*
X12711491Y-4902454D01*
X12699071Y-4900460D01*
X12686885Y-4897916D01*
X12674948Y-4894833D01*
X12663275Y-4891219D01*
X12651881Y-4887082D01*
X12640779Y-4882433D01*
X12629986Y-4877281D01*
X12619514Y-4871634D01*
X12609380Y-4865502D01*
X12599597Y-4858894D01*
X12590181Y-4851819D01*
X12581145Y-4844286D01*
X12572505Y-4836304D01*
X12564276Y-4827883D01*
X12556471Y-4819032D01*
X12549105Y-4809759D01*
X12542194Y-4800074D01*
X12535752Y-4789987D01*
X12529792Y-4779505D01*
X12524331Y-4768639D01*
X12519383Y-4757398D01*
X12514962Y-4745790D01*
X12511083Y-4733825D01*
X12507761Y-4721512D01*
X12505009Y-4708860D01*
X12502844Y-4695878D01*
X12501279Y-4682576D01*
X12500330Y-4668962D01*
X12500010Y-4655046D01*
X12500416Y-4640988D01*
X12501621Y-4626959D01*
X12503602Y-4612984D01*
X12506338Y-4599092D01*
X12509805Y-4585309D01*
X12513984Y-4571664D01*
X12518850Y-4558184D01*
X12524383Y-4544896D01*
X12530561Y-4531827D01*
X12537361Y-4519006D01*
X12544761Y-4506459D01*
X12552741Y-4494215D01*
X12561277Y-4482300D01*
X12570347Y-4470742D01*
X12579930Y-4459569D01*
X12590004Y-4448807D01*
X12600546Y-4438485D01*
X12611536Y-4428630D01*
X12622950Y-4419270D01*
X12634767Y-4410431D01*
X12646964Y-4402141D01*
X12659521Y-4394428D01*
X12672415Y-4387320D01*
X12685623Y-4380843D01*
X12699124Y-4375025D01*
X12712897Y-4369894D01*
X12726918Y-4365477D01*
X12741167Y-4361801D01*
X12755620Y-4358894D01*
X12770257Y-4356784D01*
X12785055Y-4355498D01*
X12799992Y-4355063D01*
X12820065Y-4355780D01*
X12839054Y-4357871D01*
X12856989Y-4361243D01*
X12873898Y-4365805D01*
X12889811Y-4371467D01*
X12904757Y-4378135D01*
X12918766Y-4385718D01*
X12931867Y-4394126D01*
X12944089Y-4403266D01*
X12955461Y-4413047D01*
X12966013Y-4423378D01*
X12975774Y-4434166D01*
X12984773Y-4445320D01*
X12993040Y-4456749D01*
X13000604Y-4468361D01*
X13007494Y-4480065D01*
X13013739Y-4491768D01*
X13019369Y-4503381D01*
X13028901Y-4525964D01*
X13036323Y-4547082D01*
X13041870Y-4566003D01*
X13045777Y-4581995D01*
X13048277Y-4594324D01*
X13049996Y-4605067D01*
X13058279Y-4605498D01*
X13068244Y-4606521D01*
X13081747Y-4608515D01*
X13098529Y-4611802D01*
X13118332Y-4616705D01*
X13140897Y-4623548D01*
X13165965Y-4632653D01*
X13179357Y-4638156D01*
X13193278Y-4644345D01*
X13207695Y-4651262D01*
X13222577Y-4658947D01*
X13237890Y-4667440D01*
X13253604Y-4676782D01*
X13269684Y-4687012D01*
X13286099Y-4698172D01*
X13302817Y-4710302D01*
X13319805Y-4723442D01*
X13337031Y-4737633D01*
X13354462Y-4752915D01*
X13372067Y-4769328D01*
X13389812Y-4786913D01*
X13407667Y-4805711D01*
X13425597Y-4825761D01*
X13494519Y-4771987D01*
X13565689Y-4721059D01*
X13639022Y-4673064D01*
X13714431Y-4628086D01*
X13791830Y-4586212D01*
X13871134Y-4547529D01*
X13952256Y-4512121D01*
X14035112Y-4480076D01*
X14119613Y-4451478D01*
X14205676Y-4426414D01*
X14293213Y-4404971D01*
X14382140Y-4387233D01*
X14472369Y-4373288D01*
X14563815Y-4363220D01*
X14656392Y-4357117D01*
X14750014Y-4355063D01*
X14843632Y-4357117D01*
X14936204Y-4363220D01*
X15027647Y-4373288D01*
X15117873Y-4387233D01*
X15206796Y-4404971D01*
X15294331Y-4426414D01*
X15380392Y-4451478D01*
X15464892Y-4480076D01*
X15547746Y-4512121D01*
X15628867Y-4547529D01*
X15708170Y-4586212D01*
X15785569Y-4628086D01*
X15860977Y-4673064D01*
X15934310Y-4721059D01*
X16005479Y-4771987D01*
X16074401Y-4825761D01*
X16092332Y-4805711D01*
X16110186Y-4786913D01*
X16145537Y-4752915D01*
X16180194Y-4723442D01*
X16213900Y-4698172D01*
X16246396Y-4676782D01*
X16277423Y-4658947D01*
X16306722Y-4644345D01*
X16334035Y-4632653D01*
X16359103Y-4623548D01*
X16381668Y-4616705D01*
X16401471Y-4611802D01*
X16418253Y-4608515D01*
X16441721Y-4605498D01*
X16450004Y-4605067D01*
X16450492Y-4594324D01*
X16451652Y-4581995D01*
X16453910Y-4566003D01*
X16457633Y-4547082D01*
X16463188Y-4525964D01*
X16470939Y-4503381D01*
X16475753Y-4491768D01*
X16481254Y-4480065D01*
X16487488Y-4468361D01*
X16494499Y-4456749D01*
X16502335Y-4445320D01*
X16511040Y-4434166D01*
X16520661Y-4423378D01*
X16531243Y-4413047D01*
X16542832Y-4403266D01*
X16555474Y-4394126D01*
X16569215Y-4385718D01*
X16584100Y-4378135D01*
X16600176Y-4371467D01*
X16617487Y-4365805D01*
X16636080Y-4361243D01*
X16656001Y-4357871D01*
X16677295Y-4355780D01*
X16700008Y-4355063D01*
X16714065Y-4355498D01*
D10*
X14663000Y-7078432D02*
X14663000Y-7190432D01*
X14757000Y-6998432D02*
X14743000Y-6998432D01*
X14757000Y-7270432D02*
X14743000Y-7270432D01*
X14837000Y-7078432D02*
X14837000Y-7190432D01*
X14663000Y-7078432D02*
G75*
G02*
X14743000Y-6998432I80000J0D01*
G01*
X14743000Y-7270432D02*
G75*
G02*
X14663000Y-7190432I0J80000D01*
G01*
X14757000Y-6998432D02*
G75*
G02*
X14837000Y-7078432I0J-80000D01*
G01*
X14837000Y-7190432D02*
G75*
G02*
X14757000Y-7270432I-80000J0D01*
G01*
D12*
D13*
X14399000Y-8668432D02*
X14419000Y-8688432D01*
X14419000Y-8668432D02*
X14399000Y-8688432D01*
X14402000Y-8416432D02*
X14422000Y-8436432D01*
X14422000Y-8416432D02*
X14402000Y-8436432D01*
X14569000Y-11328432D02*
X14589000Y-11348432D01*
X14589000Y-11328432D02*
X14569000Y-11348432D01*
X14702000Y-6788432D02*
X14722000Y-6808432D01*
X14722000Y-6788432D02*
X14702000Y-6808432D01*
X14780000Y-6785432D02*
X14800000Y-6805432D01*
X14800000Y-6785432D02*
X14780000Y-6805432D01*
X14818000Y-12505432D02*
X14838000Y-12525432D01*
X14838000Y-12505432D02*
X14818000Y-12525432D01*
X14834000Y-13730432D02*
X14854000Y-13750432D01*
X14854000Y-13730432D02*
X14834000Y-13750432D01*
X14862000Y-8527432D02*
X14882000Y-8547432D01*
X14882000Y-8527432D02*
X14862000Y-8547432D01*
X14912000Y-13730432D02*
X14932000Y-13750432D01*
X14932000Y-13730432D02*
X14912000Y-13750432D01*
X14915000Y-8527432D02*
X14935000Y-8547432D01*
X14935000Y-8527432D02*
X14915000Y-8547432D01*
X14993000Y-13854432D02*
X15013000Y-13874432D01*
X15013000Y-13854432D02*
X14993000Y-13874432D01*
X15005000Y-8527432D02*
X15025000Y-8547432D01*
X15025000Y-8527432D02*
X15005000Y-8547432D01*
X15295000Y-7362432D02*
X15315000Y-7382432D01*
X15315000Y-7362432D02*
X15295000Y-7382432D01*
X15297000Y-13186432D02*
X15317000Y-13206432D01*
X15317000Y-13186432D02*
X15297000Y-13206432D01*
X15322000Y-13134432D02*
X15342000Y-13154432D01*
X15342000Y-13134432D02*
X15322000Y-13154432D01*
X15381000Y-13670432D02*
X15401000Y-13690432D01*
X15401000Y-13670432D02*
X15381000Y-13690432D01*
X13469160Y-5227882D02*
G75*
G02*
X13448840Y-5227882I-10160J0D01*
G01*
X13448840Y-5227882D02*
G75*
G02*
X13469160Y-5227882I10160J0D01*
G01*
X13579160Y-5227882D02*
G75*
G02*
X13558840Y-5227882I-10160J0D01*
G01*
X13558840Y-5227882D02*
G75*
G02*
X13579160Y-5227882I10160J0D01*
G01*
X12901000Y-4559932D02*
X12901000Y-4584932D01*
X12888500Y-4572432D02*
X12913500Y-4572432D01*
X13139000Y-13559932D02*
X13139000Y-13584932D01*
X13126500Y-13572432D02*
X13151500Y-13572432D01*
X13286000Y-13464932D02*
X13286000Y-13489932D01*
X13273500Y-13477432D02*
X13298500Y-13477432D01*
X13346000Y-8292932D02*
X13346000Y-8317932D01*
X13333500Y-8305432D02*
X13358500Y-8305432D01*
X13355000Y-5349932D02*
X13355000Y-5374932D01*
X13342500Y-5362432D02*
X13367500Y-5362432D01*
X13368000Y-13709932D02*
X13368000Y-13734932D01*
X13355500Y-13722432D02*
X13380500Y-13722432D01*
X13386000Y-5293932D02*
X13386000Y-5318932D01*
X13373500Y-5306432D02*
X13398500Y-5306432D01*
X13442000Y-10654932D02*
X13442000Y-10679932D01*
X13429500Y-10667432D02*
X13454500Y-10667432D01*
X13445000Y-11204932D02*
X13445000Y-11229932D01*
X13432500Y-11217432D02*
X13457500Y-11217432D01*
X13453000Y-8380932D02*
X13453000Y-8405932D01*
X13440500Y-8393432D02*
X13465500Y-8393432D01*
X13558000Y-10547932D02*
X13558000Y-10572932D01*
X13545500Y-10560432D02*
X13570500Y-10560432D01*
X13656000Y-6558932D02*
X13656000Y-6583932D01*
X13643500Y-6571432D02*
X13668500Y-6571432D01*
X13711000Y-14002932D02*
X13711000Y-14027932D01*
X13698500Y-14015432D02*
X13723500Y-14015432D01*
X13726000Y-6475932D02*
X13726000Y-6500932D01*
X13713500Y-6488432D02*
X13738500Y-6488432D01*
X13914000Y-8292932D02*
X13914000Y-8317932D01*
X13901500Y-8305432D02*
X13926500Y-8305432D01*
X13937000Y-10322932D02*
X13937000Y-10347932D01*
X13924500Y-10335432D02*
X13949500Y-10335432D01*
X13959000Y-13037932D02*
X13959000Y-13062932D01*
X13946500Y-13050432D02*
X13971500Y-13050432D01*
X13963000Y-13511932D02*
X13963000Y-13536932D01*
X13950500Y-13524432D02*
X13975500Y-13524432D01*
X14029000Y-4593932D02*
X14029000Y-4618932D01*
X14016500Y-4606432D02*
X14041500Y-4606432D01*
X14057000Y-8427932D02*
X14057000Y-8452932D01*
X14044500Y-8440432D02*
X14069500Y-8440432D01*
X14075000Y-10661932D02*
X14075000Y-10686932D01*
X14062500Y-10674432D02*
X14087500Y-10674432D01*
X14108000Y-8472932D02*
X14108000Y-8497932D01*
X14095500Y-8485432D02*
X14120500Y-8485432D01*
X14123000Y-13233932D02*
X14123000Y-13258932D01*
X14110500Y-13246432D02*
X14135500Y-13246432D01*
X14125000Y-8107932D02*
X14125000Y-8132932D01*
X14112500Y-8120432D02*
X14137500Y-8120432D01*
X14125000Y-10700932D02*
X14125000Y-10725932D01*
X14112500Y-10713432D02*
X14137500Y-10713432D01*
X14164000Y-13478932D02*
X14164000Y-13503932D01*
X14151500Y-13491432D02*
X14176500Y-13491432D01*
X14173000Y-8157932D02*
X14173000Y-8182932D01*
X14160500Y-8170432D02*
X14185500Y-8170432D01*
X14176000Y-10661932D02*
X14176000Y-10686932D01*
X14163500Y-10674432D02*
X14188500Y-10674432D01*
X14225000Y-10701932D02*
X14225000Y-10726932D01*
X14212500Y-10714432D02*
X14237500Y-10714432D01*
X14225000Y-13188932D02*
X14225000Y-13213932D01*
X14212500Y-13201432D02*
X14237500Y-13201432D01*
X14227000Y-13458932D02*
X14227000Y-13483932D01*
X14214500Y-13471432D02*
X14239500Y-13471432D01*
X14236000Y-12979932D02*
X14236000Y-13004932D01*
X14223500Y-12992432D02*
X14248500Y-12992432D01*
X14266000Y-13874932D02*
X14266000Y-13899932D01*
X14253500Y-13887432D02*
X14278500Y-13887432D01*
X14274000Y-6537932D02*
X14274000Y-6562932D01*
X14261500Y-6550432D02*
X14286500Y-6550432D01*
X14275000Y-10661932D02*
X14275000Y-10686932D01*
X14262500Y-10674432D02*
X14287500Y-10674432D01*
X14325000Y-10701932D02*
X14325000Y-10726932D01*
X14312500Y-10714432D02*
X14337500Y-10714432D01*
X14338000Y-12830932D02*
X14338000Y-12855932D01*
X14325500Y-12843432D02*
X14350500Y-12843432D01*
X14351000Y-12775932D02*
X14351000Y-12800932D01*
X14338500Y-12788432D02*
X14363500Y-12788432D01*
X14375000Y-10661932D02*
X14375000Y-10686932D01*
X14362500Y-10674432D02*
X14387500Y-10674432D01*
X14380000Y-12959932D02*
X14380000Y-12984932D01*
X14367500Y-12972432D02*
X14392500Y-12972432D01*
X14413000Y-12830932D02*
X14413000Y-12855932D01*
X14400500Y-12843432D02*
X14425500Y-12843432D01*
X14416000Y-13657932D02*
X14416000Y-13682932D01*
X14403500Y-13670432D02*
X14428500Y-13670432D01*
X14417000Y-13874932D02*
X14417000Y-13899932D01*
X14404500Y-13887432D02*
X14429500Y-13887432D01*
X14425000Y-10701932D02*
X14425000Y-10726932D01*
X14412500Y-10714432D02*
X14437500Y-10714432D01*
X14438000Y-6425932D02*
X14438000Y-6450932D01*
X14425500Y-6438432D02*
X14450500Y-6438432D01*
X14440500Y-10101432D02*
X14440500Y-10126432D01*
X14428000Y-10113932D02*
X14453000Y-10113932D01*
X14499000Y-13140932D02*
X14499000Y-13165932D01*
X14486500Y-13153432D02*
X14511500Y-13153432D01*
X14508000Y-13252932D02*
X14508000Y-13277932D01*
X14495500Y-13265432D02*
X14520500Y-13265432D01*
X14529000Y-13875932D02*
X14529000Y-13900932D01*
X14516500Y-13888432D02*
X14541500Y-13888432D01*
X14534000Y-7016932D02*
X14534000Y-7041932D01*
X14521500Y-7029432D02*
X14546500Y-7029432D01*
X14540000Y-12519932D02*
X14540000Y-12544932D01*
X14527500Y-12532432D02*
X14552500Y-12532432D01*
X14563000Y-12831932D02*
X14563000Y-12856932D01*
X14550500Y-12844432D02*
X14575500Y-12844432D01*
X14563000Y-13140932D02*
X14563000Y-13165932D01*
X14550500Y-13153432D02*
X14575500Y-13153432D01*
X14566000Y-13514932D02*
X14566000Y-13539932D01*
X14553500Y-13527432D02*
X14578500Y-13527432D01*
X14570000Y-11974932D02*
X14570000Y-11999932D01*
X14557500Y-11987432D02*
X14582500Y-11987432D01*
X14570766Y-11880166D02*
X14570766Y-11905166D01*
X14558266Y-11892666D02*
X14583266Y-11892666D01*
X14591000Y-13066932D02*
X14591000Y-13091932D01*
X14578500Y-13079432D02*
X14603500Y-13079432D01*
X14596000Y-8540932D02*
X14596000Y-8565932D01*
X14583500Y-8553432D02*
X14608500Y-8553432D01*
X14644000Y-6816932D02*
X14644000Y-6841932D01*
X14631500Y-6829432D02*
X14656500Y-6829432D01*
X14653000Y-13590932D02*
X14653000Y-13615932D01*
X14640500Y-13603432D02*
X14665500Y-13603432D01*
X14672000Y-13076932D02*
X14672000Y-13101932D01*
X14659500Y-13089432D02*
X14684500Y-13089432D01*
X14674000Y-8302932D02*
X14674000Y-8327932D01*
X14661500Y-8315432D02*
X14686500Y-8315432D01*
X14675000Y-4965932D02*
X14675000Y-4990932D01*
X14662500Y-4978432D02*
X14687500Y-4978432D01*
X14724000Y-5172932D02*
X14724000Y-5197932D01*
X14711500Y-5185432D02*
X14736500Y-5185432D01*
X14728000Y-13606932D02*
X14728000Y-13631932D01*
X14715500Y-13619432D02*
X14740500Y-13619432D01*
X14751000Y-4485932D02*
X14751000Y-4510932D01*
X14738500Y-4498432D02*
X14763500Y-4498432D01*
X14758000Y-6465932D02*
X14758000Y-6490932D01*
X14745500Y-6478432D02*
X14770500Y-6478432D01*
X14776000Y-4965932D02*
X14776000Y-4990932D01*
X14763500Y-4978432D02*
X14788500Y-4978432D01*
X14784000Y-10383932D02*
X14784000Y-10408932D01*
X14771500Y-10396432D02*
X14796500Y-10396432D01*
X14815000Y-6375832D02*
X14815000Y-6400832D01*
X14802500Y-6388332D02*
X14827500Y-6388332D01*
X14825000Y-5172932D02*
X14825000Y-5197932D01*
X14812500Y-5185432D02*
X14837500Y-5185432D01*
X14854000Y-10021932D02*
X14854000Y-10046932D01*
X14841500Y-10034432D02*
X14866500Y-10034432D01*
X14872000Y-13516932D02*
X14872000Y-13541932D01*
X14859500Y-13529432D02*
X14884500Y-13529432D01*
X14875000Y-10667932D02*
X14875000Y-10692932D01*
X14862500Y-10680432D02*
X14887500Y-10680432D01*
X14925000Y-10712932D02*
X14925000Y-10737932D01*
X14912500Y-10725432D02*
X14937500Y-10725432D01*
X14925000Y-13580932D02*
X14925000Y-13605932D01*
X14912500Y-13593432D02*
X14937500Y-13593432D01*
X14938000Y-6709932D02*
X14938000Y-6734932D01*
X14925500Y-6722432D02*
X14950500Y-6722432D01*
X14939000Y-5717932D02*
X14939000Y-5742932D01*
X14926500Y-5730432D02*
X14951500Y-5730432D01*
X14975000Y-13072932D02*
X14975000Y-13097932D01*
X14962500Y-13085432D02*
X14987500Y-13085432D01*
X14975000Y-13355932D02*
X14975000Y-13380932D01*
X14962500Y-13368432D02*
X14987500Y-13368432D01*
X15004000Y-9987932D02*
X15004000Y-10012932D01*
X14991500Y-10000432D02*
X15016500Y-10000432D01*
X15056000Y-8413932D02*
X15056000Y-8438932D01*
X15043500Y-8426432D02*
X15068500Y-8426432D01*
X15081000Y-13876932D02*
X15081000Y-13901932D01*
X15068500Y-13889432D02*
X15093500Y-13889432D01*
X15157000Y-5748932D02*
X15157000Y-5773932D01*
X15144500Y-5761432D02*
X15169500Y-5761432D01*
X15157000Y-6421932D02*
X15157000Y-6446932D01*
X15144500Y-6434432D02*
X15169500Y-6434432D01*
X15163000Y-12819932D02*
X15163000Y-12844932D01*
X15150500Y-12832432D02*
X15175500Y-12832432D01*
X15163000Y-12959932D02*
X15163000Y-12984932D01*
X15150500Y-12972432D02*
X15175500Y-12972432D01*
X15221000Y-13529932D02*
X15221000Y-13554932D01*
X15208500Y-13542432D02*
X15233500Y-13542432D01*
X15236000Y-13875932D02*
X15236000Y-13900932D01*
X15223500Y-13888432D02*
X15248500Y-13888432D01*
X15317000Y-13546932D02*
X15317000Y-13571932D01*
X15304500Y-13559432D02*
X15329500Y-13559432D01*
X15352000Y-7080932D02*
X15352000Y-7105932D01*
X15339500Y-7093432D02*
X15364500Y-7093432D01*
X15454000Y-4587932D02*
X15454000Y-4612932D01*
X15441500Y-4600432D02*
X15466500Y-4600432D01*
X15505000Y-6242932D02*
X15505000Y-6267932D01*
X15492500Y-6255432D02*
X15517500Y-6255432D01*
X15509721Y-5276653D02*
X15509721Y-5301653D01*
X15497221Y-5289153D02*
X15522221Y-5289153D01*
X15547000Y-8818932D02*
X15547000Y-8843932D01*
X15534500Y-8831432D02*
X15559500Y-8831432D01*
X15579000Y-7051432D02*
X15579000Y-7076432D01*
X15566500Y-7063932D02*
X15591500Y-7063932D01*
X15686000Y-13396932D02*
X15686000Y-13421932D01*
X15673500Y-13409432D02*
X15698500Y-13409432D01*
X15756000Y-4745932D02*
X15756000Y-4770932D01*
X15743500Y-4758432D02*
X15768500Y-4758432D01*
X15792000Y-13998932D02*
X15792000Y-14023932D01*
X15779500Y-14011432D02*
X15804500Y-14011432D01*
X15817000Y-11870932D02*
X15817000Y-11895932D01*
X15804500Y-11883432D02*
X15829500Y-11883432D01*
X15824000Y-5540932D02*
X15824000Y-5565932D01*
X15811500Y-5553432D02*
X15836500Y-5553432D01*
X15848000Y-12648007D02*
X15848000Y-12673007D01*
X15835500Y-12660507D02*
X15860500Y-12660507D01*
X15938000Y-7121932D02*
X15938000Y-7146932D01*
X15925500Y-7134432D02*
X15950500Y-7134432D01*
X15949000Y-12334932D02*
X15949000Y-12359932D01*
X15936500Y-12347432D02*
X15961500Y-12347432D01*
X16069000Y-12563932D02*
X16069000Y-12588932D01*
X16056500Y-12576432D02*
X16081500Y-12576432D01*
X16095000Y-11870932D02*
X16095000Y-11895932D01*
X16082500Y-11883432D02*
X16107500Y-11883432D01*
X16114000Y-13595932D02*
X16114000Y-13620932D01*
X16101500Y-13608432D02*
X16126500Y-13608432D01*
X16115000Y-7760932D02*
X16115000Y-7785932D01*
X16102500Y-7773432D02*
X16127500Y-7773432D01*
X16199000Y-4756932D02*
X16199000Y-4781932D01*
X16186500Y-4769432D02*
X16211500Y-4769432D01*
X16206000Y-10915932D02*
X16206000Y-10940932D01*
X16193500Y-10928432D02*
X16218500Y-10928432D01*
X16223000Y-13424932D02*
X16223000Y-13449932D01*
X16210500Y-13437432D02*
X16235500Y-13437432D01*
X16251000Y-12436932D02*
X16251000Y-12461932D01*
X16238500Y-12449432D02*
X16263500Y-12449432D01*
X16440000Y-13336932D02*
X16440000Y-13361932D01*
X16427500Y-13349432D02*
X16452500Y-13349432D01*
X16450000Y-7087932D02*
X16450000Y-7112932D01*
X16437500Y-7100432D02*
X16462500Y-7100432D01*
X16883000Y-4593932D02*
X16883000Y-4618932D01*
X16870500Y-4606432D02*
X16895500Y-4606432D01*
X12714607Y-4513039D02*
X12714607Y-4491825D01*
X12693393Y-4491825D01*
X12693393Y-4513039D01*
X12714607Y-4513039D01*
X13087607Y-13351039D02*
X13087607Y-13329825D01*
X13066393Y-13329825D01*
X13066393Y-13351039D01*
X13087607Y-13351039D01*
X13209607Y-4785039D02*
X13209607Y-4763825D01*
X13188393Y-4763825D01*
X13188393Y-4785039D01*
X13209607Y-4785039D01*
X13461607Y-10818039D02*
X13461607Y-10796825D01*
X13440393Y-10796825D01*
X13440393Y-10818039D01*
X13461607Y-10818039D01*
X13469607Y-7189039D02*
X13469607Y-7167825D01*
X13448393Y-7167825D01*
X13448393Y-7189039D01*
X13469607Y-7189039D01*
X13524607Y-13308039D02*
X13524607Y-13286825D01*
X13503393Y-13286825D01*
X13503393Y-13308039D01*
X13524607Y-13308039D01*
X13626607Y-5569039D02*
X13626607Y-5547825D01*
X13605393Y-5547825D01*
X13605393Y-5569039D01*
X13626607Y-5569039D01*
X13716607Y-13614039D02*
X13716607Y-13592825D01*
X13695393Y-13592825D01*
X13695393Y-13614039D01*
X13716607Y-13614039D01*
X13773607Y-5569039D02*
X13773607Y-5547825D01*
X13752393Y-5547825D01*
X13752393Y-5569039D01*
X13773607Y-5569039D01*
X13806607Y-13002039D02*
X13806607Y-12980825D01*
X13785393Y-12980825D01*
X13785393Y-13002039D01*
X13806607Y-13002039D01*
X13916607Y-6145039D02*
X13916607Y-6123825D01*
X13895393Y-6123825D01*
X13895393Y-6145039D01*
X13916607Y-6145039D01*
X13919607Y-6780039D02*
X13919607Y-6758825D01*
X13898393Y-6758825D01*
X13898393Y-6780039D01*
X13919607Y-6780039D01*
X13927607Y-12529039D02*
X13927607Y-12507825D01*
X13906393Y-12507825D01*
X13906393Y-12529039D01*
X13927607Y-12529039D01*
X13928607Y-12384039D02*
X13928607Y-12362825D01*
X13907393Y-12362825D01*
X13907393Y-12384039D01*
X13928607Y-12384039D01*
X14027607Y-6799039D02*
X14027607Y-6777825D01*
X14006393Y-6777825D01*
X14006393Y-6799039D01*
X14027607Y-6799039D01*
X14030607Y-6873039D02*
X14030607Y-6851825D01*
X14009393Y-6851825D01*
X14009393Y-6873039D01*
X14030607Y-6873039D01*
X14039607Y-5905039D02*
X14039607Y-5883825D01*
X14018393Y-5883825D01*
X14018393Y-5905039D01*
X14039607Y-5905039D01*
X14100938Y-6070708D02*
X14100938Y-6049494D01*
X14079724Y-6049494D01*
X14079724Y-6070708D01*
X14100938Y-6070708D01*
X14249607Y-5907039D02*
X14249607Y-5885825D01*
X14228393Y-5885825D01*
X14228393Y-5907039D01*
X14249607Y-5907039D01*
X14325607Y-6281039D02*
X14325607Y-6259825D01*
X14304393Y-6259825D01*
X14304393Y-6281039D01*
X14325607Y-6281039D01*
X14387607Y-5833039D02*
X14387607Y-5811825D01*
X14366393Y-5811825D01*
X14366393Y-5833039D01*
X14387607Y-5833039D01*
X14387607Y-5892039D02*
X14387607Y-5870825D01*
X14366393Y-5870825D01*
X14366393Y-5892039D01*
X14387607Y-5892039D01*
X14389607Y-6449039D02*
X14389607Y-6427825D01*
X14368393Y-6427825D01*
X14368393Y-6449039D01*
X14389607Y-6449039D01*
X14515607Y-13614039D02*
X14515607Y-13592825D01*
X14494393Y-13592825D01*
X14494393Y-13614039D01*
X14515607Y-13614039D01*
X14544607Y-6094039D02*
X14544607Y-6072825D01*
X14523393Y-6072825D01*
X14523393Y-6094039D01*
X14544607Y-6094039D01*
X14567607Y-5279039D02*
X14567607Y-5257825D01*
X14546393Y-5257825D01*
X14546393Y-5279039D01*
X14567607Y-5279039D01*
X14630607Y-5279039D02*
X14630607Y-5257825D01*
X14609393Y-5257825D01*
X14609393Y-5279039D01*
X14630607Y-5279039D01*
X14652607Y-6096039D02*
X14652607Y-6074825D01*
X14631393Y-6074825D01*
X14631393Y-6096039D01*
X14652607Y-6096039D01*
X14652607Y-6171039D02*
X14652607Y-6149825D01*
X14631393Y-6149825D01*
X14631393Y-6171039D01*
X14652607Y-6171039D01*
X14682607Y-9183039D02*
X14682607Y-9161825D01*
X14661393Y-9161825D01*
X14661393Y-9183039D01*
X14682607Y-9183039D01*
X14682607Y-9342039D02*
X14682607Y-9320825D01*
X14661393Y-9320825D01*
X14661393Y-9342039D01*
X14682607Y-9342039D01*
X14923607Y-5279039D02*
X14923607Y-5257825D01*
X14902393Y-5257825D01*
X14902393Y-5279039D01*
X14923607Y-5279039D01*
X15000607Y-5279039D02*
X15000607Y-5257825D01*
X14979393Y-5257825D01*
X14979393Y-5279039D01*
X15000607Y-5279039D01*
X15020607Y-9426039D02*
X15020607Y-9404825D01*
X14999393Y-9404825D01*
X14999393Y-9426039D01*
X15020607Y-9426039D01*
X15240607Y-10419039D02*
X15240607Y-10397825D01*
X15219393Y-10397825D01*
X15219393Y-10419039D01*
X15240607Y-10419039D01*
X15371607Y-5518039D02*
X15371607Y-5496825D01*
X15350393Y-5496825D01*
X15350393Y-5518039D01*
X15371607Y-5518039D01*
X15386607Y-6460039D02*
X15386607Y-6438825D01*
X15365393Y-6438825D01*
X15365393Y-6460039D01*
X15386607Y-6460039D01*
X15460607Y-5764039D02*
X15460607Y-5742825D01*
X15439393Y-5742825D01*
X15439393Y-5764039D01*
X15460607Y-5764039D01*
X15569607Y-10415039D02*
X15569607Y-10393825D01*
X15548393Y-10393825D01*
X15548393Y-10415039D01*
X15569607Y-10415039D01*
X15599607Y-5044712D02*
X15599607Y-5023499D01*
X15578393Y-5023499D01*
X15578393Y-5044712D01*
X15599607Y-5044712D01*
X15642607Y-6567039D02*
X15642607Y-6545825D01*
X15621393Y-6545825D01*
X15621393Y-6567039D01*
X15642607Y-6567039D01*
X15668607Y-6295039D02*
X15668607Y-6273825D01*
X15647393Y-6273825D01*
X15647393Y-6295039D01*
X15668607Y-6295039D01*
X15721607Y-5697039D02*
X15721607Y-5675825D01*
X15700393Y-5675825D01*
X15700393Y-5697039D01*
X15721607Y-5697039D01*
X15739607Y-5326039D02*
X15739607Y-5304825D01*
X15718393Y-5304825D01*
X15718393Y-5326039D01*
X15739607Y-5326039D01*
X15752607Y-6829039D02*
X15752607Y-6807825D01*
X15731393Y-6807825D01*
X15731393Y-6829039D01*
X15752607Y-6829039D01*
X15808607Y-6373039D02*
X15808607Y-6351825D01*
X15787393Y-6351825D01*
X15787393Y-6373039D01*
X15808607Y-6373039D01*
X15844607Y-6249039D02*
X15844607Y-6227825D01*
X15823393Y-6227825D01*
X15823393Y-6249039D01*
X15844607Y-6249039D01*
X15900607Y-5773039D02*
X15900607Y-5751825D01*
X15879393Y-5751825D01*
X15879393Y-5773039D01*
X15900607Y-5773039D01*
X15914607Y-6829039D02*
X15914607Y-6807825D01*
X15893393Y-6807825D01*
X15893393Y-6829039D01*
X15914607Y-6829039D01*
X15948607Y-8157039D02*
X15948607Y-8135825D01*
X15927393Y-8135825D01*
X15927393Y-8157039D01*
X15948607Y-8157039D01*
X15959607Y-10819039D02*
X15959607Y-10797825D01*
X15938393Y-10797825D01*
X15938393Y-10819039D01*
X15959607Y-10819039D01*
X16056607Y-5269039D02*
X16056607Y-5247825D01*
X16035393Y-5247825D01*
X16035393Y-5269039D01*
X16056607Y-5269039D01*
X16080607Y-13523039D02*
X16080607Y-13501825D01*
X16059393Y-13501825D01*
X16059393Y-13523039D01*
X16080607Y-13523039D01*
X16162607Y-5632039D02*
X16162607Y-5610825D01*
X16141393Y-5610825D01*
X16141393Y-5632039D01*
X16162607Y-5632039D01*
X16288607Y-4890039D02*
X16288607Y-4868825D01*
X16267393Y-4868825D01*
X16267393Y-4890039D01*
X16288607Y-4890039D01*
X16715607Y-4524039D02*
X16715607Y-4502825D01*
X16694393Y-4502825D01*
X16694393Y-4524039D01*
X16715607Y-4524039D01*
X13669000Y-5119932D02*
X13686500Y-5102432D01*
X13669000Y-5084932D01*
X13651500Y-5102432D01*
X13669000Y-5119932D01*
X14288000Y-4571932D02*
X14348000Y-4631932D01*
X14348000Y-4571932D02*
X14288000Y-4631932D01*
X14348000Y-4601932D02*
G75*
G02*
X14288000Y-4601932I-30000J0D01*
G01*
X14288000Y-4601932D02*
G75*
G02*
X14348000Y-4601932I30000J0D01*
G01*
X14348000Y-4641932D02*
X14348000Y-4561932D01*
X14288000Y-4561932D02*
G75*
G02*
X14348000Y-4561932I30000J0D01*
G01*
X14288000Y-4561932D02*
X14288000Y-4641932D01*
X14288000Y-4641932D02*
G75*
G03*
X14348000Y-4641932I30000J0D01*
G01*
X14288000Y-4989932D02*
X14348000Y-5049932D01*
X14348000Y-4989932D02*
X14288000Y-5049932D01*
X14348000Y-5019932D02*
G75*
G02*
X14288000Y-5019932I-30000J0D01*
G01*
X14288000Y-5019932D02*
G75*
G02*
X14348000Y-5019932I30000J0D01*
G01*
X14348000Y-5074932D02*
X14348000Y-4964932D01*
X14288000Y-4964932D02*
G75*
G02*
X14348000Y-4964932I30000J0D01*
G01*
X14288000Y-4964932D02*
X14288000Y-5074932D01*
X14288000Y-5074932D02*
G75*
G03*
X14348000Y-5074932I30000J0D01*
G01*
X15152000Y-4571932D02*
X15212000Y-4631932D01*
X15212000Y-4571932D02*
X15152000Y-4631932D01*
X15212000Y-4601932D02*
G75*
G02*
X15152000Y-4601932I-30000J0D01*
G01*
X15152000Y-4601932D02*
G75*
G02*
X15212000Y-4601932I30000J0D01*
G01*
X15212000Y-4641932D02*
X15212000Y-4561932D01*
X15152000Y-4561932D02*
G75*
G02*
X15212000Y-4561932I30000J0D01*
G01*
X15152000Y-4561932D02*
X15152000Y-4641932D01*
X15152000Y-4641932D02*
G75*
G03*
X15212000Y-4641932I30000J0D01*
G01*
X15152000Y-4989932D02*
X15212000Y-5049932D01*
X15212000Y-4989932D02*
X15152000Y-5049932D01*
X15212000Y-5019932D02*
G75*
G02*
X15152000Y-5019932I-30000J0D01*
G01*
X15152000Y-5019932D02*
G75*
G02*
X15212000Y-5019932I30000J0D01*
G01*
X15212000Y-5074932D02*
X15212000Y-4964932D01*
X15152000Y-4964932D02*
G75*
G02*
X15212000Y-4964932I30000J0D01*
G01*
X15152000Y-4964932D02*
X15152000Y-5074932D01*
X15152000Y-5074932D02*
G75*
G03*
X15212000Y-5074932I30000J0D01*
G01*
D14*
X13140000Y-6407664D02*
X13460000Y-6727664D01*
X13460000Y-6407664D02*
X13140000Y-6727664D01*
X13300000Y-6407664D02*
X13300000Y-6727664D01*
X13140000Y-6567664D02*
X13460000Y-6567664D01*
X13140000Y-12815164D02*
X13460000Y-13135164D01*
X13460000Y-12815164D02*
X13140000Y-13135164D01*
X13300000Y-12815164D02*
X13300000Y-13135164D01*
X13140000Y-12975164D02*
X13460000Y-12975164D01*
X16040000Y-6407664D02*
X16360000Y-6727664D01*
X16360000Y-6407664D02*
X16040000Y-6727664D01*
X16200000Y-6407664D02*
X16200000Y-6727664D01*
X16040000Y-6567664D02*
X16360000Y-6567664D01*
X16040000Y-12815164D02*
X16360000Y-13135164D01*
X16360000Y-12815164D02*
X16040000Y-13135164D01*
X16200000Y-12815164D02*
X16200000Y-13135164D01*
X16040000Y-12975164D02*
X16360000Y-12975164D01*
D12*
X12750785Y-14676546D02*
X12750785Y-14476546D01*
X12750785Y-14476546D02*
X12798404Y-14476546D01*
X12798404Y-14476546D02*
X12826976Y-14486070D01*
X12826976Y-14486070D02*
X12846024Y-14505118D01*
X12846024Y-14505118D02*
X12855547Y-14524165D01*
X12855547Y-14524165D02*
X12865071Y-14562261D01*
X12865071Y-14562261D02*
X12865071Y-14590832D01*
X12865071Y-14590832D02*
X12855547Y-14628927D01*
X12855547Y-14628927D02*
X12846024Y-14647975D01*
X12846024Y-14647975D02*
X12826976Y-14667023D01*
X12826976Y-14667023D02*
X12798404Y-14676546D01*
X12798404Y-14676546D02*
X12750785Y-14676546D01*
X12950785Y-14676546D02*
X12950785Y-14543213D01*
X12950785Y-14581308D02*
X12960309Y-14562261D01*
X12960309Y-14562261D02*
X12969833Y-14552737D01*
X12969833Y-14552737D02*
X12988881Y-14543213D01*
X12988881Y-14543213D02*
X13007928Y-14543213D01*
X13074595Y-14676546D02*
X13074595Y-14543213D01*
X13074595Y-14476546D02*
X13065071Y-14486070D01*
X13065071Y-14486070D02*
X13074595Y-14495594D01*
X13074595Y-14495594D02*
X13084119Y-14486070D01*
X13084119Y-14486070D02*
X13074595Y-14476546D01*
X13074595Y-14476546D02*
X13074595Y-14495594D01*
X13198404Y-14676546D02*
X13179357Y-14667023D01*
X13179357Y-14667023D02*
X13169833Y-14647975D01*
X13169833Y-14647975D02*
X13169833Y-14476546D01*
X13303166Y-14676546D02*
X13284119Y-14667023D01*
X13284119Y-14667023D02*
X13274595Y-14647975D01*
X13274595Y-14647975D02*
X13274595Y-14476546D01*
X13531738Y-14676546D02*
X13531738Y-14476546D01*
X13531738Y-14476546D02*
X13598405Y-14619404D01*
X13598405Y-14619404D02*
X13665071Y-14476546D01*
X13665071Y-14476546D02*
X13665071Y-14676546D01*
X13846024Y-14676546D02*
X13846024Y-14571785D01*
X13846024Y-14571785D02*
X13836500Y-14552737D01*
X13836500Y-14552737D02*
X13817452Y-14543213D01*
X13817452Y-14543213D02*
X13779357Y-14543213D01*
X13779357Y-14543213D02*
X13760309Y-14552737D01*
X13846024Y-14667023D02*
X13826976Y-14676546D01*
X13826976Y-14676546D02*
X13779357Y-14676546D01*
X13779357Y-14676546D02*
X13760309Y-14667023D01*
X13760309Y-14667023D02*
X13750785Y-14647975D01*
X13750785Y-14647975D02*
X13750785Y-14628927D01*
X13750785Y-14628927D02*
X13760309Y-14609880D01*
X13760309Y-14609880D02*
X13779357Y-14600356D01*
X13779357Y-14600356D02*
X13826976Y-14600356D01*
X13826976Y-14600356D02*
X13846024Y-14590832D01*
X13941262Y-14543213D02*
X13941262Y-14743213D01*
X13941262Y-14552737D02*
X13960309Y-14543213D01*
X13960309Y-14543213D02*
X13998405Y-14543213D01*
X13998405Y-14543213D02*
X14017452Y-14552737D01*
X14017452Y-14552737D02*
X14026976Y-14562261D01*
X14026976Y-14562261D02*
X14036500Y-14581308D01*
X14036500Y-14581308D02*
X14036500Y-14638451D01*
X14036500Y-14638451D02*
X14026976Y-14657499D01*
X14026976Y-14657499D02*
X14017452Y-14667023D01*
X14017452Y-14667023D02*
X13998405Y-14676546D01*
X13998405Y-14676546D02*
X13960309Y-14676546D01*
X13960309Y-14676546D02*
X13941262Y-14667023D01*
X14122214Y-14657499D02*
X14131738Y-14667023D01*
X14131738Y-14667023D02*
X14122214Y-14676546D01*
X14122214Y-14676546D02*
X14112690Y-14667023D01*
X14112690Y-14667023D02*
X14122214Y-14657499D01*
X14122214Y-14657499D02*
X14122214Y-14676546D01*
X14122214Y-14552737D02*
X14131738Y-14562261D01*
X14131738Y-14562261D02*
X14122214Y-14571785D01*
X14122214Y-14571785D02*
X14112690Y-14562261D01*
X14112690Y-14562261D02*
X14122214Y-14552737D01*
X14122214Y-14552737D02*
X14122214Y-14571785D01*
D13*
X12470009Y-14995063D02*
X12490009Y-15015063D01*
X12490009Y-14995063D02*
X12470009Y-15015063D01*
D12*
X12788881Y-14896546D02*
X12807928Y-14896546D01*
X12807928Y-14896546D02*
X12826976Y-14906070D01*
X12826976Y-14906070D02*
X12836500Y-14915594D01*
X12836500Y-14915594D02*
X12846024Y-14934642D01*
X12846024Y-14934642D02*
X12855547Y-14972737D01*
X12855547Y-14972737D02*
X12855547Y-15020356D01*
X12855547Y-15020356D02*
X12846024Y-15058451D01*
X12846024Y-15058451D02*
X12836500Y-15077499D01*
X12836500Y-15077499D02*
X12826976Y-15087023D01*
X12826976Y-15087023D02*
X12807928Y-15096546D01*
X12807928Y-15096546D02*
X12788881Y-15096546D01*
X12788881Y-15096546D02*
X12769833Y-15087023D01*
X12769833Y-15087023D02*
X12760309Y-15077499D01*
X12760309Y-15077499D02*
X12750785Y-15058451D01*
X12750785Y-15058451D02*
X12741262Y-15020356D01*
X12741262Y-15020356D02*
X12741262Y-14972737D01*
X12741262Y-14972737D02*
X12750785Y-14934642D01*
X12750785Y-14934642D02*
X12760309Y-14915594D01*
X12760309Y-14915594D02*
X12769833Y-14906070D01*
X12769833Y-14906070D02*
X12788881Y-14896546D01*
X12941262Y-15077499D02*
X12950785Y-15087023D01*
X12950785Y-15087023D02*
X12941262Y-15096546D01*
X12941262Y-15096546D02*
X12931738Y-15087023D01*
X12931738Y-15087023D02*
X12941262Y-15077499D01*
X12941262Y-15077499D02*
X12941262Y-15096546D01*
X13026976Y-14915594D02*
X13036500Y-14906070D01*
X13036500Y-14906070D02*
X13055547Y-14896546D01*
X13055547Y-14896546D02*
X13103166Y-14896546D01*
X13103166Y-14896546D02*
X13122214Y-14906070D01*
X13122214Y-14906070D02*
X13131738Y-14915594D01*
X13131738Y-14915594D02*
X13141262Y-14934642D01*
X13141262Y-14934642D02*
X13141262Y-14953689D01*
X13141262Y-14953689D02*
X13131738Y-14982261D01*
X13131738Y-14982261D02*
X13017452Y-15096546D01*
X13017452Y-15096546D02*
X13141262Y-15096546D01*
X13265071Y-14896546D02*
X13284119Y-14896546D01*
X13284119Y-14896546D02*
X13303166Y-14906070D01*
X13303166Y-14906070D02*
X13312690Y-14915594D01*
X13312690Y-14915594D02*
X13322214Y-14934642D01*
X13322214Y-14934642D02*
X13331738Y-14972737D01*
X13331738Y-14972737D02*
X13331738Y-15020356D01*
X13331738Y-15020356D02*
X13322214Y-15058451D01*
X13322214Y-15058451D02*
X13312690Y-15077499D01*
X13312690Y-15077499D02*
X13303166Y-15087023D01*
X13303166Y-15087023D02*
X13284119Y-15096546D01*
X13284119Y-15096546D02*
X13265071Y-15096546D01*
X13265071Y-15096546D02*
X13246024Y-15087023D01*
X13246024Y-15087023D02*
X13236500Y-15077499D01*
X13236500Y-15077499D02*
X13226976Y-15058451D01*
X13226976Y-15058451D02*
X13217452Y-15020356D01*
X13217452Y-15020356D02*
X13217452Y-14972737D01*
X13217452Y-14972737D02*
X13226976Y-14934642D01*
X13226976Y-14934642D02*
X13236500Y-14915594D01*
X13236500Y-14915594D02*
X13246024Y-14906070D01*
X13246024Y-14906070D02*
X13265071Y-14896546D01*
X13455547Y-14896546D02*
X13474595Y-14896546D01*
X13474595Y-14896546D02*
X13493643Y-14906070D01*
X13493643Y-14906070D02*
X13503166Y-14915594D01*
X13503166Y-14915594D02*
X13512690Y-14934642D01*
X13512690Y-14934642D02*
X13522214Y-14972737D01*
X13522214Y-14972737D02*
X13522214Y-15020356D01*
X13522214Y-15020356D02*
X13512690Y-15058451D01*
X13512690Y-15058451D02*
X13503166Y-15077499D01*
X13503166Y-15077499D02*
X13493643Y-15087023D01*
X13493643Y-15087023D02*
X13474595Y-15096546D01*
X13474595Y-15096546D02*
X13455547Y-15096546D01*
X13455547Y-15096546D02*
X13436500Y-15087023D01*
X13436500Y-15087023D02*
X13426976Y-15077499D01*
X13426976Y-15077499D02*
X13417452Y-15058451D01*
X13417452Y-15058451D02*
X13407928Y-15020356D01*
X13407928Y-15020356D02*
X13407928Y-14972737D01*
X13407928Y-14972737D02*
X13417452Y-14934642D01*
X13417452Y-14934642D02*
X13426976Y-14915594D01*
X13426976Y-14915594D02*
X13436500Y-14906070D01*
X13436500Y-14906070D02*
X13455547Y-14896546D01*
X13607928Y-15096546D02*
X13607928Y-14963213D01*
X13607928Y-14982261D02*
X13617452Y-14972737D01*
X13617452Y-14972737D02*
X13636500Y-14963213D01*
X13636500Y-14963213D02*
X13665071Y-14963213D01*
X13665071Y-14963213D02*
X13684119Y-14972737D01*
X13684119Y-14972737D02*
X13693643Y-14991785D01*
X13693643Y-14991785D02*
X13693643Y-15096546D01*
X13693643Y-14991785D02*
X13703166Y-14972737D01*
X13703166Y-14972737D02*
X13722214Y-14963213D01*
X13722214Y-14963213D02*
X13750785Y-14963213D01*
X13750785Y-14963213D02*
X13769833Y-14972737D01*
X13769833Y-14972737D02*
X13779357Y-14991785D01*
X13779357Y-14991785D02*
X13779357Y-15096546D01*
X13874595Y-15096546D02*
X13874595Y-14963213D01*
X13874595Y-14982261D02*
X13884119Y-14972737D01*
X13884119Y-14972737D02*
X13903166Y-14963213D01*
X13903166Y-14963213D02*
X13931738Y-14963213D01*
X13931738Y-14963213D02*
X13950786Y-14972737D01*
X13950786Y-14972737D02*
X13960309Y-14991785D01*
X13960309Y-14991785D02*
X13960309Y-15096546D01*
X13960309Y-14991785D02*
X13969833Y-14972737D01*
X13969833Y-14972737D02*
X13988881Y-14963213D01*
X13988881Y-14963213D02*
X14017452Y-14963213D01*
X14017452Y-14963213D02*
X14036500Y-14972737D01*
X14036500Y-14972737D02*
X14046024Y-14991785D01*
X14046024Y-14991785D02*
X14046024Y-15096546D01*
X14436500Y-14887023D02*
X14265071Y-15144165D01*
X14693643Y-14896546D02*
X14712690Y-14896546D01*
X14712690Y-14896546D02*
X14731738Y-14906070D01*
X14731738Y-14906070D02*
X14741262Y-14915594D01*
X14741262Y-14915594D02*
X14750786Y-14934642D01*
X14750786Y-14934642D02*
X14760309Y-14972737D01*
X14760309Y-14972737D02*
X14760309Y-15020356D01*
X14760309Y-15020356D02*
X14750786Y-15058451D01*
X14750786Y-15058451D02*
X14741262Y-15077499D01*
X14741262Y-15077499D02*
X14731738Y-15087023D01*
X14731738Y-15087023D02*
X14712690Y-15096546D01*
X14712690Y-15096546D02*
X14693643Y-15096546D01*
X14693643Y-15096546D02*
X14674595Y-15087023D01*
X14674595Y-15087023D02*
X14665071Y-15077499D01*
X14665071Y-15077499D02*
X14655548Y-15058451D01*
X14655548Y-15058451D02*
X14646024Y-15020356D01*
X14646024Y-15020356D02*
X14646024Y-14972737D01*
X14646024Y-14972737D02*
X14655548Y-14934642D01*
X14655548Y-14934642D02*
X14665071Y-14915594D01*
X14665071Y-14915594D02*
X14674595Y-14906070D01*
X14674595Y-14906070D02*
X14693643Y-14896546D01*
X14846024Y-15077499D02*
X14855548Y-15087023D01*
X14855548Y-15087023D02*
X14846024Y-15096546D01*
X14846024Y-15096546D02*
X14836500Y-15087023D01*
X14836500Y-15087023D02*
X14846024Y-15077499D01*
X14846024Y-15077499D02*
X14846024Y-15096546D01*
X14979357Y-14896546D02*
X14998405Y-14896546D01*
X14998405Y-14896546D02*
X15017452Y-14906070D01*
X15017452Y-14906070D02*
X15026976Y-14915594D01*
X15026976Y-14915594D02*
X15036500Y-14934642D01*
X15036500Y-14934642D02*
X15046024Y-14972737D01*
X15046024Y-14972737D02*
X15046024Y-15020356D01*
X15046024Y-15020356D02*
X15036500Y-15058451D01*
X15036500Y-15058451D02*
X15026976Y-15077499D01*
X15026976Y-15077499D02*
X15017452Y-15087023D01*
X15017452Y-15087023D02*
X14998405Y-15096546D01*
X14998405Y-15096546D02*
X14979357Y-15096546D01*
X14979357Y-15096546D02*
X14960309Y-15087023D01*
X14960309Y-15087023D02*
X14950786Y-15077499D01*
X14950786Y-15077499D02*
X14941262Y-15058451D01*
X14941262Y-15058451D02*
X14931738Y-15020356D01*
X14931738Y-15020356D02*
X14931738Y-14972737D01*
X14931738Y-14972737D02*
X14941262Y-14934642D01*
X14941262Y-14934642D02*
X14950786Y-14915594D01*
X14950786Y-14915594D02*
X14960309Y-14906070D01*
X14960309Y-14906070D02*
X14979357Y-14896546D01*
X15169833Y-14896546D02*
X15188881Y-14896546D01*
X15188881Y-14896546D02*
X15207929Y-14906070D01*
X15207929Y-14906070D02*
X15217452Y-14915594D01*
X15217452Y-14915594D02*
X15226976Y-14934642D01*
X15226976Y-14934642D02*
X15236500Y-14972737D01*
X15236500Y-14972737D02*
X15236500Y-15020356D01*
X15236500Y-15020356D02*
X15226976Y-15058451D01*
X15226976Y-15058451D02*
X15217452Y-15077499D01*
X15217452Y-15077499D02*
X15207929Y-15087023D01*
X15207929Y-15087023D02*
X15188881Y-15096546D01*
X15188881Y-15096546D02*
X15169833Y-15096546D01*
X15169833Y-15096546D02*
X15150786Y-15087023D01*
X15150786Y-15087023D02*
X15141262Y-15077499D01*
X15141262Y-15077499D02*
X15131738Y-15058451D01*
X15131738Y-15058451D02*
X15122214Y-15020356D01*
X15122214Y-15020356D02*
X15122214Y-14972737D01*
X15122214Y-14972737D02*
X15131738Y-14934642D01*
X15131738Y-14934642D02*
X15141262Y-14915594D01*
X15141262Y-14915594D02*
X15150786Y-14906070D01*
X15150786Y-14906070D02*
X15169833Y-14896546D01*
X15303167Y-14896546D02*
X15436500Y-14896546D01*
X15436500Y-14896546D02*
X15350786Y-15096546D01*
X15522214Y-15096546D02*
X15560309Y-15096546D01*
X15560309Y-15096546D02*
X15579357Y-15087023D01*
X15579357Y-15087023D02*
X15588881Y-15077499D01*
X15588881Y-15077499D02*
X15607929Y-15048927D01*
X15607929Y-15048927D02*
X15617452Y-15010832D01*
X15617452Y-15010832D02*
X15617452Y-14934642D01*
X15617452Y-14934642D02*
X15607929Y-14915594D01*
X15607929Y-14915594D02*
X15598405Y-14906070D01*
X15598405Y-14906070D02*
X15579357Y-14896546D01*
X15579357Y-14896546D02*
X15541262Y-14896546D01*
X15541262Y-14896546D02*
X15522214Y-14906070D01*
X15522214Y-14906070D02*
X15512690Y-14915594D01*
X15512690Y-14915594D02*
X15503167Y-14934642D01*
X15503167Y-14934642D02*
X15503167Y-14982261D01*
X15503167Y-14982261D02*
X15512690Y-15001308D01*
X15512690Y-15001308D02*
X15522214Y-15010832D01*
X15522214Y-15010832D02*
X15541262Y-15020356D01*
X15541262Y-15020356D02*
X15579357Y-15020356D01*
X15579357Y-15020356D02*
X15598405Y-15010832D01*
X15598405Y-15010832D02*
X15607929Y-15001308D01*
X15607929Y-15001308D02*
X15617452Y-14982261D01*
X15693643Y-14896546D02*
X15693643Y-14934642D01*
X15769833Y-14896546D02*
X15769833Y-14934642D01*
X16065072Y-15172737D02*
X16055548Y-15163213D01*
X16055548Y-15163213D02*
X16036500Y-15134642D01*
X16036500Y-15134642D02*
X16026976Y-15115594D01*
X16026976Y-15115594D02*
X16017452Y-15087023D01*
X16017452Y-15087023D02*
X16007929Y-15039404D01*
X16007929Y-15039404D02*
X16007929Y-15001308D01*
X16007929Y-15001308D02*
X16017452Y-14953689D01*
X16017452Y-14953689D02*
X16026976Y-14925118D01*
X16026976Y-14925118D02*
X16036500Y-14906070D01*
X16036500Y-14906070D02*
X16055548Y-14877499D01*
X16055548Y-14877499D02*
X16065072Y-14867975D01*
X16246024Y-15096546D02*
X16131738Y-15096546D01*
X16188881Y-15096546D02*
X16188881Y-14896546D01*
X16188881Y-14896546D02*
X16169833Y-14925118D01*
X16169833Y-14925118D02*
X16150786Y-14944165D01*
X16150786Y-14944165D02*
X16131738Y-14953689D01*
X16417452Y-14896546D02*
X16379357Y-14896546D01*
X16379357Y-14896546D02*
X16360310Y-14906070D01*
X16360310Y-14906070D02*
X16350786Y-14915594D01*
X16350786Y-14915594D02*
X16331738Y-14944165D01*
X16331738Y-14944165D02*
X16322214Y-14982261D01*
X16322214Y-14982261D02*
X16322214Y-15058451D01*
X16322214Y-15058451D02*
X16331738Y-15077499D01*
X16331738Y-15077499D02*
X16341262Y-15087023D01*
X16341262Y-15087023D02*
X16360310Y-15096546D01*
X16360310Y-15096546D02*
X16398405Y-15096546D01*
X16398405Y-15096546D02*
X16417452Y-15087023D01*
X16417452Y-15087023D02*
X16426976Y-15077499D01*
X16426976Y-15077499D02*
X16436500Y-15058451D01*
X16436500Y-15058451D02*
X16436500Y-15010832D01*
X16436500Y-15010832D02*
X16426976Y-14991785D01*
X16426976Y-14991785D02*
X16417452Y-14982261D01*
X16417452Y-14982261D02*
X16398405Y-14972737D01*
X16398405Y-14972737D02*
X16360310Y-14972737D01*
X16360310Y-14972737D02*
X16341262Y-14982261D01*
X16341262Y-14982261D02*
X16331738Y-14991785D01*
X16331738Y-14991785D02*
X16322214Y-15010832D01*
X16674595Y-15096546D02*
X16674595Y-14896546D01*
X16760310Y-15096546D02*
X16760310Y-14991785D01*
X16760310Y-14991785D02*
X16750786Y-14972737D01*
X16750786Y-14972737D02*
X16731738Y-14963213D01*
X16731738Y-14963213D02*
X16703167Y-14963213D01*
X16703167Y-14963213D02*
X16684119Y-14972737D01*
X16684119Y-14972737D02*
X16674595Y-14982261D01*
X16884119Y-15096546D02*
X16865072Y-15087023D01*
X16865072Y-15087023D02*
X16855548Y-15077499D01*
X16855548Y-15077499D02*
X16846024Y-15058451D01*
X16846024Y-15058451D02*
X16846024Y-15001308D01*
X16846024Y-15001308D02*
X16855548Y-14982261D01*
X16855548Y-14982261D02*
X16865072Y-14972737D01*
X16865072Y-14972737D02*
X16884119Y-14963213D01*
X16884119Y-14963213D02*
X16912691Y-14963213D01*
X16912691Y-14963213D02*
X16931738Y-14972737D01*
X16931738Y-14972737D02*
X16941262Y-14982261D01*
X16941262Y-14982261D02*
X16950786Y-15001308D01*
X16950786Y-15001308D02*
X16950786Y-15058451D01*
X16950786Y-15058451D02*
X16941262Y-15077499D01*
X16941262Y-15077499D02*
X16931738Y-15087023D01*
X16931738Y-15087023D02*
X16912691Y-15096546D01*
X16912691Y-15096546D02*
X16884119Y-15096546D01*
X17065072Y-15096546D02*
X17046024Y-15087023D01*
X17046024Y-15087023D02*
X17036500Y-15067975D01*
X17036500Y-15067975D02*
X17036500Y-14896546D01*
X17217453Y-15087023D02*
X17198405Y-15096546D01*
X17198405Y-15096546D02*
X17160310Y-15096546D01*
X17160310Y-15096546D02*
X17141262Y-15087023D01*
X17141262Y-15087023D02*
X17131738Y-15067975D01*
X17131738Y-15067975D02*
X17131738Y-14991785D01*
X17131738Y-14991785D02*
X17141262Y-14972737D01*
X17141262Y-14972737D02*
X17160310Y-14963213D01*
X17160310Y-14963213D02*
X17198405Y-14963213D01*
X17198405Y-14963213D02*
X17217453Y-14972737D01*
X17217453Y-14972737D02*
X17226976Y-14991785D01*
X17226976Y-14991785D02*
X17226976Y-15010832D01*
X17226976Y-15010832D02*
X17131738Y-15029880D01*
X17303167Y-15087023D02*
X17322215Y-15096546D01*
X17322215Y-15096546D02*
X17360310Y-15096546D01*
X17360310Y-15096546D02*
X17379357Y-15087023D01*
X17379357Y-15087023D02*
X17388881Y-15067975D01*
X17388881Y-15067975D02*
X17388881Y-15058451D01*
X17388881Y-15058451D02*
X17379357Y-15039404D01*
X17379357Y-15039404D02*
X17360310Y-15029880D01*
X17360310Y-15029880D02*
X17331738Y-15029880D01*
X17331738Y-15029880D02*
X17312691Y-15020356D01*
X17312691Y-15020356D02*
X17303167Y-15001308D01*
X17303167Y-15001308D02*
X17303167Y-14991785D01*
X17303167Y-14991785D02*
X17312691Y-14972737D01*
X17312691Y-14972737D02*
X17331738Y-14963213D01*
X17331738Y-14963213D02*
X17360310Y-14963213D01*
X17360310Y-14963213D02*
X17379357Y-14972737D01*
X17455548Y-15172737D02*
X17465072Y-15163213D01*
X17465072Y-15163213D02*
X17484119Y-15134642D01*
X17484119Y-15134642D02*
X17493643Y-15115594D01*
X17493643Y-15115594D02*
X17503167Y-15087023D01*
X17503167Y-15087023D02*
X17512691Y-15039404D01*
X17512691Y-15039404D02*
X17512691Y-15001308D01*
X17512691Y-15001308D02*
X17503167Y-14953689D01*
X17503167Y-14953689D02*
X17493643Y-14925118D01*
X17493643Y-14925118D02*
X17484119Y-14906070D01*
X17484119Y-14906070D02*
X17465072Y-14877499D01*
X17465072Y-14877499D02*
X17455548Y-14867975D01*
D13*
X12490009Y-15269063D02*
G75*
G02*
X12469689Y-15269063I-10160J0D01*
G01*
X12469689Y-15269063D02*
G75*
G02*
X12490009Y-15269063I10160J0D01*
G01*
D12*
X12788881Y-15160546D02*
X12807928Y-15160546D01*
X12807928Y-15160546D02*
X12826976Y-15170070D01*
X12826976Y-15170070D02*
X12836500Y-15179594D01*
X12836500Y-15179594D02*
X12846024Y-15198642D01*
X12846024Y-15198642D02*
X12855547Y-15236737D01*
X12855547Y-15236737D02*
X12855547Y-15284356D01*
X12855547Y-15284356D02*
X12846024Y-15322451D01*
X12846024Y-15322451D02*
X12836500Y-15341499D01*
X12836500Y-15341499D02*
X12826976Y-15351023D01*
X12826976Y-15351023D02*
X12807928Y-15360546D01*
X12807928Y-15360546D02*
X12788881Y-15360546D01*
X12788881Y-15360546D02*
X12769833Y-15351023D01*
X12769833Y-15351023D02*
X12760309Y-15341499D01*
X12760309Y-15341499D02*
X12750785Y-15322451D01*
X12750785Y-15322451D02*
X12741262Y-15284356D01*
X12741262Y-15284356D02*
X12741262Y-15236737D01*
X12741262Y-15236737D02*
X12750785Y-15198642D01*
X12750785Y-15198642D02*
X12760309Y-15179594D01*
X12760309Y-15179594D02*
X12769833Y-15170070D01*
X12769833Y-15170070D02*
X12788881Y-15160546D01*
X12941262Y-15341499D02*
X12950785Y-15351023D01*
X12950785Y-15351023D02*
X12941262Y-15360546D01*
X12941262Y-15360546D02*
X12931738Y-15351023D01*
X12931738Y-15351023D02*
X12941262Y-15341499D01*
X12941262Y-15341499D02*
X12941262Y-15360546D01*
X13026976Y-15179594D02*
X13036500Y-15170070D01*
X13036500Y-15170070D02*
X13055547Y-15160546D01*
X13055547Y-15160546D02*
X13103166Y-15160546D01*
X13103166Y-15160546D02*
X13122214Y-15170070D01*
X13122214Y-15170070D02*
X13131738Y-15179594D01*
X13131738Y-15179594D02*
X13141262Y-15198642D01*
X13141262Y-15198642D02*
X13141262Y-15217689D01*
X13141262Y-15217689D02*
X13131738Y-15246261D01*
X13131738Y-15246261D02*
X13017452Y-15360546D01*
X13017452Y-15360546D02*
X13141262Y-15360546D01*
X13265071Y-15160546D02*
X13284119Y-15160546D01*
X13284119Y-15160546D02*
X13303166Y-15170070D01*
X13303166Y-15170070D02*
X13312690Y-15179594D01*
X13312690Y-15179594D02*
X13322214Y-15198642D01*
X13322214Y-15198642D02*
X13331738Y-15236737D01*
X13331738Y-15236737D02*
X13331738Y-15284356D01*
X13331738Y-15284356D02*
X13322214Y-15322451D01*
X13322214Y-15322451D02*
X13312690Y-15341499D01*
X13312690Y-15341499D02*
X13303166Y-15351023D01*
X13303166Y-15351023D02*
X13284119Y-15360546D01*
X13284119Y-15360546D02*
X13265071Y-15360546D01*
X13265071Y-15360546D02*
X13246024Y-15351023D01*
X13246024Y-15351023D02*
X13236500Y-15341499D01*
X13236500Y-15341499D02*
X13226976Y-15322451D01*
X13226976Y-15322451D02*
X13217452Y-15284356D01*
X13217452Y-15284356D02*
X13217452Y-15236737D01*
X13217452Y-15236737D02*
X13226976Y-15198642D01*
X13226976Y-15198642D02*
X13236500Y-15179594D01*
X13236500Y-15179594D02*
X13246024Y-15170070D01*
X13246024Y-15170070D02*
X13265071Y-15160546D01*
X13398405Y-15160546D02*
X13522214Y-15160546D01*
X13522214Y-15160546D02*
X13455547Y-15236737D01*
X13455547Y-15236737D02*
X13484119Y-15236737D01*
X13484119Y-15236737D02*
X13503166Y-15246261D01*
X13503166Y-15246261D02*
X13512690Y-15255785D01*
X13512690Y-15255785D02*
X13522214Y-15274832D01*
X13522214Y-15274832D02*
X13522214Y-15322451D01*
X13522214Y-15322451D02*
X13512690Y-15341499D01*
X13512690Y-15341499D02*
X13503166Y-15351023D01*
X13503166Y-15351023D02*
X13484119Y-15360546D01*
X13484119Y-15360546D02*
X13426976Y-15360546D01*
X13426976Y-15360546D02*
X13407928Y-15351023D01*
X13407928Y-15351023D02*
X13398405Y-15341499D01*
X13607928Y-15360546D02*
X13607928Y-15227213D01*
X13607928Y-15246261D02*
X13617452Y-15236737D01*
X13617452Y-15236737D02*
X13636500Y-15227213D01*
X13636500Y-15227213D02*
X13665071Y-15227213D01*
X13665071Y-15227213D02*
X13684119Y-15236737D01*
X13684119Y-15236737D02*
X13693643Y-15255785D01*
X13693643Y-15255785D02*
X13693643Y-15360546D01*
X13693643Y-15255785D02*
X13703166Y-15236737D01*
X13703166Y-15236737D02*
X13722214Y-15227213D01*
X13722214Y-15227213D02*
X13750785Y-15227213D01*
X13750785Y-15227213D02*
X13769833Y-15236737D01*
X13769833Y-15236737D02*
X13779357Y-15255785D01*
X13779357Y-15255785D02*
X13779357Y-15360546D01*
X13874595Y-15360546D02*
X13874595Y-15227213D01*
X13874595Y-15246261D02*
X13884119Y-15236737D01*
X13884119Y-15236737D02*
X13903166Y-15227213D01*
X13903166Y-15227213D02*
X13931738Y-15227213D01*
X13931738Y-15227213D02*
X13950786Y-15236737D01*
X13950786Y-15236737D02*
X13960309Y-15255785D01*
X13960309Y-15255785D02*
X13960309Y-15360546D01*
X13960309Y-15255785D02*
X13969833Y-15236737D01*
X13969833Y-15236737D02*
X13988881Y-15227213D01*
X13988881Y-15227213D02*
X14017452Y-15227213D01*
X14017452Y-15227213D02*
X14036500Y-15236737D01*
X14036500Y-15236737D02*
X14046024Y-15255785D01*
X14046024Y-15255785D02*
X14046024Y-15360546D01*
X14436500Y-15151023D02*
X14265071Y-15408165D01*
X14693643Y-15160546D02*
X14712690Y-15160546D01*
X14712690Y-15160546D02*
X14731738Y-15170070D01*
X14731738Y-15170070D02*
X14741262Y-15179594D01*
X14741262Y-15179594D02*
X14750786Y-15198642D01*
X14750786Y-15198642D02*
X14760309Y-15236737D01*
X14760309Y-15236737D02*
X14760309Y-15284356D01*
X14760309Y-15284356D02*
X14750786Y-15322451D01*
X14750786Y-15322451D02*
X14741262Y-15341499D01*
X14741262Y-15341499D02*
X14731738Y-15351023D01*
X14731738Y-15351023D02*
X14712690Y-15360546D01*
X14712690Y-15360546D02*
X14693643Y-15360546D01*
X14693643Y-15360546D02*
X14674595Y-15351023D01*
X14674595Y-15351023D02*
X14665071Y-15341499D01*
X14665071Y-15341499D02*
X14655548Y-15322451D01*
X14655548Y-15322451D02*
X14646024Y-15284356D01*
X14646024Y-15284356D02*
X14646024Y-15236737D01*
X14646024Y-15236737D02*
X14655548Y-15198642D01*
X14655548Y-15198642D02*
X14665071Y-15179594D01*
X14665071Y-15179594D02*
X14674595Y-15170070D01*
X14674595Y-15170070D02*
X14693643Y-15160546D01*
X14846024Y-15341499D02*
X14855548Y-15351023D01*
X14855548Y-15351023D02*
X14846024Y-15360546D01*
X14846024Y-15360546D02*
X14836500Y-15351023D01*
X14836500Y-15351023D02*
X14846024Y-15341499D01*
X14846024Y-15341499D02*
X14846024Y-15360546D01*
X14979357Y-15160546D02*
X14998405Y-15160546D01*
X14998405Y-15160546D02*
X15017452Y-15170070D01*
X15017452Y-15170070D02*
X15026976Y-15179594D01*
X15026976Y-15179594D02*
X15036500Y-15198642D01*
X15036500Y-15198642D02*
X15046024Y-15236737D01*
X15046024Y-15236737D02*
X15046024Y-15284356D01*
X15046024Y-15284356D02*
X15036500Y-15322451D01*
X15036500Y-15322451D02*
X15026976Y-15341499D01*
X15026976Y-15341499D02*
X15017452Y-15351023D01*
X15017452Y-15351023D02*
X14998405Y-15360546D01*
X14998405Y-15360546D02*
X14979357Y-15360546D01*
X14979357Y-15360546D02*
X14960309Y-15351023D01*
X14960309Y-15351023D02*
X14950786Y-15341499D01*
X14950786Y-15341499D02*
X14941262Y-15322451D01*
X14941262Y-15322451D02*
X14931738Y-15284356D01*
X14931738Y-15284356D02*
X14931738Y-15236737D01*
X14931738Y-15236737D02*
X14941262Y-15198642D01*
X14941262Y-15198642D02*
X14950786Y-15179594D01*
X14950786Y-15179594D02*
X14960309Y-15170070D01*
X14960309Y-15170070D02*
X14979357Y-15160546D01*
X15169833Y-15160546D02*
X15188881Y-15160546D01*
X15188881Y-15160546D02*
X15207929Y-15170070D01*
X15207929Y-15170070D02*
X15217452Y-15179594D01*
X15217452Y-15179594D02*
X15226976Y-15198642D01*
X15226976Y-15198642D02*
X15236500Y-15236737D01*
X15236500Y-15236737D02*
X15236500Y-15284356D01*
X15236500Y-15284356D02*
X15226976Y-15322451D01*
X15226976Y-15322451D02*
X15217452Y-15341499D01*
X15217452Y-15341499D02*
X15207929Y-15351023D01*
X15207929Y-15351023D02*
X15188881Y-15360546D01*
X15188881Y-15360546D02*
X15169833Y-15360546D01*
X15169833Y-15360546D02*
X15150786Y-15351023D01*
X15150786Y-15351023D02*
X15141262Y-15341499D01*
X15141262Y-15341499D02*
X15131738Y-15322451D01*
X15131738Y-15322451D02*
X15122214Y-15284356D01*
X15122214Y-15284356D02*
X15122214Y-15236737D01*
X15122214Y-15236737D02*
X15131738Y-15198642D01*
X15131738Y-15198642D02*
X15141262Y-15179594D01*
X15141262Y-15179594D02*
X15150786Y-15170070D01*
X15150786Y-15170070D02*
X15169833Y-15160546D01*
X15350786Y-15246261D02*
X15331738Y-15236737D01*
X15331738Y-15236737D02*
X15322214Y-15227213D01*
X15322214Y-15227213D02*
X15312690Y-15208165D01*
X15312690Y-15208165D02*
X15312690Y-15198642D01*
X15312690Y-15198642D02*
X15322214Y-15179594D01*
X15322214Y-15179594D02*
X15331738Y-15170070D01*
X15331738Y-15170070D02*
X15350786Y-15160546D01*
X15350786Y-15160546D02*
X15388881Y-15160546D01*
X15388881Y-15160546D02*
X15407929Y-15170070D01*
X15407929Y-15170070D02*
X15417452Y-15179594D01*
X15417452Y-15179594D02*
X15426976Y-15198642D01*
X15426976Y-15198642D02*
X15426976Y-15208165D01*
X15426976Y-15208165D02*
X15417452Y-15227213D01*
X15417452Y-15227213D02*
X15407929Y-15236737D01*
X15407929Y-15236737D02*
X15388881Y-15246261D01*
X15388881Y-15246261D02*
X15350786Y-15246261D01*
X15350786Y-15246261D02*
X15331738Y-15255785D01*
X15331738Y-15255785D02*
X15322214Y-15265308D01*
X15322214Y-15265308D02*
X15312690Y-15284356D01*
X15312690Y-15284356D02*
X15312690Y-15322451D01*
X15312690Y-15322451D02*
X15322214Y-15341499D01*
X15322214Y-15341499D02*
X15331738Y-15351023D01*
X15331738Y-15351023D02*
X15350786Y-15360546D01*
X15350786Y-15360546D02*
X15388881Y-15360546D01*
X15388881Y-15360546D02*
X15407929Y-15351023D01*
X15407929Y-15351023D02*
X15417452Y-15341499D01*
X15417452Y-15341499D02*
X15426976Y-15322451D01*
X15426976Y-15322451D02*
X15426976Y-15284356D01*
X15426976Y-15284356D02*
X15417452Y-15265308D01*
X15417452Y-15265308D02*
X15407929Y-15255785D01*
X15407929Y-15255785D02*
X15388881Y-15246261D01*
X15550786Y-15160546D02*
X15569833Y-15160546D01*
X15569833Y-15160546D02*
X15588881Y-15170070D01*
X15588881Y-15170070D02*
X15598405Y-15179594D01*
X15598405Y-15179594D02*
X15607929Y-15198642D01*
X15607929Y-15198642D02*
X15617452Y-15236737D01*
X15617452Y-15236737D02*
X15617452Y-15284356D01*
X15617452Y-15284356D02*
X15607929Y-15322451D01*
X15607929Y-15322451D02*
X15598405Y-15341499D01*
X15598405Y-15341499D02*
X15588881Y-15351023D01*
X15588881Y-15351023D02*
X15569833Y-15360546D01*
X15569833Y-15360546D02*
X15550786Y-15360546D01*
X15550786Y-15360546D02*
X15531738Y-15351023D01*
X15531738Y-15351023D02*
X15522214Y-15341499D01*
X15522214Y-15341499D02*
X15512690Y-15322451D01*
X15512690Y-15322451D02*
X15503167Y-15284356D01*
X15503167Y-15284356D02*
X15503167Y-15236737D01*
X15503167Y-15236737D02*
X15512690Y-15198642D01*
X15512690Y-15198642D02*
X15522214Y-15179594D01*
X15522214Y-15179594D02*
X15531738Y-15170070D01*
X15531738Y-15170070D02*
X15550786Y-15160546D01*
X15693643Y-15160546D02*
X15693643Y-15198642D01*
X15769833Y-15160546D02*
X15769833Y-15198642D01*
X16065072Y-15436737D02*
X16055548Y-15427213D01*
X16055548Y-15427213D02*
X16036500Y-15398642D01*
X16036500Y-15398642D02*
X16026976Y-15379594D01*
X16026976Y-15379594D02*
X16017452Y-15351023D01*
X16017452Y-15351023D02*
X16007929Y-15303404D01*
X16007929Y-15303404D02*
X16007929Y-15265308D01*
X16007929Y-15265308D02*
X16017452Y-15217689D01*
X16017452Y-15217689D02*
X16026976Y-15189118D01*
X16026976Y-15189118D02*
X16036500Y-15170070D01*
X16036500Y-15170070D02*
X16055548Y-15141499D01*
X16055548Y-15141499D02*
X16065072Y-15131975D01*
X16131738Y-15179594D02*
X16141262Y-15170070D01*
X16141262Y-15170070D02*
X16160310Y-15160546D01*
X16160310Y-15160546D02*
X16207929Y-15160546D01*
X16207929Y-15160546D02*
X16226976Y-15170070D01*
X16226976Y-15170070D02*
X16236500Y-15179594D01*
X16236500Y-15179594D02*
X16246024Y-15198642D01*
X16246024Y-15198642D02*
X16246024Y-15217689D01*
X16246024Y-15217689D02*
X16236500Y-15246261D01*
X16236500Y-15246261D02*
X16122214Y-15360546D01*
X16122214Y-15360546D02*
X16246024Y-15360546D01*
X16484119Y-15360546D02*
X16484119Y-15160546D01*
X16569833Y-15360546D02*
X16569833Y-15255785D01*
X16569833Y-15255785D02*
X16560310Y-15236737D01*
X16560310Y-15236737D02*
X16541262Y-15227213D01*
X16541262Y-15227213D02*
X16512691Y-15227213D01*
X16512691Y-15227213D02*
X16493643Y-15236737D01*
X16493643Y-15236737D02*
X16484119Y-15246261D01*
X16693643Y-15360546D02*
X16674595Y-15351023D01*
X16674595Y-15351023D02*
X16665072Y-15341499D01*
X16665072Y-15341499D02*
X16655548Y-15322451D01*
X16655548Y-15322451D02*
X16655548Y-15265308D01*
X16655548Y-15265308D02*
X16665072Y-15246261D01*
X16665072Y-15246261D02*
X16674595Y-15236737D01*
X16674595Y-15236737D02*
X16693643Y-15227213D01*
X16693643Y-15227213D02*
X16722214Y-15227213D01*
X16722214Y-15227213D02*
X16741262Y-15236737D01*
X16741262Y-15236737D02*
X16750786Y-15246261D01*
X16750786Y-15246261D02*
X16760310Y-15265308D01*
X16760310Y-15265308D02*
X16760310Y-15322451D01*
X16760310Y-15322451D02*
X16750786Y-15341499D01*
X16750786Y-15341499D02*
X16741262Y-15351023D01*
X16741262Y-15351023D02*
X16722214Y-15360546D01*
X16722214Y-15360546D02*
X16693643Y-15360546D01*
X16874595Y-15360546D02*
X16855548Y-15351023D01*
X16855548Y-15351023D02*
X16846024Y-15331975D01*
X16846024Y-15331975D02*
X16846024Y-15160546D01*
X17026976Y-15351023D02*
X17007929Y-15360546D01*
X17007929Y-15360546D02*
X16969834Y-15360546D01*
X16969834Y-15360546D02*
X16950786Y-15351023D01*
X16950786Y-15351023D02*
X16941262Y-15331975D01*
X16941262Y-15331975D02*
X16941262Y-15255785D01*
X16941262Y-15255785D02*
X16950786Y-15236737D01*
X16950786Y-15236737D02*
X16969834Y-15227213D01*
X16969834Y-15227213D02*
X17007929Y-15227213D01*
X17007929Y-15227213D02*
X17026976Y-15236737D01*
X17026976Y-15236737D02*
X17036500Y-15255785D01*
X17036500Y-15255785D02*
X17036500Y-15274832D01*
X17036500Y-15274832D02*
X16941262Y-15293880D01*
X17112691Y-15351023D02*
X17131738Y-15360546D01*
X17131738Y-15360546D02*
X17169834Y-15360546D01*
X17169834Y-15360546D02*
X17188881Y-15351023D01*
X17188881Y-15351023D02*
X17198405Y-15331975D01*
X17198405Y-15331975D02*
X17198405Y-15322451D01*
X17198405Y-15322451D02*
X17188881Y-15303404D01*
X17188881Y-15303404D02*
X17169834Y-15293880D01*
X17169834Y-15293880D02*
X17141262Y-15293880D01*
X17141262Y-15293880D02*
X17122215Y-15284356D01*
X17122215Y-15284356D02*
X17112691Y-15265308D01*
X17112691Y-15265308D02*
X17112691Y-15255785D01*
X17112691Y-15255785D02*
X17122215Y-15236737D01*
X17122215Y-15236737D02*
X17141262Y-15227213D01*
X17141262Y-15227213D02*
X17169834Y-15227213D01*
X17169834Y-15227213D02*
X17188881Y-15236737D01*
X17265072Y-15436737D02*
X17274596Y-15427213D01*
X17274596Y-15427213D02*
X17293643Y-15398642D01*
X17293643Y-15398642D02*
X17303167Y-15379594D01*
X17303167Y-15379594D02*
X17312691Y-15351023D01*
X17312691Y-15351023D02*
X17322215Y-15303404D01*
X17322215Y-15303404D02*
X17322215Y-15265308D01*
X17322215Y-15265308D02*
X17312691Y-15217689D01*
X17312691Y-15217689D02*
X17303167Y-15189118D01*
X17303167Y-15189118D02*
X17293643Y-15170070D01*
X17293643Y-15170070D02*
X17274596Y-15141499D01*
X17274596Y-15141499D02*
X17265072Y-15131975D01*
D13*
X12477509Y-15520563D02*
X12477509Y-15545563D01*
X12465009Y-15533063D02*
X12490009Y-15533063D01*
D12*
X12788881Y-15424546D02*
X12807928Y-15424546D01*
X12807928Y-15424546D02*
X12826976Y-15434070D01*
X12826976Y-15434070D02*
X12836500Y-15443594D01*
X12836500Y-15443594D02*
X12846024Y-15462642D01*
X12846024Y-15462642D02*
X12855547Y-15500737D01*
X12855547Y-15500737D02*
X12855547Y-15548356D01*
X12855547Y-15548356D02*
X12846024Y-15586451D01*
X12846024Y-15586451D02*
X12836500Y-15605499D01*
X12836500Y-15605499D02*
X12826976Y-15615023D01*
X12826976Y-15615023D02*
X12807928Y-15624546D01*
X12807928Y-15624546D02*
X12788881Y-15624546D01*
X12788881Y-15624546D02*
X12769833Y-15615023D01*
X12769833Y-15615023D02*
X12760309Y-15605499D01*
X12760309Y-15605499D02*
X12750785Y-15586451D01*
X12750785Y-15586451D02*
X12741262Y-15548356D01*
X12741262Y-15548356D02*
X12741262Y-15500737D01*
X12741262Y-15500737D02*
X12750785Y-15462642D01*
X12750785Y-15462642D02*
X12760309Y-15443594D01*
X12760309Y-15443594D02*
X12769833Y-15434070D01*
X12769833Y-15434070D02*
X12788881Y-15424546D01*
X12941262Y-15605499D02*
X12950785Y-15615023D01*
X12950785Y-15615023D02*
X12941262Y-15624546D01*
X12941262Y-15624546D02*
X12931738Y-15615023D01*
X12931738Y-15615023D02*
X12941262Y-15605499D01*
X12941262Y-15605499D02*
X12941262Y-15624546D01*
X13026976Y-15443594D02*
X13036500Y-15434070D01*
X13036500Y-15434070D02*
X13055547Y-15424546D01*
X13055547Y-15424546D02*
X13103166Y-15424546D01*
X13103166Y-15424546D02*
X13122214Y-15434070D01*
X13122214Y-15434070D02*
X13131738Y-15443594D01*
X13131738Y-15443594D02*
X13141262Y-15462642D01*
X13141262Y-15462642D02*
X13141262Y-15481689D01*
X13141262Y-15481689D02*
X13131738Y-15510261D01*
X13131738Y-15510261D02*
X13017452Y-15624546D01*
X13017452Y-15624546D02*
X13141262Y-15624546D01*
X13322214Y-15424546D02*
X13226976Y-15424546D01*
X13226976Y-15424546D02*
X13217452Y-15519785D01*
X13217452Y-15519785D02*
X13226976Y-15510261D01*
X13226976Y-15510261D02*
X13246024Y-15500737D01*
X13246024Y-15500737D02*
X13293643Y-15500737D01*
X13293643Y-15500737D02*
X13312690Y-15510261D01*
X13312690Y-15510261D02*
X13322214Y-15519785D01*
X13322214Y-15519785D02*
X13331738Y-15538832D01*
X13331738Y-15538832D02*
X13331738Y-15586451D01*
X13331738Y-15586451D02*
X13322214Y-15605499D01*
X13322214Y-15605499D02*
X13312690Y-15615023D01*
X13312690Y-15615023D02*
X13293643Y-15624546D01*
X13293643Y-15624546D02*
X13246024Y-15624546D01*
X13246024Y-15624546D02*
X13226976Y-15615023D01*
X13226976Y-15615023D02*
X13217452Y-15605499D01*
X13455547Y-15424546D02*
X13474595Y-15424546D01*
X13474595Y-15424546D02*
X13493643Y-15434070D01*
X13493643Y-15434070D02*
X13503166Y-15443594D01*
X13503166Y-15443594D02*
X13512690Y-15462642D01*
X13512690Y-15462642D02*
X13522214Y-15500737D01*
X13522214Y-15500737D02*
X13522214Y-15548356D01*
X13522214Y-15548356D02*
X13512690Y-15586451D01*
X13512690Y-15586451D02*
X13503166Y-15605499D01*
X13503166Y-15605499D02*
X13493643Y-15615023D01*
X13493643Y-15615023D02*
X13474595Y-15624546D01*
X13474595Y-15624546D02*
X13455547Y-15624546D01*
X13455547Y-15624546D02*
X13436500Y-15615023D01*
X13436500Y-15615023D02*
X13426976Y-15605499D01*
X13426976Y-15605499D02*
X13417452Y-15586451D01*
X13417452Y-15586451D02*
X13407928Y-15548356D01*
X13407928Y-15548356D02*
X13407928Y-15500737D01*
X13407928Y-15500737D02*
X13417452Y-15462642D01*
X13417452Y-15462642D02*
X13426976Y-15443594D01*
X13426976Y-15443594D02*
X13436500Y-15434070D01*
X13436500Y-15434070D02*
X13455547Y-15424546D01*
X13607928Y-15624546D02*
X13607928Y-15491213D01*
X13607928Y-15510261D02*
X13617452Y-15500737D01*
X13617452Y-15500737D02*
X13636500Y-15491213D01*
X13636500Y-15491213D02*
X13665071Y-15491213D01*
X13665071Y-15491213D02*
X13684119Y-15500737D01*
X13684119Y-15500737D02*
X13693643Y-15519785D01*
X13693643Y-15519785D02*
X13693643Y-15624546D01*
X13693643Y-15519785D02*
X13703166Y-15500737D01*
X13703166Y-15500737D02*
X13722214Y-15491213D01*
X13722214Y-15491213D02*
X13750785Y-15491213D01*
X13750785Y-15491213D02*
X13769833Y-15500737D01*
X13769833Y-15500737D02*
X13779357Y-15519785D01*
X13779357Y-15519785D02*
X13779357Y-15624546D01*
X13874595Y-15624546D02*
X13874595Y-15491213D01*
X13874595Y-15510261D02*
X13884119Y-15500737D01*
X13884119Y-15500737D02*
X13903166Y-15491213D01*
X13903166Y-15491213D02*
X13931738Y-15491213D01*
X13931738Y-15491213D02*
X13950786Y-15500737D01*
X13950786Y-15500737D02*
X13960309Y-15519785D01*
X13960309Y-15519785D02*
X13960309Y-15624546D01*
X13960309Y-15519785D02*
X13969833Y-15500737D01*
X13969833Y-15500737D02*
X13988881Y-15491213D01*
X13988881Y-15491213D02*
X14017452Y-15491213D01*
X14017452Y-15491213D02*
X14036500Y-15500737D01*
X14036500Y-15500737D02*
X14046024Y-15519785D01*
X14046024Y-15519785D02*
X14046024Y-15624546D01*
X14436500Y-15415023D02*
X14265071Y-15672165D01*
X14693643Y-15424546D02*
X14712690Y-15424546D01*
X14712690Y-15424546D02*
X14731738Y-15434070D01*
X14731738Y-15434070D02*
X14741262Y-15443594D01*
X14741262Y-15443594D02*
X14750786Y-15462642D01*
X14750786Y-15462642D02*
X14760309Y-15500737D01*
X14760309Y-15500737D02*
X14760309Y-15548356D01*
X14760309Y-15548356D02*
X14750786Y-15586451D01*
X14750786Y-15586451D02*
X14741262Y-15605499D01*
X14741262Y-15605499D02*
X14731738Y-15615023D01*
X14731738Y-15615023D02*
X14712690Y-15624546D01*
X14712690Y-15624546D02*
X14693643Y-15624546D01*
X14693643Y-15624546D02*
X14674595Y-15615023D01*
X14674595Y-15615023D02*
X14665071Y-15605499D01*
X14665071Y-15605499D02*
X14655548Y-15586451D01*
X14655548Y-15586451D02*
X14646024Y-15548356D01*
X14646024Y-15548356D02*
X14646024Y-15500737D01*
X14646024Y-15500737D02*
X14655548Y-15462642D01*
X14655548Y-15462642D02*
X14665071Y-15443594D01*
X14665071Y-15443594D02*
X14674595Y-15434070D01*
X14674595Y-15434070D02*
X14693643Y-15424546D01*
X14846024Y-15605499D02*
X14855548Y-15615023D01*
X14855548Y-15615023D02*
X14846024Y-15624546D01*
X14846024Y-15624546D02*
X14836500Y-15615023D01*
X14836500Y-15615023D02*
X14846024Y-15605499D01*
X14846024Y-15605499D02*
X14846024Y-15624546D01*
X14979357Y-15424546D02*
X14998405Y-15424546D01*
X14998405Y-15424546D02*
X15017452Y-15434070D01*
X15017452Y-15434070D02*
X15026976Y-15443594D01*
X15026976Y-15443594D02*
X15036500Y-15462642D01*
X15036500Y-15462642D02*
X15046024Y-15500737D01*
X15046024Y-15500737D02*
X15046024Y-15548356D01*
X15046024Y-15548356D02*
X15036500Y-15586451D01*
X15036500Y-15586451D02*
X15026976Y-15605499D01*
X15026976Y-15605499D02*
X15017452Y-15615023D01*
X15017452Y-15615023D02*
X14998405Y-15624546D01*
X14998405Y-15624546D02*
X14979357Y-15624546D01*
X14979357Y-15624546D02*
X14960309Y-15615023D01*
X14960309Y-15615023D02*
X14950786Y-15605499D01*
X14950786Y-15605499D02*
X14941262Y-15586451D01*
X14941262Y-15586451D02*
X14931738Y-15548356D01*
X14931738Y-15548356D02*
X14931738Y-15500737D01*
X14931738Y-15500737D02*
X14941262Y-15462642D01*
X14941262Y-15462642D02*
X14950786Y-15443594D01*
X14950786Y-15443594D02*
X14960309Y-15434070D01*
X14960309Y-15434070D02*
X14979357Y-15424546D01*
X15169833Y-15424546D02*
X15188881Y-15424546D01*
X15188881Y-15424546D02*
X15207929Y-15434070D01*
X15207929Y-15434070D02*
X15217452Y-15443594D01*
X15217452Y-15443594D02*
X15226976Y-15462642D01*
X15226976Y-15462642D02*
X15236500Y-15500737D01*
X15236500Y-15500737D02*
X15236500Y-15548356D01*
X15236500Y-15548356D02*
X15226976Y-15586451D01*
X15226976Y-15586451D02*
X15217452Y-15605499D01*
X15217452Y-15605499D02*
X15207929Y-15615023D01*
X15207929Y-15615023D02*
X15188881Y-15624546D01*
X15188881Y-15624546D02*
X15169833Y-15624546D01*
X15169833Y-15624546D02*
X15150786Y-15615023D01*
X15150786Y-15615023D02*
X15141262Y-15605499D01*
X15141262Y-15605499D02*
X15131738Y-15586451D01*
X15131738Y-15586451D02*
X15122214Y-15548356D01*
X15122214Y-15548356D02*
X15122214Y-15500737D01*
X15122214Y-15500737D02*
X15131738Y-15462642D01*
X15131738Y-15462642D02*
X15141262Y-15443594D01*
X15141262Y-15443594D02*
X15150786Y-15434070D01*
X15150786Y-15434070D02*
X15169833Y-15424546D01*
X15331738Y-15624546D02*
X15369833Y-15624546D01*
X15369833Y-15624546D02*
X15388881Y-15615023D01*
X15388881Y-15615023D02*
X15398405Y-15605499D01*
X15398405Y-15605499D02*
X15417452Y-15576927D01*
X15417452Y-15576927D02*
X15426976Y-15538832D01*
X15426976Y-15538832D02*
X15426976Y-15462642D01*
X15426976Y-15462642D02*
X15417452Y-15443594D01*
X15417452Y-15443594D02*
X15407929Y-15434070D01*
X15407929Y-15434070D02*
X15388881Y-15424546D01*
X15388881Y-15424546D02*
X15350786Y-15424546D01*
X15350786Y-15424546D02*
X15331738Y-15434070D01*
X15331738Y-15434070D02*
X15322214Y-15443594D01*
X15322214Y-15443594D02*
X15312690Y-15462642D01*
X15312690Y-15462642D02*
X15312690Y-15510261D01*
X15312690Y-15510261D02*
X15322214Y-15529308D01*
X15322214Y-15529308D02*
X15331738Y-15538832D01*
X15331738Y-15538832D02*
X15350786Y-15548356D01*
X15350786Y-15548356D02*
X15388881Y-15548356D01*
X15388881Y-15548356D02*
X15407929Y-15538832D01*
X15407929Y-15538832D02*
X15417452Y-15529308D01*
X15417452Y-15529308D02*
X15426976Y-15510261D01*
X15541262Y-15510261D02*
X15522214Y-15500737D01*
X15522214Y-15500737D02*
X15512690Y-15491213D01*
X15512690Y-15491213D02*
X15503167Y-15472165D01*
X15503167Y-15472165D02*
X15503167Y-15462642D01*
X15503167Y-15462642D02*
X15512690Y-15443594D01*
X15512690Y-15443594D02*
X15522214Y-15434070D01*
X15522214Y-15434070D02*
X15541262Y-15424546D01*
X15541262Y-15424546D02*
X15579357Y-15424546D01*
X15579357Y-15424546D02*
X15598405Y-15434070D01*
X15598405Y-15434070D02*
X15607929Y-15443594D01*
X15607929Y-15443594D02*
X15617452Y-15462642D01*
X15617452Y-15462642D02*
X15617452Y-15472165D01*
X15617452Y-15472165D02*
X15607929Y-15491213D01*
X15607929Y-15491213D02*
X15598405Y-15500737D01*
X15598405Y-15500737D02*
X15579357Y-15510261D01*
X15579357Y-15510261D02*
X15541262Y-15510261D01*
X15541262Y-15510261D02*
X15522214Y-15519785D01*
X15522214Y-15519785D02*
X15512690Y-15529308D01*
X15512690Y-15529308D02*
X15503167Y-15548356D01*
X15503167Y-15548356D02*
X15503167Y-15586451D01*
X15503167Y-15586451D02*
X15512690Y-15605499D01*
X15512690Y-15605499D02*
X15522214Y-15615023D01*
X15522214Y-15615023D02*
X15541262Y-15624546D01*
X15541262Y-15624546D02*
X15579357Y-15624546D01*
X15579357Y-15624546D02*
X15598405Y-15615023D01*
X15598405Y-15615023D02*
X15607929Y-15605499D01*
X15607929Y-15605499D02*
X15617452Y-15586451D01*
X15617452Y-15586451D02*
X15617452Y-15548356D01*
X15617452Y-15548356D02*
X15607929Y-15529308D01*
X15607929Y-15529308D02*
X15598405Y-15519785D01*
X15598405Y-15519785D02*
X15579357Y-15510261D01*
X15693643Y-15424546D02*
X15693643Y-15462642D01*
X15769833Y-15424546D02*
X15769833Y-15462642D01*
X16065072Y-15700737D02*
X16055548Y-15691213D01*
X16055548Y-15691213D02*
X16036500Y-15662642D01*
X16036500Y-15662642D02*
X16026976Y-15643594D01*
X16026976Y-15643594D02*
X16017452Y-15615023D01*
X16017452Y-15615023D02*
X16007929Y-15567404D01*
X16007929Y-15567404D02*
X16007929Y-15529308D01*
X16007929Y-15529308D02*
X16017452Y-15481689D01*
X16017452Y-15481689D02*
X16026976Y-15453118D01*
X16026976Y-15453118D02*
X16036500Y-15434070D01*
X16036500Y-15434070D02*
X16055548Y-15405499D01*
X16055548Y-15405499D02*
X16065072Y-15395975D01*
X16246024Y-15624546D02*
X16131738Y-15624546D01*
X16188881Y-15624546D02*
X16188881Y-15424546D01*
X16188881Y-15424546D02*
X16169833Y-15453118D01*
X16169833Y-15453118D02*
X16150786Y-15472165D01*
X16150786Y-15472165D02*
X16131738Y-15481689D01*
X16436500Y-15624546D02*
X16322214Y-15624546D01*
X16379357Y-15624546D02*
X16379357Y-15424546D01*
X16379357Y-15424546D02*
X16360310Y-15453118D01*
X16360310Y-15453118D02*
X16341262Y-15472165D01*
X16341262Y-15472165D02*
X16322214Y-15481689D01*
X16617452Y-15424546D02*
X16522214Y-15424546D01*
X16522214Y-15424546D02*
X16512691Y-15519785D01*
X16512691Y-15519785D02*
X16522214Y-15510261D01*
X16522214Y-15510261D02*
X16541262Y-15500737D01*
X16541262Y-15500737D02*
X16588881Y-15500737D01*
X16588881Y-15500737D02*
X16607929Y-15510261D01*
X16607929Y-15510261D02*
X16617452Y-15519785D01*
X16617452Y-15519785D02*
X16626976Y-15538832D01*
X16626976Y-15538832D02*
X16626976Y-15586451D01*
X16626976Y-15586451D02*
X16617452Y-15605499D01*
X16617452Y-15605499D02*
X16607929Y-15615023D01*
X16607929Y-15615023D02*
X16588881Y-15624546D01*
X16588881Y-15624546D02*
X16541262Y-15624546D01*
X16541262Y-15624546D02*
X16522214Y-15615023D01*
X16522214Y-15615023D02*
X16512691Y-15605499D01*
X16865072Y-15624546D02*
X16865072Y-15424546D01*
X16950786Y-15624546D02*
X16950786Y-15519785D01*
X16950786Y-15519785D02*
X16941262Y-15500737D01*
X16941262Y-15500737D02*
X16922215Y-15491213D01*
X16922215Y-15491213D02*
X16893643Y-15491213D01*
X16893643Y-15491213D02*
X16874595Y-15500737D01*
X16874595Y-15500737D02*
X16865072Y-15510261D01*
X17074595Y-15624546D02*
X17055548Y-15615023D01*
X17055548Y-15615023D02*
X17046024Y-15605499D01*
X17046024Y-15605499D02*
X17036500Y-15586451D01*
X17036500Y-15586451D02*
X17036500Y-15529308D01*
X17036500Y-15529308D02*
X17046024Y-15510261D01*
X17046024Y-15510261D02*
X17055548Y-15500737D01*
X17055548Y-15500737D02*
X17074595Y-15491213D01*
X17074595Y-15491213D02*
X17103167Y-15491213D01*
X17103167Y-15491213D02*
X17122215Y-15500737D01*
X17122215Y-15500737D02*
X17131738Y-15510261D01*
X17131738Y-15510261D02*
X17141262Y-15529308D01*
X17141262Y-15529308D02*
X17141262Y-15586451D01*
X17141262Y-15586451D02*
X17131738Y-15605499D01*
X17131738Y-15605499D02*
X17122215Y-15615023D01*
X17122215Y-15615023D02*
X17103167Y-15624546D01*
X17103167Y-15624546D02*
X17074595Y-15624546D01*
X17255548Y-15624546D02*
X17236500Y-15615023D01*
X17236500Y-15615023D02*
X17226976Y-15595975D01*
X17226976Y-15595975D02*
X17226976Y-15424546D01*
X17407929Y-15615023D02*
X17388881Y-15624546D01*
X17388881Y-15624546D02*
X17350786Y-15624546D01*
X17350786Y-15624546D02*
X17331738Y-15615023D01*
X17331738Y-15615023D02*
X17322215Y-15595975D01*
X17322215Y-15595975D02*
X17322215Y-15519785D01*
X17322215Y-15519785D02*
X17331738Y-15500737D01*
X17331738Y-15500737D02*
X17350786Y-15491213D01*
X17350786Y-15491213D02*
X17388881Y-15491213D01*
X17388881Y-15491213D02*
X17407929Y-15500737D01*
X17407929Y-15500737D02*
X17417453Y-15519785D01*
X17417453Y-15519785D02*
X17417453Y-15538832D01*
X17417453Y-15538832D02*
X17322215Y-15557880D01*
X17493643Y-15615023D02*
X17512691Y-15624546D01*
X17512691Y-15624546D02*
X17550786Y-15624546D01*
X17550786Y-15624546D02*
X17569834Y-15615023D01*
X17569834Y-15615023D02*
X17579357Y-15595975D01*
X17579357Y-15595975D02*
X17579357Y-15586451D01*
X17579357Y-15586451D02*
X17569834Y-15567404D01*
X17569834Y-15567404D02*
X17550786Y-15557880D01*
X17550786Y-15557880D02*
X17522215Y-15557880D01*
X17522215Y-15557880D02*
X17503167Y-15548356D01*
X17503167Y-15548356D02*
X17493643Y-15529308D01*
X17493643Y-15529308D02*
X17493643Y-15519785D01*
X17493643Y-15519785D02*
X17503167Y-15500737D01*
X17503167Y-15500737D02*
X17522215Y-15491213D01*
X17522215Y-15491213D02*
X17550786Y-15491213D01*
X17550786Y-15491213D02*
X17569834Y-15500737D01*
X17646024Y-15700737D02*
X17655548Y-15691213D01*
X17655548Y-15691213D02*
X17674596Y-15662642D01*
X17674596Y-15662642D02*
X17684119Y-15643594D01*
X17684119Y-15643594D02*
X17693643Y-15615023D01*
X17693643Y-15615023D02*
X17703167Y-15567404D01*
X17703167Y-15567404D02*
X17703167Y-15529308D01*
X17703167Y-15529308D02*
X17693643Y-15481689D01*
X17693643Y-15481689D02*
X17684119Y-15453118D01*
X17684119Y-15453118D02*
X17674596Y-15434070D01*
X17674596Y-15434070D02*
X17655548Y-15405499D01*
X17655548Y-15405499D02*
X17646024Y-15395975D01*
D13*
X12485615Y-15807669D02*
X12485615Y-15786456D01*
X12464402Y-15786456D01*
X12464402Y-15807669D01*
X12485615Y-15807669D01*
D12*
X12788881Y-15688546D02*
X12807928Y-15688546D01*
X12807928Y-15688546D02*
X12826976Y-15698070D01*
X12826976Y-15698070D02*
X12836500Y-15707594D01*
X12836500Y-15707594D02*
X12846024Y-15726642D01*
X12846024Y-15726642D02*
X12855547Y-15764737D01*
X12855547Y-15764737D02*
X12855547Y-15812356D01*
X12855547Y-15812356D02*
X12846024Y-15850451D01*
X12846024Y-15850451D02*
X12836500Y-15869499D01*
X12836500Y-15869499D02*
X12826976Y-15879023D01*
X12826976Y-15879023D02*
X12807928Y-15888546D01*
X12807928Y-15888546D02*
X12788881Y-15888546D01*
X12788881Y-15888546D02*
X12769833Y-15879023D01*
X12769833Y-15879023D02*
X12760309Y-15869499D01*
X12760309Y-15869499D02*
X12750785Y-15850451D01*
X12750785Y-15850451D02*
X12741262Y-15812356D01*
X12741262Y-15812356D02*
X12741262Y-15764737D01*
X12741262Y-15764737D02*
X12750785Y-15726642D01*
X12750785Y-15726642D02*
X12760309Y-15707594D01*
X12760309Y-15707594D02*
X12769833Y-15698070D01*
X12769833Y-15698070D02*
X12788881Y-15688546D01*
X12941262Y-15869499D02*
X12950785Y-15879023D01*
X12950785Y-15879023D02*
X12941262Y-15888546D01*
X12941262Y-15888546D02*
X12931738Y-15879023D01*
X12931738Y-15879023D02*
X12941262Y-15869499D01*
X12941262Y-15869499D02*
X12941262Y-15888546D01*
X13017452Y-15688546D02*
X13141262Y-15688546D01*
X13141262Y-15688546D02*
X13074595Y-15764737D01*
X13074595Y-15764737D02*
X13103166Y-15764737D01*
X13103166Y-15764737D02*
X13122214Y-15774261D01*
X13122214Y-15774261D02*
X13131738Y-15783785D01*
X13131738Y-15783785D02*
X13141262Y-15802832D01*
X13141262Y-15802832D02*
X13141262Y-15850451D01*
X13141262Y-15850451D02*
X13131738Y-15869499D01*
X13131738Y-15869499D02*
X13122214Y-15879023D01*
X13122214Y-15879023D02*
X13103166Y-15888546D01*
X13103166Y-15888546D02*
X13046024Y-15888546D01*
X13046024Y-15888546D02*
X13026976Y-15879023D01*
X13026976Y-15879023D02*
X13017452Y-15869499D01*
X13265071Y-15688546D02*
X13284119Y-15688546D01*
X13284119Y-15688546D02*
X13303166Y-15698070D01*
X13303166Y-15698070D02*
X13312690Y-15707594D01*
X13312690Y-15707594D02*
X13322214Y-15726642D01*
X13322214Y-15726642D02*
X13331738Y-15764737D01*
X13331738Y-15764737D02*
X13331738Y-15812356D01*
X13331738Y-15812356D02*
X13322214Y-15850451D01*
X13322214Y-15850451D02*
X13312690Y-15869499D01*
X13312690Y-15869499D02*
X13303166Y-15879023D01*
X13303166Y-15879023D02*
X13284119Y-15888546D01*
X13284119Y-15888546D02*
X13265071Y-15888546D01*
X13265071Y-15888546D02*
X13246024Y-15879023D01*
X13246024Y-15879023D02*
X13236500Y-15869499D01*
X13236500Y-15869499D02*
X13226976Y-15850451D01*
X13226976Y-15850451D02*
X13217452Y-15812356D01*
X13217452Y-15812356D02*
X13217452Y-15764737D01*
X13217452Y-15764737D02*
X13226976Y-15726642D01*
X13226976Y-15726642D02*
X13236500Y-15707594D01*
X13236500Y-15707594D02*
X13246024Y-15698070D01*
X13246024Y-15698070D02*
X13265071Y-15688546D01*
X13455547Y-15688546D02*
X13474595Y-15688546D01*
X13474595Y-15688546D02*
X13493643Y-15698070D01*
X13493643Y-15698070D02*
X13503166Y-15707594D01*
X13503166Y-15707594D02*
X13512690Y-15726642D01*
X13512690Y-15726642D02*
X13522214Y-15764737D01*
X13522214Y-15764737D02*
X13522214Y-15812356D01*
X13522214Y-15812356D02*
X13512690Y-15850451D01*
X13512690Y-15850451D02*
X13503166Y-15869499D01*
X13503166Y-15869499D02*
X13493643Y-15879023D01*
X13493643Y-15879023D02*
X13474595Y-15888546D01*
X13474595Y-15888546D02*
X13455547Y-15888546D01*
X13455547Y-15888546D02*
X13436500Y-15879023D01*
X13436500Y-15879023D02*
X13426976Y-15869499D01*
X13426976Y-15869499D02*
X13417452Y-15850451D01*
X13417452Y-15850451D02*
X13407928Y-15812356D01*
X13407928Y-15812356D02*
X13407928Y-15764737D01*
X13407928Y-15764737D02*
X13417452Y-15726642D01*
X13417452Y-15726642D02*
X13426976Y-15707594D01*
X13426976Y-15707594D02*
X13436500Y-15698070D01*
X13436500Y-15698070D02*
X13455547Y-15688546D01*
X13607928Y-15888546D02*
X13607928Y-15755213D01*
X13607928Y-15774261D02*
X13617452Y-15764737D01*
X13617452Y-15764737D02*
X13636500Y-15755213D01*
X13636500Y-15755213D02*
X13665071Y-15755213D01*
X13665071Y-15755213D02*
X13684119Y-15764737D01*
X13684119Y-15764737D02*
X13693643Y-15783785D01*
X13693643Y-15783785D02*
X13693643Y-15888546D01*
X13693643Y-15783785D02*
X13703166Y-15764737D01*
X13703166Y-15764737D02*
X13722214Y-15755213D01*
X13722214Y-15755213D02*
X13750785Y-15755213D01*
X13750785Y-15755213D02*
X13769833Y-15764737D01*
X13769833Y-15764737D02*
X13779357Y-15783785D01*
X13779357Y-15783785D02*
X13779357Y-15888546D01*
X13874595Y-15888546D02*
X13874595Y-15755213D01*
X13874595Y-15774261D02*
X13884119Y-15764737D01*
X13884119Y-15764737D02*
X13903166Y-15755213D01*
X13903166Y-15755213D02*
X13931738Y-15755213D01*
X13931738Y-15755213D02*
X13950786Y-15764737D01*
X13950786Y-15764737D02*
X13960309Y-15783785D01*
X13960309Y-15783785D02*
X13960309Y-15888546D01*
X13960309Y-15783785D02*
X13969833Y-15764737D01*
X13969833Y-15764737D02*
X13988881Y-15755213D01*
X13988881Y-15755213D02*
X14017452Y-15755213D01*
X14017452Y-15755213D02*
X14036500Y-15764737D01*
X14036500Y-15764737D02*
X14046024Y-15783785D01*
X14046024Y-15783785D02*
X14046024Y-15888546D01*
X14436500Y-15679023D02*
X14265071Y-15936165D01*
X14693643Y-15688546D02*
X14712690Y-15688546D01*
X14712690Y-15688546D02*
X14731738Y-15698070D01*
X14731738Y-15698070D02*
X14741262Y-15707594D01*
X14741262Y-15707594D02*
X14750786Y-15726642D01*
X14750786Y-15726642D02*
X14760309Y-15764737D01*
X14760309Y-15764737D02*
X14760309Y-15812356D01*
X14760309Y-15812356D02*
X14750786Y-15850451D01*
X14750786Y-15850451D02*
X14741262Y-15869499D01*
X14741262Y-15869499D02*
X14731738Y-15879023D01*
X14731738Y-15879023D02*
X14712690Y-15888546D01*
X14712690Y-15888546D02*
X14693643Y-15888546D01*
X14693643Y-15888546D02*
X14674595Y-15879023D01*
X14674595Y-15879023D02*
X14665071Y-15869499D01*
X14665071Y-15869499D02*
X14655548Y-15850451D01*
X14655548Y-15850451D02*
X14646024Y-15812356D01*
X14646024Y-15812356D02*
X14646024Y-15764737D01*
X14646024Y-15764737D02*
X14655548Y-15726642D01*
X14655548Y-15726642D02*
X14665071Y-15707594D01*
X14665071Y-15707594D02*
X14674595Y-15698070D01*
X14674595Y-15698070D02*
X14693643Y-15688546D01*
X14846024Y-15869499D02*
X14855548Y-15879023D01*
X14855548Y-15879023D02*
X14846024Y-15888546D01*
X14846024Y-15888546D02*
X14836500Y-15879023D01*
X14836500Y-15879023D02*
X14846024Y-15869499D01*
X14846024Y-15869499D02*
X14846024Y-15888546D01*
X14979357Y-15688546D02*
X14998405Y-15688546D01*
X14998405Y-15688546D02*
X15017452Y-15698070D01*
X15017452Y-15698070D02*
X15026976Y-15707594D01*
X15026976Y-15707594D02*
X15036500Y-15726642D01*
X15036500Y-15726642D02*
X15046024Y-15764737D01*
X15046024Y-15764737D02*
X15046024Y-15812356D01*
X15046024Y-15812356D02*
X15036500Y-15850451D01*
X15036500Y-15850451D02*
X15026976Y-15869499D01*
X15026976Y-15869499D02*
X15017452Y-15879023D01*
X15017452Y-15879023D02*
X14998405Y-15888546D01*
X14998405Y-15888546D02*
X14979357Y-15888546D01*
X14979357Y-15888546D02*
X14960309Y-15879023D01*
X14960309Y-15879023D02*
X14950786Y-15869499D01*
X14950786Y-15869499D02*
X14941262Y-15850451D01*
X14941262Y-15850451D02*
X14931738Y-15812356D01*
X14931738Y-15812356D02*
X14931738Y-15764737D01*
X14931738Y-15764737D02*
X14941262Y-15726642D01*
X14941262Y-15726642D02*
X14950786Y-15707594D01*
X14950786Y-15707594D02*
X14960309Y-15698070D01*
X14960309Y-15698070D02*
X14979357Y-15688546D01*
X15236500Y-15888546D02*
X15122214Y-15888546D01*
X15179357Y-15888546D02*
X15179357Y-15688546D01*
X15179357Y-15688546D02*
X15160309Y-15717118D01*
X15160309Y-15717118D02*
X15141262Y-15736165D01*
X15141262Y-15736165D02*
X15122214Y-15745689D01*
X15426976Y-15888546D02*
X15312690Y-15888546D01*
X15369833Y-15888546D02*
X15369833Y-15688546D01*
X15369833Y-15688546D02*
X15350786Y-15717118D01*
X15350786Y-15717118D02*
X15331738Y-15736165D01*
X15331738Y-15736165D02*
X15312690Y-15745689D01*
X15541262Y-15774261D02*
X15522214Y-15764737D01*
X15522214Y-15764737D02*
X15512690Y-15755213D01*
X15512690Y-15755213D02*
X15503167Y-15736165D01*
X15503167Y-15736165D02*
X15503167Y-15726642D01*
X15503167Y-15726642D02*
X15512690Y-15707594D01*
X15512690Y-15707594D02*
X15522214Y-15698070D01*
X15522214Y-15698070D02*
X15541262Y-15688546D01*
X15541262Y-15688546D02*
X15579357Y-15688546D01*
X15579357Y-15688546D02*
X15598405Y-15698070D01*
X15598405Y-15698070D02*
X15607929Y-15707594D01*
X15607929Y-15707594D02*
X15617452Y-15726642D01*
X15617452Y-15726642D02*
X15617452Y-15736165D01*
X15617452Y-15736165D02*
X15607929Y-15755213D01*
X15607929Y-15755213D02*
X15598405Y-15764737D01*
X15598405Y-15764737D02*
X15579357Y-15774261D01*
X15579357Y-15774261D02*
X15541262Y-15774261D01*
X15541262Y-15774261D02*
X15522214Y-15783785D01*
X15522214Y-15783785D02*
X15512690Y-15793308D01*
X15512690Y-15793308D02*
X15503167Y-15812356D01*
X15503167Y-15812356D02*
X15503167Y-15850451D01*
X15503167Y-15850451D02*
X15512690Y-15869499D01*
X15512690Y-15869499D02*
X15522214Y-15879023D01*
X15522214Y-15879023D02*
X15541262Y-15888546D01*
X15541262Y-15888546D02*
X15579357Y-15888546D01*
X15579357Y-15888546D02*
X15598405Y-15879023D01*
X15598405Y-15879023D02*
X15607929Y-15869499D01*
X15607929Y-15869499D02*
X15617452Y-15850451D01*
X15617452Y-15850451D02*
X15617452Y-15812356D01*
X15617452Y-15812356D02*
X15607929Y-15793308D01*
X15607929Y-15793308D02*
X15598405Y-15783785D01*
X15598405Y-15783785D02*
X15579357Y-15774261D01*
X15693643Y-15688546D02*
X15693643Y-15726642D01*
X15769833Y-15688546D02*
X15769833Y-15726642D01*
X16065072Y-15964737D02*
X16055548Y-15955213D01*
X16055548Y-15955213D02*
X16036500Y-15926642D01*
X16036500Y-15926642D02*
X16026976Y-15907594D01*
X16026976Y-15907594D02*
X16017452Y-15879023D01*
X16017452Y-15879023D02*
X16007929Y-15831404D01*
X16007929Y-15831404D02*
X16007929Y-15793308D01*
X16007929Y-15793308D02*
X16017452Y-15745689D01*
X16017452Y-15745689D02*
X16026976Y-15717118D01*
X16026976Y-15717118D02*
X16036500Y-15698070D01*
X16036500Y-15698070D02*
X16055548Y-15669499D01*
X16055548Y-15669499D02*
X16065072Y-15659975D01*
X16236500Y-15688546D02*
X16141262Y-15688546D01*
X16141262Y-15688546D02*
X16131738Y-15783785D01*
X16131738Y-15783785D02*
X16141262Y-15774261D01*
X16141262Y-15774261D02*
X16160310Y-15764737D01*
X16160310Y-15764737D02*
X16207929Y-15764737D01*
X16207929Y-15764737D02*
X16226976Y-15774261D01*
X16226976Y-15774261D02*
X16236500Y-15783785D01*
X16236500Y-15783785D02*
X16246024Y-15802832D01*
X16246024Y-15802832D02*
X16246024Y-15850451D01*
X16246024Y-15850451D02*
X16236500Y-15869499D01*
X16236500Y-15869499D02*
X16226976Y-15879023D01*
X16226976Y-15879023D02*
X16207929Y-15888546D01*
X16207929Y-15888546D02*
X16160310Y-15888546D01*
X16160310Y-15888546D02*
X16141262Y-15879023D01*
X16141262Y-15879023D02*
X16131738Y-15869499D01*
X16417452Y-15688546D02*
X16379357Y-15688546D01*
X16379357Y-15688546D02*
X16360310Y-15698070D01*
X16360310Y-15698070D02*
X16350786Y-15707594D01*
X16350786Y-15707594D02*
X16331738Y-15736165D01*
X16331738Y-15736165D02*
X16322214Y-15774261D01*
X16322214Y-15774261D02*
X16322214Y-15850451D01*
X16322214Y-15850451D02*
X16331738Y-15869499D01*
X16331738Y-15869499D02*
X16341262Y-15879023D01*
X16341262Y-15879023D02*
X16360310Y-15888546D01*
X16360310Y-15888546D02*
X16398405Y-15888546D01*
X16398405Y-15888546D02*
X16417452Y-15879023D01*
X16417452Y-15879023D02*
X16426976Y-15869499D01*
X16426976Y-15869499D02*
X16436500Y-15850451D01*
X16436500Y-15850451D02*
X16436500Y-15802832D01*
X16436500Y-15802832D02*
X16426976Y-15783785D01*
X16426976Y-15783785D02*
X16417452Y-15774261D01*
X16417452Y-15774261D02*
X16398405Y-15764737D01*
X16398405Y-15764737D02*
X16360310Y-15764737D01*
X16360310Y-15764737D02*
X16341262Y-15774261D01*
X16341262Y-15774261D02*
X16331738Y-15783785D01*
X16331738Y-15783785D02*
X16322214Y-15802832D01*
X16674595Y-15888546D02*
X16674595Y-15688546D01*
X16760310Y-15888546D02*
X16760310Y-15783785D01*
X16760310Y-15783785D02*
X16750786Y-15764737D01*
X16750786Y-15764737D02*
X16731738Y-15755213D01*
X16731738Y-15755213D02*
X16703167Y-15755213D01*
X16703167Y-15755213D02*
X16684119Y-15764737D01*
X16684119Y-15764737D02*
X16674595Y-15774261D01*
X16884119Y-15888546D02*
X16865072Y-15879023D01*
X16865072Y-15879023D02*
X16855548Y-15869499D01*
X16855548Y-15869499D02*
X16846024Y-15850451D01*
X16846024Y-15850451D02*
X16846024Y-15793308D01*
X16846024Y-15793308D02*
X16855548Y-15774261D01*
X16855548Y-15774261D02*
X16865072Y-15764737D01*
X16865072Y-15764737D02*
X16884119Y-15755213D01*
X16884119Y-15755213D02*
X16912691Y-15755213D01*
X16912691Y-15755213D02*
X16931738Y-15764737D01*
X16931738Y-15764737D02*
X16941262Y-15774261D01*
X16941262Y-15774261D02*
X16950786Y-15793308D01*
X16950786Y-15793308D02*
X16950786Y-15850451D01*
X16950786Y-15850451D02*
X16941262Y-15869499D01*
X16941262Y-15869499D02*
X16931738Y-15879023D01*
X16931738Y-15879023D02*
X16912691Y-15888546D01*
X16912691Y-15888546D02*
X16884119Y-15888546D01*
X17065072Y-15888546D02*
X17046024Y-15879023D01*
X17046024Y-15879023D02*
X17036500Y-15859975D01*
X17036500Y-15859975D02*
X17036500Y-15688546D01*
X17217453Y-15879023D02*
X17198405Y-15888546D01*
X17198405Y-15888546D02*
X17160310Y-15888546D01*
X17160310Y-15888546D02*
X17141262Y-15879023D01*
X17141262Y-15879023D02*
X17131738Y-15859975D01*
X17131738Y-15859975D02*
X17131738Y-15783785D01*
X17131738Y-15783785D02*
X17141262Y-15764737D01*
X17141262Y-15764737D02*
X17160310Y-15755213D01*
X17160310Y-15755213D02*
X17198405Y-15755213D01*
X17198405Y-15755213D02*
X17217453Y-15764737D01*
X17217453Y-15764737D02*
X17226976Y-15783785D01*
X17226976Y-15783785D02*
X17226976Y-15802832D01*
X17226976Y-15802832D02*
X17131738Y-15821880D01*
X17303167Y-15879023D02*
X17322215Y-15888546D01*
X17322215Y-15888546D02*
X17360310Y-15888546D01*
X17360310Y-15888546D02*
X17379357Y-15879023D01*
X17379357Y-15879023D02*
X17388881Y-15859975D01*
X17388881Y-15859975D02*
X17388881Y-15850451D01*
X17388881Y-15850451D02*
X17379357Y-15831404D01*
X17379357Y-15831404D02*
X17360310Y-15821880D01*
X17360310Y-15821880D02*
X17331738Y-15821880D01*
X17331738Y-15821880D02*
X17312691Y-15812356D01*
X17312691Y-15812356D02*
X17303167Y-15793308D01*
X17303167Y-15793308D02*
X17303167Y-15783785D01*
X17303167Y-15783785D02*
X17312691Y-15764737D01*
X17312691Y-15764737D02*
X17331738Y-15755213D01*
X17331738Y-15755213D02*
X17360310Y-15755213D01*
X17360310Y-15755213D02*
X17379357Y-15764737D01*
X17455548Y-15964737D02*
X17465072Y-15955213D01*
X17465072Y-15955213D02*
X17484119Y-15926642D01*
X17484119Y-15926642D02*
X17493643Y-15907594D01*
X17493643Y-15907594D02*
X17503167Y-15879023D01*
X17503167Y-15879023D02*
X17512691Y-15831404D01*
X17512691Y-15831404D02*
X17512691Y-15793308D01*
X17512691Y-15793308D02*
X17503167Y-15745689D01*
X17503167Y-15745689D02*
X17493643Y-15717118D01*
X17493643Y-15717118D02*
X17484119Y-15698070D01*
X17484119Y-15698070D02*
X17465072Y-15669499D01*
X17465072Y-15669499D02*
X17455548Y-15659975D01*
D13*
X12472509Y-16078563D02*
X12490009Y-16061063D01*
X12472509Y-16043563D01*
X12455009Y-16061063D01*
X12472509Y-16078563D01*
D12*
X12788881Y-15952546D02*
X12807928Y-15952546D01*
X12807928Y-15952546D02*
X12826976Y-15962070D01*
X12826976Y-15962070D02*
X12836500Y-15971594D01*
X12836500Y-15971594D02*
X12846024Y-15990642D01*
X12846024Y-15990642D02*
X12855547Y-16028737D01*
X12855547Y-16028737D02*
X12855547Y-16076356D01*
X12855547Y-16076356D02*
X12846024Y-16114451D01*
X12846024Y-16114451D02*
X12836500Y-16133499D01*
X12836500Y-16133499D02*
X12826976Y-16143023D01*
X12826976Y-16143023D02*
X12807928Y-16152546D01*
X12807928Y-16152546D02*
X12788881Y-16152546D01*
X12788881Y-16152546D02*
X12769833Y-16143023D01*
X12769833Y-16143023D02*
X12760309Y-16133499D01*
X12760309Y-16133499D02*
X12750785Y-16114451D01*
X12750785Y-16114451D02*
X12741262Y-16076356D01*
X12741262Y-16076356D02*
X12741262Y-16028737D01*
X12741262Y-16028737D02*
X12750785Y-15990642D01*
X12750785Y-15990642D02*
X12760309Y-15971594D01*
X12760309Y-15971594D02*
X12769833Y-15962070D01*
X12769833Y-15962070D02*
X12788881Y-15952546D01*
X12941262Y-16133499D02*
X12950785Y-16143023D01*
X12950785Y-16143023D02*
X12941262Y-16152546D01*
X12941262Y-16152546D02*
X12931738Y-16143023D01*
X12931738Y-16143023D02*
X12941262Y-16133499D01*
X12941262Y-16133499D02*
X12941262Y-16152546D01*
X13017452Y-15952546D02*
X13141262Y-15952546D01*
X13141262Y-15952546D02*
X13074595Y-16028737D01*
X13074595Y-16028737D02*
X13103166Y-16028737D01*
X13103166Y-16028737D02*
X13122214Y-16038261D01*
X13122214Y-16038261D02*
X13131738Y-16047785D01*
X13131738Y-16047785D02*
X13141262Y-16066832D01*
X13141262Y-16066832D02*
X13141262Y-16114451D01*
X13141262Y-16114451D02*
X13131738Y-16133499D01*
X13131738Y-16133499D02*
X13122214Y-16143023D01*
X13122214Y-16143023D02*
X13103166Y-16152546D01*
X13103166Y-16152546D02*
X13046024Y-16152546D01*
X13046024Y-16152546D02*
X13026976Y-16143023D01*
X13026976Y-16143023D02*
X13017452Y-16133499D01*
X13322214Y-15952546D02*
X13226976Y-15952546D01*
X13226976Y-15952546D02*
X13217452Y-16047785D01*
X13217452Y-16047785D02*
X13226976Y-16038261D01*
X13226976Y-16038261D02*
X13246024Y-16028737D01*
X13246024Y-16028737D02*
X13293643Y-16028737D01*
X13293643Y-16028737D02*
X13312690Y-16038261D01*
X13312690Y-16038261D02*
X13322214Y-16047785D01*
X13322214Y-16047785D02*
X13331738Y-16066832D01*
X13331738Y-16066832D02*
X13331738Y-16114451D01*
X13331738Y-16114451D02*
X13322214Y-16133499D01*
X13322214Y-16133499D02*
X13312690Y-16143023D01*
X13312690Y-16143023D02*
X13293643Y-16152546D01*
X13293643Y-16152546D02*
X13246024Y-16152546D01*
X13246024Y-16152546D02*
X13226976Y-16143023D01*
X13226976Y-16143023D02*
X13217452Y-16133499D01*
X13455547Y-15952546D02*
X13474595Y-15952546D01*
X13474595Y-15952546D02*
X13493643Y-15962070D01*
X13493643Y-15962070D02*
X13503166Y-15971594D01*
X13503166Y-15971594D02*
X13512690Y-15990642D01*
X13512690Y-15990642D02*
X13522214Y-16028737D01*
X13522214Y-16028737D02*
X13522214Y-16076356D01*
X13522214Y-16076356D02*
X13512690Y-16114451D01*
X13512690Y-16114451D02*
X13503166Y-16133499D01*
X13503166Y-16133499D02*
X13493643Y-16143023D01*
X13493643Y-16143023D02*
X13474595Y-16152546D01*
X13474595Y-16152546D02*
X13455547Y-16152546D01*
X13455547Y-16152546D02*
X13436500Y-16143023D01*
X13436500Y-16143023D02*
X13426976Y-16133499D01*
X13426976Y-16133499D02*
X13417452Y-16114451D01*
X13417452Y-16114451D02*
X13407928Y-16076356D01*
X13407928Y-16076356D02*
X13407928Y-16028737D01*
X13407928Y-16028737D02*
X13417452Y-15990642D01*
X13417452Y-15990642D02*
X13426976Y-15971594D01*
X13426976Y-15971594D02*
X13436500Y-15962070D01*
X13436500Y-15962070D02*
X13455547Y-15952546D01*
X13607928Y-16152546D02*
X13607928Y-16019213D01*
X13607928Y-16038261D02*
X13617452Y-16028737D01*
X13617452Y-16028737D02*
X13636500Y-16019213D01*
X13636500Y-16019213D02*
X13665071Y-16019213D01*
X13665071Y-16019213D02*
X13684119Y-16028737D01*
X13684119Y-16028737D02*
X13693643Y-16047785D01*
X13693643Y-16047785D02*
X13693643Y-16152546D01*
X13693643Y-16047785D02*
X13703166Y-16028737D01*
X13703166Y-16028737D02*
X13722214Y-16019213D01*
X13722214Y-16019213D02*
X13750785Y-16019213D01*
X13750785Y-16019213D02*
X13769833Y-16028737D01*
X13769833Y-16028737D02*
X13779357Y-16047785D01*
X13779357Y-16047785D02*
X13779357Y-16152546D01*
X13874595Y-16152546D02*
X13874595Y-16019213D01*
X13874595Y-16038261D02*
X13884119Y-16028737D01*
X13884119Y-16028737D02*
X13903166Y-16019213D01*
X13903166Y-16019213D02*
X13931738Y-16019213D01*
X13931738Y-16019213D02*
X13950786Y-16028737D01*
X13950786Y-16028737D02*
X13960309Y-16047785D01*
X13960309Y-16047785D02*
X13960309Y-16152546D01*
X13960309Y-16047785D02*
X13969833Y-16028737D01*
X13969833Y-16028737D02*
X13988881Y-16019213D01*
X13988881Y-16019213D02*
X14017452Y-16019213D01*
X14017452Y-16019213D02*
X14036500Y-16028737D01*
X14036500Y-16028737D02*
X14046024Y-16047785D01*
X14046024Y-16047785D02*
X14046024Y-16152546D01*
X14436500Y-15943023D02*
X14265071Y-16200165D01*
X14693643Y-15952546D02*
X14712690Y-15952546D01*
X14712690Y-15952546D02*
X14731738Y-15962070D01*
X14731738Y-15962070D02*
X14741262Y-15971594D01*
X14741262Y-15971594D02*
X14750786Y-15990642D01*
X14750786Y-15990642D02*
X14760309Y-16028737D01*
X14760309Y-16028737D02*
X14760309Y-16076356D01*
X14760309Y-16076356D02*
X14750786Y-16114451D01*
X14750786Y-16114451D02*
X14741262Y-16133499D01*
X14741262Y-16133499D02*
X14731738Y-16143023D01*
X14731738Y-16143023D02*
X14712690Y-16152546D01*
X14712690Y-16152546D02*
X14693643Y-16152546D01*
X14693643Y-16152546D02*
X14674595Y-16143023D01*
X14674595Y-16143023D02*
X14665071Y-16133499D01*
X14665071Y-16133499D02*
X14655548Y-16114451D01*
X14655548Y-16114451D02*
X14646024Y-16076356D01*
X14646024Y-16076356D02*
X14646024Y-16028737D01*
X14646024Y-16028737D02*
X14655548Y-15990642D01*
X14655548Y-15990642D02*
X14665071Y-15971594D01*
X14665071Y-15971594D02*
X14674595Y-15962070D01*
X14674595Y-15962070D02*
X14693643Y-15952546D01*
X14846024Y-16133499D02*
X14855548Y-16143023D01*
X14855548Y-16143023D02*
X14846024Y-16152546D01*
X14846024Y-16152546D02*
X14836500Y-16143023D01*
X14836500Y-16143023D02*
X14846024Y-16133499D01*
X14846024Y-16133499D02*
X14846024Y-16152546D01*
X14979357Y-15952546D02*
X14998405Y-15952546D01*
X14998405Y-15952546D02*
X15017452Y-15962070D01*
X15017452Y-15962070D02*
X15026976Y-15971594D01*
X15026976Y-15971594D02*
X15036500Y-15990642D01*
X15036500Y-15990642D02*
X15046024Y-16028737D01*
X15046024Y-16028737D02*
X15046024Y-16076356D01*
X15046024Y-16076356D02*
X15036500Y-16114451D01*
X15036500Y-16114451D02*
X15026976Y-16133499D01*
X15026976Y-16133499D02*
X15017452Y-16143023D01*
X15017452Y-16143023D02*
X14998405Y-16152546D01*
X14998405Y-16152546D02*
X14979357Y-16152546D01*
X14979357Y-16152546D02*
X14960309Y-16143023D01*
X14960309Y-16143023D02*
X14950786Y-16133499D01*
X14950786Y-16133499D02*
X14941262Y-16114451D01*
X14941262Y-16114451D02*
X14931738Y-16076356D01*
X14931738Y-16076356D02*
X14931738Y-16028737D01*
X14931738Y-16028737D02*
X14941262Y-15990642D01*
X14941262Y-15990642D02*
X14950786Y-15971594D01*
X14950786Y-15971594D02*
X14960309Y-15962070D01*
X14960309Y-15962070D02*
X14979357Y-15952546D01*
X15236500Y-16152546D02*
X15122214Y-16152546D01*
X15179357Y-16152546D02*
X15179357Y-15952546D01*
X15179357Y-15952546D02*
X15160309Y-15981118D01*
X15160309Y-15981118D02*
X15141262Y-16000165D01*
X15141262Y-16000165D02*
X15122214Y-16009689D01*
X15303167Y-15952546D02*
X15426976Y-15952546D01*
X15426976Y-15952546D02*
X15360309Y-16028737D01*
X15360309Y-16028737D02*
X15388881Y-16028737D01*
X15388881Y-16028737D02*
X15407929Y-16038261D01*
X15407929Y-16038261D02*
X15417452Y-16047785D01*
X15417452Y-16047785D02*
X15426976Y-16066832D01*
X15426976Y-16066832D02*
X15426976Y-16114451D01*
X15426976Y-16114451D02*
X15417452Y-16133499D01*
X15417452Y-16133499D02*
X15407929Y-16143023D01*
X15407929Y-16143023D02*
X15388881Y-16152546D01*
X15388881Y-16152546D02*
X15331738Y-16152546D01*
X15331738Y-16152546D02*
X15312690Y-16143023D01*
X15312690Y-16143023D02*
X15303167Y-16133499D01*
X15541262Y-16038261D02*
X15522214Y-16028737D01*
X15522214Y-16028737D02*
X15512690Y-16019213D01*
X15512690Y-16019213D02*
X15503167Y-16000165D01*
X15503167Y-16000165D02*
X15503167Y-15990642D01*
X15503167Y-15990642D02*
X15512690Y-15971594D01*
X15512690Y-15971594D02*
X15522214Y-15962070D01*
X15522214Y-15962070D02*
X15541262Y-15952546D01*
X15541262Y-15952546D02*
X15579357Y-15952546D01*
X15579357Y-15952546D02*
X15598405Y-15962070D01*
X15598405Y-15962070D02*
X15607929Y-15971594D01*
X15607929Y-15971594D02*
X15617452Y-15990642D01*
X15617452Y-15990642D02*
X15617452Y-16000165D01*
X15617452Y-16000165D02*
X15607929Y-16019213D01*
X15607929Y-16019213D02*
X15598405Y-16028737D01*
X15598405Y-16028737D02*
X15579357Y-16038261D01*
X15579357Y-16038261D02*
X15541262Y-16038261D01*
X15541262Y-16038261D02*
X15522214Y-16047785D01*
X15522214Y-16047785D02*
X15512690Y-16057308D01*
X15512690Y-16057308D02*
X15503167Y-16076356D01*
X15503167Y-16076356D02*
X15503167Y-16114451D01*
X15503167Y-16114451D02*
X15512690Y-16133499D01*
X15512690Y-16133499D02*
X15522214Y-16143023D01*
X15522214Y-16143023D02*
X15541262Y-16152546D01*
X15541262Y-16152546D02*
X15579357Y-16152546D01*
X15579357Y-16152546D02*
X15598405Y-16143023D01*
X15598405Y-16143023D02*
X15607929Y-16133499D01*
X15607929Y-16133499D02*
X15617452Y-16114451D01*
X15617452Y-16114451D02*
X15617452Y-16076356D01*
X15617452Y-16076356D02*
X15607929Y-16057308D01*
X15607929Y-16057308D02*
X15598405Y-16047785D01*
X15598405Y-16047785D02*
X15579357Y-16038261D01*
X15693643Y-15952546D02*
X15693643Y-15990642D01*
X15769833Y-15952546D02*
X15769833Y-15990642D01*
X16065072Y-16228737D02*
X16055548Y-16219213D01*
X16055548Y-16219213D02*
X16036500Y-16190642D01*
X16036500Y-16190642D02*
X16026976Y-16171594D01*
X16026976Y-16171594D02*
X16017452Y-16143023D01*
X16017452Y-16143023D02*
X16007929Y-16095404D01*
X16007929Y-16095404D02*
X16007929Y-16057308D01*
X16007929Y-16057308D02*
X16017452Y-16009689D01*
X16017452Y-16009689D02*
X16026976Y-15981118D01*
X16026976Y-15981118D02*
X16036500Y-15962070D01*
X16036500Y-15962070D02*
X16055548Y-15933499D01*
X16055548Y-15933499D02*
X16065072Y-15923975D01*
X16246024Y-16152546D02*
X16131738Y-16152546D01*
X16188881Y-16152546D02*
X16188881Y-15952546D01*
X16188881Y-15952546D02*
X16169833Y-15981118D01*
X16169833Y-15981118D02*
X16150786Y-16000165D01*
X16150786Y-16000165D02*
X16131738Y-16009689D01*
X16484119Y-16152546D02*
X16484119Y-15952546D01*
X16569833Y-16152546D02*
X16569833Y-16047785D01*
X16569833Y-16047785D02*
X16560310Y-16028737D01*
X16560310Y-16028737D02*
X16541262Y-16019213D01*
X16541262Y-16019213D02*
X16512691Y-16019213D01*
X16512691Y-16019213D02*
X16493643Y-16028737D01*
X16493643Y-16028737D02*
X16484119Y-16038261D01*
X16693643Y-16152546D02*
X16674595Y-16143023D01*
X16674595Y-16143023D02*
X16665072Y-16133499D01*
X16665072Y-16133499D02*
X16655548Y-16114451D01*
X16655548Y-16114451D02*
X16655548Y-16057308D01*
X16655548Y-16057308D02*
X16665072Y-16038261D01*
X16665072Y-16038261D02*
X16674595Y-16028737D01*
X16674595Y-16028737D02*
X16693643Y-16019213D01*
X16693643Y-16019213D02*
X16722214Y-16019213D01*
X16722214Y-16019213D02*
X16741262Y-16028737D01*
X16741262Y-16028737D02*
X16750786Y-16038261D01*
X16750786Y-16038261D02*
X16760310Y-16057308D01*
X16760310Y-16057308D02*
X16760310Y-16114451D01*
X16760310Y-16114451D02*
X16750786Y-16133499D01*
X16750786Y-16133499D02*
X16741262Y-16143023D01*
X16741262Y-16143023D02*
X16722214Y-16152546D01*
X16722214Y-16152546D02*
X16693643Y-16152546D01*
X16874595Y-16152546D02*
X16855548Y-16143023D01*
X16855548Y-16143023D02*
X16846024Y-16123975D01*
X16846024Y-16123975D02*
X16846024Y-15952546D01*
X17026976Y-16143023D02*
X17007929Y-16152546D01*
X17007929Y-16152546D02*
X16969834Y-16152546D01*
X16969834Y-16152546D02*
X16950786Y-16143023D01*
X16950786Y-16143023D02*
X16941262Y-16123975D01*
X16941262Y-16123975D02*
X16941262Y-16047785D01*
X16941262Y-16047785D02*
X16950786Y-16028737D01*
X16950786Y-16028737D02*
X16969834Y-16019213D01*
X16969834Y-16019213D02*
X17007929Y-16019213D01*
X17007929Y-16019213D02*
X17026976Y-16028737D01*
X17026976Y-16028737D02*
X17036500Y-16047785D01*
X17036500Y-16047785D02*
X17036500Y-16066832D01*
X17036500Y-16066832D02*
X16941262Y-16085880D01*
X17103167Y-16228737D02*
X17112691Y-16219213D01*
X17112691Y-16219213D02*
X17131738Y-16190642D01*
X17131738Y-16190642D02*
X17141262Y-16171594D01*
X17141262Y-16171594D02*
X17150786Y-16143023D01*
X17150786Y-16143023D02*
X17160310Y-16095404D01*
X17160310Y-16095404D02*
X17160310Y-16057308D01*
X17160310Y-16057308D02*
X17150786Y-16009689D01*
X17150786Y-16009689D02*
X17141262Y-15981118D01*
X17141262Y-15981118D02*
X17131738Y-15962070D01*
X17131738Y-15962070D02*
X17112691Y-15933499D01*
X17112691Y-15933499D02*
X17103167Y-15923975D01*
D13*
X12430009Y-16295063D02*
X12490009Y-16355063D01*
X12490009Y-16295063D02*
X12430009Y-16355063D01*
X12490009Y-16325063D02*
G75*
G02*
X12430009Y-16325063I-30000J0D01*
G01*
X12430009Y-16325063D02*
G75*
G02*
X12490009Y-16325063I30000J0D01*
G01*
D12*
X12788881Y-16216546D02*
X12807928Y-16216546D01*
X12807928Y-16216546D02*
X12826976Y-16226070D01*
X12826976Y-16226070D02*
X12836500Y-16235594D01*
X12836500Y-16235594D02*
X12846024Y-16254642D01*
X12846024Y-16254642D02*
X12855547Y-16292737D01*
X12855547Y-16292737D02*
X12855547Y-16340356D01*
X12855547Y-16340356D02*
X12846024Y-16378451D01*
X12846024Y-16378451D02*
X12836500Y-16397499D01*
X12836500Y-16397499D02*
X12826976Y-16407023D01*
X12826976Y-16407023D02*
X12807928Y-16416546D01*
X12807928Y-16416546D02*
X12788881Y-16416546D01*
X12788881Y-16416546D02*
X12769833Y-16407023D01*
X12769833Y-16407023D02*
X12760309Y-16397499D01*
X12760309Y-16397499D02*
X12750785Y-16378451D01*
X12750785Y-16378451D02*
X12741262Y-16340356D01*
X12741262Y-16340356D02*
X12741262Y-16292737D01*
X12741262Y-16292737D02*
X12750785Y-16254642D01*
X12750785Y-16254642D02*
X12760309Y-16235594D01*
X12760309Y-16235594D02*
X12769833Y-16226070D01*
X12769833Y-16226070D02*
X12788881Y-16216546D01*
X12941262Y-16397499D02*
X12950785Y-16407023D01*
X12950785Y-16407023D02*
X12941262Y-16416546D01*
X12941262Y-16416546D02*
X12931738Y-16407023D01*
X12931738Y-16407023D02*
X12941262Y-16397499D01*
X12941262Y-16397499D02*
X12941262Y-16416546D01*
X13122214Y-16216546D02*
X13084119Y-16216546D01*
X13084119Y-16216546D02*
X13065071Y-16226070D01*
X13065071Y-16226070D02*
X13055547Y-16235594D01*
X13055547Y-16235594D02*
X13036500Y-16264165D01*
X13036500Y-16264165D02*
X13026976Y-16302261D01*
X13026976Y-16302261D02*
X13026976Y-16378451D01*
X13026976Y-16378451D02*
X13036500Y-16397499D01*
X13036500Y-16397499D02*
X13046024Y-16407023D01*
X13046024Y-16407023D02*
X13065071Y-16416546D01*
X13065071Y-16416546D02*
X13103166Y-16416546D01*
X13103166Y-16416546D02*
X13122214Y-16407023D01*
X13122214Y-16407023D02*
X13131738Y-16397499D01*
X13131738Y-16397499D02*
X13141262Y-16378451D01*
X13141262Y-16378451D02*
X13141262Y-16330832D01*
X13141262Y-16330832D02*
X13131738Y-16311785D01*
X13131738Y-16311785D02*
X13122214Y-16302261D01*
X13122214Y-16302261D02*
X13103166Y-16292737D01*
X13103166Y-16292737D02*
X13065071Y-16292737D01*
X13065071Y-16292737D02*
X13046024Y-16302261D01*
X13046024Y-16302261D02*
X13036500Y-16311785D01*
X13036500Y-16311785D02*
X13026976Y-16330832D01*
X13265071Y-16216546D02*
X13284119Y-16216546D01*
X13284119Y-16216546D02*
X13303166Y-16226070D01*
X13303166Y-16226070D02*
X13312690Y-16235594D01*
X13312690Y-16235594D02*
X13322214Y-16254642D01*
X13322214Y-16254642D02*
X13331738Y-16292737D01*
X13331738Y-16292737D02*
X13331738Y-16340356D01*
X13331738Y-16340356D02*
X13322214Y-16378451D01*
X13322214Y-16378451D02*
X13312690Y-16397499D01*
X13312690Y-16397499D02*
X13303166Y-16407023D01*
X13303166Y-16407023D02*
X13284119Y-16416546D01*
X13284119Y-16416546D02*
X13265071Y-16416546D01*
X13265071Y-16416546D02*
X13246024Y-16407023D01*
X13246024Y-16407023D02*
X13236500Y-16397499D01*
X13236500Y-16397499D02*
X13226976Y-16378451D01*
X13226976Y-16378451D02*
X13217452Y-16340356D01*
X13217452Y-16340356D02*
X13217452Y-16292737D01*
X13217452Y-16292737D02*
X13226976Y-16254642D01*
X13226976Y-16254642D02*
X13236500Y-16235594D01*
X13236500Y-16235594D02*
X13246024Y-16226070D01*
X13246024Y-16226070D02*
X13265071Y-16216546D01*
X13455547Y-16216546D02*
X13474595Y-16216546D01*
X13474595Y-16216546D02*
X13493643Y-16226070D01*
X13493643Y-16226070D02*
X13503166Y-16235594D01*
X13503166Y-16235594D02*
X13512690Y-16254642D01*
X13512690Y-16254642D02*
X13522214Y-16292737D01*
X13522214Y-16292737D02*
X13522214Y-16340356D01*
X13522214Y-16340356D02*
X13512690Y-16378451D01*
X13512690Y-16378451D02*
X13503166Y-16397499D01*
X13503166Y-16397499D02*
X13493643Y-16407023D01*
X13493643Y-16407023D02*
X13474595Y-16416546D01*
X13474595Y-16416546D02*
X13455547Y-16416546D01*
X13455547Y-16416546D02*
X13436500Y-16407023D01*
X13436500Y-16407023D02*
X13426976Y-16397499D01*
X13426976Y-16397499D02*
X13417452Y-16378451D01*
X13417452Y-16378451D02*
X13407928Y-16340356D01*
X13407928Y-16340356D02*
X13407928Y-16292737D01*
X13407928Y-16292737D02*
X13417452Y-16254642D01*
X13417452Y-16254642D02*
X13426976Y-16235594D01*
X13426976Y-16235594D02*
X13436500Y-16226070D01*
X13436500Y-16226070D02*
X13455547Y-16216546D01*
X13607928Y-16416546D02*
X13607928Y-16283213D01*
X13607928Y-16302261D02*
X13617452Y-16292737D01*
X13617452Y-16292737D02*
X13636500Y-16283213D01*
X13636500Y-16283213D02*
X13665071Y-16283213D01*
X13665071Y-16283213D02*
X13684119Y-16292737D01*
X13684119Y-16292737D02*
X13693643Y-16311785D01*
X13693643Y-16311785D02*
X13693643Y-16416546D01*
X13693643Y-16311785D02*
X13703166Y-16292737D01*
X13703166Y-16292737D02*
X13722214Y-16283213D01*
X13722214Y-16283213D02*
X13750785Y-16283213D01*
X13750785Y-16283213D02*
X13769833Y-16292737D01*
X13769833Y-16292737D02*
X13779357Y-16311785D01*
X13779357Y-16311785D02*
X13779357Y-16416546D01*
X13874595Y-16416546D02*
X13874595Y-16283213D01*
X13874595Y-16302261D02*
X13884119Y-16292737D01*
X13884119Y-16292737D02*
X13903166Y-16283213D01*
X13903166Y-16283213D02*
X13931738Y-16283213D01*
X13931738Y-16283213D02*
X13950786Y-16292737D01*
X13950786Y-16292737D02*
X13960309Y-16311785D01*
X13960309Y-16311785D02*
X13960309Y-16416546D01*
X13960309Y-16311785D02*
X13969833Y-16292737D01*
X13969833Y-16292737D02*
X13988881Y-16283213D01*
X13988881Y-16283213D02*
X14017452Y-16283213D01*
X14017452Y-16283213D02*
X14036500Y-16292737D01*
X14036500Y-16292737D02*
X14046024Y-16311785D01*
X14046024Y-16311785D02*
X14046024Y-16416546D01*
X14436500Y-16207023D02*
X14265071Y-16464165D01*
X14693643Y-16216546D02*
X14712690Y-16216546D01*
X14712690Y-16216546D02*
X14731738Y-16226070D01*
X14731738Y-16226070D02*
X14741262Y-16235594D01*
X14741262Y-16235594D02*
X14750786Y-16254642D01*
X14750786Y-16254642D02*
X14760309Y-16292737D01*
X14760309Y-16292737D02*
X14760309Y-16340356D01*
X14760309Y-16340356D02*
X14750786Y-16378451D01*
X14750786Y-16378451D02*
X14741262Y-16397499D01*
X14741262Y-16397499D02*
X14731738Y-16407023D01*
X14731738Y-16407023D02*
X14712690Y-16416546D01*
X14712690Y-16416546D02*
X14693643Y-16416546D01*
X14693643Y-16416546D02*
X14674595Y-16407023D01*
X14674595Y-16407023D02*
X14665071Y-16397499D01*
X14665071Y-16397499D02*
X14655548Y-16378451D01*
X14655548Y-16378451D02*
X14646024Y-16340356D01*
X14646024Y-16340356D02*
X14646024Y-16292737D01*
X14646024Y-16292737D02*
X14655548Y-16254642D01*
X14655548Y-16254642D02*
X14665071Y-16235594D01*
X14665071Y-16235594D02*
X14674595Y-16226070D01*
X14674595Y-16226070D02*
X14693643Y-16216546D01*
X14846024Y-16397499D02*
X14855548Y-16407023D01*
X14855548Y-16407023D02*
X14846024Y-16416546D01*
X14846024Y-16416546D02*
X14836500Y-16407023D01*
X14836500Y-16407023D02*
X14846024Y-16397499D01*
X14846024Y-16397499D02*
X14846024Y-16416546D01*
X14979357Y-16216546D02*
X14998405Y-16216546D01*
X14998405Y-16216546D02*
X15017452Y-16226070D01*
X15017452Y-16226070D02*
X15026976Y-16235594D01*
X15026976Y-16235594D02*
X15036500Y-16254642D01*
X15036500Y-16254642D02*
X15046024Y-16292737D01*
X15046024Y-16292737D02*
X15046024Y-16340356D01*
X15046024Y-16340356D02*
X15036500Y-16378451D01*
X15036500Y-16378451D02*
X15026976Y-16397499D01*
X15026976Y-16397499D02*
X15017452Y-16407023D01*
X15017452Y-16407023D02*
X14998405Y-16416546D01*
X14998405Y-16416546D02*
X14979357Y-16416546D01*
X14979357Y-16416546D02*
X14960309Y-16407023D01*
X14960309Y-16407023D02*
X14950786Y-16397499D01*
X14950786Y-16397499D02*
X14941262Y-16378451D01*
X14941262Y-16378451D02*
X14931738Y-16340356D01*
X14931738Y-16340356D02*
X14931738Y-16292737D01*
X14931738Y-16292737D02*
X14941262Y-16254642D01*
X14941262Y-16254642D02*
X14950786Y-16235594D01*
X14950786Y-16235594D02*
X14960309Y-16226070D01*
X14960309Y-16226070D02*
X14979357Y-16216546D01*
X15122214Y-16235594D02*
X15131738Y-16226070D01*
X15131738Y-16226070D02*
X15150786Y-16216546D01*
X15150786Y-16216546D02*
X15198405Y-16216546D01*
X15198405Y-16216546D02*
X15217452Y-16226070D01*
X15217452Y-16226070D02*
X15226976Y-16235594D01*
X15226976Y-16235594D02*
X15236500Y-16254642D01*
X15236500Y-16254642D02*
X15236500Y-16273689D01*
X15236500Y-16273689D02*
X15226976Y-16302261D01*
X15226976Y-16302261D02*
X15112690Y-16416546D01*
X15112690Y-16416546D02*
X15236500Y-16416546D01*
X15303167Y-16216546D02*
X15426976Y-16216546D01*
X15426976Y-16216546D02*
X15360309Y-16292737D01*
X15360309Y-16292737D02*
X15388881Y-16292737D01*
X15388881Y-16292737D02*
X15407929Y-16302261D01*
X15407929Y-16302261D02*
X15417452Y-16311785D01*
X15417452Y-16311785D02*
X15426976Y-16330832D01*
X15426976Y-16330832D02*
X15426976Y-16378451D01*
X15426976Y-16378451D02*
X15417452Y-16397499D01*
X15417452Y-16397499D02*
X15407929Y-16407023D01*
X15407929Y-16407023D02*
X15388881Y-16416546D01*
X15388881Y-16416546D02*
X15331738Y-16416546D01*
X15331738Y-16416546D02*
X15312690Y-16407023D01*
X15312690Y-16407023D02*
X15303167Y-16397499D01*
X15598405Y-16216546D02*
X15560309Y-16216546D01*
X15560309Y-16216546D02*
X15541262Y-16226070D01*
X15541262Y-16226070D02*
X15531738Y-16235594D01*
X15531738Y-16235594D02*
X15512690Y-16264165D01*
X15512690Y-16264165D02*
X15503167Y-16302261D01*
X15503167Y-16302261D02*
X15503167Y-16378451D01*
X15503167Y-16378451D02*
X15512690Y-16397499D01*
X15512690Y-16397499D02*
X15522214Y-16407023D01*
X15522214Y-16407023D02*
X15541262Y-16416546D01*
X15541262Y-16416546D02*
X15579357Y-16416546D01*
X15579357Y-16416546D02*
X15598405Y-16407023D01*
X15598405Y-16407023D02*
X15607929Y-16397499D01*
X15607929Y-16397499D02*
X15617452Y-16378451D01*
X15617452Y-16378451D02*
X15617452Y-16330832D01*
X15617452Y-16330832D02*
X15607929Y-16311785D01*
X15607929Y-16311785D02*
X15598405Y-16302261D01*
X15598405Y-16302261D02*
X15579357Y-16292737D01*
X15579357Y-16292737D02*
X15541262Y-16292737D01*
X15541262Y-16292737D02*
X15522214Y-16302261D01*
X15522214Y-16302261D02*
X15512690Y-16311785D01*
X15512690Y-16311785D02*
X15503167Y-16330832D01*
X15693643Y-16216546D02*
X15693643Y-16254642D01*
X15769833Y-16216546D02*
X15769833Y-16254642D01*
X16065072Y-16492737D02*
X16055548Y-16483213D01*
X16055548Y-16483213D02*
X16036500Y-16454642D01*
X16036500Y-16454642D02*
X16026976Y-16435594D01*
X16026976Y-16435594D02*
X16017452Y-16407023D01*
X16017452Y-16407023D02*
X16007929Y-16359404D01*
X16007929Y-16359404D02*
X16007929Y-16321308D01*
X16007929Y-16321308D02*
X16017452Y-16273689D01*
X16017452Y-16273689D02*
X16026976Y-16245118D01*
X16026976Y-16245118D02*
X16036500Y-16226070D01*
X16036500Y-16226070D02*
X16055548Y-16197499D01*
X16055548Y-16197499D02*
X16065072Y-16187975D01*
X16179357Y-16216546D02*
X16198405Y-16216546D01*
X16198405Y-16216546D02*
X16217452Y-16226070D01*
X16217452Y-16226070D02*
X16226976Y-16235594D01*
X16226976Y-16235594D02*
X16236500Y-16254642D01*
X16236500Y-16254642D02*
X16246024Y-16292737D01*
X16246024Y-16292737D02*
X16246024Y-16340356D01*
X16246024Y-16340356D02*
X16236500Y-16378451D01*
X16236500Y-16378451D02*
X16226976Y-16397499D01*
X16226976Y-16397499D02*
X16217452Y-16407023D01*
X16217452Y-16407023D02*
X16198405Y-16416546D01*
X16198405Y-16416546D02*
X16179357Y-16416546D01*
X16179357Y-16416546D02*
X16160310Y-16407023D01*
X16160310Y-16407023D02*
X16150786Y-16397499D01*
X16150786Y-16397499D02*
X16141262Y-16378451D01*
X16141262Y-16378451D02*
X16131738Y-16340356D01*
X16131738Y-16340356D02*
X16131738Y-16292737D01*
X16131738Y-16292737D02*
X16141262Y-16254642D01*
X16141262Y-16254642D02*
X16150786Y-16235594D01*
X16150786Y-16235594D02*
X16160310Y-16226070D01*
X16160310Y-16226070D02*
X16179357Y-16216546D01*
X16484119Y-16416546D02*
X16484119Y-16216546D01*
X16569833Y-16416546D02*
X16569833Y-16311785D01*
X16569833Y-16311785D02*
X16560310Y-16292737D01*
X16560310Y-16292737D02*
X16541262Y-16283213D01*
X16541262Y-16283213D02*
X16512691Y-16283213D01*
X16512691Y-16283213D02*
X16493643Y-16292737D01*
X16493643Y-16292737D02*
X16484119Y-16302261D01*
X16693643Y-16416546D02*
X16674595Y-16407023D01*
X16674595Y-16407023D02*
X16665072Y-16397499D01*
X16665072Y-16397499D02*
X16655548Y-16378451D01*
X16655548Y-16378451D02*
X16655548Y-16321308D01*
X16655548Y-16321308D02*
X16665072Y-16302261D01*
X16665072Y-16302261D02*
X16674595Y-16292737D01*
X16674595Y-16292737D02*
X16693643Y-16283213D01*
X16693643Y-16283213D02*
X16722214Y-16283213D01*
X16722214Y-16283213D02*
X16741262Y-16292737D01*
X16741262Y-16292737D02*
X16750786Y-16302261D01*
X16750786Y-16302261D02*
X16760310Y-16321308D01*
X16760310Y-16321308D02*
X16760310Y-16378451D01*
X16760310Y-16378451D02*
X16750786Y-16397499D01*
X16750786Y-16397499D02*
X16741262Y-16407023D01*
X16741262Y-16407023D02*
X16722214Y-16416546D01*
X16722214Y-16416546D02*
X16693643Y-16416546D01*
X16874595Y-16416546D02*
X16855548Y-16407023D01*
X16855548Y-16407023D02*
X16846024Y-16387975D01*
X16846024Y-16387975D02*
X16846024Y-16216546D01*
X17026976Y-16407023D02*
X17007929Y-16416546D01*
X17007929Y-16416546D02*
X16969834Y-16416546D01*
X16969834Y-16416546D02*
X16950786Y-16407023D01*
X16950786Y-16407023D02*
X16941262Y-16387975D01*
X16941262Y-16387975D02*
X16941262Y-16311785D01*
X16941262Y-16311785D02*
X16950786Y-16292737D01*
X16950786Y-16292737D02*
X16969834Y-16283213D01*
X16969834Y-16283213D02*
X17007929Y-16283213D01*
X17007929Y-16283213D02*
X17026976Y-16292737D01*
X17026976Y-16292737D02*
X17036500Y-16311785D01*
X17036500Y-16311785D02*
X17036500Y-16330832D01*
X17036500Y-16330832D02*
X16941262Y-16349880D01*
X17112691Y-16407023D02*
X17131738Y-16416546D01*
X17131738Y-16416546D02*
X17169834Y-16416546D01*
X17169834Y-16416546D02*
X17188881Y-16407023D01*
X17188881Y-16407023D02*
X17198405Y-16387975D01*
X17198405Y-16387975D02*
X17198405Y-16378451D01*
X17198405Y-16378451D02*
X17188881Y-16359404D01*
X17188881Y-16359404D02*
X17169834Y-16349880D01*
X17169834Y-16349880D02*
X17141262Y-16349880D01*
X17141262Y-16349880D02*
X17122215Y-16340356D01*
X17122215Y-16340356D02*
X17112691Y-16321308D01*
X17112691Y-16321308D02*
X17112691Y-16311785D01*
X17112691Y-16311785D02*
X17122215Y-16292737D01*
X17122215Y-16292737D02*
X17141262Y-16283213D01*
X17141262Y-16283213D02*
X17169834Y-16283213D01*
X17169834Y-16283213D02*
X17188881Y-16292737D01*
X17436500Y-16340356D02*
X17588881Y-16340356D01*
X17512691Y-16416546D02*
X17512691Y-16264165D01*
X17922215Y-16283213D02*
X17922215Y-16416546D01*
X17874596Y-16207023D02*
X17826977Y-16349880D01*
X17826977Y-16349880D02*
X17950786Y-16349880D01*
X18169834Y-16407023D02*
X18188881Y-16416546D01*
X18188881Y-16416546D02*
X18226977Y-16416546D01*
X18226977Y-16416546D02*
X18246024Y-16407023D01*
X18246024Y-16407023D02*
X18255548Y-16387975D01*
X18255548Y-16387975D02*
X18255548Y-16378451D01*
X18255548Y-16378451D02*
X18246024Y-16359404D01*
X18246024Y-16359404D02*
X18226977Y-16349880D01*
X18226977Y-16349880D02*
X18198405Y-16349880D01*
X18198405Y-16349880D02*
X18179358Y-16340356D01*
X18179358Y-16340356D02*
X18169834Y-16321308D01*
X18169834Y-16321308D02*
X18169834Y-16311785D01*
X18169834Y-16311785D02*
X18179358Y-16292737D01*
X18179358Y-16292737D02*
X18198405Y-16283213D01*
X18198405Y-16283213D02*
X18226977Y-16283213D01*
X18226977Y-16283213D02*
X18246024Y-16292737D01*
X18369834Y-16416546D02*
X18350786Y-16407023D01*
X18350786Y-16407023D02*
X18341262Y-16387975D01*
X18341262Y-16387975D02*
X18341262Y-16216546D01*
X18474596Y-16416546D02*
X18455548Y-16407023D01*
X18455548Y-16407023D02*
X18446024Y-16397499D01*
X18446024Y-16397499D02*
X18436500Y-16378451D01*
X18436500Y-16378451D02*
X18436500Y-16321308D01*
X18436500Y-16321308D02*
X18446024Y-16302261D01*
X18446024Y-16302261D02*
X18455548Y-16292737D01*
X18455548Y-16292737D02*
X18474596Y-16283213D01*
X18474596Y-16283213D02*
X18503167Y-16283213D01*
X18503167Y-16283213D02*
X18522215Y-16292737D01*
X18522215Y-16292737D02*
X18531739Y-16302261D01*
X18531739Y-16302261D02*
X18541262Y-16321308D01*
X18541262Y-16321308D02*
X18541262Y-16378451D01*
X18541262Y-16378451D02*
X18531739Y-16397499D01*
X18531739Y-16397499D02*
X18522215Y-16407023D01*
X18522215Y-16407023D02*
X18503167Y-16416546D01*
X18503167Y-16416546D02*
X18474596Y-16416546D01*
X18598405Y-16283213D02*
X18674596Y-16283213D01*
X18626977Y-16216546D02*
X18626977Y-16387975D01*
X18626977Y-16387975D02*
X18636500Y-16407023D01*
X18636500Y-16407023D02*
X18655548Y-16416546D01*
X18655548Y-16416546D02*
X18674596Y-16416546D01*
X18731739Y-16407023D02*
X18750786Y-16416546D01*
X18750786Y-16416546D02*
X18788881Y-16416546D01*
X18788881Y-16416546D02*
X18807929Y-16407023D01*
X18807929Y-16407023D02*
X18817453Y-16387975D01*
X18817453Y-16387975D02*
X18817453Y-16378451D01*
X18817453Y-16378451D02*
X18807929Y-16359404D01*
X18807929Y-16359404D02*
X18788881Y-16349880D01*
X18788881Y-16349880D02*
X18760310Y-16349880D01*
X18760310Y-16349880D02*
X18741262Y-16340356D01*
X18741262Y-16340356D02*
X18731739Y-16321308D01*
X18731739Y-16321308D02*
X18731739Y-16311785D01*
X18731739Y-16311785D02*
X18741262Y-16292737D01*
X18741262Y-16292737D02*
X18760310Y-16283213D01*
X18760310Y-16283213D02*
X18788881Y-16283213D01*
X18788881Y-16283213D02*
X18807929Y-16292737D01*
X18884120Y-16492737D02*
X18893643Y-16483213D01*
X18893643Y-16483213D02*
X18912691Y-16454642D01*
X18912691Y-16454642D02*
X18922215Y-16435594D01*
X18922215Y-16435594D02*
X18931739Y-16407023D01*
X18931739Y-16407023D02*
X18941262Y-16359404D01*
X18941262Y-16359404D02*
X18941262Y-16321308D01*
X18941262Y-16321308D02*
X18931739Y-16273689D01*
X18931739Y-16273689D02*
X18922215Y-16245118D01*
X18922215Y-16245118D02*
X18912691Y-16226070D01*
X18912691Y-16226070D02*
X18893643Y-16197499D01*
X18893643Y-16197499D02*
X18884120Y-16187975D01*
X12290009Y-16489063D02*
X12490009Y-16689063D01*
X12490009Y-16489063D02*
X12290009Y-16689063D01*
X12390009Y-16489063D02*
X12390009Y-16689063D01*
X12290009Y-16589063D02*
X12490009Y-16589063D01*
X12731738Y-16480546D02*
X12855547Y-16480546D01*
X12855547Y-16480546D02*
X12788881Y-16556737D01*
X12788881Y-16556737D02*
X12817452Y-16556737D01*
X12817452Y-16556737D02*
X12836500Y-16566261D01*
X12836500Y-16566261D02*
X12846024Y-16575785D01*
X12846024Y-16575785D02*
X12855547Y-16594832D01*
X12855547Y-16594832D02*
X12855547Y-16642451D01*
X12855547Y-16642451D02*
X12846024Y-16661499D01*
X12846024Y-16661499D02*
X12836500Y-16671023D01*
X12836500Y-16671023D02*
X12817452Y-16680546D01*
X12817452Y-16680546D02*
X12760309Y-16680546D01*
X12760309Y-16680546D02*
X12741262Y-16671023D01*
X12741262Y-16671023D02*
X12731738Y-16661499D01*
X12941262Y-16661499D02*
X12950785Y-16671023D01*
X12950785Y-16671023D02*
X12941262Y-16680546D01*
X12941262Y-16680546D02*
X12931738Y-16671023D01*
X12931738Y-16671023D02*
X12941262Y-16661499D01*
X12941262Y-16661499D02*
X12941262Y-16680546D01*
X13026976Y-16499594D02*
X13036500Y-16490070D01*
X13036500Y-16490070D02*
X13055547Y-16480546D01*
X13055547Y-16480546D02*
X13103166Y-16480546D01*
X13103166Y-16480546D02*
X13122214Y-16490070D01*
X13122214Y-16490070D02*
X13131738Y-16499594D01*
X13131738Y-16499594D02*
X13141262Y-16518642D01*
X13141262Y-16518642D02*
X13141262Y-16537689D01*
X13141262Y-16537689D02*
X13131738Y-16566261D01*
X13131738Y-16566261D02*
X13017452Y-16680546D01*
X13017452Y-16680546D02*
X13141262Y-16680546D01*
X13265071Y-16480546D02*
X13284119Y-16480546D01*
X13284119Y-16480546D02*
X13303166Y-16490070D01*
X13303166Y-16490070D02*
X13312690Y-16499594D01*
X13312690Y-16499594D02*
X13322214Y-16518642D01*
X13322214Y-16518642D02*
X13331738Y-16556737D01*
X13331738Y-16556737D02*
X13331738Y-16604356D01*
X13331738Y-16604356D02*
X13322214Y-16642451D01*
X13322214Y-16642451D02*
X13312690Y-16661499D01*
X13312690Y-16661499D02*
X13303166Y-16671023D01*
X13303166Y-16671023D02*
X13284119Y-16680546D01*
X13284119Y-16680546D02*
X13265071Y-16680546D01*
X13265071Y-16680546D02*
X13246024Y-16671023D01*
X13246024Y-16671023D02*
X13236500Y-16661499D01*
X13236500Y-16661499D02*
X13226976Y-16642451D01*
X13226976Y-16642451D02*
X13217452Y-16604356D01*
X13217452Y-16604356D02*
X13217452Y-16556737D01*
X13217452Y-16556737D02*
X13226976Y-16518642D01*
X13226976Y-16518642D02*
X13236500Y-16499594D01*
X13236500Y-16499594D02*
X13246024Y-16490070D01*
X13246024Y-16490070D02*
X13265071Y-16480546D01*
X13455547Y-16480546D02*
X13474595Y-16480546D01*
X13474595Y-16480546D02*
X13493643Y-16490070D01*
X13493643Y-16490070D02*
X13503166Y-16499594D01*
X13503166Y-16499594D02*
X13512690Y-16518642D01*
X13512690Y-16518642D02*
X13522214Y-16556737D01*
X13522214Y-16556737D02*
X13522214Y-16604356D01*
X13522214Y-16604356D02*
X13512690Y-16642451D01*
X13512690Y-16642451D02*
X13503166Y-16661499D01*
X13503166Y-16661499D02*
X13493643Y-16671023D01*
X13493643Y-16671023D02*
X13474595Y-16680546D01*
X13474595Y-16680546D02*
X13455547Y-16680546D01*
X13455547Y-16680546D02*
X13436500Y-16671023D01*
X13436500Y-16671023D02*
X13426976Y-16661499D01*
X13426976Y-16661499D02*
X13417452Y-16642451D01*
X13417452Y-16642451D02*
X13407928Y-16604356D01*
X13407928Y-16604356D02*
X13407928Y-16556737D01*
X13407928Y-16556737D02*
X13417452Y-16518642D01*
X13417452Y-16518642D02*
X13426976Y-16499594D01*
X13426976Y-16499594D02*
X13436500Y-16490070D01*
X13436500Y-16490070D02*
X13455547Y-16480546D01*
X13607928Y-16680546D02*
X13607928Y-16547213D01*
X13607928Y-16566261D02*
X13617452Y-16556737D01*
X13617452Y-16556737D02*
X13636500Y-16547213D01*
X13636500Y-16547213D02*
X13665071Y-16547213D01*
X13665071Y-16547213D02*
X13684119Y-16556737D01*
X13684119Y-16556737D02*
X13693643Y-16575785D01*
X13693643Y-16575785D02*
X13693643Y-16680546D01*
X13693643Y-16575785D02*
X13703166Y-16556737D01*
X13703166Y-16556737D02*
X13722214Y-16547213D01*
X13722214Y-16547213D02*
X13750785Y-16547213D01*
X13750785Y-16547213D02*
X13769833Y-16556737D01*
X13769833Y-16556737D02*
X13779357Y-16575785D01*
X13779357Y-16575785D02*
X13779357Y-16680546D01*
X13874595Y-16680546D02*
X13874595Y-16547213D01*
X13874595Y-16566261D02*
X13884119Y-16556737D01*
X13884119Y-16556737D02*
X13903166Y-16547213D01*
X13903166Y-16547213D02*
X13931738Y-16547213D01*
X13931738Y-16547213D02*
X13950786Y-16556737D01*
X13950786Y-16556737D02*
X13960309Y-16575785D01*
X13960309Y-16575785D02*
X13960309Y-16680546D01*
X13960309Y-16575785D02*
X13969833Y-16556737D01*
X13969833Y-16556737D02*
X13988881Y-16547213D01*
X13988881Y-16547213D02*
X14017452Y-16547213D01*
X14017452Y-16547213D02*
X14036500Y-16556737D01*
X14036500Y-16556737D02*
X14046024Y-16575785D01*
X14046024Y-16575785D02*
X14046024Y-16680546D01*
X14436500Y-16471023D02*
X14265071Y-16728165D01*
X14693643Y-16480546D02*
X14712690Y-16480546D01*
X14712690Y-16480546D02*
X14731738Y-16490070D01*
X14731738Y-16490070D02*
X14741262Y-16499594D01*
X14741262Y-16499594D02*
X14750786Y-16518642D01*
X14750786Y-16518642D02*
X14760309Y-16556737D01*
X14760309Y-16556737D02*
X14760309Y-16604356D01*
X14760309Y-16604356D02*
X14750786Y-16642451D01*
X14750786Y-16642451D02*
X14741262Y-16661499D01*
X14741262Y-16661499D02*
X14731738Y-16671023D01*
X14731738Y-16671023D02*
X14712690Y-16680546D01*
X14712690Y-16680546D02*
X14693643Y-16680546D01*
X14693643Y-16680546D02*
X14674595Y-16671023D01*
X14674595Y-16671023D02*
X14665071Y-16661499D01*
X14665071Y-16661499D02*
X14655548Y-16642451D01*
X14655548Y-16642451D02*
X14646024Y-16604356D01*
X14646024Y-16604356D02*
X14646024Y-16556737D01*
X14646024Y-16556737D02*
X14655548Y-16518642D01*
X14655548Y-16518642D02*
X14665071Y-16499594D01*
X14665071Y-16499594D02*
X14674595Y-16490070D01*
X14674595Y-16490070D02*
X14693643Y-16480546D01*
X14846024Y-16661499D02*
X14855548Y-16671023D01*
X14855548Y-16671023D02*
X14846024Y-16680546D01*
X14846024Y-16680546D02*
X14836500Y-16671023D01*
X14836500Y-16671023D02*
X14846024Y-16661499D01*
X14846024Y-16661499D02*
X14846024Y-16680546D01*
X15046024Y-16680546D02*
X14931738Y-16680546D01*
X14988881Y-16680546D02*
X14988881Y-16480546D01*
X14988881Y-16480546D02*
X14969833Y-16509118D01*
X14969833Y-16509118D02*
X14950786Y-16528165D01*
X14950786Y-16528165D02*
X14931738Y-16537689D01*
X15122214Y-16499594D02*
X15131738Y-16490070D01*
X15131738Y-16490070D02*
X15150786Y-16480546D01*
X15150786Y-16480546D02*
X15198405Y-16480546D01*
X15198405Y-16480546D02*
X15217452Y-16490070D01*
X15217452Y-16490070D02*
X15226976Y-16499594D01*
X15226976Y-16499594D02*
X15236500Y-16518642D01*
X15236500Y-16518642D02*
X15236500Y-16537689D01*
X15236500Y-16537689D02*
X15226976Y-16566261D01*
X15226976Y-16566261D02*
X15112690Y-16680546D01*
X15112690Y-16680546D02*
X15236500Y-16680546D01*
X15407929Y-16480546D02*
X15369833Y-16480546D01*
X15369833Y-16480546D02*
X15350786Y-16490070D01*
X15350786Y-16490070D02*
X15341262Y-16499594D01*
X15341262Y-16499594D02*
X15322214Y-16528165D01*
X15322214Y-16528165D02*
X15312690Y-16566261D01*
X15312690Y-16566261D02*
X15312690Y-16642451D01*
X15312690Y-16642451D02*
X15322214Y-16661499D01*
X15322214Y-16661499D02*
X15331738Y-16671023D01*
X15331738Y-16671023D02*
X15350786Y-16680546D01*
X15350786Y-16680546D02*
X15388881Y-16680546D01*
X15388881Y-16680546D02*
X15407929Y-16671023D01*
X15407929Y-16671023D02*
X15417452Y-16661499D01*
X15417452Y-16661499D02*
X15426976Y-16642451D01*
X15426976Y-16642451D02*
X15426976Y-16594832D01*
X15426976Y-16594832D02*
X15417452Y-16575785D01*
X15417452Y-16575785D02*
X15407929Y-16566261D01*
X15407929Y-16566261D02*
X15388881Y-16556737D01*
X15388881Y-16556737D02*
X15350786Y-16556737D01*
X15350786Y-16556737D02*
X15331738Y-16566261D01*
X15331738Y-16566261D02*
X15322214Y-16575785D01*
X15322214Y-16575785D02*
X15312690Y-16594832D01*
X15550786Y-16480546D02*
X15569833Y-16480546D01*
X15569833Y-16480546D02*
X15588881Y-16490070D01*
X15588881Y-16490070D02*
X15598405Y-16499594D01*
X15598405Y-16499594D02*
X15607929Y-16518642D01*
X15607929Y-16518642D02*
X15617452Y-16556737D01*
X15617452Y-16556737D02*
X15617452Y-16604356D01*
X15617452Y-16604356D02*
X15607929Y-16642451D01*
X15607929Y-16642451D02*
X15598405Y-16661499D01*
X15598405Y-16661499D02*
X15588881Y-16671023D01*
X15588881Y-16671023D02*
X15569833Y-16680546D01*
X15569833Y-16680546D02*
X15550786Y-16680546D01*
X15550786Y-16680546D02*
X15531738Y-16671023D01*
X15531738Y-16671023D02*
X15522214Y-16661499D01*
X15522214Y-16661499D02*
X15512690Y-16642451D01*
X15512690Y-16642451D02*
X15503167Y-16604356D01*
X15503167Y-16604356D02*
X15503167Y-16556737D01*
X15503167Y-16556737D02*
X15512690Y-16518642D01*
X15512690Y-16518642D02*
X15522214Y-16499594D01*
X15522214Y-16499594D02*
X15531738Y-16490070D01*
X15531738Y-16490070D02*
X15550786Y-16480546D01*
X15693643Y-16480546D02*
X15693643Y-16518642D01*
X15769833Y-16480546D02*
X15769833Y-16518642D01*
X16065072Y-16756737D02*
X16055548Y-16747213D01*
X16055548Y-16747213D02*
X16036500Y-16718642D01*
X16036500Y-16718642D02*
X16026976Y-16699594D01*
X16026976Y-16699594D02*
X16017452Y-16671023D01*
X16017452Y-16671023D02*
X16007929Y-16623404D01*
X16007929Y-16623404D02*
X16007929Y-16585308D01*
X16007929Y-16585308D02*
X16017452Y-16537689D01*
X16017452Y-16537689D02*
X16026976Y-16509118D01*
X16026976Y-16509118D02*
X16036500Y-16490070D01*
X16036500Y-16490070D02*
X16055548Y-16461499D01*
X16055548Y-16461499D02*
X16065072Y-16451975D01*
X16226976Y-16547213D02*
X16226976Y-16680546D01*
X16179357Y-16471023D02*
X16131738Y-16613880D01*
X16131738Y-16613880D02*
X16255548Y-16613880D01*
X16484119Y-16680546D02*
X16484119Y-16480546D01*
X16569833Y-16680546D02*
X16569833Y-16575785D01*
X16569833Y-16575785D02*
X16560310Y-16556737D01*
X16560310Y-16556737D02*
X16541262Y-16547213D01*
X16541262Y-16547213D02*
X16512691Y-16547213D01*
X16512691Y-16547213D02*
X16493643Y-16556737D01*
X16493643Y-16556737D02*
X16484119Y-16566261D01*
X16693643Y-16680546D02*
X16674595Y-16671023D01*
X16674595Y-16671023D02*
X16665072Y-16661499D01*
X16665072Y-16661499D02*
X16655548Y-16642451D01*
X16655548Y-16642451D02*
X16655548Y-16585308D01*
X16655548Y-16585308D02*
X16665072Y-16566261D01*
X16665072Y-16566261D02*
X16674595Y-16556737D01*
X16674595Y-16556737D02*
X16693643Y-16547213D01*
X16693643Y-16547213D02*
X16722214Y-16547213D01*
X16722214Y-16547213D02*
X16741262Y-16556737D01*
X16741262Y-16556737D02*
X16750786Y-16566261D01*
X16750786Y-16566261D02*
X16760310Y-16585308D01*
X16760310Y-16585308D02*
X16760310Y-16642451D01*
X16760310Y-16642451D02*
X16750786Y-16661499D01*
X16750786Y-16661499D02*
X16741262Y-16671023D01*
X16741262Y-16671023D02*
X16722214Y-16680546D01*
X16722214Y-16680546D02*
X16693643Y-16680546D01*
X16874595Y-16680546D02*
X16855548Y-16671023D01*
X16855548Y-16671023D02*
X16846024Y-16651975D01*
X16846024Y-16651975D02*
X16846024Y-16480546D01*
X17026976Y-16671023D02*
X17007929Y-16680546D01*
X17007929Y-16680546D02*
X16969834Y-16680546D01*
X16969834Y-16680546D02*
X16950786Y-16671023D01*
X16950786Y-16671023D02*
X16941262Y-16651975D01*
X16941262Y-16651975D02*
X16941262Y-16575785D01*
X16941262Y-16575785D02*
X16950786Y-16556737D01*
X16950786Y-16556737D02*
X16969834Y-16547213D01*
X16969834Y-16547213D02*
X17007929Y-16547213D01*
X17007929Y-16547213D02*
X17026976Y-16556737D01*
X17026976Y-16556737D02*
X17036500Y-16575785D01*
X17036500Y-16575785D02*
X17036500Y-16594832D01*
X17036500Y-16594832D02*
X16941262Y-16613880D01*
X17112691Y-16671023D02*
X17131738Y-16680546D01*
X17131738Y-16680546D02*
X17169834Y-16680546D01*
X17169834Y-16680546D02*
X17188881Y-16671023D01*
X17188881Y-16671023D02*
X17198405Y-16651975D01*
X17198405Y-16651975D02*
X17198405Y-16642451D01*
X17198405Y-16642451D02*
X17188881Y-16623404D01*
X17188881Y-16623404D02*
X17169834Y-16613880D01*
X17169834Y-16613880D02*
X17141262Y-16613880D01*
X17141262Y-16613880D02*
X17122215Y-16604356D01*
X17122215Y-16604356D02*
X17112691Y-16585308D01*
X17112691Y-16585308D02*
X17112691Y-16575785D01*
X17112691Y-16575785D02*
X17122215Y-16556737D01*
X17122215Y-16556737D02*
X17141262Y-16547213D01*
X17141262Y-16547213D02*
X17169834Y-16547213D01*
X17169834Y-16547213D02*
X17188881Y-16556737D01*
X17265072Y-16756737D02*
X17274596Y-16747213D01*
X17274596Y-16747213D02*
X17293643Y-16718642D01*
X17293643Y-16718642D02*
X17303167Y-16699594D01*
X17303167Y-16699594D02*
X17312691Y-16671023D01*
X17312691Y-16671023D02*
X17322215Y-16623404D01*
X17322215Y-16623404D02*
X17322215Y-16585308D01*
X17322215Y-16585308D02*
X17312691Y-16537689D01*
X17312691Y-16537689D02*
X17303167Y-16509118D01*
X17303167Y-16509118D02*
X17293643Y-16490070D01*
X17293643Y-16490070D02*
X17274596Y-16461499D01*
X17274596Y-16461499D02*
X17265072Y-16451975D01*
M02*
