%TF.GenerationSoftware,KiCad,Pcbnew,8.0.8*%
%TF.CreationDate,2025-01-21T22:51:03+01:00*%
%TF.ProjectId,mariposa,6d617269-706f-4736-912e-6b696361645f,2.0*%
%TF.SameCoordinates,Original*%
%TF.FileFunction,Paste,Bot*%
%TF.FilePolarity,Positive*%
%FSLAX46Y46*%
G04 Gerber Fmt 4.6, Leading zero omitted, Abs format (unit mm)*
G04 Created by KiCad (PCBNEW 8.0.8) date 2025-01-21 22:51:03*
%MOMM*%
%LPD*%
G01*
G04 APERTURE LIST*
G04 Aperture macros list*
%AMRoundRect*
0 Rectangle with rounded corners*
0 $1 Rounding radius*
0 $2 $3 $4 $5 $6 $7 $8 $9 X,Y pos of 4 corners*
0 Add a 4 corners polygon primitive as box body*
4,1,4,$2,$3,$4,$5,$6,$7,$8,$9,$2,$3,0*
0 Add four circle primitives for the rounded corners*
1,1,$1+$1,$2,$3*
1,1,$1+$1,$4,$5*
1,1,$1+$1,$6,$7*
1,1,$1+$1,$8,$9*
0 Add four rect primitives between the rounded corners*
20,1,$1+$1,$2,$3,$4,$5,0*
20,1,$1+$1,$4,$5,$6,$7,0*
20,1,$1+$1,$6,$7,$8,$9,0*
20,1,$1+$1,$8,$9,$2,$3,0*%
G04 Aperture macros list end*
%ADD10C,0.000000*%
%ADD11RoundRect,0.218750X-0.218750X-0.381250X0.218750X-0.381250X0.218750X0.381250X-0.218750X0.381250X0*%
%ADD12C,5.600000*%
%ADD13RoundRect,0.126316X-0.273684X-0.723684X0.273684X-0.723684X0.273684X0.723684X-0.273684X0.723684X0*%
%ADD14RoundRect,0.160000X-0.240000X-0.690000X0.240000X-0.690000X0.240000X0.690000X-0.240000X0.690000X0*%
%ADD15RoundRect,0.200000X0.200000X0.275000X-0.200000X0.275000X-0.200000X-0.275000X0.200000X-0.275000X0*%
%ADD16RoundRect,0.150000X0.625000X-0.150000X0.625000X0.150000X-0.625000X0.150000X-0.625000X-0.150000X0*%
%ADD17RoundRect,0.250000X0.650000X-0.350000X0.650000X0.350000X-0.650000X0.350000X-0.650000X-0.350000X0*%
%ADD18RoundRect,0.150000X0.512500X0.150000X-0.512500X0.150000X-0.512500X-0.150000X0.512500X-0.150000X0*%
%ADD19RoundRect,0.200000X0.275000X-0.200000X0.275000X0.200000X-0.275000X0.200000X-0.275000X-0.200000X0*%
%ADD20RoundRect,0.126316X-0.723684X0.273684X-0.723684X-0.273684X0.723684X-0.273684X0.723684X0.273684X0*%
%ADD21RoundRect,0.160000X-0.690000X0.240000X-0.690000X-0.240000X0.690000X-0.240000X0.690000X0.240000X0*%
%ADD22RoundRect,0.100000X-0.100000X0.225000X-0.100000X-0.225000X0.100000X-0.225000X0.100000X0.225000X0*%
%ADD23RoundRect,0.225000X0.250000X-0.225000X0.250000X0.225000X-0.250000X0.225000X-0.250000X-0.225000X0*%
%ADD24RoundRect,0.225000X0.225000X0.250000X-0.225000X0.250000X-0.225000X-0.250000X0.225000X-0.250000X0*%
%ADD25RoundRect,0.218750X-0.256250X0.218750X-0.256250X-0.218750X0.256250X-0.218750X0.256250X0.218750X0*%
%ADD26RoundRect,0.250000X0.300000X-0.300000X0.300000X0.300000X-0.300000X0.300000X-0.300000X-0.300000X0*%
%ADD27RoundRect,0.200000X-0.275000X0.200000X-0.275000X-0.200000X0.275000X-0.200000X0.275000X0.200000X0*%
%ADD28RoundRect,0.100000X0.225000X0.100000X-0.225000X0.100000X-0.225000X-0.100000X0.225000X-0.100000X0*%
%ADD29RoundRect,0.112500X-0.187500X-0.112500X0.187500X-0.112500X0.187500X0.112500X-0.187500X0.112500X0*%
%ADD30R,0.900000X0.700000*%
%ADD31R,0.700000X0.900000*%
%ADD32R,1.000000X0.700000*%
%ADD33RoundRect,0.100000X0.100000X-0.225000X0.100000X0.225000X-0.100000X0.225000X-0.100000X-0.225000X0*%
%ADD34RoundRect,0.126316X0.273684X0.723684X-0.273684X0.723684X-0.273684X-0.723684X0.273684X-0.723684X0*%
%ADD35RoundRect,0.160000X0.240000X0.690000X-0.240000X0.690000X-0.240000X-0.690000X0.240000X-0.690000X0*%
%ADD36RoundRect,0.225000X-0.225000X-0.250000X0.225000X-0.250000X0.225000X0.250000X-0.225000X0.250000X0*%
%ADD37RoundRect,0.225000X-0.250000X0.225000X-0.250000X-0.225000X0.250000X-0.225000X0.250000X0.225000X0*%
%ADD38RoundRect,0.150000X-0.150000X-0.425000X0.150000X-0.425000X0.150000X0.425000X-0.150000X0.425000X0*%
%ADD39RoundRect,0.075000X-0.075000X-0.500000X0.075000X-0.500000X0.075000X0.500000X-0.075000X0.500000X0*%
%ADD40O,1.000000X1.800000*%
%ADD41O,1.000000X2.100000*%
%ADD42RoundRect,0.150000X0.700000X-0.150000X0.700000X0.150000X-0.700000X0.150000X-0.700000X-0.150000X0*%
%ADD43RoundRect,0.250000X1.100000X-0.250000X1.100000X0.250000X-1.100000X0.250000X-1.100000X-0.250000X0*%
%ADD44RoundRect,0.218750X0.381250X-0.218750X0.381250X0.218750X-0.381250X0.218750X-0.381250X-0.218750X0*%
%ADD45RoundRect,0.100000X0.100000X-0.150000X0.100000X0.150000X-0.100000X0.150000X-0.100000X-0.150000X0*%
%ADD46RoundRect,0.200000X-0.200000X-0.275000X0.200000X-0.275000X0.200000X0.275000X-0.200000X0.275000X0*%
%ADD47R,0.300000X1.300000*%
%ADD48R,1.800000X2.200000*%
%ADD49RoundRect,0.218750X0.218750X0.256250X-0.218750X0.256250X-0.218750X-0.256250X0.218750X-0.256250X0*%
%ADD50RoundRect,0.125000X-0.375000X0.125000X-0.375000X-0.125000X0.375000X-0.125000X0.375000X0.125000X0*%
%ADD51RoundRect,0.250000X-0.600000X0.350000X-0.600000X-0.350000X0.600000X-0.350000X0.600000X0.350000X0*%
%ADD52RoundRect,0.218750X-0.381250X0.218750X-0.381250X-0.218750X0.381250X-0.218750X0.381250X0.218750X0*%
%ADD53R,0.249999X0.499999*%
%ADD54R,1.599999X0.900001*%
%ADD55RoundRect,0.100000X-0.150000X-0.100000X0.150000X-0.100000X0.150000X0.100000X-0.150000X0.100000X0*%
%ADD56RoundRect,0.087500X-0.087500X0.250000X-0.087500X-0.250000X0.087500X-0.250000X0.087500X0.250000X0*%
%ADD57RoundRect,0.150000X-0.625000X0.150000X-0.625000X-0.150000X0.625000X-0.150000X0.625000X0.150000X0*%
%ADD58RoundRect,0.250000X-0.650000X0.350000X-0.650000X-0.350000X0.650000X-0.350000X0.650000X0.350000X0*%
%ADD59RoundRect,0.218750X0.218750X0.381250X-0.218750X0.381250X-0.218750X-0.381250X0.218750X-0.381250X0*%
G04 APERTURE END LIST*
D10*
%TO.C,U2*%
G36*
X164410563Y-53540941D02*
G01*
X164419755Y-53543730D01*
X164428226Y-53548258D01*
X164435651Y-53554352D01*
X164441744Y-53561776D01*
X164446273Y-53570247D01*
X164449062Y-53579439D01*
X164450004Y-53589000D01*
X164450004Y-54391000D01*
X164449062Y-54400561D01*
X164446273Y-54409753D01*
X164441744Y-54418224D01*
X164435651Y-54425648D01*
X164428226Y-54431742D01*
X164419755Y-54436270D01*
X164410563Y-54439059D01*
X164401003Y-54440002D01*
X163799002Y-54440002D01*
X163789442Y-54439059D01*
X163780249Y-54436270D01*
X163771779Y-54431742D01*
X163764354Y-54425648D01*
X163758261Y-54418224D01*
X163753732Y-54409753D01*
X163750943Y-54400561D01*
X163750003Y-54391000D01*
X163750003Y-53589000D01*
X163750943Y-53579439D01*
X163753732Y-53570247D01*
X163758261Y-53561776D01*
X163764354Y-53554352D01*
X163771779Y-53548258D01*
X163780249Y-53543730D01*
X163789442Y-53540941D01*
X163799002Y-53539998D01*
X164401003Y-53539998D01*
X164410563Y-53540941D01*
G37*
G36*
X165310561Y-53540941D02*
G01*
X165319754Y-53543730D01*
X165328225Y-53548258D01*
X165335649Y-53554352D01*
X165341742Y-53561776D01*
X165346271Y-53570247D01*
X165349060Y-53579439D01*
X165350002Y-53589000D01*
X165350002Y-54391000D01*
X165349060Y-54400561D01*
X165346271Y-54409753D01*
X165341742Y-54418224D01*
X165335649Y-54425648D01*
X165328225Y-54431742D01*
X165319754Y-54436270D01*
X165310561Y-54439059D01*
X165301001Y-54440002D01*
X164699000Y-54440002D01*
X164689440Y-54439059D01*
X164680248Y-54436270D01*
X164671777Y-54431742D01*
X164664352Y-54425648D01*
X164658259Y-54418224D01*
X164653730Y-54409753D01*
X164650941Y-54400561D01*
X164650001Y-54391000D01*
X164650001Y-53589000D01*
X164650941Y-53579439D01*
X164653730Y-53570247D01*
X164658259Y-53561776D01*
X164664352Y-53554352D01*
X164671777Y-53548258D01*
X164680248Y-53543730D01*
X164689440Y-53540941D01*
X164699000Y-53539998D01*
X165301001Y-53539998D01*
X165310561Y-53540941D01*
G37*
%TD*%
D11*
%TO.C,FB7*%
X128967500Y-66682679D03*
X131092500Y-66682679D03*
%TD*%
%TO.C,FB6*%
X140532500Y-66135000D03*
X142657500Y-66135000D03*
%TD*%
D12*
%TO.C,H2*%
X135500000Y-65925000D03*
%TD*%
%TO.C,H4*%
X135500000Y-130000000D03*
%TD*%
%TO.C,H5*%
X164500000Y-130000000D03*
%TD*%
%TO.C,H3*%
X164500000Y-65925000D03*
%TD*%
D13*
%TO.C,D5*%
X127570000Y-39600000D03*
D14*
X130670000Y-39600000D03*
%TD*%
D15*
%TO.C,R11*%
X163485000Y-69850000D03*
X161835000Y-69850000D03*
%TD*%
D16*
%TO.C,J8*%
X138100000Y-53810000D03*
X138100000Y-52810000D03*
X138100000Y-51810000D03*
X138100000Y-50810000D03*
D17*
X134225000Y-55110000D03*
X134225000Y-49510000D03*
%TD*%
D18*
%TO.C,U4*%
X145105000Y-59610000D03*
X145105000Y-60560000D03*
X145105000Y-61510000D03*
X142830000Y-61510000D03*
X142830000Y-60560000D03*
X142830000Y-59610000D03*
%TD*%
D19*
%TO.C,R7*%
X164130000Y-51405000D03*
X164130000Y-49755000D03*
%TD*%
D20*
%TO.C,D1*%
X150000000Y-70732679D03*
D21*
X150000000Y-73832679D03*
%TD*%
D22*
%TO.C,D13*%
X161400000Y-122150000D03*
X162050000Y-122150000D03*
X162700000Y-122150000D03*
X162700000Y-124050000D03*
X162050000Y-124050000D03*
X161400000Y-124050000D03*
%TD*%
D23*
%TO.C,C45*%
X163130000Y-72950000D03*
X163130000Y-71400000D03*
%TD*%
D24*
%TO.C,C4*%
X157775000Y-52060000D03*
X156225000Y-52060000D03*
%TD*%
D19*
%TO.C,R15*%
X167870000Y-54940000D03*
X167870000Y-53290000D03*
%TD*%
D25*
%TO.C,FB3*%
X152660000Y-90392500D03*
X152660000Y-91967500D03*
%TD*%
D26*
%TO.C,D45*%
X169330000Y-68320000D03*
X169330000Y-65520000D03*
%TD*%
D24*
%TO.C,C5*%
X157775000Y-56920000D03*
X156225000Y-56920000D03*
%TD*%
D27*
%TO.C,R16*%
X136530000Y-123727679D03*
X136530000Y-125377679D03*
%TD*%
D28*
%TO.C,D11*%
X150950000Y-90850000D03*
X150950000Y-91500000D03*
X150950000Y-92150000D03*
X149050000Y-92150000D03*
X149050000Y-91500000D03*
X149050000Y-90850000D03*
%TD*%
D29*
%TO.C,D9*%
X148890000Y-51680000D03*
X150990000Y-51680000D03*
%TD*%
D19*
%TO.C,R12*%
X165650000Y-51405000D03*
X165650000Y-49755000D03*
%TD*%
D30*
%TO.C,U1*%
X143250000Y-135000000D03*
X143250000Y-133900000D03*
X143250000Y-132800000D03*
X143250000Y-131700000D03*
X143250000Y-130600000D03*
X143250000Y-129500000D03*
X143250000Y-128400000D03*
X143250000Y-127300000D03*
X143250000Y-126200000D03*
X143250000Y-125100000D03*
X143250000Y-124000000D03*
X143250000Y-122900000D03*
D31*
X144500000Y-121400000D03*
X145600000Y-121400000D03*
X146700000Y-121400000D03*
X147800000Y-121400000D03*
X148900000Y-121400000D03*
X150000000Y-121400000D03*
X151100000Y-121400000D03*
X152200000Y-121400000D03*
X153300000Y-121400000D03*
X154400000Y-121400000D03*
X155500000Y-121400000D03*
D30*
X156750000Y-122900000D03*
X156750000Y-124000000D03*
X156750000Y-125100000D03*
X156750000Y-126200000D03*
X156750000Y-127300000D03*
X156750000Y-128400000D03*
X156750000Y-129500000D03*
X156750000Y-130600000D03*
X156750000Y-131700000D03*
X156750000Y-132800000D03*
X156750000Y-133900000D03*
X156750000Y-135000000D03*
X156750000Y-136100000D03*
D32*
X145750000Y-133900000D03*
X145750000Y-132800000D03*
X145750000Y-131700000D03*
X145750000Y-130600000D03*
X145750000Y-129500000D03*
X145750000Y-128400000D03*
X145750000Y-127300000D03*
X145750000Y-126200000D03*
X145750000Y-125100000D03*
X145750000Y-124000000D03*
X145750000Y-122900000D03*
X154550000Y-122900000D03*
X154550000Y-124000000D03*
X154550000Y-125100000D03*
X154550000Y-126200000D03*
X154550000Y-127300000D03*
X154550000Y-128400000D03*
X154550000Y-129500000D03*
X154550000Y-130600000D03*
X154550000Y-131700000D03*
X154550000Y-132800000D03*
X154550000Y-133900000D03*
%TD*%
D19*
%TO.C,R1*%
X159800000Y-128777679D03*
X159800000Y-127127679D03*
%TD*%
D33*
%TO.C,D12*%
X141570000Y-51810000D03*
X140920000Y-51810000D03*
X140270000Y-51810000D03*
X140270000Y-49910000D03*
X140920000Y-49910000D03*
X141570000Y-49910000D03*
%TD*%
D34*
%TO.C,D6*%
X172500000Y-39600000D03*
D35*
X169400000Y-39600000D03*
%TD*%
D36*
%TO.C,C3*%
X152655000Y-93590000D03*
X154205000Y-93590000D03*
%TD*%
D37*
%TO.C,C1*%
X143660000Y-87265000D03*
X143660000Y-88815000D03*
%TD*%
D38*
%TO.C,J4*%
X146800000Y-48506927D03*
X147600000Y-48506927D03*
D39*
X148750000Y-48506927D03*
X149750000Y-48506927D03*
X150250000Y-48506927D03*
X151250000Y-48506927D03*
D38*
X152400000Y-48506927D03*
X153200000Y-48506927D03*
X153200000Y-48506927D03*
X152400000Y-48506927D03*
D39*
X151750000Y-48506927D03*
X150750000Y-48506927D03*
X149250000Y-48506927D03*
X148250000Y-48506927D03*
D38*
X147600000Y-48506927D03*
X146800000Y-48506927D03*
D40*
X145680000Y-43751927D03*
D41*
X145680000Y-47931927D03*
D40*
X154320000Y-43751927D03*
D41*
X154320000Y-47931927D03*
%TD*%
D42*
%TO.C,BT1*%
X168590000Y-59840000D03*
X168590000Y-58590000D03*
D43*
X165390000Y-61690000D03*
X165390000Y-56740000D03*
%TD*%
D15*
%TO.C,R8*%
X154025000Y-73850000D03*
X152375000Y-73850000D03*
%TD*%
D44*
%TO.C,FB5*%
X146800000Y-54525000D03*
X146800000Y-52400000D03*
%TD*%
D45*
%TO.C,RN2*%
X142150000Y-58002679D03*
X141450000Y-58002679D03*
X141450000Y-57002679D03*
X142150000Y-57002679D03*
%TD*%
D46*
%TO.C,R2*%
X132100000Y-40330000D03*
X133750000Y-40330000D03*
%TD*%
D47*
%TO.C,J6*%
X147750000Y-88350000D03*
X148250000Y-88350000D03*
X148750000Y-88350000D03*
X149250000Y-88350000D03*
X149750000Y-88350000D03*
X150250000Y-88350000D03*
X150750000Y-88350000D03*
X151250000Y-88350000D03*
X151750000Y-88350000D03*
X152250000Y-88350000D03*
D48*
X145850000Y-85100000D03*
X154150000Y-85100000D03*
%TD*%
D24*
%TO.C,C47*%
X162420000Y-55160000D03*
X160870000Y-55160000D03*
%TD*%
D37*
%TO.C,C2*%
X154320000Y-90385000D03*
X154320000Y-91935000D03*
%TD*%
D46*
%TO.C,R14*%
X166265000Y-40330000D03*
X167915000Y-40330000D03*
%TD*%
D28*
%TO.C,D10*%
X150960000Y-53656573D03*
X150960000Y-54306573D03*
X150960000Y-54956573D03*
X149060000Y-54956573D03*
X149060000Y-54306573D03*
X149060000Y-53656573D03*
%TD*%
D27*
%TO.C,R9*%
X160629900Y-131155000D03*
X160629900Y-132805000D03*
%TD*%
D25*
%TO.C,FB4*%
X156510000Y-88342500D03*
X156510000Y-89917500D03*
%TD*%
D26*
%TO.C,D88*%
X159450000Y-68340000D03*
X159450000Y-65540000D03*
%TD*%
D36*
%TO.C,C44*%
X166625000Y-72330000D03*
X168175000Y-72330000D03*
%TD*%
D37*
%TO.C,C46*%
X162400000Y-51485000D03*
X162400000Y-53035000D03*
%TD*%
D49*
%TO.C,L1*%
X165037500Y-74450000D03*
X163462500Y-74450000D03*
%TD*%
D19*
%TO.C,R5*%
X143660000Y-91885000D03*
X143660000Y-90235000D03*
%TD*%
D45*
%TO.C,RN3*%
X139150000Y-124352679D03*
X138450000Y-124352679D03*
X138450000Y-123352679D03*
X139150000Y-123352679D03*
%TD*%
D50*
%TO.C,J7*%
X133454276Y-71870000D03*
X133454276Y-72670000D03*
D51*
X135404276Y-70570000D03*
X135404276Y-73970000D03*
%TD*%
D27*
%TO.C,R3*%
X156100000Y-47285000D03*
X156100000Y-48935000D03*
%TD*%
%TO.C,R13*%
X156510000Y-85055000D03*
X156510000Y-86705000D03*
%TD*%
%TO.C,R4*%
X143900000Y-47285000D03*
X143900000Y-48935000D03*
%TD*%
D19*
%TO.C,R10*%
X158990000Y-132805000D03*
X158990000Y-131155000D03*
%TD*%
D52*
%TO.C,FB1*%
X154300000Y-52400000D03*
X154300000Y-54525000D03*
%TD*%
D19*
%TO.C,R6*%
X143660000Y-85855000D03*
X143660000Y-84205000D03*
%TD*%
D53*
%TO.C,U2*%
X163800001Y-53039999D03*
X164299999Y-53039999D03*
X164800001Y-53039999D03*
X165300000Y-53039999D03*
X165300000Y-54940001D03*
X164800001Y-54940001D03*
X164299999Y-54940001D03*
X163800001Y-54940001D03*
D54*
X164549999Y-53990000D03*
%TD*%
D55*
%TO.C,RN1*%
X158690000Y-135892679D03*
X158690000Y-135192679D03*
X159690000Y-135192679D03*
X159690000Y-135892679D03*
%TD*%
D56*
%TO.C,U5*%
X164370000Y-71750000D03*
X164870000Y-71750000D03*
X165370000Y-71750000D03*
X165370000Y-73175000D03*
X164870000Y-73175000D03*
X164370000Y-73175000D03*
%TD*%
D57*
%TO.C,J2*%
X131940000Y-58610000D03*
X131940000Y-59610000D03*
X131940000Y-60610000D03*
D58*
X135815000Y-57310000D03*
X135815000Y-61910000D03*
%TD*%
D59*
%TO.C,FB2*%
X158400000Y-45300000D03*
X156275000Y-45300000D03*
%TD*%
D47*
%TO.C,J1*%
X155250000Y-105800000D03*
X154750000Y-105800000D03*
X154250000Y-105800000D03*
X153750000Y-105800000D03*
X153250000Y-105800000D03*
X152750000Y-105800000D03*
X152250000Y-105800000D03*
X151750000Y-105800000D03*
X151250000Y-105800000D03*
X150750000Y-105800000D03*
X150250000Y-105800000D03*
X149750000Y-105800000D03*
X149250000Y-105800000D03*
X148750000Y-105800000D03*
X148250000Y-105800000D03*
X147750000Y-105800000D03*
X147250000Y-105800000D03*
X146750000Y-105800000D03*
X146250000Y-105800000D03*
X145750000Y-105800000D03*
X145250000Y-105800000D03*
X144750000Y-105800000D03*
D48*
X157150000Y-109050000D03*
X142850000Y-109050000D03*
%TD*%
M02*
