%TF.GenerationSoftware,KiCad,Pcbnew,8.0.8*%
%TF.CreationDate,2025-01-20T10:11:24+01:00*%
%TF.ProjectId,mariposa,6d617269-706f-4736-912e-6b696361645f,2.0*%
%TF.SameCoordinates,Original*%
%TF.FileFunction,Drillmap*%
%TF.FilePolarity,Positive*%
%FSLAX45Y45*%
G04 Gerber Fmt 4.5, Leading zero omitted, Abs format (unit mm)*
G04 Created by KiCad (PCBNEW 8.0.8) date 2025-01-20 10:11:24*
%MOMM*%
%LPD*%
G01*
G04 APERTURE LIST*
%ADD10C,0.201083*%
%ADD11C,0.050000*%
%ADD12C,0.200000*%
%ADD13C,0.100000*%
G04 APERTURE END LIST*
D10*
X17089504Y-3605015D02*
X17109411Y-3606408D01*
X17129294Y-3608757D01*
X17149103Y-3612047D01*
X17168785Y-3616264D01*
X17188288Y-3621393D01*
X17207562Y-3627418D01*
X17226554Y-3634325D01*
X17245213Y-3642100D01*
X17263488Y-3650727D01*
X17281325Y-3660191D01*
X17298675Y-3670479D01*
X17315485Y-3681574D01*
X17331704Y-3693463D01*
X17347280Y-3706130D01*
X17362162Y-3719560D01*
X17376297Y-3733739D01*
X17389634Y-3748652D01*
X17402122Y-3764284D01*
X17413709Y-3780621D01*
X17424344Y-3797646D01*
X17433974Y-3815347D01*
X17442548Y-3833707D01*
X17450015Y-3852712D01*
X17456798Y-3874065D01*
X17462023Y-3895619D01*
X17465734Y-3917315D01*
X17467969Y-3939094D01*
X17468772Y-3960896D01*
X17468184Y-3982663D01*
X17466245Y-4004335D01*
X17462997Y-4025853D01*
X17458481Y-4047158D01*
X17452740Y-4068192D01*
X17445814Y-4088894D01*
X17437745Y-4109205D01*
X17428574Y-4129068D01*
X17418342Y-4148421D01*
X17407091Y-4167207D01*
X17394862Y-4185366D01*
X17381697Y-4202839D01*
X17367637Y-4219567D01*
X17352724Y-4235491D01*
X17336998Y-4250551D01*
X17320501Y-4264689D01*
X17303275Y-4277845D01*
X17285361Y-4289960D01*
X17266800Y-4300975D01*
X17247634Y-4310831D01*
X17227904Y-4319469D01*
X17207651Y-4326830D01*
X17186917Y-4332854D01*
X17165743Y-4337483D01*
X17144171Y-4340656D01*
X17122242Y-4342316D01*
X17099998Y-4342403D01*
X17080905Y-4341243D01*
X17062480Y-4339058D01*
X17044717Y-4335919D01*
X17027612Y-4331895D01*
X17011163Y-4327056D01*
X16995364Y-4321470D01*
X16980212Y-4315209D01*
X16965703Y-4308341D01*
X16951833Y-4300935D01*
X16938598Y-4293062D01*
X16925993Y-4284791D01*
X16914016Y-4276192D01*
X16891926Y-4258287D01*
X16872296Y-4239904D01*
X16855095Y-4221598D01*
X16840290Y-4203927D01*
X16827851Y-4187448D01*
X16817744Y-4172717D01*
X16804402Y-4150725D01*
X16800011Y-4142405D01*
X16793670Y-4142959D01*
X16786006Y-4143964D01*
X16775581Y-4145731D01*
X16762571Y-4148466D01*
X16747151Y-4152379D01*
X16729496Y-4157677D01*
X16709782Y-4164567D01*
X16688185Y-4173257D01*
X16676735Y-4178341D01*
X16664881Y-4183954D01*
X16652643Y-4190120D01*
X16640044Y-4196866D01*
X16627106Y-4204218D01*
X16613850Y-4212201D01*
X16600300Y-4220842D01*
X16586476Y-4230167D01*
X16572401Y-4240201D01*
X16558096Y-4250971D01*
X16543584Y-4262501D01*
X16528887Y-4274820D01*
X16514025Y-4287951D01*
X16499023Y-4301922D01*
X16490614Y-4310230D01*
X16482726Y-4318576D01*
X16475340Y-4326961D01*
X16468438Y-4335388D01*
X16462003Y-4343859D01*
X16456017Y-4352375D01*
X16450463Y-4360939D01*
X16445322Y-4369552D01*
X16436211Y-4386935D01*
X16428541Y-4404540D01*
X16422172Y-4422381D01*
X16416962Y-4440474D01*
X16412769Y-4458836D01*
X16409451Y-4477482D01*
X16406867Y-4496427D01*
X16404874Y-4515688D01*
X16402098Y-4555216D01*
X16399990Y-4596192D01*
X16500262Y-4672328D01*
X16595748Y-4753503D01*
X16686217Y-4839498D01*
X16771436Y-4930098D01*
X16851173Y-5025086D01*
X16925196Y-5124244D01*
X16993271Y-5227357D01*
X17055167Y-5334207D01*
X17110651Y-5444578D01*
X17159491Y-5558254D01*
X17201455Y-5675018D01*
X17236310Y-5794652D01*
X17263824Y-5916941D01*
X17283765Y-6041668D01*
X17290823Y-6104878D01*
X17295900Y-6168616D01*
X17298967Y-6232855D01*
X17299996Y-6297568D01*
X17295586Y-6431349D01*
X17282528Y-6562963D01*
X17261082Y-6692167D01*
X17231508Y-6818721D01*
X17194066Y-6942380D01*
X17149015Y-7062904D01*
X17096615Y-7180050D01*
X17037126Y-7293575D01*
X16970808Y-7403239D01*
X16897920Y-7508797D01*
X16818722Y-7610009D01*
X16733474Y-7706632D01*
X16642436Y-7798423D01*
X16545867Y-7885141D01*
X16444028Y-7966544D01*
X16337177Y-8042389D01*
X17320818Y-9945696D01*
X17329660Y-9963898D01*
X17337504Y-9982328D01*
X17344359Y-10000952D01*
X17350237Y-10019738D01*
X17355146Y-10038655D01*
X17359097Y-10057669D01*
X17362099Y-10076748D01*
X17364163Y-10095860D01*
X17365297Y-10114972D01*
X17365513Y-10134052D01*
X17364821Y-10153067D01*
X17363228Y-10171986D01*
X17360747Y-10190775D01*
X17357387Y-10209402D01*
X17353157Y-10227835D01*
X17348067Y-10246041D01*
X17342128Y-10263988D01*
X17335349Y-10281643D01*
X17327741Y-10298975D01*
X17319312Y-10315950D01*
X17310073Y-10332536D01*
X17300034Y-10348701D01*
X17289205Y-10364412D01*
X17277595Y-10379637D01*
X17265215Y-10394344D01*
X17252074Y-10408500D01*
X17238182Y-10422072D01*
X17223550Y-10435028D01*
X17208186Y-10447337D01*
X17192102Y-10458964D01*
X17175306Y-10469879D01*
X17157809Y-10480048D01*
X16203245Y-11003526D01*
X16190244Y-11011079D01*
X16177758Y-11019182D01*
X16165794Y-11027811D01*
X16154360Y-11036943D01*
X16143463Y-11046554D01*
X16133110Y-11056619D01*
X16123308Y-11067117D01*
X16114066Y-11078023D01*
X16105390Y-11089313D01*
X16097288Y-11100964D01*
X16089768Y-11112952D01*
X16082835Y-11125253D01*
X16076499Y-11137845D01*
X16070766Y-11150703D01*
X16065644Y-11163803D01*
X16061140Y-11177123D01*
X16057261Y-11190638D01*
X16054016Y-11204324D01*
X16051410Y-11218159D01*
X16049452Y-11232119D01*
X16048149Y-11246179D01*
X16047508Y-11260317D01*
X16047537Y-11274508D01*
X16048243Y-11288729D01*
X16049634Y-11302957D01*
X16051717Y-11317168D01*
X16054498Y-11331337D01*
X16057987Y-11345442D01*
X16062189Y-11359459D01*
X16067113Y-11373365D01*
X16072765Y-11387135D01*
X16079154Y-11400745D01*
X16800011Y-12842407D01*
X16819550Y-12891286D01*
X16830601Y-12942159D01*
X16833524Y-12994796D01*
X16828679Y-13048961D01*
X16816427Y-13104425D01*
X16797126Y-13160952D01*
X16771136Y-13218312D01*
X16738818Y-13276272D01*
X16700531Y-13334598D01*
X16656634Y-13393058D01*
X16607488Y-13451420D01*
X16553453Y-13509452D01*
X16494888Y-13566920D01*
X16432153Y-13623591D01*
X16365607Y-13679234D01*
X16295611Y-13733616D01*
X16222525Y-13786504D01*
X16146707Y-13837666D01*
X16068519Y-13886868D01*
X15988319Y-13933879D01*
X15906468Y-13978465D01*
X15823325Y-14020395D01*
X15739249Y-14059435D01*
X15654602Y-14095354D01*
X15569742Y-14127917D01*
X15485030Y-14156894D01*
X15400825Y-14182051D01*
X15317487Y-14203155D01*
X15235375Y-14219974D01*
X15154850Y-14232276D01*
X15076272Y-14239828D01*
X14999999Y-14242397D01*
X14923727Y-14239828D01*
X14845148Y-14232276D01*
X14764624Y-14219974D01*
X14682513Y-14203155D01*
X14514971Y-14156894D01*
X14345400Y-14095354D01*
X14176680Y-14020395D01*
X14011688Y-13933879D01*
X13853302Y-13837666D01*
X13704400Y-13733616D01*
X13567862Y-13623591D01*
X13446564Y-13509452D01*
X13343385Y-13393058D01*
X13299489Y-13334598D01*
X13261203Y-13276272D01*
X13228886Y-13218312D01*
X13202897Y-13160952D01*
X13183597Y-13104425D01*
X13171344Y-13048961D01*
X13166500Y-12994796D01*
X13169424Y-12942159D01*
X13180475Y-12891286D01*
X13200013Y-12842407D01*
X13920844Y-11400745D01*
X13927233Y-11387135D01*
X13932885Y-11373365D01*
X13937809Y-11359459D01*
X13942011Y-11345442D01*
X13945500Y-11331337D01*
X13948282Y-11317168D01*
X13950364Y-11302957D01*
X13951755Y-11288729D01*
X13952461Y-11274508D01*
X13952490Y-11260317D01*
X13951849Y-11246179D01*
X13950546Y-11232119D01*
X13948588Y-11218159D01*
X13945983Y-11204324D01*
X13942737Y-11190638D01*
X13938858Y-11177123D01*
X13934354Y-11163803D01*
X13929232Y-11150703D01*
X13923499Y-11137845D01*
X13917163Y-11125253D01*
X13910231Y-11112952D01*
X13902710Y-11100964D01*
X13894608Y-11089313D01*
X13885932Y-11078023D01*
X13876690Y-11067117D01*
X13866889Y-11056619D01*
X13856536Y-11046554D01*
X13845638Y-11036943D01*
X13834204Y-11027811D01*
X13822240Y-11019182D01*
X13809754Y-11011079D01*
X13796754Y-11003526D01*
X12842190Y-10480048D01*
X12824696Y-10469879D01*
X12807902Y-10458964D01*
X12791819Y-10447337D01*
X12776457Y-10435028D01*
X12761826Y-10422072D01*
X12747935Y-10408500D01*
X12734795Y-10394344D01*
X12722415Y-10379637D01*
X12710806Y-10364412D01*
X12699977Y-10348701D01*
X12689938Y-10332536D01*
X12680699Y-10315950D01*
X12672270Y-10298975D01*
X12664661Y-10281643D01*
X12657881Y-10263988D01*
X12651941Y-10246041D01*
X12646851Y-10227835D01*
X12642621Y-10209402D01*
X12639259Y-10190775D01*
X12636777Y-10171986D01*
X12635184Y-10153067D01*
X12634491Y-10134052D01*
X12634706Y-10114972D01*
X12635840Y-10095860D01*
X12637903Y-10076748D01*
X12640904Y-10057669D01*
X12644854Y-10038655D01*
X12649763Y-10019738D01*
X12655640Y-10000952D01*
X12662495Y-9982328D01*
X12670339Y-9963898D01*
X12679180Y-9945696D01*
X13662821Y-8042389D01*
X13555970Y-7966544D01*
X13454131Y-7885141D01*
X13357562Y-7798423D01*
X13266524Y-7706632D01*
X13181276Y-7610009D01*
X13102079Y-7508797D01*
X13029191Y-7403239D01*
X12962873Y-7293575D01*
X12903384Y-7180050D01*
X12850984Y-7062904D01*
X12805933Y-6942380D01*
X12786245Y-6880927D01*
X12768491Y-6818721D01*
X12752704Y-6755791D01*
X12738917Y-6692167D01*
X12727162Y-6627881D01*
X12717471Y-6562963D01*
X12709878Y-6497442D01*
X12704413Y-6431349D01*
X12701111Y-6364714D01*
X12700003Y-6297568D01*
X12704126Y-6168205D01*
X12716338Y-6040860D01*
X12736405Y-5915751D01*
X12764091Y-5793097D01*
X12799163Y-5673118D01*
X12841387Y-5556032D01*
X12890526Y-5442057D01*
X12946347Y-5331412D01*
X13008615Y-5224317D01*
X13077095Y-5120990D01*
X13151553Y-5021650D01*
X13231755Y-4926515D01*
X13317465Y-4835805D01*
X13408449Y-4749738D01*
X13504473Y-4668533D01*
X13605302Y-4592408D01*
X13604208Y-4571925D01*
X13602989Y-4551890D01*
X13601517Y-4532278D01*
X13600646Y-4522621D01*
X13599665Y-4513060D01*
X13598480Y-4502982D01*
X13597135Y-4493007D01*
X13595612Y-4483129D01*
X13593891Y-4473346D01*
X13591954Y-4463651D01*
X13589784Y-4454042D01*
X13587360Y-4444513D01*
X13584664Y-4435060D01*
X13581914Y-4426404D01*
X13578901Y-4417807D01*
X13575612Y-4409266D01*
X13572031Y-4400777D01*
X13568144Y-4392339D01*
X13563937Y-4383947D01*
X13559394Y-4375598D01*
X13554501Y-4367291D01*
X13549244Y-4359020D01*
X13543608Y-4350785D01*
X13537577Y-4342580D01*
X13531138Y-4334404D01*
X13524276Y-4326253D01*
X13516976Y-4318125D01*
X13509223Y-4310015D01*
X13501003Y-4301922D01*
X13471135Y-4274820D01*
X13441922Y-4250971D01*
X13413539Y-4230167D01*
X13386164Y-4212201D01*
X13359969Y-4196866D01*
X13335133Y-4183954D01*
X13311829Y-4173257D01*
X13290233Y-4164567D01*
X13270520Y-4157677D01*
X13252867Y-4152379D01*
X13224439Y-4145731D01*
X13206353Y-4142959D01*
X13200013Y-4142405D01*
X13195621Y-4150725D01*
X13190084Y-4160290D01*
X13182277Y-4172717D01*
X13172168Y-4187448D01*
X13159726Y-4203927D01*
X13144919Y-4221598D01*
X13127715Y-4239904D01*
X13118205Y-4249120D01*
X13108083Y-4258287D01*
X13097346Y-4267334D01*
X13085991Y-4276192D01*
X13074012Y-4284791D01*
X13061407Y-4293062D01*
X13048171Y-4300935D01*
X13034300Y-4308341D01*
X13019790Y-4315209D01*
X13004637Y-4321470D01*
X12988838Y-4327056D01*
X12972388Y-4331895D01*
X12955283Y-4335919D01*
X12937520Y-4339058D01*
X12919094Y-4341243D01*
X12900001Y-4342403D01*
X12877757Y-4342316D01*
X12855828Y-4340656D01*
X12834256Y-4337483D01*
X12813082Y-4332854D01*
X12792348Y-4326830D01*
X12772096Y-4319469D01*
X12752366Y-4310831D01*
X12733199Y-4300975D01*
X12714639Y-4289960D01*
X12696725Y-4277845D01*
X12679499Y-4264689D01*
X12663003Y-4250551D01*
X12647277Y-4235491D01*
X12632364Y-4219567D01*
X12618304Y-4202839D01*
X12605140Y-4185366D01*
X12592912Y-4167207D01*
X12581662Y-4148421D01*
X12571431Y-4129068D01*
X12562261Y-4109205D01*
X12554193Y-4088894D01*
X12547268Y-4068192D01*
X12541528Y-4047158D01*
X12537014Y-4025853D01*
X12533767Y-4004335D01*
X12531830Y-3982663D01*
X12531243Y-3960896D01*
X12532047Y-3939094D01*
X12534285Y-3917315D01*
X12537997Y-3895619D01*
X12543225Y-3874065D01*
X12550011Y-3852712D01*
X12557475Y-3833707D01*
X12566047Y-3815347D01*
X12575675Y-3797646D01*
X12586307Y-3780621D01*
X12597892Y-3764284D01*
X12610379Y-3748652D01*
X12623715Y-3733739D01*
X12637849Y-3719560D01*
X12652729Y-3706130D01*
X12668303Y-3693463D01*
X12684521Y-3681574D01*
X12701330Y-3670479D01*
X12718679Y-3660191D01*
X12736516Y-3650727D01*
X12754790Y-3642100D01*
X12773448Y-3634325D01*
X12792440Y-3627418D01*
X12811713Y-3621393D01*
X12831216Y-3616264D01*
X12850898Y-3612047D01*
X12870706Y-3608757D01*
X12890589Y-3606408D01*
X12910496Y-3605015D01*
X12930375Y-3604593D01*
X12950173Y-3605157D01*
X12969841Y-3606722D01*
X12989325Y-3609302D01*
X13008575Y-3612912D01*
X13027538Y-3617567D01*
X13046163Y-3623281D01*
X13064399Y-3630071D01*
X13082194Y-3637950D01*
X13096326Y-3645119D01*
X13109646Y-3652636D01*
X13122180Y-3660463D01*
X13133949Y-3668562D01*
X13144979Y-3676896D01*
X13155293Y-3685427D01*
X13164914Y-3694117D01*
X13173867Y-3702928D01*
X13182175Y-3711823D01*
X13189862Y-3720764D01*
X13196951Y-3729713D01*
X13203468Y-3738633D01*
X13214875Y-3756232D01*
X13224274Y-3773261D01*
X13231855Y-3789417D01*
X13237808Y-3804399D01*
X13242324Y-3817903D01*
X13245591Y-3829629D01*
X13249145Y-3846539D01*
X13249992Y-3852712D01*
X13266220Y-3850115D01*
X13311434Y-3845054D01*
X13343285Y-3842880D01*
X13380431Y-3841627D01*
X13422221Y-3841807D01*
X13468005Y-3843931D01*
X13517132Y-3848513D01*
X13568953Y-3856065D01*
X13595669Y-3861114D01*
X13622815Y-3867098D01*
X13650309Y-3874080D01*
X13678069Y-3882124D01*
X13706015Y-3891295D01*
X13734065Y-3901657D01*
X13762137Y-3913273D01*
X13790151Y-3926208D01*
X13818025Y-3940525D01*
X13845677Y-3956289D01*
X13873027Y-3973563D01*
X13899993Y-3992412D01*
X13922217Y-4009359D01*
X13943633Y-4026922D01*
X13964226Y-4045041D01*
X13983981Y-4063657D01*
X14002882Y-4082711D01*
X14020913Y-4102142D01*
X14038059Y-4121893D01*
X14054306Y-4141902D01*
X14069636Y-4162111D01*
X14084034Y-4182460D01*
X14097486Y-4202890D01*
X14109976Y-4223342D01*
X14121487Y-4243755D01*
X14132005Y-4264071D01*
X14141514Y-4284229D01*
X14149999Y-4304171D01*
X14199588Y-4286368D01*
X14249720Y-4269610D01*
X14300379Y-4253911D01*
X14351552Y-4239286D01*
X14403221Y-4225748D01*
X14455373Y-4213313D01*
X14507990Y-4201994D01*
X14561059Y-4191806D01*
X14614563Y-4182762D01*
X14668488Y-4174879D01*
X14722818Y-4168169D01*
X14777536Y-4162646D01*
X14832630Y-4158327D01*
X14888081Y-4155223D01*
X14943876Y-4153351D01*
X14999999Y-4152723D01*
X15056122Y-4153351D01*
X15111918Y-4155223D01*
X15167369Y-4158327D01*
X15222463Y-4162646D01*
X15277182Y-4168169D01*
X15331511Y-4174879D01*
X15385436Y-4182762D01*
X15438940Y-4191806D01*
X15492009Y-4201994D01*
X15544627Y-4213313D01*
X15596778Y-4225748D01*
X15648447Y-4239286D01*
X15699620Y-4253911D01*
X15750279Y-4269610D01*
X15849999Y-4304171D01*
X15858484Y-4284229D01*
X15867993Y-4264071D01*
X15878511Y-4243755D01*
X15890023Y-4223342D01*
X15902512Y-4202890D01*
X15915964Y-4182460D01*
X15930363Y-4162111D01*
X15945693Y-4141902D01*
X15961939Y-4121893D01*
X15979085Y-4102142D01*
X15997117Y-4082711D01*
X16016018Y-4063657D01*
X16035772Y-4045041D01*
X16056366Y-4026922D01*
X16077782Y-4009359D01*
X16100005Y-3992412D01*
X16126971Y-3973563D01*
X16154321Y-3956289D01*
X16181973Y-3940525D01*
X16209847Y-3926208D01*
X16265933Y-3901657D01*
X16321929Y-3882124D01*
X16377183Y-3867098D01*
X16431046Y-3856065D01*
X16482866Y-3848513D01*
X16531993Y-3843931D01*
X16577778Y-3841807D01*
X16619568Y-3841627D01*
X16688564Y-3845054D01*
X16750007Y-3852712D01*
X16750853Y-3846539D01*
X16752197Y-3839275D01*
X16754407Y-3829629D01*
X16757675Y-3817903D01*
X16762190Y-3804399D01*
X16768143Y-3789417D01*
X16771718Y-3781467D01*
X16775724Y-3773261D01*
X16780184Y-3764837D01*
X16785123Y-3756232D01*
X16790564Y-3747485D01*
X16796531Y-3738633D01*
X16803047Y-3729713D01*
X16810137Y-3720764D01*
X16817824Y-3711823D01*
X16826132Y-3702928D01*
X16835085Y-3694117D01*
X16844706Y-3685427D01*
X16855020Y-3676896D01*
X16866049Y-3668562D01*
X16877819Y-3660463D01*
X16890352Y-3652636D01*
X16903673Y-3645119D01*
X16917805Y-3637950D01*
X16935599Y-3630071D01*
X16953835Y-3623281D01*
X16972461Y-3617567D01*
X16991424Y-3612912D01*
X17010674Y-3609302D01*
X17030158Y-3606722D01*
X17049826Y-3605157D01*
X17069625Y-3604593D01*
X17089504Y-3605015D01*
D11*
X14450000Y-7630000D02*
G75*
G02*
X14500000Y-7580000I50000J0D01*
G01*
X14500000Y-7680000D02*
G75*
G02*
X14450000Y-7630000I0J50000D01*
G01*
X14500000Y-7680000D02*
X15500000Y-7680000D01*
X15550000Y-7630000D02*
G75*
G02*
X15500000Y-7680000I-50000J0D01*
G01*
X15500000Y-7580000D02*
G75*
G02*
X15550000Y-7630000I0J-50000D01*
G01*
X15500000Y-7580000D02*
X14500000Y-7580000D01*
X12802000Y-3885000D02*
X12802000Y-4035000D01*
X13007000Y-3870000D02*
X12817000Y-3870000D01*
X13007000Y-4050000D02*
X12817000Y-4050000D01*
X13022000Y-3885000D02*
X13022000Y-4035000D01*
X12802000Y-3885000D02*
G75*
G02*
X12817000Y-3870000I15000J0D01*
G01*
X12817000Y-4050000D02*
G75*
G02*
X12802000Y-4035000I0J15000D01*
G01*
X13007000Y-3870000D02*
G75*
G02*
X13022000Y-3885000I0J-15000D01*
G01*
X13022000Y-4035000D02*
G75*
G02*
X13007000Y-4050000I-15000J0D01*
G01*
X14910000Y-7323268D02*
X14910000Y-7133268D01*
X15075000Y-7118268D02*
X14925000Y-7118268D01*
X15075000Y-7338268D02*
X14925000Y-7338268D01*
X15090000Y-7323268D02*
X15090000Y-7133268D01*
X14910000Y-7133268D02*
G75*
G02*
X14925000Y-7118268I15000J0D01*
G01*
X14925000Y-7338268D02*
G75*
G02*
X14910000Y-7323268I0J15000D01*
G01*
X15075000Y-7118268D02*
G75*
G02*
X15090000Y-7133268I0J-15000D01*
G01*
X15090000Y-7323268D02*
G75*
G02*
X15075000Y-7338268I-15000J0D01*
G01*
X16985000Y-4035000D02*
X16985000Y-3885000D01*
X17000000Y-3870000D02*
X17190000Y-3870000D01*
X17000000Y-4050000D02*
X17190000Y-4050000D01*
X17205000Y-4035000D02*
X17205000Y-3885000D01*
X16985000Y-3885000D02*
G75*
G02*
X17000000Y-3870000I15000J0D01*
G01*
X17000000Y-4050000D02*
G75*
G02*
X16985000Y-4035000I0J15000D01*
G01*
X17190000Y-3870000D02*
G75*
G02*
X17205000Y-3885000I0J-15000D01*
G01*
X17205000Y-4035000D02*
G75*
G02*
X17190000Y-4050000I-15000J0D01*
G01*
D12*
D13*
X14678500Y-4710693D02*
X14743500Y-4775693D01*
X14743500Y-4710693D02*
X14678500Y-4775693D01*
X15256500Y-4710693D02*
X15321500Y-4775693D01*
X15321500Y-4710693D02*
X15256500Y-4775693D01*
X16151430Y-12564000D02*
G75*
G02*
X16052370Y-12564000I-49530J0D01*
G01*
X16052370Y-12564000D02*
G75*
G02*
X16151430Y-12564000I49530J0D01*
G01*
X16253030Y-12056000D02*
G75*
G02*
X16153970Y-12056000I-49530J0D01*
G01*
X16153970Y-12056000D02*
G75*
G02*
X16253030Y-12056000I49530J0D01*
G01*
X16354630Y-12564000D02*
G75*
G02*
X16255570Y-12564000I-49530J0D01*
G01*
X16255570Y-12564000D02*
G75*
G02*
X16354630Y-12564000I49530J0D01*
G01*
D12*
X12781965Y-14563935D02*
X12781965Y-14363935D01*
X12781965Y-14363935D02*
X12829584Y-14363935D01*
X12829584Y-14363935D02*
X12858156Y-14373458D01*
X12858156Y-14373458D02*
X12877203Y-14392506D01*
X12877203Y-14392506D02*
X12886727Y-14411554D01*
X12886727Y-14411554D02*
X12896251Y-14449649D01*
X12896251Y-14449649D02*
X12896251Y-14478220D01*
X12896251Y-14478220D02*
X12886727Y-14516315D01*
X12886727Y-14516315D02*
X12877203Y-14535363D01*
X12877203Y-14535363D02*
X12858156Y-14554411D01*
X12858156Y-14554411D02*
X12829584Y-14563935D01*
X12829584Y-14563935D02*
X12781965Y-14563935D01*
X12981965Y-14563935D02*
X12981965Y-14430601D01*
X12981965Y-14468696D02*
X12991489Y-14449649D01*
X12991489Y-14449649D02*
X13001013Y-14440125D01*
X13001013Y-14440125D02*
X13020061Y-14430601D01*
X13020061Y-14430601D02*
X13039108Y-14430601D01*
X13105775Y-14563935D02*
X13105775Y-14430601D01*
X13105775Y-14363935D02*
X13096251Y-14373458D01*
X13096251Y-14373458D02*
X13105775Y-14382982D01*
X13105775Y-14382982D02*
X13115299Y-14373458D01*
X13115299Y-14373458D02*
X13105775Y-14363935D01*
X13105775Y-14363935D02*
X13105775Y-14382982D01*
X13229584Y-14563935D02*
X13210537Y-14554411D01*
X13210537Y-14554411D02*
X13201013Y-14535363D01*
X13201013Y-14535363D02*
X13201013Y-14363935D01*
X13334346Y-14563935D02*
X13315299Y-14554411D01*
X13315299Y-14554411D02*
X13305775Y-14535363D01*
X13305775Y-14535363D02*
X13305775Y-14363935D01*
X13562918Y-14563935D02*
X13562918Y-14363935D01*
X13562918Y-14363935D02*
X13629584Y-14506792D01*
X13629584Y-14506792D02*
X13696251Y-14363935D01*
X13696251Y-14363935D02*
X13696251Y-14563935D01*
X13877203Y-14563935D02*
X13877203Y-14459173D01*
X13877203Y-14459173D02*
X13867680Y-14440125D01*
X13867680Y-14440125D02*
X13848632Y-14430601D01*
X13848632Y-14430601D02*
X13810537Y-14430601D01*
X13810537Y-14430601D02*
X13791489Y-14440125D01*
X13877203Y-14554411D02*
X13858156Y-14563935D01*
X13858156Y-14563935D02*
X13810537Y-14563935D01*
X13810537Y-14563935D02*
X13791489Y-14554411D01*
X13791489Y-14554411D02*
X13781965Y-14535363D01*
X13781965Y-14535363D02*
X13781965Y-14516315D01*
X13781965Y-14516315D02*
X13791489Y-14497268D01*
X13791489Y-14497268D02*
X13810537Y-14487744D01*
X13810537Y-14487744D02*
X13858156Y-14487744D01*
X13858156Y-14487744D02*
X13877203Y-14478220D01*
X13972442Y-14430601D02*
X13972442Y-14630601D01*
X13972442Y-14440125D02*
X13991489Y-14430601D01*
X13991489Y-14430601D02*
X14029584Y-14430601D01*
X14029584Y-14430601D02*
X14048632Y-14440125D01*
X14048632Y-14440125D02*
X14058156Y-14449649D01*
X14058156Y-14449649D02*
X14067680Y-14468696D01*
X14067680Y-14468696D02*
X14067680Y-14525839D01*
X14067680Y-14525839D02*
X14058156Y-14544887D01*
X14058156Y-14544887D02*
X14048632Y-14554411D01*
X14048632Y-14554411D02*
X14029584Y-14563935D01*
X14029584Y-14563935D02*
X13991489Y-14563935D01*
X13991489Y-14563935D02*
X13972442Y-14554411D01*
X14153394Y-14544887D02*
X14162918Y-14554411D01*
X14162918Y-14554411D02*
X14153394Y-14563935D01*
X14153394Y-14563935D02*
X14143870Y-14554411D01*
X14143870Y-14554411D02*
X14153394Y-14544887D01*
X14153394Y-14544887D02*
X14153394Y-14563935D01*
X14153394Y-14440125D02*
X14162918Y-14449649D01*
X14162918Y-14449649D02*
X14153394Y-14459173D01*
X14153394Y-14459173D02*
X14143870Y-14449649D01*
X14143870Y-14449649D02*
X14153394Y-14440125D01*
X14153394Y-14440125D02*
X14153394Y-14459173D01*
D13*
X12456189Y-14859951D02*
X12521189Y-14924951D01*
X12521189Y-14859951D02*
X12456189Y-14924951D01*
D12*
X12820061Y-14783935D02*
X12839108Y-14783935D01*
X12839108Y-14783935D02*
X12858156Y-14793458D01*
X12858156Y-14793458D02*
X12867680Y-14802982D01*
X12867680Y-14802982D02*
X12877203Y-14822030D01*
X12877203Y-14822030D02*
X12886727Y-14860125D01*
X12886727Y-14860125D02*
X12886727Y-14907744D01*
X12886727Y-14907744D02*
X12877203Y-14945839D01*
X12877203Y-14945839D02*
X12867680Y-14964887D01*
X12867680Y-14964887D02*
X12858156Y-14974411D01*
X12858156Y-14974411D02*
X12839108Y-14983935D01*
X12839108Y-14983935D02*
X12820061Y-14983935D01*
X12820061Y-14983935D02*
X12801013Y-14974411D01*
X12801013Y-14974411D02*
X12791489Y-14964887D01*
X12791489Y-14964887D02*
X12781965Y-14945839D01*
X12781965Y-14945839D02*
X12772442Y-14907744D01*
X12772442Y-14907744D02*
X12772442Y-14860125D01*
X12772442Y-14860125D02*
X12781965Y-14822030D01*
X12781965Y-14822030D02*
X12791489Y-14802982D01*
X12791489Y-14802982D02*
X12801013Y-14793458D01*
X12801013Y-14793458D02*
X12820061Y-14783935D01*
X12972442Y-14964887D02*
X12981965Y-14974411D01*
X12981965Y-14974411D02*
X12972442Y-14983935D01*
X12972442Y-14983935D02*
X12962918Y-14974411D01*
X12962918Y-14974411D02*
X12972442Y-14964887D01*
X12972442Y-14964887D02*
X12972442Y-14983935D01*
X13153394Y-14783935D02*
X13115299Y-14783935D01*
X13115299Y-14783935D02*
X13096251Y-14793458D01*
X13096251Y-14793458D02*
X13086727Y-14802982D01*
X13086727Y-14802982D02*
X13067680Y-14831554D01*
X13067680Y-14831554D02*
X13058156Y-14869649D01*
X13058156Y-14869649D02*
X13058156Y-14945839D01*
X13058156Y-14945839D02*
X13067680Y-14964887D01*
X13067680Y-14964887D02*
X13077203Y-14974411D01*
X13077203Y-14974411D02*
X13096251Y-14983935D01*
X13096251Y-14983935D02*
X13134346Y-14983935D01*
X13134346Y-14983935D02*
X13153394Y-14974411D01*
X13153394Y-14974411D02*
X13162918Y-14964887D01*
X13162918Y-14964887D02*
X13172442Y-14945839D01*
X13172442Y-14945839D02*
X13172442Y-14898220D01*
X13172442Y-14898220D02*
X13162918Y-14879173D01*
X13162918Y-14879173D02*
X13153394Y-14869649D01*
X13153394Y-14869649D02*
X13134346Y-14860125D01*
X13134346Y-14860125D02*
X13096251Y-14860125D01*
X13096251Y-14860125D02*
X13077203Y-14869649D01*
X13077203Y-14869649D02*
X13067680Y-14879173D01*
X13067680Y-14879173D02*
X13058156Y-14898220D01*
X13353394Y-14783935D02*
X13258156Y-14783935D01*
X13258156Y-14783935D02*
X13248632Y-14879173D01*
X13248632Y-14879173D02*
X13258156Y-14869649D01*
X13258156Y-14869649D02*
X13277203Y-14860125D01*
X13277203Y-14860125D02*
X13324823Y-14860125D01*
X13324823Y-14860125D02*
X13343870Y-14869649D01*
X13343870Y-14869649D02*
X13353394Y-14879173D01*
X13353394Y-14879173D02*
X13362918Y-14898220D01*
X13362918Y-14898220D02*
X13362918Y-14945839D01*
X13362918Y-14945839D02*
X13353394Y-14964887D01*
X13353394Y-14964887D02*
X13343870Y-14974411D01*
X13343870Y-14974411D02*
X13324823Y-14983935D01*
X13324823Y-14983935D02*
X13277203Y-14983935D01*
X13277203Y-14983935D02*
X13258156Y-14974411D01*
X13258156Y-14974411D02*
X13248632Y-14964887D01*
X13486727Y-14783935D02*
X13505775Y-14783935D01*
X13505775Y-14783935D02*
X13524823Y-14793458D01*
X13524823Y-14793458D02*
X13534346Y-14802982D01*
X13534346Y-14802982D02*
X13543870Y-14822030D01*
X13543870Y-14822030D02*
X13553394Y-14860125D01*
X13553394Y-14860125D02*
X13553394Y-14907744D01*
X13553394Y-14907744D02*
X13543870Y-14945839D01*
X13543870Y-14945839D02*
X13534346Y-14964887D01*
X13534346Y-14964887D02*
X13524823Y-14974411D01*
X13524823Y-14974411D02*
X13505775Y-14983935D01*
X13505775Y-14983935D02*
X13486727Y-14983935D01*
X13486727Y-14983935D02*
X13467680Y-14974411D01*
X13467680Y-14974411D02*
X13458156Y-14964887D01*
X13458156Y-14964887D02*
X13448632Y-14945839D01*
X13448632Y-14945839D02*
X13439108Y-14907744D01*
X13439108Y-14907744D02*
X13439108Y-14860125D01*
X13439108Y-14860125D02*
X13448632Y-14822030D01*
X13448632Y-14822030D02*
X13458156Y-14802982D01*
X13458156Y-14802982D02*
X13467680Y-14793458D01*
X13467680Y-14793458D02*
X13486727Y-14783935D01*
X13639108Y-14983935D02*
X13639108Y-14850601D01*
X13639108Y-14869649D02*
X13648632Y-14860125D01*
X13648632Y-14860125D02*
X13667680Y-14850601D01*
X13667680Y-14850601D02*
X13696251Y-14850601D01*
X13696251Y-14850601D02*
X13715299Y-14860125D01*
X13715299Y-14860125D02*
X13724823Y-14879173D01*
X13724823Y-14879173D02*
X13724823Y-14983935D01*
X13724823Y-14879173D02*
X13734346Y-14860125D01*
X13734346Y-14860125D02*
X13753394Y-14850601D01*
X13753394Y-14850601D02*
X13781965Y-14850601D01*
X13781965Y-14850601D02*
X13801013Y-14860125D01*
X13801013Y-14860125D02*
X13810537Y-14879173D01*
X13810537Y-14879173D02*
X13810537Y-14983935D01*
X13905775Y-14983935D02*
X13905775Y-14850601D01*
X13905775Y-14869649D02*
X13915299Y-14860125D01*
X13915299Y-14860125D02*
X13934346Y-14850601D01*
X13934346Y-14850601D02*
X13962918Y-14850601D01*
X13962918Y-14850601D02*
X13981965Y-14860125D01*
X13981965Y-14860125D02*
X13991489Y-14879173D01*
X13991489Y-14879173D02*
X13991489Y-14983935D01*
X13991489Y-14879173D02*
X14001013Y-14860125D01*
X14001013Y-14860125D02*
X14020061Y-14850601D01*
X14020061Y-14850601D02*
X14048632Y-14850601D01*
X14048632Y-14850601D02*
X14067680Y-14860125D01*
X14067680Y-14860125D02*
X14077204Y-14879173D01*
X14077204Y-14879173D02*
X14077204Y-14983935D01*
X14467680Y-14774411D02*
X14296251Y-15031554D01*
X14724823Y-14783935D02*
X14743870Y-14783935D01*
X14743870Y-14783935D02*
X14762918Y-14793458D01*
X14762918Y-14793458D02*
X14772442Y-14802982D01*
X14772442Y-14802982D02*
X14781966Y-14822030D01*
X14781966Y-14822030D02*
X14791489Y-14860125D01*
X14791489Y-14860125D02*
X14791489Y-14907744D01*
X14791489Y-14907744D02*
X14781966Y-14945839D01*
X14781966Y-14945839D02*
X14772442Y-14964887D01*
X14772442Y-14964887D02*
X14762918Y-14974411D01*
X14762918Y-14974411D02*
X14743870Y-14983935D01*
X14743870Y-14983935D02*
X14724823Y-14983935D01*
X14724823Y-14983935D02*
X14705775Y-14974411D01*
X14705775Y-14974411D02*
X14696251Y-14964887D01*
X14696251Y-14964887D02*
X14686727Y-14945839D01*
X14686727Y-14945839D02*
X14677204Y-14907744D01*
X14677204Y-14907744D02*
X14677204Y-14860125D01*
X14677204Y-14860125D02*
X14686727Y-14822030D01*
X14686727Y-14822030D02*
X14696251Y-14802982D01*
X14696251Y-14802982D02*
X14705775Y-14793458D01*
X14705775Y-14793458D02*
X14724823Y-14783935D01*
X14877204Y-14964887D02*
X14886727Y-14974411D01*
X14886727Y-14974411D02*
X14877204Y-14983935D01*
X14877204Y-14983935D02*
X14867680Y-14974411D01*
X14867680Y-14974411D02*
X14877204Y-14964887D01*
X14877204Y-14964887D02*
X14877204Y-14983935D01*
X15010537Y-14783935D02*
X15029585Y-14783935D01*
X15029585Y-14783935D02*
X15048632Y-14793458D01*
X15048632Y-14793458D02*
X15058156Y-14802982D01*
X15058156Y-14802982D02*
X15067680Y-14822030D01*
X15067680Y-14822030D02*
X15077204Y-14860125D01*
X15077204Y-14860125D02*
X15077204Y-14907744D01*
X15077204Y-14907744D02*
X15067680Y-14945839D01*
X15067680Y-14945839D02*
X15058156Y-14964887D01*
X15058156Y-14964887D02*
X15048632Y-14974411D01*
X15048632Y-14974411D02*
X15029585Y-14983935D01*
X15029585Y-14983935D02*
X15010537Y-14983935D01*
X15010537Y-14983935D02*
X14991489Y-14974411D01*
X14991489Y-14974411D02*
X14981966Y-14964887D01*
X14981966Y-14964887D02*
X14972442Y-14945839D01*
X14972442Y-14945839D02*
X14962918Y-14907744D01*
X14962918Y-14907744D02*
X14962918Y-14860125D01*
X14962918Y-14860125D02*
X14972442Y-14822030D01*
X14972442Y-14822030D02*
X14981966Y-14802982D01*
X14981966Y-14802982D02*
X14991489Y-14793458D01*
X14991489Y-14793458D02*
X15010537Y-14783935D01*
X15153394Y-14802982D02*
X15162918Y-14793458D01*
X15162918Y-14793458D02*
X15181966Y-14783935D01*
X15181966Y-14783935D02*
X15229585Y-14783935D01*
X15229585Y-14783935D02*
X15248632Y-14793458D01*
X15248632Y-14793458D02*
X15258156Y-14802982D01*
X15258156Y-14802982D02*
X15267680Y-14822030D01*
X15267680Y-14822030D02*
X15267680Y-14841077D01*
X15267680Y-14841077D02*
X15258156Y-14869649D01*
X15258156Y-14869649D02*
X15143870Y-14983935D01*
X15143870Y-14983935D02*
X15267680Y-14983935D01*
X15448632Y-14783935D02*
X15353394Y-14783935D01*
X15353394Y-14783935D02*
X15343870Y-14879173D01*
X15343870Y-14879173D02*
X15353394Y-14869649D01*
X15353394Y-14869649D02*
X15372442Y-14860125D01*
X15372442Y-14860125D02*
X15420061Y-14860125D01*
X15420061Y-14860125D02*
X15439108Y-14869649D01*
X15439108Y-14869649D02*
X15448632Y-14879173D01*
X15448632Y-14879173D02*
X15458156Y-14898220D01*
X15458156Y-14898220D02*
X15458156Y-14945839D01*
X15458156Y-14945839D02*
X15448632Y-14964887D01*
X15448632Y-14964887D02*
X15439108Y-14974411D01*
X15439108Y-14974411D02*
X15420061Y-14983935D01*
X15420061Y-14983935D02*
X15372442Y-14983935D01*
X15372442Y-14983935D02*
X15353394Y-14974411D01*
X15353394Y-14974411D02*
X15343870Y-14964887D01*
X15629585Y-14783935D02*
X15591489Y-14783935D01*
X15591489Y-14783935D02*
X15572442Y-14793458D01*
X15572442Y-14793458D02*
X15562918Y-14802982D01*
X15562918Y-14802982D02*
X15543870Y-14831554D01*
X15543870Y-14831554D02*
X15534347Y-14869649D01*
X15534347Y-14869649D02*
X15534347Y-14945839D01*
X15534347Y-14945839D02*
X15543870Y-14964887D01*
X15543870Y-14964887D02*
X15553394Y-14974411D01*
X15553394Y-14974411D02*
X15572442Y-14983935D01*
X15572442Y-14983935D02*
X15610537Y-14983935D01*
X15610537Y-14983935D02*
X15629585Y-14974411D01*
X15629585Y-14974411D02*
X15639108Y-14964887D01*
X15639108Y-14964887D02*
X15648632Y-14945839D01*
X15648632Y-14945839D02*
X15648632Y-14898220D01*
X15648632Y-14898220D02*
X15639108Y-14879173D01*
X15639108Y-14879173D02*
X15629585Y-14869649D01*
X15629585Y-14869649D02*
X15610537Y-14860125D01*
X15610537Y-14860125D02*
X15572442Y-14860125D01*
X15572442Y-14860125D02*
X15553394Y-14869649D01*
X15553394Y-14869649D02*
X15543870Y-14879173D01*
X15543870Y-14879173D02*
X15534347Y-14898220D01*
X15724823Y-14783935D02*
X15724823Y-14822030D01*
X15801013Y-14783935D02*
X15801013Y-14822030D01*
X16096251Y-15060125D02*
X16086728Y-15050601D01*
X16086728Y-15050601D02*
X16067680Y-15022030D01*
X16067680Y-15022030D02*
X16058156Y-15002982D01*
X16058156Y-15002982D02*
X16048632Y-14974411D01*
X16048632Y-14974411D02*
X16039109Y-14926792D01*
X16039109Y-14926792D02*
X16039109Y-14888696D01*
X16039109Y-14888696D02*
X16048632Y-14841077D01*
X16048632Y-14841077D02*
X16058156Y-14812506D01*
X16058156Y-14812506D02*
X16067680Y-14793458D01*
X16067680Y-14793458D02*
X16086728Y-14764887D01*
X16086728Y-14764887D02*
X16096251Y-14755363D01*
X16162918Y-14802982D02*
X16172442Y-14793458D01*
X16172442Y-14793458D02*
X16191489Y-14783935D01*
X16191489Y-14783935D02*
X16239109Y-14783935D01*
X16239109Y-14783935D02*
X16258156Y-14793458D01*
X16258156Y-14793458D02*
X16267680Y-14802982D01*
X16267680Y-14802982D02*
X16277204Y-14822030D01*
X16277204Y-14822030D02*
X16277204Y-14841077D01*
X16277204Y-14841077D02*
X16267680Y-14869649D01*
X16267680Y-14869649D02*
X16153394Y-14983935D01*
X16153394Y-14983935D02*
X16277204Y-14983935D01*
X16515299Y-14983935D02*
X16515299Y-14783935D01*
X16601013Y-14983935D02*
X16601013Y-14879173D01*
X16601013Y-14879173D02*
X16591490Y-14860125D01*
X16591490Y-14860125D02*
X16572442Y-14850601D01*
X16572442Y-14850601D02*
X16543870Y-14850601D01*
X16543870Y-14850601D02*
X16524823Y-14860125D01*
X16524823Y-14860125D02*
X16515299Y-14869649D01*
X16724823Y-14983935D02*
X16705775Y-14974411D01*
X16705775Y-14974411D02*
X16696251Y-14964887D01*
X16696251Y-14964887D02*
X16686728Y-14945839D01*
X16686728Y-14945839D02*
X16686728Y-14888696D01*
X16686728Y-14888696D02*
X16696251Y-14869649D01*
X16696251Y-14869649D02*
X16705775Y-14860125D01*
X16705775Y-14860125D02*
X16724823Y-14850601D01*
X16724823Y-14850601D02*
X16753394Y-14850601D01*
X16753394Y-14850601D02*
X16772442Y-14860125D01*
X16772442Y-14860125D02*
X16781966Y-14869649D01*
X16781966Y-14869649D02*
X16791490Y-14888696D01*
X16791490Y-14888696D02*
X16791490Y-14945839D01*
X16791490Y-14945839D02*
X16781966Y-14964887D01*
X16781966Y-14964887D02*
X16772442Y-14974411D01*
X16772442Y-14974411D02*
X16753394Y-14983935D01*
X16753394Y-14983935D02*
X16724823Y-14983935D01*
X16905775Y-14983935D02*
X16886728Y-14974411D01*
X16886728Y-14974411D02*
X16877204Y-14955363D01*
X16877204Y-14955363D02*
X16877204Y-14783935D01*
X17058156Y-14974411D02*
X17039109Y-14983935D01*
X17039109Y-14983935D02*
X17001013Y-14983935D01*
X17001013Y-14983935D02*
X16981966Y-14974411D01*
X16981966Y-14974411D02*
X16972442Y-14955363D01*
X16972442Y-14955363D02*
X16972442Y-14879173D01*
X16972442Y-14879173D02*
X16981966Y-14860125D01*
X16981966Y-14860125D02*
X17001013Y-14850601D01*
X17001013Y-14850601D02*
X17039109Y-14850601D01*
X17039109Y-14850601D02*
X17058156Y-14860125D01*
X17058156Y-14860125D02*
X17067680Y-14879173D01*
X17067680Y-14879173D02*
X17067680Y-14898220D01*
X17067680Y-14898220D02*
X16972442Y-14917268D01*
X17143871Y-14974411D02*
X17162918Y-14983935D01*
X17162918Y-14983935D02*
X17201013Y-14983935D01*
X17201013Y-14983935D02*
X17220061Y-14974411D01*
X17220061Y-14974411D02*
X17229585Y-14955363D01*
X17229585Y-14955363D02*
X17229585Y-14945839D01*
X17229585Y-14945839D02*
X17220061Y-14926792D01*
X17220061Y-14926792D02*
X17201013Y-14917268D01*
X17201013Y-14917268D02*
X17172442Y-14917268D01*
X17172442Y-14917268D02*
X17153394Y-14907744D01*
X17153394Y-14907744D02*
X17143871Y-14888696D01*
X17143871Y-14888696D02*
X17143871Y-14879173D01*
X17143871Y-14879173D02*
X17153394Y-14860125D01*
X17153394Y-14860125D02*
X17172442Y-14850601D01*
X17172442Y-14850601D02*
X17201013Y-14850601D01*
X17201013Y-14850601D02*
X17220061Y-14860125D01*
X17296252Y-15060125D02*
X17305775Y-15050601D01*
X17305775Y-15050601D02*
X17324823Y-15022030D01*
X17324823Y-15022030D02*
X17334347Y-15002982D01*
X17334347Y-15002982D02*
X17343871Y-14974411D01*
X17343871Y-14974411D02*
X17353394Y-14926792D01*
X17353394Y-14926792D02*
X17353394Y-14888696D01*
X17353394Y-14888696D02*
X17343871Y-14841077D01*
X17343871Y-14841077D02*
X17334347Y-14812506D01*
X17334347Y-14812506D02*
X17324823Y-14793458D01*
X17324823Y-14793458D02*
X17305775Y-14764887D01*
X17305775Y-14764887D02*
X17296252Y-14755363D01*
X17658156Y-15060125D02*
X17648633Y-15050601D01*
X17648633Y-15050601D02*
X17629585Y-15022030D01*
X17629585Y-15022030D02*
X17620061Y-15002982D01*
X17620061Y-15002982D02*
X17610537Y-14974411D01*
X17610537Y-14974411D02*
X17601014Y-14926792D01*
X17601014Y-14926792D02*
X17601014Y-14888696D01*
X17601014Y-14888696D02*
X17610537Y-14841077D01*
X17610537Y-14841077D02*
X17620061Y-14812506D01*
X17620061Y-14812506D02*
X17629585Y-14793458D01*
X17629585Y-14793458D02*
X17648633Y-14764887D01*
X17648633Y-14764887D02*
X17658156Y-14755363D01*
X17734347Y-14850601D02*
X17734347Y-14983935D01*
X17734347Y-14869649D02*
X17743871Y-14860125D01*
X17743871Y-14860125D02*
X17762918Y-14850601D01*
X17762918Y-14850601D02*
X17791490Y-14850601D01*
X17791490Y-14850601D02*
X17810537Y-14860125D01*
X17810537Y-14860125D02*
X17820061Y-14879173D01*
X17820061Y-14879173D02*
X17820061Y-14983935D01*
X17943871Y-14983935D02*
X17924823Y-14974411D01*
X17924823Y-14974411D02*
X17915299Y-14964887D01*
X17915299Y-14964887D02*
X17905775Y-14945839D01*
X17905775Y-14945839D02*
X17905775Y-14888696D01*
X17905775Y-14888696D02*
X17915299Y-14869649D01*
X17915299Y-14869649D02*
X17924823Y-14860125D01*
X17924823Y-14860125D02*
X17943871Y-14850601D01*
X17943871Y-14850601D02*
X17972442Y-14850601D01*
X17972442Y-14850601D02*
X17991490Y-14860125D01*
X17991490Y-14860125D02*
X18001014Y-14869649D01*
X18001014Y-14869649D02*
X18010537Y-14888696D01*
X18010537Y-14888696D02*
X18010537Y-14945839D01*
X18010537Y-14945839D02*
X18001014Y-14964887D01*
X18001014Y-14964887D02*
X17991490Y-14974411D01*
X17991490Y-14974411D02*
X17972442Y-14983935D01*
X17972442Y-14983935D02*
X17943871Y-14983935D01*
X18067680Y-14850601D02*
X18143871Y-14850601D01*
X18096252Y-14783935D02*
X18096252Y-14955363D01*
X18096252Y-14955363D02*
X18105775Y-14974411D01*
X18105775Y-14974411D02*
X18124823Y-14983935D01*
X18124823Y-14983935D02*
X18143871Y-14983935D01*
X18362918Y-14850601D02*
X18362918Y-15050601D01*
X18362918Y-14860125D02*
X18381966Y-14850601D01*
X18381966Y-14850601D02*
X18420061Y-14850601D01*
X18420061Y-14850601D02*
X18439109Y-14860125D01*
X18439109Y-14860125D02*
X18448633Y-14869649D01*
X18448633Y-14869649D02*
X18458156Y-14888696D01*
X18458156Y-14888696D02*
X18458156Y-14945839D01*
X18458156Y-14945839D02*
X18448633Y-14964887D01*
X18448633Y-14964887D02*
X18439109Y-14974411D01*
X18439109Y-14974411D02*
X18420061Y-14983935D01*
X18420061Y-14983935D02*
X18381966Y-14983935D01*
X18381966Y-14983935D02*
X18362918Y-14974411D01*
X18572442Y-14983935D02*
X18553395Y-14974411D01*
X18553395Y-14974411D02*
X18543871Y-14955363D01*
X18543871Y-14955363D02*
X18543871Y-14783935D01*
X18734347Y-14983935D02*
X18734347Y-14879173D01*
X18734347Y-14879173D02*
X18724823Y-14860125D01*
X18724823Y-14860125D02*
X18705776Y-14850601D01*
X18705776Y-14850601D02*
X18667680Y-14850601D01*
X18667680Y-14850601D02*
X18648633Y-14860125D01*
X18734347Y-14974411D02*
X18715299Y-14983935D01*
X18715299Y-14983935D02*
X18667680Y-14983935D01*
X18667680Y-14983935D02*
X18648633Y-14974411D01*
X18648633Y-14974411D02*
X18639109Y-14955363D01*
X18639109Y-14955363D02*
X18639109Y-14936315D01*
X18639109Y-14936315D02*
X18648633Y-14917268D01*
X18648633Y-14917268D02*
X18667680Y-14907744D01*
X18667680Y-14907744D02*
X18715299Y-14907744D01*
X18715299Y-14907744D02*
X18734347Y-14898220D01*
X18801014Y-14850601D02*
X18877204Y-14850601D01*
X18829585Y-14783935D02*
X18829585Y-14955363D01*
X18829585Y-14955363D02*
X18839109Y-14974411D01*
X18839109Y-14974411D02*
X18858156Y-14983935D01*
X18858156Y-14983935D02*
X18877204Y-14983935D01*
X19020061Y-14974411D02*
X19001014Y-14983935D01*
X19001014Y-14983935D02*
X18962918Y-14983935D01*
X18962918Y-14983935D02*
X18943871Y-14974411D01*
X18943871Y-14974411D02*
X18934347Y-14955363D01*
X18934347Y-14955363D02*
X18934347Y-14879173D01*
X18934347Y-14879173D02*
X18943871Y-14860125D01*
X18943871Y-14860125D02*
X18962918Y-14850601D01*
X18962918Y-14850601D02*
X19001014Y-14850601D01*
X19001014Y-14850601D02*
X19020061Y-14860125D01*
X19020061Y-14860125D02*
X19029585Y-14879173D01*
X19029585Y-14879173D02*
X19029585Y-14898220D01*
X19029585Y-14898220D02*
X18934347Y-14917268D01*
X19201014Y-14983935D02*
X19201014Y-14783935D01*
X19201014Y-14974411D02*
X19181966Y-14983935D01*
X19181966Y-14983935D02*
X19143871Y-14983935D01*
X19143871Y-14983935D02*
X19124823Y-14974411D01*
X19124823Y-14974411D02*
X19115299Y-14964887D01*
X19115299Y-14964887D02*
X19105776Y-14945839D01*
X19105776Y-14945839D02*
X19105776Y-14888696D01*
X19105776Y-14888696D02*
X19115299Y-14869649D01*
X19115299Y-14869649D02*
X19124823Y-14860125D01*
X19124823Y-14860125D02*
X19143871Y-14850601D01*
X19143871Y-14850601D02*
X19181966Y-14850601D01*
X19181966Y-14850601D02*
X19201014Y-14860125D01*
X19277204Y-15060125D02*
X19286728Y-15050601D01*
X19286728Y-15050601D02*
X19305776Y-15022030D01*
X19305776Y-15022030D02*
X19315299Y-15002982D01*
X19315299Y-15002982D02*
X19324823Y-14974411D01*
X19324823Y-14974411D02*
X19334347Y-14926792D01*
X19334347Y-14926792D02*
X19334347Y-14888696D01*
X19334347Y-14888696D02*
X19324823Y-14841077D01*
X19324823Y-14841077D02*
X19315299Y-14812506D01*
X19315299Y-14812506D02*
X19305776Y-14793458D01*
X19305776Y-14793458D02*
X19286728Y-14764887D01*
X19286728Y-14764887D02*
X19277204Y-14755363D01*
D13*
X12521189Y-15156451D02*
G75*
G02*
X12422129Y-15156451I-49530J0D01*
G01*
X12422129Y-15156451D02*
G75*
G02*
X12521189Y-15156451I49530J0D01*
G01*
D12*
X12820061Y-15047935D02*
X12839108Y-15047935D01*
X12839108Y-15047935D02*
X12858156Y-15057458D01*
X12858156Y-15057458D02*
X12867680Y-15066982D01*
X12867680Y-15066982D02*
X12877203Y-15086030D01*
X12877203Y-15086030D02*
X12886727Y-15124125D01*
X12886727Y-15124125D02*
X12886727Y-15171744D01*
X12886727Y-15171744D02*
X12877203Y-15209839D01*
X12877203Y-15209839D02*
X12867680Y-15228887D01*
X12867680Y-15228887D02*
X12858156Y-15238411D01*
X12858156Y-15238411D02*
X12839108Y-15247935D01*
X12839108Y-15247935D02*
X12820061Y-15247935D01*
X12820061Y-15247935D02*
X12801013Y-15238411D01*
X12801013Y-15238411D02*
X12791489Y-15228887D01*
X12791489Y-15228887D02*
X12781965Y-15209839D01*
X12781965Y-15209839D02*
X12772442Y-15171744D01*
X12772442Y-15171744D02*
X12772442Y-15124125D01*
X12772442Y-15124125D02*
X12781965Y-15086030D01*
X12781965Y-15086030D02*
X12791489Y-15066982D01*
X12791489Y-15066982D02*
X12801013Y-15057458D01*
X12801013Y-15057458D02*
X12820061Y-15047935D01*
X12972442Y-15228887D02*
X12981965Y-15238411D01*
X12981965Y-15238411D02*
X12972442Y-15247935D01*
X12972442Y-15247935D02*
X12962918Y-15238411D01*
X12962918Y-15238411D02*
X12972442Y-15228887D01*
X12972442Y-15228887D02*
X12972442Y-15247935D01*
X13077203Y-15247935D02*
X13115299Y-15247935D01*
X13115299Y-15247935D02*
X13134346Y-15238411D01*
X13134346Y-15238411D02*
X13143870Y-15228887D01*
X13143870Y-15228887D02*
X13162918Y-15200315D01*
X13162918Y-15200315D02*
X13172442Y-15162220D01*
X13172442Y-15162220D02*
X13172442Y-15086030D01*
X13172442Y-15086030D02*
X13162918Y-15066982D01*
X13162918Y-15066982D02*
X13153394Y-15057458D01*
X13153394Y-15057458D02*
X13134346Y-15047935D01*
X13134346Y-15047935D02*
X13096251Y-15047935D01*
X13096251Y-15047935D02*
X13077203Y-15057458D01*
X13077203Y-15057458D02*
X13067680Y-15066982D01*
X13067680Y-15066982D02*
X13058156Y-15086030D01*
X13058156Y-15086030D02*
X13058156Y-15133649D01*
X13058156Y-15133649D02*
X13067680Y-15152696D01*
X13067680Y-15152696D02*
X13077203Y-15162220D01*
X13077203Y-15162220D02*
X13096251Y-15171744D01*
X13096251Y-15171744D02*
X13134346Y-15171744D01*
X13134346Y-15171744D02*
X13153394Y-15162220D01*
X13153394Y-15162220D02*
X13162918Y-15152696D01*
X13162918Y-15152696D02*
X13172442Y-15133649D01*
X13267680Y-15247935D02*
X13305775Y-15247935D01*
X13305775Y-15247935D02*
X13324823Y-15238411D01*
X13324823Y-15238411D02*
X13334346Y-15228887D01*
X13334346Y-15228887D02*
X13353394Y-15200315D01*
X13353394Y-15200315D02*
X13362918Y-15162220D01*
X13362918Y-15162220D02*
X13362918Y-15086030D01*
X13362918Y-15086030D02*
X13353394Y-15066982D01*
X13353394Y-15066982D02*
X13343870Y-15057458D01*
X13343870Y-15057458D02*
X13324823Y-15047935D01*
X13324823Y-15047935D02*
X13286727Y-15047935D01*
X13286727Y-15047935D02*
X13267680Y-15057458D01*
X13267680Y-15057458D02*
X13258156Y-15066982D01*
X13258156Y-15066982D02*
X13248632Y-15086030D01*
X13248632Y-15086030D02*
X13248632Y-15133649D01*
X13248632Y-15133649D02*
X13258156Y-15152696D01*
X13258156Y-15152696D02*
X13267680Y-15162220D01*
X13267680Y-15162220D02*
X13286727Y-15171744D01*
X13286727Y-15171744D02*
X13324823Y-15171744D01*
X13324823Y-15171744D02*
X13343870Y-15162220D01*
X13343870Y-15162220D02*
X13353394Y-15152696D01*
X13353394Y-15152696D02*
X13362918Y-15133649D01*
X13553394Y-15247935D02*
X13439108Y-15247935D01*
X13496251Y-15247935D02*
X13496251Y-15047935D01*
X13496251Y-15047935D02*
X13477203Y-15076506D01*
X13477203Y-15076506D02*
X13458156Y-15095554D01*
X13458156Y-15095554D02*
X13439108Y-15105077D01*
X13639108Y-15247935D02*
X13639108Y-15114601D01*
X13639108Y-15133649D02*
X13648632Y-15124125D01*
X13648632Y-15124125D02*
X13667680Y-15114601D01*
X13667680Y-15114601D02*
X13696251Y-15114601D01*
X13696251Y-15114601D02*
X13715299Y-15124125D01*
X13715299Y-15124125D02*
X13724823Y-15143173D01*
X13724823Y-15143173D02*
X13724823Y-15247935D01*
X13724823Y-15143173D02*
X13734346Y-15124125D01*
X13734346Y-15124125D02*
X13753394Y-15114601D01*
X13753394Y-15114601D02*
X13781965Y-15114601D01*
X13781965Y-15114601D02*
X13801013Y-15124125D01*
X13801013Y-15124125D02*
X13810537Y-15143173D01*
X13810537Y-15143173D02*
X13810537Y-15247935D01*
X13905775Y-15247935D02*
X13905775Y-15114601D01*
X13905775Y-15133649D02*
X13915299Y-15124125D01*
X13915299Y-15124125D02*
X13934346Y-15114601D01*
X13934346Y-15114601D02*
X13962918Y-15114601D01*
X13962918Y-15114601D02*
X13981965Y-15124125D01*
X13981965Y-15124125D02*
X13991489Y-15143173D01*
X13991489Y-15143173D02*
X13991489Y-15247935D01*
X13991489Y-15143173D02*
X14001013Y-15124125D01*
X14001013Y-15124125D02*
X14020061Y-15114601D01*
X14020061Y-15114601D02*
X14048632Y-15114601D01*
X14048632Y-15114601D02*
X14067680Y-15124125D01*
X14067680Y-15124125D02*
X14077204Y-15143173D01*
X14077204Y-15143173D02*
X14077204Y-15247935D01*
X14467680Y-15038411D02*
X14296251Y-15295554D01*
X14724823Y-15047935D02*
X14743870Y-15047935D01*
X14743870Y-15047935D02*
X14762918Y-15057458D01*
X14762918Y-15057458D02*
X14772442Y-15066982D01*
X14772442Y-15066982D02*
X14781966Y-15086030D01*
X14781966Y-15086030D02*
X14791489Y-15124125D01*
X14791489Y-15124125D02*
X14791489Y-15171744D01*
X14791489Y-15171744D02*
X14781966Y-15209839D01*
X14781966Y-15209839D02*
X14772442Y-15228887D01*
X14772442Y-15228887D02*
X14762918Y-15238411D01*
X14762918Y-15238411D02*
X14743870Y-15247935D01*
X14743870Y-15247935D02*
X14724823Y-15247935D01*
X14724823Y-15247935D02*
X14705775Y-15238411D01*
X14705775Y-15238411D02*
X14696251Y-15228887D01*
X14696251Y-15228887D02*
X14686727Y-15209839D01*
X14686727Y-15209839D02*
X14677204Y-15171744D01*
X14677204Y-15171744D02*
X14677204Y-15124125D01*
X14677204Y-15124125D02*
X14686727Y-15086030D01*
X14686727Y-15086030D02*
X14696251Y-15066982D01*
X14696251Y-15066982D02*
X14705775Y-15057458D01*
X14705775Y-15057458D02*
X14724823Y-15047935D01*
X14877204Y-15228887D02*
X14886727Y-15238411D01*
X14886727Y-15238411D02*
X14877204Y-15247935D01*
X14877204Y-15247935D02*
X14867680Y-15238411D01*
X14867680Y-15238411D02*
X14877204Y-15228887D01*
X14877204Y-15228887D02*
X14877204Y-15247935D01*
X15010537Y-15047935D02*
X15029585Y-15047935D01*
X15029585Y-15047935D02*
X15048632Y-15057458D01*
X15048632Y-15057458D02*
X15058156Y-15066982D01*
X15058156Y-15066982D02*
X15067680Y-15086030D01*
X15067680Y-15086030D02*
X15077204Y-15124125D01*
X15077204Y-15124125D02*
X15077204Y-15171744D01*
X15077204Y-15171744D02*
X15067680Y-15209839D01*
X15067680Y-15209839D02*
X15058156Y-15228887D01*
X15058156Y-15228887D02*
X15048632Y-15238411D01*
X15048632Y-15238411D02*
X15029585Y-15247935D01*
X15029585Y-15247935D02*
X15010537Y-15247935D01*
X15010537Y-15247935D02*
X14991489Y-15238411D01*
X14991489Y-15238411D02*
X14981966Y-15228887D01*
X14981966Y-15228887D02*
X14972442Y-15209839D01*
X14972442Y-15209839D02*
X14962918Y-15171744D01*
X14962918Y-15171744D02*
X14962918Y-15124125D01*
X14962918Y-15124125D02*
X14972442Y-15086030D01*
X14972442Y-15086030D02*
X14981966Y-15066982D01*
X14981966Y-15066982D02*
X14991489Y-15057458D01*
X14991489Y-15057458D02*
X15010537Y-15047935D01*
X15143870Y-15047935D02*
X15267680Y-15047935D01*
X15267680Y-15047935D02*
X15201013Y-15124125D01*
X15201013Y-15124125D02*
X15229585Y-15124125D01*
X15229585Y-15124125D02*
X15248632Y-15133649D01*
X15248632Y-15133649D02*
X15258156Y-15143173D01*
X15258156Y-15143173D02*
X15267680Y-15162220D01*
X15267680Y-15162220D02*
X15267680Y-15209839D01*
X15267680Y-15209839D02*
X15258156Y-15228887D01*
X15258156Y-15228887D02*
X15248632Y-15238411D01*
X15248632Y-15238411D02*
X15229585Y-15247935D01*
X15229585Y-15247935D02*
X15172442Y-15247935D01*
X15172442Y-15247935D02*
X15153394Y-15238411D01*
X15153394Y-15238411D02*
X15143870Y-15228887D01*
X15362918Y-15247935D02*
X15401013Y-15247935D01*
X15401013Y-15247935D02*
X15420061Y-15238411D01*
X15420061Y-15238411D02*
X15429585Y-15228887D01*
X15429585Y-15228887D02*
X15448632Y-15200315D01*
X15448632Y-15200315D02*
X15458156Y-15162220D01*
X15458156Y-15162220D02*
X15458156Y-15086030D01*
X15458156Y-15086030D02*
X15448632Y-15066982D01*
X15448632Y-15066982D02*
X15439108Y-15057458D01*
X15439108Y-15057458D02*
X15420061Y-15047935D01*
X15420061Y-15047935D02*
X15381966Y-15047935D01*
X15381966Y-15047935D02*
X15362918Y-15057458D01*
X15362918Y-15057458D02*
X15353394Y-15066982D01*
X15353394Y-15066982D02*
X15343870Y-15086030D01*
X15343870Y-15086030D02*
X15343870Y-15133649D01*
X15343870Y-15133649D02*
X15353394Y-15152696D01*
X15353394Y-15152696D02*
X15362918Y-15162220D01*
X15362918Y-15162220D02*
X15381966Y-15171744D01*
X15381966Y-15171744D02*
X15420061Y-15171744D01*
X15420061Y-15171744D02*
X15439108Y-15162220D01*
X15439108Y-15162220D02*
X15448632Y-15152696D01*
X15448632Y-15152696D02*
X15458156Y-15133649D01*
X15581966Y-15047935D02*
X15601013Y-15047935D01*
X15601013Y-15047935D02*
X15620061Y-15057458D01*
X15620061Y-15057458D02*
X15629585Y-15066982D01*
X15629585Y-15066982D02*
X15639108Y-15086030D01*
X15639108Y-15086030D02*
X15648632Y-15124125D01*
X15648632Y-15124125D02*
X15648632Y-15171744D01*
X15648632Y-15171744D02*
X15639108Y-15209839D01*
X15639108Y-15209839D02*
X15629585Y-15228887D01*
X15629585Y-15228887D02*
X15620061Y-15238411D01*
X15620061Y-15238411D02*
X15601013Y-15247935D01*
X15601013Y-15247935D02*
X15581966Y-15247935D01*
X15581966Y-15247935D02*
X15562918Y-15238411D01*
X15562918Y-15238411D02*
X15553394Y-15228887D01*
X15553394Y-15228887D02*
X15543870Y-15209839D01*
X15543870Y-15209839D02*
X15534347Y-15171744D01*
X15534347Y-15171744D02*
X15534347Y-15124125D01*
X15534347Y-15124125D02*
X15543870Y-15086030D01*
X15543870Y-15086030D02*
X15553394Y-15066982D01*
X15553394Y-15066982D02*
X15562918Y-15057458D01*
X15562918Y-15057458D02*
X15581966Y-15047935D01*
X15724823Y-15047935D02*
X15724823Y-15086030D01*
X15801013Y-15047935D02*
X15801013Y-15086030D01*
X16096251Y-15324125D02*
X16086728Y-15314601D01*
X16086728Y-15314601D02*
X16067680Y-15286030D01*
X16067680Y-15286030D02*
X16058156Y-15266982D01*
X16058156Y-15266982D02*
X16048632Y-15238411D01*
X16048632Y-15238411D02*
X16039109Y-15190792D01*
X16039109Y-15190792D02*
X16039109Y-15152696D01*
X16039109Y-15152696D02*
X16048632Y-15105077D01*
X16048632Y-15105077D02*
X16058156Y-15076506D01*
X16058156Y-15076506D02*
X16067680Y-15057458D01*
X16067680Y-15057458D02*
X16086728Y-15028887D01*
X16086728Y-15028887D02*
X16096251Y-15019363D01*
X16153394Y-15047935D02*
X16277204Y-15047935D01*
X16277204Y-15047935D02*
X16210537Y-15124125D01*
X16210537Y-15124125D02*
X16239109Y-15124125D01*
X16239109Y-15124125D02*
X16258156Y-15133649D01*
X16258156Y-15133649D02*
X16267680Y-15143173D01*
X16267680Y-15143173D02*
X16277204Y-15162220D01*
X16277204Y-15162220D02*
X16277204Y-15209839D01*
X16277204Y-15209839D02*
X16267680Y-15228887D01*
X16267680Y-15228887D02*
X16258156Y-15238411D01*
X16258156Y-15238411D02*
X16239109Y-15247935D01*
X16239109Y-15247935D02*
X16181966Y-15247935D01*
X16181966Y-15247935D02*
X16162918Y-15238411D01*
X16162918Y-15238411D02*
X16153394Y-15228887D01*
X16515299Y-15247935D02*
X16515299Y-15047935D01*
X16601013Y-15247935D02*
X16601013Y-15143173D01*
X16601013Y-15143173D02*
X16591490Y-15124125D01*
X16591490Y-15124125D02*
X16572442Y-15114601D01*
X16572442Y-15114601D02*
X16543870Y-15114601D01*
X16543870Y-15114601D02*
X16524823Y-15124125D01*
X16524823Y-15124125D02*
X16515299Y-15133649D01*
X16724823Y-15247935D02*
X16705775Y-15238411D01*
X16705775Y-15238411D02*
X16696251Y-15228887D01*
X16696251Y-15228887D02*
X16686728Y-15209839D01*
X16686728Y-15209839D02*
X16686728Y-15152696D01*
X16686728Y-15152696D02*
X16696251Y-15133649D01*
X16696251Y-15133649D02*
X16705775Y-15124125D01*
X16705775Y-15124125D02*
X16724823Y-15114601D01*
X16724823Y-15114601D02*
X16753394Y-15114601D01*
X16753394Y-15114601D02*
X16772442Y-15124125D01*
X16772442Y-15124125D02*
X16781966Y-15133649D01*
X16781966Y-15133649D02*
X16791490Y-15152696D01*
X16791490Y-15152696D02*
X16791490Y-15209839D01*
X16791490Y-15209839D02*
X16781966Y-15228887D01*
X16781966Y-15228887D02*
X16772442Y-15238411D01*
X16772442Y-15238411D02*
X16753394Y-15247935D01*
X16753394Y-15247935D02*
X16724823Y-15247935D01*
X16905775Y-15247935D02*
X16886728Y-15238411D01*
X16886728Y-15238411D02*
X16877204Y-15219363D01*
X16877204Y-15219363D02*
X16877204Y-15047935D01*
X17058156Y-15238411D02*
X17039109Y-15247935D01*
X17039109Y-15247935D02*
X17001013Y-15247935D01*
X17001013Y-15247935D02*
X16981966Y-15238411D01*
X16981966Y-15238411D02*
X16972442Y-15219363D01*
X16972442Y-15219363D02*
X16972442Y-15143173D01*
X16972442Y-15143173D02*
X16981966Y-15124125D01*
X16981966Y-15124125D02*
X17001013Y-15114601D01*
X17001013Y-15114601D02*
X17039109Y-15114601D01*
X17039109Y-15114601D02*
X17058156Y-15124125D01*
X17058156Y-15124125D02*
X17067680Y-15143173D01*
X17067680Y-15143173D02*
X17067680Y-15162220D01*
X17067680Y-15162220D02*
X16972442Y-15181268D01*
X17143871Y-15238411D02*
X17162918Y-15247935D01*
X17162918Y-15247935D02*
X17201013Y-15247935D01*
X17201013Y-15247935D02*
X17220061Y-15238411D01*
X17220061Y-15238411D02*
X17229585Y-15219363D01*
X17229585Y-15219363D02*
X17229585Y-15209839D01*
X17229585Y-15209839D02*
X17220061Y-15190792D01*
X17220061Y-15190792D02*
X17201013Y-15181268D01*
X17201013Y-15181268D02*
X17172442Y-15181268D01*
X17172442Y-15181268D02*
X17153394Y-15171744D01*
X17153394Y-15171744D02*
X17143871Y-15152696D01*
X17143871Y-15152696D02*
X17143871Y-15143173D01*
X17143871Y-15143173D02*
X17153394Y-15124125D01*
X17153394Y-15124125D02*
X17172442Y-15114601D01*
X17172442Y-15114601D02*
X17201013Y-15114601D01*
X17201013Y-15114601D02*
X17220061Y-15124125D01*
X17296252Y-15324125D02*
X17305775Y-15314601D01*
X17305775Y-15314601D02*
X17324823Y-15286030D01*
X17324823Y-15286030D02*
X17334347Y-15266982D01*
X17334347Y-15266982D02*
X17343871Y-15238411D01*
X17343871Y-15238411D02*
X17353394Y-15190792D01*
X17353394Y-15190792D02*
X17353394Y-15152696D01*
X17353394Y-15152696D02*
X17343871Y-15105077D01*
X17343871Y-15105077D02*
X17334347Y-15076506D01*
X17334347Y-15076506D02*
X17324823Y-15057458D01*
X17324823Y-15057458D02*
X17305775Y-15028887D01*
X17305775Y-15028887D02*
X17296252Y-15019363D01*
X17658156Y-15324125D02*
X17648633Y-15314601D01*
X17648633Y-15314601D02*
X17629585Y-15286030D01*
X17629585Y-15286030D02*
X17620061Y-15266982D01*
X17620061Y-15266982D02*
X17610537Y-15238411D01*
X17610537Y-15238411D02*
X17601014Y-15190792D01*
X17601014Y-15190792D02*
X17601014Y-15152696D01*
X17601014Y-15152696D02*
X17610537Y-15105077D01*
X17610537Y-15105077D02*
X17620061Y-15076506D01*
X17620061Y-15076506D02*
X17629585Y-15057458D01*
X17629585Y-15057458D02*
X17648633Y-15028887D01*
X17648633Y-15028887D02*
X17658156Y-15019363D01*
X17734347Y-15114601D02*
X17734347Y-15247935D01*
X17734347Y-15133649D02*
X17743871Y-15124125D01*
X17743871Y-15124125D02*
X17762918Y-15114601D01*
X17762918Y-15114601D02*
X17791490Y-15114601D01*
X17791490Y-15114601D02*
X17810537Y-15124125D01*
X17810537Y-15124125D02*
X17820061Y-15143173D01*
X17820061Y-15143173D02*
X17820061Y-15247935D01*
X17943871Y-15247935D02*
X17924823Y-15238411D01*
X17924823Y-15238411D02*
X17915299Y-15228887D01*
X17915299Y-15228887D02*
X17905775Y-15209839D01*
X17905775Y-15209839D02*
X17905775Y-15152696D01*
X17905775Y-15152696D02*
X17915299Y-15133649D01*
X17915299Y-15133649D02*
X17924823Y-15124125D01*
X17924823Y-15124125D02*
X17943871Y-15114601D01*
X17943871Y-15114601D02*
X17972442Y-15114601D01*
X17972442Y-15114601D02*
X17991490Y-15124125D01*
X17991490Y-15124125D02*
X18001014Y-15133649D01*
X18001014Y-15133649D02*
X18010537Y-15152696D01*
X18010537Y-15152696D02*
X18010537Y-15209839D01*
X18010537Y-15209839D02*
X18001014Y-15228887D01*
X18001014Y-15228887D02*
X17991490Y-15238411D01*
X17991490Y-15238411D02*
X17972442Y-15247935D01*
X17972442Y-15247935D02*
X17943871Y-15247935D01*
X18067680Y-15114601D02*
X18143871Y-15114601D01*
X18096252Y-15047935D02*
X18096252Y-15219363D01*
X18096252Y-15219363D02*
X18105775Y-15238411D01*
X18105775Y-15238411D02*
X18124823Y-15247935D01*
X18124823Y-15247935D02*
X18143871Y-15247935D01*
X18362918Y-15114601D02*
X18362918Y-15314601D01*
X18362918Y-15124125D02*
X18381966Y-15114601D01*
X18381966Y-15114601D02*
X18420061Y-15114601D01*
X18420061Y-15114601D02*
X18439109Y-15124125D01*
X18439109Y-15124125D02*
X18448633Y-15133649D01*
X18448633Y-15133649D02*
X18458156Y-15152696D01*
X18458156Y-15152696D02*
X18458156Y-15209839D01*
X18458156Y-15209839D02*
X18448633Y-15228887D01*
X18448633Y-15228887D02*
X18439109Y-15238411D01*
X18439109Y-15238411D02*
X18420061Y-15247935D01*
X18420061Y-15247935D02*
X18381966Y-15247935D01*
X18381966Y-15247935D02*
X18362918Y-15238411D01*
X18572442Y-15247935D02*
X18553395Y-15238411D01*
X18553395Y-15238411D02*
X18543871Y-15219363D01*
X18543871Y-15219363D02*
X18543871Y-15047935D01*
X18734347Y-15247935D02*
X18734347Y-15143173D01*
X18734347Y-15143173D02*
X18724823Y-15124125D01*
X18724823Y-15124125D02*
X18705776Y-15114601D01*
X18705776Y-15114601D02*
X18667680Y-15114601D01*
X18667680Y-15114601D02*
X18648633Y-15124125D01*
X18734347Y-15238411D02*
X18715299Y-15247935D01*
X18715299Y-15247935D02*
X18667680Y-15247935D01*
X18667680Y-15247935D02*
X18648633Y-15238411D01*
X18648633Y-15238411D02*
X18639109Y-15219363D01*
X18639109Y-15219363D02*
X18639109Y-15200315D01*
X18639109Y-15200315D02*
X18648633Y-15181268D01*
X18648633Y-15181268D02*
X18667680Y-15171744D01*
X18667680Y-15171744D02*
X18715299Y-15171744D01*
X18715299Y-15171744D02*
X18734347Y-15162220D01*
X18801014Y-15114601D02*
X18877204Y-15114601D01*
X18829585Y-15047935D02*
X18829585Y-15219363D01*
X18829585Y-15219363D02*
X18839109Y-15238411D01*
X18839109Y-15238411D02*
X18858156Y-15247935D01*
X18858156Y-15247935D02*
X18877204Y-15247935D01*
X19020061Y-15238411D02*
X19001014Y-15247935D01*
X19001014Y-15247935D02*
X18962918Y-15247935D01*
X18962918Y-15247935D02*
X18943871Y-15238411D01*
X18943871Y-15238411D02*
X18934347Y-15219363D01*
X18934347Y-15219363D02*
X18934347Y-15143173D01*
X18934347Y-15143173D02*
X18943871Y-15124125D01*
X18943871Y-15124125D02*
X18962918Y-15114601D01*
X18962918Y-15114601D02*
X19001014Y-15114601D01*
X19001014Y-15114601D02*
X19020061Y-15124125D01*
X19020061Y-15124125D02*
X19029585Y-15143173D01*
X19029585Y-15143173D02*
X19029585Y-15162220D01*
X19029585Y-15162220D02*
X18934347Y-15181268D01*
X19201014Y-15247935D02*
X19201014Y-15047935D01*
X19201014Y-15238411D02*
X19181966Y-15247935D01*
X19181966Y-15247935D02*
X19143871Y-15247935D01*
X19143871Y-15247935D02*
X19124823Y-15238411D01*
X19124823Y-15238411D02*
X19115299Y-15228887D01*
X19115299Y-15228887D02*
X19105776Y-15209839D01*
X19105776Y-15209839D02*
X19105776Y-15152696D01*
X19105776Y-15152696D02*
X19115299Y-15133649D01*
X19115299Y-15133649D02*
X19124823Y-15124125D01*
X19124823Y-15124125D02*
X19143871Y-15114601D01*
X19143871Y-15114601D02*
X19181966Y-15114601D01*
X19181966Y-15114601D02*
X19201014Y-15124125D01*
X19277204Y-15324125D02*
X19286728Y-15314601D01*
X19286728Y-15314601D02*
X19305776Y-15286030D01*
X19305776Y-15286030D02*
X19315299Y-15266982D01*
X19315299Y-15266982D02*
X19324823Y-15238411D01*
X19324823Y-15238411D02*
X19334347Y-15190792D01*
X19334347Y-15190792D02*
X19334347Y-15152696D01*
X19334347Y-15152696D02*
X19324823Y-15105077D01*
X19324823Y-15105077D02*
X19315299Y-15076506D01*
X19315299Y-15076506D02*
X19305776Y-15057458D01*
X19305776Y-15057458D02*
X19286728Y-15028887D01*
X19286728Y-15028887D02*
X19277204Y-15019363D01*
M02*
