%TF.GenerationSoftware,KiCad,Pcbnew,9.0.2*%
%TF.CreationDate,2025-05-11T21:09:12+01:00*%
%TF.ProjectId,mariposa,6d617269-706f-4736-912e-6b696361645f,2.0*%
%TF.SameCoordinates,Original*%
%TF.FileFunction,Paste,Top*%
%TF.FilePolarity,Positive*%
%FSLAX46Y46*%
G04 Gerber Fmt 4.6, Leading zero omitted, Abs format (unit mm)*
G04 Created by KiCad (PCBNEW 9.0.2) date 2025-05-11 21:09:12*
%MOMM*%
%LPD*%
G01*
G04 APERTURE LIST*
G04 Aperture macros list*
%AMRoundRect*
0 Rectangle with rounded corners*
0 $1 Rounding radius*
0 $2 $3 $4 $5 $6 $7 $8 $9 X,Y pos of 4 corners*
0 Add a 4 corners polygon primitive as box body*
4,1,4,$2,$3,$4,$5,$6,$7,$8,$9,$2,$3,0*
0 Add four circle primitives for the rounded corners*
1,1,$1+$1,$2,$3*
1,1,$1+$1,$4,$5*
1,1,$1+$1,$6,$7*
1,1,$1+$1,$8,$9*
0 Add four rect primitives between the rounded corners*
20,1,$1+$1,$2,$3,$4,$5,0*
20,1,$1+$1,$4,$5,$6,$7,0*
20,1,$1+$1,$6,$7,$8,$9,0*
20,1,$1+$1,$8,$9,$2,$3,0*%
G04 Aperture macros list end*
%ADD10RoundRect,0.193500X0.215000X-0.193500X0.215000X0.193500X-0.215000X0.193500X-0.215000X-0.193500X0*%
%ADD11RoundRect,0.215000X-0.559000X0.279500X-0.559000X-0.279500X0.559000X-0.279500X0.559000X0.279500X0*%
%ADD12RoundRect,0.193500X-0.215000X0.193500X-0.215000X-0.193500X0.215000X-0.193500X0.215000X0.193500X0*%
%ADD13RoundRect,0.172000X-0.236500X0.172000X-0.236500X-0.172000X0.236500X-0.172000X0.236500X0.172000X0*%
%ADD14RoundRect,0.230000X0.598000X-0.322000X0.598000X0.322000X-0.598000X0.322000X-0.598000X-0.322000X0*%
%ADD15RoundRect,0.138000X0.575000X-0.138000X0.575000X0.138000X-0.575000X0.138000X-0.575000X-0.138000X0*%
%ADD16RoundRect,0.043000X-0.430000X-0.215000X0.430000X-0.215000X0.430000X0.215000X-0.430000X0.215000X0*%
%ADD17RoundRect,0.060800X-0.129200X-0.129200X0.129200X-0.129200X0.129200X0.129200X-0.129200X0.129200X0*%
%ADD18RoundRect,0.188125X0.220375X-0.188125X0.220375X0.188125X-0.220375X0.188125X-0.220375X-0.188125X0*%
%ADD19RoundRect,0.068800X-0.146200X0.275200X-0.146200X-0.275200X0.146200X-0.275200X0.146200X0.275200X0*%
%ADD20RoundRect,0.172000X0.236500X-0.172000X0.236500X0.172000X-0.236500X0.172000X-0.236500X-0.172000X0*%
%ADD21RoundRect,0.042500X-0.377500X-0.127500X0.377500X-0.127500X0.377500X0.127500X-0.377500X0.127500X0*%
%ADD22RoundRect,0.215000X0.408500X-0.215000X0.408500X0.215000X-0.408500X0.215000X-0.408500X-0.215000X0*%
%ADD23RoundRect,0.193500X-0.193500X-0.215000X0.193500X-0.215000X0.193500X0.215000X-0.193500X0.215000X0*%
%ADD24RoundRect,0.188125X-0.327875X0.188125X-0.327875X-0.188125X0.327875X-0.188125X0.327875X0.188125X0*%
%ADD25RoundRect,0.039500X-0.328500X-0.118500X0.328500X-0.118500X0.328500X0.118500X-0.328500X0.118500X0*%
%ADD26RoundRect,0.042000X0.336000X0.168000X-0.336000X0.168000X-0.336000X-0.168000X0.336000X-0.168000X0*%
%ADD27RoundRect,0.068800X0.146200X-0.275200X0.146200X0.275200X-0.146200X0.275200X-0.146200X-0.275200X0*%
%ADD28RoundRect,0.086000X0.086000X-0.322500X0.086000X0.322500X-0.086000X0.322500X-0.086000X-0.322500X0*%
%ADD29RoundRect,0.107500X0.236500X0.107500X-0.236500X0.107500X-0.236500X-0.107500X0.236500X-0.107500X0*%
%ADD30RoundRect,0.086000X0.258000X0.086000X-0.258000X0.086000X-0.258000X-0.086000X0.258000X-0.086000X0*%
%ADD31RoundRect,0.250000X0.475000X-0.250000X0.475000X0.250000X-0.475000X0.250000X-0.475000X-0.250000X0*%
%ADD32RoundRect,0.193500X0.193500X0.215000X-0.193500X0.215000X-0.193500X-0.215000X0.193500X-0.215000X0*%
%ADD33O,0.840000X1.512000*%
%ADD34O,0.840000X1.764000*%
%ADD35RoundRect,0.059200X0.162800X0.403300X-0.162800X0.403300X-0.162800X-0.403300X0.162800X-0.403300X0*%
%ADD36RoundRect,0.059200X0.051800X0.403300X-0.051800X0.403300X-0.051800X-0.403300X0.051800X-0.403300X0*%
%ADD37RoundRect,0.172000X0.172000X0.236500X-0.172000X0.236500X-0.172000X-0.236500X0.172000X-0.236500X0*%
%ADD38RoundRect,0.230001X1.149999X-0.735999X1.149999X0.735999X-1.149999X0.735999X-1.149999X-0.735999X0*%
%ADD39RoundRect,0.184000X0.552000X-0.184000X0.552000X0.184000X-0.552000X0.184000X-0.552000X-0.184000X0*%
%ADD40RoundRect,0.215000X0.387000X-0.225750X0.387000X0.225750X-0.387000X0.225750X-0.387000X-0.225750X0*%
%ADD41RoundRect,0.048000X0.096000X-0.648000X0.096000X0.648000X-0.096000X0.648000X-0.096000X-0.648000X0*%
%ADD42RoundRect,0.250000X0.400000X-0.250000X0.400000X0.250000X-0.400000X0.250000X-0.400000X-0.250000X0*%
%ADD43RoundRect,0.210000X0.546000X0.714000X-0.546000X0.714000X-0.546000X-0.714000X0.546000X-0.714000X0*%
%ADD44RoundRect,0.055500X0.055500X0.425500X-0.055500X0.425500X-0.055500X-0.425500X0.055500X-0.425500X0*%
%ADD45RoundRect,0.189000X-0.210000X0.189000X-0.210000X-0.189000X0.210000X-0.189000X0.210000X0.189000X0*%
%ADD46RoundRect,0.188125X0.188125X0.327875X-0.188125X0.327875X-0.188125X-0.327875X0.188125X-0.327875X0*%
%ADD47RoundRect,0.094600X-0.571900X-0.335400X0.571900X-0.335400X0.571900X0.335400X-0.571900X0.335400X0*%
%ADD48RoundRect,0.215000X-0.279500X-0.559000X0.279500X-0.559000X0.279500X0.559000X-0.279500X0.559000X0*%
%ADD49RoundRect,0.025600X-0.102400X0.150400X-0.102400X-0.150400X0.102400X-0.150400X0.102400X0.150400X0*%
%ADD50RoundRect,0.025600X0.150400X0.102400X-0.150400X0.102400X-0.150400X-0.102400X0.150400X-0.102400X0*%
%ADD51RoundRect,0.215000X-0.731000X0.322500X-0.731000X-0.322500X0.731000X-0.322500X0.731000X0.322500X0*%
%ADD52RoundRect,0.172000X-0.172000X-0.236500X0.172000X-0.236500X0.172000X0.236500X-0.172000X0.236500X0*%
%ADD53RoundRect,0.215000X-0.537500X0.268750X-0.537500X-0.268750X0.537500X-0.268750X0.537500X0.268750X0*%
%ADD54RoundRect,0.230000X-0.644000X0.253000X-0.644000X-0.253000X0.644000X-0.253000X0.644000X0.253000X0*%
%ADD55RoundRect,0.042000X-0.063000X-0.168000X0.063000X-0.168000X0.063000X0.168000X-0.063000X0.168000X0*%
%ADD56RoundRect,0.075000X-0.175000X0.275000X-0.175000X-0.275000X0.175000X-0.275000X0.175000X0.275000X0*%
%ADD57RoundRect,0.131560X0.374440X0.742440X-0.374440X0.742440X-0.374440X-0.742440X0.374440X-0.742440X0*%
%ADD58RoundRect,0.188125X-0.220375X0.188125X-0.220375X-0.188125X0.220375X-0.188125X0.220375X0.188125X0*%
%ADD59RoundRect,0.188125X-0.188125X-0.220375X0.188125X-0.220375X0.188125X0.220375X-0.188125X0.220375X0*%
%ADD60RoundRect,0.230000X-0.322000X-0.598000X0.322000X-0.598000X0.322000X0.598000X-0.322000X0.598000X0*%
%ADD61RoundRect,0.138000X-0.138000X-0.575000X0.138000X-0.575000X0.138000X0.575000X-0.138000X0.575000X0*%
%ADD62RoundRect,0.107500X-0.107500X0.236500X-0.107500X-0.236500X0.107500X-0.236500X0.107500X0.236500X0*%
%ADD63RoundRect,0.086000X-0.086000X0.258000X-0.086000X-0.258000X0.086000X-0.258000X0.086000X0.258000X0*%
%ADD64RoundRect,0.230000X0.644000X-0.253000X0.644000X0.253000X-0.644000X0.253000X-0.644000X-0.253000X0*%
%ADD65RoundRect,0.210000X-0.546000X-0.714000X0.546000X-0.714000X0.546000X0.714000X-0.546000X0.714000X0*%
%ADD66RoundRect,0.055500X-0.055500X-0.425500X0.055500X-0.425500X0.055500X0.425500X-0.055500X0.425500X0*%
G04 APERTURE END LIST*
D10*
%TO.C,C7*%
X136850000Y-65359321D03*
X136850000Y-66909321D03*
%TD*%
D11*
%TO.C,C49*%
X143100000Y-116609321D03*
X143100000Y-113659321D03*
%TD*%
D12*
%TO.C,C8*%
X140330000Y-72739321D03*
X140330000Y-71189321D03*
%TD*%
D13*
%TO.C,R11*%
X135530000Y-108569321D03*
X135530000Y-106919321D03*
%TD*%
D14*
%TO.C,J8*%
X163850000Y-69684320D03*
X163850000Y-75284321D03*
D15*
X159974999Y-70984321D03*
X159975001Y-71984322D03*
X159975001Y-72984320D03*
X159974998Y-73984320D03*
%TD*%
D16*
%TO.C,U4*%
X144900000Y-71011821D03*
X144900000Y-71961821D03*
X144900000Y-72911821D03*
X142300000Y-72911821D03*
X142300000Y-71961821D03*
X142300000Y-71011821D03*
%TD*%
D17*
%TO.C,D20*%
X133950000Y-107184321D03*
X133950000Y-108084321D03*
X133050000Y-108084321D03*
X133050000Y-107184321D03*
%TD*%
D18*
%TO.C,L2*%
X141250000Y-123026821D03*
X141250000Y-124601821D03*
%TD*%
D19*
%TO.C,RN5*%
X137660000Y-118834321D03*
X136660000Y-118834321D03*
X136660000Y-117034321D03*
X137660000Y-117034321D03*
%TD*%
D20*
%TO.C,R7*%
X132500000Y-69459321D03*
X132500000Y-71109321D03*
%TD*%
D12*
%TO.C,C18*%
X139730000Y-124589321D03*
X139730000Y-123039321D03*
%TD*%
D21*
%TO.C,D13*%
X163650000Y-102434321D03*
X163650000Y-103084321D03*
X163650000Y-103734321D03*
X161450000Y-103734321D03*
X161450000Y-103084321D03*
X161450000Y-102434321D03*
%TD*%
D12*
%TO.C,C19*%
X139730000Y-127609321D03*
X139730000Y-126059321D03*
%TD*%
D22*
%TO.C,C45*%
X131200000Y-99584321D03*
X131200000Y-101484321D03*
%TD*%
D23*
%TO.C,C4*%
X142045000Y-66034321D03*
X140495000Y-66034321D03*
%TD*%
D20*
%TO.C,R15*%
X130700000Y-72809321D03*
X130700000Y-74459321D03*
%TD*%
D24*
%TO.C,FB3*%
X145280000Y-94276821D03*
X145280000Y-92151821D03*
%TD*%
D23*
%TO.C,C5*%
X142040000Y-68934321D03*
X140490000Y-68934321D03*
%TD*%
D17*
%TO.C,D16*%
X161950000Y-57534321D03*
X161950000Y-58434321D03*
X161050000Y-58434321D03*
X161050000Y-57534321D03*
%TD*%
D10*
%TO.C,C21*%
X134800000Y-110809321D03*
X134800000Y-112359321D03*
%TD*%
D25*
%TO.C,U3*%
X138400000Y-71234321D03*
X138400000Y-71884321D03*
X138400000Y-72534321D03*
X136200000Y-72534321D03*
X136200000Y-71884321D03*
X136200000Y-71234321D03*
%TD*%
D17*
%TO.C,D15*%
X133950000Y-57584321D03*
X133950000Y-58484321D03*
X133050000Y-58484321D03*
X133050000Y-57584321D03*
%TD*%
D26*
%TO.C,D9*%
X146200000Y-66304321D03*
X148800000Y-66304321D03*
%TD*%
D17*
%TO.C,D19*%
X134950000Y-125184321D03*
X134950000Y-126084321D03*
X134050000Y-126084321D03*
X134050000Y-125184321D03*
%TD*%
D27*
%TO.C,RN9*%
X156800000Y-126834321D03*
X157800000Y-126834321D03*
X157800000Y-128634321D03*
X156800000Y-128634321D03*
%TD*%
D28*
%TO.C,U7*%
X134550000Y-84684321D03*
X135850000Y-84684321D03*
X135850000Y-86884321D03*
X135200000Y-86884321D03*
X134550000Y-86884321D03*
%TD*%
D12*
%TO.C,C10*%
X134800000Y-120609321D03*
X134800000Y-119059321D03*
%TD*%
D29*
%TO.C,RN7*%
X138700000Y-87884321D03*
D30*
X138700000Y-87084321D03*
X138700000Y-86284321D03*
D29*
X138700000Y-85484321D03*
X140500000Y-85484321D03*
D30*
X140500000Y-86284321D03*
X140500000Y-87084321D03*
D29*
X140500000Y-87884321D03*
%TD*%
D21*
%TO.C,D12*%
X163600000Y-92184321D03*
X163600000Y-92834321D03*
X163600000Y-93484321D03*
X161400000Y-93484321D03*
X161400000Y-92834321D03*
X161400000Y-92184321D03*
%TD*%
D23*
%TO.C,C3*%
X148725000Y-94284321D03*
X147175000Y-94284321D03*
%TD*%
D12*
%TO.C,C1*%
X148075000Y-91984321D03*
X148075000Y-90434321D03*
%TD*%
D17*
%TO.C,D18*%
X160950000Y-125184321D03*
X160950000Y-126084321D03*
X160050000Y-126084321D03*
X160050000Y-125184321D03*
%TD*%
D25*
%TO.C,U6*%
X138400000Y-68409321D03*
X138400000Y-69059321D03*
X138400000Y-69709321D03*
X136200000Y-69709321D03*
X136200000Y-69059321D03*
X136200000Y-68409321D03*
%TD*%
D31*
%TO.C,C53*%
X153480000Y-65834321D03*
X153480000Y-67734321D03*
%TD*%
D32*
%TO.C,C14*%
X139825000Y-57634321D03*
X141375000Y-57634321D03*
%TD*%
D21*
%TO.C,D14*%
X163600000Y-96384321D03*
X163600000Y-97034321D03*
X163600000Y-97684321D03*
X161400000Y-97684321D03*
X161400000Y-97034321D03*
X161400000Y-96384321D03*
%TD*%
D33*
%TO.C,J4*%
X143180000Y-58169321D03*
D34*
X143180000Y-62349321D03*
D33*
X151820000Y-58169321D03*
D34*
X151820000Y-62349321D03*
D35*
X150700000Y-62974321D03*
X149900000Y-62974321D03*
D36*
X149250000Y-62974321D03*
X148250000Y-62974321D03*
X146750000Y-62974321D03*
X145750000Y-62974321D03*
D35*
X145100000Y-62974321D03*
X144300000Y-62974321D03*
X144300000Y-62974321D03*
X145100000Y-62974321D03*
D36*
X146250000Y-62974321D03*
X147250000Y-62974321D03*
X147750000Y-62974321D03*
X148750000Y-62974321D03*
D35*
X149900000Y-62974321D03*
X150700000Y-62974321D03*
%TD*%
D37*
%TO.C,R13*%
X138975000Y-89534321D03*
X140625000Y-89534321D03*
%TD*%
D38*
%TO.C,BT1*%
X134000000Y-90484321D03*
X134000000Y-96834321D03*
D39*
X131100000Y-93034321D03*
X131100000Y-94284321D03*
%TD*%
D40*
%TO.C,R21*%
X139850000Y-118321821D03*
X139850000Y-120146821D03*
%TD*%
D12*
%TO.C,C20*%
X134500000Y-123909321D03*
X134500000Y-122359321D03*
%TD*%
D17*
%TO.C,D17*%
X161950000Y-107184321D03*
X161950000Y-108084321D03*
X161050000Y-108084321D03*
X161050000Y-107184321D03*
%TD*%
D41*
%TO.C,U1*%
X133580000Y-99969321D03*
X134230000Y-99969321D03*
X134880000Y-99969321D03*
X135530000Y-99969321D03*
X135530000Y-104369321D03*
X134880000Y-104369321D03*
X134230000Y-104369321D03*
X133580000Y-104369321D03*
D42*
X134555000Y-102169321D03*
%TD*%
D43*
%TO.C,J6*%
X143350000Y-84434321D03*
X151650000Y-84434321D03*
D44*
X145250000Y-87684321D03*
X145750000Y-87684321D03*
X146250000Y-87684321D03*
X146750000Y-87684321D03*
X147250000Y-87684321D03*
X147750000Y-87684321D03*
X148250000Y-87684321D03*
X148750000Y-87684321D03*
X149250000Y-87684321D03*
X149750000Y-87684321D03*
%TD*%
D45*
%TO.C,C47*%
X133200000Y-77909321D03*
X133200000Y-76359321D03*
%TD*%
D10*
%TO.C,C16*%
X159500000Y-106859321D03*
X159500000Y-108409321D03*
%TD*%
D12*
%TO.C,C2*%
X143290000Y-93859321D03*
X143290000Y-92309321D03*
%TD*%
D21*
%TO.C,D10*%
X148600000Y-68154321D03*
X148600000Y-68804321D03*
X148600000Y-69454321D03*
X146400000Y-69454321D03*
X146400000Y-68804321D03*
X146400000Y-68154321D03*
%TD*%
D40*
%TO.C,R9*%
X134870000Y-114041821D03*
X134870000Y-115866821D03*
%TD*%
D29*
%TO.C,RN6*%
X138700000Y-100484321D03*
D30*
X138700000Y-99684321D03*
X138700000Y-98884321D03*
D29*
X138700000Y-98084321D03*
X140500000Y-98084321D03*
D30*
X140500000Y-98884321D03*
X140500000Y-99684321D03*
D29*
X140500000Y-100484321D03*
%TD*%
D46*
%TO.C,FB4*%
X143307500Y-90094321D03*
X145432500Y-90094321D03*
%TD*%
D47*
%TO.C,SW3*%
X141125000Y-132084321D03*
X136875000Y-132084321D03*
X141125000Y-130384321D03*
X136875000Y-130384321D03*
%TD*%
D12*
%TO.C,C17*%
X160500000Y-123909321D03*
X160500000Y-122359321D03*
%TD*%
D23*
%TO.C,C15*%
X155175000Y-57634321D03*
X153625000Y-57634321D03*
%TD*%
D48*
%TO.C,C44*%
X141675000Y-96034321D03*
X138725000Y-96034321D03*
%TD*%
D12*
%TO.C,C46*%
X134030000Y-71064321D03*
X134030000Y-69514321D03*
%TD*%
D49*
%TO.C,MDBT1*%
X147725000Y-127104321D03*
X148475000Y-127104321D03*
X149225000Y-127104321D03*
X149875000Y-127104321D03*
D50*
X143450000Y-129054321D03*
X143450000Y-126579321D03*
X144400000Y-126204321D03*
X143450000Y-125829321D03*
X144400000Y-125454321D03*
X143450000Y-125079321D03*
X144400000Y-124704321D03*
X143450000Y-124329321D03*
X144400000Y-123954321D03*
X143450000Y-123579321D03*
X144400000Y-123204321D03*
X143450000Y-122829321D03*
X144400000Y-122454321D03*
X143450000Y-122079321D03*
X144400000Y-121704321D03*
X143450000Y-121329321D03*
X144400000Y-120954321D03*
X143450000Y-120579321D03*
X144400000Y-120204321D03*
D49*
X143375000Y-119254321D03*
X144125000Y-119254321D03*
X144875000Y-119254321D03*
X145250000Y-120204321D03*
X145625000Y-119254321D03*
X146000000Y-120204321D03*
X146375000Y-119254321D03*
X146750000Y-120204321D03*
X147125000Y-119254321D03*
X147500000Y-120204321D03*
X147875000Y-119254321D03*
X148250000Y-120204321D03*
X148625000Y-119254321D03*
X149000000Y-120204321D03*
X149375000Y-119254321D03*
X149750000Y-120204321D03*
X150125000Y-119254321D03*
X150875000Y-119254321D03*
X151625000Y-119254321D03*
D50*
X150600000Y-120204321D03*
X151550000Y-120579321D03*
X150600000Y-120954321D03*
X151550000Y-121329321D03*
X150600000Y-121704321D03*
X151550000Y-122079321D03*
X150600000Y-122454321D03*
X151550000Y-122829321D03*
X150600000Y-123204321D03*
X151550000Y-123579321D03*
X150600000Y-123954321D03*
X151550000Y-124329321D03*
X150600000Y-124704321D03*
X151550000Y-125079321D03*
X150600000Y-125454321D03*
X151550000Y-125829321D03*
X150600000Y-126204321D03*
X151550000Y-126579321D03*
X150600000Y-126954321D03*
X151550000Y-127329321D03*
X150600000Y-127704321D03*
X151550000Y-128079321D03*
X151550000Y-129054321D03*
%TD*%
D51*
%TO.C,L1*%
X131440000Y-105509321D03*
X131440000Y-103359321D03*
%TD*%
D45*
%TO.C,C6*%
X134700000Y-77909321D03*
X134700000Y-76359321D03*
%TD*%
D52*
%TO.C,R3*%
X155225000Y-59634321D03*
X153575000Y-59634321D03*
%TD*%
D47*
%TO.C,SW1*%
X158125000Y-132084321D03*
X153875000Y-132084321D03*
X158125000Y-130384321D03*
X153875000Y-130384321D03*
%TD*%
D23*
%TO.C,C9*%
X144885000Y-74454321D03*
X143335000Y-74454321D03*
%TD*%
D52*
%TO.C,R4*%
X155225000Y-61134321D03*
X153575000Y-61134321D03*
%TD*%
D53*
%TO.C,R10*%
X137300000Y-126696821D03*
X137300000Y-123771821D03*
%TD*%
D54*
%TO.C,FB1*%
X144100000Y-69279321D03*
X144100000Y-66129321D03*
%TD*%
D20*
%TO.C,R8*%
X156440000Y-120464321D03*
X156440000Y-122114321D03*
%TD*%
D55*
%TO.C,U2*%
X133470000Y-74454323D03*
X132970002Y-74454323D03*
X132470000Y-74454323D03*
X131970001Y-74454323D03*
X131970001Y-72554321D03*
X132470000Y-72554321D03*
X132970002Y-72554321D03*
X133470000Y-72554321D03*
D56*
X132320002Y-73503698D03*
X133120002Y-73503698D03*
%TD*%
D11*
%TO.C,C48*%
X140000000Y-116608094D03*
X140000000Y-113658094D03*
%TD*%
D57*
%TO.C,Y1*%
X148000000Y-117084321D03*
X145500000Y-117084321D03*
%TD*%
D58*
%TO.C,L3*%
X141250000Y-127621821D03*
X141250000Y-126046821D03*
%TD*%
D12*
%TO.C,C12*%
X157450000Y-71809321D03*
X157450000Y-70259321D03*
%TD*%
D59*
%TO.C,D1*%
X156437500Y-124034321D03*
X154862500Y-124034321D03*
%TD*%
D14*
%TO.C,J5*%
X160435000Y-78824321D03*
X160435000Y-88424321D03*
D15*
X156560000Y-80124321D03*
X156560000Y-81124321D03*
X156560000Y-82124321D03*
X156560000Y-83124321D03*
X156560000Y-84124321D03*
X156560000Y-85124321D03*
X156560000Y-86124321D03*
X156560000Y-87124321D03*
%TD*%
D60*
%TO.C,J2*%
X155100001Y-74134321D03*
X150500000Y-74134321D03*
D61*
X153800001Y-70259321D03*
X152800002Y-70259321D03*
X151800001Y-70259320D03*
%TD*%
D10*
%TO.C,C11*%
X134650000Y-81359321D03*
X134650000Y-82909321D03*
%TD*%
D62*
%TO.C,RN8*%
X158750000Y-116884321D03*
D63*
X157950000Y-116884321D03*
X157150000Y-116884321D03*
D62*
X156350000Y-116884321D03*
X156350000Y-115084321D03*
D63*
X157150000Y-115084321D03*
X157950000Y-115084321D03*
D62*
X158750000Y-115084321D03*
%TD*%
D64*
%TO.C,FB2*%
X140810000Y-59419321D03*
X140810000Y-62569321D03*
%TD*%
D65*
%TO.C,J1*%
X156150000Y-106584321D03*
X138850000Y-106584321D03*
D66*
X154250000Y-103334321D03*
X153750000Y-103334321D03*
X153250000Y-103334321D03*
X152750000Y-103334321D03*
X152250000Y-103334321D03*
X151750000Y-103334321D03*
X151250000Y-103334321D03*
X150750000Y-103334321D03*
X150250000Y-103334321D03*
X149750000Y-103334321D03*
X149250000Y-103334321D03*
X148750000Y-103334321D03*
X148250000Y-103334321D03*
X147750000Y-103334321D03*
X147250000Y-103334321D03*
X146750000Y-103334321D03*
X146250000Y-103334321D03*
X145750000Y-103334321D03*
X145250000Y-103334321D03*
X144750000Y-103334321D03*
X144250000Y-103334321D03*
X143750000Y-103334321D03*
X143250000Y-103334321D03*
X142750000Y-103334321D03*
X142250000Y-103334321D03*
X141750000Y-103334321D03*
X141250000Y-103334321D03*
X140750000Y-103334321D03*
%TD*%
M02*
