%TF.GenerationSoftware,KiCad,Pcbnew,9.0.1*%
%TF.CreationDate,2025-04-05T00:34:01+01:00*%
%TF.ProjectId,mariposa,6d617269-706f-4736-912e-6b696361645f,2.0*%
%TF.SameCoordinates,Original*%
%TF.FileFunction,Drillmap*%
%TF.FilePolarity,Positive*%
%FSLAX45Y45*%
G04 Gerber Fmt 4.5, Leading zero omitted, Abs format (unit mm)*
G04 Created by KiCad (PCBNEW 9.0.1) date 2025-04-05 00:34:01*
%MOMM*%
%LPD*%
G01*
G04 APERTURE LIST*
%ADD10C,0.050000*%
%ADD11C,0.200024*%
%ADD12C,0.200000*%
%ADD13C,0.100000*%
G04 APERTURE END LIST*
D10*
X15250000Y-7555164D02*
G75*
G02*
X15299996Y-7605164I0J-49996D01*
G01*
X15300000Y-7605164D02*
G75*
G02*
X15250000Y-7655160I-50000J4D01*
G01*
X15250000Y-7655164D02*
X14250000Y-7655164D01*
X14250000Y-7655164D02*
G75*
G02*
X14199996Y-7605164I0J50004D01*
G01*
X14200000Y-7605164D02*
G75*
G02*
X14250000Y-7555160I50000J4D01*
G01*
X14250000Y-7555164D02*
X15250000Y-7555164D01*
D11*
X16714065Y-4355498D02*
X16728095Y-4356784D01*
X16742070Y-4358894D01*
X16755962Y-4361801D01*
X16769744Y-4365477D01*
X16783390Y-4369894D01*
X16796870Y-4375025D01*
X16810158Y-4380843D01*
X16823226Y-4387320D01*
X16836047Y-4394428D01*
X16848594Y-4402141D01*
X16860838Y-4410431D01*
X16872753Y-4419270D01*
X16884311Y-4428630D01*
X16895484Y-4438485D01*
X16906246Y-4448807D01*
X16916568Y-4459569D01*
X16926423Y-4470742D01*
X16935784Y-4482300D01*
X16944622Y-4494215D01*
X16952912Y-4506459D01*
X16960625Y-4519006D01*
X16967733Y-4531827D01*
X16974210Y-4544896D01*
X16980028Y-4558184D01*
X16985159Y-4571664D01*
X16989577Y-4585309D01*
X16993252Y-4599092D01*
X16996159Y-4612984D01*
X16998269Y-4626959D01*
X16999555Y-4640988D01*
X16999990Y-4655046D01*
X16999670Y-4668962D01*
X16998721Y-4682576D01*
X16997156Y-4695878D01*
X16994991Y-4708860D01*
X16992240Y-4721512D01*
X16988917Y-4733825D01*
X16985038Y-4745790D01*
X16980617Y-4757398D01*
X16975669Y-4768639D01*
X16970208Y-4779505D01*
X16964250Y-4789987D01*
X16957807Y-4800074D01*
X16950896Y-4809759D01*
X16943532Y-4819032D01*
X16935727Y-4827883D01*
X16927498Y-4836304D01*
X16918859Y-4844286D01*
X16909824Y-4851819D01*
X16900409Y-4858894D01*
X16890627Y-4865502D01*
X16880494Y-4871634D01*
X16870023Y-4877281D01*
X16859231Y-4882433D01*
X16848131Y-4887082D01*
X16836738Y-4891219D01*
X16825067Y-4894833D01*
X16813132Y-4897916D01*
X16800948Y-4900460D01*
X16788529Y-4902454D01*
X16775891Y-4903889D01*
X16763048Y-4904758D01*
X16750014Y-4905049D01*
X16736242Y-4904762D01*
X16723046Y-4903926D01*
X16710417Y-4902577D01*
X16698347Y-4900753D01*
X16686827Y-4898489D01*
X16675847Y-4895822D01*
X16665398Y-4892789D01*
X16655471Y-4889426D01*
X16646056Y-4885771D01*
X16637146Y-4881859D01*
X16620798Y-4873413D01*
X16606356Y-4864381D01*
X16593744Y-4855057D01*
X16582891Y-4845732D01*
X16573722Y-4836700D01*
X16566165Y-4828254D01*
X16560146Y-4820687D01*
X16552430Y-4809360D01*
X16549988Y-4805064D01*
X16544446Y-4812762D01*
X16529670Y-4834623D01*
X16519685Y-4850287D01*
X16508433Y-4868797D01*
X16496259Y-4889924D01*
X16483511Y-4913435D01*
X16470536Y-4939100D01*
X16457680Y-4966688D01*
X16445289Y-4995966D01*
X16439377Y-5011168D01*
X16433712Y-5026705D01*
X16428337Y-5042550D01*
X16423295Y-5058673D01*
X16418629Y-5075045D01*
X16414384Y-5091638D01*
X16410602Y-5108422D01*
X16407327Y-5125369D01*
X16404601Y-5142450D01*
X16402470Y-5159636D01*
X16453685Y-5227637D01*
X16502172Y-5297736D01*
X16547851Y-5369855D01*
X16590642Y-5443914D01*
X16630466Y-5519833D01*
X16667243Y-5597533D01*
X16700895Y-5676936D01*
X16731341Y-5757961D01*
X16758503Y-5840529D01*
X16782302Y-5924561D01*
X16802656Y-6009977D01*
X16819488Y-6096698D01*
X16832718Y-6184646D01*
X16842266Y-6273739D01*
X16848053Y-6363900D01*
X16849999Y-6455048D01*
X16846848Y-6570960D01*
X16837504Y-6685235D01*
X16822130Y-6797708D01*
X16800892Y-6908217D01*
X16773951Y-7016596D01*
X16741473Y-7122683D01*
X16703621Y-7226314D01*
X16660559Y-7327324D01*
X16612451Y-7425550D01*
X16559460Y-7520827D01*
X16501751Y-7612993D01*
X16439487Y-7701884D01*
X16372832Y-7787334D01*
X16301950Y-7869181D01*
X16227005Y-7947262D01*
X16148160Y-8021410D01*
X16276353Y-8272483D01*
X16374167Y-8474574D01*
X16426577Y-8591526D01*
X16479446Y-8717851D01*
X16531366Y-8852626D01*
X16580930Y-8994927D01*
X16626730Y-9143830D01*
X16667359Y-9298413D01*
X16701410Y-9457752D01*
X16715528Y-9538916D01*
X16727474Y-9620923D01*
X16737072Y-9703657D01*
X16744145Y-9787002D01*
X16748518Y-9870845D01*
X16750014Y-9955068D01*
X16748288Y-10037136D01*
X16743255Y-10114756D01*
X16735137Y-10188164D01*
X16724154Y-10257599D01*
X16710525Y-10323298D01*
X16694472Y-10385501D01*
X16676215Y-10444445D01*
X16655975Y-10500367D01*
X16633971Y-10553506D01*
X16610424Y-10604101D01*
X16559584Y-10698606D01*
X16505217Y-10785788D01*
X16449087Y-10867550D01*
X16338591Y-11022432D01*
X16287751Y-11099361D01*
X16242200Y-11178486D01*
X16221960Y-11219468D01*
X16203703Y-11261713D01*
X16187650Y-11305460D01*
X16174021Y-11350946D01*
X16163038Y-11398410D01*
X16154920Y-11448089D01*
X16149887Y-11500221D01*
X16148160Y-11555045D01*
X16152002Y-11667723D01*
X16162860Y-11780107D01*
X16179731Y-11891234D01*
X16201613Y-12000143D01*
X16227504Y-12105870D01*
X16256402Y-12207453D01*
X16287305Y-12303930D01*
X16319209Y-12394337D01*
X16382016Y-12553096D01*
X16436805Y-12676029D01*
X16490258Y-12783615D01*
X16504872Y-12818109D01*
X16517833Y-12853577D01*
X16538845Y-12927061D01*
X16553396Y-13003314D01*
X16561584Y-13081587D01*
X16563510Y-13161129D01*
X16559274Y-13241188D01*
X16548976Y-13321014D01*
X16532715Y-13399856D01*
X16510593Y-13476963D01*
X16482708Y-13551584D01*
X16449162Y-13622969D01*
X16410053Y-13690366D01*
X16388445Y-13722334D01*
X16365483Y-13753024D01*
X16341181Y-13782342D01*
X16315551Y-13810194D01*
X16288605Y-13836485D01*
X16260357Y-13861123D01*
X16230818Y-13884013D01*
X16200001Y-13905061D01*
X16129636Y-13947844D01*
X16055831Y-13990129D01*
X15978743Y-14031606D01*
X15898533Y-14071960D01*
X15815357Y-14110880D01*
X15729374Y-14148055D01*
X15640743Y-14183170D01*
X15549621Y-14215916D01*
X15456168Y-14245978D01*
X15360542Y-14273045D01*
X15262901Y-14296804D01*
X15163403Y-14316944D01*
X15062207Y-14333152D01*
X14959472Y-14345116D01*
X14855354Y-14352523D01*
X14750014Y-14355061D01*
X14644656Y-14352544D01*
X14540498Y-14345196D01*
X14437703Y-14333319D01*
X14336437Y-14317218D01*
X14236862Y-14297197D01*
X14139143Y-14273558D01*
X14043442Y-14246607D01*
X13949924Y-14216646D01*
X13858752Y-14183979D01*
X13770090Y-14148910D01*
X13684102Y-14111743D01*
X13600951Y-14072781D01*
X13520802Y-14032329D01*
X13443817Y-13990688D01*
X13370161Y-13948165D01*
X13299998Y-13905061D01*
X13269274Y-13884067D01*
X13239831Y-13861223D01*
X13211681Y-13836625D01*
X13184836Y-13810368D01*
X13159308Y-13782544D01*
X13135109Y-13753250D01*
X13112252Y-13722579D01*
X13090748Y-13690626D01*
X13070608Y-13657486D01*
X13051846Y-13623251D01*
X13034473Y-13588018D01*
X13018502Y-13551881D01*
X13003943Y-13514933D01*
X12990810Y-13477269D01*
X12979114Y-13438984D01*
X12968867Y-13400172D01*
X12952769Y-13321345D01*
X12942613Y-13241543D01*
X12938494Y-13161522D01*
X12938728Y-13121666D01*
X12940508Y-13082037D01*
X12943846Y-13042731D01*
X12948752Y-13003843D01*
X12955240Y-12965466D01*
X12963322Y-12927695D01*
X12973009Y-12890625D01*
X12984314Y-12854349D01*
X12997248Y-12818963D01*
X13011823Y-12784561D01*
X13117245Y-12559519D01*
X13145621Y-12497034D01*
X13173901Y-12431547D01*
X13201633Y-12362800D01*
X13228365Y-12290537D01*
X13253645Y-12214501D01*
X13277021Y-12134435D01*
X13298041Y-12050083D01*
X13316253Y-11961188D01*
X13331205Y-11867493D01*
X13342444Y-11768742D01*
X13349519Y-11664679D01*
X13351978Y-11555045D01*
X13350251Y-11500221D01*
X13345218Y-11448089D01*
X13337098Y-11398410D01*
X13326113Y-11350946D01*
X13312482Y-11305460D01*
X13296426Y-11261713D01*
X13278165Y-11219468D01*
X13257921Y-11178486D01*
X13235913Y-11138530D01*
X13212362Y-11099361D01*
X13161513Y-11022432D01*
X13050996Y-10867550D01*
X12994855Y-10785788D01*
X12967336Y-10742993D01*
X12940478Y-10698606D01*
X12914503Y-10652388D01*
X12889629Y-10604101D01*
X12866078Y-10553506D01*
X12844070Y-10500367D01*
X12823826Y-10444445D01*
X12805565Y-10385501D01*
X12789510Y-10323298D01*
X12775879Y-10257599D01*
X12764893Y-10188164D01*
X12756773Y-10114756D01*
X12751740Y-10037136D01*
X12750013Y-9955068D01*
X12756773Y-9785038D01*
X12775879Y-9613588D01*
X12805565Y-9442428D01*
X12844070Y-9273267D01*
X12889629Y-9107816D01*
X12940478Y-8947782D01*
X12994855Y-8794876D01*
X13050996Y-8650808D01*
X13161513Y-8396021D01*
X13257921Y-8197098D01*
X13351978Y-8021549D01*
X13273119Y-7947399D01*
X13198159Y-7869316D01*
X13127263Y-7787465D01*
X13060596Y-7702008D01*
X12998319Y-7613111D01*
X12940599Y-7520937D01*
X12887598Y-7425650D01*
X12839480Y-7327414D01*
X12796409Y-7226393D01*
X12758549Y-7122752D01*
X12726064Y-7016653D01*
X12699118Y-6908262D01*
X12677875Y-6797742D01*
X12662499Y-6685257D01*
X12653153Y-6570971D01*
X12650001Y-6455048D01*
X12651951Y-6363822D01*
X12657747Y-6273586D01*
X12667311Y-6184418D01*
X12680563Y-6096399D01*
X12697423Y-6009608D01*
X12717811Y-5924124D01*
X12741649Y-5840028D01*
X12768856Y-5757398D01*
X12799354Y-5676315D01*
X12833062Y-5596858D01*
X12869901Y-5519107D01*
X12909792Y-5443140D01*
X12952654Y-5369039D01*
X12998410Y-5296882D01*
X13046978Y-5226749D01*
X13098280Y-5158719D01*
X13093863Y-5118149D01*
X13087114Y-5079761D01*
X13078396Y-5043614D01*
X13068068Y-5009769D01*
X13056492Y-4978286D01*
X13044028Y-4949225D01*
X13031038Y-4922647D01*
X13017883Y-4898611D01*
X13004923Y-4877177D01*
X12992521Y-4858406D01*
X12970829Y-4829092D01*
X12950010Y-4805064D01*
X12947568Y-4809360D01*
X12944406Y-4814291D01*
X12939853Y-4820687D01*
X12933835Y-4828254D01*
X12926278Y-4836700D01*
X12921900Y-4841161D01*
X12917111Y-4845732D01*
X12911900Y-4850376D01*
X12906259Y-4855057D01*
X12900178Y-4859737D01*
X12893649Y-4864381D01*
X12886662Y-4868952D01*
X12879208Y-4873413D01*
X12871278Y-4877728D01*
X12862863Y-4881859D01*
X12853953Y-4885771D01*
X12844540Y-4889426D01*
X12834615Y-4892789D01*
X12824168Y-4895822D01*
X12813189Y-4898489D01*
X12801671Y-4900753D01*
X12789603Y-4902577D01*
X12776977Y-4903926D01*
X12763783Y-4904762D01*
X12750013Y-4905049D01*
X12736977Y-4904758D01*
X12724131Y-4903889D01*
X12711491Y-4902454D01*
X12699071Y-4900460D01*
X12686885Y-4897916D01*
X12674948Y-4894833D01*
X12663275Y-4891219D01*
X12651881Y-4887082D01*
X12640779Y-4882433D01*
X12629986Y-4877281D01*
X12619514Y-4871634D01*
X12609380Y-4865502D01*
X12599597Y-4858894D01*
X12590181Y-4851819D01*
X12581145Y-4844286D01*
X12572505Y-4836304D01*
X12564276Y-4827883D01*
X12556471Y-4819032D01*
X12549105Y-4809759D01*
X12542194Y-4800074D01*
X12535752Y-4789987D01*
X12529792Y-4779505D01*
X12524331Y-4768639D01*
X12519383Y-4757398D01*
X12514962Y-4745790D01*
X12511083Y-4733825D01*
X12507761Y-4721512D01*
X12505009Y-4708860D01*
X12502844Y-4695878D01*
X12501279Y-4682576D01*
X12500330Y-4668962D01*
X12500010Y-4655046D01*
X12500416Y-4640988D01*
X12501621Y-4626959D01*
X12503602Y-4612984D01*
X12506338Y-4599092D01*
X12509805Y-4585309D01*
X12513984Y-4571664D01*
X12518850Y-4558184D01*
X12524383Y-4544896D01*
X12530561Y-4531827D01*
X12537361Y-4519006D01*
X12544761Y-4506459D01*
X12552741Y-4494215D01*
X12561277Y-4482300D01*
X12570347Y-4470742D01*
X12579930Y-4459569D01*
X12590004Y-4448807D01*
X12600546Y-4438485D01*
X12611536Y-4428630D01*
X12622950Y-4419270D01*
X12634767Y-4410431D01*
X12646964Y-4402141D01*
X12659521Y-4394428D01*
X12672415Y-4387320D01*
X12685623Y-4380843D01*
X12699124Y-4375025D01*
X12712897Y-4369894D01*
X12726918Y-4365477D01*
X12741167Y-4361801D01*
X12755620Y-4358894D01*
X12770257Y-4356784D01*
X12785055Y-4355498D01*
X12799992Y-4355063D01*
X12820065Y-4355780D01*
X12839054Y-4357871D01*
X12856989Y-4361243D01*
X12873898Y-4365805D01*
X12889811Y-4371467D01*
X12904757Y-4378135D01*
X12918766Y-4385718D01*
X12931867Y-4394126D01*
X12944089Y-4403266D01*
X12955461Y-4413047D01*
X12966013Y-4423378D01*
X12975774Y-4434166D01*
X12984773Y-4445320D01*
X12993040Y-4456749D01*
X13000604Y-4468361D01*
X13007494Y-4480065D01*
X13013739Y-4491768D01*
X13019369Y-4503381D01*
X13028901Y-4525964D01*
X13036323Y-4547082D01*
X13041870Y-4566003D01*
X13045777Y-4581995D01*
X13048277Y-4594324D01*
X13049996Y-4605067D01*
X13058279Y-4605498D01*
X13068244Y-4606521D01*
X13081747Y-4608515D01*
X13098529Y-4611802D01*
X13118332Y-4616705D01*
X13140897Y-4623548D01*
X13165965Y-4632653D01*
X13179357Y-4638156D01*
X13193278Y-4644345D01*
X13207695Y-4651262D01*
X13222577Y-4658947D01*
X13237890Y-4667440D01*
X13253604Y-4676782D01*
X13269684Y-4687012D01*
X13286099Y-4698172D01*
X13302817Y-4710302D01*
X13319805Y-4723442D01*
X13337031Y-4737633D01*
X13354462Y-4752915D01*
X13372067Y-4769328D01*
X13389812Y-4786913D01*
X13407667Y-4805711D01*
X13425597Y-4825761D01*
X13494519Y-4771987D01*
X13565689Y-4721059D01*
X13639022Y-4673064D01*
X13714431Y-4628086D01*
X13791830Y-4586212D01*
X13871134Y-4547529D01*
X13952256Y-4512121D01*
X14035112Y-4480076D01*
X14119613Y-4451478D01*
X14205676Y-4426414D01*
X14293213Y-4404971D01*
X14382140Y-4387233D01*
X14472369Y-4373288D01*
X14563815Y-4363220D01*
X14656392Y-4357117D01*
X14750014Y-4355063D01*
X14843632Y-4357117D01*
X14936204Y-4363220D01*
X15027647Y-4373288D01*
X15117873Y-4387233D01*
X15206796Y-4404971D01*
X15294331Y-4426414D01*
X15380392Y-4451478D01*
X15464892Y-4480076D01*
X15547746Y-4512121D01*
X15628867Y-4547529D01*
X15708170Y-4586212D01*
X15785569Y-4628086D01*
X15860977Y-4673064D01*
X15934310Y-4721059D01*
X16005479Y-4771987D01*
X16074401Y-4825761D01*
X16092332Y-4805711D01*
X16110186Y-4786913D01*
X16145537Y-4752915D01*
X16180194Y-4723442D01*
X16213900Y-4698172D01*
X16246396Y-4676782D01*
X16277423Y-4658947D01*
X16306722Y-4644345D01*
X16334035Y-4632653D01*
X16359103Y-4623548D01*
X16381668Y-4616705D01*
X16401471Y-4611802D01*
X16418253Y-4608515D01*
X16441721Y-4605498D01*
X16450004Y-4605067D01*
X16450492Y-4594324D01*
X16451652Y-4581995D01*
X16453910Y-4566003D01*
X16457633Y-4547082D01*
X16463188Y-4525964D01*
X16470939Y-4503381D01*
X16475753Y-4491768D01*
X16481254Y-4480065D01*
X16487488Y-4468361D01*
X16494499Y-4456749D01*
X16502335Y-4445320D01*
X16511040Y-4434166D01*
X16520661Y-4423378D01*
X16531243Y-4413047D01*
X16542832Y-4403266D01*
X16555474Y-4394126D01*
X16569215Y-4385718D01*
X16584100Y-4378135D01*
X16600176Y-4371467D01*
X16617487Y-4365805D01*
X16636080Y-4361243D01*
X16656001Y-4357871D01*
X16677295Y-4355780D01*
X16700008Y-4355063D01*
X16714065Y-4355498D01*
D10*
X14663000Y-7078432D02*
X14663000Y-7190432D01*
X14757000Y-6998432D02*
X14743000Y-6998432D01*
X14757000Y-7270432D02*
X14743000Y-7270432D01*
X14837000Y-7078432D02*
X14837000Y-7190432D01*
X14663000Y-7078432D02*
G75*
G02*
X14743000Y-6998432I80000J0D01*
G01*
X14743000Y-7270432D02*
G75*
G02*
X14663000Y-7190432I0J80000D01*
G01*
X14757000Y-6998432D02*
G75*
G02*
X14837000Y-7078432I0J-80000D01*
G01*
X14837000Y-7190432D02*
G75*
G02*
X14757000Y-7270432I-80000J0D01*
G01*
D12*
D13*
X14428500Y-4937432D02*
X14493500Y-5002432D01*
X14493500Y-4937432D02*
X14428500Y-5002432D01*
X15006500Y-4937432D02*
X15071500Y-5002432D01*
X15071500Y-4937432D02*
X15006500Y-5002432D01*
X15897430Y-12263432D02*
G75*
G02*
X15798370Y-12263432I-49530J0D01*
G01*
X15798370Y-12263432D02*
G75*
G02*
X15897430Y-12263432I49530J0D01*
G01*
X15999030Y-11755432D02*
G75*
G02*
X15899970Y-11755432I-49530J0D01*
G01*
X15899970Y-11755432D02*
G75*
G02*
X15999030Y-11755432I49530J0D01*
G01*
X16100630Y-12263432D02*
G75*
G02*
X16001570Y-12263432I-49530J0D01*
G01*
X16001570Y-12263432D02*
G75*
G02*
X16100630Y-12263432I49530J0D01*
G01*
D12*
X12750785Y-14676546D02*
X12750785Y-14476546D01*
X12750785Y-14476546D02*
X12798404Y-14476546D01*
X12798404Y-14476546D02*
X12826976Y-14486070D01*
X12826976Y-14486070D02*
X12846024Y-14505118D01*
X12846024Y-14505118D02*
X12855547Y-14524165D01*
X12855547Y-14524165D02*
X12865071Y-14562261D01*
X12865071Y-14562261D02*
X12865071Y-14590832D01*
X12865071Y-14590832D02*
X12855547Y-14628927D01*
X12855547Y-14628927D02*
X12846024Y-14647975D01*
X12846024Y-14647975D02*
X12826976Y-14667023D01*
X12826976Y-14667023D02*
X12798404Y-14676546D01*
X12798404Y-14676546D02*
X12750785Y-14676546D01*
X12950785Y-14676546D02*
X12950785Y-14543213D01*
X12950785Y-14581308D02*
X12960309Y-14562261D01*
X12960309Y-14562261D02*
X12969833Y-14552737D01*
X12969833Y-14552737D02*
X12988881Y-14543213D01*
X12988881Y-14543213D02*
X13007928Y-14543213D01*
X13074595Y-14676546D02*
X13074595Y-14543213D01*
X13074595Y-14476546D02*
X13065071Y-14486070D01*
X13065071Y-14486070D02*
X13074595Y-14495594D01*
X13074595Y-14495594D02*
X13084119Y-14486070D01*
X13084119Y-14486070D02*
X13074595Y-14476546D01*
X13074595Y-14476546D02*
X13074595Y-14495594D01*
X13198404Y-14676546D02*
X13179357Y-14667023D01*
X13179357Y-14667023D02*
X13169833Y-14647975D01*
X13169833Y-14647975D02*
X13169833Y-14476546D01*
X13303166Y-14676546D02*
X13284119Y-14667023D01*
X13284119Y-14667023D02*
X13274595Y-14647975D01*
X13274595Y-14647975D02*
X13274595Y-14476546D01*
X13531738Y-14676546D02*
X13531738Y-14476546D01*
X13531738Y-14476546D02*
X13598405Y-14619404D01*
X13598405Y-14619404D02*
X13665071Y-14476546D01*
X13665071Y-14476546D02*
X13665071Y-14676546D01*
X13846024Y-14676546D02*
X13846024Y-14571785D01*
X13846024Y-14571785D02*
X13836500Y-14552737D01*
X13836500Y-14552737D02*
X13817452Y-14543213D01*
X13817452Y-14543213D02*
X13779357Y-14543213D01*
X13779357Y-14543213D02*
X13760309Y-14552737D01*
X13846024Y-14667023D02*
X13826976Y-14676546D01*
X13826976Y-14676546D02*
X13779357Y-14676546D01*
X13779357Y-14676546D02*
X13760309Y-14667023D01*
X13760309Y-14667023D02*
X13750785Y-14647975D01*
X13750785Y-14647975D02*
X13750785Y-14628927D01*
X13750785Y-14628927D02*
X13760309Y-14609880D01*
X13760309Y-14609880D02*
X13779357Y-14600356D01*
X13779357Y-14600356D02*
X13826976Y-14600356D01*
X13826976Y-14600356D02*
X13846024Y-14590832D01*
X13941262Y-14543213D02*
X13941262Y-14743213D01*
X13941262Y-14552737D02*
X13960309Y-14543213D01*
X13960309Y-14543213D02*
X13998405Y-14543213D01*
X13998405Y-14543213D02*
X14017452Y-14552737D01*
X14017452Y-14552737D02*
X14026976Y-14562261D01*
X14026976Y-14562261D02*
X14036500Y-14581308D01*
X14036500Y-14581308D02*
X14036500Y-14638451D01*
X14036500Y-14638451D02*
X14026976Y-14657499D01*
X14026976Y-14657499D02*
X14017452Y-14667023D01*
X14017452Y-14667023D02*
X13998405Y-14676546D01*
X13998405Y-14676546D02*
X13960309Y-14676546D01*
X13960309Y-14676546D02*
X13941262Y-14667023D01*
X14122214Y-14657499D02*
X14131738Y-14667023D01*
X14131738Y-14667023D02*
X14122214Y-14676546D01*
X14122214Y-14676546D02*
X14112690Y-14667023D01*
X14112690Y-14667023D02*
X14122214Y-14657499D01*
X14122214Y-14657499D02*
X14122214Y-14676546D01*
X14122214Y-14552737D02*
X14131738Y-14562261D01*
X14131738Y-14562261D02*
X14122214Y-14571785D01*
X14122214Y-14571785D02*
X14112690Y-14562261D01*
X14112690Y-14562261D02*
X14122214Y-14552737D01*
X14122214Y-14552737D02*
X14122214Y-14571785D01*
D13*
X12425009Y-14972563D02*
X12490009Y-15037563D01*
X12490009Y-14972563D02*
X12425009Y-15037563D01*
D12*
X12788881Y-14896546D02*
X12807928Y-14896546D01*
X12807928Y-14896546D02*
X12826976Y-14906070D01*
X12826976Y-14906070D02*
X12836500Y-14915594D01*
X12836500Y-14915594D02*
X12846024Y-14934642D01*
X12846024Y-14934642D02*
X12855547Y-14972737D01*
X12855547Y-14972737D02*
X12855547Y-15020356D01*
X12855547Y-15020356D02*
X12846024Y-15058451D01*
X12846024Y-15058451D02*
X12836500Y-15077499D01*
X12836500Y-15077499D02*
X12826976Y-15087023D01*
X12826976Y-15087023D02*
X12807928Y-15096546D01*
X12807928Y-15096546D02*
X12788881Y-15096546D01*
X12788881Y-15096546D02*
X12769833Y-15087023D01*
X12769833Y-15087023D02*
X12760309Y-15077499D01*
X12760309Y-15077499D02*
X12750785Y-15058451D01*
X12750785Y-15058451D02*
X12741262Y-15020356D01*
X12741262Y-15020356D02*
X12741262Y-14972737D01*
X12741262Y-14972737D02*
X12750785Y-14934642D01*
X12750785Y-14934642D02*
X12760309Y-14915594D01*
X12760309Y-14915594D02*
X12769833Y-14906070D01*
X12769833Y-14906070D02*
X12788881Y-14896546D01*
X12941262Y-15077499D02*
X12950785Y-15087023D01*
X12950785Y-15087023D02*
X12941262Y-15096546D01*
X12941262Y-15096546D02*
X12931738Y-15087023D01*
X12931738Y-15087023D02*
X12941262Y-15077499D01*
X12941262Y-15077499D02*
X12941262Y-15096546D01*
X13122214Y-14896546D02*
X13084119Y-14896546D01*
X13084119Y-14896546D02*
X13065071Y-14906070D01*
X13065071Y-14906070D02*
X13055547Y-14915594D01*
X13055547Y-14915594D02*
X13036500Y-14944165D01*
X13036500Y-14944165D02*
X13026976Y-14982261D01*
X13026976Y-14982261D02*
X13026976Y-15058451D01*
X13026976Y-15058451D02*
X13036500Y-15077499D01*
X13036500Y-15077499D02*
X13046024Y-15087023D01*
X13046024Y-15087023D02*
X13065071Y-15096546D01*
X13065071Y-15096546D02*
X13103166Y-15096546D01*
X13103166Y-15096546D02*
X13122214Y-15087023D01*
X13122214Y-15087023D02*
X13131738Y-15077499D01*
X13131738Y-15077499D02*
X13141262Y-15058451D01*
X13141262Y-15058451D02*
X13141262Y-15010832D01*
X13141262Y-15010832D02*
X13131738Y-14991785D01*
X13131738Y-14991785D02*
X13122214Y-14982261D01*
X13122214Y-14982261D02*
X13103166Y-14972737D01*
X13103166Y-14972737D02*
X13065071Y-14972737D01*
X13065071Y-14972737D02*
X13046024Y-14982261D01*
X13046024Y-14982261D02*
X13036500Y-14991785D01*
X13036500Y-14991785D02*
X13026976Y-15010832D01*
X13322214Y-14896546D02*
X13226976Y-14896546D01*
X13226976Y-14896546D02*
X13217452Y-14991785D01*
X13217452Y-14991785D02*
X13226976Y-14982261D01*
X13226976Y-14982261D02*
X13246024Y-14972737D01*
X13246024Y-14972737D02*
X13293643Y-14972737D01*
X13293643Y-14972737D02*
X13312690Y-14982261D01*
X13312690Y-14982261D02*
X13322214Y-14991785D01*
X13322214Y-14991785D02*
X13331738Y-15010832D01*
X13331738Y-15010832D02*
X13331738Y-15058451D01*
X13331738Y-15058451D02*
X13322214Y-15077499D01*
X13322214Y-15077499D02*
X13312690Y-15087023D01*
X13312690Y-15087023D02*
X13293643Y-15096546D01*
X13293643Y-15096546D02*
X13246024Y-15096546D01*
X13246024Y-15096546D02*
X13226976Y-15087023D01*
X13226976Y-15087023D02*
X13217452Y-15077499D01*
X13455547Y-14896546D02*
X13474595Y-14896546D01*
X13474595Y-14896546D02*
X13493643Y-14906070D01*
X13493643Y-14906070D02*
X13503166Y-14915594D01*
X13503166Y-14915594D02*
X13512690Y-14934642D01*
X13512690Y-14934642D02*
X13522214Y-14972737D01*
X13522214Y-14972737D02*
X13522214Y-15020356D01*
X13522214Y-15020356D02*
X13512690Y-15058451D01*
X13512690Y-15058451D02*
X13503166Y-15077499D01*
X13503166Y-15077499D02*
X13493643Y-15087023D01*
X13493643Y-15087023D02*
X13474595Y-15096546D01*
X13474595Y-15096546D02*
X13455547Y-15096546D01*
X13455547Y-15096546D02*
X13436500Y-15087023D01*
X13436500Y-15087023D02*
X13426976Y-15077499D01*
X13426976Y-15077499D02*
X13417452Y-15058451D01*
X13417452Y-15058451D02*
X13407928Y-15020356D01*
X13407928Y-15020356D02*
X13407928Y-14972737D01*
X13407928Y-14972737D02*
X13417452Y-14934642D01*
X13417452Y-14934642D02*
X13426976Y-14915594D01*
X13426976Y-14915594D02*
X13436500Y-14906070D01*
X13436500Y-14906070D02*
X13455547Y-14896546D01*
X13607928Y-15096546D02*
X13607928Y-14963213D01*
X13607928Y-14982261D02*
X13617452Y-14972737D01*
X13617452Y-14972737D02*
X13636500Y-14963213D01*
X13636500Y-14963213D02*
X13665071Y-14963213D01*
X13665071Y-14963213D02*
X13684119Y-14972737D01*
X13684119Y-14972737D02*
X13693643Y-14991785D01*
X13693643Y-14991785D02*
X13693643Y-15096546D01*
X13693643Y-14991785D02*
X13703166Y-14972737D01*
X13703166Y-14972737D02*
X13722214Y-14963213D01*
X13722214Y-14963213D02*
X13750785Y-14963213D01*
X13750785Y-14963213D02*
X13769833Y-14972737D01*
X13769833Y-14972737D02*
X13779357Y-14991785D01*
X13779357Y-14991785D02*
X13779357Y-15096546D01*
X13874595Y-15096546D02*
X13874595Y-14963213D01*
X13874595Y-14982261D02*
X13884119Y-14972737D01*
X13884119Y-14972737D02*
X13903166Y-14963213D01*
X13903166Y-14963213D02*
X13931738Y-14963213D01*
X13931738Y-14963213D02*
X13950786Y-14972737D01*
X13950786Y-14972737D02*
X13960309Y-14991785D01*
X13960309Y-14991785D02*
X13960309Y-15096546D01*
X13960309Y-14991785D02*
X13969833Y-14972737D01*
X13969833Y-14972737D02*
X13988881Y-14963213D01*
X13988881Y-14963213D02*
X14017452Y-14963213D01*
X14017452Y-14963213D02*
X14036500Y-14972737D01*
X14036500Y-14972737D02*
X14046024Y-14991785D01*
X14046024Y-14991785D02*
X14046024Y-15096546D01*
X14436500Y-14887023D02*
X14265071Y-15144165D01*
X14693643Y-14896546D02*
X14712690Y-14896546D01*
X14712690Y-14896546D02*
X14731738Y-14906070D01*
X14731738Y-14906070D02*
X14741262Y-14915594D01*
X14741262Y-14915594D02*
X14750786Y-14934642D01*
X14750786Y-14934642D02*
X14760309Y-14972737D01*
X14760309Y-14972737D02*
X14760309Y-15020356D01*
X14760309Y-15020356D02*
X14750786Y-15058451D01*
X14750786Y-15058451D02*
X14741262Y-15077499D01*
X14741262Y-15077499D02*
X14731738Y-15087023D01*
X14731738Y-15087023D02*
X14712690Y-15096546D01*
X14712690Y-15096546D02*
X14693643Y-15096546D01*
X14693643Y-15096546D02*
X14674595Y-15087023D01*
X14674595Y-15087023D02*
X14665071Y-15077499D01*
X14665071Y-15077499D02*
X14655548Y-15058451D01*
X14655548Y-15058451D02*
X14646024Y-15020356D01*
X14646024Y-15020356D02*
X14646024Y-14972737D01*
X14646024Y-14972737D02*
X14655548Y-14934642D01*
X14655548Y-14934642D02*
X14665071Y-14915594D01*
X14665071Y-14915594D02*
X14674595Y-14906070D01*
X14674595Y-14906070D02*
X14693643Y-14896546D01*
X14846024Y-15077499D02*
X14855548Y-15087023D01*
X14855548Y-15087023D02*
X14846024Y-15096546D01*
X14846024Y-15096546D02*
X14836500Y-15087023D01*
X14836500Y-15087023D02*
X14846024Y-15077499D01*
X14846024Y-15077499D02*
X14846024Y-15096546D01*
X14979357Y-14896546D02*
X14998405Y-14896546D01*
X14998405Y-14896546D02*
X15017452Y-14906070D01*
X15017452Y-14906070D02*
X15026976Y-14915594D01*
X15026976Y-14915594D02*
X15036500Y-14934642D01*
X15036500Y-14934642D02*
X15046024Y-14972737D01*
X15046024Y-14972737D02*
X15046024Y-15020356D01*
X15046024Y-15020356D02*
X15036500Y-15058451D01*
X15036500Y-15058451D02*
X15026976Y-15077499D01*
X15026976Y-15077499D02*
X15017452Y-15087023D01*
X15017452Y-15087023D02*
X14998405Y-15096546D01*
X14998405Y-15096546D02*
X14979357Y-15096546D01*
X14979357Y-15096546D02*
X14960309Y-15087023D01*
X14960309Y-15087023D02*
X14950786Y-15077499D01*
X14950786Y-15077499D02*
X14941262Y-15058451D01*
X14941262Y-15058451D02*
X14931738Y-15020356D01*
X14931738Y-15020356D02*
X14931738Y-14972737D01*
X14931738Y-14972737D02*
X14941262Y-14934642D01*
X14941262Y-14934642D02*
X14950786Y-14915594D01*
X14950786Y-14915594D02*
X14960309Y-14906070D01*
X14960309Y-14906070D02*
X14979357Y-14896546D01*
X15122214Y-14915594D02*
X15131738Y-14906070D01*
X15131738Y-14906070D02*
X15150786Y-14896546D01*
X15150786Y-14896546D02*
X15198405Y-14896546D01*
X15198405Y-14896546D02*
X15217452Y-14906070D01*
X15217452Y-14906070D02*
X15226976Y-14915594D01*
X15226976Y-14915594D02*
X15236500Y-14934642D01*
X15236500Y-14934642D02*
X15236500Y-14953689D01*
X15236500Y-14953689D02*
X15226976Y-14982261D01*
X15226976Y-14982261D02*
X15112690Y-15096546D01*
X15112690Y-15096546D02*
X15236500Y-15096546D01*
X15417452Y-14896546D02*
X15322214Y-14896546D01*
X15322214Y-14896546D02*
X15312690Y-14991785D01*
X15312690Y-14991785D02*
X15322214Y-14982261D01*
X15322214Y-14982261D02*
X15341262Y-14972737D01*
X15341262Y-14972737D02*
X15388881Y-14972737D01*
X15388881Y-14972737D02*
X15407929Y-14982261D01*
X15407929Y-14982261D02*
X15417452Y-14991785D01*
X15417452Y-14991785D02*
X15426976Y-15010832D01*
X15426976Y-15010832D02*
X15426976Y-15058451D01*
X15426976Y-15058451D02*
X15417452Y-15077499D01*
X15417452Y-15077499D02*
X15407929Y-15087023D01*
X15407929Y-15087023D02*
X15388881Y-15096546D01*
X15388881Y-15096546D02*
X15341262Y-15096546D01*
X15341262Y-15096546D02*
X15322214Y-15087023D01*
X15322214Y-15087023D02*
X15312690Y-15077499D01*
X15598405Y-14896546D02*
X15560309Y-14896546D01*
X15560309Y-14896546D02*
X15541262Y-14906070D01*
X15541262Y-14906070D02*
X15531738Y-14915594D01*
X15531738Y-14915594D02*
X15512690Y-14944165D01*
X15512690Y-14944165D02*
X15503167Y-14982261D01*
X15503167Y-14982261D02*
X15503167Y-15058451D01*
X15503167Y-15058451D02*
X15512690Y-15077499D01*
X15512690Y-15077499D02*
X15522214Y-15087023D01*
X15522214Y-15087023D02*
X15541262Y-15096546D01*
X15541262Y-15096546D02*
X15579357Y-15096546D01*
X15579357Y-15096546D02*
X15598405Y-15087023D01*
X15598405Y-15087023D02*
X15607929Y-15077499D01*
X15607929Y-15077499D02*
X15617452Y-15058451D01*
X15617452Y-15058451D02*
X15617452Y-15010832D01*
X15617452Y-15010832D02*
X15607929Y-14991785D01*
X15607929Y-14991785D02*
X15598405Y-14982261D01*
X15598405Y-14982261D02*
X15579357Y-14972737D01*
X15579357Y-14972737D02*
X15541262Y-14972737D01*
X15541262Y-14972737D02*
X15522214Y-14982261D01*
X15522214Y-14982261D02*
X15512690Y-14991785D01*
X15512690Y-14991785D02*
X15503167Y-15010832D01*
X15693643Y-14896546D02*
X15693643Y-14934642D01*
X15769833Y-14896546D02*
X15769833Y-14934642D01*
X16065072Y-15172737D02*
X16055548Y-15163213D01*
X16055548Y-15163213D02*
X16036500Y-15134642D01*
X16036500Y-15134642D02*
X16026976Y-15115594D01*
X16026976Y-15115594D02*
X16017452Y-15087023D01*
X16017452Y-15087023D02*
X16007929Y-15039404D01*
X16007929Y-15039404D02*
X16007929Y-15001308D01*
X16007929Y-15001308D02*
X16017452Y-14953689D01*
X16017452Y-14953689D02*
X16026976Y-14925118D01*
X16026976Y-14925118D02*
X16036500Y-14906070D01*
X16036500Y-14906070D02*
X16055548Y-14877499D01*
X16055548Y-14877499D02*
X16065072Y-14867975D01*
X16131738Y-14915594D02*
X16141262Y-14906070D01*
X16141262Y-14906070D02*
X16160310Y-14896546D01*
X16160310Y-14896546D02*
X16207929Y-14896546D01*
X16207929Y-14896546D02*
X16226976Y-14906070D01*
X16226976Y-14906070D02*
X16236500Y-14915594D01*
X16236500Y-14915594D02*
X16246024Y-14934642D01*
X16246024Y-14934642D02*
X16246024Y-14953689D01*
X16246024Y-14953689D02*
X16236500Y-14982261D01*
X16236500Y-14982261D02*
X16122214Y-15096546D01*
X16122214Y-15096546D02*
X16246024Y-15096546D01*
X16484119Y-15096546D02*
X16484119Y-14896546D01*
X16569833Y-15096546D02*
X16569833Y-14991785D01*
X16569833Y-14991785D02*
X16560310Y-14972737D01*
X16560310Y-14972737D02*
X16541262Y-14963213D01*
X16541262Y-14963213D02*
X16512691Y-14963213D01*
X16512691Y-14963213D02*
X16493643Y-14972737D01*
X16493643Y-14972737D02*
X16484119Y-14982261D01*
X16693643Y-15096546D02*
X16674595Y-15087023D01*
X16674595Y-15087023D02*
X16665072Y-15077499D01*
X16665072Y-15077499D02*
X16655548Y-15058451D01*
X16655548Y-15058451D02*
X16655548Y-15001308D01*
X16655548Y-15001308D02*
X16665072Y-14982261D01*
X16665072Y-14982261D02*
X16674595Y-14972737D01*
X16674595Y-14972737D02*
X16693643Y-14963213D01*
X16693643Y-14963213D02*
X16722214Y-14963213D01*
X16722214Y-14963213D02*
X16741262Y-14972737D01*
X16741262Y-14972737D02*
X16750786Y-14982261D01*
X16750786Y-14982261D02*
X16760310Y-15001308D01*
X16760310Y-15001308D02*
X16760310Y-15058451D01*
X16760310Y-15058451D02*
X16750786Y-15077499D01*
X16750786Y-15077499D02*
X16741262Y-15087023D01*
X16741262Y-15087023D02*
X16722214Y-15096546D01*
X16722214Y-15096546D02*
X16693643Y-15096546D01*
X16874595Y-15096546D02*
X16855548Y-15087023D01*
X16855548Y-15087023D02*
X16846024Y-15067975D01*
X16846024Y-15067975D02*
X16846024Y-14896546D01*
X17026976Y-15087023D02*
X17007929Y-15096546D01*
X17007929Y-15096546D02*
X16969834Y-15096546D01*
X16969834Y-15096546D02*
X16950786Y-15087023D01*
X16950786Y-15087023D02*
X16941262Y-15067975D01*
X16941262Y-15067975D02*
X16941262Y-14991785D01*
X16941262Y-14991785D02*
X16950786Y-14972737D01*
X16950786Y-14972737D02*
X16969834Y-14963213D01*
X16969834Y-14963213D02*
X17007929Y-14963213D01*
X17007929Y-14963213D02*
X17026976Y-14972737D01*
X17026976Y-14972737D02*
X17036500Y-14991785D01*
X17036500Y-14991785D02*
X17036500Y-15010832D01*
X17036500Y-15010832D02*
X16941262Y-15029880D01*
X17112691Y-15087023D02*
X17131738Y-15096546D01*
X17131738Y-15096546D02*
X17169834Y-15096546D01*
X17169834Y-15096546D02*
X17188881Y-15087023D01*
X17188881Y-15087023D02*
X17198405Y-15067975D01*
X17198405Y-15067975D02*
X17198405Y-15058451D01*
X17198405Y-15058451D02*
X17188881Y-15039404D01*
X17188881Y-15039404D02*
X17169834Y-15029880D01*
X17169834Y-15029880D02*
X17141262Y-15029880D01*
X17141262Y-15029880D02*
X17122215Y-15020356D01*
X17122215Y-15020356D02*
X17112691Y-15001308D01*
X17112691Y-15001308D02*
X17112691Y-14991785D01*
X17112691Y-14991785D02*
X17122215Y-14972737D01*
X17122215Y-14972737D02*
X17141262Y-14963213D01*
X17141262Y-14963213D02*
X17169834Y-14963213D01*
X17169834Y-14963213D02*
X17188881Y-14972737D01*
X17265072Y-15172737D02*
X17274596Y-15163213D01*
X17274596Y-15163213D02*
X17293643Y-15134642D01*
X17293643Y-15134642D02*
X17303167Y-15115594D01*
X17303167Y-15115594D02*
X17312691Y-15087023D01*
X17312691Y-15087023D02*
X17322215Y-15039404D01*
X17322215Y-15039404D02*
X17322215Y-15001308D01*
X17322215Y-15001308D02*
X17312691Y-14953689D01*
X17312691Y-14953689D02*
X17303167Y-14925118D01*
X17303167Y-14925118D02*
X17293643Y-14906070D01*
X17293643Y-14906070D02*
X17274596Y-14877499D01*
X17274596Y-14877499D02*
X17265072Y-14867975D01*
X17626977Y-15172737D02*
X17617453Y-15163213D01*
X17617453Y-15163213D02*
X17598405Y-15134642D01*
X17598405Y-15134642D02*
X17588881Y-15115594D01*
X17588881Y-15115594D02*
X17579357Y-15087023D01*
X17579357Y-15087023D02*
X17569834Y-15039404D01*
X17569834Y-15039404D02*
X17569834Y-15001308D01*
X17569834Y-15001308D02*
X17579357Y-14953689D01*
X17579357Y-14953689D02*
X17588881Y-14925118D01*
X17588881Y-14925118D02*
X17598405Y-14906070D01*
X17598405Y-14906070D02*
X17617453Y-14877499D01*
X17617453Y-14877499D02*
X17626977Y-14867975D01*
X17703167Y-14963213D02*
X17703167Y-15096546D01*
X17703167Y-14982261D02*
X17712691Y-14972737D01*
X17712691Y-14972737D02*
X17731738Y-14963213D01*
X17731738Y-14963213D02*
X17760310Y-14963213D01*
X17760310Y-14963213D02*
X17779357Y-14972737D01*
X17779357Y-14972737D02*
X17788881Y-14991785D01*
X17788881Y-14991785D02*
X17788881Y-15096546D01*
X17912691Y-15096546D02*
X17893643Y-15087023D01*
X17893643Y-15087023D02*
X17884119Y-15077499D01*
X17884119Y-15077499D02*
X17874596Y-15058451D01*
X17874596Y-15058451D02*
X17874596Y-15001308D01*
X17874596Y-15001308D02*
X17884119Y-14982261D01*
X17884119Y-14982261D02*
X17893643Y-14972737D01*
X17893643Y-14972737D02*
X17912691Y-14963213D01*
X17912691Y-14963213D02*
X17941262Y-14963213D01*
X17941262Y-14963213D02*
X17960310Y-14972737D01*
X17960310Y-14972737D02*
X17969834Y-14982261D01*
X17969834Y-14982261D02*
X17979357Y-15001308D01*
X17979357Y-15001308D02*
X17979357Y-15058451D01*
X17979357Y-15058451D02*
X17969834Y-15077499D01*
X17969834Y-15077499D02*
X17960310Y-15087023D01*
X17960310Y-15087023D02*
X17941262Y-15096546D01*
X17941262Y-15096546D02*
X17912691Y-15096546D01*
X18036500Y-14963213D02*
X18112691Y-14963213D01*
X18065072Y-14896546D02*
X18065072Y-15067975D01*
X18065072Y-15067975D02*
X18074596Y-15087023D01*
X18074596Y-15087023D02*
X18093643Y-15096546D01*
X18093643Y-15096546D02*
X18112691Y-15096546D01*
X18331738Y-14963213D02*
X18331738Y-15163213D01*
X18331738Y-14972737D02*
X18350786Y-14963213D01*
X18350786Y-14963213D02*
X18388881Y-14963213D01*
X18388881Y-14963213D02*
X18407929Y-14972737D01*
X18407929Y-14972737D02*
X18417453Y-14982261D01*
X18417453Y-14982261D02*
X18426977Y-15001308D01*
X18426977Y-15001308D02*
X18426977Y-15058451D01*
X18426977Y-15058451D02*
X18417453Y-15077499D01*
X18417453Y-15077499D02*
X18407929Y-15087023D01*
X18407929Y-15087023D02*
X18388881Y-15096546D01*
X18388881Y-15096546D02*
X18350786Y-15096546D01*
X18350786Y-15096546D02*
X18331738Y-15087023D01*
X18541262Y-15096546D02*
X18522215Y-15087023D01*
X18522215Y-15087023D02*
X18512691Y-15067975D01*
X18512691Y-15067975D02*
X18512691Y-14896546D01*
X18703167Y-15096546D02*
X18703167Y-14991785D01*
X18703167Y-14991785D02*
X18693643Y-14972737D01*
X18693643Y-14972737D02*
X18674596Y-14963213D01*
X18674596Y-14963213D02*
X18636500Y-14963213D01*
X18636500Y-14963213D02*
X18617453Y-14972737D01*
X18703167Y-15087023D02*
X18684119Y-15096546D01*
X18684119Y-15096546D02*
X18636500Y-15096546D01*
X18636500Y-15096546D02*
X18617453Y-15087023D01*
X18617453Y-15087023D02*
X18607929Y-15067975D01*
X18607929Y-15067975D02*
X18607929Y-15048927D01*
X18607929Y-15048927D02*
X18617453Y-15029880D01*
X18617453Y-15029880D02*
X18636500Y-15020356D01*
X18636500Y-15020356D02*
X18684119Y-15020356D01*
X18684119Y-15020356D02*
X18703167Y-15010832D01*
X18769834Y-14963213D02*
X18846024Y-14963213D01*
X18798405Y-14896546D02*
X18798405Y-15067975D01*
X18798405Y-15067975D02*
X18807929Y-15087023D01*
X18807929Y-15087023D02*
X18826977Y-15096546D01*
X18826977Y-15096546D02*
X18846024Y-15096546D01*
X18988881Y-15087023D02*
X18969834Y-15096546D01*
X18969834Y-15096546D02*
X18931738Y-15096546D01*
X18931738Y-15096546D02*
X18912691Y-15087023D01*
X18912691Y-15087023D02*
X18903167Y-15067975D01*
X18903167Y-15067975D02*
X18903167Y-14991785D01*
X18903167Y-14991785D02*
X18912691Y-14972737D01*
X18912691Y-14972737D02*
X18931738Y-14963213D01*
X18931738Y-14963213D02*
X18969834Y-14963213D01*
X18969834Y-14963213D02*
X18988881Y-14972737D01*
X18988881Y-14972737D02*
X18998405Y-14991785D01*
X18998405Y-14991785D02*
X18998405Y-15010832D01*
X18998405Y-15010832D02*
X18903167Y-15029880D01*
X19169834Y-15096546D02*
X19169834Y-14896546D01*
X19169834Y-15087023D02*
X19150786Y-15096546D01*
X19150786Y-15096546D02*
X19112691Y-15096546D01*
X19112691Y-15096546D02*
X19093643Y-15087023D01*
X19093643Y-15087023D02*
X19084119Y-15077499D01*
X19084119Y-15077499D02*
X19074596Y-15058451D01*
X19074596Y-15058451D02*
X19074596Y-15001308D01*
X19074596Y-15001308D02*
X19084119Y-14982261D01*
X19084119Y-14982261D02*
X19093643Y-14972737D01*
X19093643Y-14972737D02*
X19112691Y-14963213D01*
X19112691Y-14963213D02*
X19150786Y-14963213D01*
X19150786Y-14963213D02*
X19169834Y-14972737D01*
X19246024Y-15172737D02*
X19255548Y-15163213D01*
X19255548Y-15163213D02*
X19274596Y-15134642D01*
X19274596Y-15134642D02*
X19284119Y-15115594D01*
X19284119Y-15115594D02*
X19293643Y-15087023D01*
X19293643Y-15087023D02*
X19303167Y-15039404D01*
X19303167Y-15039404D02*
X19303167Y-15001308D01*
X19303167Y-15001308D02*
X19293643Y-14953689D01*
X19293643Y-14953689D02*
X19284119Y-14925118D01*
X19284119Y-14925118D02*
X19274596Y-14906070D01*
X19274596Y-14906070D02*
X19255548Y-14877499D01*
X19255548Y-14877499D02*
X19246024Y-14867975D01*
D13*
X12490009Y-15269063D02*
G75*
G02*
X12390949Y-15269063I-49530J0D01*
G01*
X12390949Y-15269063D02*
G75*
G02*
X12490009Y-15269063I49530J0D01*
G01*
D12*
X12788881Y-15160546D02*
X12807928Y-15160546D01*
X12807928Y-15160546D02*
X12826976Y-15170070D01*
X12826976Y-15170070D02*
X12836500Y-15179594D01*
X12836500Y-15179594D02*
X12846024Y-15198642D01*
X12846024Y-15198642D02*
X12855547Y-15236737D01*
X12855547Y-15236737D02*
X12855547Y-15284356D01*
X12855547Y-15284356D02*
X12846024Y-15322451D01*
X12846024Y-15322451D02*
X12836500Y-15341499D01*
X12836500Y-15341499D02*
X12826976Y-15351023D01*
X12826976Y-15351023D02*
X12807928Y-15360546D01*
X12807928Y-15360546D02*
X12788881Y-15360546D01*
X12788881Y-15360546D02*
X12769833Y-15351023D01*
X12769833Y-15351023D02*
X12760309Y-15341499D01*
X12760309Y-15341499D02*
X12750785Y-15322451D01*
X12750785Y-15322451D02*
X12741262Y-15284356D01*
X12741262Y-15284356D02*
X12741262Y-15236737D01*
X12741262Y-15236737D02*
X12750785Y-15198642D01*
X12750785Y-15198642D02*
X12760309Y-15179594D01*
X12760309Y-15179594D02*
X12769833Y-15170070D01*
X12769833Y-15170070D02*
X12788881Y-15160546D01*
X12941262Y-15341499D02*
X12950785Y-15351023D01*
X12950785Y-15351023D02*
X12941262Y-15360546D01*
X12941262Y-15360546D02*
X12931738Y-15351023D01*
X12931738Y-15351023D02*
X12941262Y-15341499D01*
X12941262Y-15341499D02*
X12941262Y-15360546D01*
X13046024Y-15360546D02*
X13084119Y-15360546D01*
X13084119Y-15360546D02*
X13103166Y-15351023D01*
X13103166Y-15351023D02*
X13112690Y-15341499D01*
X13112690Y-15341499D02*
X13131738Y-15312927D01*
X13131738Y-15312927D02*
X13141262Y-15274832D01*
X13141262Y-15274832D02*
X13141262Y-15198642D01*
X13141262Y-15198642D02*
X13131738Y-15179594D01*
X13131738Y-15179594D02*
X13122214Y-15170070D01*
X13122214Y-15170070D02*
X13103166Y-15160546D01*
X13103166Y-15160546D02*
X13065071Y-15160546D01*
X13065071Y-15160546D02*
X13046024Y-15170070D01*
X13046024Y-15170070D02*
X13036500Y-15179594D01*
X13036500Y-15179594D02*
X13026976Y-15198642D01*
X13026976Y-15198642D02*
X13026976Y-15246261D01*
X13026976Y-15246261D02*
X13036500Y-15265308D01*
X13036500Y-15265308D02*
X13046024Y-15274832D01*
X13046024Y-15274832D02*
X13065071Y-15284356D01*
X13065071Y-15284356D02*
X13103166Y-15284356D01*
X13103166Y-15284356D02*
X13122214Y-15274832D01*
X13122214Y-15274832D02*
X13131738Y-15265308D01*
X13131738Y-15265308D02*
X13141262Y-15246261D01*
X13236500Y-15360546D02*
X13274595Y-15360546D01*
X13274595Y-15360546D02*
X13293643Y-15351023D01*
X13293643Y-15351023D02*
X13303166Y-15341499D01*
X13303166Y-15341499D02*
X13322214Y-15312927D01*
X13322214Y-15312927D02*
X13331738Y-15274832D01*
X13331738Y-15274832D02*
X13331738Y-15198642D01*
X13331738Y-15198642D02*
X13322214Y-15179594D01*
X13322214Y-15179594D02*
X13312690Y-15170070D01*
X13312690Y-15170070D02*
X13293643Y-15160546D01*
X13293643Y-15160546D02*
X13255547Y-15160546D01*
X13255547Y-15160546D02*
X13236500Y-15170070D01*
X13236500Y-15170070D02*
X13226976Y-15179594D01*
X13226976Y-15179594D02*
X13217452Y-15198642D01*
X13217452Y-15198642D02*
X13217452Y-15246261D01*
X13217452Y-15246261D02*
X13226976Y-15265308D01*
X13226976Y-15265308D02*
X13236500Y-15274832D01*
X13236500Y-15274832D02*
X13255547Y-15284356D01*
X13255547Y-15284356D02*
X13293643Y-15284356D01*
X13293643Y-15284356D02*
X13312690Y-15274832D01*
X13312690Y-15274832D02*
X13322214Y-15265308D01*
X13322214Y-15265308D02*
X13331738Y-15246261D01*
X13522214Y-15360546D02*
X13407928Y-15360546D01*
X13465071Y-15360546D02*
X13465071Y-15160546D01*
X13465071Y-15160546D02*
X13446024Y-15189118D01*
X13446024Y-15189118D02*
X13426976Y-15208165D01*
X13426976Y-15208165D02*
X13407928Y-15217689D01*
X13607928Y-15360546D02*
X13607928Y-15227213D01*
X13607928Y-15246261D02*
X13617452Y-15236737D01*
X13617452Y-15236737D02*
X13636500Y-15227213D01*
X13636500Y-15227213D02*
X13665071Y-15227213D01*
X13665071Y-15227213D02*
X13684119Y-15236737D01*
X13684119Y-15236737D02*
X13693643Y-15255785D01*
X13693643Y-15255785D02*
X13693643Y-15360546D01*
X13693643Y-15255785D02*
X13703166Y-15236737D01*
X13703166Y-15236737D02*
X13722214Y-15227213D01*
X13722214Y-15227213D02*
X13750785Y-15227213D01*
X13750785Y-15227213D02*
X13769833Y-15236737D01*
X13769833Y-15236737D02*
X13779357Y-15255785D01*
X13779357Y-15255785D02*
X13779357Y-15360546D01*
X13874595Y-15360546D02*
X13874595Y-15227213D01*
X13874595Y-15246261D02*
X13884119Y-15236737D01*
X13884119Y-15236737D02*
X13903166Y-15227213D01*
X13903166Y-15227213D02*
X13931738Y-15227213D01*
X13931738Y-15227213D02*
X13950786Y-15236737D01*
X13950786Y-15236737D02*
X13960309Y-15255785D01*
X13960309Y-15255785D02*
X13960309Y-15360546D01*
X13960309Y-15255785D02*
X13969833Y-15236737D01*
X13969833Y-15236737D02*
X13988881Y-15227213D01*
X13988881Y-15227213D02*
X14017452Y-15227213D01*
X14017452Y-15227213D02*
X14036500Y-15236737D01*
X14036500Y-15236737D02*
X14046024Y-15255785D01*
X14046024Y-15255785D02*
X14046024Y-15360546D01*
X14436500Y-15151023D02*
X14265071Y-15408165D01*
X14693643Y-15160546D02*
X14712690Y-15160546D01*
X14712690Y-15160546D02*
X14731738Y-15170070D01*
X14731738Y-15170070D02*
X14741262Y-15179594D01*
X14741262Y-15179594D02*
X14750786Y-15198642D01*
X14750786Y-15198642D02*
X14760309Y-15236737D01*
X14760309Y-15236737D02*
X14760309Y-15284356D01*
X14760309Y-15284356D02*
X14750786Y-15322451D01*
X14750786Y-15322451D02*
X14741262Y-15341499D01*
X14741262Y-15341499D02*
X14731738Y-15351023D01*
X14731738Y-15351023D02*
X14712690Y-15360546D01*
X14712690Y-15360546D02*
X14693643Y-15360546D01*
X14693643Y-15360546D02*
X14674595Y-15351023D01*
X14674595Y-15351023D02*
X14665071Y-15341499D01*
X14665071Y-15341499D02*
X14655548Y-15322451D01*
X14655548Y-15322451D02*
X14646024Y-15284356D01*
X14646024Y-15284356D02*
X14646024Y-15236737D01*
X14646024Y-15236737D02*
X14655548Y-15198642D01*
X14655548Y-15198642D02*
X14665071Y-15179594D01*
X14665071Y-15179594D02*
X14674595Y-15170070D01*
X14674595Y-15170070D02*
X14693643Y-15160546D01*
X14846024Y-15341499D02*
X14855548Y-15351023D01*
X14855548Y-15351023D02*
X14846024Y-15360546D01*
X14846024Y-15360546D02*
X14836500Y-15351023D01*
X14836500Y-15351023D02*
X14846024Y-15341499D01*
X14846024Y-15341499D02*
X14846024Y-15360546D01*
X14979357Y-15160546D02*
X14998405Y-15160546D01*
X14998405Y-15160546D02*
X15017452Y-15170070D01*
X15017452Y-15170070D02*
X15026976Y-15179594D01*
X15026976Y-15179594D02*
X15036500Y-15198642D01*
X15036500Y-15198642D02*
X15046024Y-15236737D01*
X15046024Y-15236737D02*
X15046024Y-15284356D01*
X15046024Y-15284356D02*
X15036500Y-15322451D01*
X15036500Y-15322451D02*
X15026976Y-15341499D01*
X15026976Y-15341499D02*
X15017452Y-15351023D01*
X15017452Y-15351023D02*
X14998405Y-15360546D01*
X14998405Y-15360546D02*
X14979357Y-15360546D01*
X14979357Y-15360546D02*
X14960309Y-15351023D01*
X14960309Y-15351023D02*
X14950786Y-15341499D01*
X14950786Y-15341499D02*
X14941262Y-15322451D01*
X14941262Y-15322451D02*
X14931738Y-15284356D01*
X14931738Y-15284356D02*
X14931738Y-15236737D01*
X14931738Y-15236737D02*
X14941262Y-15198642D01*
X14941262Y-15198642D02*
X14950786Y-15179594D01*
X14950786Y-15179594D02*
X14960309Y-15170070D01*
X14960309Y-15170070D02*
X14979357Y-15160546D01*
X15112690Y-15160546D02*
X15236500Y-15160546D01*
X15236500Y-15160546D02*
X15169833Y-15236737D01*
X15169833Y-15236737D02*
X15198405Y-15236737D01*
X15198405Y-15236737D02*
X15217452Y-15246261D01*
X15217452Y-15246261D02*
X15226976Y-15255785D01*
X15226976Y-15255785D02*
X15236500Y-15274832D01*
X15236500Y-15274832D02*
X15236500Y-15322451D01*
X15236500Y-15322451D02*
X15226976Y-15341499D01*
X15226976Y-15341499D02*
X15217452Y-15351023D01*
X15217452Y-15351023D02*
X15198405Y-15360546D01*
X15198405Y-15360546D02*
X15141262Y-15360546D01*
X15141262Y-15360546D02*
X15122214Y-15351023D01*
X15122214Y-15351023D02*
X15112690Y-15341499D01*
X15331738Y-15360546D02*
X15369833Y-15360546D01*
X15369833Y-15360546D02*
X15388881Y-15351023D01*
X15388881Y-15351023D02*
X15398405Y-15341499D01*
X15398405Y-15341499D02*
X15417452Y-15312927D01*
X15417452Y-15312927D02*
X15426976Y-15274832D01*
X15426976Y-15274832D02*
X15426976Y-15198642D01*
X15426976Y-15198642D02*
X15417452Y-15179594D01*
X15417452Y-15179594D02*
X15407929Y-15170070D01*
X15407929Y-15170070D02*
X15388881Y-15160546D01*
X15388881Y-15160546D02*
X15350786Y-15160546D01*
X15350786Y-15160546D02*
X15331738Y-15170070D01*
X15331738Y-15170070D02*
X15322214Y-15179594D01*
X15322214Y-15179594D02*
X15312690Y-15198642D01*
X15312690Y-15198642D02*
X15312690Y-15246261D01*
X15312690Y-15246261D02*
X15322214Y-15265308D01*
X15322214Y-15265308D02*
X15331738Y-15274832D01*
X15331738Y-15274832D02*
X15350786Y-15284356D01*
X15350786Y-15284356D02*
X15388881Y-15284356D01*
X15388881Y-15284356D02*
X15407929Y-15274832D01*
X15407929Y-15274832D02*
X15417452Y-15265308D01*
X15417452Y-15265308D02*
X15426976Y-15246261D01*
X15550786Y-15160546D02*
X15569833Y-15160546D01*
X15569833Y-15160546D02*
X15588881Y-15170070D01*
X15588881Y-15170070D02*
X15598405Y-15179594D01*
X15598405Y-15179594D02*
X15607929Y-15198642D01*
X15607929Y-15198642D02*
X15617452Y-15236737D01*
X15617452Y-15236737D02*
X15617452Y-15284356D01*
X15617452Y-15284356D02*
X15607929Y-15322451D01*
X15607929Y-15322451D02*
X15598405Y-15341499D01*
X15598405Y-15341499D02*
X15588881Y-15351023D01*
X15588881Y-15351023D02*
X15569833Y-15360546D01*
X15569833Y-15360546D02*
X15550786Y-15360546D01*
X15550786Y-15360546D02*
X15531738Y-15351023D01*
X15531738Y-15351023D02*
X15522214Y-15341499D01*
X15522214Y-15341499D02*
X15512690Y-15322451D01*
X15512690Y-15322451D02*
X15503167Y-15284356D01*
X15503167Y-15284356D02*
X15503167Y-15236737D01*
X15503167Y-15236737D02*
X15512690Y-15198642D01*
X15512690Y-15198642D02*
X15522214Y-15179594D01*
X15522214Y-15179594D02*
X15531738Y-15170070D01*
X15531738Y-15170070D02*
X15550786Y-15160546D01*
X15693643Y-15160546D02*
X15693643Y-15198642D01*
X15769833Y-15160546D02*
X15769833Y-15198642D01*
X16065072Y-15436737D02*
X16055548Y-15427213D01*
X16055548Y-15427213D02*
X16036500Y-15398642D01*
X16036500Y-15398642D02*
X16026976Y-15379594D01*
X16026976Y-15379594D02*
X16017452Y-15351023D01*
X16017452Y-15351023D02*
X16007929Y-15303404D01*
X16007929Y-15303404D02*
X16007929Y-15265308D01*
X16007929Y-15265308D02*
X16017452Y-15217689D01*
X16017452Y-15217689D02*
X16026976Y-15189118D01*
X16026976Y-15189118D02*
X16036500Y-15170070D01*
X16036500Y-15170070D02*
X16055548Y-15141499D01*
X16055548Y-15141499D02*
X16065072Y-15131975D01*
X16122214Y-15160546D02*
X16246024Y-15160546D01*
X16246024Y-15160546D02*
X16179357Y-15236737D01*
X16179357Y-15236737D02*
X16207929Y-15236737D01*
X16207929Y-15236737D02*
X16226976Y-15246261D01*
X16226976Y-15246261D02*
X16236500Y-15255785D01*
X16236500Y-15255785D02*
X16246024Y-15274832D01*
X16246024Y-15274832D02*
X16246024Y-15322451D01*
X16246024Y-15322451D02*
X16236500Y-15341499D01*
X16236500Y-15341499D02*
X16226976Y-15351023D01*
X16226976Y-15351023D02*
X16207929Y-15360546D01*
X16207929Y-15360546D02*
X16150786Y-15360546D01*
X16150786Y-15360546D02*
X16131738Y-15351023D01*
X16131738Y-15351023D02*
X16122214Y-15341499D01*
X16484119Y-15360546D02*
X16484119Y-15160546D01*
X16569833Y-15360546D02*
X16569833Y-15255785D01*
X16569833Y-15255785D02*
X16560310Y-15236737D01*
X16560310Y-15236737D02*
X16541262Y-15227213D01*
X16541262Y-15227213D02*
X16512691Y-15227213D01*
X16512691Y-15227213D02*
X16493643Y-15236737D01*
X16493643Y-15236737D02*
X16484119Y-15246261D01*
X16693643Y-15360546D02*
X16674595Y-15351023D01*
X16674595Y-15351023D02*
X16665072Y-15341499D01*
X16665072Y-15341499D02*
X16655548Y-15322451D01*
X16655548Y-15322451D02*
X16655548Y-15265308D01*
X16655548Y-15265308D02*
X16665072Y-15246261D01*
X16665072Y-15246261D02*
X16674595Y-15236737D01*
X16674595Y-15236737D02*
X16693643Y-15227213D01*
X16693643Y-15227213D02*
X16722214Y-15227213D01*
X16722214Y-15227213D02*
X16741262Y-15236737D01*
X16741262Y-15236737D02*
X16750786Y-15246261D01*
X16750786Y-15246261D02*
X16760310Y-15265308D01*
X16760310Y-15265308D02*
X16760310Y-15322451D01*
X16760310Y-15322451D02*
X16750786Y-15341499D01*
X16750786Y-15341499D02*
X16741262Y-15351023D01*
X16741262Y-15351023D02*
X16722214Y-15360546D01*
X16722214Y-15360546D02*
X16693643Y-15360546D01*
X16874595Y-15360546D02*
X16855548Y-15351023D01*
X16855548Y-15351023D02*
X16846024Y-15331975D01*
X16846024Y-15331975D02*
X16846024Y-15160546D01*
X17026976Y-15351023D02*
X17007929Y-15360546D01*
X17007929Y-15360546D02*
X16969834Y-15360546D01*
X16969834Y-15360546D02*
X16950786Y-15351023D01*
X16950786Y-15351023D02*
X16941262Y-15331975D01*
X16941262Y-15331975D02*
X16941262Y-15255785D01*
X16941262Y-15255785D02*
X16950786Y-15236737D01*
X16950786Y-15236737D02*
X16969834Y-15227213D01*
X16969834Y-15227213D02*
X17007929Y-15227213D01*
X17007929Y-15227213D02*
X17026976Y-15236737D01*
X17026976Y-15236737D02*
X17036500Y-15255785D01*
X17036500Y-15255785D02*
X17036500Y-15274832D01*
X17036500Y-15274832D02*
X16941262Y-15293880D01*
X17112691Y-15351023D02*
X17131738Y-15360546D01*
X17131738Y-15360546D02*
X17169834Y-15360546D01*
X17169834Y-15360546D02*
X17188881Y-15351023D01*
X17188881Y-15351023D02*
X17198405Y-15331975D01*
X17198405Y-15331975D02*
X17198405Y-15322451D01*
X17198405Y-15322451D02*
X17188881Y-15303404D01*
X17188881Y-15303404D02*
X17169834Y-15293880D01*
X17169834Y-15293880D02*
X17141262Y-15293880D01*
X17141262Y-15293880D02*
X17122215Y-15284356D01*
X17122215Y-15284356D02*
X17112691Y-15265308D01*
X17112691Y-15265308D02*
X17112691Y-15255785D01*
X17112691Y-15255785D02*
X17122215Y-15236737D01*
X17122215Y-15236737D02*
X17141262Y-15227213D01*
X17141262Y-15227213D02*
X17169834Y-15227213D01*
X17169834Y-15227213D02*
X17188881Y-15236737D01*
X17265072Y-15436737D02*
X17274596Y-15427213D01*
X17274596Y-15427213D02*
X17293643Y-15398642D01*
X17293643Y-15398642D02*
X17303167Y-15379594D01*
X17303167Y-15379594D02*
X17312691Y-15351023D01*
X17312691Y-15351023D02*
X17322215Y-15303404D01*
X17322215Y-15303404D02*
X17322215Y-15265308D01*
X17322215Y-15265308D02*
X17312691Y-15217689D01*
X17312691Y-15217689D02*
X17303167Y-15189118D01*
X17303167Y-15189118D02*
X17293643Y-15170070D01*
X17293643Y-15170070D02*
X17274596Y-15141499D01*
X17274596Y-15141499D02*
X17265072Y-15131975D01*
X17626977Y-15436737D02*
X17617453Y-15427213D01*
X17617453Y-15427213D02*
X17598405Y-15398642D01*
X17598405Y-15398642D02*
X17588881Y-15379594D01*
X17588881Y-15379594D02*
X17579357Y-15351023D01*
X17579357Y-15351023D02*
X17569834Y-15303404D01*
X17569834Y-15303404D02*
X17569834Y-15265308D01*
X17569834Y-15265308D02*
X17579357Y-15217689D01*
X17579357Y-15217689D02*
X17588881Y-15189118D01*
X17588881Y-15189118D02*
X17598405Y-15170070D01*
X17598405Y-15170070D02*
X17617453Y-15141499D01*
X17617453Y-15141499D02*
X17626977Y-15131975D01*
X17703167Y-15227213D02*
X17703167Y-15360546D01*
X17703167Y-15246261D02*
X17712691Y-15236737D01*
X17712691Y-15236737D02*
X17731738Y-15227213D01*
X17731738Y-15227213D02*
X17760310Y-15227213D01*
X17760310Y-15227213D02*
X17779357Y-15236737D01*
X17779357Y-15236737D02*
X17788881Y-15255785D01*
X17788881Y-15255785D02*
X17788881Y-15360546D01*
X17912691Y-15360546D02*
X17893643Y-15351023D01*
X17893643Y-15351023D02*
X17884119Y-15341499D01*
X17884119Y-15341499D02*
X17874596Y-15322451D01*
X17874596Y-15322451D02*
X17874596Y-15265308D01*
X17874596Y-15265308D02*
X17884119Y-15246261D01*
X17884119Y-15246261D02*
X17893643Y-15236737D01*
X17893643Y-15236737D02*
X17912691Y-15227213D01*
X17912691Y-15227213D02*
X17941262Y-15227213D01*
X17941262Y-15227213D02*
X17960310Y-15236737D01*
X17960310Y-15236737D02*
X17969834Y-15246261D01*
X17969834Y-15246261D02*
X17979357Y-15265308D01*
X17979357Y-15265308D02*
X17979357Y-15322451D01*
X17979357Y-15322451D02*
X17969834Y-15341499D01*
X17969834Y-15341499D02*
X17960310Y-15351023D01*
X17960310Y-15351023D02*
X17941262Y-15360546D01*
X17941262Y-15360546D02*
X17912691Y-15360546D01*
X18036500Y-15227213D02*
X18112691Y-15227213D01*
X18065072Y-15160546D02*
X18065072Y-15331975D01*
X18065072Y-15331975D02*
X18074596Y-15351023D01*
X18074596Y-15351023D02*
X18093643Y-15360546D01*
X18093643Y-15360546D02*
X18112691Y-15360546D01*
X18331738Y-15227213D02*
X18331738Y-15427213D01*
X18331738Y-15236737D02*
X18350786Y-15227213D01*
X18350786Y-15227213D02*
X18388881Y-15227213D01*
X18388881Y-15227213D02*
X18407929Y-15236737D01*
X18407929Y-15236737D02*
X18417453Y-15246261D01*
X18417453Y-15246261D02*
X18426977Y-15265308D01*
X18426977Y-15265308D02*
X18426977Y-15322451D01*
X18426977Y-15322451D02*
X18417453Y-15341499D01*
X18417453Y-15341499D02*
X18407929Y-15351023D01*
X18407929Y-15351023D02*
X18388881Y-15360546D01*
X18388881Y-15360546D02*
X18350786Y-15360546D01*
X18350786Y-15360546D02*
X18331738Y-15351023D01*
X18541262Y-15360546D02*
X18522215Y-15351023D01*
X18522215Y-15351023D02*
X18512691Y-15331975D01*
X18512691Y-15331975D02*
X18512691Y-15160546D01*
X18703167Y-15360546D02*
X18703167Y-15255785D01*
X18703167Y-15255785D02*
X18693643Y-15236737D01*
X18693643Y-15236737D02*
X18674596Y-15227213D01*
X18674596Y-15227213D02*
X18636500Y-15227213D01*
X18636500Y-15227213D02*
X18617453Y-15236737D01*
X18703167Y-15351023D02*
X18684119Y-15360546D01*
X18684119Y-15360546D02*
X18636500Y-15360546D01*
X18636500Y-15360546D02*
X18617453Y-15351023D01*
X18617453Y-15351023D02*
X18607929Y-15331975D01*
X18607929Y-15331975D02*
X18607929Y-15312927D01*
X18607929Y-15312927D02*
X18617453Y-15293880D01*
X18617453Y-15293880D02*
X18636500Y-15284356D01*
X18636500Y-15284356D02*
X18684119Y-15284356D01*
X18684119Y-15284356D02*
X18703167Y-15274832D01*
X18769834Y-15227213D02*
X18846024Y-15227213D01*
X18798405Y-15160546D02*
X18798405Y-15331975D01*
X18798405Y-15331975D02*
X18807929Y-15351023D01*
X18807929Y-15351023D02*
X18826977Y-15360546D01*
X18826977Y-15360546D02*
X18846024Y-15360546D01*
X18988881Y-15351023D02*
X18969834Y-15360546D01*
X18969834Y-15360546D02*
X18931738Y-15360546D01*
X18931738Y-15360546D02*
X18912691Y-15351023D01*
X18912691Y-15351023D02*
X18903167Y-15331975D01*
X18903167Y-15331975D02*
X18903167Y-15255785D01*
X18903167Y-15255785D02*
X18912691Y-15236737D01*
X18912691Y-15236737D02*
X18931738Y-15227213D01*
X18931738Y-15227213D02*
X18969834Y-15227213D01*
X18969834Y-15227213D02*
X18988881Y-15236737D01*
X18988881Y-15236737D02*
X18998405Y-15255785D01*
X18998405Y-15255785D02*
X18998405Y-15274832D01*
X18998405Y-15274832D02*
X18903167Y-15293880D01*
X19169834Y-15360546D02*
X19169834Y-15160546D01*
X19169834Y-15351023D02*
X19150786Y-15360546D01*
X19150786Y-15360546D02*
X19112691Y-15360546D01*
X19112691Y-15360546D02*
X19093643Y-15351023D01*
X19093643Y-15351023D02*
X19084119Y-15341499D01*
X19084119Y-15341499D02*
X19074596Y-15322451D01*
X19074596Y-15322451D02*
X19074596Y-15265308D01*
X19074596Y-15265308D02*
X19084119Y-15246261D01*
X19084119Y-15246261D02*
X19093643Y-15236737D01*
X19093643Y-15236737D02*
X19112691Y-15227213D01*
X19112691Y-15227213D02*
X19150786Y-15227213D01*
X19150786Y-15227213D02*
X19169834Y-15236737D01*
X19246024Y-15436737D02*
X19255548Y-15427213D01*
X19255548Y-15427213D02*
X19274596Y-15398642D01*
X19274596Y-15398642D02*
X19284119Y-15379594D01*
X19284119Y-15379594D02*
X19293643Y-15351023D01*
X19293643Y-15351023D02*
X19303167Y-15303404D01*
X19303167Y-15303404D02*
X19303167Y-15265308D01*
X19303167Y-15265308D02*
X19293643Y-15217689D01*
X19293643Y-15217689D02*
X19284119Y-15189118D01*
X19284119Y-15189118D02*
X19274596Y-15170070D01*
X19274596Y-15170070D02*
X19255548Y-15141499D01*
X19255548Y-15141499D02*
X19246024Y-15131975D01*
M02*
