%TF.GenerationSoftware,KiCad,Pcbnew,9.0.1*%
%TF.CreationDate,2025-04-05T00:33:59+01:00*%
%TF.ProjectId,mariposa,6d617269-706f-4736-912e-6b696361645f,2.0*%
%TF.SameCoordinates,Original*%
%TF.FileFunction,Profile,NP*%
%FSLAX46Y46*%
G04 Gerber Fmt 4.6, Leading zero omitted, Abs format (unit mm)*
G04 Created by KiCad (PCBNEW 9.0.1) date 2025-04-05 00:33:59*
%MOMM*%
%LPD*%
G01*
G04 APERTURE LIST*
%TA.AperFunction,Profile*%
%ADD10C,0.050000*%
%TD*%
%TA.AperFunction,Profile*%
%ADD11C,0.200024*%
%TD*%
G04 APERTURE END LIST*
D10*
X152500000Y-75551642D02*
G75*
G02*
X152999958Y-76051642I0J-499958D01*
G01*
X153000000Y-76051642D02*
G75*
G02*
X152500000Y-76551600I-500000J42D01*
G01*
X152500000Y-76551642D02*
X142500000Y-76551642D01*
X142500000Y-76551642D02*
G75*
G02*
X141999958Y-76051642I0J500042D01*
G01*
X142000000Y-76051642D02*
G75*
G02*
X142500000Y-75551600I500000J42D01*
G01*
X142500000Y-75551642D02*
X152500000Y-75551642D01*
D11*
X167140654Y-43554979D02*
X167280950Y-43567841D01*
X167420697Y-43588943D01*
X167559620Y-43618009D01*
X167697444Y-43654765D01*
X167833895Y-43698937D01*
X167968698Y-43750249D01*
X168101579Y-43808427D01*
X168232263Y-43873197D01*
X168360474Y-43944283D01*
X168485940Y-44021412D01*
X168608384Y-44104308D01*
X168727533Y-44192697D01*
X168843111Y-44286304D01*
X168954844Y-44384854D01*
X169062458Y-44488074D01*
X169165677Y-44595688D01*
X169264228Y-44707421D01*
X169357835Y-44823000D01*
X169446224Y-44942149D01*
X169529119Y-45064593D01*
X169606248Y-45190059D01*
X169677334Y-45318271D01*
X169742104Y-45448955D01*
X169800282Y-45581836D01*
X169851594Y-45716640D01*
X169895766Y-45853091D01*
X169932522Y-45990916D01*
X169961588Y-46129840D01*
X169982690Y-46269587D01*
X169995552Y-46409883D01*
X169999901Y-46550455D01*
X169996703Y-46689616D01*
X169987207Y-46825755D01*
X169971559Y-46958778D01*
X169949907Y-47088596D01*
X169922395Y-47215116D01*
X169889171Y-47338247D01*
X169850382Y-47457898D01*
X169806173Y-47573977D01*
X169756691Y-47686392D01*
X169702083Y-47795052D01*
X169642495Y-47899867D01*
X169578073Y-48000743D01*
X169508964Y-48097590D01*
X169435315Y-48190317D01*
X169357272Y-48278831D01*
X169274980Y-48363042D01*
X169188588Y-48442858D01*
X169098241Y-48518187D01*
X169004085Y-48588938D01*
X168906268Y-48655020D01*
X168804935Y-48716341D01*
X168700233Y-48772809D01*
X168592309Y-48824333D01*
X168481309Y-48870823D01*
X168367379Y-48912185D01*
X168250666Y-48948329D01*
X168131317Y-48979164D01*
X168009477Y-49004597D01*
X167885293Y-49024538D01*
X167758913Y-49038894D01*
X167630481Y-49047575D01*
X167500145Y-49050489D01*
X167362416Y-49047621D01*
X167230456Y-49039260D01*
X167104173Y-49025774D01*
X166983475Y-49007527D01*
X166868271Y-48984886D01*
X166758470Y-48958218D01*
X166653979Y-48927888D01*
X166554708Y-48894263D01*
X166460564Y-48857708D01*
X166371457Y-48818591D01*
X166207983Y-48734131D01*
X166063556Y-48643813D01*
X165937441Y-48550565D01*
X165828906Y-48457318D01*
X165737220Y-48367000D01*
X165661649Y-48282540D01*
X165601461Y-48206868D01*
X165524302Y-48093604D01*
X165499885Y-48050642D01*
X165444464Y-48127621D01*
X165296696Y-48346230D01*
X165196854Y-48502865D01*
X165084331Y-48687972D01*
X164962595Y-48899238D01*
X164835115Y-49134352D01*
X164705360Y-49391003D01*
X164576796Y-49666877D01*
X164452895Y-49959663D01*
X164393775Y-50111676D01*
X164337122Y-50267050D01*
X164283368Y-50425496D01*
X164232948Y-50586725D01*
X164186293Y-50750448D01*
X164143839Y-50916376D01*
X164106019Y-51084221D01*
X164073266Y-51253692D01*
X164046014Y-51424502D01*
X164024696Y-51596361D01*
X164536852Y-52276368D01*
X165021720Y-52977363D01*
X165478506Y-53698550D01*
X165906416Y-54439137D01*
X166304656Y-55198329D01*
X166672432Y-55975334D01*
X167008950Y-56769358D01*
X167313415Y-57579607D01*
X167585035Y-58405288D01*
X167823015Y-59245607D01*
X168026561Y-60099770D01*
X168194879Y-60966985D01*
X168327175Y-61846457D01*
X168422655Y-62737392D01*
X168480526Y-63638999D01*
X168499992Y-64550481D01*
X168468481Y-65709601D01*
X168375039Y-66852348D01*
X168221304Y-67977082D01*
X168008915Y-69082167D01*
X167739511Y-70165963D01*
X167414730Y-71226833D01*
X167036210Y-72263137D01*
X166605589Y-73273237D01*
X166124506Y-74255496D01*
X165594599Y-75208274D01*
X165017507Y-76129934D01*
X164394867Y-77018836D01*
X163728319Y-77873342D01*
X163019500Y-78691815D01*
X162270050Y-79472616D01*
X161481605Y-80214105D01*
X162763533Y-82724833D01*
X163741670Y-84745742D01*
X164265770Y-85915262D01*
X164794458Y-87178512D01*
X165313659Y-88526259D01*
X165809298Y-89949267D01*
X166267301Y-91438302D01*
X166673592Y-92984130D01*
X167014096Y-94577516D01*
X167155281Y-95389158D01*
X167274740Y-96209225D01*
X167370716Y-97036566D01*
X167441448Y-97870024D01*
X167485177Y-98708445D01*
X167500145Y-99550676D01*
X167482880Y-100371362D01*
X167432554Y-101147556D01*
X167351371Y-101881637D01*
X167241536Y-102575986D01*
X167105252Y-103232984D01*
X166944723Y-103855010D01*
X166762154Y-104444445D01*
X166559748Y-105003669D01*
X166339710Y-105535062D01*
X166104243Y-106041005D01*
X165595841Y-106986061D01*
X165052174Y-107857878D01*
X164490875Y-108675500D01*
X163385909Y-110224321D01*
X162877507Y-110993606D01*
X162422002Y-111784863D01*
X162219596Y-112194682D01*
X162037027Y-112617135D01*
X161876499Y-113054601D01*
X161740215Y-113509462D01*
X161630379Y-113984098D01*
X161549196Y-114480888D01*
X161498870Y-115002214D01*
X161481605Y-115550455D01*
X161520025Y-116677230D01*
X161628600Y-117801067D01*
X161797311Y-118912340D01*
X162016133Y-120001426D01*
X162275044Y-121058697D01*
X162564023Y-122074529D01*
X162873047Y-123039297D01*
X163192093Y-123943375D01*
X163820162Y-125530963D01*
X164368053Y-126760289D01*
X164902580Y-127836153D01*
X165048720Y-128181093D01*
X165178329Y-128535774D01*
X165388455Y-129270607D01*
X165533958Y-130033143D01*
X165615840Y-130815873D01*
X165635100Y-131611288D01*
X165592738Y-132411880D01*
X165489756Y-133210140D01*
X165327152Y-133998560D01*
X165105928Y-134769630D01*
X164827084Y-135515842D01*
X164491619Y-136229688D01*
X164100535Y-136903659D01*
X163884448Y-137223344D01*
X163654832Y-137530245D01*
X163411810Y-137823423D01*
X163155509Y-138101939D01*
X162886053Y-138364855D01*
X162603568Y-138611232D01*
X162308177Y-138840132D01*
X162000007Y-139050615D01*
X161296359Y-139478441D01*
X160558307Y-139901295D01*
X159787435Y-140316056D01*
X158985327Y-140719599D01*
X158153567Y-141108804D01*
X157293739Y-141480546D01*
X156407427Y-141831705D01*
X155496214Y-142159157D01*
X154561684Y-142459779D01*
X153605421Y-142730449D01*
X152629009Y-142968045D01*
X151634031Y-143169443D01*
X150622072Y-143331522D01*
X149594716Y-143451159D01*
X148553545Y-143525231D01*
X147500145Y-143550615D01*
X146446559Y-143525444D01*
X145404977Y-143451957D01*
X144377035Y-143333190D01*
X143364372Y-143172181D01*
X142368623Y-142971966D01*
X141391426Y-142735583D01*
X140434418Y-142466068D01*
X139499237Y-142166458D01*
X138587519Y-141839791D01*
X137700901Y-141489103D01*
X136841020Y-141117431D01*
X136009514Y-140727813D01*
X135208020Y-140323286D01*
X134438174Y-139906885D01*
X133701614Y-139481649D01*
X132999977Y-139050615D01*
X132692737Y-138840667D01*
X132398307Y-138612231D01*
X132116808Y-138366253D01*
X131848359Y-138103676D01*
X131593082Y-137825445D01*
X131351095Y-137532503D01*
X131122520Y-137225795D01*
X130907476Y-136906265D01*
X130706083Y-136574857D01*
X130518462Y-136232515D01*
X130344733Y-135880183D01*
X130185016Y-135518806D01*
X130039431Y-135149327D01*
X129908099Y-134772690D01*
X129791139Y-134389840D01*
X129688671Y-134001721D01*
X129527694Y-133213452D01*
X129426130Y-132415435D01*
X129384939Y-131615224D01*
X129387284Y-131216656D01*
X129405083Y-130820371D01*
X129438456Y-130427315D01*
X129487523Y-130038430D01*
X129552405Y-129654662D01*
X129633221Y-129276954D01*
X129730091Y-128906250D01*
X129843137Y-128543495D01*
X129972477Y-128189632D01*
X130118233Y-127845606D01*
X131172447Y-125595189D01*
X131456206Y-124970345D01*
X131739006Y-124315470D01*
X132016328Y-123628000D01*
X132283649Y-122905368D01*
X132536451Y-122145006D01*
X132770212Y-121344348D01*
X132980412Y-120500827D01*
X133162531Y-119611877D01*
X133312048Y-118674932D01*
X133424443Y-117687424D01*
X133495194Y-116646787D01*
X133519783Y-115550455D01*
X133502515Y-115002214D01*
X133452179Y-114480888D01*
X133370982Y-113984098D01*
X133261126Y-113509462D01*
X133124817Y-113054601D01*
X132964258Y-112617135D01*
X132781655Y-112194682D01*
X132579212Y-111784863D01*
X132359133Y-111385298D01*
X132123623Y-110993606D01*
X131615127Y-110224321D01*
X130509956Y-108675500D01*
X129948553Y-107857878D01*
X129673363Y-107429934D01*
X129404785Y-106986061D01*
X129145026Y-106523878D01*
X128896289Y-106041005D01*
X128660779Y-105535062D01*
X128440700Y-105003669D01*
X128238257Y-104444445D01*
X128055654Y-103855010D01*
X127895096Y-103232984D01*
X127758787Y-102575986D01*
X127648931Y-101881637D01*
X127567733Y-101147556D01*
X127517398Y-100371362D01*
X127500130Y-99550676D01*
X127567733Y-97850377D01*
X127758787Y-96135881D01*
X128055654Y-94424281D01*
X128440700Y-92732674D01*
X128896289Y-91078156D01*
X129404785Y-89477820D01*
X129948553Y-87948762D01*
X130509956Y-86508078D01*
X131615127Y-83960212D01*
X132579212Y-81970984D01*
X133519783Y-80215486D01*
X132731187Y-79473988D01*
X131981592Y-78693162D01*
X131272635Y-77874647D01*
X130605957Y-77020082D01*
X129983195Y-76131110D01*
X129405988Y-75209368D01*
X128875976Y-74256498D01*
X128394796Y-73274140D01*
X127964089Y-72263932D01*
X127585492Y-71227516D01*
X127260644Y-70166532D01*
X126991185Y-69082619D01*
X126778753Y-67977417D01*
X126624987Y-66852567D01*
X126531526Y-65709709D01*
X126500008Y-64550481D01*
X126519506Y-63638225D01*
X126577473Y-62735860D01*
X126673112Y-61844183D01*
X126805628Y-60963991D01*
X126974227Y-60096079D01*
X127178112Y-59241243D01*
X127416489Y-58400279D01*
X127688562Y-57573983D01*
X127993537Y-56763152D01*
X128330617Y-55968581D01*
X128699009Y-55191065D01*
X129097916Y-54431402D01*
X129526543Y-53690387D01*
X129984096Y-52968816D01*
X130469778Y-52267485D01*
X130982796Y-51587190D01*
X130938627Y-51181492D01*
X130871145Y-50797608D01*
X130783960Y-50436141D01*
X130680681Y-50097692D01*
X130564918Y-49782863D01*
X130440283Y-49492254D01*
X130310383Y-49226468D01*
X130178831Y-48986105D01*
X130049235Y-48771768D01*
X129925206Y-48584058D01*
X129708289Y-48290923D01*
X129500099Y-48050642D01*
X129475683Y-48093604D01*
X129444065Y-48142913D01*
X129398531Y-48206868D01*
X129338348Y-48282540D01*
X129262784Y-48367000D01*
X129219005Y-48411610D01*
X129171107Y-48457318D01*
X129118998Y-48503759D01*
X129062586Y-48550565D01*
X129001779Y-48597372D01*
X128936487Y-48643813D01*
X128866617Y-48689521D01*
X128792079Y-48734131D01*
X128712780Y-48777276D01*
X128628629Y-48818591D01*
X128539534Y-48857708D01*
X128445405Y-48894263D01*
X128346149Y-48927888D01*
X128241676Y-48958218D01*
X128131892Y-48984886D01*
X128016708Y-49007527D01*
X127896031Y-49025774D01*
X127769770Y-49039260D01*
X127637833Y-49047621D01*
X127500130Y-49050489D01*
X127369769Y-49047575D01*
X127241313Y-49038894D01*
X127114911Y-49024538D01*
X126990707Y-49004597D01*
X126868848Y-48979164D01*
X126749481Y-48948329D01*
X126632751Y-48912185D01*
X126518807Y-48870823D01*
X126407792Y-48824333D01*
X126299856Y-48772809D01*
X126195142Y-48716341D01*
X126093799Y-48655020D01*
X125995972Y-48588938D01*
X125901808Y-48518187D01*
X125811453Y-48442858D01*
X125725054Y-48363042D01*
X125642756Y-48278831D01*
X125564708Y-48190317D01*
X125491054Y-48097590D01*
X125421941Y-48000743D01*
X125357516Y-47899867D01*
X125297925Y-47795052D01*
X125243315Y-47686392D01*
X125193831Y-47573977D01*
X125149621Y-47457898D01*
X125110830Y-47338247D01*
X125077606Y-47215116D01*
X125050094Y-47088596D01*
X125028441Y-46958778D01*
X125012793Y-46825755D01*
X125003297Y-46689616D01*
X125000099Y-46550455D01*
X125004164Y-46409883D01*
X125016211Y-46269587D01*
X125036022Y-46129840D01*
X125063376Y-45990916D01*
X125098054Y-45853091D01*
X125139836Y-45716640D01*
X125188502Y-45581836D01*
X125243832Y-45448955D01*
X125305608Y-45318271D01*
X125373609Y-45190059D01*
X125447615Y-45064593D01*
X125527407Y-44942149D01*
X125612766Y-44823000D01*
X125703470Y-44707421D01*
X125799301Y-44595688D01*
X125900039Y-44488074D01*
X126005465Y-44384854D01*
X126115358Y-44286304D01*
X126229499Y-44192697D01*
X126347668Y-44104308D01*
X126469645Y-44021412D01*
X126595211Y-43944283D01*
X126724146Y-43873197D01*
X126856231Y-43808427D01*
X126991245Y-43750249D01*
X127128969Y-43698937D01*
X127269182Y-43654765D01*
X127411667Y-43618009D01*
X127556202Y-43588943D01*
X127702569Y-43567841D01*
X127850547Y-43554979D01*
X127999916Y-43550630D01*
X128200648Y-43557802D01*
X128390541Y-43578707D01*
X128569887Y-43612429D01*
X128738980Y-43658054D01*
X128898111Y-43714665D01*
X129047575Y-43781346D01*
X129187664Y-43857184D01*
X129318672Y-43941261D01*
X129440890Y-44032662D01*
X129554613Y-44130472D01*
X129660132Y-44233776D01*
X129757742Y-44341657D01*
X129847734Y-44453200D01*
X129930402Y-44567490D01*
X130006039Y-44683611D01*
X130074938Y-44800648D01*
X130137391Y-44917684D01*
X130193692Y-45033805D01*
X130289009Y-45259638D01*
X130363232Y-45470823D01*
X130418704Y-45660034D01*
X130457770Y-45819949D01*
X130482772Y-45943241D01*
X130499962Y-46050665D01*
X130582787Y-46054975D01*
X130682439Y-46065212D01*
X130817470Y-46085148D01*
X130985292Y-46118015D01*
X131183321Y-46167047D01*
X131408969Y-46235475D01*
X131659651Y-46326533D01*
X131793571Y-46381559D01*
X131932780Y-46443454D01*
X132076954Y-46512623D01*
X132225770Y-46589470D01*
X132378905Y-46674399D01*
X132536036Y-46767815D01*
X132696838Y-46870120D01*
X132860990Y-46981721D01*
X133028168Y-47103019D01*
X133198047Y-47234420D01*
X133370306Y-47376328D01*
X133544621Y-47529147D01*
X133720669Y-47693281D01*
X133898125Y-47869133D01*
X134076668Y-48057109D01*
X134255974Y-48257612D01*
X134945192Y-47719873D01*
X135656894Y-47210594D01*
X136390218Y-46730636D01*
X137144307Y-46280859D01*
X137918301Y-45862122D01*
X138711340Y-45475286D01*
X139522565Y-45121210D01*
X140351116Y-44800755D01*
X141196134Y-44514779D01*
X142056760Y-44264144D01*
X142932134Y-44049709D01*
X143821396Y-43872334D01*
X144723688Y-43732878D01*
X145638150Y-43632203D01*
X146563922Y-43571167D01*
X147500145Y-43550630D01*
X148436317Y-43571167D01*
X149362044Y-43632203D01*
X150276467Y-43732878D01*
X151178726Y-43872334D01*
X152067960Y-44049709D01*
X152943310Y-44264144D01*
X153803916Y-44514779D01*
X154648918Y-44800755D01*
X155477456Y-45121210D01*
X156288671Y-45475286D01*
X157081702Y-45862122D01*
X157855690Y-46280859D01*
X158609775Y-46730636D01*
X159343096Y-47210594D01*
X160054795Y-47719873D01*
X160744011Y-48257612D01*
X160923318Y-48057109D01*
X161101862Y-47869133D01*
X161455368Y-47529147D01*
X161801944Y-47234420D01*
X162139003Y-46981721D01*
X162463959Y-46767815D01*
X162774226Y-46589470D01*
X163067217Y-46443454D01*
X163340347Y-46326533D01*
X163591030Y-46235475D01*
X163816678Y-46167047D01*
X164014707Y-46118015D01*
X164182530Y-46085148D01*
X164417213Y-46054975D01*
X164500038Y-46050665D01*
X164504921Y-45943241D01*
X164516518Y-45819949D01*
X164539101Y-45660034D01*
X164576333Y-45470823D01*
X164631876Y-45259638D01*
X164709392Y-45033805D01*
X164757535Y-44917684D01*
X164812544Y-44800648D01*
X164874877Y-44683611D01*
X164944992Y-44567490D01*
X165023348Y-44453200D01*
X165110401Y-44341657D01*
X165206609Y-44233776D01*
X165312431Y-44130472D01*
X165428323Y-44032662D01*
X165554745Y-43941261D01*
X165692153Y-43857184D01*
X165841005Y-43781346D01*
X166001759Y-43714665D01*
X166174873Y-43658054D01*
X166360805Y-43612429D01*
X166560012Y-43578707D01*
X166772953Y-43557802D01*
X167000084Y-43550630D01*
X167140654Y-43554979D01*
D10*
%TO.C,LED1*%
X146630000Y-70784321D02*
X146630000Y-71904321D01*
X147570000Y-69984321D02*
X147430000Y-69984321D01*
X147570000Y-72704321D02*
X147430000Y-72704321D01*
X148370000Y-70784321D02*
X148370000Y-71904321D01*
X146630000Y-70784321D02*
G75*
G02*
X147430000Y-69984321I800001J-1D01*
G01*
X147430000Y-72704321D02*
G75*
G02*
X146630000Y-71904321I1J800001D01*
G01*
X147570000Y-69984321D02*
G75*
G02*
X148370000Y-70784321I-1J-800001D01*
G01*
X148370000Y-71904321D02*
G75*
G02*
X147570000Y-72704321I-800001J1D01*
G01*
%TD*%
M02*
