%TF.GenerationSoftware,KiCad,Pcbnew,8.0.8*%
%TF.CreationDate,2025-01-23T01:46:44+01:00*%
%TF.ProjectId,mariposa,6d617269-706f-4736-912e-6b696361645f,2.0*%
%TF.SameCoordinates,Original*%
%TF.FileFunction,Profile,NP*%
%FSLAX46Y46*%
G04 Gerber Fmt 4.6, Leading zero omitted, Abs format (unit mm)*
G04 Created by KiCad (PCBNEW 8.0.8) date 2025-01-23 01:46:44*
%MOMM*%
%LPD*%
G01*
G04 APERTURE LIST*
%TA.AperFunction,Profile*%
%ADD10C,0.201083*%
%TD*%
%TA.AperFunction,Profile*%
%ADD11C,0.050000*%
%TD*%
G04 APERTURE END LIST*
D10*
X170895035Y-36050154D02*
X171094105Y-36064082D01*
X171292942Y-36087572D01*
X171491027Y-36120475D01*
X171687847Y-36162642D01*
X171882883Y-36213926D01*
X172075621Y-36274179D01*
X172265543Y-36343253D01*
X172452133Y-36420999D01*
X172634875Y-36507269D01*
X172813254Y-36601915D01*
X172986752Y-36704789D01*
X173154853Y-36815742D01*
X173317042Y-36934627D01*
X173472801Y-37061296D01*
X173621615Y-37195600D01*
X173762968Y-37337391D01*
X173896342Y-37486521D01*
X174021223Y-37642842D01*
X174137093Y-37806206D01*
X174243436Y-37976464D01*
X174339737Y-38153468D01*
X174425478Y-38337071D01*
X174500145Y-38527124D01*
X174567975Y-38740654D01*
X174620234Y-38956194D01*
X174657336Y-39173153D01*
X174679694Y-39390939D01*
X174687723Y-39608962D01*
X174681835Y-39826629D01*
X174662445Y-40043349D01*
X174629967Y-40258531D01*
X174584814Y-40471585D01*
X174527401Y-40681917D01*
X174458141Y-40888937D01*
X174377448Y-41092054D01*
X174285736Y-41290677D01*
X174183419Y-41484213D01*
X174070910Y-41672072D01*
X173948623Y-41853663D01*
X173816973Y-42028393D01*
X173676373Y-42195672D01*
X173527237Y-42354908D01*
X173369978Y-42505510D01*
X173205011Y-42646887D01*
X173032750Y-42778447D01*
X172853608Y-42899599D01*
X172667998Y-43009752D01*
X172476336Y-43108313D01*
X172279035Y-43194693D01*
X172076508Y-43268299D01*
X171869169Y-43328541D01*
X171657433Y-43374826D01*
X171441713Y-43406564D01*
X171222423Y-43423163D01*
X170999977Y-43424032D01*
X170809053Y-43412428D01*
X170624796Y-43390583D01*
X170447165Y-43359192D01*
X170276123Y-43318951D01*
X170111627Y-43270556D01*
X169953640Y-43214703D01*
X169802121Y-43152087D01*
X169657030Y-43083405D01*
X169518329Y-43009351D01*
X169385976Y-42930622D01*
X169259932Y-42847914D01*
X169140158Y-42761922D01*
X168919260Y-42582871D01*
X168722963Y-42399035D01*
X168550950Y-42215981D01*
X168402903Y-42039274D01*
X168278505Y-41874481D01*
X168177437Y-41727168D01*
X168044021Y-41507249D01*
X168000114Y-41424047D01*
X167936698Y-41429593D01*
X167860061Y-41439641D01*
X167755813Y-41457306D01*
X167625710Y-41484665D01*
X167471506Y-41523795D01*
X167294958Y-41576771D01*
X167097822Y-41645669D01*
X166881852Y-41732567D01*
X166767354Y-41783414D01*
X166648806Y-41839539D01*
X166526427Y-41901202D01*
X166400438Y-41968663D01*
X166271057Y-42042181D01*
X166138504Y-42122014D01*
X166002999Y-42208424D01*
X165864761Y-42301670D01*
X165724009Y-42402010D01*
X165580963Y-42509705D01*
X165435842Y-42625014D01*
X165288866Y-42748196D01*
X165140254Y-42879511D01*
X164990226Y-43019220D01*
X164906143Y-43102299D01*
X164827259Y-43185757D01*
X164753397Y-43269611D01*
X164684381Y-43353882D01*
X164620032Y-43438590D01*
X164560174Y-43523753D01*
X164504629Y-43609391D01*
X164453222Y-43695524D01*
X164362107Y-43869353D01*
X164285414Y-44045395D01*
X164221725Y-44223807D01*
X164169622Y-44404744D01*
X164127690Y-44588363D01*
X164094510Y-44774821D01*
X164068667Y-44964273D01*
X164048743Y-45156875D01*
X164020985Y-45552157D01*
X163999900Y-45961915D01*
X165002618Y-46723284D01*
X165957483Y-47535029D01*
X166862173Y-48394984D01*
X167714364Y-49300982D01*
X168511733Y-50250856D01*
X169251955Y-51242439D01*
X169932708Y-52273567D01*
X170551668Y-53342070D01*
X171106511Y-54445784D01*
X171594913Y-55582542D01*
X172014552Y-56750177D01*
X172363103Y-57946522D01*
X172638243Y-59169412D01*
X172837649Y-60416679D01*
X172908225Y-61048777D01*
X172958996Y-61686157D01*
X172989672Y-62328548D01*
X172999961Y-62975679D01*
X172955858Y-64313489D01*
X172825278Y-65629628D01*
X172610819Y-66921675D01*
X172315079Y-68187208D01*
X171940656Y-69423804D01*
X171490146Y-70629042D01*
X170966148Y-71800499D01*
X170371259Y-72935755D01*
X169708077Y-74032387D01*
X168979198Y-75087972D01*
X168187221Y-76100090D01*
X167334743Y-77066317D01*
X166424362Y-77984233D01*
X165458675Y-78851415D01*
X164440279Y-79665442D01*
X163371772Y-80423890D01*
X173208183Y-99456964D01*
X173296600Y-99638984D01*
X173375037Y-99823277D01*
X173443593Y-100009518D01*
X173502368Y-100197383D01*
X173551460Y-100386548D01*
X173590967Y-100576688D01*
X173620990Y-100767480D01*
X173641626Y-100958598D01*
X173652974Y-101149719D01*
X173655134Y-101340519D01*
X173648205Y-101530673D01*
X173632284Y-101719857D01*
X173607472Y-101907747D01*
X173573867Y-102094018D01*
X173531567Y-102278346D01*
X173480672Y-102460407D01*
X173421281Y-102639878D01*
X173353493Y-102816432D01*
X173277405Y-102989747D01*
X173193118Y-103159497D01*
X173100730Y-103325359D01*
X173000340Y-103487009D01*
X172892048Y-103644122D01*
X172775950Y-103796374D01*
X172652148Y-103943440D01*
X172520739Y-104084997D01*
X172381822Y-104220720D01*
X172235497Y-104350284D01*
X172081862Y-104473367D01*
X171921016Y-104589643D01*
X171753058Y-104698788D01*
X171578087Y-104800477D01*
X162032447Y-110035264D01*
X161902440Y-110110794D01*
X161777580Y-110191823D01*
X161657943Y-110278113D01*
X161543600Y-110369429D01*
X161434627Y-110465535D01*
X161331098Y-110566194D01*
X161233085Y-110671169D01*
X161140662Y-110780226D01*
X161053904Y-110893126D01*
X160972885Y-111009635D01*
X160897677Y-111129516D01*
X160828355Y-111252532D01*
X160764993Y-111378447D01*
X160707663Y-111507026D01*
X160656441Y-111638031D01*
X160611400Y-111771226D01*
X160572614Y-111906376D01*
X160540156Y-112043244D01*
X160514100Y-112181593D01*
X160494520Y-112321187D01*
X160481490Y-112461791D01*
X160475083Y-112603167D01*
X160475374Y-112745080D01*
X160482435Y-112887294D01*
X160496342Y-113029571D01*
X160517167Y-113171676D01*
X160544985Y-113313372D01*
X160579869Y-113454423D01*
X160621893Y-113594594D01*
X160671130Y-113733647D01*
X160727655Y-113871346D01*
X160791542Y-114007455D01*
X168000114Y-128424073D01*
X168195497Y-128912859D01*
X168306006Y-129421595D01*
X168335239Y-129947956D01*
X168286793Y-130489615D01*
X168164266Y-131044246D01*
X167971256Y-131609524D01*
X167711360Y-132183123D01*
X167388178Y-132762716D01*
X167005306Y-133345978D01*
X166566342Y-133930583D01*
X166074885Y-134514205D01*
X165534531Y-135094518D01*
X164948880Y-135669196D01*
X164321528Y-136235914D01*
X163656074Y-136792344D01*
X162956115Y-137336162D01*
X162225250Y-137865041D01*
X161467075Y-138376656D01*
X160685190Y-138868680D01*
X159883191Y-139338788D01*
X159064677Y-139784653D01*
X158233246Y-140203950D01*
X157392495Y-140594354D01*
X156546022Y-140953537D01*
X155697424Y-141279174D01*
X154850301Y-141568939D01*
X154008250Y-141820506D01*
X153174868Y-142031549D01*
X152353753Y-142199743D01*
X151548504Y-142322761D01*
X150762717Y-142398278D01*
X149999992Y-142423967D01*
X149237267Y-142398278D01*
X148451483Y-142322761D01*
X147646238Y-142199743D01*
X146825128Y-142031549D01*
X145149708Y-141568939D01*
X143454005Y-140953537D01*
X141766801Y-140203950D01*
X140116879Y-139338788D01*
X138533019Y-138376656D01*
X137044004Y-137336162D01*
X135678616Y-136235914D01*
X134465636Y-135094518D01*
X133433848Y-133930583D01*
X132994894Y-133345978D01*
X132612031Y-132762716D01*
X132288857Y-132183123D01*
X132028969Y-131609524D01*
X131835966Y-131044246D01*
X131713444Y-130489615D01*
X131665001Y-129947956D01*
X131694236Y-129421595D01*
X131804746Y-128912859D01*
X132000129Y-128424073D01*
X139208442Y-114007455D01*
X139272329Y-113871346D01*
X139328854Y-113733647D01*
X139378091Y-113594594D01*
X139420115Y-113454423D01*
X139454999Y-113313372D01*
X139482817Y-113171676D01*
X139503642Y-113029571D01*
X139517549Y-112887294D01*
X139524610Y-112745080D01*
X139524901Y-112603167D01*
X139518494Y-112461791D01*
X139505464Y-112321187D01*
X139485884Y-112181593D01*
X139459828Y-112043244D01*
X139427370Y-111906376D01*
X139388584Y-111771226D01*
X139343543Y-111638031D01*
X139292321Y-111507026D01*
X139234991Y-111378447D01*
X139171629Y-111252532D01*
X139102307Y-111129516D01*
X139027099Y-111009635D01*
X138946080Y-110893126D01*
X138859322Y-110780226D01*
X138766899Y-110671169D01*
X138668886Y-110566194D01*
X138565357Y-110465535D01*
X138456384Y-110369429D01*
X138342041Y-110278113D01*
X138222404Y-110191823D01*
X138097544Y-110110794D01*
X137967537Y-110035264D01*
X128421905Y-104800477D01*
X128246957Y-104698788D01*
X128079019Y-104589643D01*
X127918190Y-104473367D01*
X127764569Y-104350284D01*
X127618256Y-104220720D01*
X127479349Y-104084997D01*
X127347948Y-103943440D01*
X127224151Y-103796374D01*
X127108057Y-103644122D01*
X126999766Y-103487009D01*
X126899376Y-103325359D01*
X126806987Y-103159497D01*
X126722697Y-102989747D01*
X126646606Y-102816432D01*
X126578812Y-102639878D01*
X126519415Y-102460407D01*
X126468514Y-102278346D01*
X126426207Y-102094018D01*
X126392594Y-101907747D01*
X126367774Y-101719857D01*
X126351845Y-101530673D01*
X126344907Y-101340519D01*
X126347059Y-101149719D01*
X126358399Y-100958598D01*
X126379027Y-100767480D01*
X126409042Y-100576688D01*
X126448543Y-100386548D01*
X126497629Y-100197383D01*
X126556399Y-100009518D01*
X126624951Y-99823277D01*
X126703386Y-99638984D01*
X126791801Y-99456964D01*
X136628212Y-80423890D01*
X135559705Y-79665442D01*
X134541310Y-78851415D01*
X133575623Y-77984233D01*
X132665242Y-77066317D01*
X131812764Y-76100090D01*
X131020788Y-75087972D01*
X130291910Y-74032387D01*
X129628729Y-72935755D01*
X129033840Y-71800499D01*
X128509843Y-70629042D01*
X128059334Y-69423804D01*
X127862450Y-68809274D01*
X127684911Y-68187208D01*
X127527044Y-67557907D01*
X127389172Y-66921675D01*
X127271620Y-66278814D01*
X127174714Y-65629628D01*
X127098777Y-64974419D01*
X127044134Y-64313489D01*
X127011110Y-63647141D01*
X127000030Y-62975679D01*
X127041258Y-61682049D01*
X127163379Y-60408596D01*
X127364046Y-59157509D01*
X127640914Y-57930974D01*
X127991635Y-56731181D01*
X128413866Y-55560316D01*
X128905259Y-54420568D01*
X129463468Y-53314124D01*
X130086148Y-52243173D01*
X130770952Y-51209902D01*
X131515535Y-50216499D01*
X132317550Y-49265152D01*
X133174652Y-48358048D01*
X134084494Y-47497377D01*
X135044731Y-46685325D01*
X136053016Y-45924081D01*
X136042085Y-45719246D01*
X136029892Y-45518904D01*
X136015169Y-45322779D01*
X136006464Y-45226212D01*
X135996650Y-45130597D01*
X135984800Y-45029819D01*
X135971351Y-44930065D01*
X135956116Y-44831291D01*
X135938909Y-44733455D01*
X135919544Y-44636511D01*
X135897836Y-44540416D01*
X135873597Y-44445128D01*
X135846641Y-44350602D01*
X135819136Y-44264042D01*
X135789009Y-44178070D01*
X135756116Y-44092658D01*
X135720309Y-44007774D01*
X135681442Y-43923387D01*
X135639368Y-43839467D01*
X135593942Y-43755984D01*
X135545015Y-43672906D01*
X135492442Y-43590204D01*
X135436077Y-43507846D01*
X135375772Y-43425802D01*
X135311382Y-43344041D01*
X135242759Y-43262533D01*
X135169758Y-43181247D01*
X135092231Y-43100153D01*
X135010032Y-43019220D01*
X134711347Y-42748196D01*
X134419216Y-42509705D01*
X134135395Y-42301670D01*
X133861636Y-42122014D01*
X133599695Y-41968663D01*
X133351327Y-41839539D01*
X133118286Y-41732567D01*
X132902326Y-41645669D01*
X132705203Y-41576771D01*
X132528670Y-41523795D01*
X132244394Y-41457306D01*
X132063535Y-41429593D01*
X132000129Y-41424047D01*
X131956211Y-41507249D01*
X131900838Y-41602902D01*
X131822766Y-41727168D01*
X131721679Y-41874481D01*
X131597258Y-42039274D01*
X131449188Y-42215981D01*
X131277152Y-42399035D01*
X131182047Y-42491203D01*
X131080831Y-42582871D01*
X130973465Y-42673343D01*
X130859910Y-42761922D01*
X130740125Y-42847914D01*
X130614071Y-42930622D01*
X130481708Y-43009351D01*
X130342997Y-43083405D01*
X130197898Y-43152087D01*
X130046372Y-43214703D01*
X129888378Y-43270556D01*
X129723878Y-43318951D01*
X129552831Y-43359192D01*
X129375198Y-43390583D01*
X129190939Y-43412428D01*
X129000015Y-43424032D01*
X128777568Y-43423163D01*
X128558277Y-43406564D01*
X128342557Y-43374826D01*
X128130821Y-43328541D01*
X127923483Y-43268299D01*
X127720956Y-43194693D01*
X127523656Y-43108313D01*
X127331995Y-43009752D01*
X127146388Y-42899599D01*
X126967248Y-42778447D01*
X126794989Y-42646887D01*
X126630026Y-42505510D01*
X126472771Y-42354908D01*
X126323640Y-42195672D01*
X126183045Y-42028393D01*
X126051401Y-41853663D01*
X125929121Y-41672072D01*
X125816620Y-41484213D01*
X125714311Y-41290677D01*
X125622608Y-41092054D01*
X125541926Y-40888937D01*
X125472677Y-40681917D01*
X125415276Y-40471585D01*
X125370136Y-40258531D01*
X125337673Y-40043349D01*
X125318298Y-39826629D01*
X125312427Y-39608962D01*
X125320473Y-39390939D01*
X125342850Y-39173153D01*
X125379972Y-38956194D01*
X125432253Y-38740654D01*
X125500106Y-38527124D01*
X125574749Y-38337071D01*
X125660468Y-38153468D01*
X125756748Y-37976464D01*
X125863073Y-37806206D01*
X125978925Y-37642842D01*
X126103788Y-37486521D01*
X126237148Y-37337391D01*
X126378486Y-37195600D01*
X126527287Y-37061296D01*
X126683034Y-36934627D01*
X126845211Y-36815742D01*
X127013303Y-36704789D01*
X127186792Y-36601915D01*
X127365162Y-36507269D01*
X127547897Y-36420999D01*
X127734480Y-36343253D01*
X127924397Y-36274179D01*
X128117129Y-36213926D01*
X128312161Y-36162642D01*
X128508976Y-36120475D01*
X128707058Y-36087572D01*
X128905892Y-36064082D01*
X129104960Y-36050154D01*
X129303746Y-36045935D01*
X129501734Y-36051574D01*
X129698408Y-36067218D01*
X129893251Y-36093016D01*
X130085747Y-36129116D01*
X130275380Y-36175666D01*
X130461634Y-36232815D01*
X130643992Y-36300709D01*
X130821937Y-36379499D01*
X130963256Y-36451189D01*
X131096463Y-36526358D01*
X131221796Y-36604627D01*
X131339492Y-36685620D01*
X131449789Y-36768959D01*
X131552926Y-36854267D01*
X131649139Y-36941166D01*
X131738666Y-37029279D01*
X131821746Y-37118230D01*
X131898616Y-37207639D01*
X131969514Y-37297131D01*
X132034678Y-37386327D01*
X132148753Y-37562325D01*
X132242744Y-37732613D01*
X132318554Y-37894173D01*
X132378083Y-38043986D01*
X132423236Y-38179033D01*
X132455913Y-38296295D01*
X132491451Y-38465392D01*
X132499916Y-38527124D01*
X132662196Y-38501148D01*
X133114340Y-38450539D01*
X133432848Y-38428801D01*
X133804306Y-38416269D01*
X134222208Y-38418067D01*
X134680050Y-38439314D01*
X135171324Y-38485134D01*
X135689527Y-38560648D01*
X135956694Y-38611140D01*
X136228153Y-38670977D01*
X136503091Y-38740798D01*
X136780695Y-38821244D01*
X137060153Y-38912955D01*
X137340650Y-39016570D01*
X137621374Y-39132731D01*
X137901511Y-39262078D01*
X138180249Y-39405250D01*
X138456773Y-39562888D01*
X138730272Y-39735632D01*
X138999931Y-39924123D01*
X139222167Y-40093592D01*
X139436328Y-40269220D01*
X139642260Y-40450412D01*
X139839808Y-40636573D01*
X140028816Y-40827109D01*
X140209130Y-41021425D01*
X140380595Y-41218927D01*
X140543056Y-41419020D01*
X140696358Y-41621111D01*
X140840345Y-41824603D01*
X140974863Y-42028903D01*
X141099757Y-42233417D01*
X141214872Y-42437549D01*
X141320053Y-42640705D01*
X141415145Y-42842290D01*
X141499992Y-43041711D01*
X141995877Y-42863680D01*
X142497196Y-42696098D01*
X143003794Y-42539109D01*
X143515518Y-42392855D01*
X144032213Y-42257480D01*
X144553727Y-42133126D01*
X145079904Y-42019937D01*
X145610592Y-41918056D01*
X146145635Y-41827625D01*
X146684881Y-41748787D01*
X147228176Y-41681686D01*
X147775365Y-41626465D01*
X148326296Y-41583266D01*
X148880813Y-41552233D01*
X149438763Y-41533508D01*
X149999992Y-41527234D01*
X150561224Y-41533508D01*
X151119176Y-41552233D01*
X151673695Y-41583266D01*
X152224627Y-41626465D01*
X152771818Y-41681686D01*
X153315113Y-41748787D01*
X153854360Y-41827625D01*
X154389404Y-41918056D01*
X154920091Y-42019937D01*
X155446268Y-42133126D01*
X155967781Y-42257480D01*
X156484475Y-42392855D01*
X156996197Y-42539109D01*
X157502793Y-42696098D01*
X158499992Y-43041711D01*
X158584839Y-42842290D01*
X158679931Y-42640705D01*
X158785112Y-42437549D01*
X158900227Y-42233417D01*
X159025121Y-42028903D01*
X159159639Y-41824603D01*
X159303626Y-41621111D01*
X159456928Y-41419020D01*
X159619389Y-41218927D01*
X159790854Y-41021425D01*
X159971168Y-40827109D01*
X160160176Y-40636573D01*
X160357724Y-40450412D01*
X160563656Y-40269220D01*
X160777817Y-40093592D01*
X161000053Y-39924123D01*
X161269712Y-39735632D01*
X161543211Y-39562888D01*
X161819735Y-39405250D01*
X162098473Y-39262078D01*
X162659334Y-39016570D01*
X163219288Y-38821244D01*
X163771831Y-38670977D01*
X164310457Y-38560648D01*
X164828660Y-38485134D01*
X165319934Y-38439314D01*
X165777776Y-38418067D01*
X166195678Y-38416269D01*
X166885644Y-38450539D01*
X167500068Y-38527124D01*
X167508533Y-38465392D01*
X167521966Y-38392755D01*
X167544071Y-38296295D01*
X167576748Y-38179033D01*
X167621901Y-38043986D01*
X167681430Y-37894173D01*
X167717181Y-37814673D01*
X167757240Y-37732613D01*
X167801844Y-37648371D01*
X167851231Y-37562325D01*
X167905639Y-37474851D01*
X167965306Y-37386327D01*
X168030470Y-37297131D01*
X168101368Y-37207639D01*
X168178238Y-37118230D01*
X168261318Y-37029279D01*
X168350845Y-36941166D01*
X168447058Y-36854267D01*
X168550195Y-36768959D01*
X168660492Y-36685620D01*
X168778188Y-36604627D01*
X168903521Y-36526358D01*
X169036728Y-36451189D01*
X169178047Y-36379499D01*
X169355993Y-36300709D01*
X169538351Y-36232815D01*
X169724606Y-36175666D01*
X169914240Y-36129116D01*
X170106737Y-36093016D01*
X170301581Y-36067218D01*
X170498257Y-36051574D01*
X170696246Y-36045935D01*
X170895035Y-36050154D01*
D11*
X144500000Y-76300000D02*
G75*
G02*
X145000000Y-75800000I500000J0D01*
G01*
X145000000Y-76800000D02*
G75*
G02*
X144500000Y-76300000I0J500000D01*
G01*
X145000000Y-76800000D02*
X155000000Y-76800000D01*
X155500000Y-76300000D02*
G75*
G02*
X155000000Y-76800000I-500000J0D01*
G01*
X155000000Y-75800000D02*
G75*
G02*
X155500000Y-76300000I0J-500000D01*
G01*
X155000000Y-75800000D02*
X145000000Y-75800000D01*
%TO.C,D5*%
X128020000Y-38850000D02*
X128020000Y-40350000D01*
X130070000Y-38700000D02*
X128170000Y-38700000D01*
X130070000Y-40500000D02*
X128170000Y-40500000D01*
X130220000Y-38850000D02*
X130220000Y-40350000D01*
X128020000Y-38850000D02*
G75*
G02*
X128170000Y-38700000I150000J0D01*
G01*
X128170000Y-40500000D02*
G75*
G02*
X128020000Y-40350000I0J150000D01*
G01*
X130070000Y-38700000D02*
G75*
G02*
X130220000Y-38850000I0J-150000D01*
G01*
X130220000Y-40350000D02*
G75*
G02*
X130070000Y-40500000I-150000J0D01*
G01*
%TO.C,D1*%
X149100000Y-73232679D02*
X149100000Y-71332679D01*
X150750000Y-71182679D02*
X149250000Y-71182679D01*
X150750000Y-73382679D02*
X149250000Y-73382679D01*
X150900000Y-73232679D02*
X150900000Y-71332679D01*
X149100000Y-71332679D02*
G75*
G02*
X149250000Y-71182679I150000J0D01*
G01*
X149250000Y-73382679D02*
G75*
G02*
X149100000Y-73232679I0J150000D01*
G01*
X150750000Y-71182679D02*
G75*
G02*
X150900000Y-71332679I0J-150000D01*
G01*
X150900000Y-73232679D02*
G75*
G02*
X150750000Y-73382679I-150000J0D01*
G01*
%TO.C,D6*%
X169850000Y-40350000D02*
X169850000Y-38850000D01*
X170000000Y-38700000D02*
X171900000Y-38700000D01*
X170000000Y-40500000D02*
X171900000Y-40500000D01*
X172050000Y-40350000D02*
X172050000Y-38850000D01*
X169850000Y-38850000D02*
G75*
G02*
X170000000Y-38700000I150000J0D01*
G01*
X170000000Y-40500000D02*
G75*
G02*
X169850000Y-40350000I0J150000D01*
G01*
X171900000Y-38700000D02*
G75*
G02*
X172050000Y-38850000I0J-150000D01*
G01*
X172050000Y-40350000D02*
G75*
G02*
X171900000Y-40500000I-150000J0D01*
G01*
%TD*%
M02*
