M48
; DRILL file {KiCad 9.0.1} date 2025-04-05T00:34:01+0100
; FORMAT={-:-/ absolute / metric / decimal}
; #@! TF.CreationDate,2025-04-05T00:34:01+01:00
; #@! TF.GenerationSoftware,Kicad,Pcbnew,9.0.1
; #@! TF.FileFunction,Plated,1,4,PTH
FMAT,2
METRIC
; #@! TA.AperFunction,Plated,PTH,ViaDrill
T1C0.200
; #@! TA.AperFunction,Plated,PTH,ComponentDrill
T2C0.203
; #@! TA.AperFunction,Plated,PTH,ViaDrill
T3C0.250
; #@! TA.AperFunction,Plated,PTH,ViaDrill
T4C0.300
; #@! TA.AperFunction,Plated,PTH,ViaDrill
T5C0.350
; #@! TA.AperFunction,Plated,PTH,ComponentDrill
T6C0.600
; #@! TA.AperFunction,Plated,PTH,ComponentDrill
T7C3.200
%
G90
G05
T1
X144.09Y-86.784
X144.12Y-84.264
X145.79Y-113.384
X147.12Y-67.984
X147.9Y-67.954
X148.28Y-125.154
X148.44Y-137.404
X148.72Y-85.374
X149.22Y-137.404
X149.25Y-85.374
X150.03Y-138.644
X150.15Y-85.374
X153.05Y-73.724
X153.07Y-131.964
X153.32Y-131.444
X153.91Y-136.804
T2
X134.59Y-52.279
X135.69Y-52.279
T3
X129.01Y-45.724
X131.39Y-135.724
X132.86Y-134.774
X133.46Y-83.054
X133.55Y-53.624
X133.68Y-137.224
X133.86Y-53.064
X134.42Y-106.674
X134.45Y-112.174
X134.53Y-83.934
X135.58Y-105.604
X136.56Y-65.714
X137.11Y-140.154
X137.26Y-64.884
X139.14Y-83.054
X139.37Y-103.354
X139.59Y-130.504
X139.63Y-135.244
X140.29Y-46.064
X140.57Y-84.404
X140.75Y-106.744
X141.08Y-84.854
X141.23Y-132.464
X141.25Y-81.204
X141.25Y-107.134
X141.64Y-134.914
X141.73Y-81.704
X141.76Y-106.744
X142.25Y-107.144
X142.25Y-132.014
X142.27Y-134.714
X142.36Y-129.924
X142.66Y-138.874
X142.74Y-65.504
X142.75Y-106.744
X143.25Y-107.144
X143.38Y-128.434
X143.51Y-127.884
X143.75Y-106.744
X143.8Y-129.724
X144.13Y-128.434
X144.16Y-136.704
X144.17Y-138.874
X144.25Y-107.144
X144.38Y-64.384
X144.405Y-101.139
X144.99Y-131.534
X145.08Y-132.654
X145.29Y-138.884
X145.34Y-70.294
X145.4Y-125.324
X145.63Y-128.444
X145.63Y-131.534
X145.66Y-135.274
X145.7Y-119.874
X145.708Y-118.927
X145.91Y-130.794
X145.96Y-85.534
X146.44Y-68.294
X146.53Y-136.034
X146.72Y-130.894
X146.74Y-83.154
X146.75Y-49.784
X147.24Y-51.854
X147.28Y-136.194
X147.51Y-44.984
X147.58Y-64.784
X147.76Y-49.784
X147.84Y-103.964
X148.15Y-63.883
X148.25Y-51.854
X148.54Y-100.344
X148.72Y-135.294
X148.75Y-106.804
X149.25Y-107.254
X149.25Y-135.934
X149.38Y-67.224
X149.39Y-57.304
X149.75Y-130.854
X149.75Y-133.684
X150.04Y-100.004
X150.56Y-84.264
X150.81Y-138.894
X151.57Y-57.614
X151.57Y-64.344
X151.63Y-128.324
X151.63Y-129.724
X152.21Y-135.424
X152.36Y-138.884
X153.17Y-135.594
X153.52Y-70.934
X154.54Y-46.004
X155.05Y-62.554
X155.097Y-52.892
X155.47Y-88.314
X155.79Y-70.639
X156.86Y-134.094
X157.56Y-47.584
X157.92Y-140.114
X158.17Y-118.834
X158.24Y-55.534
X158.48Y-126.605
X159.38Y-71.344
X159.49Y-123.474
X160.69Y-125.764
X160.95Y-118.834
X161.14Y-136.084
X161.15Y-77.734
X161.99Y-47.694
X162.06Y-109.284
X162.23Y-134.374
X162.51Y-124.494
X164.4Y-133.494
X164.5Y-71.004
X168.83Y-46.064
T4
X127.04Y-45.024
X130.77Y-133.404
X131.99Y-47.744
X134.51Y-108.074
X134.59Y-71.784
X135.14Y-132.974
X136.16Y-55.584
X137.06Y-136.034
X137.63Y-55.584
X137.96Y-129.914
X139.06Y-61.344
X139.09Y-67.694
X139.17Y-125.184
X139.18Y-123.734
X140.17Y-67.884
X140.2Y-68.624
X140.29Y-58.944
X140.903Y-60.601
X142.39Y-58.964
X143.15Y-62.704
X143.77Y-58.224
X143.77Y-58.814
X143.79Y-64.384
X145.05Y-136.034
X145.34Y-60.834
X145.57Y-52.684
X146.2Y-52.684
X146.42Y-60.854
X146.42Y-61.604
X146.72Y-91.724
X146.72Y-93.314
X149.13Y-52.684
X149.9Y-52.684
X150.1Y-94.154
X152.3Y-104.084
X153.61Y-55.074
X153.76Y-64.494
X154.5Y-57.534
X155.59Y-104.044
X155.89Y-50.341
X156.32Y-65.564
X156.58Y-62.844
X157.11Y-56.864
X157.29Y-53.154
X157.42Y-68.184
X157.98Y-63.624
X158.34Y-62.384
X158.9Y-57.624
X159.04Y-68.184
X159.38Y-81.464
X159.49Y-108.084
X160.46Y-52.584
X160.7Y-135.124
X161.52Y-56.214
X162.78Y-48.794
X167.05Y-45.134
T5
X136.69Y-51.024
T7
X133.0Y-65.677
X133.0Y-129.752
X162.0Y-65.677
X162.0Y-129.752
T6
X143.18Y-46.419G85X143.18Y-45.619
G05
X143.18Y-50.749G85X143.18Y-49.649
G05
X151.82Y-46.419G85X151.82Y-45.619
G05
X151.82Y-50.749G85X151.82Y-49.649
G05
M30
