%TF.GenerationSoftware,KiCad,Pcbnew,8.0.8*%
%TF.CreationDate,2025-01-23T01:46:44+01:00*%
%TF.ProjectId,mariposa,6d617269-706f-4736-912e-6b696361645f,2.0*%
%TF.SameCoordinates,Original*%
%TF.FileFunction,Legend,Top*%
%TF.FilePolarity,Positive*%
%FSLAX46Y46*%
G04 Gerber Fmt 4.6, Leading zero omitted, Abs format (unit mm)*
G04 Created by KiCad (PCBNEW 8.0.8) date 2025-01-23 01:46:44*
%MOMM*%
%LPD*%
G01*
G04 APERTURE LIST*
%ADD10C,0.000000*%
%ADD11C,0.100000*%
%ADD12C,0.120000*%
%ADD13C,0.191421*%
G04 APERTURE END LIST*
D10*
G36*
X165812224Y-102770572D02*
G01*
X165819542Y-102771166D01*
X165826810Y-102772110D01*
X165834014Y-102773399D01*
X165841141Y-102775031D01*
X165848180Y-102777000D01*
X165855116Y-102779303D01*
X165861936Y-102781937D01*
X165868630Y-102784895D01*
X165875183Y-102788177D01*
X165881582Y-102791777D01*
X165887815Y-102795691D01*
X165893868Y-102799916D01*
X165899730Y-102804447D01*
X165905387Y-102809281D01*
X165910825Y-102814413D01*
X165916033Y-102819840D01*
X165920998Y-102825558D01*
X165925706Y-102831563D01*
X165930144Y-102837851D01*
X165934302Y-102844417D01*
X165938046Y-102851050D01*
X165955481Y-102885938D01*
X165971057Y-102921497D01*
X165984689Y-102957452D01*
X165996395Y-102993738D01*
X166006197Y-103030289D01*
X166014113Y-103067040D01*
X166020163Y-103103928D01*
X166024367Y-103140887D01*
X166026745Y-103177853D01*
X166027318Y-103214762D01*
X166026103Y-103251549D01*
X166023121Y-103288149D01*
X166018393Y-103324497D01*
X166011936Y-103360530D01*
X166003773Y-103396181D01*
X165993921Y-103431387D01*
X165982402Y-103466084D01*
X165969233Y-103500205D01*
X165954437Y-103533688D01*
X165938031Y-103566466D01*
X165920036Y-103598476D01*
X165900473Y-103629653D01*
X165879360Y-103659932D01*
X165856717Y-103689249D01*
X165832564Y-103717539D01*
X165806920Y-103744736D01*
X165779806Y-103770779D01*
X165751242Y-103795599D01*
X165721246Y-103819134D01*
X165689839Y-103841320D01*
X165657041Y-103862090D01*
X165622871Y-103881381D01*
X164950065Y-104239118D01*
X165021612Y-104373679D01*
X165024232Y-104378837D01*
X165026642Y-104384057D01*
X165028843Y-104389334D01*
X165030835Y-104394663D01*
X165032619Y-104400036D01*
X165034196Y-104405450D01*
X165035566Y-104410899D01*
X165036730Y-104416377D01*
X165037689Y-104421880D01*
X165038443Y-104427400D01*
X165038993Y-104432933D01*
X165039339Y-104438475D01*
X165039483Y-104444017D01*
X165039425Y-104449556D01*
X165039165Y-104455087D01*
X165038703Y-104460603D01*
X165038042Y-104466099D01*
X165037181Y-104471569D01*
X165036122Y-104477008D01*
X165034863Y-104482412D01*
X165033408Y-104487773D01*
X165031755Y-104493087D01*
X165029907Y-104498348D01*
X165027862Y-104503551D01*
X165025622Y-104508690D01*
X165023188Y-104513760D01*
X165020559Y-104518755D01*
X165017738Y-104523670D01*
X165014724Y-104528500D01*
X165011518Y-104533238D01*
X165008121Y-104537879D01*
X165004534Y-104542418D01*
X164996890Y-104551055D01*
X164988717Y-104559008D01*
X164980058Y-104566265D01*
X164970954Y-104572814D01*
X164961447Y-104578641D01*
X164951580Y-104583735D01*
X164941395Y-104588080D01*
X164930933Y-104591666D01*
X164920237Y-104594479D01*
X164909349Y-104596506D01*
X164898312Y-104597733D01*
X164887167Y-104598149D01*
X164875956Y-104597740D01*
X164864722Y-104596493D01*
X164853505Y-104594396D01*
X164842351Y-104591435D01*
X164430133Y-104465408D01*
X164422690Y-104462924D01*
X164415458Y-104460097D01*
X164408445Y-104456937D01*
X164401656Y-104453458D01*
X164395099Y-104449670D01*
X164388781Y-104445588D01*
X164382706Y-104441221D01*
X164376881Y-104436581D01*
X164371313Y-104431683D01*
X164366008Y-104426537D01*
X164360974Y-104421154D01*
X164356215Y-104415548D01*
X164351739Y-104409730D01*
X164347551Y-104403712D01*
X164343660Y-104397507D01*
X164340069Y-104391124D01*
X164336786Y-104384579D01*
X164333818Y-104377883D01*
X164331171Y-104371047D01*
X164328850Y-104364082D01*
X164326864Y-104357002D01*
X164325217Y-104349818D01*
X164323917Y-104342543D01*
X164322969Y-104335188D01*
X164322380Y-104327764D01*
X164322157Y-104320286D01*
X164322305Y-104312764D01*
X164322831Y-104305211D01*
X164323743Y-104297637D01*
X164325046Y-104290056D01*
X164326746Y-104282479D01*
X164328849Y-104274920D01*
X164454877Y-103862702D01*
X164458696Y-103851868D01*
X164463257Y-103841448D01*
X164468525Y-103831473D01*
X164474465Y-103821971D01*
X164481047Y-103812973D01*
X164488236Y-103804507D01*
X164496000Y-103796604D01*
X164504304Y-103789293D01*
X164513115Y-103782602D01*
X164522400Y-103776564D01*
X164532126Y-103771206D01*
X164542260Y-103766558D01*
X164552768Y-103762649D01*
X164563616Y-103759509D01*
X164574773Y-103757168D01*
X164586205Y-103755657D01*
X164597724Y-103755004D01*
X164609141Y-103755210D01*
X164620414Y-103756253D01*
X164631504Y-103758110D01*
X164642370Y-103760759D01*
X164652972Y-103764177D01*
X164663270Y-103768345D01*
X164673224Y-103773237D01*
X164682795Y-103778833D01*
X164691939Y-103785111D01*
X164700620Y-103792048D01*
X164708796Y-103799623D01*
X164716427Y-103807813D01*
X164723472Y-103816597D01*
X164729892Y-103825952D01*
X164735646Y-103835855D01*
X164807194Y-103970417D01*
X165480000Y-103612679D01*
X165500486Y-103601112D01*
X165520152Y-103588655D01*
X165538984Y-103575347D01*
X165556970Y-103561229D01*
X165574100Y-103546337D01*
X165590359Y-103530711D01*
X165605738Y-103514391D01*
X165620224Y-103497414D01*
X165633804Y-103479820D01*
X165646469Y-103461648D01*
X165658204Y-103442937D01*
X165668998Y-103423726D01*
X165678840Y-103404052D01*
X165687718Y-103383957D01*
X165695620Y-103363477D01*
X165702533Y-103342653D01*
X165708446Y-103321524D01*
X165713348Y-103300127D01*
X165717224Y-103278503D01*
X165720066Y-103256690D01*
X165721860Y-103234727D01*
X165722595Y-103212652D01*
X165722257Y-103190505D01*
X165720837Y-103168325D01*
X165718321Y-103146150D01*
X165714697Y-103124020D01*
X165709955Y-103101973D01*
X165704081Y-103080049D01*
X165697066Y-103058286D01*
X165688895Y-103036723D01*
X165679557Y-103015399D01*
X165669041Y-102994353D01*
X165665529Y-102987326D01*
X165662409Y-102980208D01*
X165659679Y-102973011D01*
X165657334Y-102965751D01*
X165655370Y-102958438D01*
X165653782Y-102951085D01*
X165652569Y-102943706D01*
X165651725Y-102936314D01*
X165651246Y-102928921D01*
X165651129Y-102921540D01*
X165651369Y-102914184D01*
X165651963Y-102906865D01*
X165652907Y-102899598D01*
X165654196Y-102892394D01*
X165655828Y-102885267D01*
X165657797Y-102878229D01*
X165660100Y-102871292D01*
X165662733Y-102864471D01*
X165665692Y-102857778D01*
X165668973Y-102851225D01*
X165672574Y-102844825D01*
X165676488Y-102838593D01*
X165680712Y-102832539D01*
X165685244Y-102826678D01*
X165690077Y-102821022D01*
X165695209Y-102815582D01*
X165700637Y-102810375D01*
X165706355Y-102805411D01*
X165712359Y-102800702D01*
X165718647Y-102796263D01*
X165725213Y-102792107D01*
X165732055Y-102788245D01*
X165739083Y-102784732D01*
X165746200Y-102781613D01*
X165753396Y-102778883D01*
X165760658Y-102776537D01*
X165767971Y-102774573D01*
X165775323Y-102772985D01*
X165782701Y-102771773D01*
X165790094Y-102770928D01*
X165797487Y-102770449D01*
X165804869Y-102770332D01*
X165812224Y-102770572D01*
G37*
G36*
X152972670Y-71878675D02*
G01*
X152980419Y-71879262D01*
X152988055Y-71880230D01*
X152995567Y-71881568D01*
X153002946Y-71883267D01*
X153010183Y-71885318D01*
X153017267Y-71887710D01*
X153024191Y-71890435D01*
X153030943Y-71893483D01*
X153037516Y-71896845D01*
X153043898Y-71900511D01*
X153050081Y-71904471D01*
X153056054Y-71908716D01*
X153061810Y-71913236D01*
X153067337Y-71918023D01*
X153072627Y-71923066D01*
X153077670Y-71928356D01*
X153082457Y-71933883D01*
X153086977Y-71939639D01*
X153091222Y-71945612D01*
X153095182Y-71951795D01*
X153098848Y-71958177D01*
X153102209Y-71964749D01*
X153105258Y-71971502D01*
X153107983Y-71978425D01*
X153110375Y-71985510D01*
X153112426Y-71992747D01*
X153114125Y-72000126D01*
X153115463Y-72007638D01*
X153116430Y-72015274D01*
X153117018Y-72023023D01*
X153117216Y-72030877D01*
X153117170Y-72034984D01*
X153117030Y-72039085D01*
X153116789Y-72043175D01*
X153116442Y-72047248D01*
X153115983Y-72051299D01*
X153115408Y-72055322D01*
X153114709Y-72059311D01*
X153113882Y-72063262D01*
X153049388Y-72084749D01*
X152987331Y-72111189D01*
X152927948Y-72142347D01*
X152871478Y-72177986D01*
X152818159Y-72217869D01*
X152768228Y-72261761D01*
X152721923Y-72309423D01*
X152679483Y-72360621D01*
X152641144Y-72415116D01*
X152607146Y-72472674D01*
X152577725Y-72533057D01*
X152553120Y-72596029D01*
X152533569Y-72661354D01*
X152525763Y-72694824D01*
X152519309Y-72728794D01*
X152514238Y-72763234D01*
X152510579Y-72798114D01*
X152508362Y-72833405D01*
X152507616Y-72869077D01*
X152507840Y-72889370D01*
X152508516Y-72909528D01*
X152509650Y-72929553D01*
X152511247Y-72949444D01*
X152513313Y-72969201D01*
X152515854Y-72988824D01*
X152518874Y-73008313D01*
X152522380Y-73027668D01*
X152502559Y-73036507D01*
X152482397Y-73044798D01*
X152461912Y-73052532D01*
X152441120Y-73059696D01*
X152420037Y-73066280D01*
X152398681Y-73072272D01*
X152377069Y-73077661D01*
X152355216Y-73082437D01*
X152355216Y-73402477D01*
X152355018Y-73410331D01*
X152354431Y-73418080D01*
X152353463Y-73425715D01*
X152352125Y-73433228D01*
X152350426Y-73440607D01*
X152348375Y-73447844D01*
X152345983Y-73454928D01*
X152343258Y-73461852D01*
X152340209Y-73468604D01*
X152336848Y-73475177D01*
X152333182Y-73481559D01*
X152329222Y-73487741D01*
X152324977Y-73493715D01*
X152320457Y-73499471D01*
X152315670Y-73504998D01*
X152310627Y-73510288D01*
X152305337Y-73515331D01*
X152299810Y-73520117D01*
X152294054Y-73524638D01*
X152288080Y-73528883D01*
X152281898Y-73532843D01*
X152275516Y-73536509D01*
X152268943Y-73539870D01*
X152262191Y-73542919D01*
X152255267Y-73545644D01*
X152248183Y-73548036D01*
X152240946Y-73550087D01*
X152233567Y-73551786D01*
X152226055Y-73553124D01*
X152218419Y-73554091D01*
X152210670Y-73554679D01*
X152202816Y-73554877D01*
X152194962Y-73554679D01*
X152187213Y-73554091D01*
X152179577Y-73553124D01*
X152172065Y-73551786D01*
X152164686Y-73550087D01*
X152157449Y-73548036D01*
X152150364Y-73545644D01*
X152143441Y-73542919D01*
X152136688Y-73539870D01*
X152130116Y-73536509D01*
X152123734Y-73532843D01*
X152117551Y-73528883D01*
X152111578Y-73524638D01*
X152105822Y-73520117D01*
X152100295Y-73515331D01*
X152095005Y-73510288D01*
X152089962Y-73504998D01*
X152085175Y-73499471D01*
X152080655Y-73493715D01*
X152076410Y-73487741D01*
X152072450Y-73481559D01*
X152068784Y-73475177D01*
X152065422Y-73468604D01*
X152062374Y-73461852D01*
X152059649Y-73454928D01*
X152057257Y-73447844D01*
X152055206Y-73440607D01*
X152053507Y-73433228D01*
X152052169Y-73425715D01*
X152051201Y-73418080D01*
X152050614Y-73410331D01*
X152050416Y-73402477D01*
X152050416Y-73082437D01*
X152018079Y-73075139D01*
X151986277Y-73066485D01*
X151955041Y-73056505D01*
X151924405Y-73045232D01*
X151894400Y-73032698D01*
X151865059Y-73018936D01*
X151836413Y-73003978D01*
X151808496Y-72987857D01*
X151781339Y-72970603D01*
X151754975Y-72952251D01*
X151704753Y-72912377D01*
X151658090Y-72868492D01*
X151615243Y-72820857D01*
X151576469Y-72769727D01*
X151558691Y-72742933D01*
X151542028Y-72715362D01*
X151526513Y-72687046D01*
X151512178Y-72658019D01*
X151499055Y-72628312D01*
X151487176Y-72597957D01*
X151476574Y-72566987D01*
X151467281Y-72535433D01*
X151459329Y-72503329D01*
X151452750Y-72470707D01*
X151447577Y-72437598D01*
X151443843Y-72404035D01*
X151441578Y-72370051D01*
X151440816Y-72335677D01*
X151440816Y-72183277D01*
X151432962Y-72183079D01*
X151425213Y-72182492D01*
X151417577Y-72181524D01*
X151410065Y-72180186D01*
X151402686Y-72178487D01*
X151395449Y-72176436D01*
X151388364Y-72174044D01*
X151381441Y-72171319D01*
X151374688Y-72168270D01*
X151368116Y-72164909D01*
X151361734Y-72161243D01*
X151355551Y-72157283D01*
X151349578Y-72153038D01*
X151343822Y-72148518D01*
X151338295Y-72143731D01*
X151333005Y-72138688D01*
X151327962Y-72133398D01*
X151323175Y-72127871D01*
X151318655Y-72122115D01*
X151314410Y-72116141D01*
X151310450Y-72109959D01*
X151306784Y-72103577D01*
X151303422Y-72097004D01*
X151300374Y-72090252D01*
X151297649Y-72083328D01*
X151295257Y-72076244D01*
X151293206Y-72069007D01*
X151291507Y-72061628D01*
X151290169Y-72054116D01*
X151289201Y-72046480D01*
X151288614Y-72038731D01*
X151288416Y-72030877D01*
X151288614Y-72023023D01*
X151289201Y-72015274D01*
X151290169Y-72007638D01*
X151291507Y-72000126D01*
X151293206Y-71992747D01*
X151295257Y-71985510D01*
X151297649Y-71978425D01*
X151300374Y-71971502D01*
X151303422Y-71964749D01*
X151306784Y-71958177D01*
X151310450Y-71951795D01*
X151314410Y-71945612D01*
X151318655Y-71939639D01*
X151323175Y-71933883D01*
X151327962Y-71928356D01*
X151333005Y-71923066D01*
X151338295Y-71918023D01*
X151343822Y-71913236D01*
X151349578Y-71908716D01*
X151355551Y-71904471D01*
X151361734Y-71900511D01*
X151368116Y-71896845D01*
X151374688Y-71893483D01*
X151381441Y-71890435D01*
X151388364Y-71887710D01*
X151395449Y-71885318D01*
X151402686Y-71883267D01*
X151410065Y-71881568D01*
X151417577Y-71880230D01*
X151425213Y-71879262D01*
X151432962Y-71878675D01*
X151440816Y-71878477D01*
X152964816Y-71878477D01*
X152972670Y-71878675D01*
G37*
G36*
X165938164Y-102851258D02*
G01*
X165938046Y-102851050D01*
X165937940Y-102850837D01*
X165938164Y-102851258D01*
G37*
G36*
X135045704Y-102422138D02*
G01*
X135095932Y-102426511D01*
X135146251Y-102433453D01*
X135196583Y-102443001D01*
X135246845Y-102455201D01*
X135296959Y-102470092D01*
X135296293Y-102470432D01*
X135316902Y-102477346D01*
X135327099Y-102480940D01*
X135337231Y-102484638D01*
X135347302Y-102488445D01*
X135357314Y-102492371D01*
X135367272Y-102496423D01*
X135377180Y-102500609D01*
X135380351Y-102502025D01*
X135383442Y-102503559D01*
X135386450Y-102505207D01*
X135389374Y-102506966D01*
X135392210Y-102508831D01*
X135394959Y-102510801D01*
X135397616Y-102512871D01*
X135400181Y-102515037D01*
X135402652Y-102517297D01*
X135405025Y-102519646D01*
X135407301Y-102522081D01*
X135409476Y-102524599D01*
X135411547Y-102527196D01*
X135413514Y-102529868D01*
X135415374Y-102532613D01*
X135417125Y-102535426D01*
X135418766Y-102538304D01*
X135420294Y-102541244D01*
X135421707Y-102544243D01*
X135423003Y-102547295D01*
X135424180Y-102550398D01*
X135425237Y-102553549D01*
X135426171Y-102556744D01*
X135426978Y-102559980D01*
X135427660Y-102563252D01*
X135428213Y-102566558D01*
X135428635Y-102569894D01*
X135428923Y-102573256D01*
X135429077Y-102576642D01*
X135429094Y-102580047D01*
X135428971Y-102583467D01*
X135428708Y-102586901D01*
X135428304Y-102590320D01*
X135427767Y-102593697D01*
X135427096Y-102597030D01*
X135426296Y-102600317D01*
X135425368Y-102603554D01*
X135424316Y-102606737D01*
X135423142Y-102609866D01*
X135421848Y-102612935D01*
X135420437Y-102615943D01*
X135418912Y-102618886D01*
X135417275Y-102621762D01*
X135415530Y-102624567D01*
X135413677Y-102627299D01*
X135411721Y-102629955D01*
X135409663Y-102632532D01*
X135407507Y-102635026D01*
X135405254Y-102637435D01*
X135402907Y-102639757D01*
X135400469Y-102641987D01*
X135397943Y-102644124D01*
X135395331Y-102646163D01*
X135392636Y-102648103D01*
X135389860Y-102649941D01*
X135387005Y-102651672D01*
X135384075Y-102653296D01*
X135381073Y-102654807D01*
X135378000Y-102656205D01*
X135374858Y-102657486D01*
X135371652Y-102658646D01*
X135368382Y-102659682D01*
X135365053Y-102660593D01*
X135361667Y-102661375D01*
X135312485Y-102673137D01*
X135264288Y-102688039D01*
X135217227Y-102706003D01*
X135171457Y-102726953D01*
X135127129Y-102750809D01*
X135084394Y-102777494D01*
X135043406Y-102806932D01*
X135004318Y-102839044D01*
X134967280Y-102873751D01*
X134932446Y-102910979D01*
X134899968Y-102950647D01*
X134870000Y-102992679D01*
X134842692Y-103036997D01*
X134818196Y-103083524D01*
X134796667Y-103132180D01*
X134778255Y-103182891D01*
X134766872Y-103221184D01*
X134757537Y-103259589D01*
X134750217Y-103298046D01*
X134744884Y-103336491D01*
X134741503Y-103374866D01*
X134740046Y-103413106D01*
X134740479Y-103451153D01*
X134742772Y-103488943D01*
X134746894Y-103526417D01*
X134752813Y-103563511D01*
X134760498Y-103600167D01*
X134769916Y-103636321D01*
X134781038Y-103671913D01*
X134793833Y-103706881D01*
X134808267Y-103741165D01*
X134824312Y-103774701D01*
X134841933Y-103807431D01*
X134861101Y-103839290D01*
X134881785Y-103870220D01*
X134903952Y-103900159D01*
X134927573Y-103929044D01*
X134952614Y-103956815D01*
X134979046Y-103983410D01*
X135006836Y-104008768D01*
X135035954Y-104032829D01*
X135066367Y-104055529D01*
X135098045Y-104076810D01*
X135130957Y-104096607D01*
X135165070Y-104114861D01*
X135200354Y-104131510D01*
X135236777Y-104146493D01*
X135274309Y-104159749D01*
X135290552Y-104164820D01*
X135306814Y-104169493D01*
X135323084Y-104173778D01*
X135339354Y-104177683D01*
X135355612Y-104181221D01*
X135371850Y-104184400D01*
X135388058Y-104187230D01*
X135404227Y-104189720D01*
X135407644Y-104190282D01*
X135411012Y-104190977D01*
X135414330Y-104191805D01*
X135417595Y-104192764D01*
X135420803Y-104193850D01*
X135423952Y-104195059D01*
X135427040Y-104196389D01*
X135430062Y-104197837D01*
X135433017Y-104199400D01*
X135435901Y-104201075D01*
X135438713Y-104202858D01*
X135441449Y-104204749D01*
X135444106Y-104206743D01*
X135446681Y-104208836D01*
X135449172Y-104211027D01*
X135451576Y-104213312D01*
X135453889Y-104215689D01*
X135456110Y-104218154D01*
X135458236Y-104220704D01*
X135460262Y-104223338D01*
X135462188Y-104226051D01*
X135464010Y-104228839D01*
X135465724Y-104231702D01*
X135467329Y-104234635D01*
X135468821Y-104237637D01*
X135470199Y-104240703D01*
X135471458Y-104243831D01*
X135472596Y-104247019D01*
X135473610Y-104250262D01*
X135474498Y-104253558D01*
X135475257Y-104256904D01*
X135475883Y-104260298D01*
X135476370Y-104263711D01*
X135476713Y-104267121D01*
X135476913Y-104270520D01*
X135476973Y-104273909D01*
X135476894Y-104277279D01*
X135476680Y-104280632D01*
X135476331Y-104283960D01*
X135475850Y-104287263D01*
X135475238Y-104290535D01*
X135474498Y-104293774D01*
X135472641Y-104300136D01*
X135470293Y-104306321D01*
X135467471Y-104312299D01*
X135464191Y-104318045D01*
X135460468Y-104323529D01*
X135456317Y-104328721D01*
X135451754Y-104333596D01*
X135446795Y-104338123D01*
X135444174Y-104340248D01*
X135441457Y-104342275D01*
X135438651Y-104344201D01*
X135435755Y-104346023D01*
X135432771Y-104347737D01*
X135429703Y-104349339D01*
X135386335Y-104369547D01*
X135342053Y-104387700D01*
X135296933Y-104403760D01*
X135251052Y-104417689D01*
X135204483Y-104429449D01*
X135157302Y-104439001D01*
X135109584Y-104446306D01*
X135061405Y-104451327D01*
X135012839Y-104454025D01*
X134963963Y-104454362D01*
X134914850Y-104452299D01*
X134865577Y-104447799D01*
X134816219Y-104440822D01*
X134766850Y-104431330D01*
X134717546Y-104419287D01*
X134668383Y-104404652D01*
X134619087Y-104387242D01*
X134571253Y-104367568D01*
X134524921Y-104345710D01*
X134480132Y-104321748D01*
X134436926Y-104295762D01*
X134395344Y-104267835D01*
X134355427Y-104238045D01*
X134317214Y-104206473D01*
X134280748Y-104173201D01*
X134246068Y-104138307D01*
X134213215Y-104101875D01*
X134182230Y-104063983D01*
X134153155Y-104024712D01*
X134126027Y-103984143D01*
X134100890Y-103942356D01*
X134077783Y-103899432D01*
X134056747Y-103855452D01*
X134037824Y-103810496D01*
X134021053Y-103764643D01*
X134006475Y-103717977D01*
X133994130Y-103670576D01*
X133984060Y-103622521D01*
X133976306Y-103573893D01*
X133970908Y-103524772D01*
X133967905Y-103475240D01*
X133967339Y-103425375D01*
X133969252Y-103375260D01*
X133973682Y-103324974D01*
X133980672Y-103274599D01*
X133990263Y-103224213D01*
X134002493Y-103173900D01*
X134017404Y-103123738D01*
X134034825Y-103074391D01*
X134054504Y-103026498D01*
X134076361Y-102980098D01*
X134100316Y-102935235D01*
X134126290Y-102891949D01*
X134154199Y-102850280D01*
X134183966Y-102810271D01*
X134215510Y-102771964D01*
X134248750Y-102735397D01*
X134283606Y-102700614D01*
X134319999Y-102667656D01*
X134357847Y-102636563D01*
X134397071Y-102607378D01*
X134437591Y-102580141D01*
X134479324Y-102554894D01*
X134522194Y-102531678D01*
X134566117Y-102510533D01*
X134611016Y-102491502D01*
X134656808Y-102474627D01*
X134703413Y-102459946D01*
X134750754Y-102447503D01*
X134798747Y-102437338D01*
X134847313Y-102429494D01*
X134896371Y-102424010D01*
X134945844Y-102420929D01*
X134995647Y-102420291D01*
X135045704Y-102422138D01*
G37*
D11*
G36*
X139403852Y-52751004D02*
G01*
X139353535Y-52747345D01*
X139333021Y-52743921D01*
X139283916Y-52731516D01*
X139262435Y-52723893D01*
X139217670Y-52702186D01*
X139202351Y-52692386D01*
X139167650Y-52657391D01*
X139164494Y-52651842D01*
X139155457Y-52626196D01*
X139159364Y-52602993D01*
X139176461Y-52580279D01*
X139204061Y-52564647D01*
X139239476Y-52582721D01*
X139275624Y-52604703D01*
X139319099Y-52625952D01*
X139365261Y-52641339D01*
X139410690Y-52646957D01*
X139462082Y-52642375D01*
X139509022Y-52625920D01*
X139514005Y-52623021D01*
X139547588Y-52586232D01*
X139553084Y-52557564D01*
X139543314Y-52517752D01*
X139517180Y-52488932D01*
X139479078Y-52468415D01*
X139432184Y-52452295D01*
X139383698Y-52438585D01*
X139380404Y-52437641D01*
X139331673Y-52423451D01*
X139306399Y-52414926D01*
X139261684Y-52394780D01*
X139240697Y-52381709D01*
X139204496Y-52346764D01*
X139193558Y-52329930D01*
X139177836Y-52281318D01*
X139175729Y-52250062D01*
X139182061Y-52199215D01*
X139202776Y-52153023D01*
X139204549Y-52150411D01*
X139239598Y-52113347D01*
X139283326Y-52087140D01*
X139286615Y-52085687D01*
X139336898Y-52069825D01*
X139385876Y-52063300D01*
X139412400Y-52062484D01*
X139462542Y-52065850D01*
X139469309Y-52066880D01*
X139517780Y-52078987D01*
X139520844Y-52080069D01*
X139566332Y-52100314D01*
X139567739Y-52101074D01*
X139608753Y-52128632D01*
X139609993Y-52129651D01*
X139637103Y-52166531D01*
X139622449Y-52207076D01*
X139593872Y-52229057D01*
X139562854Y-52222463D01*
X139521474Y-52195963D01*
X139515226Y-52192665D01*
X139470133Y-52173324D01*
X139463447Y-52171172D01*
X139413789Y-52162698D01*
X139408492Y-52162623D01*
X139358922Y-52169332D01*
X139346699Y-52173614D01*
X139306814Y-52201922D01*
X139304933Y-52204389D01*
X139290523Y-52250551D01*
X139302002Y-52286699D01*
X139332777Y-52310635D01*
X139377473Y-52327976D01*
X139424837Y-52340799D01*
X139431939Y-52342630D01*
X139480689Y-52355351D01*
X139514738Y-52365345D01*
X139562245Y-52383903D01*
X139591674Y-52400272D01*
X139630085Y-52433073D01*
X139648094Y-52458157D01*
X139665671Y-52505504D01*
X139669832Y-52551946D01*
X139664075Y-52600905D01*
X139644173Y-52648008D01*
X139610055Y-52687430D01*
X139597048Y-52697759D01*
X139552339Y-52723498D01*
X139500096Y-52740813D01*
X139447332Y-52749132D01*
X139403852Y-52751004D01*
G37*
G36*
X140436755Y-52074452D02*
G01*
X140452875Y-52098632D01*
X140457027Y-52136734D01*
X140457027Y-52676755D01*
X140452875Y-52712414D01*
X140436266Y-52735129D01*
X140396943Y-52742944D01*
X140352491Y-52730244D01*
X140337103Y-52691165D01*
X140341988Y-52620823D01*
X140311011Y-52659809D01*
X140298757Y-52672114D01*
X140259714Y-52702099D01*
X140221332Y-52722428D01*
X140172052Y-52737855D01*
X140122223Y-52743586D01*
X140105561Y-52743921D01*
X140056457Y-52740178D01*
X140006129Y-52727672D01*
X139980265Y-52717299D01*
X139935530Y-52692282D01*
X139895391Y-52660493D01*
X139878415Y-52643538D01*
X139845799Y-52602859D01*
X139819390Y-52557424D01*
X139809295Y-52534849D01*
X139794113Y-52487199D01*
X139785939Y-52436939D01*
X139784600Y-52406866D01*
X139905526Y-52406866D01*
X139910856Y-52458979D01*
X139926844Y-52506323D01*
X139933370Y-52518974D01*
X139964304Y-52560894D01*
X140004897Y-52593692D01*
X140011039Y-52597376D01*
X140057702Y-52616910D01*
X140106139Y-52625254D01*
X140126078Y-52625952D01*
X140177122Y-52619566D01*
X140223551Y-52600407D01*
X140229392Y-52596887D01*
X140268712Y-52564902D01*
X140299660Y-52523901D01*
X140303154Y-52517752D01*
X140322021Y-52471537D01*
X140330322Y-52420086D01*
X140330753Y-52404424D01*
X140326037Y-52353069D01*
X140310409Y-52304076D01*
X140302177Y-52288164D01*
X140271308Y-52246229D01*
X140232281Y-52213847D01*
X140226461Y-52210251D01*
X140180405Y-52189915D01*
X140130162Y-52182029D01*
X140123147Y-52181919D01*
X140073178Y-52186836D01*
X140025227Y-52203132D01*
X140009574Y-52211716D01*
X139970899Y-52241716D01*
X139938487Y-52282574D01*
X139933126Y-52291828D01*
X139914259Y-52338611D01*
X139906200Y-52386992D01*
X139905526Y-52406866D01*
X139784600Y-52406866D01*
X139784382Y-52401981D01*
X139787885Y-52351675D01*
X139798395Y-52303704D01*
X139809295Y-52273021D01*
X139832919Y-52226302D01*
X139862913Y-52184179D01*
X139878904Y-52166287D01*
X139917396Y-52131689D01*
X139960242Y-52103702D01*
X139981486Y-52093014D01*
X140030006Y-52075777D01*
X140081106Y-52067328D01*
X140105561Y-52066392D01*
X140155790Y-52069477D01*
X140204837Y-52080560D01*
X140210341Y-52082512D01*
X140255542Y-52103893D01*
X140285568Y-52125010D01*
X140322205Y-52160063D01*
X140341256Y-52183384D01*
X140337348Y-52123545D01*
X140351270Y-52080069D01*
X140398164Y-52066147D01*
X140436755Y-52074452D01*
G37*
G36*
X140979856Y-52062414D02*
G01*
X141029582Y-52073194D01*
X141076370Y-52091162D01*
X141101095Y-52104249D01*
X141142410Y-52132411D01*
X141178701Y-52165790D01*
X141209970Y-52204385D01*
X141225170Y-52228080D01*
X141247485Y-52273628D01*
X141262497Y-52322345D01*
X141270205Y-52374230D01*
X141271332Y-52404424D01*
X141268042Y-52455591D01*
X141258172Y-52503642D01*
X141243489Y-52544619D01*
X141219789Y-52589728D01*
X141190457Y-52630165D01*
X141167773Y-52654528D01*
X141130095Y-52686414D01*
X141088501Y-52712460D01*
X141058597Y-52726580D01*
X141011794Y-52742059D01*
X140963342Y-52750394D01*
X140930125Y-52751981D01*
X140879475Y-52748272D01*
X140830474Y-52737144D01*
X140798722Y-52725603D01*
X140753717Y-52702969D01*
X140712489Y-52674633D01*
X140687103Y-52652575D01*
X140653352Y-52615137D01*
X140625371Y-52573165D01*
X140609923Y-52542665D01*
X140592807Y-52493779D01*
X140583590Y-52442007D01*
X140581835Y-52405889D01*
X140581992Y-52403447D01*
X140704689Y-52403447D01*
X140709728Y-52455440D01*
X140724844Y-52502274D01*
X140735219Y-52522149D01*
X140765934Y-52562774D01*
X140804222Y-52594891D01*
X140816552Y-52602505D01*
X140862734Y-52622206D01*
X140912376Y-52630875D01*
X140927194Y-52631325D01*
X140977063Y-52625715D01*
X141023659Y-52608886D01*
X141036371Y-52602016D01*
X141076823Y-52571903D01*
X141109701Y-52533281D01*
X141117704Y-52520683D01*
X141137629Y-52475996D01*
X141147396Y-52426471D01*
X141148478Y-52401981D01*
X141143722Y-52351297D01*
X141127960Y-52302303D01*
X141119658Y-52286210D01*
X141090326Y-52246440D01*
X141052766Y-52215178D01*
X141040523Y-52207808D01*
X140993833Y-52188441D01*
X140941814Y-52179919D01*
X140925973Y-52179476D01*
X140873814Y-52185133D01*
X140826330Y-52202103D01*
X140813621Y-52209030D01*
X140773904Y-52238742D01*
X140741947Y-52276589D01*
X140734242Y-52288897D01*
X140714040Y-52335707D01*
X140705151Y-52387659D01*
X140704689Y-52403447D01*
X140581992Y-52403447D01*
X140584981Y-52357062D01*
X140595588Y-52306561D01*
X140608457Y-52270579D01*
X140631561Y-52225745D01*
X140660573Y-52185033D01*
X140683196Y-52160181D01*
X140721275Y-52127265D01*
X140763338Y-52100326D01*
X140793593Y-52085687D01*
X140841576Y-52069315D01*
X140892100Y-52060499D01*
X140927194Y-52058820D01*
X140979856Y-52062414D01*
G37*
G36*
X161048206Y-126495782D02*
G01*
X161060345Y-126510999D01*
X161063593Y-126534422D01*
X161063593Y-127138630D01*
X161060687Y-127162394D01*
X161048890Y-127178124D01*
X161020851Y-127183766D01*
X160989563Y-127175559D01*
X160978279Y-127149401D01*
X160978279Y-127106039D01*
X160970415Y-127115891D01*
X160944053Y-127141266D01*
X160913436Y-127161144D01*
X160903907Y-127165814D01*
X160870822Y-127177216D01*
X160834633Y-127182805D01*
X160816884Y-127183424D01*
X160781168Y-127180546D01*
X160747088Y-127171911D01*
X160731912Y-127165985D01*
X160701153Y-127149278D01*
X160673611Y-127127775D01*
X160661985Y-127116233D01*
X160639763Y-127088170D01*
X160621717Y-127056213D01*
X160614797Y-127040151D01*
X160604379Y-127005962D01*
X160598769Y-126969562D01*
X160597815Y-126946801D01*
X160682843Y-126946801D01*
X160686032Y-126981725D01*
X160696597Y-127015422D01*
X160702163Y-127026473D01*
X160723393Y-127055620D01*
X160750859Y-127078305D01*
X160754993Y-127080842D01*
X160788109Y-127094954D01*
X160824305Y-127100427D01*
X160829364Y-127100503D01*
X160863866Y-127096740D01*
X160897055Y-127084356D01*
X160903224Y-127080842D01*
X160930908Y-127059018D01*
X160952731Y-127030733D01*
X160955198Y-127026473D01*
X160968405Y-126994225D01*
X160974216Y-126957920D01*
X160974518Y-126946801D01*
X160971330Y-126911296D01*
X160960764Y-126877225D01*
X160955198Y-126866103D01*
X160934204Y-126836749D01*
X160907123Y-126814081D01*
X160903053Y-126811564D01*
X160870437Y-126797329D01*
X160836675Y-126791906D01*
X160829023Y-126791732D01*
X160794676Y-126795495D01*
X160760998Y-126807879D01*
X160754651Y-126811393D01*
X160726476Y-126833084D01*
X160704462Y-126861612D01*
X160701992Y-126865933D01*
X160688902Y-126898578D01*
X160683311Y-126932700D01*
X160682843Y-126946801D01*
X160597815Y-126946801D01*
X160597700Y-126944066D01*
X160600104Y-126907192D01*
X160607317Y-126872483D01*
X160614797Y-126850545D01*
X160630944Y-126817401D01*
X160651323Y-126787982D01*
X160662156Y-126775660D01*
X160688324Y-126752054D01*
X160717652Y-126733188D01*
X160732254Y-126726079D01*
X160765521Y-126714677D01*
X160800312Y-126709088D01*
X160816884Y-126708469D01*
X160851385Y-126710946D01*
X160885885Y-126719217D01*
X160903224Y-126726079D01*
X160935055Y-126744152D01*
X160962633Y-126767855D01*
X160969731Y-126775660D01*
X160978279Y-126787344D01*
X160978279Y-126535448D01*
X160980673Y-126511341D01*
X160992299Y-126495953D01*
X161019825Y-126490311D01*
X161048206Y-126495782D01*
G37*
G36*
X161441552Y-126709754D02*
G01*
X161476521Y-126716902D01*
X161493925Y-126722831D01*
X161525658Y-126738076D01*
X161554720Y-126758695D01*
X161559919Y-126763351D01*
X161584069Y-126790065D01*
X161601807Y-126819942D01*
X161613280Y-126853281D01*
X161616510Y-126882859D01*
X161612645Y-126918540D01*
X161595924Y-126950468D01*
X161593087Y-126953127D01*
X161561415Y-126969972D01*
X161535300Y-126973302D01*
X161251660Y-126973302D01*
X161255891Y-127008527D01*
X161270810Y-127041113D01*
X161275083Y-127046990D01*
X161300426Y-127072638D01*
X161331253Y-127092200D01*
X161335778Y-127094348D01*
X161368105Y-127105685D01*
X161403105Y-127110787D01*
X161410150Y-127110933D01*
X161445045Y-127109519D01*
X161456824Y-127108197D01*
X161490286Y-127100640D01*
X161491189Y-127100332D01*
X161516322Y-127090245D01*
X161535642Y-127080671D01*
X161552226Y-127073661D01*
X161568810Y-127075542D01*
X161582487Y-127088364D01*
X161590010Y-127103581D01*
X161592233Y-127118113D01*
X161571346Y-127146333D01*
X161568468Y-127148375D01*
X161536299Y-127165241D01*
X161503499Y-127176414D01*
X161467935Y-127184052D01*
X161431651Y-127187646D01*
X161408953Y-127188211D01*
X161373430Y-127186341D01*
X161337208Y-127179964D01*
X161303977Y-127169062D01*
X161271375Y-127152529D01*
X161242813Y-127131908D01*
X161226015Y-127115891D01*
X161204360Y-127088931D01*
X161186841Y-127059086D01*
X161177459Y-127037586D01*
X161167145Y-127003334D01*
X161161591Y-126967254D01*
X161160533Y-126942185D01*
X161162368Y-126915001D01*
X161251660Y-126915001D01*
X161498199Y-126915001D01*
X161525896Y-126910214D01*
X161535642Y-126884055D01*
X161528352Y-126850287D01*
X161518715Y-126834303D01*
X161492883Y-126809633D01*
X161472896Y-126798228D01*
X161439783Y-126787556D01*
X161406559Y-126784551D01*
X161370501Y-126787823D01*
X161337127Y-126797641D01*
X161328084Y-126801648D01*
X161298013Y-126820419D01*
X161273142Y-126846486D01*
X161271835Y-126848323D01*
X161256448Y-126879781D01*
X161251660Y-126915001D01*
X161162368Y-126915001D01*
X161163008Y-126905526D01*
X161170433Y-126871139D01*
X161182807Y-126839024D01*
X161191821Y-126822164D01*
X161211423Y-126794109D01*
X161237676Y-126767061D01*
X161265330Y-126746430D01*
X161278845Y-126738389D01*
X161311385Y-126723513D01*
X161346495Y-126713505D01*
X161384174Y-126708366D01*
X161406217Y-126707614D01*
X161441552Y-126709754D01*
G37*
G36*
X161779787Y-126496637D02*
G01*
X161791584Y-126512025D01*
X161794319Y-126535448D01*
X161794319Y-126786315D01*
X161802868Y-126775660D01*
X161829197Y-126750350D01*
X161859715Y-126730669D01*
X161869204Y-126726079D01*
X161902205Y-126714677D01*
X161938140Y-126709088D01*
X161955715Y-126708469D01*
X161991567Y-126711375D01*
X162025501Y-126720094D01*
X162040516Y-126726079D01*
X162071164Y-126742757D01*
X162098651Y-126764176D01*
X162110272Y-126775660D01*
X162132687Y-126803361D01*
X162150756Y-126834785D01*
X162157630Y-126850545D01*
X162168049Y-126883812D01*
X162173659Y-126919243D01*
X162174727Y-126944066D01*
X162172707Y-126978869D01*
X162165895Y-127014717D01*
X162157630Y-127040151D01*
X162142980Y-127071446D01*
X162122986Y-127101606D01*
X162110443Y-127116233D01*
X162084442Y-127139950D01*
X162055338Y-127158870D01*
X162040858Y-127165985D01*
X162007753Y-127177276D01*
X161972617Y-127182811D01*
X161955715Y-127183424D01*
X161920957Y-127180947D01*
X161886179Y-127172676D01*
X161868691Y-127165814D01*
X161838881Y-127148997D01*
X161810944Y-127125585D01*
X161802013Y-127115891D01*
X161794319Y-127105296D01*
X161794319Y-127149401D01*
X161783377Y-127176243D01*
X161752431Y-127184450D01*
X161724563Y-127178979D01*
X161712083Y-127163591D01*
X161709005Y-127140168D01*
X161709005Y-126946801D01*
X161797909Y-126946801D01*
X161801098Y-126981725D01*
X161811663Y-127015422D01*
X161817229Y-127026473D01*
X161838432Y-127055620D01*
X161865495Y-127078305D01*
X161869546Y-127080842D01*
X161902171Y-127094954D01*
X161938178Y-127100427D01*
X161943234Y-127100503D01*
X161978067Y-127096740D01*
X162011684Y-127084356D01*
X162017948Y-127080842D01*
X162045877Y-127059018D01*
X162067796Y-127030733D01*
X162070265Y-127026473D01*
X162083588Y-126994225D01*
X162089451Y-126957920D01*
X162089755Y-126946801D01*
X162086567Y-126911268D01*
X162076001Y-126877103D01*
X162070436Y-126865933D01*
X162049403Y-126836493D01*
X162022210Y-126813890D01*
X162018119Y-126811393D01*
X161985268Y-126797281D01*
X161951150Y-126791904D01*
X161943405Y-126791732D01*
X161909123Y-126795528D01*
X161875662Y-126808020D01*
X161869375Y-126811564D01*
X161841445Y-126833340D01*
X161819526Y-126861803D01*
X161817058Y-126866103D01*
X161803968Y-126898632D01*
X161798377Y-126932705D01*
X161797909Y-126946801D01*
X161709005Y-126946801D01*
X161709005Y-126535960D01*
X161711741Y-126511683D01*
X161724050Y-126496637D01*
X161751919Y-126491166D01*
X161779787Y-126496637D01*
G37*
G36*
X162472386Y-127184279D02*
G01*
X162435781Y-127181333D01*
X162401663Y-127172498D01*
X162392372Y-127168891D01*
X162362092Y-127152908D01*
X162333499Y-127130190D01*
X162328258Y-127124952D01*
X162306646Y-127097627D01*
X162289681Y-127065917D01*
X162285687Y-127056051D01*
X162275835Y-127021546D01*
X162271199Y-126986640D01*
X162270471Y-126964924D01*
X162270471Y-126752237D01*
X162273206Y-126728815D01*
X162285516Y-126713769D01*
X162313384Y-126708640D01*
X162341936Y-126714282D01*
X162354075Y-126729669D01*
X162356981Y-126753263D01*
X162356981Y-126965608D01*
X162360024Y-127001822D01*
X162369978Y-127035482D01*
X162370830Y-127037415D01*
X162390737Y-127067517D01*
X162412205Y-127084945D01*
X162445300Y-127098019D01*
X162480593Y-127101700D01*
X162516789Y-127097981D01*
X162549685Y-127085815D01*
X162551545Y-127084774D01*
X162579208Y-127062882D01*
X162597365Y-127037073D01*
X162609547Y-127003820D01*
X162613591Y-126968142D01*
X162613607Y-126965608D01*
X162613607Y-126752066D01*
X162616343Y-126728644D01*
X162628653Y-126713769D01*
X162657205Y-126708640D01*
X162684731Y-126714282D01*
X162696357Y-126729669D01*
X162699263Y-126753092D01*
X162699263Y-127142391D01*
X162696357Y-127163762D01*
X162684560Y-127177953D01*
X162656350Y-127182911D01*
X162634979Y-127180004D01*
X162622498Y-127172140D01*
X162616856Y-127160514D01*
X162615488Y-127147007D01*
X162619591Y-127104778D01*
X162596339Y-127131107D01*
X162570094Y-127153214D01*
X162564539Y-127157094D01*
X162533300Y-127173244D01*
X162523506Y-127176756D01*
X162489500Y-127183544D01*
X162472386Y-127184279D01*
G37*
G36*
X163228244Y-126712743D02*
G01*
X163239357Y-126727276D01*
X163242093Y-126750015D01*
X163242093Y-127156069D01*
X163240093Y-127190448D01*
X163233349Y-127224865D01*
X163225167Y-127248563D01*
X163209185Y-127279565D01*
X163186989Y-127308344D01*
X163177808Y-127317464D01*
X163149268Y-127339680D01*
X163116604Y-127356659D01*
X163106514Y-127360549D01*
X163071987Y-127370069D01*
X163037763Y-127374549D01*
X163016755Y-127375252D01*
X162980625Y-127373033D01*
X162950589Y-127367388D01*
X162916373Y-127356443D01*
X162895879Y-127346871D01*
X162867016Y-127327713D01*
X162858607Y-127319687D01*
X162845272Y-127292674D01*
X162848178Y-127276260D01*
X162857069Y-127263096D01*
X162872285Y-127249076D01*
X162887843Y-127245144D01*
X162907163Y-127253521D01*
X162931270Y-127272328D01*
X162961638Y-127289177D01*
X162966831Y-127291306D01*
X163000911Y-127298865D01*
X163019661Y-127299683D01*
X163055051Y-127296127D01*
X163076765Y-127289596D01*
X163107332Y-127272160D01*
X163120875Y-127259676D01*
X163141580Y-127230410D01*
X163149427Y-127212318D01*
X163157445Y-127178778D01*
X163159344Y-127149401D01*
X163159152Y-127098737D01*
X163140689Y-127122045D01*
X163114036Y-127144443D01*
X163083259Y-127160698D01*
X163048522Y-127170206D01*
X163013506Y-127172995D01*
X162978965Y-127170614D01*
X162944041Y-127162664D01*
X162926311Y-127156069D01*
X162895748Y-127139835D01*
X162868515Y-127118918D01*
X162857069Y-127107684D01*
X162835320Y-127080375D01*
X162817860Y-127049566D01*
X162811249Y-127034167D01*
X162801351Y-127001365D01*
X162796022Y-126966303D01*
X162795006Y-126941672D01*
X162795070Y-126940646D01*
X162879124Y-126940646D01*
X162882058Y-126975292D01*
X162891782Y-127008690D01*
X162896905Y-127019635D01*
X162916627Y-127048300D01*
X162944041Y-127071755D01*
X162945973Y-127072977D01*
X162977371Y-127086844D01*
X163012902Y-127092221D01*
X163017951Y-127092297D01*
X163053542Y-127088052D01*
X163085301Y-127075317D01*
X163089246Y-127072977D01*
X163117328Y-127049896D01*
X163137832Y-127021426D01*
X163138998Y-127019293D01*
X163151737Y-126987110D01*
X163157343Y-126951001D01*
X163157634Y-126939963D01*
X163154558Y-126905512D01*
X163144367Y-126872451D01*
X163138998Y-126861658D01*
X163118757Y-126833351D01*
X163090707Y-126810360D01*
X163088733Y-126809170D01*
X163057079Y-126795549D01*
X163021744Y-126790267D01*
X163016755Y-126790193D01*
X162980711Y-126794363D01*
X162948874Y-126806872D01*
X162944947Y-126809170D01*
X162917250Y-126831867D01*
X162897495Y-126859899D01*
X162896392Y-126862000D01*
X162883997Y-126896056D01*
X162879275Y-126932315D01*
X162879124Y-126940646D01*
X162795070Y-126940646D01*
X162797291Y-126905023D01*
X162804143Y-126870730D01*
X162811249Y-126849177D01*
X162826701Y-126816811D01*
X162846385Y-126788056D01*
X162856898Y-126776002D01*
X162882373Y-126752923D01*
X162911291Y-126734528D01*
X162925799Y-126727618D01*
X162959183Y-126716437D01*
X162994882Y-126710957D01*
X163012138Y-126710350D01*
X163046289Y-126713087D01*
X163079912Y-126722156D01*
X163091127Y-126726934D01*
X163121939Y-126745637D01*
X163148017Y-126770651D01*
X163151137Y-126774464D01*
X163157966Y-126784771D01*
X163157805Y-126741979D01*
X163169089Y-126715308D01*
X163201744Y-126707614D01*
X163228244Y-126712743D01*
G37*
D12*
%TO.C,J9*%
X136270000Y-55100000D02*
X136840000Y-55100000D01*
X143440000Y-49900000D02*
X144010000Y-49900000D01*
X144010000Y-50500000D02*
X144010000Y-49900000D01*
D13*
X136435710Y-50000000D02*
G75*
G02*
X136244290Y-50000000I-95710J0D01*
G01*
X136244290Y-50000000D02*
G75*
G02*
X136435710Y-50000000I95710J0D01*
G01*
%TD*%
M02*
