%TF.GenerationSoftware,KiCad,Pcbnew,9.0.2*%
%TF.CreationDate,2025-05-11T21:09:18+01:00*%
%TF.ProjectId,mariposa,6d617269-706f-4736-912e-6b696361645f,2.0*%
%TF.SameCoordinates,Original*%
%TF.FileFunction,Drillmap*%
%TF.FilePolarity,Positive*%
%FSLAX45Y45*%
G04 Gerber Fmt 4.5, Leading zero omitted, Abs format (unit mm)*
G04 Created by KiCad (PCBNEW 9.0.2) date 2025-05-11 21:09:18*
%MOMM*%
%LPD*%
G01*
G04 APERTURE LIST*
%ADD10C,0.050000*%
%ADD11C,0.200000*%
%ADD12C,0.100000*%
%ADD13C,0.320000*%
G04 APERTURE END LIST*
D10*
X13364389Y-6022961D02*
X13392920Y-6019205D01*
X15666230Y-5973760D02*
X15631596Y-5999735D01*
X13350000Y-8558890D02*
X13350000Y-8158059D01*
X16150000Y-8560640D02*
X16150000Y-8157130D01*
X15984595Y-5948488D02*
X15967077Y-5925658D01*
X13134227Y-5760512D02*
X13130471Y-5789043D01*
X13167077Y-5925658D02*
X13184595Y-5948488D01*
X16107080Y-5587659D02*
X16135611Y-5583903D01*
X15984595Y-5658376D02*
X16004944Y-5638027D01*
X16027774Y-5620509D02*
X16052696Y-5606120D01*
X16164389Y-5583903D02*
X16192920Y-5587659D01*
X15600000Y-6063430D02*
X15600000Y-6069766D01*
X16315405Y-5948488D02*
X16295056Y-5968837D01*
X13472225Y-5986355D02*
X13495056Y-5968837D01*
X13495056Y-5638027D02*
X13472225Y-5620509D01*
X16370000Y-6218853D02*
G75*
G02*
X16549997Y-6398850I0J-179997D01*
G01*
X13833766Y-5973757D02*
X13867991Y-5999425D01*
X16550000Y-10558890D02*
X16550000Y-9257130D01*
X13204944Y-5968837D02*
X13227774Y-5986355D01*
X13055444Y-10813456D02*
G75*
G02*
X12950000Y-10560640I254576J254576D01*
G01*
X13244564Y-11002576D02*
G75*
G02*
X13349999Y-11257130I-254524J-254534D01*
G01*
X15750000Y-6218853D02*
G75*
G02*
X15600000Y-6069766I0J150003D01*
G01*
X16135611Y-6022961D02*
X16107080Y-6019205D01*
X13830197Y-5634129D02*
X13848018Y-5617357D01*
X15250000Y-7738077D02*
G75*
G02*
X15300003Y-7788077I0J-50003D01*
G01*
X16150000Y-12199012D02*
X16150000Y-11257130D01*
X15300000Y-7787514D02*
G75*
G02*
X15250000Y-7837510I-49990J-6D01*
G01*
X16079283Y-6011757D02*
X16052696Y-6000744D01*
X13364389Y-5583903D02*
X13335611Y-5583903D01*
X13279283Y-5595107D02*
X13252696Y-5606120D01*
X13130471Y-5817821D02*
X13134227Y-5846352D01*
X15907551Y-5731864D02*
G75*
G02*
X15669801Y-5634129I8979J359884D01*
G01*
X13307080Y-5587659D02*
X13279283Y-5595107D01*
X16347312Y-5706129D02*
X16358325Y-5732715D01*
X13055434Y-7713446D02*
G75*
G02*
X12950002Y-7458900I254536J254536D01*
G01*
X13184595Y-5658376D02*
X13167077Y-5681207D01*
X16315405Y-5658376D02*
X16332923Y-5681207D01*
X13350000Y-8558890D02*
G75*
G02*
X13244556Y-8813451I-360000J0D01*
G01*
X16192920Y-5587659D02*
X16220717Y-5595107D01*
X13515405Y-5948488D02*
X13532923Y-5925658D01*
X16347312Y-5900736D02*
X16332923Y-5925658D01*
X13420717Y-5595107D02*
X13392920Y-5587659D01*
X13558325Y-5732715D02*
X13547312Y-5706129D01*
X13227774Y-5620509D02*
X13204944Y-5638027D01*
X16247303Y-5606120D02*
X16272225Y-5620509D01*
X13184595Y-5948488D02*
X13204944Y-5968837D01*
X15941675Y-5732715D02*
X15952688Y-5706129D01*
X16004944Y-5968837D02*
X15984595Y-5948488D01*
X16192920Y-6019205D02*
X16164389Y-6022961D01*
X13130000Y-13316153D02*
G75*
G02*
X12950000Y-13135183I0J180003D01*
G01*
X15250000Y-7837514D02*
X14250000Y-7837514D01*
X16369529Y-5817821D02*
X16365773Y-5846352D01*
X16550000Y-13136140D02*
X16550000Y-13017010D01*
X13204944Y-5638027D02*
X13184595Y-5658376D01*
X16079283Y-5595107D02*
X16107080Y-5587659D01*
X15666230Y-5973760D02*
G75*
G02*
X15877196Y-5901795I216010J-288030D01*
G01*
X13335611Y-6022961D02*
X13364389Y-6022961D01*
X15967077Y-5925658D02*
X15952688Y-5900736D01*
X16255444Y-8813456D02*
G75*
G02*
X16150000Y-8560640I254576J254576D01*
G01*
X13532923Y-5681207D02*
X13515405Y-5658376D01*
X16255442Y-7902570D02*
X16444558Y-7713453D01*
X16164389Y-6022961D02*
X16135611Y-6022961D01*
X13392920Y-5587659D02*
X13364389Y-5583903D01*
X14250000Y-7838077D02*
G75*
G02*
X14199993Y-7788077I0J50007D01*
G01*
X13532923Y-5925658D02*
X13547312Y-5900736D01*
X16444559Y-9002571D02*
X16255444Y-8813456D01*
X16370000Y-6218853D02*
X15750000Y-6218853D01*
X16371590Y-13316153D02*
X13130000Y-13316153D01*
X14200000Y-7788077D02*
G75*
G02*
X14250835Y-7738077I50010J-3D01*
G01*
X13392920Y-6019205D02*
X13420717Y-6011757D01*
X13134227Y-5846352D02*
X13141675Y-5874149D01*
X15907551Y-5731864D02*
X15941675Y-5732715D01*
X13350000Y-12199010D02*
X13350000Y-11257130D01*
X14250835Y-7738077D02*
X15250000Y-7738077D01*
X12949538Y-13017010D02*
G75*
G02*
X13010000Y-12817318I360002J0D01*
G01*
X16027774Y-5986355D02*
X16004944Y-5968837D01*
X13420717Y-6011757D02*
X13447303Y-6000744D01*
X13055442Y-9002570D02*
X13244558Y-8813453D01*
X16247303Y-6000744D02*
X16220717Y-6011757D01*
X13848018Y-5617357D02*
G75*
G02*
X13971384Y-5568430I123372J-131083D01*
G01*
X16135611Y-5583903D02*
X16164389Y-5583903D01*
X13130471Y-5789043D02*
X13130471Y-5817821D01*
X16272225Y-5986355D02*
X16247303Y-6000744D01*
X13244564Y-11002576D02*
X13055444Y-10813456D01*
X16550000Y-13136140D02*
G75*
G02*
X16371590Y-13316153I-180020J0D01*
G01*
X16489535Y-12817313D02*
X16210459Y-12398700D01*
X13335611Y-5583903D02*
X13307080Y-5587659D01*
X15967077Y-5681207D02*
X15984595Y-5658376D01*
X16332923Y-5925658D02*
X16315405Y-5948488D01*
X13141675Y-5732715D02*
X13134227Y-5760512D01*
X12950000Y-6398860D02*
X12950000Y-7458900D01*
X13252696Y-6000744D02*
X13279283Y-6011757D01*
X13244559Y-7902571D02*
G75*
G02*
X13350000Y-8158059I-254559J-254559D01*
G01*
X16004944Y-5638027D02*
X16027774Y-5620509D01*
X15952688Y-5706129D02*
X15967077Y-5681207D01*
X13152688Y-5706129D02*
X13141675Y-5732715D01*
X16369529Y-5789043D02*
X16369529Y-5817821D01*
X13167077Y-5681207D02*
X13152688Y-5706129D01*
X13447303Y-5606120D02*
X13420717Y-5595107D01*
X13350000Y-12199010D02*
G75*
G02*
X13289538Y-12398704I-360010J0D01*
G01*
X13547312Y-5900736D02*
X13622807Y-5901792D01*
X13495056Y-5968837D02*
X13515405Y-5948488D01*
X16550000Y-7458900D02*
G75*
G02*
X16444557Y-7713451I-359980J0D01*
G01*
X16272225Y-5620509D02*
X16295056Y-5638027D01*
X16332923Y-5681207D02*
X16347312Y-5706129D01*
X16358325Y-5874149D02*
X16347312Y-5900736D01*
X13867991Y-5999425D02*
G75*
G02*
X13900000Y-6064047I-48001J-64015D01*
G01*
X15528620Y-5568432D02*
G75*
G02*
X15651350Y-5616760I-10J-180028D01*
G01*
X13900000Y-6068840D02*
G75*
G02*
X13748520Y-6218853I-150020J0D01*
G01*
X13252696Y-5606120D02*
X13227774Y-5620509D01*
X16358325Y-5732715D02*
X16365773Y-5760512D01*
X12950000Y-10560640D02*
X12950000Y-9257130D01*
X16365773Y-5846352D02*
X16358325Y-5874149D01*
X16444559Y-9002571D02*
G75*
G02*
X16549999Y-9257130I-254519J-254539D01*
G01*
X13447303Y-6000744D02*
X13472225Y-5986355D01*
X16550000Y-6398850D02*
X16550000Y-7458900D01*
X16550000Y-10558890D02*
G75*
G02*
X16444556Y-10813451I-360000J0D01*
G01*
X16365773Y-5760512D02*
X16369529Y-5789043D01*
X16052696Y-6000744D02*
X16027774Y-5986355D01*
X13900000Y-6064047D02*
X13900000Y-6068840D01*
X13515405Y-5658376D02*
X13495056Y-5638027D01*
X16150000Y-8157130D02*
G75*
G02*
X16255442Y-7902571I360000J0D01*
G01*
X16107080Y-6019205D02*
X16079283Y-6011757D01*
X15669802Y-5634128D02*
X15651349Y-5616761D01*
X12950000Y-6398860D02*
G75*
G02*
X13130000Y-6218860I179990J10D01*
G01*
X13152688Y-5900736D02*
X13167077Y-5925658D01*
X16295056Y-5968837D02*
X16272225Y-5986355D01*
X13592446Y-5731864D02*
X13558325Y-5732715D01*
X12950000Y-9257130D02*
G75*
G02*
X13055442Y-9002571I360000J0D01*
G01*
X13010000Y-12817318D02*
X13289076Y-12398704D01*
X13748520Y-6218853D02*
X13130000Y-6218853D01*
X13622807Y-5901792D02*
G75*
G02*
X13833764Y-5973759I-5047J-359968D01*
G01*
X16295056Y-5638027D02*
X16315405Y-5658376D01*
X13244559Y-7902571D02*
X13055434Y-7713446D01*
X16052696Y-5606120D02*
X16079283Y-5595107D01*
X13141675Y-5874149D02*
X13152688Y-5900736D01*
X15600000Y-6063430D02*
G75*
G02*
X15631599Y-5999738I79990J0D01*
G01*
X16220717Y-6011757D02*
X16192920Y-6019205D01*
X13307080Y-6019205D02*
X13335611Y-6022961D01*
X16489534Y-12817313D02*
G75*
G02*
X16549998Y-13017010I-299545J-199697D01*
G01*
X16150000Y-11257130D02*
G75*
G02*
X16255442Y-11002571I360000J0D01*
G01*
X13547312Y-5706129D02*
X13532923Y-5681207D01*
X16255442Y-11002570D02*
X16444558Y-10813453D01*
X16210459Y-12398700D02*
G75*
G02*
X16150001Y-12199012I299521J199681D01*
G01*
X15952688Y-5900736D02*
X15877196Y-5901792D01*
X12950000Y-13135183D02*
X12950000Y-13017010D01*
X16220717Y-5595107D02*
X16247303Y-5606120D01*
X13830197Y-5634129D02*
G75*
G02*
X13592446Y-5731860I-246727J262159D01*
G01*
X13472225Y-5620509D02*
X13447303Y-5606120D01*
X13279283Y-6011757D02*
X13307080Y-6019205D01*
X13227774Y-5986355D02*
X13252696Y-6000744D01*
X15528620Y-5568432D02*
X13971384Y-5568432D01*
D11*
D12*
X13060000Y-7438432D02*
X13080000Y-7458432D01*
X13080000Y-7438432D02*
X13060000Y-7458432D01*
X13065000Y-9108432D02*
X13085000Y-9128432D01*
X13085000Y-9108432D02*
X13065000Y-9128432D01*
X13140000Y-10753432D02*
X13160000Y-10773432D01*
X13160000Y-10753432D02*
X13140000Y-10773432D01*
X13187000Y-7435432D02*
X13207000Y-7455432D01*
X13207000Y-7435432D02*
X13187000Y-7455432D01*
X13237000Y-7245432D02*
X13257000Y-7265432D01*
X13257000Y-7245432D02*
X13237000Y-7265432D01*
X13237000Y-7435432D02*
X13257000Y-7455432D01*
X13257000Y-7435432D02*
X13237000Y-7455432D01*
X13287000Y-7435432D02*
X13307000Y-7455432D01*
X13307000Y-7435432D02*
X13287000Y-7455432D01*
X13295000Y-5838432D02*
X13315000Y-5858432D01*
X13315000Y-5838432D02*
X13295000Y-5858432D01*
X13295000Y-10798432D02*
X13315000Y-10818432D01*
X13315000Y-10798432D02*
X13295000Y-10818432D01*
X13337000Y-7245432D02*
X13357000Y-7265432D01*
X13357000Y-7245432D02*
X13337000Y-7265432D01*
X13337000Y-7435432D02*
X13357000Y-7455432D01*
X13357000Y-7435432D02*
X13337000Y-7455432D01*
X13340000Y-5913432D02*
X13360000Y-5933432D01*
X13360000Y-5913432D02*
X13340000Y-5933432D01*
X13385000Y-10708432D02*
X13405000Y-10728432D01*
X13405000Y-10708432D02*
X13385000Y-10728432D01*
X13395000Y-12598432D02*
X13415000Y-12618432D01*
X13415000Y-12598432D02*
X13395000Y-12618432D01*
X13462000Y-5810432D02*
X13482000Y-5830432D01*
X13482000Y-5810432D02*
X13462000Y-5830432D01*
X13478000Y-10426932D02*
X13498000Y-10446932D01*
X13498000Y-10426932D02*
X13478000Y-10446932D01*
X13485000Y-12508432D02*
X13505000Y-12528432D01*
X13505000Y-12508432D02*
X13485000Y-12528432D01*
X13510000Y-8773432D02*
X13530000Y-8793432D01*
X13530000Y-8773432D02*
X13510000Y-8793432D01*
X13551000Y-9898432D02*
X13571000Y-9918432D01*
X13571000Y-9898432D02*
X13551000Y-9918432D01*
X13610000Y-6895932D02*
X13630000Y-6915932D01*
X13630000Y-6895932D02*
X13610000Y-6915932D01*
X13620000Y-8663432D02*
X13640000Y-8683432D01*
X13640000Y-8663432D02*
X13620000Y-8683432D01*
X13675000Y-6525932D02*
X13695000Y-6545932D01*
X13695000Y-6525932D02*
X13675000Y-6545932D01*
X13680000Y-7178432D02*
X13700000Y-7198432D01*
X13700000Y-7178432D02*
X13680000Y-7198432D01*
X13680000Y-7333432D02*
X13700000Y-7353432D01*
X13700000Y-7333432D02*
X13680000Y-7353432D01*
X13680000Y-7423432D02*
X13700000Y-7443432D01*
X13700000Y-7423432D02*
X13680000Y-7443432D01*
X13680000Y-13198432D02*
X13700000Y-13218432D01*
X13700000Y-13198432D02*
X13680000Y-13218432D01*
X13700000Y-7633432D02*
X13720000Y-7653432D01*
X13720000Y-7633432D02*
X13700000Y-7653432D01*
X13790000Y-7873432D02*
X13810000Y-7893432D01*
X13810000Y-7873432D02*
X13790000Y-7893432D01*
X13790000Y-8013432D02*
X13810000Y-8033432D01*
X13810000Y-8013432D02*
X13790000Y-8033432D01*
X13790000Y-8153432D02*
X13810000Y-8173432D01*
X13810000Y-8153432D02*
X13790000Y-8173432D01*
X13790000Y-8293432D02*
X13810000Y-8313432D01*
X13810000Y-8293432D02*
X13790000Y-8313432D01*
X13830000Y-5893432D02*
X13850000Y-5913432D01*
X13850000Y-5893432D02*
X13830000Y-5913432D01*
X13830000Y-7178432D02*
X13850000Y-7198432D01*
X13850000Y-7178432D02*
X13830000Y-7198432D01*
X13860000Y-8538432D02*
X13880000Y-8558432D01*
X13880000Y-8538432D02*
X13860000Y-8558432D01*
X13860000Y-8618432D02*
X13880000Y-8638432D01*
X13880000Y-8618432D02*
X13860000Y-8638432D01*
X13860000Y-9873432D02*
X13880000Y-9893432D01*
X13880000Y-9873432D02*
X13860000Y-9893432D01*
X13860000Y-9963432D02*
X13880000Y-9983432D01*
X13880000Y-9963432D02*
X13860000Y-9983432D01*
X13887500Y-8943432D02*
X13907500Y-8963432D01*
X13907500Y-8943432D02*
X13887500Y-8963432D01*
X13900000Y-6835432D02*
X13920000Y-6855432D01*
X13920000Y-6835432D02*
X13900000Y-6855432D01*
X13906000Y-7210432D02*
X13926000Y-7230432D01*
X13926000Y-7210432D02*
X13906000Y-7230432D01*
X14015000Y-6908432D02*
X14035000Y-6928432D01*
X14035000Y-6908432D02*
X14015000Y-6928432D01*
X14102500Y-13028432D02*
X14122500Y-13048432D01*
X14122500Y-13028432D02*
X14102500Y-13048432D01*
X14140000Y-7513432D02*
X14160000Y-7533432D01*
X14160000Y-7513432D02*
X14140000Y-7533432D01*
X14165000Y-10323432D02*
X14185000Y-10343432D01*
X14185000Y-10323432D02*
X14165000Y-10343432D01*
X14190000Y-9353432D02*
X14210000Y-9373432D01*
X14210000Y-9353432D02*
X14190000Y-9373432D01*
X14190000Y-9553432D02*
X14210000Y-9573432D01*
X14210000Y-9553432D02*
X14190000Y-9573432D01*
X14200000Y-8093432D02*
X14220000Y-8113432D01*
X14220000Y-8093432D02*
X14200000Y-8113432D01*
X14215000Y-10322432D02*
X14235000Y-10342432D01*
X14235000Y-10322432D02*
X14215000Y-10342432D01*
X14220000Y-9903432D02*
X14240000Y-9923432D01*
X14240000Y-9903432D02*
X14220000Y-9923432D01*
X14240000Y-7878432D02*
X14260000Y-7898432D01*
X14260000Y-7878432D02*
X14240000Y-7898432D01*
X14265000Y-10323432D02*
X14285000Y-10343432D01*
X14285000Y-10323432D02*
X14265000Y-10343432D01*
X14288000Y-12895432D02*
X14308000Y-12915432D01*
X14308000Y-12895432D02*
X14288000Y-12915432D01*
X14315000Y-10323432D02*
X14335000Y-10343432D01*
X14335000Y-10323432D02*
X14315000Y-10343432D01*
X14327500Y-11915432D02*
X14347500Y-11935432D01*
X14347500Y-11915432D02*
X14327500Y-11935432D01*
X14328000Y-11851432D02*
X14348000Y-11871432D01*
X14348000Y-11851432D02*
X14328000Y-11871432D01*
X14328000Y-11968432D02*
X14348000Y-11988432D01*
X14348000Y-11968432D02*
X14328000Y-11988432D01*
X14335000Y-12497932D02*
X14355000Y-12517932D01*
X14355000Y-12497932D02*
X14335000Y-12517932D01*
X14335000Y-12895432D02*
X14355000Y-12915432D01*
X14355000Y-12895432D02*
X14335000Y-12915432D01*
X14340000Y-8703432D02*
X14360000Y-8723432D01*
X14360000Y-8703432D02*
X14340000Y-8723432D01*
X14340000Y-8853432D02*
X14360000Y-8873432D01*
X14360000Y-8853432D02*
X14340000Y-8873432D01*
X14340000Y-10213432D02*
X14360000Y-10233432D01*
X14360000Y-10213432D02*
X14340000Y-10233432D01*
X14365000Y-10323432D02*
X14385000Y-10343432D01*
X14385000Y-10323432D02*
X14365000Y-10343432D01*
X14384000Y-12895432D02*
X14404000Y-12915432D01*
X14404000Y-12895432D02*
X14384000Y-12915432D01*
X14390000Y-7878432D02*
X14410000Y-7898432D01*
X14410000Y-7878432D02*
X14390000Y-7898432D01*
X14400000Y-7353432D02*
X14420000Y-7373432D01*
X14420000Y-7353432D02*
X14400000Y-7373432D01*
X14402500Y-11840432D02*
X14422500Y-11860432D01*
X14422500Y-11840432D02*
X14402500Y-11860432D01*
X14402500Y-11915432D02*
X14422500Y-11935432D01*
X14422500Y-11915432D02*
X14402500Y-11935432D01*
X14415000Y-10323432D02*
X14435000Y-10343432D01*
X14435000Y-10323432D02*
X14415000Y-10343432D01*
X14430000Y-12085432D02*
X14450000Y-12105432D01*
X14450000Y-12085432D02*
X14430000Y-12105432D01*
X14430000Y-12160432D02*
X14450000Y-12180432D01*
X14450000Y-12160432D02*
X14430000Y-12180432D01*
X14430000Y-12235432D02*
X14450000Y-12255432D01*
X14450000Y-12235432D02*
X14430000Y-12255432D01*
X14430000Y-12310432D02*
X14450000Y-12330432D01*
X14450000Y-12310432D02*
X14430000Y-12330432D01*
X14430000Y-12385432D02*
X14450000Y-12405432D01*
X14450000Y-12385432D02*
X14430000Y-12405432D01*
X14430000Y-12460432D02*
X14450000Y-12480432D01*
X14450000Y-12460432D02*
X14430000Y-12480432D01*
X14430000Y-12535432D02*
X14450000Y-12555432D01*
X14450000Y-12535432D02*
X14430000Y-12555432D01*
X14465000Y-10323432D02*
X14485000Y-10343432D01*
X14485000Y-10323432D02*
X14465000Y-10343432D01*
X14500000Y-10213432D02*
X14520000Y-10233432D01*
X14520000Y-10213432D02*
X14500000Y-10233432D01*
X14515000Y-10323432D02*
X14535000Y-10343432D01*
X14535000Y-10323432D02*
X14515000Y-10343432D01*
X14515000Y-12008432D02*
X14535000Y-12028432D01*
X14535000Y-12008432D02*
X14515000Y-12028432D01*
X14540000Y-7878432D02*
X14560000Y-7898432D01*
X14560000Y-7878432D02*
X14540000Y-7898432D01*
X14552500Y-11915432D02*
X14572500Y-11935432D01*
X14572500Y-11915432D02*
X14552500Y-11935432D01*
X14554000Y-11840432D02*
X14574000Y-11860432D01*
X14574000Y-11840432D02*
X14554000Y-11860432D01*
X14565000Y-6287432D02*
X14585000Y-6307432D01*
X14585000Y-6287432D02*
X14565000Y-6307432D01*
X14590000Y-12008432D02*
X14610000Y-12028432D01*
X14610000Y-12008432D02*
X14590000Y-12028432D01*
X14591000Y-12086432D02*
X14611000Y-12106432D01*
X14611000Y-12086432D02*
X14591000Y-12106432D01*
X14630000Y-6870432D02*
X14650000Y-6890432D01*
X14650000Y-6870432D02*
X14630000Y-6890432D01*
X14660000Y-12413432D02*
X14680000Y-12433432D01*
X14680000Y-12413432D02*
X14660000Y-12433432D01*
X14660000Y-12473432D02*
X14680000Y-12493432D01*
X14680000Y-12473432D02*
X14660000Y-12493432D01*
X14665000Y-6286432D02*
X14685000Y-6306432D01*
X14685000Y-6286432D02*
X14665000Y-6306432D01*
X14665000Y-6420432D02*
X14685000Y-6440432D01*
X14685000Y-6420432D02*
X14665000Y-6440432D01*
X14665000Y-8758432D02*
X14685000Y-8778432D01*
X14685000Y-8758432D02*
X14665000Y-8778432D01*
X14715000Y-6325432D02*
X14735000Y-6345432D01*
X14735000Y-6325432D02*
X14715000Y-6345432D01*
X14715000Y-10323432D02*
X14735000Y-10343432D01*
X14735000Y-10323432D02*
X14715000Y-10343432D01*
X14740000Y-11353432D02*
X14760000Y-11373432D01*
X14760000Y-11353432D02*
X14740000Y-11373432D01*
X14740000Y-11468432D02*
X14760000Y-11488432D01*
X14760000Y-11468432D02*
X14740000Y-11488432D01*
X14740000Y-12009432D02*
X14760000Y-12029432D01*
X14760000Y-12009432D02*
X14740000Y-12029432D01*
X14741000Y-11228432D02*
X14761000Y-11248432D01*
X14761000Y-11228432D02*
X14741000Y-11248432D01*
X14762500Y-12700432D02*
X14782500Y-12720432D01*
X14782500Y-12700432D02*
X14762500Y-12720432D01*
X14765000Y-6247432D02*
X14785000Y-6267432D01*
X14785000Y-6247432D02*
X14765000Y-6267432D01*
X14765000Y-10323432D02*
X14785000Y-10343432D01*
X14785000Y-10323432D02*
X14765000Y-10343432D01*
X14790000Y-9403432D02*
X14810000Y-9423432D01*
X14810000Y-9403432D02*
X14790000Y-9423432D01*
X14790000Y-9553432D02*
X14810000Y-9573432D01*
X14810000Y-9553432D02*
X14790000Y-9573432D01*
X14790000Y-9703432D02*
X14810000Y-9723432D01*
X14810000Y-9703432D02*
X14790000Y-9723432D01*
X14815000Y-6287432D02*
X14835000Y-6307432D01*
X14835000Y-6287432D02*
X14815000Y-6307432D01*
X14815000Y-10323432D02*
X14835000Y-10343432D01*
X14835000Y-10323432D02*
X14815000Y-10343432D01*
X14815000Y-11293432D02*
X14835000Y-11313432D01*
X14835000Y-11293432D02*
X14815000Y-11313432D01*
X14815000Y-11410432D02*
X14835000Y-11430432D01*
X14835000Y-11410432D02*
X14815000Y-11430432D01*
X14815000Y-12009432D02*
X14835000Y-12029432D01*
X14835000Y-12009432D02*
X14815000Y-12029432D01*
X14815000Y-12098432D02*
X14835000Y-12118432D01*
X14835000Y-12098432D02*
X14815000Y-12118432D01*
X14820000Y-7113432D02*
X14840000Y-7133432D01*
X14840000Y-7113432D02*
X14820000Y-7133432D01*
X14820000Y-7353432D02*
X14840000Y-7373432D01*
X14840000Y-7353432D02*
X14820000Y-7373432D01*
X14837500Y-12700432D02*
X14857500Y-12720432D01*
X14857500Y-12700432D02*
X14837500Y-12720432D01*
X14839000Y-6870432D02*
X14859000Y-6890432D01*
X14859000Y-6870432D02*
X14839000Y-6890432D01*
X14865000Y-6287432D02*
X14885000Y-6307432D01*
X14885000Y-6287432D02*
X14865000Y-6307432D01*
X14865000Y-10323432D02*
X14885000Y-10343432D01*
X14885000Y-10323432D02*
X14865000Y-10343432D01*
X14869000Y-6935432D02*
X14889000Y-6955432D01*
X14889000Y-6935432D02*
X14869000Y-6955432D01*
X14870000Y-6620432D02*
X14890000Y-6640432D01*
X14890000Y-6620432D02*
X14870000Y-6640432D01*
X14890000Y-12010432D02*
X14910000Y-12030432D01*
X14910000Y-12010432D02*
X14890000Y-12030432D01*
X14912500Y-12700432D02*
X14932500Y-12720432D01*
X14932500Y-12700432D02*
X14912500Y-12720432D01*
X14913000Y-12097432D02*
X14933000Y-12117432D01*
X14933000Y-12097432D02*
X14913000Y-12117432D01*
X14915000Y-8758432D02*
X14935000Y-8778432D01*
X14935000Y-8758432D02*
X14915000Y-8778432D01*
X14915000Y-12223432D02*
X14935000Y-12243432D01*
X14935000Y-12223432D02*
X14915000Y-12243432D01*
X14965000Y-8758432D02*
X14985000Y-8778432D01*
X14985000Y-8758432D02*
X14965000Y-8778432D01*
X14966000Y-8935432D02*
X14986000Y-8955432D01*
X14986000Y-8935432D02*
X14966000Y-8955432D01*
X14977500Y-12700432D02*
X14997500Y-12720432D01*
X14997500Y-12700432D02*
X14977500Y-12720432D01*
X15050000Y-12160432D02*
X15070000Y-12180432D01*
X15070000Y-12160432D02*
X15050000Y-12180432D01*
X15050000Y-12235432D02*
X15070000Y-12255432D01*
X15070000Y-12235432D02*
X15050000Y-12255432D01*
X15050000Y-12535432D02*
X15070000Y-12555432D01*
X15070000Y-12535432D02*
X15050000Y-12555432D01*
X15050000Y-12610432D02*
X15070000Y-12630432D01*
X15070000Y-12610432D02*
X15050000Y-12630432D01*
X15088000Y-12895432D02*
X15108000Y-12915432D01*
X15108000Y-12895432D02*
X15088000Y-12915432D01*
X15140000Y-8753432D02*
X15160000Y-8773432D01*
X15160000Y-8753432D02*
X15140000Y-8773432D01*
X15140000Y-8953432D02*
X15160000Y-8973432D01*
X15160000Y-8953432D02*
X15140000Y-8973432D01*
X15140000Y-9153432D02*
X15160000Y-9173432D01*
X15160000Y-9153432D02*
X15140000Y-9173432D01*
X15140000Y-9353432D02*
X15160000Y-9373432D01*
X15160000Y-9353432D02*
X15140000Y-9373432D01*
X15140000Y-9553432D02*
X15160000Y-9573432D01*
X15160000Y-9553432D02*
X15140000Y-9573432D01*
X15140000Y-9753432D02*
X15160000Y-9773432D01*
X15160000Y-9753432D02*
X15140000Y-9773432D01*
X15140000Y-9953432D02*
X15160000Y-9973432D01*
X15160000Y-9953432D02*
X15140000Y-9973432D01*
X15140000Y-10153432D02*
X15160000Y-10173432D01*
X15160000Y-10153432D02*
X15140000Y-10173432D01*
X15145000Y-12197932D02*
X15165000Y-12217932D01*
X15165000Y-12197932D02*
X15145000Y-12217932D01*
X15145000Y-12272932D02*
X15165000Y-12292932D01*
X15165000Y-12272932D02*
X15145000Y-12292932D01*
X15145000Y-12347932D02*
X15165000Y-12367932D01*
X15165000Y-12347932D02*
X15145000Y-12367932D01*
X15145000Y-12422932D02*
X15165000Y-12442932D01*
X15165000Y-12422932D02*
X15145000Y-12442932D01*
X15145000Y-12648432D02*
X15165000Y-12668432D01*
X15165000Y-12648432D02*
X15145000Y-12668432D01*
X15145000Y-12723432D02*
X15165000Y-12743432D01*
X15165000Y-12723432D02*
X15145000Y-12743432D01*
X15145000Y-12797932D02*
X15165000Y-12817932D01*
X15165000Y-12797932D02*
X15145000Y-12817932D01*
X15145000Y-12895432D02*
X15165000Y-12915432D01*
X15165000Y-12895432D02*
X15145000Y-12915432D01*
X15152500Y-11915432D02*
X15172500Y-11935432D01*
X15172500Y-11915432D02*
X15152500Y-11935432D01*
X15204000Y-12895432D02*
X15224000Y-12915432D01*
X15224000Y-12895432D02*
X15204000Y-12915432D01*
X15265000Y-10323432D02*
X15285000Y-10343432D01*
X15285000Y-10323432D02*
X15265000Y-10343432D01*
X15315000Y-10323432D02*
X15335000Y-10343432D01*
X15335000Y-10323432D02*
X15315000Y-10343432D01*
X15338000Y-6472932D02*
X15358000Y-6492932D01*
X15358000Y-6472932D02*
X15338000Y-6492932D01*
X15340000Y-8753432D02*
X15360000Y-8773432D01*
X15360000Y-8753432D02*
X15340000Y-8773432D01*
X15365000Y-10323432D02*
X15385000Y-10343432D01*
X15385000Y-10323432D02*
X15365000Y-10343432D01*
X15370000Y-12393432D02*
X15390000Y-12413432D01*
X15390000Y-12393432D02*
X15370000Y-12413432D01*
X15415000Y-10323432D02*
X15435000Y-10343432D01*
X15435000Y-10323432D02*
X15415000Y-10343432D01*
X15439000Y-7305432D02*
X15459000Y-7325432D01*
X15459000Y-7305432D02*
X15439000Y-7325432D01*
X15625000Y-11678432D02*
X15645000Y-11698432D01*
X15645000Y-11678432D02*
X15625000Y-11698432D01*
X15634000Y-12036432D02*
X15654000Y-12056432D01*
X15654000Y-12036432D02*
X15634000Y-12056432D01*
X15646000Y-8702432D02*
X15666000Y-8722432D01*
X15666000Y-8702432D02*
X15646000Y-8722432D01*
X15670000Y-12853432D02*
X15690000Y-12873432D01*
X15690000Y-12853432D02*
X15670000Y-12873432D01*
X15683000Y-12571432D02*
X15703000Y-12591432D01*
X15703000Y-12571432D02*
X15683000Y-12591432D01*
X15695000Y-5733432D02*
X15715000Y-5753432D01*
X15715000Y-5733432D02*
X15695000Y-5753432D01*
X15705000Y-11678432D02*
X15725000Y-11698432D01*
X15725000Y-11678432D02*
X15705000Y-11698432D01*
X15767000Y-11183432D02*
X15787000Y-11203432D01*
X15787000Y-11183432D02*
X15767000Y-11203432D01*
X15785000Y-6803432D02*
X15805000Y-6823432D01*
X15805000Y-6803432D02*
X15785000Y-6823432D01*
X15785000Y-6873432D02*
X15805000Y-6893432D01*
X15805000Y-6873432D02*
X15785000Y-6893432D01*
X15785000Y-11498432D02*
X15805000Y-11518432D01*
X15805000Y-11498432D02*
X15785000Y-11518432D01*
X15785000Y-11678432D02*
X15805000Y-11698432D01*
X15805000Y-11678432D02*
X15785000Y-11698432D01*
X15810000Y-13198432D02*
X15830000Y-13218432D01*
X15830000Y-13198432D02*
X15810000Y-13218432D01*
X15850000Y-12703432D02*
X15870000Y-12723432D01*
X15870000Y-12703432D02*
X15850000Y-12723432D01*
X15865000Y-11678432D02*
X15885000Y-11698432D01*
X15885000Y-11678432D02*
X15865000Y-11698432D01*
X15867500Y-11498432D02*
X15887500Y-11518432D01*
X15887500Y-11498432D02*
X15867500Y-11518432D01*
X15990000Y-8053432D02*
X16010000Y-8073432D01*
X16010000Y-8053432D02*
X15990000Y-8073432D01*
X15995000Y-12598432D02*
X16015000Y-12618432D01*
X16015000Y-12598432D02*
X15995000Y-12618432D01*
X16085000Y-12508432D02*
X16105000Y-12528432D01*
X16105000Y-12508432D02*
X16085000Y-12528432D01*
X16085000Y-12598432D02*
X16105000Y-12618432D01*
X16105000Y-12598432D02*
X16085000Y-12618432D01*
X16095000Y-5833432D02*
X16115000Y-5853432D01*
X16115000Y-5833432D02*
X16095000Y-5853432D01*
X16095000Y-10798432D02*
X16115000Y-10818432D01*
X16115000Y-10798432D02*
X16095000Y-10818432D01*
X16130000Y-9693432D02*
X16150000Y-9713432D01*
X16150000Y-9693432D02*
X16130000Y-9713432D01*
X16135000Y-10298432D02*
X16155000Y-10318432D01*
X16155000Y-10298432D02*
X16135000Y-10318432D01*
X16185000Y-5743432D02*
X16205000Y-5763432D01*
X16205000Y-5743432D02*
X16185000Y-5763432D01*
X16185000Y-10708432D02*
X16205000Y-10728432D01*
X16205000Y-10708432D02*
X16185000Y-10728432D01*
X16350000Y-9693432D02*
X16370000Y-9713432D01*
X16370000Y-9693432D02*
X16350000Y-9713432D01*
X16355000Y-10298432D02*
X16375000Y-10318432D01*
X16375000Y-10298432D02*
X16355000Y-10318432D01*
X16449000Y-10686432D02*
X16469000Y-10706432D01*
X16469000Y-10686432D02*
X16449000Y-10706432D01*
X13335500Y-10161932D02*
G75*
G02*
X13315500Y-10161932I-10000J0D01*
G01*
X13315500Y-10161932D02*
G75*
G02*
X13335500Y-10161932I10000J0D01*
G01*
X13335500Y-10271932D02*
G75*
G02*
X13315500Y-10271932I-10000J0D01*
G01*
X13315500Y-10271932D02*
G75*
G02*
X13335500Y-10271932I10000J0D01*
G01*
X13465500Y-10161932D02*
G75*
G02*
X13445500Y-10161932I-10000J0D01*
G01*
X13445500Y-10161932D02*
G75*
G02*
X13465500Y-10161932I10000J0D01*
G01*
X13465500Y-10271932D02*
G75*
G02*
X13445500Y-10271932I-10000J0D01*
G01*
X13445500Y-10271932D02*
G75*
G02*
X13465500Y-10271932I10000J0D01*
G01*
X13595500Y-10161932D02*
G75*
G02*
X13575500Y-10161932I-10000J0D01*
G01*
X13575500Y-10161932D02*
G75*
G02*
X13595500Y-10161932I10000J0D01*
G01*
X13595500Y-10271932D02*
G75*
G02*
X13575500Y-10271932I-10000J0D01*
G01*
X13575500Y-10271932D02*
G75*
G02*
X13595500Y-10271932I10000J0D01*
G01*
X13217000Y-7340272D02*
X13217000Y-7360592D01*
X13206840Y-7350432D02*
X13227160Y-7350432D01*
X13327000Y-7340272D02*
X13327000Y-7360592D01*
X13316840Y-7350432D02*
X13337160Y-7350432D01*
X13118839Y-9437271D02*
X13118839Y-9419593D01*
X13101161Y-9419593D01*
X13101161Y-9437271D01*
X13118839Y-9437271D01*
X13148839Y-10347271D02*
X13148839Y-10329593D01*
X13131161Y-10329593D01*
X13131161Y-10347271D01*
X13148839Y-10347271D01*
X13258839Y-9437271D02*
X13258839Y-9419593D01*
X13241161Y-9419593D01*
X13241161Y-9437271D01*
X13258839Y-9437271D01*
X13313839Y-5767271D02*
X13313839Y-5749593D01*
X13296161Y-5749593D01*
X13296161Y-5767271D01*
X13313839Y-5767271D01*
X13313839Y-10727271D02*
X13313839Y-10709593D01*
X13296161Y-10709593D01*
X13296161Y-10727271D01*
X13313839Y-10727271D01*
X13353839Y-9437271D02*
X13353839Y-9419593D01*
X13336161Y-9419593D01*
X13336161Y-9437271D01*
X13353839Y-9437271D01*
X13377558Y-7192271D02*
X13377558Y-7174593D01*
X13359880Y-7174593D01*
X13359880Y-7192271D01*
X13377558Y-7192271D01*
X13403839Y-5857271D02*
X13403839Y-5839593D01*
X13386161Y-5839593D01*
X13386161Y-5857271D01*
X13403839Y-5857271D01*
X13408839Y-9137271D02*
X13408839Y-9119593D01*
X13391161Y-9119593D01*
X13391161Y-9137271D01*
X13408839Y-9137271D01*
X13487839Y-8039271D02*
X13487839Y-8021593D01*
X13470161Y-8021593D01*
X13470161Y-8039271D01*
X13487839Y-8039271D01*
X13488839Y-12069771D02*
X13488839Y-12052093D01*
X13471161Y-12052093D01*
X13471161Y-12069771D01*
X13488839Y-12069771D01*
X13558839Y-7132271D02*
X13558839Y-7114593D01*
X13541161Y-7114593D01*
X13541161Y-7132271D01*
X13558839Y-7132271D01*
X13593839Y-8477271D02*
X13593839Y-8459593D01*
X13576161Y-8459593D01*
X13576161Y-8477271D01*
X13593839Y-8477271D01*
X13628839Y-7132271D02*
X13628839Y-7114593D01*
X13611161Y-7114593D01*
X13611161Y-7132271D01*
X13628839Y-7132271D01*
X13628839Y-7262271D02*
X13628839Y-7244593D01*
X13611161Y-7244593D01*
X13611161Y-7262271D01*
X13628839Y-7262271D01*
X13638839Y-12932271D02*
X13638839Y-12914593D01*
X13621161Y-12914593D01*
X13621161Y-12932271D01*
X13638839Y-12932271D01*
X13678839Y-12372271D02*
X13678839Y-12354593D01*
X13661161Y-12354593D01*
X13661161Y-12372271D01*
X13678839Y-12372271D01*
X13829839Y-6355271D02*
X13829839Y-6337593D01*
X13812161Y-6337593D01*
X13812161Y-6355271D01*
X13829839Y-6355271D01*
X13848839Y-6849771D02*
X13848839Y-6832093D01*
X13831161Y-6832093D01*
X13831161Y-6849771D01*
X13848839Y-6849771D01*
X13848839Y-6914771D02*
X13848839Y-6897093D01*
X13831161Y-6897093D01*
X13831161Y-6914771D01*
X13848839Y-6914771D01*
X13848839Y-7132271D02*
X13848839Y-7114593D01*
X13831161Y-7114593D01*
X13831161Y-7132271D01*
X13848839Y-7132271D01*
X13853839Y-9137271D02*
X13853839Y-9119593D01*
X13836161Y-9119593D01*
X13836161Y-9137271D01*
X13853839Y-9137271D01*
X13856839Y-10052271D02*
X13856839Y-10034593D01*
X13839161Y-10034593D01*
X13839161Y-10052271D01*
X13856839Y-10052271D01*
X13878839Y-8717271D02*
X13878839Y-8699593D01*
X13861161Y-8699593D01*
X13861161Y-8717271D01*
X13878839Y-8717271D01*
X13878839Y-9817271D02*
X13878839Y-9799593D01*
X13861161Y-9799593D01*
X13861161Y-9817271D01*
X13878839Y-9817271D01*
X13953839Y-6922271D02*
X13953839Y-6904593D01*
X13936161Y-6904593D01*
X13936161Y-6922271D01*
X13953839Y-6922271D01*
X13981839Y-12614771D02*
X13981839Y-12597093D01*
X13964161Y-12597093D01*
X13964161Y-12614771D01*
X13981839Y-12614771D01*
X14083839Y-10811271D02*
X14083839Y-10793593D01*
X14066161Y-10793593D01*
X14066161Y-10811271D01*
X14083839Y-10811271D01*
X14084839Y-12100271D02*
X14084839Y-12082593D01*
X14067161Y-12082593D01*
X14067161Y-12100271D01*
X14084839Y-12100271D01*
X14089839Y-6265771D02*
X14089839Y-6248093D01*
X14072161Y-6248093D01*
X14072161Y-6265771D01*
X14089839Y-6265771D01*
X14121339Y-13217271D02*
X14121339Y-13199593D01*
X14103661Y-13199593D01*
X14103661Y-13217271D01*
X14121339Y-13217271D01*
X14121839Y-8962271D02*
X14121839Y-8944593D01*
X14104161Y-8944593D01*
X14104161Y-8962271D01*
X14121839Y-8962271D01*
X14128839Y-9867271D02*
X14128839Y-9849593D01*
X14111161Y-9849593D01*
X14111161Y-9867271D01*
X14128839Y-9867271D01*
X14130839Y-10771271D02*
X14130839Y-10753593D01*
X14113161Y-10753593D01*
X14113161Y-10771271D01*
X14130839Y-10771271D01*
X14146339Y-5772271D02*
X14146339Y-5754593D01*
X14128661Y-5754593D01*
X14128661Y-5772271D01*
X14146339Y-5772271D01*
X14148839Y-9992271D02*
X14148839Y-9974593D01*
X14131161Y-9974593D01*
X14131161Y-9992271D01*
X14148839Y-9992271D01*
X14283839Y-6989180D02*
X14283839Y-6971502D01*
X14266161Y-6971502D01*
X14266161Y-6989180D01*
X14283839Y-6989180D01*
X14383839Y-11322271D02*
X14383839Y-11304593D01*
X14366161Y-11304593D01*
X14366161Y-11322271D01*
X14383839Y-11322271D01*
X14396839Y-11539271D02*
X14396839Y-11521593D01*
X14379161Y-11521593D01*
X14379161Y-11539271D01*
X14396839Y-11539271D01*
X14458839Y-6032271D02*
X14458839Y-6014593D01*
X14441161Y-6014593D01*
X14441161Y-6032271D01*
X14458839Y-6032271D01*
X14565852Y-11341284D02*
X14565852Y-11323606D01*
X14548174Y-11323606D01*
X14548174Y-11341284D01*
X14565852Y-11341284D01*
X14597839Y-11429271D02*
X14597839Y-11411593D01*
X14580161Y-11411593D01*
X14580161Y-11429271D01*
X14597839Y-11429271D01*
X14648839Y-6954271D02*
X14648839Y-6936593D01*
X14631161Y-6936593D01*
X14631161Y-6954271D01*
X14648839Y-6954271D01*
X14693839Y-6177271D02*
X14693839Y-6159593D01*
X14676161Y-6159593D01*
X14676161Y-6177271D01*
X14693839Y-6177271D01*
X14728839Y-9922271D02*
X14728839Y-9904593D01*
X14711161Y-9904593D01*
X14711161Y-9922271D01*
X14728839Y-9922271D01*
X14746839Y-12403271D02*
X14746839Y-12385593D01*
X14729161Y-12385593D01*
X14729161Y-12403271D01*
X14746839Y-12403271D01*
X14758839Y-7692271D02*
X14758839Y-7674593D01*
X14741161Y-7674593D01*
X14741161Y-7692271D01*
X14758839Y-7692271D01*
X14823839Y-6177271D02*
X14823839Y-6159593D01*
X14806161Y-6159593D01*
X14806161Y-6177271D01*
X14823839Y-6177271D01*
X14908839Y-7692271D02*
X14908839Y-7674593D01*
X14891161Y-7674593D01*
X14891161Y-7692271D01*
X14908839Y-7692271D01*
X14958839Y-7897271D02*
X14958839Y-7879593D01*
X14941161Y-7879593D01*
X14941161Y-7897271D01*
X14958839Y-7897271D01*
X14983839Y-8627271D02*
X14983839Y-8609593D01*
X14966161Y-8609593D01*
X14966161Y-8627271D01*
X14983839Y-8627271D01*
X15058839Y-7692271D02*
X15058839Y-7674593D01*
X15041161Y-7674593D01*
X15041161Y-7692271D01*
X15058839Y-7692271D01*
X15108839Y-7897271D02*
X15108839Y-7879593D01*
X15091161Y-7879593D01*
X15091161Y-7897271D01*
X15108839Y-7897271D01*
X15183839Y-11860271D02*
X15183839Y-11842593D01*
X15166161Y-11842593D01*
X15166161Y-11860271D01*
X15183839Y-11860271D01*
X15183839Y-12000271D02*
X15183839Y-11982593D01*
X15166161Y-11982593D01*
X15166161Y-12000271D01*
X15183839Y-12000271D01*
X15188839Y-7037271D02*
X15188839Y-7019593D01*
X15171161Y-7019593D01*
X15171161Y-7037271D01*
X15188839Y-7037271D01*
X15203839Y-6820271D02*
X15203839Y-6802593D01*
X15186161Y-6802593D01*
X15186161Y-6820271D01*
X15203839Y-6820271D01*
X15203839Y-7324271D02*
X15203839Y-7306593D01*
X15186161Y-7306593D01*
X15186161Y-7324271D01*
X15203839Y-7324271D01*
X15208839Y-7692271D02*
X15208839Y-7674593D01*
X15191161Y-7674593D01*
X15191161Y-7692271D01*
X15208839Y-7692271D01*
X15258839Y-7897271D02*
X15258839Y-7879593D01*
X15241161Y-7879593D01*
X15241161Y-7897271D01*
X15258839Y-7897271D01*
X15358839Y-12152271D02*
X15358839Y-12134593D01*
X15341161Y-12134593D01*
X15341161Y-12152271D01*
X15358839Y-12152271D01*
X15365339Y-6116271D02*
X15365339Y-6098593D01*
X15347661Y-6098593D01*
X15347661Y-6116271D01*
X15365339Y-6116271D01*
X15366339Y-5972271D02*
X15366339Y-5954593D01*
X15348661Y-5954593D01*
X15348661Y-5972271D01*
X15366339Y-5972271D01*
X15371339Y-5772271D02*
X15371339Y-5754593D01*
X15353661Y-5754593D01*
X15353661Y-5772271D01*
X15371339Y-5772271D01*
X15383839Y-10222271D02*
X15383839Y-10204593D01*
X15366161Y-10204593D01*
X15366161Y-10222271D01*
X15383839Y-10222271D01*
X15396339Y-13217271D02*
X15396339Y-13199593D01*
X15378661Y-13199593D01*
X15378661Y-13217271D01*
X15396339Y-13217271D01*
X15428839Y-8872271D02*
X15428839Y-8854593D01*
X15411161Y-8854593D01*
X15411161Y-8872271D01*
X15428839Y-8872271D01*
X15433839Y-10222271D02*
X15433839Y-10204593D01*
X15416161Y-10204593D01*
X15416161Y-10222271D01*
X15433839Y-10222271D01*
X15548839Y-11007271D02*
X15548839Y-10989593D01*
X15531161Y-10989593D01*
X15531161Y-11007271D01*
X15548839Y-11007271D01*
X15548839Y-11172271D02*
X15548839Y-11154593D01*
X15531161Y-11154593D01*
X15531161Y-11172271D01*
X15548839Y-11172271D01*
X15618839Y-5812271D02*
X15618839Y-5794593D01*
X15601161Y-5794593D01*
X15601161Y-5812271D01*
X15618839Y-5812271D01*
X15643839Y-11517271D02*
X15643839Y-11499593D01*
X15626161Y-11499593D01*
X15626161Y-11517271D01*
X15643839Y-11517271D01*
X15658839Y-8872271D02*
X15658839Y-8854593D01*
X15641161Y-8854593D01*
X15641161Y-8872271D01*
X15658839Y-8872271D01*
X15678839Y-6312271D02*
X15678839Y-6294593D01*
X15661161Y-6294593D01*
X15661161Y-6312271D01*
X15678839Y-6312271D01*
X15723839Y-11517271D02*
X15723839Y-11499593D01*
X15706161Y-11499593D01*
X15706161Y-11517271D01*
X15723839Y-11517271D01*
X15753839Y-7034771D02*
X15753839Y-7017093D01*
X15736161Y-7017093D01*
X15736161Y-7034771D01*
X15753839Y-7034771D01*
X15872839Y-7307271D02*
X15872839Y-7289593D01*
X15855161Y-7289593D01*
X15855161Y-7307271D01*
X15872839Y-7307271D01*
X15883839Y-12927271D02*
X15883839Y-12909593D01*
X15866161Y-12909593D01*
X15866161Y-12927271D01*
X15883839Y-12927271D01*
X15923839Y-12667271D02*
X15923839Y-12649593D01*
X15906161Y-12649593D01*
X15906161Y-12667271D01*
X15923839Y-12667271D01*
X15958839Y-9872271D02*
X15958839Y-9854593D01*
X15941161Y-9854593D01*
X15941161Y-9872271D01*
X15958839Y-9872271D01*
X15958839Y-10072271D02*
X15958839Y-10054593D01*
X15941161Y-10054593D01*
X15941161Y-10072271D01*
X15958839Y-10072271D01*
X15958839Y-10272271D02*
X15958839Y-10254593D01*
X15941161Y-10254593D01*
X15941161Y-10272271D01*
X15958839Y-10272271D01*
X15958839Y-10472271D02*
X15958839Y-10454593D01*
X15941161Y-10454593D01*
X15941161Y-10472271D01*
X15958839Y-10472271D01*
X15958839Y-10694771D02*
X15958839Y-10677093D01*
X15941161Y-10677093D01*
X15941161Y-10694771D01*
X15958839Y-10694771D01*
X16006339Y-7107271D02*
X16006339Y-7089593D01*
X15988661Y-7089593D01*
X15988661Y-7107271D01*
X16006339Y-7107271D01*
X16006339Y-7207271D02*
X16006339Y-7189593D01*
X15988661Y-7189593D01*
X15988661Y-7207271D01*
X16006339Y-7207271D01*
X16113839Y-5762271D02*
X16113839Y-5744593D01*
X16096161Y-5744593D01*
X16096161Y-5762271D01*
X16113839Y-5762271D01*
X16113839Y-10727271D02*
X16113839Y-10709593D01*
X16096161Y-10709593D01*
X16096161Y-10727271D01*
X16113839Y-10727271D01*
X16148839Y-9357271D02*
X16148839Y-9339593D01*
X16131161Y-9339593D01*
X16131161Y-9357271D01*
X16148839Y-9357271D01*
X16148839Y-9647271D02*
X16148839Y-9629593D01*
X16131161Y-9629593D01*
X16131161Y-9647271D01*
X16148839Y-9647271D01*
X16148839Y-9777271D02*
X16148839Y-9759593D01*
X16131161Y-9759593D01*
X16131161Y-9777271D01*
X16148839Y-9777271D01*
X16153839Y-10252271D02*
X16153839Y-10234593D01*
X16136161Y-10234593D01*
X16136161Y-10252271D01*
X16153839Y-10252271D01*
X16153839Y-10382271D02*
X16153839Y-10364593D01*
X16136161Y-10364593D01*
X16136161Y-10382271D01*
X16153839Y-10382271D01*
X16203839Y-5852271D02*
X16203839Y-5834593D01*
X16186161Y-5834593D01*
X16186161Y-5852271D01*
X16203839Y-5852271D01*
X16248839Y-8882271D02*
X16248839Y-8864593D01*
X16231161Y-8864593D01*
X16231161Y-8882271D01*
X16248839Y-8882271D01*
X16368839Y-9357271D02*
X16368839Y-9339593D01*
X16351161Y-9339593D01*
X16351161Y-9357271D01*
X16368839Y-9357271D01*
X16368839Y-9497271D02*
X16368839Y-9479593D01*
X16351161Y-9479593D01*
X16351161Y-9497271D01*
X16368839Y-9497271D01*
X16368839Y-9647271D02*
X16368839Y-9629593D01*
X16351161Y-9629593D01*
X16351161Y-9647271D01*
X16368839Y-9647271D01*
X16373839Y-10252271D02*
X16373839Y-10234593D01*
X16356161Y-10234593D01*
X16356161Y-10252271D01*
X16373839Y-10252271D01*
X16373839Y-10382271D02*
X16373839Y-10364593D01*
X16356161Y-10364593D01*
X16356161Y-10382271D01*
X16373839Y-10382271D01*
X13050000Y-6338432D02*
X13065000Y-6323432D01*
X13050000Y-6308432D01*
X13035000Y-6323432D01*
X13050000Y-6338432D01*
X13050000Y-6838432D02*
X13065000Y-6823432D01*
X13050000Y-6808432D01*
X13035000Y-6823432D01*
X13050000Y-6838432D01*
X13050000Y-13218432D02*
X13065000Y-13203432D01*
X13050000Y-13188432D01*
X13035000Y-13203432D01*
X13050000Y-13218432D01*
X13070000Y-7295932D02*
X13085000Y-7280932D01*
X13070000Y-7265932D01*
X13055000Y-7280932D01*
X13070000Y-7295932D01*
X13250000Y-6960932D02*
X13265000Y-6945932D01*
X13250000Y-6930932D01*
X13235000Y-6945932D01*
X13250000Y-6960932D01*
X13290000Y-12638432D02*
X13305000Y-12623432D01*
X13290000Y-12608432D01*
X13275000Y-12623432D01*
X13290000Y-12638432D01*
X13330000Y-10398432D02*
X13345000Y-10383432D01*
X13330000Y-10368432D01*
X13315000Y-10383432D01*
X13330000Y-10398432D01*
X13330000Y-10488432D02*
X13345000Y-10473432D01*
X13330000Y-10458432D01*
X13315000Y-10473432D01*
X13330000Y-10488432D01*
X13340000Y-10978432D02*
X13355000Y-10963432D01*
X13340000Y-10948432D01*
X13325000Y-10963432D01*
X13340000Y-10978432D01*
X13400000Y-9063432D02*
X13415000Y-9048432D01*
X13400000Y-9033432D01*
X13385000Y-9048432D01*
X13400000Y-9063432D01*
X13403000Y-6966432D02*
X13418000Y-6951432D01*
X13403000Y-6936432D01*
X13388000Y-6951432D01*
X13403000Y-6966432D01*
X13410000Y-7368432D02*
X13425000Y-7353432D01*
X13410000Y-7338432D01*
X13395000Y-7353432D01*
X13410000Y-7368432D01*
X13445000Y-12688432D02*
X13460000Y-12673432D01*
X13445000Y-12658432D01*
X13430000Y-12673432D01*
X13445000Y-12688432D01*
X13450000Y-12250932D02*
X13465000Y-12235932D01*
X13450000Y-12220932D01*
X13435000Y-12235932D01*
X13450000Y-12250932D01*
X13450000Y-12405932D02*
X13465000Y-12390932D01*
X13450000Y-12375932D01*
X13435000Y-12390932D01*
X13450000Y-12405932D01*
X13465000Y-8150932D02*
X13480000Y-8135932D01*
X13465000Y-8120932D01*
X13450000Y-8135932D01*
X13465000Y-8150932D01*
X13470000Y-7805932D02*
X13485000Y-7790932D01*
X13470000Y-7775932D01*
X13455000Y-7790932D01*
X13470000Y-7805932D01*
X13480000Y-11400932D02*
X13495000Y-11385932D01*
X13480000Y-11370932D01*
X13465000Y-11385932D01*
X13480000Y-11400932D01*
X13549000Y-13223432D02*
X13564000Y-13208432D01*
X13549000Y-13193432D01*
X13534000Y-13208432D01*
X13549000Y-13223432D01*
X13553000Y-10871932D02*
X13568000Y-10856932D01*
X13553000Y-10841932D01*
X13538000Y-10856932D01*
X13553000Y-10871932D01*
X13565000Y-12578432D02*
X13580000Y-12563432D01*
X13565000Y-12548432D01*
X13550000Y-12563432D01*
X13565000Y-12578432D01*
X13590000Y-6378432D02*
X13605000Y-6363432D01*
X13590000Y-6348432D01*
X13575000Y-6363432D01*
X13590000Y-6378432D01*
X13621000Y-8385432D02*
X13636000Y-8370432D01*
X13621000Y-8355432D01*
X13606000Y-8370432D01*
X13621000Y-8385432D01*
X13690000Y-7138432D02*
X13705000Y-7123432D01*
X13690000Y-7108432D01*
X13675000Y-7123432D01*
X13690000Y-7138432D01*
X13929000Y-10732432D02*
X13944000Y-10717432D01*
X13929000Y-10702432D01*
X13914000Y-10717432D01*
X13929000Y-10732432D01*
X13943750Y-9564682D02*
X13958750Y-9549682D01*
X13943750Y-9534682D01*
X13928750Y-9549682D01*
X13943750Y-9564682D01*
X13982500Y-5778432D02*
X13997500Y-5763432D01*
X13982500Y-5748432D01*
X13967500Y-5763432D01*
X13982500Y-5778432D01*
X14215000Y-8908432D02*
X14230000Y-8893432D01*
X14215000Y-8878432D01*
X14200000Y-8893432D01*
X14215000Y-8908432D01*
X14230000Y-7518432D02*
X14245000Y-7503432D01*
X14230000Y-7488432D01*
X14215000Y-7503432D01*
X14230000Y-7518432D01*
X14329000Y-9400932D02*
X14344000Y-9385932D01*
X14329000Y-9370932D01*
X14314000Y-9385932D01*
X14329000Y-9400932D01*
X14330750Y-9024432D02*
X14345750Y-9009432D01*
X14330750Y-8994432D01*
X14315750Y-9009432D01*
X14330750Y-9024432D01*
X14401000Y-7116432D02*
X14416000Y-7101432D01*
X14401000Y-7086432D01*
X14386000Y-7101432D01*
X14401000Y-7116432D01*
X14430000Y-8458432D02*
X14445000Y-8443432D01*
X14430000Y-8428432D01*
X14415000Y-8443432D01*
X14430000Y-8458432D01*
X14510000Y-6488432D02*
X14525000Y-6473432D01*
X14510000Y-6458432D01*
X14495000Y-6473432D01*
X14510000Y-6488432D01*
X14612500Y-7305932D02*
X14627500Y-7290932D01*
X14612500Y-7275932D01*
X14597500Y-7290932D01*
X14612500Y-7305932D01*
X14675000Y-8353432D02*
X14690000Y-8338432D01*
X14675000Y-8323432D01*
X14660000Y-8338432D01*
X14675000Y-8353432D01*
X14700000Y-10058432D02*
X14715000Y-10043432D01*
X14700000Y-10028432D01*
X14685000Y-10043432D01*
X14700000Y-10058432D01*
X14749000Y-5942432D02*
X14764000Y-5927432D01*
X14749000Y-5912432D01*
X14734000Y-5927432D01*
X14749000Y-5942432D01*
X14750000Y-6183432D02*
X14765000Y-6168432D01*
X14750000Y-6153432D01*
X14735000Y-6168432D01*
X14750000Y-6183432D01*
X14750000Y-8278432D02*
X14765000Y-8263432D01*
X14750000Y-8248432D01*
X14735000Y-8263432D01*
X14750000Y-8278432D01*
X14750000Y-8428432D02*
X14765000Y-8413432D01*
X14750000Y-8398432D01*
X14735000Y-8413432D01*
X14750000Y-8428432D01*
X14807500Y-9213432D02*
X14822500Y-9198432D01*
X14807500Y-9183432D01*
X14792500Y-9198432D01*
X14807500Y-9213432D01*
X14825000Y-8353432D02*
X14840000Y-8338432D01*
X14825000Y-8323432D01*
X14810000Y-8338432D01*
X14825000Y-8353432D01*
X15070000Y-8458432D02*
X15085000Y-8443432D01*
X15070000Y-8428432D01*
X15055000Y-8443432D01*
X15070000Y-8458432D01*
X15262000Y-8027432D02*
X15277000Y-8012432D01*
X15262000Y-7997432D01*
X15247000Y-8012432D01*
X15262000Y-8027432D01*
X15265000Y-12298432D02*
X15280000Y-12283432D01*
X15265000Y-12268432D01*
X15250000Y-12283432D01*
X15265000Y-12298432D01*
X15280000Y-7115432D02*
X15295000Y-7100432D01*
X15280000Y-7085432D01*
X15265000Y-7100432D01*
X15280000Y-7115432D01*
X15330000Y-7498432D02*
X15345000Y-7483432D01*
X15330000Y-7468432D01*
X15315000Y-7483432D01*
X15330000Y-7498432D01*
X15339000Y-8027432D02*
X15354000Y-8012432D01*
X15339000Y-7997432D01*
X15324000Y-8012432D01*
X15339000Y-8027432D01*
X15417000Y-8027432D02*
X15432000Y-8012432D01*
X15417000Y-7997432D01*
X15402000Y-8012432D01*
X15417000Y-8027432D01*
X15427000Y-10985432D02*
X15442000Y-10970432D01*
X15427000Y-10955432D01*
X15412000Y-10970432D01*
X15427000Y-10985432D01*
X15517500Y-5778432D02*
X15532500Y-5763432D01*
X15517500Y-5748432D01*
X15502500Y-5763432D01*
X15517500Y-5778432D01*
X15705000Y-8328432D02*
X15720000Y-8313432D01*
X15705000Y-8298432D01*
X15690000Y-8313432D01*
X15705000Y-8328432D01*
X15705000Y-8426432D02*
X15720000Y-8411432D01*
X15705000Y-8396432D01*
X15690000Y-8411432D01*
X15705000Y-8426432D01*
X15706000Y-8527432D02*
X15721000Y-8512432D01*
X15706000Y-8497432D01*
X15691000Y-8512432D01*
X15706000Y-8527432D01*
X15850000Y-6478432D02*
X15865000Y-6463432D01*
X15850000Y-6448432D01*
X15835000Y-6463432D01*
X15850000Y-6478432D01*
X15950000Y-6318432D02*
X15965000Y-6303432D01*
X15950000Y-6288432D01*
X15935000Y-6303432D01*
X15950000Y-6318432D01*
X15950000Y-10855932D02*
X15965000Y-10840932D01*
X15950000Y-10825932D01*
X15935000Y-10840932D01*
X15950000Y-10855932D01*
X15956000Y-13223432D02*
X15971000Y-13208432D01*
X15956000Y-13193432D01*
X15941000Y-13208432D01*
X15956000Y-13223432D01*
X15997500Y-7313432D02*
X16012500Y-7298432D01*
X15997500Y-7283432D01*
X15982500Y-7298432D01*
X15997500Y-7313432D01*
X16050000Y-12405932D02*
X16065000Y-12390932D01*
X16050000Y-12375932D01*
X16035000Y-12390932D01*
X16050000Y-12405932D01*
X16150000Y-5938432D02*
X16165000Y-5923432D01*
X16150000Y-5908432D01*
X16135000Y-5923432D01*
X16150000Y-5938432D01*
X16175000Y-7313432D02*
X16190000Y-7298432D01*
X16175000Y-7283432D01*
X16160000Y-7298432D01*
X16175000Y-7313432D01*
X16199000Y-9298432D02*
X16214000Y-9283432D01*
X16199000Y-9268432D01*
X16184000Y-9283432D01*
X16199000Y-9298432D01*
X16210000Y-12638432D02*
X16225000Y-12623432D01*
X16210000Y-12608432D01*
X16195000Y-12623432D01*
X16210000Y-12638432D01*
X16250000Y-9718432D02*
X16265000Y-9703432D01*
X16250000Y-9688432D01*
X16235000Y-9703432D01*
X16250000Y-9718432D01*
X16430000Y-6342432D02*
X16445000Y-6327432D01*
X16430000Y-6312432D01*
X16415000Y-6327432D01*
X16430000Y-6342432D01*
X16450000Y-13238432D02*
X16465000Y-13223432D01*
X16450000Y-13208432D01*
X16435000Y-13223432D01*
X16450000Y-13238432D01*
X13092500Y-9285932D02*
X13127500Y-9320932D01*
X13127500Y-9285932D02*
X13092500Y-9320932D01*
X13127500Y-9303432D02*
G75*
G02*
X13092500Y-9303432I-17500J0D01*
G01*
X13092500Y-9303432D02*
G75*
G02*
X13127500Y-9303432I17500J0D01*
G01*
X13132500Y-7185932D02*
X13167500Y-7220932D01*
X13167500Y-7185932D02*
X13132500Y-7220932D01*
X13167500Y-7203432D02*
G75*
G02*
X13132500Y-7203432I-17500J0D01*
G01*
X13132500Y-7203432D02*
G75*
G02*
X13167500Y-7203432I17500J0D01*
G01*
X13232500Y-9285932D02*
X13267500Y-9320932D01*
X13267500Y-9285932D02*
X13232500Y-9320932D01*
X13267500Y-9303432D02*
G75*
G02*
X13232500Y-9303432I-17500J0D01*
G01*
X13232500Y-9303432D02*
G75*
G02*
X13267500Y-9303432I17500J0D01*
G01*
X13302500Y-7618432D02*
X13337500Y-7653432D01*
X13337500Y-7618432D02*
X13302500Y-7653432D01*
X13337500Y-7635932D02*
G75*
G02*
X13302500Y-7635932I-17500J0D01*
G01*
X13302500Y-7635932D02*
G75*
G02*
X13337500Y-7635932I17500J0D01*
G01*
X13327500Y-9285932D02*
X13362500Y-9320932D01*
X13362500Y-9285932D02*
X13327500Y-9320932D01*
X13362500Y-9303432D02*
G75*
G02*
X13327500Y-9303432I-17500J0D01*
G01*
X13327500Y-9303432D02*
G75*
G02*
X13362500Y-9303432I17500J0D01*
G01*
X13385500Y-7088932D02*
X13420500Y-7123932D01*
X13420500Y-7088932D02*
X13385500Y-7123932D01*
X13420500Y-7106432D02*
G75*
G02*
X13385500Y-7106432I-17500J0D01*
G01*
X13385500Y-7106432D02*
G75*
G02*
X13420500Y-7106432I17500J0D01*
G01*
X13452500Y-7619682D02*
X13487500Y-7654682D01*
X13487500Y-7619682D02*
X13452500Y-7654682D01*
X13487500Y-7637182D02*
G75*
G02*
X13452500Y-7637182I-17500J0D01*
G01*
X13452500Y-7637182D02*
G75*
G02*
X13487500Y-7637182I17500J0D01*
G01*
X13470000Y-9945932D02*
X13505000Y-9980932D01*
X13505000Y-9945932D02*
X13470000Y-9980932D01*
X13505000Y-9963432D02*
G75*
G02*
X13470000Y-9963432I-17500J0D01*
G01*
X13470000Y-9963432D02*
G75*
G02*
X13505000Y-9963432I17500J0D01*
G01*
X13470000Y-10025932D02*
X13505000Y-10060932D01*
X13505000Y-10025932D02*
X13470000Y-10060932D01*
X13505000Y-10043432D02*
G75*
G02*
X13470000Y-10043432I-17500J0D01*
G01*
X13470000Y-10043432D02*
G75*
G02*
X13505000Y-10043432I17500J0D01*
G01*
X13757500Y-7415932D02*
X13792500Y-7450932D01*
X13792500Y-7415932D02*
X13757500Y-7450932D01*
X13792500Y-7433432D02*
G75*
G02*
X13757500Y-7433432I-17500J0D01*
G01*
X13757500Y-7433432D02*
G75*
G02*
X13792500Y-7433432I17500J0D01*
G01*
X13850000Y-7415932D02*
X13885000Y-7450932D01*
X13885000Y-7415932D02*
X13850000Y-7450932D01*
X13885000Y-7433432D02*
G75*
G02*
X13850000Y-7433432I-17500J0D01*
G01*
X13850000Y-7433432D02*
G75*
G02*
X13885000Y-7433432I17500J0D01*
G01*
X14012500Y-7099932D02*
X14047500Y-7134932D01*
X14047500Y-7099932D02*
X14012500Y-7134932D01*
X14047500Y-7117432D02*
G75*
G02*
X14012500Y-7117432I-17500J0D01*
G01*
X14012500Y-7117432D02*
G75*
G02*
X14047500Y-7117432I17500J0D01*
G01*
X14032000Y-6585932D02*
X14067000Y-6620932D01*
X14067000Y-6585932D02*
X14032000Y-6620932D01*
X14067000Y-6603432D02*
G75*
G02*
X14032000Y-6603432I-17500J0D01*
G01*
X14032000Y-6603432D02*
G75*
G02*
X14067000Y-6603432I17500J0D01*
G01*
X14058500Y-11583432D02*
X14093500Y-11618432D01*
X14093500Y-11583432D02*
X14058500Y-11618432D01*
X14093500Y-11600932D02*
G75*
G02*
X14058500Y-11600932I-17500J0D01*
G01*
X14058500Y-11600932D02*
G75*
G02*
X14093500Y-11600932I17500J0D01*
G01*
X14152500Y-8488932D02*
X14187500Y-8523932D01*
X14187500Y-8488932D02*
X14152500Y-8523932D01*
X14187500Y-8506432D02*
G75*
G02*
X14152500Y-8506432I-17500J0D01*
G01*
X14152500Y-8506432D02*
G75*
G02*
X14187500Y-8506432I17500J0D01*
G01*
X14187500Y-6745932D02*
X14222500Y-6780932D01*
X14222500Y-6745932D02*
X14187500Y-6780932D01*
X14222500Y-6763432D02*
G75*
G02*
X14187500Y-6763432I-17500J0D01*
G01*
X14187500Y-6763432D02*
G75*
G02*
X14222500Y-6763432I17500J0D01*
G01*
X14392500Y-6615932D02*
X14427500Y-6650932D01*
X14427500Y-6615932D02*
X14392500Y-6650932D01*
X14427500Y-6633432D02*
G75*
G02*
X14392500Y-6633432I-17500J0D01*
G01*
X14392500Y-6633432D02*
G75*
G02*
X14427500Y-6633432I17500J0D01*
G01*
X14392500Y-6930932D02*
X14427500Y-6965932D01*
X14427500Y-6930932D02*
X14392500Y-6965932D01*
X14427500Y-6948432D02*
G75*
G02*
X14392500Y-6948432I-17500J0D01*
G01*
X14392500Y-6948432D02*
G75*
G02*
X14427500Y-6948432I17500J0D01*
G01*
X14412500Y-6279932D02*
X14447500Y-6314932D01*
X14447500Y-6279932D02*
X14412500Y-6314932D01*
X14447500Y-6297432D02*
G75*
G02*
X14412500Y-6297432I-17500J0D01*
G01*
X14412500Y-6297432D02*
G75*
G02*
X14447500Y-6297432I17500J0D01*
G01*
X14472500Y-7083682D02*
X14507500Y-7118682D01*
X14507500Y-7083682D02*
X14472500Y-7118682D01*
X14507500Y-7101182D02*
G75*
G02*
X14472500Y-7101182I-17500J0D01*
G01*
X14472500Y-7101182D02*
G75*
G02*
X14507500Y-7101182I17500J0D01*
G01*
X14492500Y-6279932D02*
X14527500Y-6314932D01*
X14527500Y-6279932D02*
X14492500Y-6314932D01*
X14527500Y-6297432D02*
G75*
G02*
X14492500Y-6297432I-17500J0D01*
G01*
X14492500Y-6297432D02*
G75*
G02*
X14527500Y-6297432I17500J0D01*
G01*
X14520500Y-6613932D02*
X14555500Y-6648932D01*
X14555500Y-6613932D02*
X14520500Y-6648932D01*
X14555500Y-6631432D02*
G75*
G02*
X14520500Y-6631432I-17500J0D01*
G01*
X14520500Y-6631432D02*
G75*
G02*
X14555500Y-6631432I17500J0D01*
G01*
X14561500Y-7083932D02*
X14596500Y-7118932D01*
X14596500Y-7083932D02*
X14561500Y-7118932D01*
X14596500Y-7101432D02*
G75*
G02*
X14561500Y-7101432I-17500J0D01*
G01*
X14561500Y-7101432D02*
G75*
G02*
X14596500Y-7101432I17500J0D01*
G01*
X14700000Y-9410932D02*
X14735000Y-9445932D01*
X14735000Y-9410932D02*
X14700000Y-9445932D01*
X14735000Y-9428432D02*
G75*
G02*
X14700000Y-9428432I-17500J0D01*
G01*
X14700000Y-9428432D02*
G75*
G02*
X14735000Y-9428432I17500J0D01*
G01*
X14972500Y-6279932D02*
X15007500Y-6314932D01*
X15007500Y-6279932D02*
X14972500Y-6314932D01*
X15007500Y-6297432D02*
G75*
G02*
X14972500Y-6297432I-17500J0D01*
G01*
X14972500Y-6297432D02*
G75*
G02*
X15007500Y-6297432I17500J0D01*
G01*
X14972500Y-6390932D02*
X15007500Y-6425932D01*
X15007500Y-6390932D02*
X14972500Y-6425932D01*
X15007500Y-6408432D02*
G75*
G02*
X14972500Y-6408432I-17500J0D01*
G01*
X14972500Y-6408432D02*
G75*
G02*
X15007500Y-6408432I17500J0D01*
G01*
X14972500Y-6454932D02*
X15007500Y-6489932D01*
X15007500Y-6454932D02*
X14972500Y-6489932D01*
X15007500Y-6472432D02*
G75*
G02*
X14972500Y-6472432I-17500J0D01*
G01*
X14972500Y-6472432D02*
G75*
G02*
X15007500Y-6472432I17500J0D01*
G01*
X15032500Y-7395932D02*
X15067500Y-7430932D01*
X15067500Y-7395932D02*
X15032500Y-7430932D01*
X15067500Y-7413432D02*
G75*
G02*
X15032500Y-7413432I-17500J0D01*
G01*
X15032500Y-7413432D02*
G75*
G02*
X15067500Y-7413432I17500J0D01*
G01*
X15052500Y-6279932D02*
X15087500Y-6314932D01*
X15087500Y-6279932D02*
X15052500Y-6314932D01*
X15087500Y-6297432D02*
G75*
G02*
X15052500Y-6297432I-17500J0D01*
G01*
X15052500Y-6297432D02*
G75*
G02*
X15087500Y-6297432I17500J0D01*
G01*
X15262500Y-7008432D02*
X15297500Y-7043432D01*
X15297500Y-7008432D02*
X15262500Y-7043432D01*
X15297500Y-7025932D02*
G75*
G02*
X15262500Y-7025932I-17500J0D01*
G01*
X15262500Y-7025932D02*
G75*
G02*
X15297500Y-7025932I17500J0D01*
G01*
X15312500Y-7185932D02*
X15347500Y-7220932D01*
X15347500Y-7185932D02*
X15312500Y-7220932D01*
X15347500Y-7203432D02*
G75*
G02*
X15312500Y-7203432I-17500J0D01*
G01*
X15312500Y-7203432D02*
G75*
G02*
X15347500Y-7203432I17500J0D01*
G01*
X15400304Y-8193932D02*
X15435304Y-8228932D01*
X15435304Y-8193932D02*
X15400304Y-8228932D01*
X15435304Y-8211432D02*
G75*
G02*
X15400304Y-8211432I-17500J0D01*
G01*
X15400304Y-8211432D02*
G75*
G02*
X15435304Y-8211432I17500J0D01*
G01*
X15537500Y-6850932D02*
X15572500Y-6885932D01*
X15572500Y-6850932D02*
X15537500Y-6885932D01*
X15572500Y-6868432D02*
G75*
G02*
X15537500Y-6868432I-17500J0D01*
G01*
X15537500Y-6868432D02*
G75*
G02*
X15572500Y-6868432I17500J0D01*
G01*
X15642500Y-7008432D02*
X15677500Y-7043432D01*
X15677500Y-7008432D02*
X15642500Y-7043432D01*
X15677500Y-7025932D02*
G75*
G02*
X15642500Y-7025932I-17500J0D01*
G01*
X15642500Y-7025932D02*
G75*
G02*
X15677500Y-7025932I17500J0D01*
G01*
X15687500Y-7994932D02*
X15722500Y-8029932D01*
X15722500Y-7994932D02*
X15687500Y-8029932D01*
X15722500Y-8012432D02*
G75*
G02*
X15687500Y-8012432I-17500J0D01*
G01*
X15687500Y-8012432D02*
G75*
G02*
X15722500Y-8012432I17500J0D01*
G01*
X15687500Y-8094932D02*
X15722500Y-8129932D01*
X15722500Y-8094932D02*
X15687500Y-8129932D01*
X15722500Y-8112432D02*
G75*
G02*
X15687500Y-8112432I-17500J0D01*
G01*
X15687500Y-8112432D02*
G75*
G02*
X15722500Y-8112432I17500J0D01*
G01*
X16367500Y-6950932D02*
X16402500Y-6985932D01*
X16402500Y-6950932D02*
X16367500Y-6985932D01*
X16402500Y-6968432D02*
G75*
G02*
X16367500Y-6968432I-17500J0D01*
G01*
X16367500Y-6968432D02*
G75*
G02*
X16402500Y-6968432I17500J0D01*
G01*
X16367500Y-7510932D02*
X16402500Y-7545932D01*
X16402500Y-7510932D02*
X16367500Y-7545932D01*
X16402500Y-7528432D02*
G75*
G02*
X16367500Y-7528432I-17500J0D01*
G01*
X16367500Y-7528432D02*
G75*
G02*
X16402500Y-7528432I17500J0D01*
G01*
X16432500Y-6785932D02*
X16467500Y-6820932D01*
X16467500Y-6785932D02*
X16432500Y-6820932D01*
X16467500Y-6803432D02*
G75*
G02*
X16432500Y-6803432I-17500J0D01*
G01*
X16432500Y-6803432D02*
G75*
G02*
X16467500Y-6803432I17500J0D01*
G01*
X13861500Y-9591932D02*
X13901500Y-9631932D01*
X13901500Y-9591932D02*
X13861500Y-9631932D01*
X13881500Y-9591932D02*
X13881500Y-9631932D01*
X13861500Y-9611932D02*
X13901500Y-9611932D01*
X14330000Y-11642432D02*
X14370000Y-11682432D01*
X14370000Y-11642432D02*
X14330000Y-11682432D01*
X14350000Y-11642432D02*
X14350000Y-11682432D01*
X14330000Y-11662432D02*
X14370000Y-11662432D01*
X14288000Y-5786932D02*
X14348000Y-5846932D01*
X14348000Y-5786932D02*
X14288000Y-5846932D01*
X14339213Y-5838145D02*
X14339213Y-5795719D01*
X14296787Y-5795719D01*
X14296787Y-5838145D01*
X14339213Y-5838145D01*
X14348000Y-5856932D02*
X14348000Y-5776932D01*
X14288000Y-5776932D02*
G75*
G02*
X14348000Y-5776932I30000J0D01*
G01*
X14288000Y-5776932D02*
X14288000Y-5856932D01*
X14288000Y-5856932D02*
G75*
G03*
X14348000Y-5856932I30000J0D01*
G01*
X14288000Y-6204932D02*
X14348000Y-6264932D01*
X14348000Y-6204932D02*
X14288000Y-6264932D01*
X14339213Y-6256145D02*
X14339213Y-6213719D01*
X14296787Y-6213719D01*
X14296787Y-6256145D01*
X14339213Y-6256145D01*
X14348000Y-6289932D02*
X14348000Y-6179932D01*
X14288000Y-6179932D02*
G75*
G02*
X14348000Y-6179932I30000J0D01*
G01*
X14288000Y-6179932D02*
X14288000Y-6289932D01*
X14288000Y-6289932D02*
G75*
G03*
X14348000Y-6289932I30000J0D01*
G01*
X15152000Y-5786932D02*
X15212000Y-5846932D01*
X15212000Y-5786932D02*
X15152000Y-5846932D01*
X15203213Y-5838145D02*
X15203213Y-5795719D01*
X15160787Y-5795719D01*
X15160787Y-5838145D01*
X15203213Y-5838145D01*
X15212000Y-5856932D02*
X15212000Y-5776932D01*
X15152000Y-5776932D02*
G75*
G02*
X15212000Y-5776932I30000J0D01*
G01*
X15152000Y-5776932D02*
X15152000Y-5856932D01*
X15152000Y-5856932D02*
G75*
G03*
X15212000Y-5856932I30000J0D01*
G01*
X15152000Y-6204932D02*
X15212000Y-6264932D01*
X15212000Y-6204932D02*
X15152000Y-6264932D01*
X15203213Y-6256145D02*
X15203213Y-6213719D01*
X15160787Y-6213719D01*
X15160787Y-6256145D01*
X15203213Y-6256145D01*
X15212000Y-6289932D02*
X15212000Y-6179932D01*
X15152000Y-6179932D02*
G75*
G02*
X15212000Y-6179932I30000J0D01*
G01*
X15152000Y-6179932D02*
X15152000Y-6289932D01*
X15152000Y-6289932D02*
G75*
G03*
X15212000Y-6289932I30000J0D01*
G01*
D13*
X13140000Y-6407664D02*
X13460000Y-6727664D01*
X13460000Y-6407664D02*
X13140000Y-6727664D01*
X13300000Y-6727664D02*
X13460000Y-6567664D01*
X13300000Y-6407664D01*
X13140000Y-6567664D01*
X13300000Y-6727664D01*
X13140000Y-12815164D02*
X13460000Y-13135164D01*
X13460000Y-12815164D02*
X13140000Y-13135164D01*
X13300000Y-13135164D02*
X13460000Y-12975164D01*
X13300000Y-12815164D01*
X13140000Y-12975164D01*
X13300000Y-13135164D01*
X16040000Y-6407664D02*
X16360000Y-6727664D01*
X16360000Y-6407664D02*
X16040000Y-6727664D01*
X16200000Y-6727664D02*
X16360000Y-6567664D01*
X16200000Y-6407664D01*
X16040000Y-6567664D01*
X16200000Y-6727664D01*
X16040000Y-12815164D02*
X16360000Y-13135164D01*
X16360000Y-12815164D02*
X16040000Y-13135164D01*
X16200000Y-13135164D02*
X16360000Y-12975164D01*
X16200000Y-12815164D01*
X16040000Y-12975164D01*
X16200000Y-13135164D01*
D11*
X13207815Y-13630136D02*
X13207815Y-13430136D01*
X13207815Y-13430136D02*
X13255434Y-13430136D01*
X13255434Y-13430136D02*
X13284005Y-13439660D01*
X13284005Y-13439660D02*
X13303053Y-13458708D01*
X13303053Y-13458708D02*
X13312577Y-13477755D01*
X13312577Y-13477755D02*
X13322101Y-13515851D01*
X13322101Y-13515851D02*
X13322101Y-13544422D01*
X13322101Y-13544422D02*
X13312577Y-13582517D01*
X13312577Y-13582517D02*
X13303053Y-13601565D01*
X13303053Y-13601565D02*
X13284005Y-13620613D01*
X13284005Y-13620613D02*
X13255434Y-13630136D01*
X13255434Y-13630136D02*
X13207815Y-13630136D01*
X13407815Y-13630136D02*
X13407815Y-13496803D01*
X13407815Y-13534898D02*
X13417339Y-13515851D01*
X13417339Y-13515851D02*
X13426862Y-13506327D01*
X13426862Y-13506327D02*
X13445910Y-13496803D01*
X13445910Y-13496803D02*
X13464958Y-13496803D01*
X13531624Y-13630136D02*
X13531624Y-13496803D01*
X13531624Y-13430136D02*
X13522101Y-13439660D01*
X13522101Y-13439660D02*
X13531624Y-13449184D01*
X13531624Y-13449184D02*
X13541148Y-13439660D01*
X13541148Y-13439660D02*
X13531624Y-13430136D01*
X13531624Y-13430136D02*
X13531624Y-13449184D01*
X13655434Y-13630136D02*
X13636386Y-13620613D01*
X13636386Y-13620613D02*
X13626862Y-13601565D01*
X13626862Y-13601565D02*
X13626862Y-13430136D01*
X13760196Y-13630136D02*
X13741148Y-13620613D01*
X13741148Y-13620613D02*
X13731624Y-13601565D01*
X13731624Y-13601565D02*
X13731624Y-13430136D01*
X13988767Y-13630136D02*
X13988767Y-13430136D01*
X13988767Y-13430136D02*
X14055434Y-13572994D01*
X14055434Y-13572994D02*
X14122101Y-13430136D01*
X14122101Y-13430136D02*
X14122101Y-13630136D01*
X14303053Y-13630136D02*
X14303053Y-13525375D01*
X14303053Y-13525375D02*
X14293529Y-13506327D01*
X14293529Y-13506327D02*
X14274482Y-13496803D01*
X14274482Y-13496803D02*
X14236386Y-13496803D01*
X14236386Y-13496803D02*
X14217339Y-13506327D01*
X14303053Y-13620613D02*
X14284005Y-13630136D01*
X14284005Y-13630136D02*
X14236386Y-13630136D01*
X14236386Y-13630136D02*
X14217339Y-13620613D01*
X14217339Y-13620613D02*
X14207815Y-13601565D01*
X14207815Y-13601565D02*
X14207815Y-13582517D01*
X14207815Y-13582517D02*
X14217339Y-13563470D01*
X14217339Y-13563470D02*
X14236386Y-13553946D01*
X14236386Y-13553946D02*
X14284005Y-13553946D01*
X14284005Y-13553946D02*
X14303053Y-13544422D01*
X14398291Y-13496803D02*
X14398291Y-13696803D01*
X14398291Y-13506327D02*
X14417339Y-13496803D01*
X14417339Y-13496803D02*
X14455434Y-13496803D01*
X14455434Y-13496803D02*
X14474482Y-13506327D01*
X14474482Y-13506327D02*
X14484005Y-13515851D01*
X14484005Y-13515851D02*
X14493529Y-13534898D01*
X14493529Y-13534898D02*
X14493529Y-13592041D01*
X14493529Y-13592041D02*
X14484005Y-13611089D01*
X14484005Y-13611089D02*
X14474482Y-13620613D01*
X14474482Y-13620613D02*
X14455434Y-13630136D01*
X14455434Y-13630136D02*
X14417339Y-13630136D01*
X14417339Y-13630136D02*
X14398291Y-13620613D01*
X14579243Y-13611089D02*
X14588767Y-13620613D01*
X14588767Y-13620613D02*
X14579243Y-13630136D01*
X14579243Y-13630136D02*
X14569720Y-13620613D01*
X14569720Y-13620613D02*
X14579243Y-13611089D01*
X14579243Y-13611089D02*
X14579243Y-13630136D01*
X14579243Y-13506327D02*
X14588767Y-13515851D01*
X14588767Y-13515851D02*
X14579243Y-13525375D01*
X14579243Y-13525375D02*
X14569720Y-13515851D01*
X14569720Y-13515851D02*
X14579243Y-13506327D01*
X14579243Y-13506327D02*
X14579243Y-13525375D01*
D12*
X12927038Y-13948653D02*
X12947038Y-13968653D01*
X12947038Y-13948653D02*
X12927038Y-13968653D01*
D11*
X13245910Y-13850136D02*
X13264958Y-13850136D01*
X13264958Y-13850136D02*
X13284005Y-13859660D01*
X13284005Y-13859660D02*
X13293529Y-13869184D01*
X13293529Y-13869184D02*
X13303053Y-13888232D01*
X13303053Y-13888232D02*
X13312577Y-13926327D01*
X13312577Y-13926327D02*
X13312577Y-13973946D01*
X13312577Y-13973946D02*
X13303053Y-14012041D01*
X13303053Y-14012041D02*
X13293529Y-14031089D01*
X13293529Y-14031089D02*
X13284005Y-14040613D01*
X13284005Y-14040613D02*
X13264958Y-14050136D01*
X13264958Y-14050136D02*
X13245910Y-14050136D01*
X13245910Y-14050136D02*
X13226862Y-14040613D01*
X13226862Y-14040613D02*
X13217339Y-14031089D01*
X13217339Y-14031089D02*
X13207815Y-14012041D01*
X13207815Y-14012041D02*
X13198291Y-13973946D01*
X13198291Y-13973946D02*
X13198291Y-13926327D01*
X13198291Y-13926327D02*
X13207815Y-13888232D01*
X13207815Y-13888232D02*
X13217339Y-13869184D01*
X13217339Y-13869184D02*
X13226862Y-13859660D01*
X13226862Y-13859660D02*
X13245910Y-13850136D01*
X13398291Y-14031089D02*
X13407815Y-14040613D01*
X13407815Y-14040613D02*
X13398291Y-14050136D01*
X13398291Y-14050136D02*
X13388767Y-14040613D01*
X13388767Y-14040613D02*
X13398291Y-14031089D01*
X13398291Y-14031089D02*
X13398291Y-14050136D01*
X13484005Y-13869184D02*
X13493529Y-13859660D01*
X13493529Y-13859660D02*
X13512577Y-13850136D01*
X13512577Y-13850136D02*
X13560196Y-13850136D01*
X13560196Y-13850136D02*
X13579243Y-13859660D01*
X13579243Y-13859660D02*
X13588767Y-13869184D01*
X13588767Y-13869184D02*
X13598291Y-13888232D01*
X13598291Y-13888232D02*
X13598291Y-13907279D01*
X13598291Y-13907279D02*
X13588767Y-13935851D01*
X13588767Y-13935851D02*
X13474482Y-14050136D01*
X13474482Y-14050136D02*
X13598291Y-14050136D01*
X13722101Y-13850136D02*
X13741148Y-13850136D01*
X13741148Y-13850136D02*
X13760196Y-13859660D01*
X13760196Y-13859660D02*
X13769720Y-13869184D01*
X13769720Y-13869184D02*
X13779243Y-13888232D01*
X13779243Y-13888232D02*
X13788767Y-13926327D01*
X13788767Y-13926327D02*
X13788767Y-13973946D01*
X13788767Y-13973946D02*
X13779243Y-14012041D01*
X13779243Y-14012041D02*
X13769720Y-14031089D01*
X13769720Y-14031089D02*
X13760196Y-14040613D01*
X13760196Y-14040613D02*
X13741148Y-14050136D01*
X13741148Y-14050136D02*
X13722101Y-14050136D01*
X13722101Y-14050136D02*
X13703053Y-14040613D01*
X13703053Y-14040613D02*
X13693529Y-14031089D01*
X13693529Y-14031089D02*
X13684005Y-14012041D01*
X13684005Y-14012041D02*
X13674482Y-13973946D01*
X13674482Y-13973946D02*
X13674482Y-13926327D01*
X13674482Y-13926327D02*
X13684005Y-13888232D01*
X13684005Y-13888232D02*
X13693529Y-13869184D01*
X13693529Y-13869184D02*
X13703053Y-13859660D01*
X13703053Y-13859660D02*
X13722101Y-13850136D01*
X13912577Y-13850136D02*
X13931624Y-13850136D01*
X13931624Y-13850136D02*
X13950672Y-13859660D01*
X13950672Y-13859660D02*
X13960196Y-13869184D01*
X13960196Y-13869184D02*
X13969720Y-13888232D01*
X13969720Y-13888232D02*
X13979243Y-13926327D01*
X13979243Y-13926327D02*
X13979243Y-13973946D01*
X13979243Y-13973946D02*
X13969720Y-14012041D01*
X13969720Y-14012041D02*
X13960196Y-14031089D01*
X13960196Y-14031089D02*
X13950672Y-14040613D01*
X13950672Y-14040613D02*
X13931624Y-14050136D01*
X13931624Y-14050136D02*
X13912577Y-14050136D01*
X13912577Y-14050136D02*
X13893529Y-14040613D01*
X13893529Y-14040613D02*
X13884005Y-14031089D01*
X13884005Y-14031089D02*
X13874482Y-14012041D01*
X13874482Y-14012041D02*
X13864958Y-13973946D01*
X13864958Y-13973946D02*
X13864958Y-13926327D01*
X13864958Y-13926327D02*
X13874482Y-13888232D01*
X13874482Y-13888232D02*
X13884005Y-13869184D01*
X13884005Y-13869184D02*
X13893529Y-13859660D01*
X13893529Y-13859660D02*
X13912577Y-13850136D01*
X14064958Y-14050136D02*
X14064958Y-13916803D01*
X14064958Y-13935851D02*
X14074482Y-13926327D01*
X14074482Y-13926327D02*
X14093529Y-13916803D01*
X14093529Y-13916803D02*
X14122101Y-13916803D01*
X14122101Y-13916803D02*
X14141148Y-13926327D01*
X14141148Y-13926327D02*
X14150672Y-13945375D01*
X14150672Y-13945375D02*
X14150672Y-14050136D01*
X14150672Y-13945375D02*
X14160196Y-13926327D01*
X14160196Y-13926327D02*
X14179243Y-13916803D01*
X14179243Y-13916803D02*
X14207815Y-13916803D01*
X14207815Y-13916803D02*
X14226863Y-13926327D01*
X14226863Y-13926327D02*
X14236386Y-13945375D01*
X14236386Y-13945375D02*
X14236386Y-14050136D01*
X14331624Y-14050136D02*
X14331624Y-13916803D01*
X14331624Y-13935851D02*
X14341148Y-13926327D01*
X14341148Y-13926327D02*
X14360196Y-13916803D01*
X14360196Y-13916803D02*
X14388767Y-13916803D01*
X14388767Y-13916803D02*
X14407815Y-13926327D01*
X14407815Y-13926327D02*
X14417339Y-13945375D01*
X14417339Y-13945375D02*
X14417339Y-14050136D01*
X14417339Y-13945375D02*
X14426863Y-13926327D01*
X14426863Y-13926327D02*
X14445910Y-13916803D01*
X14445910Y-13916803D02*
X14474482Y-13916803D01*
X14474482Y-13916803D02*
X14493529Y-13926327D01*
X14493529Y-13926327D02*
X14503053Y-13945375D01*
X14503053Y-13945375D02*
X14503053Y-14050136D01*
X14893529Y-13840613D02*
X14722101Y-14097755D01*
X15150672Y-13850136D02*
X15169720Y-13850136D01*
X15169720Y-13850136D02*
X15188767Y-13859660D01*
X15188767Y-13859660D02*
X15198291Y-13869184D01*
X15198291Y-13869184D02*
X15207815Y-13888232D01*
X15207815Y-13888232D02*
X15217339Y-13926327D01*
X15217339Y-13926327D02*
X15217339Y-13973946D01*
X15217339Y-13973946D02*
X15207815Y-14012041D01*
X15207815Y-14012041D02*
X15198291Y-14031089D01*
X15198291Y-14031089D02*
X15188767Y-14040613D01*
X15188767Y-14040613D02*
X15169720Y-14050136D01*
X15169720Y-14050136D02*
X15150672Y-14050136D01*
X15150672Y-14050136D02*
X15131625Y-14040613D01*
X15131625Y-14040613D02*
X15122101Y-14031089D01*
X15122101Y-14031089D02*
X15112577Y-14012041D01*
X15112577Y-14012041D02*
X15103053Y-13973946D01*
X15103053Y-13973946D02*
X15103053Y-13926327D01*
X15103053Y-13926327D02*
X15112577Y-13888232D01*
X15112577Y-13888232D02*
X15122101Y-13869184D01*
X15122101Y-13869184D02*
X15131625Y-13859660D01*
X15131625Y-13859660D02*
X15150672Y-13850136D01*
X15303053Y-14031089D02*
X15312577Y-14040613D01*
X15312577Y-14040613D02*
X15303053Y-14050136D01*
X15303053Y-14050136D02*
X15293529Y-14040613D01*
X15293529Y-14040613D02*
X15303053Y-14031089D01*
X15303053Y-14031089D02*
X15303053Y-14050136D01*
X15436386Y-13850136D02*
X15455434Y-13850136D01*
X15455434Y-13850136D02*
X15474482Y-13859660D01*
X15474482Y-13859660D02*
X15484006Y-13869184D01*
X15484006Y-13869184D02*
X15493529Y-13888232D01*
X15493529Y-13888232D02*
X15503053Y-13926327D01*
X15503053Y-13926327D02*
X15503053Y-13973946D01*
X15503053Y-13973946D02*
X15493529Y-14012041D01*
X15493529Y-14012041D02*
X15484006Y-14031089D01*
X15484006Y-14031089D02*
X15474482Y-14040613D01*
X15474482Y-14040613D02*
X15455434Y-14050136D01*
X15455434Y-14050136D02*
X15436386Y-14050136D01*
X15436386Y-14050136D02*
X15417339Y-14040613D01*
X15417339Y-14040613D02*
X15407815Y-14031089D01*
X15407815Y-14031089D02*
X15398291Y-14012041D01*
X15398291Y-14012041D02*
X15388767Y-13973946D01*
X15388767Y-13973946D02*
X15388767Y-13926327D01*
X15388767Y-13926327D02*
X15398291Y-13888232D01*
X15398291Y-13888232D02*
X15407815Y-13869184D01*
X15407815Y-13869184D02*
X15417339Y-13859660D01*
X15417339Y-13859660D02*
X15436386Y-13850136D01*
X15626863Y-13850136D02*
X15645910Y-13850136D01*
X15645910Y-13850136D02*
X15664958Y-13859660D01*
X15664958Y-13859660D02*
X15674482Y-13869184D01*
X15674482Y-13869184D02*
X15684006Y-13888232D01*
X15684006Y-13888232D02*
X15693529Y-13926327D01*
X15693529Y-13926327D02*
X15693529Y-13973946D01*
X15693529Y-13973946D02*
X15684006Y-14012041D01*
X15684006Y-14012041D02*
X15674482Y-14031089D01*
X15674482Y-14031089D02*
X15664958Y-14040613D01*
X15664958Y-14040613D02*
X15645910Y-14050136D01*
X15645910Y-14050136D02*
X15626863Y-14050136D01*
X15626863Y-14050136D02*
X15607815Y-14040613D01*
X15607815Y-14040613D02*
X15598291Y-14031089D01*
X15598291Y-14031089D02*
X15588767Y-14012041D01*
X15588767Y-14012041D02*
X15579244Y-13973946D01*
X15579244Y-13973946D02*
X15579244Y-13926327D01*
X15579244Y-13926327D02*
X15588767Y-13888232D01*
X15588767Y-13888232D02*
X15598291Y-13869184D01*
X15598291Y-13869184D02*
X15607815Y-13859660D01*
X15607815Y-13859660D02*
X15626863Y-13850136D01*
X15760196Y-13850136D02*
X15893529Y-13850136D01*
X15893529Y-13850136D02*
X15807815Y-14050136D01*
X15979244Y-14050136D02*
X16017339Y-14050136D01*
X16017339Y-14050136D02*
X16036387Y-14040613D01*
X16036387Y-14040613D02*
X16045910Y-14031089D01*
X16045910Y-14031089D02*
X16064958Y-14002517D01*
X16064958Y-14002517D02*
X16074482Y-13964422D01*
X16074482Y-13964422D02*
X16074482Y-13888232D01*
X16074482Y-13888232D02*
X16064958Y-13869184D01*
X16064958Y-13869184D02*
X16055434Y-13859660D01*
X16055434Y-13859660D02*
X16036387Y-13850136D01*
X16036387Y-13850136D02*
X15998291Y-13850136D01*
X15998291Y-13850136D02*
X15979244Y-13859660D01*
X15979244Y-13859660D02*
X15969720Y-13869184D01*
X15969720Y-13869184D02*
X15960196Y-13888232D01*
X15960196Y-13888232D02*
X15960196Y-13935851D01*
X15960196Y-13935851D02*
X15969720Y-13954898D01*
X15969720Y-13954898D02*
X15979244Y-13964422D01*
X15979244Y-13964422D02*
X15998291Y-13973946D01*
X15998291Y-13973946D02*
X16036387Y-13973946D01*
X16036387Y-13973946D02*
X16055434Y-13964422D01*
X16055434Y-13964422D02*
X16064958Y-13954898D01*
X16064958Y-13954898D02*
X16074482Y-13935851D01*
X16150672Y-13850136D02*
X16150672Y-13888232D01*
X16226863Y-13850136D02*
X16226863Y-13888232D01*
X16522101Y-14126327D02*
X16512577Y-14116803D01*
X16512577Y-14116803D02*
X16493529Y-14088232D01*
X16493529Y-14088232D02*
X16484006Y-14069184D01*
X16484006Y-14069184D02*
X16474482Y-14040613D01*
X16474482Y-14040613D02*
X16464958Y-13992994D01*
X16464958Y-13992994D02*
X16464958Y-13954898D01*
X16464958Y-13954898D02*
X16474482Y-13907279D01*
X16474482Y-13907279D02*
X16484006Y-13878708D01*
X16484006Y-13878708D02*
X16493529Y-13859660D01*
X16493529Y-13859660D02*
X16512577Y-13831089D01*
X16512577Y-13831089D02*
X16522101Y-13821565D01*
X16703053Y-14050136D02*
X16588768Y-14050136D01*
X16645910Y-14050136D02*
X16645910Y-13850136D01*
X16645910Y-13850136D02*
X16626863Y-13878708D01*
X16626863Y-13878708D02*
X16607815Y-13897755D01*
X16607815Y-13897755D02*
X16588768Y-13907279D01*
X16817339Y-13935851D02*
X16798291Y-13926327D01*
X16798291Y-13926327D02*
X16788768Y-13916803D01*
X16788768Y-13916803D02*
X16779244Y-13897755D01*
X16779244Y-13897755D02*
X16779244Y-13888232D01*
X16779244Y-13888232D02*
X16788768Y-13869184D01*
X16788768Y-13869184D02*
X16798291Y-13859660D01*
X16798291Y-13859660D02*
X16817339Y-13850136D01*
X16817339Y-13850136D02*
X16855434Y-13850136D01*
X16855434Y-13850136D02*
X16874482Y-13859660D01*
X16874482Y-13859660D02*
X16884006Y-13869184D01*
X16884006Y-13869184D02*
X16893530Y-13888232D01*
X16893530Y-13888232D02*
X16893530Y-13897755D01*
X16893530Y-13897755D02*
X16884006Y-13916803D01*
X16884006Y-13916803D02*
X16874482Y-13926327D01*
X16874482Y-13926327D02*
X16855434Y-13935851D01*
X16855434Y-13935851D02*
X16817339Y-13935851D01*
X16817339Y-13935851D02*
X16798291Y-13945375D01*
X16798291Y-13945375D02*
X16788768Y-13954898D01*
X16788768Y-13954898D02*
X16779244Y-13973946D01*
X16779244Y-13973946D02*
X16779244Y-14012041D01*
X16779244Y-14012041D02*
X16788768Y-14031089D01*
X16788768Y-14031089D02*
X16798291Y-14040613D01*
X16798291Y-14040613D02*
X16817339Y-14050136D01*
X16817339Y-14050136D02*
X16855434Y-14050136D01*
X16855434Y-14050136D02*
X16874482Y-14040613D01*
X16874482Y-14040613D02*
X16884006Y-14031089D01*
X16884006Y-14031089D02*
X16893530Y-14012041D01*
X16893530Y-14012041D02*
X16893530Y-13973946D01*
X16893530Y-13973946D02*
X16884006Y-13954898D01*
X16884006Y-13954898D02*
X16874482Y-13945375D01*
X16874482Y-13945375D02*
X16855434Y-13935851D01*
X17074482Y-13850136D02*
X16979244Y-13850136D01*
X16979244Y-13850136D02*
X16969720Y-13945375D01*
X16969720Y-13945375D02*
X16979244Y-13935851D01*
X16979244Y-13935851D02*
X16998291Y-13926327D01*
X16998291Y-13926327D02*
X17045911Y-13926327D01*
X17045911Y-13926327D02*
X17064958Y-13935851D01*
X17064958Y-13935851D02*
X17074482Y-13945375D01*
X17074482Y-13945375D02*
X17084006Y-13964422D01*
X17084006Y-13964422D02*
X17084006Y-14012041D01*
X17084006Y-14012041D02*
X17074482Y-14031089D01*
X17074482Y-14031089D02*
X17064958Y-14040613D01*
X17064958Y-14040613D02*
X17045911Y-14050136D01*
X17045911Y-14050136D02*
X16998291Y-14050136D01*
X16998291Y-14050136D02*
X16979244Y-14040613D01*
X16979244Y-14040613D02*
X16969720Y-14031089D01*
X17322101Y-14050136D02*
X17322101Y-13850136D01*
X17407815Y-14050136D02*
X17407815Y-13945375D01*
X17407815Y-13945375D02*
X17398292Y-13926327D01*
X17398292Y-13926327D02*
X17379244Y-13916803D01*
X17379244Y-13916803D02*
X17350672Y-13916803D01*
X17350672Y-13916803D02*
X17331625Y-13926327D01*
X17331625Y-13926327D02*
X17322101Y-13935851D01*
X17531625Y-14050136D02*
X17512577Y-14040613D01*
X17512577Y-14040613D02*
X17503053Y-14031089D01*
X17503053Y-14031089D02*
X17493530Y-14012041D01*
X17493530Y-14012041D02*
X17493530Y-13954898D01*
X17493530Y-13954898D02*
X17503053Y-13935851D01*
X17503053Y-13935851D02*
X17512577Y-13926327D01*
X17512577Y-13926327D02*
X17531625Y-13916803D01*
X17531625Y-13916803D02*
X17560196Y-13916803D01*
X17560196Y-13916803D02*
X17579244Y-13926327D01*
X17579244Y-13926327D02*
X17588768Y-13935851D01*
X17588768Y-13935851D02*
X17598292Y-13954898D01*
X17598292Y-13954898D02*
X17598292Y-14012041D01*
X17598292Y-14012041D02*
X17588768Y-14031089D01*
X17588768Y-14031089D02*
X17579244Y-14040613D01*
X17579244Y-14040613D02*
X17560196Y-14050136D01*
X17560196Y-14050136D02*
X17531625Y-14050136D01*
X17712577Y-14050136D02*
X17693530Y-14040613D01*
X17693530Y-14040613D02*
X17684006Y-14021565D01*
X17684006Y-14021565D02*
X17684006Y-13850136D01*
X17864958Y-14040613D02*
X17845911Y-14050136D01*
X17845911Y-14050136D02*
X17807815Y-14050136D01*
X17807815Y-14050136D02*
X17788768Y-14040613D01*
X17788768Y-14040613D02*
X17779244Y-14021565D01*
X17779244Y-14021565D02*
X17779244Y-13945375D01*
X17779244Y-13945375D02*
X17788768Y-13926327D01*
X17788768Y-13926327D02*
X17807815Y-13916803D01*
X17807815Y-13916803D02*
X17845911Y-13916803D01*
X17845911Y-13916803D02*
X17864958Y-13926327D01*
X17864958Y-13926327D02*
X17874482Y-13945375D01*
X17874482Y-13945375D02*
X17874482Y-13964422D01*
X17874482Y-13964422D02*
X17779244Y-13983470D01*
X17950673Y-14040613D02*
X17969720Y-14050136D01*
X17969720Y-14050136D02*
X18007815Y-14050136D01*
X18007815Y-14050136D02*
X18026863Y-14040613D01*
X18026863Y-14040613D02*
X18036387Y-14021565D01*
X18036387Y-14021565D02*
X18036387Y-14012041D01*
X18036387Y-14012041D02*
X18026863Y-13992994D01*
X18026863Y-13992994D02*
X18007815Y-13983470D01*
X18007815Y-13983470D02*
X17979244Y-13983470D01*
X17979244Y-13983470D02*
X17960196Y-13973946D01*
X17960196Y-13973946D02*
X17950673Y-13954898D01*
X17950673Y-13954898D02*
X17950673Y-13945375D01*
X17950673Y-13945375D02*
X17960196Y-13926327D01*
X17960196Y-13926327D02*
X17979244Y-13916803D01*
X17979244Y-13916803D02*
X18007815Y-13916803D01*
X18007815Y-13916803D02*
X18026863Y-13926327D01*
X18103054Y-14126327D02*
X18112577Y-14116803D01*
X18112577Y-14116803D02*
X18131625Y-14088232D01*
X18131625Y-14088232D02*
X18141149Y-14069184D01*
X18141149Y-14069184D02*
X18150673Y-14040613D01*
X18150673Y-14040613D02*
X18160196Y-13992994D01*
X18160196Y-13992994D02*
X18160196Y-13954898D01*
X18160196Y-13954898D02*
X18150673Y-13907279D01*
X18150673Y-13907279D02*
X18141149Y-13878708D01*
X18141149Y-13878708D02*
X18131625Y-13859660D01*
X18131625Y-13859660D02*
X18112577Y-13831089D01*
X18112577Y-13831089D02*
X18103054Y-13821565D01*
D12*
X12947038Y-14222653D02*
G75*
G02*
X12927038Y-14222653I-10000J0D01*
G01*
X12927038Y-14222653D02*
G75*
G02*
X12947038Y-14222653I10000J0D01*
G01*
D11*
X13245910Y-14114136D02*
X13264958Y-14114136D01*
X13264958Y-14114136D02*
X13284005Y-14123660D01*
X13284005Y-14123660D02*
X13293529Y-14133184D01*
X13293529Y-14133184D02*
X13303053Y-14152232D01*
X13303053Y-14152232D02*
X13312577Y-14190327D01*
X13312577Y-14190327D02*
X13312577Y-14237946D01*
X13312577Y-14237946D02*
X13303053Y-14276041D01*
X13303053Y-14276041D02*
X13293529Y-14295089D01*
X13293529Y-14295089D02*
X13284005Y-14304613D01*
X13284005Y-14304613D02*
X13264958Y-14314136D01*
X13264958Y-14314136D02*
X13245910Y-14314136D01*
X13245910Y-14314136D02*
X13226862Y-14304613D01*
X13226862Y-14304613D02*
X13217339Y-14295089D01*
X13217339Y-14295089D02*
X13207815Y-14276041D01*
X13207815Y-14276041D02*
X13198291Y-14237946D01*
X13198291Y-14237946D02*
X13198291Y-14190327D01*
X13198291Y-14190327D02*
X13207815Y-14152232D01*
X13207815Y-14152232D02*
X13217339Y-14133184D01*
X13217339Y-14133184D02*
X13226862Y-14123660D01*
X13226862Y-14123660D02*
X13245910Y-14114136D01*
X13398291Y-14295089D02*
X13407815Y-14304613D01*
X13407815Y-14304613D02*
X13398291Y-14314136D01*
X13398291Y-14314136D02*
X13388767Y-14304613D01*
X13388767Y-14304613D02*
X13398291Y-14295089D01*
X13398291Y-14295089D02*
X13398291Y-14314136D01*
X13484005Y-14133184D02*
X13493529Y-14123660D01*
X13493529Y-14123660D02*
X13512577Y-14114136D01*
X13512577Y-14114136D02*
X13560196Y-14114136D01*
X13560196Y-14114136D02*
X13579243Y-14123660D01*
X13579243Y-14123660D02*
X13588767Y-14133184D01*
X13588767Y-14133184D02*
X13598291Y-14152232D01*
X13598291Y-14152232D02*
X13598291Y-14171279D01*
X13598291Y-14171279D02*
X13588767Y-14199851D01*
X13588767Y-14199851D02*
X13474482Y-14314136D01*
X13474482Y-14314136D02*
X13598291Y-14314136D01*
X13722101Y-14114136D02*
X13741148Y-14114136D01*
X13741148Y-14114136D02*
X13760196Y-14123660D01*
X13760196Y-14123660D02*
X13769720Y-14133184D01*
X13769720Y-14133184D02*
X13779243Y-14152232D01*
X13779243Y-14152232D02*
X13788767Y-14190327D01*
X13788767Y-14190327D02*
X13788767Y-14237946D01*
X13788767Y-14237946D02*
X13779243Y-14276041D01*
X13779243Y-14276041D02*
X13769720Y-14295089D01*
X13769720Y-14295089D02*
X13760196Y-14304613D01*
X13760196Y-14304613D02*
X13741148Y-14314136D01*
X13741148Y-14314136D02*
X13722101Y-14314136D01*
X13722101Y-14314136D02*
X13703053Y-14304613D01*
X13703053Y-14304613D02*
X13693529Y-14295089D01*
X13693529Y-14295089D02*
X13684005Y-14276041D01*
X13684005Y-14276041D02*
X13674482Y-14237946D01*
X13674482Y-14237946D02*
X13674482Y-14190327D01*
X13674482Y-14190327D02*
X13684005Y-14152232D01*
X13684005Y-14152232D02*
X13693529Y-14133184D01*
X13693529Y-14133184D02*
X13703053Y-14123660D01*
X13703053Y-14123660D02*
X13722101Y-14114136D01*
X13912577Y-14114136D02*
X13931624Y-14114136D01*
X13931624Y-14114136D02*
X13950672Y-14123660D01*
X13950672Y-14123660D02*
X13960196Y-14133184D01*
X13960196Y-14133184D02*
X13969720Y-14152232D01*
X13969720Y-14152232D02*
X13979243Y-14190327D01*
X13979243Y-14190327D02*
X13979243Y-14237946D01*
X13979243Y-14237946D02*
X13969720Y-14276041D01*
X13969720Y-14276041D02*
X13960196Y-14295089D01*
X13960196Y-14295089D02*
X13950672Y-14304613D01*
X13950672Y-14304613D02*
X13931624Y-14314136D01*
X13931624Y-14314136D02*
X13912577Y-14314136D01*
X13912577Y-14314136D02*
X13893529Y-14304613D01*
X13893529Y-14304613D02*
X13884005Y-14295089D01*
X13884005Y-14295089D02*
X13874482Y-14276041D01*
X13874482Y-14276041D02*
X13864958Y-14237946D01*
X13864958Y-14237946D02*
X13864958Y-14190327D01*
X13864958Y-14190327D02*
X13874482Y-14152232D01*
X13874482Y-14152232D02*
X13884005Y-14133184D01*
X13884005Y-14133184D02*
X13893529Y-14123660D01*
X13893529Y-14123660D02*
X13912577Y-14114136D01*
X14064958Y-14314136D02*
X14064958Y-14180803D01*
X14064958Y-14199851D02*
X14074482Y-14190327D01*
X14074482Y-14190327D02*
X14093529Y-14180803D01*
X14093529Y-14180803D02*
X14122101Y-14180803D01*
X14122101Y-14180803D02*
X14141148Y-14190327D01*
X14141148Y-14190327D02*
X14150672Y-14209375D01*
X14150672Y-14209375D02*
X14150672Y-14314136D01*
X14150672Y-14209375D02*
X14160196Y-14190327D01*
X14160196Y-14190327D02*
X14179243Y-14180803D01*
X14179243Y-14180803D02*
X14207815Y-14180803D01*
X14207815Y-14180803D02*
X14226863Y-14190327D01*
X14226863Y-14190327D02*
X14236386Y-14209375D01*
X14236386Y-14209375D02*
X14236386Y-14314136D01*
X14331624Y-14314136D02*
X14331624Y-14180803D01*
X14331624Y-14199851D02*
X14341148Y-14190327D01*
X14341148Y-14190327D02*
X14360196Y-14180803D01*
X14360196Y-14180803D02*
X14388767Y-14180803D01*
X14388767Y-14180803D02*
X14407815Y-14190327D01*
X14407815Y-14190327D02*
X14417339Y-14209375D01*
X14417339Y-14209375D02*
X14417339Y-14314136D01*
X14417339Y-14209375D02*
X14426863Y-14190327D01*
X14426863Y-14190327D02*
X14445910Y-14180803D01*
X14445910Y-14180803D02*
X14474482Y-14180803D01*
X14474482Y-14180803D02*
X14493529Y-14190327D01*
X14493529Y-14190327D02*
X14503053Y-14209375D01*
X14503053Y-14209375D02*
X14503053Y-14314136D01*
X14893529Y-14104613D02*
X14722101Y-14361755D01*
X15150672Y-14114136D02*
X15169720Y-14114136D01*
X15169720Y-14114136D02*
X15188767Y-14123660D01*
X15188767Y-14123660D02*
X15198291Y-14133184D01*
X15198291Y-14133184D02*
X15207815Y-14152232D01*
X15207815Y-14152232D02*
X15217339Y-14190327D01*
X15217339Y-14190327D02*
X15217339Y-14237946D01*
X15217339Y-14237946D02*
X15207815Y-14276041D01*
X15207815Y-14276041D02*
X15198291Y-14295089D01*
X15198291Y-14295089D02*
X15188767Y-14304613D01*
X15188767Y-14304613D02*
X15169720Y-14314136D01*
X15169720Y-14314136D02*
X15150672Y-14314136D01*
X15150672Y-14314136D02*
X15131625Y-14304613D01*
X15131625Y-14304613D02*
X15122101Y-14295089D01*
X15122101Y-14295089D02*
X15112577Y-14276041D01*
X15112577Y-14276041D02*
X15103053Y-14237946D01*
X15103053Y-14237946D02*
X15103053Y-14190327D01*
X15103053Y-14190327D02*
X15112577Y-14152232D01*
X15112577Y-14152232D02*
X15122101Y-14133184D01*
X15122101Y-14133184D02*
X15131625Y-14123660D01*
X15131625Y-14123660D02*
X15150672Y-14114136D01*
X15303053Y-14295089D02*
X15312577Y-14304613D01*
X15312577Y-14304613D02*
X15303053Y-14314136D01*
X15303053Y-14314136D02*
X15293529Y-14304613D01*
X15293529Y-14304613D02*
X15303053Y-14295089D01*
X15303053Y-14295089D02*
X15303053Y-14314136D01*
X15436386Y-14114136D02*
X15455434Y-14114136D01*
X15455434Y-14114136D02*
X15474482Y-14123660D01*
X15474482Y-14123660D02*
X15484006Y-14133184D01*
X15484006Y-14133184D02*
X15493529Y-14152232D01*
X15493529Y-14152232D02*
X15503053Y-14190327D01*
X15503053Y-14190327D02*
X15503053Y-14237946D01*
X15503053Y-14237946D02*
X15493529Y-14276041D01*
X15493529Y-14276041D02*
X15484006Y-14295089D01*
X15484006Y-14295089D02*
X15474482Y-14304613D01*
X15474482Y-14304613D02*
X15455434Y-14314136D01*
X15455434Y-14314136D02*
X15436386Y-14314136D01*
X15436386Y-14314136D02*
X15417339Y-14304613D01*
X15417339Y-14304613D02*
X15407815Y-14295089D01*
X15407815Y-14295089D02*
X15398291Y-14276041D01*
X15398291Y-14276041D02*
X15388767Y-14237946D01*
X15388767Y-14237946D02*
X15388767Y-14190327D01*
X15388767Y-14190327D02*
X15398291Y-14152232D01*
X15398291Y-14152232D02*
X15407815Y-14133184D01*
X15407815Y-14133184D02*
X15417339Y-14123660D01*
X15417339Y-14123660D02*
X15436386Y-14114136D01*
X15626863Y-14114136D02*
X15645910Y-14114136D01*
X15645910Y-14114136D02*
X15664958Y-14123660D01*
X15664958Y-14123660D02*
X15674482Y-14133184D01*
X15674482Y-14133184D02*
X15684006Y-14152232D01*
X15684006Y-14152232D02*
X15693529Y-14190327D01*
X15693529Y-14190327D02*
X15693529Y-14237946D01*
X15693529Y-14237946D02*
X15684006Y-14276041D01*
X15684006Y-14276041D02*
X15674482Y-14295089D01*
X15674482Y-14295089D02*
X15664958Y-14304613D01*
X15664958Y-14304613D02*
X15645910Y-14314136D01*
X15645910Y-14314136D02*
X15626863Y-14314136D01*
X15626863Y-14314136D02*
X15607815Y-14304613D01*
X15607815Y-14304613D02*
X15598291Y-14295089D01*
X15598291Y-14295089D02*
X15588767Y-14276041D01*
X15588767Y-14276041D02*
X15579244Y-14237946D01*
X15579244Y-14237946D02*
X15579244Y-14190327D01*
X15579244Y-14190327D02*
X15588767Y-14152232D01*
X15588767Y-14152232D02*
X15598291Y-14133184D01*
X15598291Y-14133184D02*
X15607815Y-14123660D01*
X15607815Y-14123660D02*
X15626863Y-14114136D01*
X15760196Y-14114136D02*
X15893529Y-14114136D01*
X15893529Y-14114136D02*
X15807815Y-14314136D01*
X15979244Y-14314136D02*
X16017339Y-14314136D01*
X16017339Y-14314136D02*
X16036387Y-14304613D01*
X16036387Y-14304613D02*
X16045910Y-14295089D01*
X16045910Y-14295089D02*
X16064958Y-14266517D01*
X16064958Y-14266517D02*
X16074482Y-14228422D01*
X16074482Y-14228422D02*
X16074482Y-14152232D01*
X16074482Y-14152232D02*
X16064958Y-14133184D01*
X16064958Y-14133184D02*
X16055434Y-14123660D01*
X16055434Y-14123660D02*
X16036387Y-14114136D01*
X16036387Y-14114136D02*
X15998291Y-14114136D01*
X15998291Y-14114136D02*
X15979244Y-14123660D01*
X15979244Y-14123660D02*
X15969720Y-14133184D01*
X15969720Y-14133184D02*
X15960196Y-14152232D01*
X15960196Y-14152232D02*
X15960196Y-14199851D01*
X15960196Y-14199851D02*
X15969720Y-14218898D01*
X15969720Y-14218898D02*
X15979244Y-14228422D01*
X15979244Y-14228422D02*
X15998291Y-14237946D01*
X15998291Y-14237946D02*
X16036387Y-14237946D01*
X16036387Y-14237946D02*
X16055434Y-14228422D01*
X16055434Y-14228422D02*
X16064958Y-14218898D01*
X16064958Y-14218898D02*
X16074482Y-14199851D01*
X16150672Y-14114136D02*
X16150672Y-14152232D01*
X16226863Y-14114136D02*
X16226863Y-14152232D01*
X16522101Y-14390327D02*
X16512577Y-14380803D01*
X16512577Y-14380803D02*
X16493529Y-14352232D01*
X16493529Y-14352232D02*
X16484006Y-14333184D01*
X16484006Y-14333184D02*
X16474482Y-14304613D01*
X16474482Y-14304613D02*
X16464958Y-14256994D01*
X16464958Y-14256994D02*
X16464958Y-14218898D01*
X16464958Y-14218898D02*
X16474482Y-14171279D01*
X16474482Y-14171279D02*
X16484006Y-14142708D01*
X16484006Y-14142708D02*
X16493529Y-14123660D01*
X16493529Y-14123660D02*
X16512577Y-14095089D01*
X16512577Y-14095089D02*
X16522101Y-14085565D01*
X16684006Y-14114136D02*
X16645910Y-14114136D01*
X16645910Y-14114136D02*
X16626863Y-14123660D01*
X16626863Y-14123660D02*
X16617339Y-14133184D01*
X16617339Y-14133184D02*
X16598291Y-14161755D01*
X16598291Y-14161755D02*
X16588768Y-14199851D01*
X16588768Y-14199851D02*
X16588768Y-14276041D01*
X16588768Y-14276041D02*
X16598291Y-14295089D01*
X16598291Y-14295089D02*
X16607815Y-14304613D01*
X16607815Y-14304613D02*
X16626863Y-14314136D01*
X16626863Y-14314136D02*
X16664958Y-14314136D01*
X16664958Y-14314136D02*
X16684006Y-14304613D01*
X16684006Y-14304613D02*
X16693529Y-14295089D01*
X16693529Y-14295089D02*
X16703053Y-14276041D01*
X16703053Y-14276041D02*
X16703053Y-14228422D01*
X16703053Y-14228422D02*
X16693529Y-14209375D01*
X16693529Y-14209375D02*
X16684006Y-14199851D01*
X16684006Y-14199851D02*
X16664958Y-14190327D01*
X16664958Y-14190327D02*
X16626863Y-14190327D01*
X16626863Y-14190327D02*
X16607815Y-14199851D01*
X16607815Y-14199851D02*
X16598291Y-14209375D01*
X16598291Y-14209375D02*
X16588768Y-14228422D01*
X16941149Y-14314136D02*
X16941149Y-14114136D01*
X17026863Y-14314136D02*
X17026863Y-14209375D01*
X17026863Y-14209375D02*
X17017339Y-14190327D01*
X17017339Y-14190327D02*
X16998292Y-14180803D01*
X16998292Y-14180803D02*
X16969720Y-14180803D01*
X16969720Y-14180803D02*
X16950672Y-14190327D01*
X16950672Y-14190327D02*
X16941149Y-14199851D01*
X17150672Y-14314136D02*
X17131625Y-14304613D01*
X17131625Y-14304613D02*
X17122101Y-14295089D01*
X17122101Y-14295089D02*
X17112577Y-14276041D01*
X17112577Y-14276041D02*
X17112577Y-14218898D01*
X17112577Y-14218898D02*
X17122101Y-14199851D01*
X17122101Y-14199851D02*
X17131625Y-14190327D01*
X17131625Y-14190327D02*
X17150672Y-14180803D01*
X17150672Y-14180803D02*
X17179244Y-14180803D01*
X17179244Y-14180803D02*
X17198292Y-14190327D01*
X17198292Y-14190327D02*
X17207815Y-14199851D01*
X17207815Y-14199851D02*
X17217339Y-14218898D01*
X17217339Y-14218898D02*
X17217339Y-14276041D01*
X17217339Y-14276041D02*
X17207815Y-14295089D01*
X17207815Y-14295089D02*
X17198292Y-14304613D01*
X17198292Y-14304613D02*
X17179244Y-14314136D01*
X17179244Y-14314136D02*
X17150672Y-14314136D01*
X17331625Y-14314136D02*
X17312577Y-14304613D01*
X17312577Y-14304613D02*
X17303053Y-14285565D01*
X17303053Y-14285565D02*
X17303053Y-14114136D01*
X17484006Y-14304613D02*
X17464958Y-14314136D01*
X17464958Y-14314136D02*
X17426863Y-14314136D01*
X17426863Y-14314136D02*
X17407815Y-14304613D01*
X17407815Y-14304613D02*
X17398292Y-14285565D01*
X17398292Y-14285565D02*
X17398292Y-14209375D01*
X17398292Y-14209375D02*
X17407815Y-14190327D01*
X17407815Y-14190327D02*
X17426863Y-14180803D01*
X17426863Y-14180803D02*
X17464958Y-14180803D01*
X17464958Y-14180803D02*
X17484006Y-14190327D01*
X17484006Y-14190327D02*
X17493530Y-14209375D01*
X17493530Y-14209375D02*
X17493530Y-14228422D01*
X17493530Y-14228422D02*
X17398292Y-14247470D01*
X17569720Y-14304613D02*
X17588768Y-14314136D01*
X17588768Y-14314136D02*
X17626863Y-14314136D01*
X17626863Y-14314136D02*
X17645911Y-14304613D01*
X17645911Y-14304613D02*
X17655434Y-14285565D01*
X17655434Y-14285565D02*
X17655434Y-14276041D01*
X17655434Y-14276041D02*
X17645911Y-14256994D01*
X17645911Y-14256994D02*
X17626863Y-14247470D01*
X17626863Y-14247470D02*
X17598292Y-14247470D01*
X17598292Y-14247470D02*
X17579244Y-14237946D01*
X17579244Y-14237946D02*
X17569720Y-14218898D01*
X17569720Y-14218898D02*
X17569720Y-14209375D01*
X17569720Y-14209375D02*
X17579244Y-14190327D01*
X17579244Y-14190327D02*
X17598292Y-14180803D01*
X17598292Y-14180803D02*
X17626863Y-14180803D01*
X17626863Y-14180803D02*
X17645911Y-14190327D01*
X17722101Y-14390327D02*
X17731625Y-14380803D01*
X17731625Y-14380803D02*
X17750673Y-14352232D01*
X17750673Y-14352232D02*
X17760196Y-14333184D01*
X17760196Y-14333184D02*
X17769720Y-14304613D01*
X17769720Y-14304613D02*
X17779244Y-14256994D01*
X17779244Y-14256994D02*
X17779244Y-14218898D01*
X17779244Y-14218898D02*
X17769720Y-14171279D01*
X17769720Y-14171279D02*
X17760196Y-14142708D01*
X17760196Y-14142708D02*
X17750673Y-14123660D01*
X17750673Y-14123660D02*
X17731625Y-14095089D01*
X17731625Y-14095089D02*
X17722101Y-14085565D01*
D12*
X12936878Y-14476493D02*
X12936878Y-14496813D01*
X12926718Y-14486653D02*
X12947038Y-14486653D01*
D11*
X13245910Y-14378136D02*
X13264958Y-14378136D01*
X13264958Y-14378136D02*
X13284005Y-14387660D01*
X13284005Y-14387660D02*
X13293529Y-14397184D01*
X13293529Y-14397184D02*
X13303053Y-14416232D01*
X13303053Y-14416232D02*
X13312577Y-14454327D01*
X13312577Y-14454327D02*
X13312577Y-14501946D01*
X13312577Y-14501946D02*
X13303053Y-14540041D01*
X13303053Y-14540041D02*
X13293529Y-14559089D01*
X13293529Y-14559089D02*
X13284005Y-14568613D01*
X13284005Y-14568613D02*
X13264958Y-14578136D01*
X13264958Y-14578136D02*
X13245910Y-14578136D01*
X13245910Y-14578136D02*
X13226862Y-14568613D01*
X13226862Y-14568613D02*
X13217339Y-14559089D01*
X13217339Y-14559089D02*
X13207815Y-14540041D01*
X13207815Y-14540041D02*
X13198291Y-14501946D01*
X13198291Y-14501946D02*
X13198291Y-14454327D01*
X13198291Y-14454327D02*
X13207815Y-14416232D01*
X13207815Y-14416232D02*
X13217339Y-14397184D01*
X13217339Y-14397184D02*
X13226862Y-14387660D01*
X13226862Y-14387660D02*
X13245910Y-14378136D01*
X13398291Y-14559089D02*
X13407815Y-14568613D01*
X13407815Y-14568613D02*
X13398291Y-14578136D01*
X13398291Y-14578136D02*
X13388767Y-14568613D01*
X13388767Y-14568613D02*
X13398291Y-14559089D01*
X13398291Y-14559089D02*
X13398291Y-14578136D01*
X13484005Y-14397184D02*
X13493529Y-14387660D01*
X13493529Y-14387660D02*
X13512577Y-14378136D01*
X13512577Y-14378136D02*
X13560196Y-14378136D01*
X13560196Y-14378136D02*
X13579243Y-14387660D01*
X13579243Y-14387660D02*
X13588767Y-14397184D01*
X13588767Y-14397184D02*
X13598291Y-14416232D01*
X13598291Y-14416232D02*
X13598291Y-14435279D01*
X13598291Y-14435279D02*
X13588767Y-14463851D01*
X13588767Y-14463851D02*
X13474482Y-14578136D01*
X13474482Y-14578136D02*
X13598291Y-14578136D01*
X13722101Y-14378136D02*
X13741148Y-14378136D01*
X13741148Y-14378136D02*
X13760196Y-14387660D01*
X13760196Y-14387660D02*
X13769720Y-14397184D01*
X13769720Y-14397184D02*
X13779243Y-14416232D01*
X13779243Y-14416232D02*
X13788767Y-14454327D01*
X13788767Y-14454327D02*
X13788767Y-14501946D01*
X13788767Y-14501946D02*
X13779243Y-14540041D01*
X13779243Y-14540041D02*
X13769720Y-14559089D01*
X13769720Y-14559089D02*
X13760196Y-14568613D01*
X13760196Y-14568613D02*
X13741148Y-14578136D01*
X13741148Y-14578136D02*
X13722101Y-14578136D01*
X13722101Y-14578136D02*
X13703053Y-14568613D01*
X13703053Y-14568613D02*
X13693529Y-14559089D01*
X13693529Y-14559089D02*
X13684005Y-14540041D01*
X13684005Y-14540041D02*
X13674482Y-14501946D01*
X13674482Y-14501946D02*
X13674482Y-14454327D01*
X13674482Y-14454327D02*
X13684005Y-14416232D01*
X13684005Y-14416232D02*
X13693529Y-14397184D01*
X13693529Y-14397184D02*
X13703053Y-14387660D01*
X13703053Y-14387660D02*
X13722101Y-14378136D01*
X13855434Y-14378136D02*
X13979243Y-14378136D01*
X13979243Y-14378136D02*
X13912577Y-14454327D01*
X13912577Y-14454327D02*
X13941148Y-14454327D01*
X13941148Y-14454327D02*
X13960196Y-14463851D01*
X13960196Y-14463851D02*
X13969720Y-14473375D01*
X13969720Y-14473375D02*
X13979243Y-14492422D01*
X13979243Y-14492422D02*
X13979243Y-14540041D01*
X13979243Y-14540041D02*
X13969720Y-14559089D01*
X13969720Y-14559089D02*
X13960196Y-14568613D01*
X13960196Y-14568613D02*
X13941148Y-14578136D01*
X13941148Y-14578136D02*
X13884005Y-14578136D01*
X13884005Y-14578136D02*
X13864958Y-14568613D01*
X13864958Y-14568613D02*
X13855434Y-14559089D01*
X14064958Y-14578136D02*
X14064958Y-14444803D01*
X14064958Y-14463851D02*
X14074482Y-14454327D01*
X14074482Y-14454327D02*
X14093529Y-14444803D01*
X14093529Y-14444803D02*
X14122101Y-14444803D01*
X14122101Y-14444803D02*
X14141148Y-14454327D01*
X14141148Y-14454327D02*
X14150672Y-14473375D01*
X14150672Y-14473375D02*
X14150672Y-14578136D01*
X14150672Y-14473375D02*
X14160196Y-14454327D01*
X14160196Y-14454327D02*
X14179243Y-14444803D01*
X14179243Y-14444803D02*
X14207815Y-14444803D01*
X14207815Y-14444803D02*
X14226863Y-14454327D01*
X14226863Y-14454327D02*
X14236386Y-14473375D01*
X14236386Y-14473375D02*
X14236386Y-14578136D01*
X14331624Y-14578136D02*
X14331624Y-14444803D01*
X14331624Y-14463851D02*
X14341148Y-14454327D01*
X14341148Y-14454327D02*
X14360196Y-14444803D01*
X14360196Y-14444803D02*
X14388767Y-14444803D01*
X14388767Y-14444803D02*
X14407815Y-14454327D01*
X14407815Y-14454327D02*
X14417339Y-14473375D01*
X14417339Y-14473375D02*
X14417339Y-14578136D01*
X14417339Y-14473375D02*
X14426863Y-14454327D01*
X14426863Y-14454327D02*
X14445910Y-14444803D01*
X14445910Y-14444803D02*
X14474482Y-14444803D01*
X14474482Y-14444803D02*
X14493529Y-14454327D01*
X14493529Y-14454327D02*
X14503053Y-14473375D01*
X14503053Y-14473375D02*
X14503053Y-14578136D01*
X14893529Y-14368613D02*
X14722101Y-14625755D01*
X15150672Y-14378136D02*
X15169720Y-14378136D01*
X15169720Y-14378136D02*
X15188767Y-14387660D01*
X15188767Y-14387660D02*
X15198291Y-14397184D01*
X15198291Y-14397184D02*
X15207815Y-14416232D01*
X15207815Y-14416232D02*
X15217339Y-14454327D01*
X15217339Y-14454327D02*
X15217339Y-14501946D01*
X15217339Y-14501946D02*
X15207815Y-14540041D01*
X15207815Y-14540041D02*
X15198291Y-14559089D01*
X15198291Y-14559089D02*
X15188767Y-14568613D01*
X15188767Y-14568613D02*
X15169720Y-14578136D01*
X15169720Y-14578136D02*
X15150672Y-14578136D01*
X15150672Y-14578136D02*
X15131625Y-14568613D01*
X15131625Y-14568613D02*
X15122101Y-14559089D01*
X15122101Y-14559089D02*
X15112577Y-14540041D01*
X15112577Y-14540041D02*
X15103053Y-14501946D01*
X15103053Y-14501946D02*
X15103053Y-14454327D01*
X15103053Y-14454327D02*
X15112577Y-14416232D01*
X15112577Y-14416232D02*
X15122101Y-14397184D01*
X15122101Y-14397184D02*
X15131625Y-14387660D01*
X15131625Y-14387660D02*
X15150672Y-14378136D01*
X15303053Y-14559089D02*
X15312577Y-14568613D01*
X15312577Y-14568613D02*
X15303053Y-14578136D01*
X15303053Y-14578136D02*
X15293529Y-14568613D01*
X15293529Y-14568613D02*
X15303053Y-14559089D01*
X15303053Y-14559089D02*
X15303053Y-14578136D01*
X15436386Y-14378136D02*
X15455434Y-14378136D01*
X15455434Y-14378136D02*
X15474482Y-14387660D01*
X15474482Y-14387660D02*
X15484006Y-14397184D01*
X15484006Y-14397184D02*
X15493529Y-14416232D01*
X15493529Y-14416232D02*
X15503053Y-14454327D01*
X15503053Y-14454327D02*
X15503053Y-14501946D01*
X15503053Y-14501946D02*
X15493529Y-14540041D01*
X15493529Y-14540041D02*
X15484006Y-14559089D01*
X15484006Y-14559089D02*
X15474482Y-14568613D01*
X15474482Y-14568613D02*
X15455434Y-14578136D01*
X15455434Y-14578136D02*
X15436386Y-14578136D01*
X15436386Y-14578136D02*
X15417339Y-14568613D01*
X15417339Y-14568613D02*
X15407815Y-14559089D01*
X15407815Y-14559089D02*
X15398291Y-14540041D01*
X15398291Y-14540041D02*
X15388767Y-14501946D01*
X15388767Y-14501946D02*
X15388767Y-14454327D01*
X15388767Y-14454327D02*
X15398291Y-14416232D01*
X15398291Y-14416232D02*
X15407815Y-14397184D01*
X15407815Y-14397184D02*
X15417339Y-14387660D01*
X15417339Y-14387660D02*
X15436386Y-14378136D01*
X15626863Y-14378136D02*
X15645910Y-14378136D01*
X15645910Y-14378136D02*
X15664958Y-14387660D01*
X15664958Y-14387660D02*
X15674482Y-14397184D01*
X15674482Y-14397184D02*
X15684006Y-14416232D01*
X15684006Y-14416232D02*
X15693529Y-14454327D01*
X15693529Y-14454327D02*
X15693529Y-14501946D01*
X15693529Y-14501946D02*
X15684006Y-14540041D01*
X15684006Y-14540041D02*
X15674482Y-14559089D01*
X15674482Y-14559089D02*
X15664958Y-14568613D01*
X15664958Y-14568613D02*
X15645910Y-14578136D01*
X15645910Y-14578136D02*
X15626863Y-14578136D01*
X15626863Y-14578136D02*
X15607815Y-14568613D01*
X15607815Y-14568613D02*
X15598291Y-14559089D01*
X15598291Y-14559089D02*
X15588767Y-14540041D01*
X15588767Y-14540041D02*
X15579244Y-14501946D01*
X15579244Y-14501946D02*
X15579244Y-14454327D01*
X15579244Y-14454327D02*
X15588767Y-14416232D01*
X15588767Y-14416232D02*
X15598291Y-14397184D01*
X15598291Y-14397184D02*
X15607815Y-14387660D01*
X15607815Y-14387660D02*
X15626863Y-14378136D01*
X15807815Y-14463851D02*
X15788767Y-14454327D01*
X15788767Y-14454327D02*
X15779244Y-14444803D01*
X15779244Y-14444803D02*
X15769720Y-14425755D01*
X15769720Y-14425755D02*
X15769720Y-14416232D01*
X15769720Y-14416232D02*
X15779244Y-14397184D01*
X15779244Y-14397184D02*
X15788767Y-14387660D01*
X15788767Y-14387660D02*
X15807815Y-14378136D01*
X15807815Y-14378136D02*
X15845910Y-14378136D01*
X15845910Y-14378136D02*
X15864958Y-14387660D01*
X15864958Y-14387660D02*
X15874482Y-14397184D01*
X15874482Y-14397184D02*
X15884006Y-14416232D01*
X15884006Y-14416232D02*
X15884006Y-14425755D01*
X15884006Y-14425755D02*
X15874482Y-14444803D01*
X15874482Y-14444803D02*
X15864958Y-14454327D01*
X15864958Y-14454327D02*
X15845910Y-14463851D01*
X15845910Y-14463851D02*
X15807815Y-14463851D01*
X15807815Y-14463851D02*
X15788767Y-14473375D01*
X15788767Y-14473375D02*
X15779244Y-14482898D01*
X15779244Y-14482898D02*
X15769720Y-14501946D01*
X15769720Y-14501946D02*
X15769720Y-14540041D01*
X15769720Y-14540041D02*
X15779244Y-14559089D01*
X15779244Y-14559089D02*
X15788767Y-14568613D01*
X15788767Y-14568613D02*
X15807815Y-14578136D01*
X15807815Y-14578136D02*
X15845910Y-14578136D01*
X15845910Y-14578136D02*
X15864958Y-14568613D01*
X15864958Y-14568613D02*
X15874482Y-14559089D01*
X15874482Y-14559089D02*
X15884006Y-14540041D01*
X15884006Y-14540041D02*
X15884006Y-14501946D01*
X15884006Y-14501946D02*
X15874482Y-14482898D01*
X15874482Y-14482898D02*
X15864958Y-14473375D01*
X15864958Y-14473375D02*
X15845910Y-14463851D01*
X16007815Y-14378136D02*
X16026863Y-14378136D01*
X16026863Y-14378136D02*
X16045910Y-14387660D01*
X16045910Y-14387660D02*
X16055434Y-14397184D01*
X16055434Y-14397184D02*
X16064958Y-14416232D01*
X16064958Y-14416232D02*
X16074482Y-14454327D01*
X16074482Y-14454327D02*
X16074482Y-14501946D01*
X16074482Y-14501946D02*
X16064958Y-14540041D01*
X16064958Y-14540041D02*
X16055434Y-14559089D01*
X16055434Y-14559089D02*
X16045910Y-14568613D01*
X16045910Y-14568613D02*
X16026863Y-14578136D01*
X16026863Y-14578136D02*
X16007815Y-14578136D01*
X16007815Y-14578136D02*
X15988767Y-14568613D01*
X15988767Y-14568613D02*
X15979244Y-14559089D01*
X15979244Y-14559089D02*
X15969720Y-14540041D01*
X15969720Y-14540041D02*
X15960196Y-14501946D01*
X15960196Y-14501946D02*
X15960196Y-14454327D01*
X15960196Y-14454327D02*
X15969720Y-14416232D01*
X15969720Y-14416232D02*
X15979244Y-14397184D01*
X15979244Y-14397184D02*
X15988767Y-14387660D01*
X15988767Y-14387660D02*
X16007815Y-14378136D01*
X16150672Y-14378136D02*
X16150672Y-14416232D01*
X16226863Y-14378136D02*
X16226863Y-14416232D01*
X16522101Y-14654327D02*
X16512577Y-14644803D01*
X16512577Y-14644803D02*
X16493529Y-14616232D01*
X16493529Y-14616232D02*
X16484006Y-14597184D01*
X16484006Y-14597184D02*
X16474482Y-14568613D01*
X16474482Y-14568613D02*
X16464958Y-14520994D01*
X16464958Y-14520994D02*
X16464958Y-14482898D01*
X16464958Y-14482898D02*
X16474482Y-14435279D01*
X16474482Y-14435279D02*
X16484006Y-14406708D01*
X16484006Y-14406708D02*
X16493529Y-14387660D01*
X16493529Y-14387660D02*
X16512577Y-14359089D01*
X16512577Y-14359089D02*
X16522101Y-14349565D01*
X16588768Y-14397184D02*
X16598291Y-14387660D01*
X16598291Y-14387660D02*
X16617339Y-14378136D01*
X16617339Y-14378136D02*
X16664958Y-14378136D01*
X16664958Y-14378136D02*
X16684006Y-14387660D01*
X16684006Y-14387660D02*
X16693529Y-14397184D01*
X16693529Y-14397184D02*
X16703053Y-14416232D01*
X16703053Y-14416232D02*
X16703053Y-14435279D01*
X16703053Y-14435279D02*
X16693529Y-14463851D01*
X16693529Y-14463851D02*
X16579244Y-14578136D01*
X16579244Y-14578136D02*
X16703053Y-14578136D01*
X16941149Y-14578136D02*
X16941149Y-14378136D01*
X17026863Y-14578136D02*
X17026863Y-14473375D01*
X17026863Y-14473375D02*
X17017339Y-14454327D01*
X17017339Y-14454327D02*
X16998292Y-14444803D01*
X16998292Y-14444803D02*
X16969720Y-14444803D01*
X16969720Y-14444803D02*
X16950672Y-14454327D01*
X16950672Y-14454327D02*
X16941149Y-14463851D01*
X17150672Y-14578136D02*
X17131625Y-14568613D01*
X17131625Y-14568613D02*
X17122101Y-14559089D01*
X17122101Y-14559089D02*
X17112577Y-14540041D01*
X17112577Y-14540041D02*
X17112577Y-14482898D01*
X17112577Y-14482898D02*
X17122101Y-14463851D01*
X17122101Y-14463851D02*
X17131625Y-14454327D01*
X17131625Y-14454327D02*
X17150672Y-14444803D01*
X17150672Y-14444803D02*
X17179244Y-14444803D01*
X17179244Y-14444803D02*
X17198292Y-14454327D01*
X17198292Y-14454327D02*
X17207815Y-14463851D01*
X17207815Y-14463851D02*
X17217339Y-14482898D01*
X17217339Y-14482898D02*
X17217339Y-14540041D01*
X17217339Y-14540041D02*
X17207815Y-14559089D01*
X17207815Y-14559089D02*
X17198292Y-14568613D01*
X17198292Y-14568613D02*
X17179244Y-14578136D01*
X17179244Y-14578136D02*
X17150672Y-14578136D01*
X17331625Y-14578136D02*
X17312577Y-14568613D01*
X17312577Y-14568613D02*
X17303053Y-14549565D01*
X17303053Y-14549565D02*
X17303053Y-14378136D01*
X17484006Y-14568613D02*
X17464958Y-14578136D01*
X17464958Y-14578136D02*
X17426863Y-14578136D01*
X17426863Y-14578136D02*
X17407815Y-14568613D01*
X17407815Y-14568613D02*
X17398292Y-14549565D01*
X17398292Y-14549565D02*
X17398292Y-14473375D01*
X17398292Y-14473375D02*
X17407815Y-14454327D01*
X17407815Y-14454327D02*
X17426863Y-14444803D01*
X17426863Y-14444803D02*
X17464958Y-14444803D01*
X17464958Y-14444803D02*
X17484006Y-14454327D01*
X17484006Y-14454327D02*
X17493530Y-14473375D01*
X17493530Y-14473375D02*
X17493530Y-14492422D01*
X17493530Y-14492422D02*
X17398292Y-14511470D01*
X17569720Y-14568613D02*
X17588768Y-14578136D01*
X17588768Y-14578136D02*
X17626863Y-14578136D01*
X17626863Y-14578136D02*
X17645911Y-14568613D01*
X17645911Y-14568613D02*
X17655434Y-14549565D01*
X17655434Y-14549565D02*
X17655434Y-14540041D01*
X17655434Y-14540041D02*
X17645911Y-14520994D01*
X17645911Y-14520994D02*
X17626863Y-14511470D01*
X17626863Y-14511470D02*
X17598292Y-14511470D01*
X17598292Y-14511470D02*
X17579244Y-14501946D01*
X17579244Y-14501946D02*
X17569720Y-14482898D01*
X17569720Y-14482898D02*
X17569720Y-14473375D01*
X17569720Y-14473375D02*
X17579244Y-14454327D01*
X17579244Y-14454327D02*
X17598292Y-14444803D01*
X17598292Y-14444803D02*
X17626863Y-14444803D01*
X17626863Y-14444803D02*
X17645911Y-14454327D01*
X17722101Y-14654327D02*
X17731625Y-14644803D01*
X17731625Y-14644803D02*
X17750673Y-14616232D01*
X17750673Y-14616232D02*
X17760196Y-14597184D01*
X17760196Y-14597184D02*
X17769720Y-14568613D01*
X17769720Y-14568613D02*
X17779244Y-14520994D01*
X17779244Y-14520994D02*
X17779244Y-14482898D01*
X17779244Y-14482898D02*
X17769720Y-14435279D01*
X17769720Y-14435279D02*
X17760196Y-14406708D01*
X17760196Y-14406708D02*
X17750673Y-14387660D01*
X17750673Y-14387660D02*
X17731625Y-14359089D01*
X17731625Y-14359089D02*
X17722101Y-14349565D01*
D12*
X12943377Y-14759492D02*
X12943377Y-14741814D01*
X12925699Y-14741814D01*
X12925699Y-14759492D01*
X12943377Y-14759492D01*
D11*
X13245910Y-14642136D02*
X13264958Y-14642136D01*
X13264958Y-14642136D02*
X13284005Y-14651660D01*
X13284005Y-14651660D02*
X13293529Y-14661184D01*
X13293529Y-14661184D02*
X13303053Y-14680232D01*
X13303053Y-14680232D02*
X13312577Y-14718327D01*
X13312577Y-14718327D02*
X13312577Y-14765946D01*
X13312577Y-14765946D02*
X13303053Y-14804041D01*
X13303053Y-14804041D02*
X13293529Y-14823089D01*
X13293529Y-14823089D02*
X13284005Y-14832613D01*
X13284005Y-14832613D02*
X13264958Y-14842136D01*
X13264958Y-14842136D02*
X13245910Y-14842136D01*
X13245910Y-14842136D02*
X13226862Y-14832613D01*
X13226862Y-14832613D02*
X13217339Y-14823089D01*
X13217339Y-14823089D02*
X13207815Y-14804041D01*
X13207815Y-14804041D02*
X13198291Y-14765946D01*
X13198291Y-14765946D02*
X13198291Y-14718327D01*
X13198291Y-14718327D02*
X13207815Y-14680232D01*
X13207815Y-14680232D02*
X13217339Y-14661184D01*
X13217339Y-14661184D02*
X13226862Y-14651660D01*
X13226862Y-14651660D02*
X13245910Y-14642136D01*
X13398291Y-14823089D02*
X13407815Y-14832613D01*
X13407815Y-14832613D02*
X13398291Y-14842136D01*
X13398291Y-14842136D02*
X13388767Y-14832613D01*
X13388767Y-14832613D02*
X13398291Y-14823089D01*
X13398291Y-14823089D02*
X13398291Y-14842136D01*
X13484005Y-14661184D02*
X13493529Y-14651660D01*
X13493529Y-14651660D02*
X13512577Y-14642136D01*
X13512577Y-14642136D02*
X13560196Y-14642136D01*
X13560196Y-14642136D02*
X13579243Y-14651660D01*
X13579243Y-14651660D02*
X13588767Y-14661184D01*
X13588767Y-14661184D02*
X13598291Y-14680232D01*
X13598291Y-14680232D02*
X13598291Y-14699279D01*
X13598291Y-14699279D02*
X13588767Y-14727851D01*
X13588767Y-14727851D02*
X13474482Y-14842136D01*
X13474482Y-14842136D02*
X13598291Y-14842136D01*
X13779243Y-14642136D02*
X13684005Y-14642136D01*
X13684005Y-14642136D02*
X13674482Y-14737375D01*
X13674482Y-14737375D02*
X13684005Y-14727851D01*
X13684005Y-14727851D02*
X13703053Y-14718327D01*
X13703053Y-14718327D02*
X13750672Y-14718327D01*
X13750672Y-14718327D02*
X13769720Y-14727851D01*
X13769720Y-14727851D02*
X13779243Y-14737375D01*
X13779243Y-14737375D02*
X13788767Y-14756422D01*
X13788767Y-14756422D02*
X13788767Y-14804041D01*
X13788767Y-14804041D02*
X13779243Y-14823089D01*
X13779243Y-14823089D02*
X13769720Y-14832613D01*
X13769720Y-14832613D02*
X13750672Y-14842136D01*
X13750672Y-14842136D02*
X13703053Y-14842136D01*
X13703053Y-14842136D02*
X13684005Y-14832613D01*
X13684005Y-14832613D02*
X13674482Y-14823089D01*
X13912577Y-14642136D02*
X13931624Y-14642136D01*
X13931624Y-14642136D02*
X13950672Y-14651660D01*
X13950672Y-14651660D02*
X13960196Y-14661184D01*
X13960196Y-14661184D02*
X13969720Y-14680232D01*
X13969720Y-14680232D02*
X13979243Y-14718327D01*
X13979243Y-14718327D02*
X13979243Y-14765946D01*
X13979243Y-14765946D02*
X13969720Y-14804041D01*
X13969720Y-14804041D02*
X13960196Y-14823089D01*
X13960196Y-14823089D02*
X13950672Y-14832613D01*
X13950672Y-14832613D02*
X13931624Y-14842136D01*
X13931624Y-14842136D02*
X13912577Y-14842136D01*
X13912577Y-14842136D02*
X13893529Y-14832613D01*
X13893529Y-14832613D02*
X13884005Y-14823089D01*
X13884005Y-14823089D02*
X13874482Y-14804041D01*
X13874482Y-14804041D02*
X13864958Y-14765946D01*
X13864958Y-14765946D02*
X13864958Y-14718327D01*
X13864958Y-14718327D02*
X13874482Y-14680232D01*
X13874482Y-14680232D02*
X13884005Y-14661184D01*
X13884005Y-14661184D02*
X13893529Y-14651660D01*
X13893529Y-14651660D02*
X13912577Y-14642136D01*
X14064958Y-14842136D02*
X14064958Y-14708803D01*
X14064958Y-14727851D02*
X14074482Y-14718327D01*
X14074482Y-14718327D02*
X14093529Y-14708803D01*
X14093529Y-14708803D02*
X14122101Y-14708803D01*
X14122101Y-14708803D02*
X14141148Y-14718327D01*
X14141148Y-14718327D02*
X14150672Y-14737375D01*
X14150672Y-14737375D02*
X14150672Y-14842136D01*
X14150672Y-14737375D02*
X14160196Y-14718327D01*
X14160196Y-14718327D02*
X14179243Y-14708803D01*
X14179243Y-14708803D02*
X14207815Y-14708803D01*
X14207815Y-14708803D02*
X14226863Y-14718327D01*
X14226863Y-14718327D02*
X14236386Y-14737375D01*
X14236386Y-14737375D02*
X14236386Y-14842136D01*
X14331624Y-14842136D02*
X14331624Y-14708803D01*
X14331624Y-14727851D02*
X14341148Y-14718327D01*
X14341148Y-14718327D02*
X14360196Y-14708803D01*
X14360196Y-14708803D02*
X14388767Y-14708803D01*
X14388767Y-14708803D02*
X14407815Y-14718327D01*
X14407815Y-14718327D02*
X14417339Y-14737375D01*
X14417339Y-14737375D02*
X14417339Y-14842136D01*
X14417339Y-14737375D02*
X14426863Y-14718327D01*
X14426863Y-14718327D02*
X14445910Y-14708803D01*
X14445910Y-14708803D02*
X14474482Y-14708803D01*
X14474482Y-14708803D02*
X14493529Y-14718327D01*
X14493529Y-14718327D02*
X14503053Y-14737375D01*
X14503053Y-14737375D02*
X14503053Y-14842136D01*
X14893529Y-14632613D02*
X14722101Y-14889755D01*
X15150672Y-14642136D02*
X15169720Y-14642136D01*
X15169720Y-14642136D02*
X15188767Y-14651660D01*
X15188767Y-14651660D02*
X15198291Y-14661184D01*
X15198291Y-14661184D02*
X15207815Y-14680232D01*
X15207815Y-14680232D02*
X15217339Y-14718327D01*
X15217339Y-14718327D02*
X15217339Y-14765946D01*
X15217339Y-14765946D02*
X15207815Y-14804041D01*
X15207815Y-14804041D02*
X15198291Y-14823089D01*
X15198291Y-14823089D02*
X15188767Y-14832613D01*
X15188767Y-14832613D02*
X15169720Y-14842136D01*
X15169720Y-14842136D02*
X15150672Y-14842136D01*
X15150672Y-14842136D02*
X15131625Y-14832613D01*
X15131625Y-14832613D02*
X15122101Y-14823089D01*
X15122101Y-14823089D02*
X15112577Y-14804041D01*
X15112577Y-14804041D02*
X15103053Y-14765946D01*
X15103053Y-14765946D02*
X15103053Y-14718327D01*
X15103053Y-14718327D02*
X15112577Y-14680232D01*
X15112577Y-14680232D02*
X15122101Y-14661184D01*
X15122101Y-14661184D02*
X15131625Y-14651660D01*
X15131625Y-14651660D02*
X15150672Y-14642136D01*
X15303053Y-14823089D02*
X15312577Y-14832613D01*
X15312577Y-14832613D02*
X15303053Y-14842136D01*
X15303053Y-14842136D02*
X15293529Y-14832613D01*
X15293529Y-14832613D02*
X15303053Y-14823089D01*
X15303053Y-14823089D02*
X15303053Y-14842136D01*
X15436386Y-14642136D02*
X15455434Y-14642136D01*
X15455434Y-14642136D02*
X15474482Y-14651660D01*
X15474482Y-14651660D02*
X15484006Y-14661184D01*
X15484006Y-14661184D02*
X15493529Y-14680232D01*
X15493529Y-14680232D02*
X15503053Y-14718327D01*
X15503053Y-14718327D02*
X15503053Y-14765946D01*
X15503053Y-14765946D02*
X15493529Y-14804041D01*
X15493529Y-14804041D02*
X15484006Y-14823089D01*
X15484006Y-14823089D02*
X15474482Y-14832613D01*
X15474482Y-14832613D02*
X15455434Y-14842136D01*
X15455434Y-14842136D02*
X15436386Y-14842136D01*
X15436386Y-14842136D02*
X15417339Y-14832613D01*
X15417339Y-14832613D02*
X15407815Y-14823089D01*
X15407815Y-14823089D02*
X15398291Y-14804041D01*
X15398291Y-14804041D02*
X15388767Y-14765946D01*
X15388767Y-14765946D02*
X15388767Y-14718327D01*
X15388767Y-14718327D02*
X15398291Y-14680232D01*
X15398291Y-14680232D02*
X15407815Y-14661184D01*
X15407815Y-14661184D02*
X15417339Y-14651660D01*
X15417339Y-14651660D02*
X15436386Y-14642136D01*
X15626863Y-14642136D02*
X15645910Y-14642136D01*
X15645910Y-14642136D02*
X15664958Y-14651660D01*
X15664958Y-14651660D02*
X15674482Y-14661184D01*
X15674482Y-14661184D02*
X15684006Y-14680232D01*
X15684006Y-14680232D02*
X15693529Y-14718327D01*
X15693529Y-14718327D02*
X15693529Y-14765946D01*
X15693529Y-14765946D02*
X15684006Y-14804041D01*
X15684006Y-14804041D02*
X15674482Y-14823089D01*
X15674482Y-14823089D02*
X15664958Y-14832613D01*
X15664958Y-14832613D02*
X15645910Y-14842136D01*
X15645910Y-14842136D02*
X15626863Y-14842136D01*
X15626863Y-14842136D02*
X15607815Y-14832613D01*
X15607815Y-14832613D02*
X15598291Y-14823089D01*
X15598291Y-14823089D02*
X15588767Y-14804041D01*
X15588767Y-14804041D02*
X15579244Y-14765946D01*
X15579244Y-14765946D02*
X15579244Y-14718327D01*
X15579244Y-14718327D02*
X15588767Y-14680232D01*
X15588767Y-14680232D02*
X15598291Y-14661184D01*
X15598291Y-14661184D02*
X15607815Y-14651660D01*
X15607815Y-14651660D02*
X15626863Y-14642136D01*
X15788767Y-14842136D02*
X15826863Y-14842136D01*
X15826863Y-14842136D02*
X15845910Y-14832613D01*
X15845910Y-14832613D02*
X15855434Y-14823089D01*
X15855434Y-14823089D02*
X15874482Y-14794517D01*
X15874482Y-14794517D02*
X15884006Y-14756422D01*
X15884006Y-14756422D02*
X15884006Y-14680232D01*
X15884006Y-14680232D02*
X15874482Y-14661184D01*
X15874482Y-14661184D02*
X15864958Y-14651660D01*
X15864958Y-14651660D02*
X15845910Y-14642136D01*
X15845910Y-14642136D02*
X15807815Y-14642136D01*
X15807815Y-14642136D02*
X15788767Y-14651660D01*
X15788767Y-14651660D02*
X15779244Y-14661184D01*
X15779244Y-14661184D02*
X15769720Y-14680232D01*
X15769720Y-14680232D02*
X15769720Y-14727851D01*
X15769720Y-14727851D02*
X15779244Y-14746898D01*
X15779244Y-14746898D02*
X15788767Y-14756422D01*
X15788767Y-14756422D02*
X15807815Y-14765946D01*
X15807815Y-14765946D02*
X15845910Y-14765946D01*
X15845910Y-14765946D02*
X15864958Y-14756422D01*
X15864958Y-14756422D02*
X15874482Y-14746898D01*
X15874482Y-14746898D02*
X15884006Y-14727851D01*
X15998291Y-14727851D02*
X15979244Y-14718327D01*
X15979244Y-14718327D02*
X15969720Y-14708803D01*
X15969720Y-14708803D02*
X15960196Y-14689755D01*
X15960196Y-14689755D02*
X15960196Y-14680232D01*
X15960196Y-14680232D02*
X15969720Y-14661184D01*
X15969720Y-14661184D02*
X15979244Y-14651660D01*
X15979244Y-14651660D02*
X15998291Y-14642136D01*
X15998291Y-14642136D02*
X16036387Y-14642136D01*
X16036387Y-14642136D02*
X16055434Y-14651660D01*
X16055434Y-14651660D02*
X16064958Y-14661184D01*
X16064958Y-14661184D02*
X16074482Y-14680232D01*
X16074482Y-14680232D02*
X16074482Y-14689755D01*
X16074482Y-14689755D02*
X16064958Y-14708803D01*
X16064958Y-14708803D02*
X16055434Y-14718327D01*
X16055434Y-14718327D02*
X16036387Y-14727851D01*
X16036387Y-14727851D02*
X15998291Y-14727851D01*
X15998291Y-14727851D02*
X15979244Y-14737375D01*
X15979244Y-14737375D02*
X15969720Y-14746898D01*
X15969720Y-14746898D02*
X15960196Y-14765946D01*
X15960196Y-14765946D02*
X15960196Y-14804041D01*
X15960196Y-14804041D02*
X15969720Y-14823089D01*
X15969720Y-14823089D02*
X15979244Y-14832613D01*
X15979244Y-14832613D02*
X15998291Y-14842136D01*
X15998291Y-14842136D02*
X16036387Y-14842136D01*
X16036387Y-14842136D02*
X16055434Y-14832613D01*
X16055434Y-14832613D02*
X16064958Y-14823089D01*
X16064958Y-14823089D02*
X16074482Y-14804041D01*
X16074482Y-14804041D02*
X16074482Y-14765946D01*
X16074482Y-14765946D02*
X16064958Y-14746898D01*
X16064958Y-14746898D02*
X16055434Y-14737375D01*
X16055434Y-14737375D02*
X16036387Y-14727851D01*
X16150672Y-14642136D02*
X16150672Y-14680232D01*
X16226863Y-14642136D02*
X16226863Y-14680232D01*
X16522101Y-14918327D02*
X16512577Y-14908803D01*
X16512577Y-14908803D02*
X16493529Y-14880232D01*
X16493529Y-14880232D02*
X16484006Y-14861184D01*
X16484006Y-14861184D02*
X16474482Y-14832613D01*
X16474482Y-14832613D02*
X16464958Y-14784994D01*
X16464958Y-14784994D02*
X16464958Y-14746898D01*
X16464958Y-14746898D02*
X16474482Y-14699279D01*
X16474482Y-14699279D02*
X16484006Y-14670708D01*
X16484006Y-14670708D02*
X16493529Y-14651660D01*
X16493529Y-14651660D02*
X16512577Y-14623089D01*
X16512577Y-14623089D02*
X16522101Y-14613565D01*
X16703053Y-14842136D02*
X16588768Y-14842136D01*
X16645910Y-14842136D02*
X16645910Y-14642136D01*
X16645910Y-14642136D02*
X16626863Y-14670708D01*
X16626863Y-14670708D02*
X16607815Y-14689755D01*
X16607815Y-14689755D02*
X16588768Y-14699279D01*
X16826863Y-14642136D02*
X16845911Y-14642136D01*
X16845911Y-14642136D02*
X16864958Y-14651660D01*
X16864958Y-14651660D02*
X16874482Y-14661184D01*
X16874482Y-14661184D02*
X16884006Y-14680232D01*
X16884006Y-14680232D02*
X16893530Y-14718327D01*
X16893530Y-14718327D02*
X16893530Y-14765946D01*
X16893530Y-14765946D02*
X16884006Y-14804041D01*
X16884006Y-14804041D02*
X16874482Y-14823089D01*
X16874482Y-14823089D02*
X16864958Y-14832613D01*
X16864958Y-14832613D02*
X16845911Y-14842136D01*
X16845911Y-14842136D02*
X16826863Y-14842136D01*
X16826863Y-14842136D02*
X16807815Y-14832613D01*
X16807815Y-14832613D02*
X16798291Y-14823089D01*
X16798291Y-14823089D02*
X16788768Y-14804041D01*
X16788768Y-14804041D02*
X16779244Y-14765946D01*
X16779244Y-14765946D02*
X16779244Y-14718327D01*
X16779244Y-14718327D02*
X16788768Y-14680232D01*
X16788768Y-14680232D02*
X16798291Y-14661184D01*
X16798291Y-14661184D02*
X16807815Y-14651660D01*
X16807815Y-14651660D02*
X16826863Y-14642136D01*
X17017339Y-14642136D02*
X17036387Y-14642136D01*
X17036387Y-14642136D02*
X17055434Y-14651660D01*
X17055434Y-14651660D02*
X17064958Y-14661184D01*
X17064958Y-14661184D02*
X17074482Y-14680232D01*
X17074482Y-14680232D02*
X17084006Y-14718327D01*
X17084006Y-14718327D02*
X17084006Y-14765946D01*
X17084006Y-14765946D02*
X17074482Y-14804041D01*
X17074482Y-14804041D02*
X17064958Y-14823089D01*
X17064958Y-14823089D02*
X17055434Y-14832613D01*
X17055434Y-14832613D02*
X17036387Y-14842136D01*
X17036387Y-14842136D02*
X17017339Y-14842136D01*
X17017339Y-14842136D02*
X16998291Y-14832613D01*
X16998291Y-14832613D02*
X16988768Y-14823089D01*
X16988768Y-14823089D02*
X16979244Y-14804041D01*
X16979244Y-14804041D02*
X16969720Y-14765946D01*
X16969720Y-14765946D02*
X16969720Y-14718327D01*
X16969720Y-14718327D02*
X16979244Y-14680232D01*
X16979244Y-14680232D02*
X16988768Y-14661184D01*
X16988768Y-14661184D02*
X16998291Y-14651660D01*
X16998291Y-14651660D02*
X17017339Y-14642136D01*
X17322101Y-14842136D02*
X17322101Y-14642136D01*
X17407815Y-14842136D02*
X17407815Y-14737375D01*
X17407815Y-14737375D02*
X17398292Y-14718327D01*
X17398292Y-14718327D02*
X17379244Y-14708803D01*
X17379244Y-14708803D02*
X17350672Y-14708803D01*
X17350672Y-14708803D02*
X17331625Y-14718327D01*
X17331625Y-14718327D02*
X17322101Y-14727851D01*
X17531625Y-14842136D02*
X17512577Y-14832613D01*
X17512577Y-14832613D02*
X17503053Y-14823089D01*
X17503053Y-14823089D02*
X17493530Y-14804041D01*
X17493530Y-14804041D02*
X17493530Y-14746898D01*
X17493530Y-14746898D02*
X17503053Y-14727851D01*
X17503053Y-14727851D02*
X17512577Y-14718327D01*
X17512577Y-14718327D02*
X17531625Y-14708803D01*
X17531625Y-14708803D02*
X17560196Y-14708803D01*
X17560196Y-14708803D02*
X17579244Y-14718327D01*
X17579244Y-14718327D02*
X17588768Y-14727851D01*
X17588768Y-14727851D02*
X17598292Y-14746898D01*
X17598292Y-14746898D02*
X17598292Y-14804041D01*
X17598292Y-14804041D02*
X17588768Y-14823089D01*
X17588768Y-14823089D02*
X17579244Y-14832613D01*
X17579244Y-14832613D02*
X17560196Y-14842136D01*
X17560196Y-14842136D02*
X17531625Y-14842136D01*
X17712577Y-14842136D02*
X17693530Y-14832613D01*
X17693530Y-14832613D02*
X17684006Y-14813565D01*
X17684006Y-14813565D02*
X17684006Y-14642136D01*
X17864958Y-14832613D02*
X17845911Y-14842136D01*
X17845911Y-14842136D02*
X17807815Y-14842136D01*
X17807815Y-14842136D02*
X17788768Y-14832613D01*
X17788768Y-14832613D02*
X17779244Y-14813565D01*
X17779244Y-14813565D02*
X17779244Y-14737375D01*
X17779244Y-14737375D02*
X17788768Y-14718327D01*
X17788768Y-14718327D02*
X17807815Y-14708803D01*
X17807815Y-14708803D02*
X17845911Y-14708803D01*
X17845911Y-14708803D02*
X17864958Y-14718327D01*
X17864958Y-14718327D02*
X17874482Y-14737375D01*
X17874482Y-14737375D02*
X17874482Y-14756422D01*
X17874482Y-14756422D02*
X17779244Y-14775470D01*
X17950673Y-14832613D02*
X17969720Y-14842136D01*
X17969720Y-14842136D02*
X18007815Y-14842136D01*
X18007815Y-14842136D02*
X18026863Y-14832613D01*
X18026863Y-14832613D02*
X18036387Y-14813565D01*
X18036387Y-14813565D02*
X18036387Y-14804041D01*
X18036387Y-14804041D02*
X18026863Y-14784994D01*
X18026863Y-14784994D02*
X18007815Y-14775470D01*
X18007815Y-14775470D02*
X17979244Y-14775470D01*
X17979244Y-14775470D02*
X17960196Y-14765946D01*
X17960196Y-14765946D02*
X17950673Y-14746898D01*
X17950673Y-14746898D02*
X17950673Y-14737375D01*
X17950673Y-14737375D02*
X17960196Y-14718327D01*
X17960196Y-14718327D02*
X17979244Y-14708803D01*
X17979244Y-14708803D02*
X18007815Y-14708803D01*
X18007815Y-14708803D02*
X18026863Y-14718327D01*
X18103054Y-14918327D02*
X18112577Y-14908803D01*
X18112577Y-14908803D02*
X18131625Y-14880232D01*
X18131625Y-14880232D02*
X18141149Y-14861184D01*
X18141149Y-14861184D02*
X18150673Y-14832613D01*
X18150673Y-14832613D02*
X18160196Y-14784994D01*
X18160196Y-14784994D02*
X18160196Y-14746898D01*
X18160196Y-14746898D02*
X18150673Y-14699279D01*
X18150673Y-14699279D02*
X18141149Y-14670708D01*
X18141149Y-14670708D02*
X18131625Y-14651660D01*
X18131625Y-14651660D02*
X18112577Y-14623089D01*
X18112577Y-14623089D02*
X18103054Y-14613565D01*
D12*
X12932038Y-15029653D02*
X12947038Y-15014653D01*
X12932038Y-14999653D01*
X12917038Y-15014653D01*
X12932038Y-15029653D01*
D11*
X13245910Y-14906136D02*
X13264958Y-14906136D01*
X13264958Y-14906136D02*
X13284005Y-14915660D01*
X13284005Y-14915660D02*
X13293529Y-14925184D01*
X13293529Y-14925184D02*
X13303053Y-14944232D01*
X13303053Y-14944232D02*
X13312577Y-14982327D01*
X13312577Y-14982327D02*
X13312577Y-15029946D01*
X13312577Y-15029946D02*
X13303053Y-15068041D01*
X13303053Y-15068041D02*
X13293529Y-15087089D01*
X13293529Y-15087089D02*
X13284005Y-15096613D01*
X13284005Y-15096613D02*
X13264958Y-15106136D01*
X13264958Y-15106136D02*
X13245910Y-15106136D01*
X13245910Y-15106136D02*
X13226862Y-15096613D01*
X13226862Y-15096613D02*
X13217339Y-15087089D01*
X13217339Y-15087089D02*
X13207815Y-15068041D01*
X13207815Y-15068041D02*
X13198291Y-15029946D01*
X13198291Y-15029946D02*
X13198291Y-14982327D01*
X13198291Y-14982327D02*
X13207815Y-14944232D01*
X13207815Y-14944232D02*
X13217339Y-14925184D01*
X13217339Y-14925184D02*
X13226862Y-14915660D01*
X13226862Y-14915660D02*
X13245910Y-14906136D01*
X13398291Y-15087089D02*
X13407815Y-15096613D01*
X13407815Y-15096613D02*
X13398291Y-15106136D01*
X13398291Y-15106136D02*
X13388767Y-15096613D01*
X13388767Y-15096613D02*
X13398291Y-15087089D01*
X13398291Y-15087089D02*
X13398291Y-15106136D01*
X13474482Y-14906136D02*
X13598291Y-14906136D01*
X13598291Y-14906136D02*
X13531624Y-14982327D01*
X13531624Y-14982327D02*
X13560196Y-14982327D01*
X13560196Y-14982327D02*
X13579243Y-14991851D01*
X13579243Y-14991851D02*
X13588767Y-15001375D01*
X13588767Y-15001375D02*
X13598291Y-15020422D01*
X13598291Y-15020422D02*
X13598291Y-15068041D01*
X13598291Y-15068041D02*
X13588767Y-15087089D01*
X13588767Y-15087089D02*
X13579243Y-15096613D01*
X13579243Y-15096613D02*
X13560196Y-15106136D01*
X13560196Y-15106136D02*
X13503053Y-15106136D01*
X13503053Y-15106136D02*
X13484005Y-15096613D01*
X13484005Y-15096613D02*
X13474482Y-15087089D01*
X13722101Y-14906136D02*
X13741148Y-14906136D01*
X13741148Y-14906136D02*
X13760196Y-14915660D01*
X13760196Y-14915660D02*
X13769720Y-14925184D01*
X13769720Y-14925184D02*
X13779243Y-14944232D01*
X13779243Y-14944232D02*
X13788767Y-14982327D01*
X13788767Y-14982327D02*
X13788767Y-15029946D01*
X13788767Y-15029946D02*
X13779243Y-15068041D01*
X13779243Y-15068041D02*
X13769720Y-15087089D01*
X13769720Y-15087089D02*
X13760196Y-15096613D01*
X13760196Y-15096613D02*
X13741148Y-15106136D01*
X13741148Y-15106136D02*
X13722101Y-15106136D01*
X13722101Y-15106136D02*
X13703053Y-15096613D01*
X13703053Y-15096613D02*
X13693529Y-15087089D01*
X13693529Y-15087089D02*
X13684005Y-15068041D01*
X13684005Y-15068041D02*
X13674482Y-15029946D01*
X13674482Y-15029946D02*
X13674482Y-14982327D01*
X13674482Y-14982327D02*
X13684005Y-14944232D01*
X13684005Y-14944232D02*
X13693529Y-14925184D01*
X13693529Y-14925184D02*
X13703053Y-14915660D01*
X13703053Y-14915660D02*
X13722101Y-14906136D01*
X13912577Y-14906136D02*
X13931624Y-14906136D01*
X13931624Y-14906136D02*
X13950672Y-14915660D01*
X13950672Y-14915660D02*
X13960196Y-14925184D01*
X13960196Y-14925184D02*
X13969720Y-14944232D01*
X13969720Y-14944232D02*
X13979243Y-14982327D01*
X13979243Y-14982327D02*
X13979243Y-15029946D01*
X13979243Y-15029946D02*
X13969720Y-15068041D01*
X13969720Y-15068041D02*
X13960196Y-15087089D01*
X13960196Y-15087089D02*
X13950672Y-15096613D01*
X13950672Y-15096613D02*
X13931624Y-15106136D01*
X13931624Y-15106136D02*
X13912577Y-15106136D01*
X13912577Y-15106136D02*
X13893529Y-15096613D01*
X13893529Y-15096613D02*
X13884005Y-15087089D01*
X13884005Y-15087089D02*
X13874482Y-15068041D01*
X13874482Y-15068041D02*
X13864958Y-15029946D01*
X13864958Y-15029946D02*
X13864958Y-14982327D01*
X13864958Y-14982327D02*
X13874482Y-14944232D01*
X13874482Y-14944232D02*
X13884005Y-14925184D01*
X13884005Y-14925184D02*
X13893529Y-14915660D01*
X13893529Y-14915660D02*
X13912577Y-14906136D01*
X14064958Y-15106136D02*
X14064958Y-14972803D01*
X14064958Y-14991851D02*
X14074482Y-14982327D01*
X14074482Y-14982327D02*
X14093529Y-14972803D01*
X14093529Y-14972803D02*
X14122101Y-14972803D01*
X14122101Y-14972803D02*
X14141148Y-14982327D01*
X14141148Y-14982327D02*
X14150672Y-15001375D01*
X14150672Y-15001375D02*
X14150672Y-15106136D01*
X14150672Y-15001375D02*
X14160196Y-14982327D01*
X14160196Y-14982327D02*
X14179243Y-14972803D01*
X14179243Y-14972803D02*
X14207815Y-14972803D01*
X14207815Y-14972803D02*
X14226863Y-14982327D01*
X14226863Y-14982327D02*
X14236386Y-15001375D01*
X14236386Y-15001375D02*
X14236386Y-15106136D01*
X14331624Y-15106136D02*
X14331624Y-14972803D01*
X14331624Y-14991851D02*
X14341148Y-14982327D01*
X14341148Y-14982327D02*
X14360196Y-14972803D01*
X14360196Y-14972803D02*
X14388767Y-14972803D01*
X14388767Y-14972803D02*
X14407815Y-14982327D01*
X14407815Y-14982327D02*
X14417339Y-15001375D01*
X14417339Y-15001375D02*
X14417339Y-15106136D01*
X14417339Y-15001375D02*
X14426863Y-14982327D01*
X14426863Y-14982327D02*
X14445910Y-14972803D01*
X14445910Y-14972803D02*
X14474482Y-14972803D01*
X14474482Y-14972803D02*
X14493529Y-14982327D01*
X14493529Y-14982327D02*
X14503053Y-15001375D01*
X14503053Y-15001375D02*
X14503053Y-15106136D01*
X14893529Y-14896613D02*
X14722101Y-15153755D01*
X15150672Y-14906136D02*
X15169720Y-14906136D01*
X15169720Y-14906136D02*
X15188767Y-14915660D01*
X15188767Y-14915660D02*
X15198291Y-14925184D01*
X15198291Y-14925184D02*
X15207815Y-14944232D01*
X15207815Y-14944232D02*
X15217339Y-14982327D01*
X15217339Y-14982327D02*
X15217339Y-15029946D01*
X15217339Y-15029946D02*
X15207815Y-15068041D01*
X15207815Y-15068041D02*
X15198291Y-15087089D01*
X15198291Y-15087089D02*
X15188767Y-15096613D01*
X15188767Y-15096613D02*
X15169720Y-15106136D01*
X15169720Y-15106136D02*
X15150672Y-15106136D01*
X15150672Y-15106136D02*
X15131625Y-15096613D01*
X15131625Y-15096613D02*
X15122101Y-15087089D01*
X15122101Y-15087089D02*
X15112577Y-15068041D01*
X15112577Y-15068041D02*
X15103053Y-15029946D01*
X15103053Y-15029946D02*
X15103053Y-14982327D01*
X15103053Y-14982327D02*
X15112577Y-14944232D01*
X15112577Y-14944232D02*
X15122101Y-14925184D01*
X15122101Y-14925184D02*
X15131625Y-14915660D01*
X15131625Y-14915660D02*
X15150672Y-14906136D01*
X15303053Y-15087089D02*
X15312577Y-15096613D01*
X15312577Y-15096613D02*
X15303053Y-15106136D01*
X15303053Y-15106136D02*
X15293529Y-15096613D01*
X15293529Y-15096613D02*
X15303053Y-15087089D01*
X15303053Y-15087089D02*
X15303053Y-15106136D01*
X15436386Y-14906136D02*
X15455434Y-14906136D01*
X15455434Y-14906136D02*
X15474482Y-14915660D01*
X15474482Y-14915660D02*
X15484006Y-14925184D01*
X15484006Y-14925184D02*
X15493529Y-14944232D01*
X15493529Y-14944232D02*
X15503053Y-14982327D01*
X15503053Y-14982327D02*
X15503053Y-15029946D01*
X15503053Y-15029946D02*
X15493529Y-15068041D01*
X15493529Y-15068041D02*
X15484006Y-15087089D01*
X15484006Y-15087089D02*
X15474482Y-15096613D01*
X15474482Y-15096613D02*
X15455434Y-15106136D01*
X15455434Y-15106136D02*
X15436386Y-15106136D01*
X15436386Y-15106136D02*
X15417339Y-15096613D01*
X15417339Y-15096613D02*
X15407815Y-15087089D01*
X15407815Y-15087089D02*
X15398291Y-15068041D01*
X15398291Y-15068041D02*
X15388767Y-15029946D01*
X15388767Y-15029946D02*
X15388767Y-14982327D01*
X15388767Y-14982327D02*
X15398291Y-14944232D01*
X15398291Y-14944232D02*
X15407815Y-14925184D01*
X15407815Y-14925184D02*
X15417339Y-14915660D01*
X15417339Y-14915660D02*
X15436386Y-14906136D01*
X15693529Y-15106136D02*
X15579244Y-15106136D01*
X15636386Y-15106136D02*
X15636386Y-14906136D01*
X15636386Y-14906136D02*
X15617339Y-14934708D01*
X15617339Y-14934708D02*
X15598291Y-14953755D01*
X15598291Y-14953755D02*
X15579244Y-14963279D01*
X15884006Y-15106136D02*
X15769720Y-15106136D01*
X15826863Y-15106136D02*
X15826863Y-14906136D01*
X15826863Y-14906136D02*
X15807815Y-14934708D01*
X15807815Y-14934708D02*
X15788767Y-14953755D01*
X15788767Y-14953755D02*
X15769720Y-14963279D01*
X15998291Y-14991851D02*
X15979244Y-14982327D01*
X15979244Y-14982327D02*
X15969720Y-14972803D01*
X15969720Y-14972803D02*
X15960196Y-14953755D01*
X15960196Y-14953755D02*
X15960196Y-14944232D01*
X15960196Y-14944232D02*
X15969720Y-14925184D01*
X15969720Y-14925184D02*
X15979244Y-14915660D01*
X15979244Y-14915660D02*
X15998291Y-14906136D01*
X15998291Y-14906136D02*
X16036387Y-14906136D01*
X16036387Y-14906136D02*
X16055434Y-14915660D01*
X16055434Y-14915660D02*
X16064958Y-14925184D01*
X16064958Y-14925184D02*
X16074482Y-14944232D01*
X16074482Y-14944232D02*
X16074482Y-14953755D01*
X16074482Y-14953755D02*
X16064958Y-14972803D01*
X16064958Y-14972803D02*
X16055434Y-14982327D01*
X16055434Y-14982327D02*
X16036387Y-14991851D01*
X16036387Y-14991851D02*
X15998291Y-14991851D01*
X15998291Y-14991851D02*
X15979244Y-15001375D01*
X15979244Y-15001375D02*
X15969720Y-15010898D01*
X15969720Y-15010898D02*
X15960196Y-15029946D01*
X15960196Y-15029946D02*
X15960196Y-15068041D01*
X15960196Y-15068041D02*
X15969720Y-15087089D01*
X15969720Y-15087089D02*
X15979244Y-15096613D01*
X15979244Y-15096613D02*
X15998291Y-15106136D01*
X15998291Y-15106136D02*
X16036387Y-15106136D01*
X16036387Y-15106136D02*
X16055434Y-15096613D01*
X16055434Y-15096613D02*
X16064958Y-15087089D01*
X16064958Y-15087089D02*
X16074482Y-15068041D01*
X16074482Y-15068041D02*
X16074482Y-15029946D01*
X16074482Y-15029946D02*
X16064958Y-15010898D01*
X16064958Y-15010898D02*
X16055434Y-15001375D01*
X16055434Y-15001375D02*
X16036387Y-14991851D01*
X16150672Y-14906136D02*
X16150672Y-14944232D01*
X16226863Y-14906136D02*
X16226863Y-14944232D01*
X16522101Y-15182327D02*
X16512577Y-15172803D01*
X16512577Y-15172803D02*
X16493529Y-15144232D01*
X16493529Y-15144232D02*
X16484006Y-15125184D01*
X16484006Y-15125184D02*
X16474482Y-15096613D01*
X16474482Y-15096613D02*
X16464958Y-15048994D01*
X16464958Y-15048994D02*
X16464958Y-15010898D01*
X16464958Y-15010898D02*
X16474482Y-14963279D01*
X16474482Y-14963279D02*
X16484006Y-14934708D01*
X16484006Y-14934708D02*
X16493529Y-14915660D01*
X16493529Y-14915660D02*
X16512577Y-14887089D01*
X16512577Y-14887089D02*
X16522101Y-14877565D01*
X16684006Y-14906136D02*
X16645910Y-14906136D01*
X16645910Y-14906136D02*
X16626863Y-14915660D01*
X16626863Y-14915660D02*
X16617339Y-14925184D01*
X16617339Y-14925184D02*
X16598291Y-14953755D01*
X16598291Y-14953755D02*
X16588768Y-14991851D01*
X16588768Y-14991851D02*
X16588768Y-15068041D01*
X16588768Y-15068041D02*
X16598291Y-15087089D01*
X16598291Y-15087089D02*
X16607815Y-15096613D01*
X16607815Y-15096613D02*
X16626863Y-15106136D01*
X16626863Y-15106136D02*
X16664958Y-15106136D01*
X16664958Y-15106136D02*
X16684006Y-15096613D01*
X16684006Y-15096613D02*
X16693529Y-15087089D01*
X16693529Y-15087089D02*
X16703053Y-15068041D01*
X16703053Y-15068041D02*
X16703053Y-15020422D01*
X16703053Y-15020422D02*
X16693529Y-15001375D01*
X16693529Y-15001375D02*
X16684006Y-14991851D01*
X16684006Y-14991851D02*
X16664958Y-14982327D01*
X16664958Y-14982327D02*
X16626863Y-14982327D01*
X16626863Y-14982327D02*
X16607815Y-14991851D01*
X16607815Y-14991851D02*
X16598291Y-15001375D01*
X16598291Y-15001375D02*
X16588768Y-15020422D01*
X16817339Y-14991851D02*
X16798291Y-14982327D01*
X16798291Y-14982327D02*
X16788768Y-14972803D01*
X16788768Y-14972803D02*
X16779244Y-14953755D01*
X16779244Y-14953755D02*
X16779244Y-14944232D01*
X16779244Y-14944232D02*
X16788768Y-14925184D01*
X16788768Y-14925184D02*
X16798291Y-14915660D01*
X16798291Y-14915660D02*
X16817339Y-14906136D01*
X16817339Y-14906136D02*
X16855434Y-14906136D01*
X16855434Y-14906136D02*
X16874482Y-14915660D01*
X16874482Y-14915660D02*
X16884006Y-14925184D01*
X16884006Y-14925184D02*
X16893530Y-14944232D01*
X16893530Y-14944232D02*
X16893530Y-14953755D01*
X16893530Y-14953755D02*
X16884006Y-14972803D01*
X16884006Y-14972803D02*
X16874482Y-14982327D01*
X16874482Y-14982327D02*
X16855434Y-14991851D01*
X16855434Y-14991851D02*
X16817339Y-14991851D01*
X16817339Y-14991851D02*
X16798291Y-15001375D01*
X16798291Y-15001375D02*
X16788768Y-15010898D01*
X16788768Y-15010898D02*
X16779244Y-15029946D01*
X16779244Y-15029946D02*
X16779244Y-15068041D01*
X16779244Y-15068041D02*
X16788768Y-15087089D01*
X16788768Y-15087089D02*
X16798291Y-15096613D01*
X16798291Y-15096613D02*
X16817339Y-15106136D01*
X16817339Y-15106136D02*
X16855434Y-15106136D01*
X16855434Y-15106136D02*
X16874482Y-15096613D01*
X16874482Y-15096613D02*
X16884006Y-15087089D01*
X16884006Y-15087089D02*
X16893530Y-15068041D01*
X16893530Y-15068041D02*
X16893530Y-15029946D01*
X16893530Y-15029946D02*
X16884006Y-15010898D01*
X16884006Y-15010898D02*
X16874482Y-15001375D01*
X16874482Y-15001375D02*
X16855434Y-14991851D01*
X17131625Y-15106136D02*
X17131625Y-14906136D01*
X17217339Y-15106136D02*
X17217339Y-15001375D01*
X17217339Y-15001375D02*
X17207815Y-14982327D01*
X17207815Y-14982327D02*
X17188768Y-14972803D01*
X17188768Y-14972803D02*
X17160196Y-14972803D01*
X17160196Y-14972803D02*
X17141149Y-14982327D01*
X17141149Y-14982327D02*
X17131625Y-14991851D01*
X17341149Y-15106136D02*
X17322101Y-15096613D01*
X17322101Y-15096613D02*
X17312577Y-15087089D01*
X17312577Y-15087089D02*
X17303053Y-15068041D01*
X17303053Y-15068041D02*
X17303053Y-15010898D01*
X17303053Y-15010898D02*
X17312577Y-14991851D01*
X17312577Y-14991851D02*
X17322101Y-14982327D01*
X17322101Y-14982327D02*
X17341149Y-14972803D01*
X17341149Y-14972803D02*
X17369720Y-14972803D01*
X17369720Y-14972803D02*
X17388768Y-14982327D01*
X17388768Y-14982327D02*
X17398292Y-14991851D01*
X17398292Y-14991851D02*
X17407815Y-15010898D01*
X17407815Y-15010898D02*
X17407815Y-15068041D01*
X17407815Y-15068041D02*
X17398292Y-15087089D01*
X17398292Y-15087089D02*
X17388768Y-15096613D01*
X17388768Y-15096613D02*
X17369720Y-15106136D01*
X17369720Y-15106136D02*
X17341149Y-15106136D01*
X17522101Y-15106136D02*
X17503053Y-15096613D01*
X17503053Y-15096613D02*
X17493530Y-15077565D01*
X17493530Y-15077565D02*
X17493530Y-14906136D01*
X17674482Y-15096613D02*
X17655434Y-15106136D01*
X17655434Y-15106136D02*
X17617339Y-15106136D01*
X17617339Y-15106136D02*
X17598292Y-15096613D01*
X17598292Y-15096613D02*
X17588768Y-15077565D01*
X17588768Y-15077565D02*
X17588768Y-15001375D01*
X17588768Y-15001375D02*
X17598292Y-14982327D01*
X17598292Y-14982327D02*
X17617339Y-14972803D01*
X17617339Y-14972803D02*
X17655434Y-14972803D01*
X17655434Y-14972803D02*
X17674482Y-14982327D01*
X17674482Y-14982327D02*
X17684006Y-15001375D01*
X17684006Y-15001375D02*
X17684006Y-15020422D01*
X17684006Y-15020422D02*
X17588768Y-15039470D01*
X17760196Y-15096613D02*
X17779244Y-15106136D01*
X17779244Y-15106136D02*
X17817339Y-15106136D01*
X17817339Y-15106136D02*
X17836387Y-15096613D01*
X17836387Y-15096613D02*
X17845911Y-15077565D01*
X17845911Y-15077565D02*
X17845911Y-15068041D01*
X17845911Y-15068041D02*
X17836387Y-15048994D01*
X17836387Y-15048994D02*
X17817339Y-15039470D01*
X17817339Y-15039470D02*
X17788768Y-15039470D01*
X17788768Y-15039470D02*
X17769720Y-15029946D01*
X17769720Y-15029946D02*
X17760196Y-15010898D01*
X17760196Y-15010898D02*
X17760196Y-15001375D01*
X17760196Y-15001375D02*
X17769720Y-14982327D01*
X17769720Y-14982327D02*
X17788768Y-14972803D01*
X17788768Y-14972803D02*
X17817339Y-14972803D01*
X17817339Y-14972803D02*
X17836387Y-14982327D01*
X17912577Y-15182327D02*
X17922101Y-15172803D01*
X17922101Y-15172803D02*
X17941149Y-15144232D01*
X17941149Y-15144232D02*
X17950673Y-15125184D01*
X17950673Y-15125184D02*
X17960196Y-15096613D01*
X17960196Y-15096613D02*
X17969720Y-15048994D01*
X17969720Y-15048994D02*
X17969720Y-15010898D01*
X17969720Y-15010898D02*
X17960196Y-14963279D01*
X17960196Y-14963279D02*
X17950673Y-14934708D01*
X17950673Y-14934708D02*
X17941149Y-14915660D01*
X17941149Y-14915660D02*
X17922101Y-14887089D01*
X17922101Y-14887089D02*
X17912577Y-14877565D01*
D12*
X12912038Y-15261153D02*
X12947038Y-15296153D01*
X12947038Y-15261153D02*
X12912038Y-15296153D01*
X12947038Y-15278653D02*
G75*
G02*
X12912038Y-15278653I-17500J0D01*
G01*
X12912038Y-15278653D02*
G75*
G02*
X12947038Y-15278653I17500J0D01*
G01*
D11*
X13245910Y-15170136D02*
X13264958Y-15170136D01*
X13264958Y-15170136D02*
X13284005Y-15179660D01*
X13284005Y-15179660D02*
X13293529Y-15189184D01*
X13293529Y-15189184D02*
X13303053Y-15208232D01*
X13303053Y-15208232D02*
X13312577Y-15246327D01*
X13312577Y-15246327D02*
X13312577Y-15293946D01*
X13312577Y-15293946D02*
X13303053Y-15332041D01*
X13303053Y-15332041D02*
X13293529Y-15351089D01*
X13293529Y-15351089D02*
X13284005Y-15360613D01*
X13284005Y-15360613D02*
X13264958Y-15370136D01*
X13264958Y-15370136D02*
X13245910Y-15370136D01*
X13245910Y-15370136D02*
X13226862Y-15360613D01*
X13226862Y-15360613D02*
X13217339Y-15351089D01*
X13217339Y-15351089D02*
X13207815Y-15332041D01*
X13207815Y-15332041D02*
X13198291Y-15293946D01*
X13198291Y-15293946D02*
X13198291Y-15246327D01*
X13198291Y-15246327D02*
X13207815Y-15208232D01*
X13207815Y-15208232D02*
X13217339Y-15189184D01*
X13217339Y-15189184D02*
X13226862Y-15179660D01*
X13226862Y-15179660D02*
X13245910Y-15170136D01*
X13398291Y-15351089D02*
X13407815Y-15360613D01*
X13407815Y-15360613D02*
X13398291Y-15370136D01*
X13398291Y-15370136D02*
X13388767Y-15360613D01*
X13388767Y-15360613D02*
X13398291Y-15351089D01*
X13398291Y-15351089D02*
X13398291Y-15370136D01*
X13474482Y-15170136D02*
X13598291Y-15170136D01*
X13598291Y-15170136D02*
X13531624Y-15246327D01*
X13531624Y-15246327D02*
X13560196Y-15246327D01*
X13560196Y-15246327D02*
X13579243Y-15255851D01*
X13579243Y-15255851D02*
X13588767Y-15265375D01*
X13588767Y-15265375D02*
X13598291Y-15284422D01*
X13598291Y-15284422D02*
X13598291Y-15332041D01*
X13598291Y-15332041D02*
X13588767Y-15351089D01*
X13588767Y-15351089D02*
X13579243Y-15360613D01*
X13579243Y-15360613D02*
X13560196Y-15370136D01*
X13560196Y-15370136D02*
X13503053Y-15370136D01*
X13503053Y-15370136D02*
X13484005Y-15360613D01*
X13484005Y-15360613D02*
X13474482Y-15351089D01*
X13779243Y-15170136D02*
X13684005Y-15170136D01*
X13684005Y-15170136D02*
X13674482Y-15265375D01*
X13674482Y-15265375D02*
X13684005Y-15255851D01*
X13684005Y-15255851D02*
X13703053Y-15246327D01*
X13703053Y-15246327D02*
X13750672Y-15246327D01*
X13750672Y-15246327D02*
X13769720Y-15255851D01*
X13769720Y-15255851D02*
X13779243Y-15265375D01*
X13779243Y-15265375D02*
X13788767Y-15284422D01*
X13788767Y-15284422D02*
X13788767Y-15332041D01*
X13788767Y-15332041D02*
X13779243Y-15351089D01*
X13779243Y-15351089D02*
X13769720Y-15360613D01*
X13769720Y-15360613D02*
X13750672Y-15370136D01*
X13750672Y-15370136D02*
X13703053Y-15370136D01*
X13703053Y-15370136D02*
X13684005Y-15360613D01*
X13684005Y-15360613D02*
X13674482Y-15351089D01*
X13912577Y-15170136D02*
X13931624Y-15170136D01*
X13931624Y-15170136D02*
X13950672Y-15179660D01*
X13950672Y-15179660D02*
X13960196Y-15189184D01*
X13960196Y-15189184D02*
X13969720Y-15208232D01*
X13969720Y-15208232D02*
X13979243Y-15246327D01*
X13979243Y-15246327D02*
X13979243Y-15293946D01*
X13979243Y-15293946D02*
X13969720Y-15332041D01*
X13969720Y-15332041D02*
X13960196Y-15351089D01*
X13960196Y-15351089D02*
X13950672Y-15360613D01*
X13950672Y-15360613D02*
X13931624Y-15370136D01*
X13931624Y-15370136D02*
X13912577Y-15370136D01*
X13912577Y-15370136D02*
X13893529Y-15360613D01*
X13893529Y-15360613D02*
X13884005Y-15351089D01*
X13884005Y-15351089D02*
X13874482Y-15332041D01*
X13874482Y-15332041D02*
X13864958Y-15293946D01*
X13864958Y-15293946D02*
X13864958Y-15246327D01*
X13864958Y-15246327D02*
X13874482Y-15208232D01*
X13874482Y-15208232D02*
X13884005Y-15189184D01*
X13884005Y-15189184D02*
X13893529Y-15179660D01*
X13893529Y-15179660D02*
X13912577Y-15170136D01*
X14064958Y-15370136D02*
X14064958Y-15236803D01*
X14064958Y-15255851D02*
X14074482Y-15246327D01*
X14074482Y-15246327D02*
X14093529Y-15236803D01*
X14093529Y-15236803D02*
X14122101Y-15236803D01*
X14122101Y-15236803D02*
X14141148Y-15246327D01*
X14141148Y-15246327D02*
X14150672Y-15265375D01*
X14150672Y-15265375D02*
X14150672Y-15370136D01*
X14150672Y-15265375D02*
X14160196Y-15246327D01*
X14160196Y-15246327D02*
X14179243Y-15236803D01*
X14179243Y-15236803D02*
X14207815Y-15236803D01*
X14207815Y-15236803D02*
X14226863Y-15246327D01*
X14226863Y-15246327D02*
X14236386Y-15265375D01*
X14236386Y-15265375D02*
X14236386Y-15370136D01*
X14331624Y-15370136D02*
X14331624Y-15236803D01*
X14331624Y-15255851D02*
X14341148Y-15246327D01*
X14341148Y-15246327D02*
X14360196Y-15236803D01*
X14360196Y-15236803D02*
X14388767Y-15236803D01*
X14388767Y-15236803D02*
X14407815Y-15246327D01*
X14407815Y-15246327D02*
X14417339Y-15265375D01*
X14417339Y-15265375D02*
X14417339Y-15370136D01*
X14417339Y-15265375D02*
X14426863Y-15246327D01*
X14426863Y-15246327D02*
X14445910Y-15236803D01*
X14445910Y-15236803D02*
X14474482Y-15236803D01*
X14474482Y-15236803D02*
X14493529Y-15246327D01*
X14493529Y-15246327D02*
X14503053Y-15265375D01*
X14503053Y-15265375D02*
X14503053Y-15370136D01*
X14893529Y-15160613D02*
X14722101Y-15417755D01*
X15150672Y-15170136D02*
X15169720Y-15170136D01*
X15169720Y-15170136D02*
X15188767Y-15179660D01*
X15188767Y-15179660D02*
X15198291Y-15189184D01*
X15198291Y-15189184D02*
X15207815Y-15208232D01*
X15207815Y-15208232D02*
X15217339Y-15246327D01*
X15217339Y-15246327D02*
X15217339Y-15293946D01*
X15217339Y-15293946D02*
X15207815Y-15332041D01*
X15207815Y-15332041D02*
X15198291Y-15351089D01*
X15198291Y-15351089D02*
X15188767Y-15360613D01*
X15188767Y-15360613D02*
X15169720Y-15370136D01*
X15169720Y-15370136D02*
X15150672Y-15370136D01*
X15150672Y-15370136D02*
X15131625Y-15360613D01*
X15131625Y-15360613D02*
X15122101Y-15351089D01*
X15122101Y-15351089D02*
X15112577Y-15332041D01*
X15112577Y-15332041D02*
X15103053Y-15293946D01*
X15103053Y-15293946D02*
X15103053Y-15246327D01*
X15103053Y-15246327D02*
X15112577Y-15208232D01*
X15112577Y-15208232D02*
X15122101Y-15189184D01*
X15122101Y-15189184D02*
X15131625Y-15179660D01*
X15131625Y-15179660D02*
X15150672Y-15170136D01*
X15303053Y-15351089D02*
X15312577Y-15360613D01*
X15312577Y-15360613D02*
X15303053Y-15370136D01*
X15303053Y-15370136D02*
X15293529Y-15360613D01*
X15293529Y-15360613D02*
X15303053Y-15351089D01*
X15303053Y-15351089D02*
X15303053Y-15370136D01*
X15436386Y-15170136D02*
X15455434Y-15170136D01*
X15455434Y-15170136D02*
X15474482Y-15179660D01*
X15474482Y-15179660D02*
X15484006Y-15189184D01*
X15484006Y-15189184D02*
X15493529Y-15208232D01*
X15493529Y-15208232D02*
X15503053Y-15246327D01*
X15503053Y-15246327D02*
X15503053Y-15293946D01*
X15503053Y-15293946D02*
X15493529Y-15332041D01*
X15493529Y-15332041D02*
X15484006Y-15351089D01*
X15484006Y-15351089D02*
X15474482Y-15360613D01*
X15474482Y-15360613D02*
X15455434Y-15370136D01*
X15455434Y-15370136D02*
X15436386Y-15370136D01*
X15436386Y-15370136D02*
X15417339Y-15360613D01*
X15417339Y-15360613D02*
X15407815Y-15351089D01*
X15407815Y-15351089D02*
X15398291Y-15332041D01*
X15398291Y-15332041D02*
X15388767Y-15293946D01*
X15388767Y-15293946D02*
X15388767Y-15246327D01*
X15388767Y-15246327D02*
X15398291Y-15208232D01*
X15398291Y-15208232D02*
X15407815Y-15189184D01*
X15407815Y-15189184D02*
X15417339Y-15179660D01*
X15417339Y-15179660D02*
X15436386Y-15170136D01*
X15693529Y-15370136D02*
X15579244Y-15370136D01*
X15636386Y-15370136D02*
X15636386Y-15170136D01*
X15636386Y-15170136D02*
X15617339Y-15198708D01*
X15617339Y-15198708D02*
X15598291Y-15217755D01*
X15598291Y-15217755D02*
X15579244Y-15227279D01*
X15760196Y-15170136D02*
X15884006Y-15170136D01*
X15884006Y-15170136D02*
X15817339Y-15246327D01*
X15817339Y-15246327D02*
X15845910Y-15246327D01*
X15845910Y-15246327D02*
X15864958Y-15255851D01*
X15864958Y-15255851D02*
X15874482Y-15265375D01*
X15874482Y-15265375D02*
X15884006Y-15284422D01*
X15884006Y-15284422D02*
X15884006Y-15332041D01*
X15884006Y-15332041D02*
X15874482Y-15351089D01*
X15874482Y-15351089D02*
X15864958Y-15360613D01*
X15864958Y-15360613D02*
X15845910Y-15370136D01*
X15845910Y-15370136D02*
X15788767Y-15370136D01*
X15788767Y-15370136D02*
X15769720Y-15360613D01*
X15769720Y-15360613D02*
X15760196Y-15351089D01*
X15998291Y-15255851D02*
X15979244Y-15246327D01*
X15979244Y-15246327D02*
X15969720Y-15236803D01*
X15969720Y-15236803D02*
X15960196Y-15217755D01*
X15960196Y-15217755D02*
X15960196Y-15208232D01*
X15960196Y-15208232D02*
X15969720Y-15189184D01*
X15969720Y-15189184D02*
X15979244Y-15179660D01*
X15979244Y-15179660D02*
X15998291Y-15170136D01*
X15998291Y-15170136D02*
X16036387Y-15170136D01*
X16036387Y-15170136D02*
X16055434Y-15179660D01*
X16055434Y-15179660D02*
X16064958Y-15189184D01*
X16064958Y-15189184D02*
X16074482Y-15208232D01*
X16074482Y-15208232D02*
X16074482Y-15217755D01*
X16074482Y-15217755D02*
X16064958Y-15236803D01*
X16064958Y-15236803D02*
X16055434Y-15246327D01*
X16055434Y-15246327D02*
X16036387Y-15255851D01*
X16036387Y-15255851D02*
X15998291Y-15255851D01*
X15998291Y-15255851D02*
X15979244Y-15265375D01*
X15979244Y-15265375D02*
X15969720Y-15274898D01*
X15969720Y-15274898D02*
X15960196Y-15293946D01*
X15960196Y-15293946D02*
X15960196Y-15332041D01*
X15960196Y-15332041D02*
X15969720Y-15351089D01*
X15969720Y-15351089D02*
X15979244Y-15360613D01*
X15979244Y-15360613D02*
X15998291Y-15370136D01*
X15998291Y-15370136D02*
X16036387Y-15370136D01*
X16036387Y-15370136D02*
X16055434Y-15360613D01*
X16055434Y-15360613D02*
X16064958Y-15351089D01*
X16064958Y-15351089D02*
X16074482Y-15332041D01*
X16074482Y-15332041D02*
X16074482Y-15293946D01*
X16074482Y-15293946D02*
X16064958Y-15274898D01*
X16064958Y-15274898D02*
X16055434Y-15265375D01*
X16055434Y-15265375D02*
X16036387Y-15255851D01*
X16150672Y-15170136D02*
X16150672Y-15208232D01*
X16226863Y-15170136D02*
X16226863Y-15208232D01*
X16522101Y-15446327D02*
X16512577Y-15436803D01*
X16512577Y-15436803D02*
X16493529Y-15408232D01*
X16493529Y-15408232D02*
X16484006Y-15389184D01*
X16484006Y-15389184D02*
X16474482Y-15360613D01*
X16474482Y-15360613D02*
X16464958Y-15312994D01*
X16464958Y-15312994D02*
X16464958Y-15274898D01*
X16464958Y-15274898D02*
X16474482Y-15227279D01*
X16474482Y-15227279D02*
X16484006Y-15198708D01*
X16484006Y-15198708D02*
X16493529Y-15179660D01*
X16493529Y-15179660D02*
X16512577Y-15151089D01*
X16512577Y-15151089D02*
X16522101Y-15141565D01*
X16579244Y-15170136D02*
X16703053Y-15170136D01*
X16703053Y-15170136D02*
X16636387Y-15246327D01*
X16636387Y-15246327D02*
X16664958Y-15246327D01*
X16664958Y-15246327D02*
X16684006Y-15255851D01*
X16684006Y-15255851D02*
X16693529Y-15265375D01*
X16693529Y-15265375D02*
X16703053Y-15284422D01*
X16703053Y-15284422D02*
X16703053Y-15332041D01*
X16703053Y-15332041D02*
X16693529Y-15351089D01*
X16693529Y-15351089D02*
X16684006Y-15360613D01*
X16684006Y-15360613D02*
X16664958Y-15370136D01*
X16664958Y-15370136D02*
X16607815Y-15370136D01*
X16607815Y-15370136D02*
X16588768Y-15360613D01*
X16588768Y-15360613D02*
X16579244Y-15351089D01*
X16798291Y-15370136D02*
X16836387Y-15370136D01*
X16836387Y-15370136D02*
X16855434Y-15360613D01*
X16855434Y-15360613D02*
X16864958Y-15351089D01*
X16864958Y-15351089D02*
X16884006Y-15322517D01*
X16884006Y-15322517D02*
X16893530Y-15284422D01*
X16893530Y-15284422D02*
X16893530Y-15208232D01*
X16893530Y-15208232D02*
X16884006Y-15189184D01*
X16884006Y-15189184D02*
X16874482Y-15179660D01*
X16874482Y-15179660D02*
X16855434Y-15170136D01*
X16855434Y-15170136D02*
X16817339Y-15170136D01*
X16817339Y-15170136D02*
X16798291Y-15179660D01*
X16798291Y-15179660D02*
X16788768Y-15189184D01*
X16788768Y-15189184D02*
X16779244Y-15208232D01*
X16779244Y-15208232D02*
X16779244Y-15255851D01*
X16779244Y-15255851D02*
X16788768Y-15274898D01*
X16788768Y-15274898D02*
X16798291Y-15284422D01*
X16798291Y-15284422D02*
X16817339Y-15293946D01*
X16817339Y-15293946D02*
X16855434Y-15293946D01*
X16855434Y-15293946D02*
X16874482Y-15284422D01*
X16874482Y-15284422D02*
X16884006Y-15274898D01*
X16884006Y-15274898D02*
X16893530Y-15255851D01*
X17131625Y-15370136D02*
X17131625Y-15170136D01*
X17217339Y-15370136D02*
X17217339Y-15265375D01*
X17217339Y-15265375D02*
X17207815Y-15246327D01*
X17207815Y-15246327D02*
X17188768Y-15236803D01*
X17188768Y-15236803D02*
X17160196Y-15236803D01*
X17160196Y-15236803D02*
X17141149Y-15246327D01*
X17141149Y-15246327D02*
X17131625Y-15255851D01*
X17341149Y-15370136D02*
X17322101Y-15360613D01*
X17322101Y-15360613D02*
X17312577Y-15351089D01*
X17312577Y-15351089D02*
X17303053Y-15332041D01*
X17303053Y-15332041D02*
X17303053Y-15274898D01*
X17303053Y-15274898D02*
X17312577Y-15255851D01*
X17312577Y-15255851D02*
X17322101Y-15246327D01*
X17322101Y-15246327D02*
X17341149Y-15236803D01*
X17341149Y-15236803D02*
X17369720Y-15236803D01*
X17369720Y-15236803D02*
X17388768Y-15246327D01*
X17388768Y-15246327D02*
X17398292Y-15255851D01*
X17398292Y-15255851D02*
X17407815Y-15274898D01*
X17407815Y-15274898D02*
X17407815Y-15332041D01*
X17407815Y-15332041D02*
X17398292Y-15351089D01*
X17398292Y-15351089D02*
X17388768Y-15360613D01*
X17388768Y-15360613D02*
X17369720Y-15370136D01*
X17369720Y-15370136D02*
X17341149Y-15370136D01*
X17522101Y-15370136D02*
X17503053Y-15360613D01*
X17503053Y-15360613D02*
X17493530Y-15341565D01*
X17493530Y-15341565D02*
X17493530Y-15170136D01*
X17674482Y-15360613D02*
X17655434Y-15370136D01*
X17655434Y-15370136D02*
X17617339Y-15370136D01*
X17617339Y-15370136D02*
X17598292Y-15360613D01*
X17598292Y-15360613D02*
X17588768Y-15341565D01*
X17588768Y-15341565D02*
X17588768Y-15265375D01*
X17588768Y-15265375D02*
X17598292Y-15246327D01*
X17598292Y-15246327D02*
X17617339Y-15236803D01*
X17617339Y-15236803D02*
X17655434Y-15236803D01*
X17655434Y-15236803D02*
X17674482Y-15246327D01*
X17674482Y-15246327D02*
X17684006Y-15265375D01*
X17684006Y-15265375D02*
X17684006Y-15284422D01*
X17684006Y-15284422D02*
X17588768Y-15303470D01*
X17760196Y-15360613D02*
X17779244Y-15370136D01*
X17779244Y-15370136D02*
X17817339Y-15370136D01*
X17817339Y-15370136D02*
X17836387Y-15360613D01*
X17836387Y-15360613D02*
X17845911Y-15341565D01*
X17845911Y-15341565D02*
X17845911Y-15332041D01*
X17845911Y-15332041D02*
X17836387Y-15312994D01*
X17836387Y-15312994D02*
X17817339Y-15303470D01*
X17817339Y-15303470D02*
X17788768Y-15303470D01*
X17788768Y-15303470D02*
X17769720Y-15293946D01*
X17769720Y-15293946D02*
X17760196Y-15274898D01*
X17760196Y-15274898D02*
X17760196Y-15265375D01*
X17760196Y-15265375D02*
X17769720Y-15246327D01*
X17769720Y-15246327D02*
X17788768Y-15236803D01*
X17788768Y-15236803D02*
X17817339Y-15236803D01*
X17817339Y-15236803D02*
X17836387Y-15246327D01*
X17912577Y-15446327D02*
X17922101Y-15436803D01*
X17922101Y-15436803D02*
X17941149Y-15408232D01*
X17941149Y-15408232D02*
X17950673Y-15389184D01*
X17950673Y-15389184D02*
X17960196Y-15360613D01*
X17960196Y-15360613D02*
X17969720Y-15312994D01*
X17969720Y-15312994D02*
X17969720Y-15274898D01*
X17969720Y-15274898D02*
X17960196Y-15227279D01*
X17960196Y-15227279D02*
X17950673Y-15198708D01*
X17950673Y-15198708D02*
X17941149Y-15179660D01*
X17941149Y-15179660D02*
X17922101Y-15151089D01*
X17922101Y-15151089D02*
X17912577Y-15141565D01*
D12*
X12907038Y-15522653D02*
X12947038Y-15562653D01*
X12947038Y-15522653D02*
X12907038Y-15562653D01*
X12927038Y-15522653D02*
X12927038Y-15562653D01*
X12907038Y-15542653D02*
X12947038Y-15542653D01*
D11*
X13245910Y-15434136D02*
X13264958Y-15434136D01*
X13264958Y-15434136D02*
X13284005Y-15443660D01*
X13284005Y-15443660D02*
X13293529Y-15453184D01*
X13293529Y-15453184D02*
X13303053Y-15472232D01*
X13303053Y-15472232D02*
X13312577Y-15510327D01*
X13312577Y-15510327D02*
X13312577Y-15557946D01*
X13312577Y-15557946D02*
X13303053Y-15596041D01*
X13303053Y-15596041D02*
X13293529Y-15615089D01*
X13293529Y-15615089D02*
X13284005Y-15624613D01*
X13284005Y-15624613D02*
X13264958Y-15634136D01*
X13264958Y-15634136D02*
X13245910Y-15634136D01*
X13245910Y-15634136D02*
X13226862Y-15624613D01*
X13226862Y-15624613D02*
X13217339Y-15615089D01*
X13217339Y-15615089D02*
X13207815Y-15596041D01*
X13207815Y-15596041D02*
X13198291Y-15557946D01*
X13198291Y-15557946D02*
X13198291Y-15510327D01*
X13198291Y-15510327D02*
X13207815Y-15472232D01*
X13207815Y-15472232D02*
X13217339Y-15453184D01*
X13217339Y-15453184D02*
X13226862Y-15443660D01*
X13226862Y-15443660D02*
X13245910Y-15434136D01*
X13398291Y-15615089D02*
X13407815Y-15624613D01*
X13407815Y-15624613D02*
X13398291Y-15634136D01*
X13398291Y-15634136D02*
X13388767Y-15624613D01*
X13388767Y-15624613D02*
X13398291Y-15615089D01*
X13398291Y-15615089D02*
X13398291Y-15634136D01*
X13579243Y-15500803D02*
X13579243Y-15634136D01*
X13531624Y-15424613D02*
X13484005Y-15567470D01*
X13484005Y-15567470D02*
X13607815Y-15567470D01*
X13722101Y-15434136D02*
X13741148Y-15434136D01*
X13741148Y-15434136D02*
X13760196Y-15443660D01*
X13760196Y-15443660D02*
X13769720Y-15453184D01*
X13769720Y-15453184D02*
X13779243Y-15472232D01*
X13779243Y-15472232D02*
X13788767Y-15510327D01*
X13788767Y-15510327D02*
X13788767Y-15557946D01*
X13788767Y-15557946D02*
X13779243Y-15596041D01*
X13779243Y-15596041D02*
X13769720Y-15615089D01*
X13769720Y-15615089D02*
X13760196Y-15624613D01*
X13760196Y-15624613D02*
X13741148Y-15634136D01*
X13741148Y-15634136D02*
X13722101Y-15634136D01*
X13722101Y-15634136D02*
X13703053Y-15624613D01*
X13703053Y-15624613D02*
X13693529Y-15615089D01*
X13693529Y-15615089D02*
X13684005Y-15596041D01*
X13684005Y-15596041D02*
X13674482Y-15557946D01*
X13674482Y-15557946D02*
X13674482Y-15510327D01*
X13674482Y-15510327D02*
X13684005Y-15472232D01*
X13684005Y-15472232D02*
X13693529Y-15453184D01*
X13693529Y-15453184D02*
X13703053Y-15443660D01*
X13703053Y-15443660D02*
X13722101Y-15434136D01*
X13912577Y-15434136D02*
X13931624Y-15434136D01*
X13931624Y-15434136D02*
X13950672Y-15443660D01*
X13950672Y-15443660D02*
X13960196Y-15453184D01*
X13960196Y-15453184D02*
X13969720Y-15472232D01*
X13969720Y-15472232D02*
X13979243Y-15510327D01*
X13979243Y-15510327D02*
X13979243Y-15557946D01*
X13979243Y-15557946D02*
X13969720Y-15596041D01*
X13969720Y-15596041D02*
X13960196Y-15615089D01*
X13960196Y-15615089D02*
X13950672Y-15624613D01*
X13950672Y-15624613D02*
X13931624Y-15634136D01*
X13931624Y-15634136D02*
X13912577Y-15634136D01*
X13912577Y-15634136D02*
X13893529Y-15624613D01*
X13893529Y-15624613D02*
X13884005Y-15615089D01*
X13884005Y-15615089D02*
X13874482Y-15596041D01*
X13874482Y-15596041D02*
X13864958Y-15557946D01*
X13864958Y-15557946D02*
X13864958Y-15510327D01*
X13864958Y-15510327D02*
X13874482Y-15472232D01*
X13874482Y-15472232D02*
X13884005Y-15453184D01*
X13884005Y-15453184D02*
X13893529Y-15443660D01*
X13893529Y-15443660D02*
X13912577Y-15434136D01*
X14064958Y-15634136D02*
X14064958Y-15500803D01*
X14064958Y-15519851D02*
X14074482Y-15510327D01*
X14074482Y-15510327D02*
X14093529Y-15500803D01*
X14093529Y-15500803D02*
X14122101Y-15500803D01*
X14122101Y-15500803D02*
X14141148Y-15510327D01*
X14141148Y-15510327D02*
X14150672Y-15529375D01*
X14150672Y-15529375D02*
X14150672Y-15634136D01*
X14150672Y-15529375D02*
X14160196Y-15510327D01*
X14160196Y-15510327D02*
X14179243Y-15500803D01*
X14179243Y-15500803D02*
X14207815Y-15500803D01*
X14207815Y-15500803D02*
X14226863Y-15510327D01*
X14226863Y-15510327D02*
X14236386Y-15529375D01*
X14236386Y-15529375D02*
X14236386Y-15634136D01*
X14331624Y-15634136D02*
X14331624Y-15500803D01*
X14331624Y-15519851D02*
X14341148Y-15510327D01*
X14341148Y-15510327D02*
X14360196Y-15500803D01*
X14360196Y-15500803D02*
X14388767Y-15500803D01*
X14388767Y-15500803D02*
X14407815Y-15510327D01*
X14407815Y-15510327D02*
X14417339Y-15529375D01*
X14417339Y-15529375D02*
X14417339Y-15634136D01*
X14417339Y-15529375D02*
X14426863Y-15510327D01*
X14426863Y-15510327D02*
X14445910Y-15500803D01*
X14445910Y-15500803D02*
X14474482Y-15500803D01*
X14474482Y-15500803D02*
X14493529Y-15510327D01*
X14493529Y-15510327D02*
X14503053Y-15529375D01*
X14503053Y-15529375D02*
X14503053Y-15634136D01*
X14893529Y-15424613D02*
X14722101Y-15681755D01*
X15150672Y-15434136D02*
X15169720Y-15434136D01*
X15169720Y-15434136D02*
X15188767Y-15443660D01*
X15188767Y-15443660D02*
X15198291Y-15453184D01*
X15198291Y-15453184D02*
X15207815Y-15472232D01*
X15207815Y-15472232D02*
X15217339Y-15510327D01*
X15217339Y-15510327D02*
X15217339Y-15557946D01*
X15217339Y-15557946D02*
X15207815Y-15596041D01*
X15207815Y-15596041D02*
X15198291Y-15615089D01*
X15198291Y-15615089D02*
X15188767Y-15624613D01*
X15188767Y-15624613D02*
X15169720Y-15634136D01*
X15169720Y-15634136D02*
X15150672Y-15634136D01*
X15150672Y-15634136D02*
X15131625Y-15624613D01*
X15131625Y-15624613D02*
X15122101Y-15615089D01*
X15122101Y-15615089D02*
X15112577Y-15596041D01*
X15112577Y-15596041D02*
X15103053Y-15557946D01*
X15103053Y-15557946D02*
X15103053Y-15510327D01*
X15103053Y-15510327D02*
X15112577Y-15472232D01*
X15112577Y-15472232D02*
X15122101Y-15453184D01*
X15122101Y-15453184D02*
X15131625Y-15443660D01*
X15131625Y-15443660D02*
X15150672Y-15434136D01*
X15303053Y-15615089D02*
X15312577Y-15624613D01*
X15312577Y-15624613D02*
X15303053Y-15634136D01*
X15303053Y-15634136D02*
X15293529Y-15624613D01*
X15293529Y-15624613D02*
X15303053Y-15615089D01*
X15303053Y-15615089D02*
X15303053Y-15634136D01*
X15436386Y-15434136D02*
X15455434Y-15434136D01*
X15455434Y-15434136D02*
X15474482Y-15443660D01*
X15474482Y-15443660D02*
X15484006Y-15453184D01*
X15484006Y-15453184D02*
X15493529Y-15472232D01*
X15493529Y-15472232D02*
X15503053Y-15510327D01*
X15503053Y-15510327D02*
X15503053Y-15557946D01*
X15503053Y-15557946D02*
X15493529Y-15596041D01*
X15493529Y-15596041D02*
X15484006Y-15615089D01*
X15484006Y-15615089D02*
X15474482Y-15624613D01*
X15474482Y-15624613D02*
X15455434Y-15634136D01*
X15455434Y-15634136D02*
X15436386Y-15634136D01*
X15436386Y-15634136D02*
X15417339Y-15624613D01*
X15417339Y-15624613D02*
X15407815Y-15615089D01*
X15407815Y-15615089D02*
X15398291Y-15596041D01*
X15398291Y-15596041D02*
X15388767Y-15557946D01*
X15388767Y-15557946D02*
X15388767Y-15510327D01*
X15388767Y-15510327D02*
X15398291Y-15472232D01*
X15398291Y-15472232D02*
X15407815Y-15453184D01*
X15407815Y-15453184D02*
X15417339Y-15443660D01*
X15417339Y-15443660D02*
X15436386Y-15434136D01*
X15693529Y-15634136D02*
X15579244Y-15634136D01*
X15636386Y-15634136D02*
X15636386Y-15434136D01*
X15636386Y-15434136D02*
X15617339Y-15462708D01*
X15617339Y-15462708D02*
X15598291Y-15481755D01*
X15598291Y-15481755D02*
X15579244Y-15491279D01*
X15874482Y-15434136D02*
X15779244Y-15434136D01*
X15779244Y-15434136D02*
X15769720Y-15529375D01*
X15769720Y-15529375D02*
X15779244Y-15519851D01*
X15779244Y-15519851D02*
X15798291Y-15510327D01*
X15798291Y-15510327D02*
X15845910Y-15510327D01*
X15845910Y-15510327D02*
X15864958Y-15519851D01*
X15864958Y-15519851D02*
X15874482Y-15529375D01*
X15874482Y-15529375D02*
X15884006Y-15548422D01*
X15884006Y-15548422D02*
X15884006Y-15596041D01*
X15884006Y-15596041D02*
X15874482Y-15615089D01*
X15874482Y-15615089D02*
X15864958Y-15624613D01*
X15864958Y-15624613D02*
X15845910Y-15634136D01*
X15845910Y-15634136D02*
X15798291Y-15634136D01*
X15798291Y-15634136D02*
X15779244Y-15624613D01*
X15779244Y-15624613D02*
X15769720Y-15615089D01*
X15950672Y-15434136D02*
X16084006Y-15434136D01*
X16084006Y-15434136D02*
X15998291Y-15634136D01*
X16150672Y-15434136D02*
X16150672Y-15472232D01*
X16226863Y-15434136D02*
X16226863Y-15472232D01*
X16522101Y-15710327D02*
X16512577Y-15700803D01*
X16512577Y-15700803D02*
X16493529Y-15672232D01*
X16493529Y-15672232D02*
X16484006Y-15653184D01*
X16484006Y-15653184D02*
X16474482Y-15624613D01*
X16474482Y-15624613D02*
X16464958Y-15576994D01*
X16464958Y-15576994D02*
X16464958Y-15538898D01*
X16464958Y-15538898D02*
X16474482Y-15491279D01*
X16474482Y-15491279D02*
X16484006Y-15462708D01*
X16484006Y-15462708D02*
X16493529Y-15443660D01*
X16493529Y-15443660D02*
X16512577Y-15415089D01*
X16512577Y-15415089D02*
X16522101Y-15405565D01*
X16588768Y-15453184D02*
X16598291Y-15443660D01*
X16598291Y-15443660D02*
X16617339Y-15434136D01*
X16617339Y-15434136D02*
X16664958Y-15434136D01*
X16664958Y-15434136D02*
X16684006Y-15443660D01*
X16684006Y-15443660D02*
X16693529Y-15453184D01*
X16693529Y-15453184D02*
X16703053Y-15472232D01*
X16703053Y-15472232D02*
X16703053Y-15491279D01*
X16703053Y-15491279D02*
X16693529Y-15519851D01*
X16693529Y-15519851D02*
X16579244Y-15634136D01*
X16579244Y-15634136D02*
X16703053Y-15634136D01*
X16941149Y-15634136D02*
X16941149Y-15434136D01*
X17026863Y-15634136D02*
X17026863Y-15529375D01*
X17026863Y-15529375D02*
X17017339Y-15510327D01*
X17017339Y-15510327D02*
X16998292Y-15500803D01*
X16998292Y-15500803D02*
X16969720Y-15500803D01*
X16969720Y-15500803D02*
X16950672Y-15510327D01*
X16950672Y-15510327D02*
X16941149Y-15519851D01*
X17150672Y-15634136D02*
X17131625Y-15624613D01*
X17131625Y-15624613D02*
X17122101Y-15615089D01*
X17122101Y-15615089D02*
X17112577Y-15596041D01*
X17112577Y-15596041D02*
X17112577Y-15538898D01*
X17112577Y-15538898D02*
X17122101Y-15519851D01*
X17122101Y-15519851D02*
X17131625Y-15510327D01*
X17131625Y-15510327D02*
X17150672Y-15500803D01*
X17150672Y-15500803D02*
X17179244Y-15500803D01*
X17179244Y-15500803D02*
X17198292Y-15510327D01*
X17198292Y-15510327D02*
X17207815Y-15519851D01*
X17207815Y-15519851D02*
X17217339Y-15538898D01*
X17217339Y-15538898D02*
X17217339Y-15596041D01*
X17217339Y-15596041D02*
X17207815Y-15615089D01*
X17207815Y-15615089D02*
X17198292Y-15624613D01*
X17198292Y-15624613D02*
X17179244Y-15634136D01*
X17179244Y-15634136D02*
X17150672Y-15634136D01*
X17331625Y-15634136D02*
X17312577Y-15624613D01*
X17312577Y-15624613D02*
X17303053Y-15605565D01*
X17303053Y-15605565D02*
X17303053Y-15434136D01*
X17484006Y-15624613D02*
X17464958Y-15634136D01*
X17464958Y-15634136D02*
X17426863Y-15634136D01*
X17426863Y-15634136D02*
X17407815Y-15624613D01*
X17407815Y-15624613D02*
X17398292Y-15605565D01*
X17398292Y-15605565D02*
X17398292Y-15529375D01*
X17398292Y-15529375D02*
X17407815Y-15510327D01*
X17407815Y-15510327D02*
X17426863Y-15500803D01*
X17426863Y-15500803D02*
X17464958Y-15500803D01*
X17464958Y-15500803D02*
X17484006Y-15510327D01*
X17484006Y-15510327D02*
X17493530Y-15529375D01*
X17493530Y-15529375D02*
X17493530Y-15548422D01*
X17493530Y-15548422D02*
X17398292Y-15567470D01*
X17569720Y-15624613D02*
X17588768Y-15634136D01*
X17588768Y-15634136D02*
X17626863Y-15634136D01*
X17626863Y-15634136D02*
X17645911Y-15624613D01*
X17645911Y-15624613D02*
X17655434Y-15605565D01*
X17655434Y-15605565D02*
X17655434Y-15596041D01*
X17655434Y-15596041D02*
X17645911Y-15576994D01*
X17645911Y-15576994D02*
X17626863Y-15567470D01*
X17626863Y-15567470D02*
X17598292Y-15567470D01*
X17598292Y-15567470D02*
X17579244Y-15557946D01*
X17579244Y-15557946D02*
X17569720Y-15538898D01*
X17569720Y-15538898D02*
X17569720Y-15529375D01*
X17569720Y-15529375D02*
X17579244Y-15510327D01*
X17579244Y-15510327D02*
X17598292Y-15500803D01*
X17598292Y-15500803D02*
X17626863Y-15500803D01*
X17626863Y-15500803D02*
X17645911Y-15510327D01*
X17722101Y-15710327D02*
X17731625Y-15700803D01*
X17731625Y-15700803D02*
X17750673Y-15672232D01*
X17750673Y-15672232D02*
X17760196Y-15653184D01*
X17760196Y-15653184D02*
X17769720Y-15624613D01*
X17769720Y-15624613D02*
X17779244Y-15576994D01*
X17779244Y-15576994D02*
X17779244Y-15538898D01*
X17779244Y-15538898D02*
X17769720Y-15491279D01*
X17769720Y-15491279D02*
X17760196Y-15462708D01*
X17760196Y-15462708D02*
X17750673Y-15443660D01*
X17750673Y-15443660D02*
X17731625Y-15415089D01*
X17731625Y-15415089D02*
X17722101Y-15405565D01*
D12*
X12887038Y-15776653D02*
X12947038Y-15836653D01*
X12947038Y-15776653D02*
X12887038Y-15836653D01*
X12938251Y-15827866D02*
X12938251Y-15785439D01*
X12895825Y-15785439D01*
X12895825Y-15827866D01*
X12938251Y-15827866D01*
D11*
X13245910Y-15698136D02*
X13264958Y-15698136D01*
X13264958Y-15698136D02*
X13284005Y-15707660D01*
X13284005Y-15707660D02*
X13293529Y-15717184D01*
X13293529Y-15717184D02*
X13303053Y-15736232D01*
X13303053Y-15736232D02*
X13312577Y-15774327D01*
X13312577Y-15774327D02*
X13312577Y-15821946D01*
X13312577Y-15821946D02*
X13303053Y-15860041D01*
X13303053Y-15860041D02*
X13293529Y-15879089D01*
X13293529Y-15879089D02*
X13284005Y-15888613D01*
X13284005Y-15888613D02*
X13264958Y-15898136D01*
X13264958Y-15898136D02*
X13245910Y-15898136D01*
X13245910Y-15898136D02*
X13226862Y-15888613D01*
X13226862Y-15888613D02*
X13217339Y-15879089D01*
X13217339Y-15879089D02*
X13207815Y-15860041D01*
X13207815Y-15860041D02*
X13198291Y-15821946D01*
X13198291Y-15821946D02*
X13198291Y-15774327D01*
X13198291Y-15774327D02*
X13207815Y-15736232D01*
X13207815Y-15736232D02*
X13217339Y-15717184D01*
X13217339Y-15717184D02*
X13226862Y-15707660D01*
X13226862Y-15707660D02*
X13245910Y-15698136D01*
X13398291Y-15879089D02*
X13407815Y-15888613D01*
X13407815Y-15888613D02*
X13398291Y-15898136D01*
X13398291Y-15898136D02*
X13388767Y-15888613D01*
X13388767Y-15888613D02*
X13398291Y-15879089D01*
X13398291Y-15879089D02*
X13398291Y-15898136D01*
X13579243Y-15698136D02*
X13541148Y-15698136D01*
X13541148Y-15698136D02*
X13522101Y-15707660D01*
X13522101Y-15707660D02*
X13512577Y-15717184D01*
X13512577Y-15717184D02*
X13493529Y-15745755D01*
X13493529Y-15745755D02*
X13484005Y-15783851D01*
X13484005Y-15783851D02*
X13484005Y-15860041D01*
X13484005Y-15860041D02*
X13493529Y-15879089D01*
X13493529Y-15879089D02*
X13503053Y-15888613D01*
X13503053Y-15888613D02*
X13522101Y-15898136D01*
X13522101Y-15898136D02*
X13560196Y-15898136D01*
X13560196Y-15898136D02*
X13579243Y-15888613D01*
X13579243Y-15888613D02*
X13588767Y-15879089D01*
X13588767Y-15879089D02*
X13598291Y-15860041D01*
X13598291Y-15860041D02*
X13598291Y-15812422D01*
X13598291Y-15812422D02*
X13588767Y-15793375D01*
X13588767Y-15793375D02*
X13579243Y-15783851D01*
X13579243Y-15783851D02*
X13560196Y-15774327D01*
X13560196Y-15774327D02*
X13522101Y-15774327D01*
X13522101Y-15774327D02*
X13503053Y-15783851D01*
X13503053Y-15783851D02*
X13493529Y-15793375D01*
X13493529Y-15793375D02*
X13484005Y-15812422D01*
X13722101Y-15698136D02*
X13741148Y-15698136D01*
X13741148Y-15698136D02*
X13760196Y-15707660D01*
X13760196Y-15707660D02*
X13769720Y-15717184D01*
X13769720Y-15717184D02*
X13779243Y-15736232D01*
X13779243Y-15736232D02*
X13788767Y-15774327D01*
X13788767Y-15774327D02*
X13788767Y-15821946D01*
X13788767Y-15821946D02*
X13779243Y-15860041D01*
X13779243Y-15860041D02*
X13769720Y-15879089D01*
X13769720Y-15879089D02*
X13760196Y-15888613D01*
X13760196Y-15888613D02*
X13741148Y-15898136D01*
X13741148Y-15898136D02*
X13722101Y-15898136D01*
X13722101Y-15898136D02*
X13703053Y-15888613D01*
X13703053Y-15888613D02*
X13693529Y-15879089D01*
X13693529Y-15879089D02*
X13684005Y-15860041D01*
X13684005Y-15860041D02*
X13674482Y-15821946D01*
X13674482Y-15821946D02*
X13674482Y-15774327D01*
X13674482Y-15774327D02*
X13684005Y-15736232D01*
X13684005Y-15736232D02*
X13693529Y-15717184D01*
X13693529Y-15717184D02*
X13703053Y-15707660D01*
X13703053Y-15707660D02*
X13722101Y-15698136D01*
X13912577Y-15698136D02*
X13931624Y-15698136D01*
X13931624Y-15698136D02*
X13950672Y-15707660D01*
X13950672Y-15707660D02*
X13960196Y-15717184D01*
X13960196Y-15717184D02*
X13969720Y-15736232D01*
X13969720Y-15736232D02*
X13979243Y-15774327D01*
X13979243Y-15774327D02*
X13979243Y-15821946D01*
X13979243Y-15821946D02*
X13969720Y-15860041D01*
X13969720Y-15860041D02*
X13960196Y-15879089D01*
X13960196Y-15879089D02*
X13950672Y-15888613D01*
X13950672Y-15888613D02*
X13931624Y-15898136D01*
X13931624Y-15898136D02*
X13912577Y-15898136D01*
X13912577Y-15898136D02*
X13893529Y-15888613D01*
X13893529Y-15888613D02*
X13884005Y-15879089D01*
X13884005Y-15879089D02*
X13874482Y-15860041D01*
X13874482Y-15860041D02*
X13864958Y-15821946D01*
X13864958Y-15821946D02*
X13864958Y-15774327D01*
X13864958Y-15774327D02*
X13874482Y-15736232D01*
X13874482Y-15736232D02*
X13884005Y-15717184D01*
X13884005Y-15717184D02*
X13893529Y-15707660D01*
X13893529Y-15707660D02*
X13912577Y-15698136D01*
X14064958Y-15898136D02*
X14064958Y-15764803D01*
X14064958Y-15783851D02*
X14074482Y-15774327D01*
X14074482Y-15774327D02*
X14093529Y-15764803D01*
X14093529Y-15764803D02*
X14122101Y-15764803D01*
X14122101Y-15764803D02*
X14141148Y-15774327D01*
X14141148Y-15774327D02*
X14150672Y-15793375D01*
X14150672Y-15793375D02*
X14150672Y-15898136D01*
X14150672Y-15793375D02*
X14160196Y-15774327D01*
X14160196Y-15774327D02*
X14179243Y-15764803D01*
X14179243Y-15764803D02*
X14207815Y-15764803D01*
X14207815Y-15764803D02*
X14226863Y-15774327D01*
X14226863Y-15774327D02*
X14236386Y-15793375D01*
X14236386Y-15793375D02*
X14236386Y-15898136D01*
X14331624Y-15898136D02*
X14331624Y-15764803D01*
X14331624Y-15783851D02*
X14341148Y-15774327D01*
X14341148Y-15774327D02*
X14360196Y-15764803D01*
X14360196Y-15764803D02*
X14388767Y-15764803D01*
X14388767Y-15764803D02*
X14407815Y-15774327D01*
X14407815Y-15774327D02*
X14417339Y-15793375D01*
X14417339Y-15793375D02*
X14417339Y-15898136D01*
X14417339Y-15793375D02*
X14426863Y-15774327D01*
X14426863Y-15774327D02*
X14445910Y-15764803D01*
X14445910Y-15764803D02*
X14474482Y-15764803D01*
X14474482Y-15764803D02*
X14493529Y-15774327D01*
X14493529Y-15774327D02*
X14503053Y-15793375D01*
X14503053Y-15793375D02*
X14503053Y-15898136D01*
X14893529Y-15688613D02*
X14722101Y-15945755D01*
X15150672Y-15698136D02*
X15169720Y-15698136D01*
X15169720Y-15698136D02*
X15188767Y-15707660D01*
X15188767Y-15707660D02*
X15198291Y-15717184D01*
X15198291Y-15717184D02*
X15207815Y-15736232D01*
X15207815Y-15736232D02*
X15217339Y-15774327D01*
X15217339Y-15774327D02*
X15217339Y-15821946D01*
X15217339Y-15821946D02*
X15207815Y-15860041D01*
X15207815Y-15860041D02*
X15198291Y-15879089D01*
X15198291Y-15879089D02*
X15188767Y-15888613D01*
X15188767Y-15888613D02*
X15169720Y-15898136D01*
X15169720Y-15898136D02*
X15150672Y-15898136D01*
X15150672Y-15898136D02*
X15131625Y-15888613D01*
X15131625Y-15888613D02*
X15122101Y-15879089D01*
X15122101Y-15879089D02*
X15112577Y-15860041D01*
X15112577Y-15860041D02*
X15103053Y-15821946D01*
X15103053Y-15821946D02*
X15103053Y-15774327D01*
X15103053Y-15774327D02*
X15112577Y-15736232D01*
X15112577Y-15736232D02*
X15122101Y-15717184D01*
X15122101Y-15717184D02*
X15131625Y-15707660D01*
X15131625Y-15707660D02*
X15150672Y-15698136D01*
X15303053Y-15879089D02*
X15312577Y-15888613D01*
X15312577Y-15888613D02*
X15303053Y-15898136D01*
X15303053Y-15898136D02*
X15293529Y-15888613D01*
X15293529Y-15888613D02*
X15303053Y-15879089D01*
X15303053Y-15879089D02*
X15303053Y-15898136D01*
X15436386Y-15698136D02*
X15455434Y-15698136D01*
X15455434Y-15698136D02*
X15474482Y-15707660D01*
X15474482Y-15707660D02*
X15484006Y-15717184D01*
X15484006Y-15717184D02*
X15493529Y-15736232D01*
X15493529Y-15736232D02*
X15503053Y-15774327D01*
X15503053Y-15774327D02*
X15503053Y-15821946D01*
X15503053Y-15821946D02*
X15493529Y-15860041D01*
X15493529Y-15860041D02*
X15484006Y-15879089D01*
X15484006Y-15879089D02*
X15474482Y-15888613D01*
X15474482Y-15888613D02*
X15455434Y-15898136D01*
X15455434Y-15898136D02*
X15436386Y-15898136D01*
X15436386Y-15898136D02*
X15417339Y-15888613D01*
X15417339Y-15888613D02*
X15407815Y-15879089D01*
X15407815Y-15879089D02*
X15398291Y-15860041D01*
X15398291Y-15860041D02*
X15388767Y-15821946D01*
X15388767Y-15821946D02*
X15388767Y-15774327D01*
X15388767Y-15774327D02*
X15398291Y-15736232D01*
X15398291Y-15736232D02*
X15407815Y-15717184D01*
X15407815Y-15717184D02*
X15417339Y-15707660D01*
X15417339Y-15707660D02*
X15436386Y-15698136D01*
X15579244Y-15717184D02*
X15588767Y-15707660D01*
X15588767Y-15707660D02*
X15607815Y-15698136D01*
X15607815Y-15698136D02*
X15655434Y-15698136D01*
X15655434Y-15698136D02*
X15674482Y-15707660D01*
X15674482Y-15707660D02*
X15684006Y-15717184D01*
X15684006Y-15717184D02*
X15693529Y-15736232D01*
X15693529Y-15736232D02*
X15693529Y-15755279D01*
X15693529Y-15755279D02*
X15684006Y-15783851D01*
X15684006Y-15783851D02*
X15569720Y-15898136D01*
X15569720Y-15898136D02*
X15693529Y-15898136D01*
X15760196Y-15698136D02*
X15884006Y-15698136D01*
X15884006Y-15698136D02*
X15817339Y-15774327D01*
X15817339Y-15774327D02*
X15845910Y-15774327D01*
X15845910Y-15774327D02*
X15864958Y-15783851D01*
X15864958Y-15783851D02*
X15874482Y-15793375D01*
X15874482Y-15793375D02*
X15884006Y-15812422D01*
X15884006Y-15812422D02*
X15884006Y-15860041D01*
X15884006Y-15860041D02*
X15874482Y-15879089D01*
X15874482Y-15879089D02*
X15864958Y-15888613D01*
X15864958Y-15888613D02*
X15845910Y-15898136D01*
X15845910Y-15898136D02*
X15788767Y-15898136D01*
X15788767Y-15898136D02*
X15769720Y-15888613D01*
X15769720Y-15888613D02*
X15760196Y-15879089D01*
X16055434Y-15698136D02*
X16017339Y-15698136D01*
X16017339Y-15698136D02*
X15998291Y-15707660D01*
X15998291Y-15707660D02*
X15988767Y-15717184D01*
X15988767Y-15717184D02*
X15969720Y-15745755D01*
X15969720Y-15745755D02*
X15960196Y-15783851D01*
X15960196Y-15783851D02*
X15960196Y-15860041D01*
X15960196Y-15860041D02*
X15969720Y-15879089D01*
X15969720Y-15879089D02*
X15979244Y-15888613D01*
X15979244Y-15888613D02*
X15998291Y-15898136D01*
X15998291Y-15898136D02*
X16036387Y-15898136D01*
X16036387Y-15898136D02*
X16055434Y-15888613D01*
X16055434Y-15888613D02*
X16064958Y-15879089D01*
X16064958Y-15879089D02*
X16074482Y-15860041D01*
X16074482Y-15860041D02*
X16074482Y-15812422D01*
X16074482Y-15812422D02*
X16064958Y-15793375D01*
X16064958Y-15793375D02*
X16055434Y-15783851D01*
X16055434Y-15783851D02*
X16036387Y-15774327D01*
X16036387Y-15774327D02*
X15998291Y-15774327D01*
X15998291Y-15774327D02*
X15979244Y-15783851D01*
X15979244Y-15783851D02*
X15969720Y-15793375D01*
X15969720Y-15793375D02*
X15960196Y-15812422D01*
X16150672Y-15698136D02*
X16150672Y-15736232D01*
X16226863Y-15698136D02*
X16226863Y-15736232D01*
X16522101Y-15974327D02*
X16512577Y-15964803D01*
X16512577Y-15964803D02*
X16493529Y-15936232D01*
X16493529Y-15936232D02*
X16484006Y-15917184D01*
X16484006Y-15917184D02*
X16474482Y-15888613D01*
X16474482Y-15888613D02*
X16464958Y-15840994D01*
X16464958Y-15840994D02*
X16464958Y-15802898D01*
X16464958Y-15802898D02*
X16474482Y-15755279D01*
X16474482Y-15755279D02*
X16484006Y-15726708D01*
X16484006Y-15726708D02*
X16493529Y-15707660D01*
X16493529Y-15707660D02*
X16512577Y-15679089D01*
X16512577Y-15679089D02*
X16522101Y-15669565D01*
X16636387Y-15698136D02*
X16655434Y-15698136D01*
X16655434Y-15698136D02*
X16674482Y-15707660D01*
X16674482Y-15707660D02*
X16684006Y-15717184D01*
X16684006Y-15717184D02*
X16693529Y-15736232D01*
X16693529Y-15736232D02*
X16703053Y-15774327D01*
X16703053Y-15774327D02*
X16703053Y-15821946D01*
X16703053Y-15821946D02*
X16693529Y-15860041D01*
X16693529Y-15860041D02*
X16684006Y-15879089D01*
X16684006Y-15879089D02*
X16674482Y-15888613D01*
X16674482Y-15888613D02*
X16655434Y-15898136D01*
X16655434Y-15898136D02*
X16636387Y-15898136D01*
X16636387Y-15898136D02*
X16617339Y-15888613D01*
X16617339Y-15888613D02*
X16607815Y-15879089D01*
X16607815Y-15879089D02*
X16598291Y-15860041D01*
X16598291Y-15860041D02*
X16588768Y-15821946D01*
X16588768Y-15821946D02*
X16588768Y-15774327D01*
X16588768Y-15774327D02*
X16598291Y-15736232D01*
X16598291Y-15736232D02*
X16607815Y-15717184D01*
X16607815Y-15717184D02*
X16617339Y-15707660D01*
X16617339Y-15707660D02*
X16636387Y-15698136D01*
X16941149Y-15898136D02*
X16941149Y-15698136D01*
X17026863Y-15898136D02*
X17026863Y-15793375D01*
X17026863Y-15793375D02*
X17017339Y-15774327D01*
X17017339Y-15774327D02*
X16998292Y-15764803D01*
X16998292Y-15764803D02*
X16969720Y-15764803D01*
X16969720Y-15764803D02*
X16950672Y-15774327D01*
X16950672Y-15774327D02*
X16941149Y-15783851D01*
X17150672Y-15898136D02*
X17131625Y-15888613D01*
X17131625Y-15888613D02*
X17122101Y-15879089D01*
X17122101Y-15879089D02*
X17112577Y-15860041D01*
X17112577Y-15860041D02*
X17112577Y-15802898D01*
X17112577Y-15802898D02*
X17122101Y-15783851D01*
X17122101Y-15783851D02*
X17131625Y-15774327D01*
X17131625Y-15774327D02*
X17150672Y-15764803D01*
X17150672Y-15764803D02*
X17179244Y-15764803D01*
X17179244Y-15764803D02*
X17198292Y-15774327D01*
X17198292Y-15774327D02*
X17207815Y-15783851D01*
X17207815Y-15783851D02*
X17217339Y-15802898D01*
X17217339Y-15802898D02*
X17217339Y-15860041D01*
X17217339Y-15860041D02*
X17207815Y-15879089D01*
X17207815Y-15879089D02*
X17198292Y-15888613D01*
X17198292Y-15888613D02*
X17179244Y-15898136D01*
X17179244Y-15898136D02*
X17150672Y-15898136D01*
X17331625Y-15898136D02*
X17312577Y-15888613D01*
X17312577Y-15888613D02*
X17303053Y-15869565D01*
X17303053Y-15869565D02*
X17303053Y-15698136D01*
X17484006Y-15888613D02*
X17464958Y-15898136D01*
X17464958Y-15898136D02*
X17426863Y-15898136D01*
X17426863Y-15898136D02*
X17407815Y-15888613D01*
X17407815Y-15888613D02*
X17398292Y-15869565D01*
X17398292Y-15869565D02*
X17398292Y-15793375D01*
X17398292Y-15793375D02*
X17407815Y-15774327D01*
X17407815Y-15774327D02*
X17426863Y-15764803D01*
X17426863Y-15764803D02*
X17464958Y-15764803D01*
X17464958Y-15764803D02*
X17484006Y-15774327D01*
X17484006Y-15774327D02*
X17493530Y-15793375D01*
X17493530Y-15793375D02*
X17493530Y-15812422D01*
X17493530Y-15812422D02*
X17398292Y-15831470D01*
X17569720Y-15888613D02*
X17588768Y-15898136D01*
X17588768Y-15898136D02*
X17626863Y-15898136D01*
X17626863Y-15898136D02*
X17645911Y-15888613D01*
X17645911Y-15888613D02*
X17655434Y-15869565D01*
X17655434Y-15869565D02*
X17655434Y-15860041D01*
X17655434Y-15860041D02*
X17645911Y-15840994D01*
X17645911Y-15840994D02*
X17626863Y-15831470D01*
X17626863Y-15831470D02*
X17598292Y-15831470D01*
X17598292Y-15831470D02*
X17579244Y-15821946D01*
X17579244Y-15821946D02*
X17569720Y-15802898D01*
X17569720Y-15802898D02*
X17569720Y-15793375D01*
X17569720Y-15793375D02*
X17579244Y-15774327D01*
X17579244Y-15774327D02*
X17598292Y-15764803D01*
X17598292Y-15764803D02*
X17626863Y-15764803D01*
X17626863Y-15764803D02*
X17645911Y-15774327D01*
X17893530Y-15821946D02*
X18045911Y-15821946D01*
X17969720Y-15898136D02*
X17969720Y-15745755D01*
X18379244Y-15764803D02*
X18379244Y-15898136D01*
X18331625Y-15688613D02*
X18284006Y-15831470D01*
X18284006Y-15831470D02*
X18407815Y-15831470D01*
X18626863Y-15888613D02*
X18645911Y-15898136D01*
X18645911Y-15898136D02*
X18684006Y-15898136D01*
X18684006Y-15898136D02*
X18703054Y-15888613D01*
X18703054Y-15888613D02*
X18712577Y-15869565D01*
X18712577Y-15869565D02*
X18712577Y-15860041D01*
X18712577Y-15860041D02*
X18703054Y-15840994D01*
X18703054Y-15840994D02*
X18684006Y-15831470D01*
X18684006Y-15831470D02*
X18655435Y-15831470D01*
X18655435Y-15831470D02*
X18636387Y-15821946D01*
X18636387Y-15821946D02*
X18626863Y-15802898D01*
X18626863Y-15802898D02*
X18626863Y-15793375D01*
X18626863Y-15793375D02*
X18636387Y-15774327D01*
X18636387Y-15774327D02*
X18655435Y-15764803D01*
X18655435Y-15764803D02*
X18684006Y-15764803D01*
X18684006Y-15764803D02*
X18703054Y-15774327D01*
X18826863Y-15898136D02*
X18807816Y-15888613D01*
X18807816Y-15888613D02*
X18798292Y-15869565D01*
X18798292Y-15869565D02*
X18798292Y-15698136D01*
X18931625Y-15898136D02*
X18912577Y-15888613D01*
X18912577Y-15888613D02*
X18903054Y-15879089D01*
X18903054Y-15879089D02*
X18893530Y-15860041D01*
X18893530Y-15860041D02*
X18893530Y-15802898D01*
X18893530Y-15802898D02*
X18903054Y-15783851D01*
X18903054Y-15783851D02*
X18912577Y-15774327D01*
X18912577Y-15774327D02*
X18931625Y-15764803D01*
X18931625Y-15764803D02*
X18960197Y-15764803D01*
X18960197Y-15764803D02*
X18979244Y-15774327D01*
X18979244Y-15774327D02*
X18988768Y-15783851D01*
X18988768Y-15783851D02*
X18998292Y-15802898D01*
X18998292Y-15802898D02*
X18998292Y-15860041D01*
X18998292Y-15860041D02*
X18988768Y-15879089D01*
X18988768Y-15879089D02*
X18979244Y-15888613D01*
X18979244Y-15888613D02*
X18960197Y-15898136D01*
X18960197Y-15898136D02*
X18931625Y-15898136D01*
X19055435Y-15764803D02*
X19131625Y-15764803D01*
X19084006Y-15698136D02*
X19084006Y-15869565D01*
X19084006Y-15869565D02*
X19093530Y-15888613D01*
X19093530Y-15888613D02*
X19112577Y-15898136D01*
X19112577Y-15898136D02*
X19131625Y-15898136D01*
X19188768Y-15888613D02*
X19207816Y-15898136D01*
X19207816Y-15898136D02*
X19245911Y-15898136D01*
X19245911Y-15898136D02*
X19264958Y-15888613D01*
X19264958Y-15888613D02*
X19274482Y-15869565D01*
X19274482Y-15869565D02*
X19274482Y-15860041D01*
X19274482Y-15860041D02*
X19264958Y-15840994D01*
X19264958Y-15840994D02*
X19245911Y-15831470D01*
X19245911Y-15831470D02*
X19217339Y-15831470D01*
X19217339Y-15831470D02*
X19198292Y-15821946D01*
X19198292Y-15821946D02*
X19188768Y-15802898D01*
X19188768Y-15802898D02*
X19188768Y-15793375D01*
X19188768Y-15793375D02*
X19198292Y-15774327D01*
X19198292Y-15774327D02*
X19217339Y-15764803D01*
X19217339Y-15764803D02*
X19245911Y-15764803D01*
X19245911Y-15764803D02*
X19264958Y-15774327D01*
X19341149Y-15974327D02*
X19350673Y-15964803D01*
X19350673Y-15964803D02*
X19369720Y-15936232D01*
X19369720Y-15936232D02*
X19379244Y-15917184D01*
X19379244Y-15917184D02*
X19388768Y-15888613D01*
X19388768Y-15888613D02*
X19398292Y-15840994D01*
X19398292Y-15840994D02*
X19398292Y-15802898D01*
X19398292Y-15802898D02*
X19388768Y-15755279D01*
X19388768Y-15755279D02*
X19379244Y-15726708D01*
X19379244Y-15726708D02*
X19369720Y-15707660D01*
X19369720Y-15707660D02*
X19350673Y-15679089D01*
X19350673Y-15679089D02*
X19341149Y-15669565D01*
X12747038Y-15970653D02*
X12947038Y-16170653D01*
X12947038Y-15970653D02*
X12747038Y-16170653D01*
X12847038Y-16170653D02*
X12947038Y-16070653D01*
X12847038Y-15970653D01*
X12747038Y-16070653D01*
X12847038Y-16170653D01*
X13188767Y-15962136D02*
X13312577Y-15962136D01*
X13312577Y-15962136D02*
X13245910Y-16038327D01*
X13245910Y-16038327D02*
X13274482Y-16038327D01*
X13274482Y-16038327D02*
X13293529Y-16047851D01*
X13293529Y-16047851D02*
X13303053Y-16057375D01*
X13303053Y-16057375D02*
X13312577Y-16076422D01*
X13312577Y-16076422D02*
X13312577Y-16124041D01*
X13312577Y-16124041D02*
X13303053Y-16143089D01*
X13303053Y-16143089D02*
X13293529Y-16152613D01*
X13293529Y-16152613D02*
X13274482Y-16162136D01*
X13274482Y-16162136D02*
X13217339Y-16162136D01*
X13217339Y-16162136D02*
X13198291Y-16152613D01*
X13198291Y-16152613D02*
X13188767Y-16143089D01*
X13398291Y-16143089D02*
X13407815Y-16152613D01*
X13407815Y-16152613D02*
X13398291Y-16162136D01*
X13398291Y-16162136D02*
X13388767Y-16152613D01*
X13388767Y-16152613D02*
X13398291Y-16143089D01*
X13398291Y-16143089D02*
X13398291Y-16162136D01*
X13484005Y-15981184D02*
X13493529Y-15971660D01*
X13493529Y-15971660D02*
X13512577Y-15962136D01*
X13512577Y-15962136D02*
X13560196Y-15962136D01*
X13560196Y-15962136D02*
X13579243Y-15971660D01*
X13579243Y-15971660D02*
X13588767Y-15981184D01*
X13588767Y-15981184D02*
X13598291Y-16000232D01*
X13598291Y-16000232D02*
X13598291Y-16019279D01*
X13598291Y-16019279D02*
X13588767Y-16047851D01*
X13588767Y-16047851D02*
X13474482Y-16162136D01*
X13474482Y-16162136D02*
X13598291Y-16162136D01*
X13722101Y-15962136D02*
X13741148Y-15962136D01*
X13741148Y-15962136D02*
X13760196Y-15971660D01*
X13760196Y-15971660D02*
X13769720Y-15981184D01*
X13769720Y-15981184D02*
X13779243Y-16000232D01*
X13779243Y-16000232D02*
X13788767Y-16038327D01*
X13788767Y-16038327D02*
X13788767Y-16085946D01*
X13788767Y-16085946D02*
X13779243Y-16124041D01*
X13779243Y-16124041D02*
X13769720Y-16143089D01*
X13769720Y-16143089D02*
X13760196Y-16152613D01*
X13760196Y-16152613D02*
X13741148Y-16162136D01*
X13741148Y-16162136D02*
X13722101Y-16162136D01*
X13722101Y-16162136D02*
X13703053Y-16152613D01*
X13703053Y-16152613D02*
X13693529Y-16143089D01*
X13693529Y-16143089D02*
X13684005Y-16124041D01*
X13684005Y-16124041D02*
X13674482Y-16085946D01*
X13674482Y-16085946D02*
X13674482Y-16038327D01*
X13674482Y-16038327D02*
X13684005Y-16000232D01*
X13684005Y-16000232D02*
X13693529Y-15981184D01*
X13693529Y-15981184D02*
X13703053Y-15971660D01*
X13703053Y-15971660D02*
X13722101Y-15962136D01*
X13912577Y-15962136D02*
X13931624Y-15962136D01*
X13931624Y-15962136D02*
X13950672Y-15971660D01*
X13950672Y-15971660D02*
X13960196Y-15981184D01*
X13960196Y-15981184D02*
X13969720Y-16000232D01*
X13969720Y-16000232D02*
X13979243Y-16038327D01*
X13979243Y-16038327D02*
X13979243Y-16085946D01*
X13979243Y-16085946D02*
X13969720Y-16124041D01*
X13969720Y-16124041D02*
X13960196Y-16143089D01*
X13960196Y-16143089D02*
X13950672Y-16152613D01*
X13950672Y-16152613D02*
X13931624Y-16162136D01*
X13931624Y-16162136D02*
X13912577Y-16162136D01*
X13912577Y-16162136D02*
X13893529Y-16152613D01*
X13893529Y-16152613D02*
X13884005Y-16143089D01*
X13884005Y-16143089D02*
X13874482Y-16124041D01*
X13874482Y-16124041D02*
X13864958Y-16085946D01*
X13864958Y-16085946D02*
X13864958Y-16038327D01*
X13864958Y-16038327D02*
X13874482Y-16000232D01*
X13874482Y-16000232D02*
X13884005Y-15981184D01*
X13884005Y-15981184D02*
X13893529Y-15971660D01*
X13893529Y-15971660D02*
X13912577Y-15962136D01*
X14064958Y-16162136D02*
X14064958Y-16028803D01*
X14064958Y-16047851D02*
X14074482Y-16038327D01*
X14074482Y-16038327D02*
X14093529Y-16028803D01*
X14093529Y-16028803D02*
X14122101Y-16028803D01*
X14122101Y-16028803D02*
X14141148Y-16038327D01*
X14141148Y-16038327D02*
X14150672Y-16057375D01*
X14150672Y-16057375D02*
X14150672Y-16162136D01*
X14150672Y-16057375D02*
X14160196Y-16038327D01*
X14160196Y-16038327D02*
X14179243Y-16028803D01*
X14179243Y-16028803D02*
X14207815Y-16028803D01*
X14207815Y-16028803D02*
X14226863Y-16038327D01*
X14226863Y-16038327D02*
X14236386Y-16057375D01*
X14236386Y-16057375D02*
X14236386Y-16162136D01*
X14331624Y-16162136D02*
X14331624Y-16028803D01*
X14331624Y-16047851D02*
X14341148Y-16038327D01*
X14341148Y-16038327D02*
X14360196Y-16028803D01*
X14360196Y-16028803D02*
X14388767Y-16028803D01*
X14388767Y-16028803D02*
X14407815Y-16038327D01*
X14407815Y-16038327D02*
X14417339Y-16057375D01*
X14417339Y-16057375D02*
X14417339Y-16162136D01*
X14417339Y-16057375D02*
X14426863Y-16038327D01*
X14426863Y-16038327D02*
X14445910Y-16028803D01*
X14445910Y-16028803D02*
X14474482Y-16028803D01*
X14474482Y-16028803D02*
X14493529Y-16038327D01*
X14493529Y-16038327D02*
X14503053Y-16057375D01*
X14503053Y-16057375D02*
X14503053Y-16162136D01*
X14893529Y-15952613D02*
X14722101Y-16209755D01*
X15150672Y-15962136D02*
X15169720Y-15962136D01*
X15169720Y-15962136D02*
X15188767Y-15971660D01*
X15188767Y-15971660D02*
X15198291Y-15981184D01*
X15198291Y-15981184D02*
X15207815Y-16000232D01*
X15207815Y-16000232D02*
X15217339Y-16038327D01*
X15217339Y-16038327D02*
X15217339Y-16085946D01*
X15217339Y-16085946D02*
X15207815Y-16124041D01*
X15207815Y-16124041D02*
X15198291Y-16143089D01*
X15198291Y-16143089D02*
X15188767Y-16152613D01*
X15188767Y-16152613D02*
X15169720Y-16162136D01*
X15169720Y-16162136D02*
X15150672Y-16162136D01*
X15150672Y-16162136D02*
X15131625Y-16152613D01*
X15131625Y-16152613D02*
X15122101Y-16143089D01*
X15122101Y-16143089D02*
X15112577Y-16124041D01*
X15112577Y-16124041D02*
X15103053Y-16085946D01*
X15103053Y-16085946D02*
X15103053Y-16038327D01*
X15103053Y-16038327D02*
X15112577Y-16000232D01*
X15112577Y-16000232D02*
X15122101Y-15981184D01*
X15122101Y-15981184D02*
X15131625Y-15971660D01*
X15131625Y-15971660D02*
X15150672Y-15962136D01*
X15303053Y-16143089D02*
X15312577Y-16152613D01*
X15312577Y-16152613D02*
X15303053Y-16162136D01*
X15303053Y-16162136D02*
X15293529Y-16152613D01*
X15293529Y-16152613D02*
X15303053Y-16143089D01*
X15303053Y-16143089D02*
X15303053Y-16162136D01*
X15503053Y-16162136D02*
X15388767Y-16162136D01*
X15445910Y-16162136D02*
X15445910Y-15962136D01*
X15445910Y-15962136D02*
X15426863Y-15990708D01*
X15426863Y-15990708D02*
X15407815Y-16009755D01*
X15407815Y-16009755D02*
X15388767Y-16019279D01*
X15579244Y-15981184D02*
X15588767Y-15971660D01*
X15588767Y-15971660D02*
X15607815Y-15962136D01*
X15607815Y-15962136D02*
X15655434Y-15962136D01*
X15655434Y-15962136D02*
X15674482Y-15971660D01*
X15674482Y-15971660D02*
X15684006Y-15981184D01*
X15684006Y-15981184D02*
X15693529Y-16000232D01*
X15693529Y-16000232D02*
X15693529Y-16019279D01*
X15693529Y-16019279D02*
X15684006Y-16047851D01*
X15684006Y-16047851D02*
X15569720Y-16162136D01*
X15569720Y-16162136D02*
X15693529Y-16162136D01*
X15864958Y-15962136D02*
X15826863Y-15962136D01*
X15826863Y-15962136D02*
X15807815Y-15971660D01*
X15807815Y-15971660D02*
X15798291Y-15981184D01*
X15798291Y-15981184D02*
X15779244Y-16009755D01*
X15779244Y-16009755D02*
X15769720Y-16047851D01*
X15769720Y-16047851D02*
X15769720Y-16124041D01*
X15769720Y-16124041D02*
X15779244Y-16143089D01*
X15779244Y-16143089D02*
X15788767Y-16152613D01*
X15788767Y-16152613D02*
X15807815Y-16162136D01*
X15807815Y-16162136D02*
X15845910Y-16162136D01*
X15845910Y-16162136D02*
X15864958Y-16152613D01*
X15864958Y-16152613D02*
X15874482Y-16143089D01*
X15874482Y-16143089D02*
X15884006Y-16124041D01*
X15884006Y-16124041D02*
X15884006Y-16076422D01*
X15884006Y-16076422D02*
X15874482Y-16057375D01*
X15874482Y-16057375D02*
X15864958Y-16047851D01*
X15864958Y-16047851D02*
X15845910Y-16038327D01*
X15845910Y-16038327D02*
X15807815Y-16038327D01*
X15807815Y-16038327D02*
X15788767Y-16047851D01*
X15788767Y-16047851D02*
X15779244Y-16057375D01*
X15779244Y-16057375D02*
X15769720Y-16076422D01*
X16007815Y-15962136D02*
X16026863Y-15962136D01*
X16026863Y-15962136D02*
X16045910Y-15971660D01*
X16045910Y-15971660D02*
X16055434Y-15981184D01*
X16055434Y-15981184D02*
X16064958Y-16000232D01*
X16064958Y-16000232D02*
X16074482Y-16038327D01*
X16074482Y-16038327D02*
X16074482Y-16085946D01*
X16074482Y-16085946D02*
X16064958Y-16124041D01*
X16064958Y-16124041D02*
X16055434Y-16143089D01*
X16055434Y-16143089D02*
X16045910Y-16152613D01*
X16045910Y-16152613D02*
X16026863Y-16162136D01*
X16026863Y-16162136D02*
X16007815Y-16162136D01*
X16007815Y-16162136D02*
X15988767Y-16152613D01*
X15988767Y-16152613D02*
X15979244Y-16143089D01*
X15979244Y-16143089D02*
X15969720Y-16124041D01*
X15969720Y-16124041D02*
X15960196Y-16085946D01*
X15960196Y-16085946D02*
X15960196Y-16038327D01*
X15960196Y-16038327D02*
X15969720Y-16000232D01*
X15969720Y-16000232D02*
X15979244Y-15981184D01*
X15979244Y-15981184D02*
X15988767Y-15971660D01*
X15988767Y-15971660D02*
X16007815Y-15962136D01*
X16150672Y-15962136D02*
X16150672Y-16000232D01*
X16226863Y-15962136D02*
X16226863Y-16000232D01*
X16522101Y-16238327D02*
X16512577Y-16228803D01*
X16512577Y-16228803D02*
X16493529Y-16200232D01*
X16493529Y-16200232D02*
X16484006Y-16181184D01*
X16484006Y-16181184D02*
X16474482Y-16152613D01*
X16474482Y-16152613D02*
X16464958Y-16104994D01*
X16464958Y-16104994D02*
X16464958Y-16066898D01*
X16464958Y-16066898D02*
X16474482Y-16019279D01*
X16474482Y-16019279D02*
X16484006Y-15990708D01*
X16484006Y-15990708D02*
X16493529Y-15971660D01*
X16493529Y-15971660D02*
X16512577Y-15943089D01*
X16512577Y-15943089D02*
X16522101Y-15933565D01*
X16684006Y-16028803D02*
X16684006Y-16162136D01*
X16636387Y-15952613D02*
X16588768Y-16095470D01*
X16588768Y-16095470D02*
X16712577Y-16095470D01*
X16941149Y-16162136D02*
X16941149Y-15962136D01*
X17026863Y-16162136D02*
X17026863Y-16057375D01*
X17026863Y-16057375D02*
X17017339Y-16038327D01*
X17017339Y-16038327D02*
X16998292Y-16028803D01*
X16998292Y-16028803D02*
X16969720Y-16028803D01*
X16969720Y-16028803D02*
X16950672Y-16038327D01*
X16950672Y-16038327D02*
X16941149Y-16047851D01*
X17150672Y-16162136D02*
X17131625Y-16152613D01*
X17131625Y-16152613D02*
X17122101Y-16143089D01*
X17122101Y-16143089D02*
X17112577Y-16124041D01*
X17112577Y-16124041D02*
X17112577Y-16066898D01*
X17112577Y-16066898D02*
X17122101Y-16047851D01*
X17122101Y-16047851D02*
X17131625Y-16038327D01*
X17131625Y-16038327D02*
X17150672Y-16028803D01*
X17150672Y-16028803D02*
X17179244Y-16028803D01*
X17179244Y-16028803D02*
X17198292Y-16038327D01*
X17198292Y-16038327D02*
X17207815Y-16047851D01*
X17207815Y-16047851D02*
X17217339Y-16066898D01*
X17217339Y-16066898D02*
X17217339Y-16124041D01*
X17217339Y-16124041D02*
X17207815Y-16143089D01*
X17207815Y-16143089D02*
X17198292Y-16152613D01*
X17198292Y-16152613D02*
X17179244Y-16162136D01*
X17179244Y-16162136D02*
X17150672Y-16162136D01*
X17331625Y-16162136D02*
X17312577Y-16152613D01*
X17312577Y-16152613D02*
X17303053Y-16133565D01*
X17303053Y-16133565D02*
X17303053Y-15962136D01*
X17484006Y-16152613D02*
X17464958Y-16162136D01*
X17464958Y-16162136D02*
X17426863Y-16162136D01*
X17426863Y-16162136D02*
X17407815Y-16152613D01*
X17407815Y-16152613D02*
X17398292Y-16133565D01*
X17398292Y-16133565D02*
X17398292Y-16057375D01*
X17398292Y-16057375D02*
X17407815Y-16038327D01*
X17407815Y-16038327D02*
X17426863Y-16028803D01*
X17426863Y-16028803D02*
X17464958Y-16028803D01*
X17464958Y-16028803D02*
X17484006Y-16038327D01*
X17484006Y-16038327D02*
X17493530Y-16057375D01*
X17493530Y-16057375D02*
X17493530Y-16076422D01*
X17493530Y-16076422D02*
X17398292Y-16095470D01*
X17569720Y-16152613D02*
X17588768Y-16162136D01*
X17588768Y-16162136D02*
X17626863Y-16162136D01*
X17626863Y-16162136D02*
X17645911Y-16152613D01*
X17645911Y-16152613D02*
X17655434Y-16133565D01*
X17655434Y-16133565D02*
X17655434Y-16124041D01*
X17655434Y-16124041D02*
X17645911Y-16104994D01*
X17645911Y-16104994D02*
X17626863Y-16095470D01*
X17626863Y-16095470D02*
X17598292Y-16095470D01*
X17598292Y-16095470D02*
X17579244Y-16085946D01*
X17579244Y-16085946D02*
X17569720Y-16066898D01*
X17569720Y-16066898D02*
X17569720Y-16057375D01*
X17569720Y-16057375D02*
X17579244Y-16038327D01*
X17579244Y-16038327D02*
X17598292Y-16028803D01*
X17598292Y-16028803D02*
X17626863Y-16028803D01*
X17626863Y-16028803D02*
X17645911Y-16038327D01*
X17722101Y-16238327D02*
X17731625Y-16228803D01*
X17731625Y-16228803D02*
X17750673Y-16200232D01*
X17750673Y-16200232D02*
X17760196Y-16181184D01*
X17760196Y-16181184D02*
X17769720Y-16152613D01*
X17769720Y-16152613D02*
X17779244Y-16104994D01*
X17779244Y-16104994D02*
X17779244Y-16066898D01*
X17779244Y-16066898D02*
X17769720Y-16019279D01*
X17769720Y-16019279D02*
X17760196Y-15990708D01*
X17760196Y-15990708D02*
X17750673Y-15971660D01*
X17750673Y-15971660D02*
X17731625Y-15943089D01*
X17731625Y-15943089D02*
X17722101Y-15933565D01*
M02*
