%TF.GenerationSoftware,KiCad,Pcbnew,9.0.1*%
%TF.CreationDate,2025-04-05T00:33:59+01:00*%
%TF.ProjectId,mariposa,6d617269-706f-4736-912e-6b696361645f,2.0*%
%TF.SameCoordinates,Original*%
%TF.FileFunction,Legend,Bot*%
%TF.FilePolarity,Positive*%
%FSLAX46Y46*%
G04 Gerber Fmt 4.6, Leading zero omitted, Abs format (unit mm)*
G04 Created by KiCad (PCBNEW 9.0.1) date 2025-04-05 00:33:59*
%MOMM*%
%LPD*%
G01*
G04 APERTURE LIST*
G04 Aperture macros list*
%AMRoundRect*
0 Rectangle with rounded corners*
0 $1 Rounding radius*
0 $2 $3 $4 $5 $6 $7 $8 $9 X,Y pos of 4 corners*
0 Add a 4 corners polygon primitive as box body*
4,1,4,$2,$3,$4,$5,$6,$7,$8,$9,$2,$3,0*
0 Add four circle primitives for the rounded corners*
1,1,$1+$1,$2,$3*
1,1,$1+$1,$4,$5*
1,1,$1+$1,$6,$7*
1,1,$1+$1,$8,$9*
0 Add four rect primitives between the rounded corners*
20,1,$1+$1,$2,$3,$4,$5,0*
20,1,$1+$1,$4,$5,$6,$7,0*
20,1,$1+$1,$6,$7,$8,$9,0*
20,1,$1+$1,$8,$9,$2,$3,0*%
G04 Aperture macros list end*
%ADD10C,0.000000*%
%ADD11C,0.100000*%
%ADD12C,0.120000*%
%ADD13C,0.191421*%
%ADD14C,0.670000*%
%ADD15O,1.020000X2.120000*%
%ADD16O,1.020000X1.820000*%
%ADD17C,5.600000*%
%ADD18RoundRect,0.250000X0.250000X-1.250000X0.250000X1.250000X-0.250000X1.250000X-0.250000X-1.250000X0*%
%ADD19C,0.990600*%
%ADD20C,0.787400*%
G04 APERTURE END LIST*
D10*
G36*
X157031163Y-138548410D02*
G01*
X157038912Y-138548997D01*
X157046548Y-138549964D01*
X157054059Y-138551303D01*
X157061439Y-138553002D01*
X157068676Y-138555051D01*
X157075761Y-138557445D01*
X157082684Y-138560170D01*
X157089437Y-138563217D01*
X157096008Y-138566580D01*
X157102390Y-138570245D01*
X157108574Y-138574205D01*
X157114548Y-138578451D01*
X157120302Y-138582971D01*
X157125829Y-138587757D01*
X157131120Y-138592801D01*
X157136162Y-138598091D01*
X157140949Y-138603618D01*
X157145469Y-138609373D01*
X157149715Y-138615346D01*
X157153675Y-138621530D01*
X157157340Y-138627912D01*
X157160702Y-138634484D01*
X157163750Y-138641237D01*
X157166475Y-138648160D01*
X157168868Y-138655244D01*
X157170918Y-138662482D01*
X157172618Y-138669861D01*
X157173955Y-138677372D01*
X157174924Y-138685009D01*
X157175511Y-138692758D01*
X157175709Y-138700611D01*
X157176304Y-138724131D01*
X157178070Y-138747343D01*
X157180979Y-138770218D01*
X157185002Y-138792727D01*
X157190108Y-138814842D01*
X157196272Y-138836535D01*
X157203461Y-138857776D01*
X157211650Y-138878536D01*
X157220810Y-138898787D01*
X157230908Y-138918500D01*
X157241921Y-138937646D01*
X157253816Y-138956196D01*
X157266566Y-138974121D01*
X157280140Y-138991395D01*
X157294514Y-139007986D01*
X157309654Y-139023866D01*
X157325534Y-139039007D01*
X157342126Y-139053380D01*
X157359399Y-139066954D01*
X157377325Y-139079705D01*
X157395875Y-139091600D01*
X157415020Y-139102611D01*
X157434734Y-139112710D01*
X157454984Y-139121870D01*
X157475745Y-139130059D01*
X157496986Y-139137248D01*
X157518677Y-139143412D01*
X157540794Y-139148519D01*
X157563302Y-139152541D01*
X157586178Y-139155450D01*
X157609390Y-139157216D01*
X157632908Y-139157811D01*
X158394909Y-139157812D01*
X158394909Y-139005411D01*
X158395340Y-138993966D01*
X158396617Y-138982692D01*
X158398713Y-138971629D01*
X158401606Y-138960815D01*
X158405269Y-138950288D01*
X158409677Y-138940088D01*
X158414803Y-138930252D01*
X158420627Y-138920817D01*
X158427119Y-138911825D01*
X158434255Y-138903310D01*
X158442011Y-138895315D01*
X158450362Y-138887875D01*
X158459282Y-138881029D01*
X158468746Y-138874815D01*
X158478729Y-138869273D01*
X158489207Y-138864442D01*
X158500010Y-138860409D01*
X158510960Y-138857238D01*
X158522012Y-138854918D01*
X158533126Y-138853436D01*
X158544255Y-138852783D01*
X158555358Y-138852947D01*
X158566391Y-138853920D01*
X158577312Y-138855691D01*
X158588076Y-138858248D01*
X158598642Y-138861580D01*
X158608964Y-138865680D01*
X158619000Y-138870535D01*
X158628705Y-138876136D01*
X158638040Y-138882471D01*
X158646959Y-138889530D01*
X158655417Y-138897303D01*
X158960218Y-139202103D01*
X158965623Y-139207790D01*
X158970682Y-139213682D01*
X158975391Y-139219764D01*
X158979752Y-139226023D01*
X158983762Y-139232445D01*
X158987425Y-139239017D01*
X158990738Y-139245724D01*
X158993704Y-139252556D01*
X158996320Y-139259495D01*
X158998587Y-139266529D01*
X159000506Y-139273645D01*
X159002076Y-139280829D01*
X159003296Y-139288068D01*
X159004169Y-139295347D01*
X159004692Y-139302652D01*
X159004866Y-139309972D01*
X159004692Y-139317294D01*
X159004169Y-139324599D01*
X159003297Y-139331879D01*
X159002076Y-139339118D01*
X159000506Y-139346302D01*
X158998588Y-139353418D01*
X158996320Y-139360452D01*
X158993703Y-139367391D01*
X158990738Y-139374222D01*
X158987425Y-139380930D01*
X158983763Y-139387500D01*
X158979752Y-139393923D01*
X158975390Y-139400182D01*
X158970682Y-139406265D01*
X158965624Y-139412156D01*
X158960218Y-139417844D01*
X158655417Y-139722644D01*
X158646959Y-139730494D01*
X158638039Y-139737612D01*
X158628706Y-139743987D01*
X158618999Y-139749612D01*
X158608963Y-139754476D01*
X158598642Y-139758575D01*
X158588077Y-139761897D01*
X158577312Y-139764434D01*
X158566391Y-139766180D01*
X158555359Y-139767125D01*
X158544255Y-139767259D01*
X158533125Y-139766578D01*
X158522013Y-139765069D01*
X158510960Y-139762727D01*
X158500010Y-139759542D01*
X158489206Y-139755504D01*
X158483908Y-139753181D01*
X158478730Y-139750678D01*
X158473675Y-139748000D01*
X158468746Y-139745150D01*
X158463948Y-139742135D01*
X158459281Y-139738958D01*
X158454752Y-139735625D01*
X158450362Y-139732139D01*
X158446113Y-139728505D01*
X158442012Y-139724727D01*
X158438058Y-139720811D01*
X158434256Y-139716761D01*
X158430607Y-139712581D01*
X158427119Y-139708275D01*
X158423791Y-139703850D01*
X158420627Y-139699307D01*
X158417629Y-139694654D01*
X158414803Y-139689893D01*
X158412151Y-139685029D01*
X158409677Y-139680068D01*
X158407380Y-139675012D01*
X158405268Y-139669869D01*
X158403343Y-139664641D01*
X158401606Y-139659332D01*
X158400062Y-139653949D01*
X158398713Y-139648494D01*
X158397564Y-139642974D01*
X158396617Y-139637392D01*
X158395874Y-139631752D01*
X158395340Y-139626059D01*
X158395017Y-139620319D01*
X158394909Y-139614534D01*
X158394909Y-139462135D01*
X157632909Y-139462135D01*
X157593682Y-139461144D01*
X157554972Y-139458203D01*
X157516826Y-139453358D01*
X157479292Y-139446661D01*
X157442419Y-139438156D01*
X157406252Y-139427890D01*
X157370842Y-139415916D01*
X157336235Y-139402277D01*
X157302478Y-139387021D01*
X157269622Y-139370199D01*
X157237712Y-139351855D01*
X157206795Y-139332040D01*
X157176921Y-139310801D01*
X157148138Y-139288184D01*
X157120492Y-139264239D01*
X157094032Y-139239011D01*
X157068805Y-139212552D01*
X157044860Y-139184906D01*
X157022242Y-139156122D01*
X157001003Y-139126248D01*
X156981188Y-139095332D01*
X156962845Y-139063422D01*
X156946023Y-139030564D01*
X156930768Y-138996809D01*
X156917129Y-138962202D01*
X156905153Y-138926792D01*
X156894889Y-138890626D01*
X156886384Y-138853752D01*
X156879684Y-138816217D01*
X156874841Y-138778071D01*
X156871899Y-138739362D01*
X156870915Y-138700372D01*
X156871106Y-138692758D01*
X156871695Y-138685009D01*
X156872662Y-138677373D01*
X156873999Y-138669861D01*
X156875699Y-138662481D01*
X156877749Y-138655244D01*
X156880142Y-138648160D01*
X156882867Y-138641236D01*
X156885916Y-138634484D01*
X156889277Y-138627911D01*
X156892942Y-138621529D01*
X156896902Y-138615347D01*
X156901147Y-138609372D01*
X156905669Y-138603618D01*
X156910454Y-138598090D01*
X156915497Y-138592801D01*
X156920788Y-138587758D01*
X156926315Y-138582971D01*
X156932070Y-138578450D01*
X156938044Y-138574205D01*
X156944227Y-138570245D01*
X156950608Y-138566580D01*
X156957181Y-138563218D01*
X156963934Y-138560170D01*
X156970858Y-138557445D01*
X156977941Y-138555051D01*
X156985178Y-138553002D01*
X156992557Y-138551303D01*
X157000071Y-138549965D01*
X157007706Y-138548997D01*
X157015454Y-138548410D01*
X157023309Y-138548212D01*
X157031163Y-138548410D01*
G37*
G36*
X130015606Y-92136081D02*
G01*
X130015599Y-92136321D01*
X130015599Y-92135844D01*
X130015606Y-92136081D01*
G37*
G36*
X137215543Y-137791041D02*
G01*
X137267114Y-137794970D01*
X137317934Y-137801443D01*
X137367935Y-137810390D01*
X137417056Y-137821752D01*
X137465233Y-137835464D01*
X137512401Y-137851461D01*
X137558501Y-137869679D01*
X137603463Y-137890054D01*
X137647229Y-137912522D01*
X137689731Y-137937021D01*
X137730910Y-137963484D01*
X137770698Y-137991848D01*
X137809034Y-138022047D01*
X137845855Y-138054021D01*
X137881093Y-138087705D01*
X137914691Y-138123032D01*
X137946580Y-138159939D01*
X137976701Y-138198364D01*
X138004986Y-138238242D01*
X138031373Y-138279509D01*
X138055800Y-138322100D01*
X138078202Y-138365951D01*
X138098515Y-138411000D01*
X138116678Y-138457180D01*
X138132624Y-138504430D01*
X138146291Y-138552683D01*
X138157617Y-138601878D01*
X138166536Y-138651948D01*
X138172985Y-138702830D01*
X138176901Y-138754461D01*
X138178221Y-138806776D01*
X138176901Y-138859090D01*
X138172985Y-138910720D01*
X138166536Y-138961604D01*
X138157617Y-139011673D01*
X138146292Y-139060867D01*
X138132624Y-139109121D01*
X138116677Y-139156370D01*
X138098515Y-139202549D01*
X138078202Y-139247598D01*
X138055801Y-139291451D01*
X138031374Y-139334042D01*
X138004985Y-139375308D01*
X137976700Y-139415185D01*
X137946580Y-139453612D01*
X137914691Y-139490520D01*
X137881094Y-139525846D01*
X137845854Y-139559529D01*
X137809034Y-139591504D01*
X137770697Y-139621703D01*
X137730910Y-139650067D01*
X137689733Y-139676530D01*
X137647229Y-139701027D01*
X137603464Y-139723496D01*
X137558501Y-139743872D01*
X137512402Y-139762090D01*
X137465233Y-139778086D01*
X137417056Y-139791798D01*
X137367935Y-139803161D01*
X137317934Y-139812109D01*
X137267114Y-139818579D01*
X137215542Y-139822509D01*
X137163279Y-139823833D01*
X137111999Y-139822560D01*
X137061387Y-139818778D01*
X137011501Y-139812550D01*
X136962403Y-139803933D01*
X136914151Y-139792986D01*
X136866804Y-139779771D01*
X136820424Y-139764347D01*
X136775069Y-139746773D01*
X136730799Y-139727110D01*
X136687675Y-139705417D01*
X136645755Y-139681754D01*
X136605099Y-139656178D01*
X136565768Y-139628753D01*
X136527819Y-139599536D01*
X136491314Y-139568588D01*
X136456313Y-139535967D01*
X136453890Y-139533495D01*
X136451582Y-139530943D01*
X136449391Y-139528315D01*
X136447317Y-139525616D01*
X136445360Y-139522849D01*
X136443524Y-139520018D01*
X136440206Y-139514180D01*
X136437373Y-139508134D01*
X136435029Y-139501913D01*
X136433183Y-139495547D01*
X136431839Y-139489069D01*
X136431003Y-139482511D01*
X136430681Y-139475904D01*
X136430881Y-139469279D01*
X136431178Y-139465970D01*
X136431607Y-139462670D01*
X136432170Y-139459379D01*
X136432867Y-139456106D01*
X136433699Y-139452852D01*
X136434665Y-139449622D01*
X136435770Y-139446418D01*
X136437011Y-139443247D01*
X136438391Y-139440109D01*
X136439908Y-139437013D01*
X136441553Y-139433979D01*
X136443308Y-139431032D01*
X136445172Y-139428172D01*
X136447138Y-139425400D01*
X136449205Y-139422720D01*
X136451370Y-139420134D01*
X136453627Y-139417645D01*
X136455974Y-139415250D01*
X136458407Y-139412956D01*
X136460922Y-139410763D01*
X136463516Y-139408675D01*
X136466186Y-139406690D01*
X136468927Y-139404811D01*
X136471737Y-139403042D01*
X136474610Y-139401384D01*
X136477545Y-139399838D01*
X136480537Y-139398409D01*
X136483584Y-139397094D01*
X136486679Y-139395899D01*
X136489823Y-139394824D01*
X136493009Y-139393871D01*
X136496235Y-139393044D01*
X136499495Y-139392343D01*
X136502789Y-139391770D01*
X136506110Y-139391327D01*
X136509458Y-139391015D01*
X136512826Y-139390839D01*
X136516213Y-139390797D01*
X136519614Y-139390894D01*
X136523026Y-139391132D01*
X136526444Y-139391511D01*
X136529867Y-139392033D01*
X136546014Y-139394661D01*
X136562303Y-139396979D01*
X136578729Y-139398973D01*
X136595284Y-139400632D01*
X136611965Y-139401946D01*
X136628763Y-139402898D01*
X136645673Y-139403479D01*
X136662688Y-139403676D01*
X136702480Y-139402666D01*
X136741750Y-139399673D01*
X136780451Y-139394742D01*
X136818536Y-139387922D01*
X136855954Y-139379265D01*
X136892658Y-139368815D01*
X136928597Y-139356624D01*
X136963726Y-139342738D01*
X136997992Y-139327209D01*
X137031348Y-139310083D01*
X137063745Y-139291409D01*
X137095136Y-139271238D01*
X137125470Y-139249614D01*
X137154700Y-139226590D01*
X137182774Y-139202213D01*
X137209647Y-139176530D01*
X137235270Y-139149594D01*
X137259592Y-139121448D01*
X137282566Y-139092146D01*
X137304143Y-139061732D01*
X137324272Y-139030258D01*
X137342908Y-138997771D01*
X137360000Y-138964321D01*
X137375500Y-138929955D01*
X137389359Y-138894724D01*
X137401528Y-138858672D01*
X137411959Y-138821853D01*
X137420602Y-138784312D01*
X137427410Y-138746101D01*
X137432332Y-138707264D01*
X137435322Y-138667854D01*
X137436329Y-138627917D01*
X137434489Y-138573999D01*
X137429049Y-138521071D01*
X137420130Y-138469252D01*
X137407853Y-138418664D01*
X137392341Y-138369429D01*
X137373710Y-138321666D01*
X137352085Y-138275496D01*
X137327585Y-138231043D01*
X137300333Y-138188423D01*
X137270448Y-138147760D01*
X137238051Y-138109175D01*
X137203264Y-138072789D01*
X137166208Y-138038721D01*
X137127002Y-138007093D01*
X137085769Y-137978027D01*
X137042628Y-137951643D01*
X137039650Y-137949852D01*
X137036765Y-137947957D01*
X137033976Y-137945961D01*
X137031285Y-137943867D01*
X137028693Y-137941678D01*
X137026202Y-137939399D01*
X137023814Y-137937034D01*
X137021529Y-137934584D01*
X137019349Y-137932056D01*
X137017277Y-137929450D01*
X137015313Y-137926772D01*
X137013459Y-137924025D01*
X137011717Y-137921213D01*
X137010087Y-137918339D01*
X137008573Y-137915405D01*
X137007174Y-137912417D01*
X137005895Y-137909379D01*
X137004734Y-137906292D01*
X137003695Y-137903162D01*
X137002776Y-137899991D01*
X137001984Y-137896785D01*
X137001316Y-137893543D01*
X137000775Y-137890273D01*
X137000362Y-137886976D01*
X137000080Y-137883658D01*
X136999930Y-137880319D01*
X136999913Y-137876967D01*
X137000031Y-137873601D01*
X137000286Y-137870228D01*
X137000678Y-137866851D01*
X137001210Y-137863473D01*
X137001883Y-137860096D01*
X137002694Y-137856749D01*
X137003633Y-137853458D01*
X137004702Y-137850225D01*
X137005895Y-137847053D01*
X137007208Y-137843945D01*
X137008640Y-137840902D01*
X137010188Y-137837929D01*
X137011847Y-137835028D01*
X137013614Y-137832199D01*
X137015490Y-137829449D01*
X137017469Y-137826780D01*
X137019548Y-137824192D01*
X137021723Y-137821690D01*
X137023994Y-137819274D01*
X137026356Y-137816950D01*
X137028805Y-137814720D01*
X137031340Y-137812586D01*
X137033957Y-137810550D01*
X137036654Y-137808617D01*
X137039426Y-137806786D01*
X137042272Y-137805064D01*
X137045190Y-137803452D01*
X137048172Y-137801951D01*
X137051220Y-137800565D01*
X137054330Y-137799298D01*
X137057496Y-137798150D01*
X137060719Y-137797126D01*
X137063993Y-137796228D01*
X137067318Y-137795459D01*
X137070687Y-137794821D01*
X137074101Y-137794318D01*
X137077554Y-137793951D01*
X137088271Y-137793031D01*
X137098993Y-137792255D01*
X137109729Y-137791615D01*
X137120483Y-137791106D01*
X137131262Y-137790720D01*
X137142071Y-137790453D01*
X137163808Y-137790246D01*
X137163279Y-137789717D01*
X137215543Y-137791041D01*
G37*
D11*
G36*
X160557276Y-123763275D02*
G01*
X160572270Y-123767962D01*
X160584803Y-123775207D01*
X160595483Y-123785204D01*
X160603601Y-123797261D01*
X160609430Y-123811803D01*
X160613244Y-123840602D01*
X160611669Y-123861606D01*
X160606895Y-123880454D01*
X160599936Y-123894937D01*
X160590360Y-123906979D01*
X160580174Y-123914999D01*
X160596978Y-124096325D01*
X160626347Y-124073054D01*
X160669780Y-124054256D01*
X160724445Y-124043928D01*
X160745380Y-124043080D01*
X160799571Y-124049170D01*
X160853918Y-124067649D01*
X160906824Y-124098738D01*
X160956005Y-124142145D01*
X160978398Y-124168190D01*
X160998771Y-124196709D01*
X161016888Y-124227501D01*
X161032551Y-124260417D01*
X161045367Y-124294747D01*
X161055380Y-124330805D01*
X161062248Y-124367484D01*
X161066058Y-124405498D01*
X161066803Y-124431572D01*
X161065284Y-124464695D01*
X161060904Y-124494422D01*
X161054021Y-124520585D01*
X161044856Y-124543657D01*
X161033627Y-124563808D01*
X161020618Y-124581074D01*
X160989430Y-124607957D01*
X160952102Y-124624723D01*
X160909872Y-124630819D01*
X160908339Y-124630826D01*
X160864308Y-124624700D01*
X160818096Y-124605629D01*
X160770428Y-124572263D01*
X160723053Y-124523529D01*
X160678637Y-124459411D01*
X160649050Y-124401872D01*
X160633956Y-124401872D01*
X160640044Y-124471579D01*
X160642358Y-124527804D01*
X160640749Y-124555551D01*
X160635734Y-124580187D01*
X160628882Y-124597526D01*
X160619396Y-124611806D01*
X160609230Y-124621154D01*
X160596988Y-124627755D01*
X160572896Y-124631949D01*
X160557731Y-124630401D01*
X160543909Y-124625814D01*
X160532256Y-124618642D01*
X160522508Y-124608833D01*
X160515193Y-124596897D01*
X160510268Y-124582634D01*
X160507927Y-124561412D01*
X160509534Y-124543792D01*
X160514531Y-124527702D01*
X160521636Y-124515909D01*
X160531540Y-124506427D01*
X160546029Y-124499277D01*
X160526419Y-124319631D01*
X160513806Y-124220055D01*
X160512436Y-124208823D01*
X160628925Y-124208823D01*
X160670089Y-124309844D01*
X160693647Y-124355752D01*
X160718507Y-124397494D01*
X160743795Y-124433999D01*
X160769648Y-124465763D01*
X160794082Y-124490897D01*
X160818431Y-124511247D01*
X160839993Y-124525193D01*
X160861058Y-124534821D01*
X160892658Y-124540700D01*
X160907455Y-124539173D01*
X160920605Y-124534738D01*
X160942084Y-124518007D01*
X160958330Y-124489683D01*
X160968230Y-124447280D01*
X160969937Y-124416429D01*
X160963875Y-124355242D01*
X160945473Y-124293458D01*
X160931915Y-124264137D01*
X160915709Y-124236639D01*
X160897601Y-124212102D01*
X160877307Y-124190100D01*
X160856336Y-124172061D01*
X160833689Y-124156963D01*
X160811227Y-124145853D01*
X160787527Y-124137849D01*
X160743133Y-124132131D01*
X160704204Y-124137736D01*
X160691060Y-124142193D01*
X160687112Y-124163434D01*
X160680164Y-124181097D01*
X160672151Y-124192550D01*
X160661907Y-124201133D01*
X160650693Y-124206218D01*
X160637506Y-124208636D01*
X160632247Y-124208823D01*
X160628925Y-124208823D01*
X160512436Y-124208823D01*
X160488273Y-124010702D01*
X160479824Y-123921481D01*
X160476615Y-123851251D01*
X160478141Y-123826129D01*
X160482572Y-123805518D01*
X160488876Y-123790596D01*
X160497200Y-123778973D01*
X160517931Y-123765367D01*
X160540997Y-123761712D01*
X160557276Y-123763275D01*
G37*
G36*
X160049336Y-124032110D02*
G01*
X160078876Y-124036604D01*
X160134155Y-124054126D01*
X160184278Y-124082655D01*
X160228929Y-124122033D01*
X160267200Y-124172059D01*
X160297594Y-124231981D01*
X160318255Y-124299974D01*
X160322400Y-124322249D01*
X160339204Y-124325034D01*
X160355320Y-124328943D01*
X160368024Y-124335235D01*
X160376814Y-124342976D01*
X160382756Y-124352328D01*
X160386245Y-124375397D01*
X160383947Y-124387274D01*
X160378782Y-124397230D01*
X160371362Y-124404694D01*
X160361633Y-124410001D01*
X160335093Y-124413270D01*
X160327431Y-124412375D01*
X160326845Y-124412375D01*
X160323162Y-124442631D01*
X160316585Y-124471059D01*
X160307363Y-124497252D01*
X160295549Y-124521455D01*
X160281400Y-124543374D01*
X160264932Y-124563141D01*
X160225655Y-124595713D01*
X160178366Y-124618610D01*
X160123561Y-124630992D01*
X160089441Y-124632926D01*
X160025987Y-124627129D01*
X159964068Y-124609933D01*
X159907013Y-124582344D01*
X159862051Y-124548907D01*
X159852620Y-124538121D01*
X159846776Y-124526600D01*
X159844743Y-124515700D01*
X159846072Y-124504822D01*
X159850582Y-124494801D01*
X159858392Y-124485339D01*
X159859853Y-124483987D01*
X159870859Y-124475867D01*
X159881309Y-124472144D01*
X159900074Y-124474696D01*
X159923649Y-124489018D01*
X159947942Y-124505532D01*
X159973949Y-124519307D01*
X160000662Y-124529853D01*
X160028791Y-124537477D01*
X160084947Y-124543289D01*
X160109628Y-124541750D01*
X160131800Y-124537230D01*
X160150761Y-124530229D01*
X160167516Y-124520748D01*
X160194495Y-124495009D01*
X160213951Y-124459355D01*
X160225554Y-124411894D01*
X160227194Y-124396108D01*
X160090166Y-124370585D01*
X159965239Y-124343810D01*
X159927606Y-124334022D01*
X159895272Y-124323245D01*
X159869640Y-124310428D01*
X159854701Y-124299161D01*
X159842962Y-124286012D01*
X159829092Y-124255952D01*
X159823998Y-124210337D01*
X159824547Y-124200812D01*
X159914710Y-124200812D01*
X159916577Y-124216777D01*
X159923394Y-124231463D01*
X159931909Y-124240514D01*
X159944225Y-124248481D01*
X159970690Y-124257867D01*
X160092261Y-124283243D01*
X160221039Y-124306032D01*
X160212916Y-124276719D01*
X160201881Y-124248696D01*
X160188362Y-124222931D01*
X160172235Y-124199169D01*
X160154540Y-124178755D01*
X160134635Y-124160826D01*
X160113951Y-124146516D01*
X160091438Y-124134968D01*
X160068492Y-124126828D01*
X160044017Y-124121642D01*
X160015484Y-124119625D01*
X159991400Y-124121142D01*
X159970884Y-124125508D01*
X159954553Y-124132051D01*
X159941202Y-124140682D01*
X159923165Y-124162826D01*
X159915123Y-124191647D01*
X159914710Y-124200812D01*
X159824547Y-124200812D01*
X159825547Y-124183473D01*
X159830134Y-124158383D01*
X159837404Y-124135853D01*
X159847371Y-124115207D01*
X159859667Y-124096918D01*
X159874397Y-124080637D01*
X159910681Y-124054593D01*
X159956381Y-124037533D01*
X160011955Y-124030640D01*
X160018318Y-124030575D01*
X160049336Y-124032110D01*
G37*
G36*
X159566956Y-123757003D02*
G01*
X159580691Y-123761553D01*
X159592858Y-123768871D01*
X159603274Y-123778883D01*
X159611384Y-123791134D01*
X159617117Y-123805732D01*
X159620495Y-123831468D01*
X159618960Y-123849545D01*
X159614466Y-123866408D01*
X159607403Y-123880967D01*
X159597847Y-123892992D01*
X159589720Y-123899563D01*
X159609449Y-124093304D01*
X159655293Y-124445180D01*
X159672030Y-124562535D01*
X159674029Y-124586923D01*
X159671820Y-124606885D01*
X159667206Y-124618599D01*
X159659855Y-124627510D01*
X159640046Y-124635862D01*
X159633928Y-124636443D01*
X159621150Y-124635565D01*
X159610285Y-124631741D01*
X159593764Y-124616546D01*
X159581701Y-124588877D01*
X159577948Y-124572061D01*
X159576824Y-124565906D01*
X159553370Y-124589749D01*
X159515419Y-124610908D01*
X159463283Y-124626087D01*
X159412205Y-124630826D01*
X159358569Y-124624736D01*
X159305276Y-124606326D01*
X159253707Y-124575399D01*
X159205899Y-124532150D01*
X159164330Y-124477545D01*
X159146686Y-124446551D01*
X159131472Y-124413401D01*
X159119005Y-124378625D01*
X159109322Y-124342079D01*
X159102727Y-124304721D01*
X159099182Y-124265989D01*
X159098902Y-124254692D01*
X159196050Y-124254692D01*
X159202083Y-124315621D01*
X159220472Y-124377780D01*
X159234088Y-124407558D01*
X159250311Y-124435477D01*
X159268465Y-124460491D01*
X159288724Y-124482865D01*
X159309536Y-124501120D01*
X159331889Y-124516300D01*
X159353781Y-124527287D01*
X159376733Y-124535060D01*
X159416113Y-124540114D01*
X159458364Y-124534740D01*
X159475464Y-124529514D01*
X159479474Y-124508722D01*
X159486539Y-124491438D01*
X159494608Y-124480405D01*
X159504951Y-124472182D01*
X159516329Y-124467379D01*
X159529760Y-124465233D01*
X159533691Y-124465131D01*
X159536524Y-124465131D01*
X159496258Y-124366709D01*
X159473005Y-124321712D01*
X159448446Y-124280788D01*
X159423174Y-124244569D01*
X159397344Y-124213011D01*
X159372637Y-124187668D01*
X159348061Y-124167100D01*
X159326144Y-124152812D01*
X159304819Y-124142891D01*
X159272205Y-124136625D01*
X159256512Y-124138151D01*
X159242843Y-124142581D01*
X159221565Y-124158870D01*
X159206267Y-124186015D01*
X159197373Y-124227043D01*
X159196050Y-124254692D01*
X159098902Y-124254692D01*
X159098597Y-124242382D01*
X159100116Y-124208935D01*
X159104499Y-124178950D01*
X159111373Y-124152647D01*
X159120525Y-124129482D01*
X159131710Y-124109333D01*
X159144671Y-124092094D01*
X159175675Y-124065408D01*
X159212762Y-124048909D01*
X159255401Y-124043080D01*
X159300379Y-124049211D01*
X159347140Y-124068211D01*
X159394973Y-124101299D01*
X159442232Y-124149501D01*
X159486435Y-124212927D01*
X159516350Y-124270958D01*
X159532568Y-124270958D01*
X159508752Y-124082243D01*
X159492079Y-123924176D01*
X159487236Y-123844852D01*
X159488746Y-123819798D01*
X159493060Y-123799503D01*
X159499255Y-123784654D01*
X159507314Y-123773219D01*
X159527463Y-123759564D01*
X159552205Y-123755459D01*
X159566956Y-123757003D01*
G37*
G36*
X158494731Y-124634782D02*
G01*
X158468031Y-124628884D01*
X158446321Y-124611945D01*
X158438496Y-124599937D01*
X158433254Y-124586008D01*
X158430886Y-124567030D01*
X158432413Y-124550350D01*
X158436851Y-124535047D01*
X158443897Y-124521729D01*
X158453372Y-124510691D01*
X158467815Y-124501035D01*
X158451904Y-124355574D01*
X158421831Y-124148489D01*
X158416329Y-124112152D01*
X158414217Y-124087736D01*
X158415813Y-124066594D01*
X158420093Y-124051852D01*
X158427143Y-124040150D01*
X158435341Y-124032867D01*
X158445633Y-124028217D01*
X158453845Y-124026667D01*
X158467006Y-124026842D01*
X158479062Y-124030090D01*
X158500113Y-124045212D01*
X158518778Y-124074180D01*
X158524382Y-124087581D01*
X158559475Y-124173110D01*
X158600673Y-124263590D01*
X158637411Y-124336021D01*
X158675803Y-124402997D01*
X158705407Y-124447810D01*
X158734866Y-124485483D01*
X158756977Y-124508381D01*
X158778516Y-124525339D01*
X158794684Y-124533909D01*
X158810282Y-124538090D01*
X158816154Y-124538453D01*
X158827538Y-124536914D01*
X158837601Y-124532392D01*
X158853740Y-124514924D01*
X158865322Y-124483160D01*
X158869888Y-124433966D01*
X158864518Y-124358937D01*
X158842664Y-124236305D01*
X158829246Y-124166381D01*
X158823433Y-124109905D01*
X158824962Y-124088403D01*
X158829414Y-124070259D01*
X158835917Y-124056550D01*
X158844564Y-124045717D01*
X158866351Y-124033112D01*
X158885031Y-124030575D01*
X158900392Y-124032121D01*
X158914203Y-124036692D01*
X158925579Y-124043754D01*
X158934926Y-124053374D01*
X158941743Y-124065012D01*
X158946108Y-124078875D01*
X158947752Y-124095934D01*
X158942016Y-124130640D01*
X158929288Y-124154064D01*
X158949844Y-124269037D01*
X158965084Y-124394641D01*
X158967341Y-124449060D01*
X158965815Y-124482311D01*
X158961390Y-124512036D01*
X158954539Y-124537563D01*
X158945379Y-124559880D01*
X158934410Y-124578618D01*
X158921631Y-124594403D01*
X158907346Y-124607199D01*
X158891654Y-124617185D01*
X158856105Y-124629040D01*
X158834082Y-124630826D01*
X158812809Y-124629263D01*
X158792071Y-124624576D01*
X158751685Y-124605780D01*
X158709735Y-124572084D01*
X158663053Y-124518033D01*
X158607349Y-124433916D01*
X158560774Y-124351265D01*
X158542309Y-124351265D01*
X158552927Y-124420312D01*
X158559498Y-124488527D01*
X158561360Y-124545732D01*
X158559844Y-124567812D01*
X158555484Y-124586843D01*
X158548887Y-124602194D01*
X158540180Y-124614645D01*
X158529986Y-124623889D01*
X158518277Y-124630339D01*
X158494731Y-124634782D01*
G37*
G36*
X157779475Y-124032153D02*
G01*
X157791162Y-124036951D01*
X157805361Y-124053081D01*
X157814077Y-124083156D01*
X157815785Y-124096764D01*
X157848862Y-124072965D01*
X157896412Y-124053558D01*
X157952467Y-124043560D01*
X157966971Y-124043080D01*
X158024957Y-124049125D01*
X158079709Y-124066963D01*
X158130522Y-124096310D01*
X158176173Y-124136830D01*
X158214922Y-124187740D01*
X158244734Y-124247467D01*
X158255674Y-124279899D01*
X158263708Y-124313591D01*
X158268670Y-124348006D01*
X158270508Y-124383186D01*
X158270516Y-124385704D01*
X158269000Y-124415930D01*
X158264639Y-124443325D01*
X158257674Y-124468073D01*
X158248406Y-124490093D01*
X158223495Y-124526901D01*
X158191186Y-124554057D01*
X158152960Y-124571034D01*
X158113126Y-124576653D01*
X158088446Y-124575077D01*
X158063457Y-124570303D01*
X158038432Y-124562283D01*
X158013498Y-124550937D01*
X157988929Y-124536241D01*
X157964849Y-124518094D01*
X157941510Y-124496482D01*
X157919051Y-124471294D01*
X157897700Y-124442505D01*
X157877617Y-124410010D01*
X157865610Y-124387413D01*
X157848806Y-124387413D01*
X157865751Y-124485019D01*
X157883538Y-124567127D01*
X157894844Y-124605428D01*
X157908086Y-124639378D01*
X157922547Y-124668090D01*
X157938506Y-124692880D01*
X157955175Y-124713133D01*
X157972962Y-124729856D01*
X157991190Y-124742779D01*
X158010223Y-124752475D01*
X158049788Y-124762358D01*
X158062763Y-124762961D01*
X158104008Y-124757166D01*
X158145575Y-124739594D01*
X158189867Y-124708886D01*
X158204536Y-124699352D01*
X158219216Y-124693732D01*
X158231884Y-124692255D01*
X158243916Y-124694280D01*
X158254011Y-124699306D01*
X158263112Y-124707519D01*
X158263775Y-124708300D01*
X158271359Y-124720484D01*
X158275337Y-124732662D01*
X158273576Y-124755700D01*
X158259634Y-124777737D01*
X158257620Y-124779765D01*
X158237646Y-124797522D01*
X158214787Y-124813577D01*
X158189419Y-124827487D01*
X158161578Y-124839022D01*
X158132416Y-124847603D01*
X158101276Y-124853310D01*
X158060516Y-124855920D01*
X158030922Y-124854378D01*
X158003074Y-124849838D01*
X157977124Y-124842492D01*
X157952823Y-124832442D01*
X157908352Y-124804188D01*
X157868759Y-124764483D01*
X157833799Y-124711922D01*
X157803924Y-124644644D01*
X157783300Y-124574406D01*
X157756155Y-124429857D01*
X157728189Y-124219697D01*
X157728000Y-124217225D01*
X157854424Y-124217225D01*
X157875556Y-124265512D01*
X157897778Y-124308911D01*
X157921108Y-124347941D01*
X157944959Y-124382046D01*
X157969042Y-124411287D01*
X157993044Y-124435692D01*
X158016175Y-124454946D01*
X158038655Y-124469652D01*
X158059154Y-124479453D01*
X158078568Y-124485226D01*
X158095785Y-124487016D01*
X158111391Y-124485495D01*
X158125011Y-124481106D01*
X158146513Y-124464876D01*
X158162108Y-124437939D01*
X158171187Y-124397923D01*
X158172526Y-124371733D01*
X158166455Y-124315969D01*
X158148231Y-124261315D01*
X158134898Y-124235971D01*
X158118964Y-124212507D01*
X158101157Y-124191893D01*
X158081182Y-124173757D01*
X158060358Y-124159163D01*
X158037827Y-124147409D01*
X158015110Y-124139191D01*
X157991078Y-124134016D01*
X157964724Y-124132131D01*
X157922032Y-124137843D01*
X157903712Y-124143903D01*
X157902190Y-124162593D01*
X157897788Y-124179041D01*
X157891037Y-124192534D01*
X157882054Y-124203430D01*
X157871630Y-124211161D01*
X157859576Y-124216096D01*
X157854424Y-124217225D01*
X157728000Y-124217225D01*
X157719455Y-124105264D01*
X157719674Y-124080490D01*
X157723314Y-124060855D01*
X157728775Y-124048618D01*
X157736488Y-124039590D01*
X157756078Y-124031188D01*
X157764836Y-124030575D01*
X157779475Y-124032153D01*
G37*
D12*
%TO.C,J9*%
X153240000Y-50554321D02*
X153240000Y-49954321D01*
X153810000Y-49954321D02*
X153240000Y-49954321D01*
X160980000Y-55154321D02*
X160410000Y-55154321D01*
D13*
X161005710Y-50054321D02*
G75*
G02*
X160814290Y-50054321I-95710J0D01*
G01*
X160814290Y-50054321D02*
G75*
G02*
X161005710Y-50054321I95710J0D01*
G01*
%TD*%
%LPC*%
D10*
G36*
X157647091Y-137329845D02*
G01*
X157658206Y-137331354D01*
X157669259Y-137333696D01*
X157680207Y-137336882D01*
X157691012Y-137340918D01*
X157696310Y-137343242D01*
X157701488Y-137345745D01*
X157706544Y-137348422D01*
X157711471Y-137351272D01*
X157716270Y-137354285D01*
X157720936Y-137357461D01*
X157725464Y-137360793D01*
X157729856Y-137364277D01*
X157734103Y-137367907D01*
X157738205Y-137371681D01*
X157742160Y-137375592D01*
X157745962Y-137379637D01*
X157749609Y-137383810D01*
X157753099Y-137388106D01*
X157756427Y-137392524D01*
X157759591Y-137397056D01*
X157762587Y-137401698D01*
X157765414Y-137406445D01*
X157768066Y-137411294D01*
X157770542Y-137416238D01*
X157772836Y-137421276D01*
X157774949Y-137426399D01*
X157776875Y-137431606D01*
X157778612Y-137436890D01*
X157780155Y-137442247D01*
X157781503Y-137447673D01*
X157782654Y-137453163D01*
X157783601Y-137458713D01*
X157784343Y-137464316D01*
X157784877Y-137469970D01*
X157785201Y-137475671D01*
X157785308Y-137481411D01*
X157785309Y-137633812D01*
X158547309Y-137633812D01*
X158586536Y-137634803D01*
X158625245Y-137637744D01*
X158663391Y-137642587D01*
X158700926Y-137649286D01*
X158737799Y-137657791D01*
X158773965Y-137668055D01*
X158809376Y-137680031D01*
X158843982Y-137693669D01*
X158877739Y-137708924D01*
X158910596Y-137725748D01*
X158942507Y-137744091D01*
X158973423Y-137763906D01*
X159003296Y-137785146D01*
X159032079Y-137807763D01*
X159059726Y-137831708D01*
X159086185Y-137856934D01*
X159111412Y-137883394D01*
X159135357Y-137911041D01*
X159157975Y-137939825D01*
X159179215Y-137969698D01*
X159199029Y-138000613D01*
X159217373Y-138032525D01*
X159234196Y-138065382D01*
X159249449Y-138099138D01*
X159263089Y-138133745D01*
X159275065Y-138169155D01*
X159285329Y-138205321D01*
X159293835Y-138242195D01*
X159300533Y-138279728D01*
X159305376Y-138317875D01*
X159308318Y-138356585D01*
X159309309Y-138395811D01*
X159309110Y-138403665D01*
X159308523Y-138411414D01*
X159307555Y-138419050D01*
X159306217Y-138426562D01*
X159304518Y-138433942D01*
X159302467Y-138441178D01*
X159300075Y-138448263D01*
X159297351Y-138455186D01*
X159294302Y-138461939D01*
X159290941Y-138468511D01*
X159287274Y-138474893D01*
X159283315Y-138481076D01*
X159279070Y-138487049D01*
X159274550Y-138492805D01*
X159269763Y-138498332D01*
X159264720Y-138503623D01*
X159259429Y-138508666D01*
X159253902Y-138513452D01*
X159248147Y-138517972D01*
X159242174Y-138522217D01*
X159235991Y-138526177D01*
X159229609Y-138529844D01*
X159223037Y-138533205D01*
X159216283Y-138536253D01*
X159209361Y-138538979D01*
X159202275Y-138541370D01*
X159195039Y-138543422D01*
X159187660Y-138545121D01*
X159180148Y-138546458D01*
X159172512Y-138547425D01*
X159164763Y-138548014D01*
X159156909Y-138548212D01*
X159149054Y-138548014D01*
X159141305Y-138547426D01*
X159133669Y-138546459D01*
X159126158Y-138545120D01*
X159118779Y-138543422D01*
X159111541Y-138541370D01*
X159104456Y-138538979D01*
X159097533Y-138536253D01*
X159090781Y-138533205D01*
X159084209Y-138529844D01*
X159077827Y-138526178D01*
X159071644Y-138522217D01*
X159065671Y-138517973D01*
X159059914Y-138513452D01*
X159054387Y-138508665D01*
X159049098Y-138503622D01*
X159044055Y-138498333D01*
X159039268Y-138492805D01*
X159034747Y-138487050D01*
X159030503Y-138481076D01*
X159026542Y-138474894D01*
X159022876Y-138468511D01*
X159019515Y-138461939D01*
X159016467Y-138455186D01*
X159013742Y-138448263D01*
X159011349Y-138441178D01*
X159009299Y-138433942D01*
X159007599Y-138426562D01*
X159006262Y-138419049D01*
X159005294Y-138411415D01*
X159004706Y-138403665D01*
X159004508Y-138395811D01*
X159003914Y-138372291D01*
X159002148Y-138349080D01*
X158999239Y-138326206D01*
X158995217Y-138303696D01*
X158990109Y-138281581D01*
X158983946Y-138259889D01*
X158976756Y-138238648D01*
X158968567Y-138217887D01*
X158959408Y-138197637D01*
X158949309Y-138177924D01*
X158938296Y-138158778D01*
X158926402Y-138140226D01*
X158913653Y-138122300D01*
X158900077Y-138105028D01*
X158885704Y-138088437D01*
X158870564Y-138072557D01*
X158854682Y-138057415D01*
X158838091Y-138043044D01*
X158820820Y-138029467D01*
X158802892Y-138016719D01*
X158784343Y-138004824D01*
X158765197Y-137993811D01*
X158745484Y-137983712D01*
X158725233Y-137974554D01*
X158704472Y-137966365D01*
X158683232Y-137959174D01*
X158661539Y-137953011D01*
X158639423Y-137947904D01*
X158616915Y-137943882D01*
X158594040Y-137940973D01*
X158570828Y-137939206D01*
X158547308Y-137938611D01*
X157785309Y-137938612D01*
X157785309Y-138091011D01*
X157784877Y-138102458D01*
X157783601Y-138113730D01*
X157781504Y-138124794D01*
X157778612Y-138135607D01*
X157774948Y-138146135D01*
X157770542Y-138156334D01*
X157765414Y-138166172D01*
X157759591Y-138175606D01*
X157753098Y-138184599D01*
X157745963Y-138193112D01*
X157738206Y-138201109D01*
X157729856Y-138208549D01*
X157720936Y-138215395D01*
X157711471Y-138221607D01*
X157701488Y-138227149D01*
X157691012Y-138231982D01*
X157680208Y-138236013D01*
X157669259Y-138239183D01*
X157658205Y-138241504D01*
X157647092Y-138242987D01*
X157635963Y-138243641D01*
X157624858Y-138243475D01*
X157613826Y-138242503D01*
X157602905Y-138240733D01*
X157592141Y-138238176D01*
X157581576Y-138234842D01*
X157571255Y-138230741D01*
X157561219Y-138225887D01*
X157551511Y-138220286D01*
X157542178Y-138213952D01*
X157533260Y-138206892D01*
X157524800Y-138199120D01*
X157220000Y-137894321D01*
X157214594Y-137888633D01*
X157209535Y-137882741D01*
X157204827Y-137876659D01*
X157200467Y-137870400D01*
X157196454Y-137863978D01*
X157192792Y-137857406D01*
X157189478Y-137850698D01*
X157186514Y-137843868D01*
X157183898Y-137836929D01*
X157181631Y-137829894D01*
X157179711Y-137822778D01*
X157178143Y-137815593D01*
X157176922Y-137808355D01*
X157176049Y-137801076D01*
X157175526Y-137793769D01*
X157175352Y-137786450D01*
X157175526Y-137779130D01*
X157176050Y-137771822D01*
X157176922Y-137764544D01*
X157178142Y-137757306D01*
X157179712Y-137750122D01*
X157181630Y-137743006D01*
X157183898Y-137735970D01*
X157186514Y-137729032D01*
X157189479Y-137722201D01*
X157192793Y-137715494D01*
X157196455Y-137708922D01*
X157200467Y-137702500D01*
X157204826Y-137696240D01*
X157209535Y-137690159D01*
X157214593Y-137684267D01*
X157220000Y-137678579D01*
X157524800Y-137373779D01*
X157533260Y-137365927D01*
X157542177Y-137358811D01*
X157551511Y-137352436D01*
X157561219Y-137346812D01*
X157571254Y-137341946D01*
X157581576Y-137337848D01*
X157592141Y-137334526D01*
X157602905Y-137331987D01*
X157613825Y-137330243D01*
X157624859Y-137329297D01*
X157635962Y-137329163D01*
X157647091Y-137329845D01*
G37*
G36*
X136643479Y-137934094D02*
G01*
X136645338Y-137934209D01*
X136647178Y-137934399D01*
X136648999Y-137934662D01*
X136652573Y-137935406D01*
X136656045Y-137936429D01*
X136659402Y-137937722D01*
X136662632Y-137939274D01*
X136665720Y-137941075D01*
X136668654Y-137943118D01*
X136671421Y-137945388D01*
X136674007Y-137947879D01*
X136676399Y-137950578D01*
X136678584Y-137953477D01*
X136680548Y-137956565D01*
X136682281Y-137959833D01*
X136683768Y-137963268D01*
X136684413Y-137965047D01*
X136684992Y-137966864D01*
X136743202Y-138171122D01*
X136947459Y-138229330D01*
X136949229Y-138229863D01*
X136950967Y-138230468D01*
X136952670Y-138231144D01*
X136954338Y-138231889D01*
X136955970Y-138232700D01*
X136957560Y-138233577D01*
X136959113Y-138234516D01*
X136960622Y-138235516D01*
X136962088Y-138236574D01*
X136963510Y-138237690D01*
X136964885Y-138238859D01*
X136966211Y-138240083D01*
X136967488Y-138241359D01*
X136968713Y-138242681D01*
X136969888Y-138244054D01*
X136971007Y-138245470D01*
X136972070Y-138246931D01*
X136973076Y-138248431D01*
X136974023Y-138249972D01*
X136974909Y-138251551D01*
X136975733Y-138253165D01*
X136976495Y-138254813D01*
X136977191Y-138256494D01*
X136977820Y-138258203D01*
X136978381Y-138259941D01*
X136978872Y-138261704D01*
X136979292Y-138263492D01*
X136979639Y-138265301D01*
X136979911Y-138267131D01*
X136980108Y-138268979D01*
X136980227Y-138270843D01*
X136980267Y-138272723D01*
X136980229Y-138274600D01*
X136980114Y-138276460D01*
X136979924Y-138278300D01*
X136979660Y-138280122D01*
X136978917Y-138283694D01*
X136977893Y-138287167D01*
X136976601Y-138290525D01*
X136975049Y-138293753D01*
X136973247Y-138296842D01*
X136971205Y-138299775D01*
X136968934Y-138302542D01*
X136966443Y-138305128D01*
X136963744Y-138307521D01*
X136960845Y-138309706D01*
X136957757Y-138311672D01*
X136954489Y-138313403D01*
X136951054Y-138314889D01*
X136949276Y-138315534D01*
X136947458Y-138316113D01*
X136743201Y-138374323D01*
X136684992Y-138578580D01*
X136684459Y-138580350D01*
X136683854Y-138582088D01*
X136683178Y-138583791D01*
X136682433Y-138585459D01*
X136681623Y-138587090D01*
X136680746Y-138588682D01*
X136679808Y-138590233D01*
X136678807Y-138591744D01*
X136677749Y-138593210D01*
X136676632Y-138594631D01*
X136675463Y-138596005D01*
X136674239Y-138597332D01*
X136672965Y-138598610D01*
X136671641Y-138599836D01*
X136670269Y-138601009D01*
X136668853Y-138602129D01*
X136667392Y-138603192D01*
X136665891Y-138604197D01*
X136664350Y-138605145D01*
X136662771Y-138606030D01*
X136661157Y-138606856D01*
X136659510Y-138607616D01*
X136657829Y-138608312D01*
X136656119Y-138608942D01*
X136654383Y-138609503D01*
X136652618Y-138609994D01*
X136650831Y-138610413D01*
X136649022Y-138610760D01*
X136647191Y-138611033D01*
X136645344Y-138611230D01*
X136643479Y-138611348D01*
X136641600Y-138611389D01*
X136639723Y-138611350D01*
X136637864Y-138611235D01*
X136636022Y-138611045D01*
X136634201Y-138610782D01*
X136630629Y-138610038D01*
X136627157Y-138609016D01*
X136623797Y-138607722D01*
X136620569Y-138606171D01*
X136617481Y-138604368D01*
X136614548Y-138602326D01*
X136611780Y-138600055D01*
X136609193Y-138597566D01*
X136606802Y-138594865D01*
X136604617Y-138591965D01*
X136602650Y-138588878D01*
X136600920Y-138585611D01*
X136599433Y-138582175D01*
X136598789Y-138580397D01*
X136598209Y-138578581D01*
X136540000Y-138374321D01*
X136335743Y-138316114D01*
X136333972Y-138315580D01*
X136332235Y-138314976D01*
X136330531Y-138314300D01*
X136328864Y-138313554D01*
X136327232Y-138312743D01*
X136325640Y-138311867D01*
X136324089Y-138310928D01*
X136322579Y-138309930D01*
X136321113Y-138308871D01*
X136319691Y-138307756D01*
X136318316Y-138306585D01*
X136316991Y-138305360D01*
X136315713Y-138304086D01*
X136314485Y-138302762D01*
X136313314Y-138301390D01*
X136312194Y-138299974D01*
X136311131Y-138298515D01*
X136310125Y-138297012D01*
X136309178Y-138295472D01*
X136308292Y-138293893D01*
X136307466Y-138292279D01*
X136306706Y-138290630D01*
X136306010Y-138288951D01*
X136305382Y-138287242D01*
X136304820Y-138285503D01*
X136304329Y-138283740D01*
X136303909Y-138281953D01*
X136303562Y-138280142D01*
X136303289Y-138278313D01*
X136303093Y-138276465D01*
X136302974Y-138274600D01*
X136302934Y-138272723D01*
X136302972Y-138270845D01*
X136303088Y-138268985D01*
X136303277Y-138267144D01*
X136303541Y-138265323D01*
X136304284Y-138261749D01*
X136305307Y-138258277D01*
X136306599Y-138254920D01*
X136308152Y-138251690D01*
X136309955Y-138248602D01*
X136311996Y-138245668D01*
X136314267Y-138242901D01*
X136316757Y-138240316D01*
X136319457Y-138237924D01*
X136322356Y-138235738D01*
X136325444Y-138233774D01*
X136328711Y-138232041D01*
X136332147Y-138230557D01*
X136333925Y-138229910D01*
X136335741Y-138229330D01*
X136540000Y-138171122D01*
X136598209Y-137966863D01*
X136598742Y-137965093D01*
X136599347Y-137963356D01*
X136600023Y-137961652D01*
X136600769Y-137959984D01*
X136601579Y-137958354D01*
X136602455Y-137956763D01*
X136603394Y-137955210D01*
X136604392Y-137953701D01*
X136605452Y-137952234D01*
X136606567Y-137950814D01*
X136607738Y-137949438D01*
X136608963Y-137948111D01*
X136610236Y-137946834D01*
X136611560Y-137945609D01*
X136612932Y-137944434D01*
X136614348Y-137943316D01*
X136615808Y-137942252D01*
X136617310Y-137941246D01*
X136618850Y-137940299D01*
X136620430Y-137939413D01*
X136622044Y-137938589D01*
X136623692Y-137937828D01*
X136625372Y-137937133D01*
X136627081Y-137936502D01*
X136628819Y-137935941D01*
X136630583Y-137935450D01*
X136632370Y-137935030D01*
X136634180Y-137934684D01*
X136636009Y-137934411D01*
X136637858Y-137934215D01*
X136639722Y-137934096D01*
X136641600Y-137934056D01*
X136643479Y-137934094D01*
G37*
G36*
X136055170Y-138398779D02*
G01*
X136057920Y-138398953D01*
X136060652Y-138399241D01*
X136063356Y-138399641D01*
X136068682Y-138400766D01*
X136073874Y-138402309D01*
X136078905Y-138404256D01*
X136083756Y-138406591D01*
X136088400Y-138409292D01*
X136092815Y-138412347D01*
X136096975Y-138415736D01*
X136100857Y-138419443D01*
X136104436Y-138423452D01*
X136107691Y-138427742D01*
X136110592Y-138432300D01*
X136111905Y-138434675D01*
X136113121Y-138437108D01*
X136114237Y-138439601D01*
X136115251Y-138442148D01*
X136116159Y-138444750D01*
X136116958Y-138447404D01*
X136204800Y-138754322D01*
X136511717Y-138842163D01*
X136514417Y-138843008D01*
X136517060Y-138843957D01*
X136519643Y-138845006D01*
X136522165Y-138846152D01*
X136524623Y-138847392D01*
X136527016Y-138848725D01*
X136529344Y-138850146D01*
X136531602Y-138851655D01*
X136533789Y-138853247D01*
X136535904Y-138854919D01*
X136537945Y-138856671D01*
X136539911Y-138858496D01*
X136541796Y-138860396D01*
X136543605Y-138862365D01*
X136545330Y-138864402D01*
X136546973Y-138866504D01*
X136548529Y-138868668D01*
X136549999Y-138870892D01*
X136551380Y-138873171D01*
X136552670Y-138875505D01*
X136553868Y-138877889D01*
X136554971Y-138880323D01*
X136555977Y-138882802D01*
X136556886Y-138885323D01*
X136557695Y-138887885D01*
X136558401Y-138890484D01*
X136559004Y-138893119D01*
X136559502Y-138895787D01*
X136559892Y-138898483D01*
X136560173Y-138901205D01*
X136560343Y-138903952D01*
X136560400Y-138906721D01*
X136560341Y-138909491D01*
X136560167Y-138912242D01*
X136559878Y-138914972D01*
X136559480Y-138917677D01*
X136558356Y-138923002D01*
X136556812Y-138928193D01*
X136554864Y-138933227D01*
X136552532Y-138938077D01*
X136549828Y-138942721D01*
X136546774Y-138947137D01*
X136543385Y-138951297D01*
X136539677Y-138955178D01*
X136535670Y-138958757D01*
X136531379Y-138962010D01*
X136526820Y-138964913D01*
X136524448Y-138966225D01*
X136522013Y-138967442D01*
X136519521Y-138968559D01*
X136516972Y-138969572D01*
X136514369Y-138970479D01*
X136511717Y-138971279D01*
X136204800Y-139059122D01*
X136116958Y-139366038D01*
X136116113Y-139368737D01*
X136115164Y-139371381D01*
X136114115Y-139373964D01*
X136112969Y-139376485D01*
X136111728Y-139378944D01*
X136110396Y-139381338D01*
X136108974Y-139383664D01*
X136107467Y-139385923D01*
X136105875Y-139388110D01*
X136104202Y-139390226D01*
X136102451Y-139392266D01*
X136100624Y-139394231D01*
X136098725Y-139396118D01*
X136096755Y-139397925D01*
X136094718Y-139399651D01*
X136092616Y-139401293D01*
X136090453Y-139402851D01*
X136088229Y-139404320D01*
X136085950Y-139405702D01*
X136083618Y-139406991D01*
X136081231Y-139408188D01*
X136078799Y-139409292D01*
X136076321Y-139410298D01*
X136073798Y-139411207D01*
X136071236Y-139412015D01*
X136068636Y-139412722D01*
X136066001Y-139413325D01*
X136063335Y-139413823D01*
X136060638Y-139414213D01*
X136057915Y-139414495D01*
X136055168Y-139414664D01*
X136052400Y-139414721D01*
X136049630Y-139414663D01*
X136046879Y-139414488D01*
X136044149Y-139414200D01*
X136041443Y-139413802D01*
X136036117Y-139412677D01*
X136030927Y-139411132D01*
X136025894Y-139409185D01*
X136021044Y-139406852D01*
X136016399Y-139404149D01*
X136011986Y-139401095D01*
X136007826Y-139397706D01*
X136003943Y-139393998D01*
X136000363Y-139389991D01*
X135997110Y-139385700D01*
X135994208Y-139381142D01*
X135992895Y-139378767D01*
X135991679Y-139376333D01*
X135990563Y-139373841D01*
X135989549Y-139371293D01*
X135988641Y-139368691D01*
X135987842Y-139366037D01*
X135900000Y-139059122D01*
X135593083Y-138971280D01*
X135590382Y-138970433D01*
X135587740Y-138969484D01*
X135585158Y-138968435D01*
X135582635Y-138967290D01*
X135580176Y-138966049D01*
X135577783Y-138964716D01*
X135575456Y-138963295D01*
X135573199Y-138961788D01*
X135571010Y-138960195D01*
X135568896Y-138958524D01*
X135566854Y-138956773D01*
X135564889Y-138954945D01*
X135563003Y-138953047D01*
X135561194Y-138951077D01*
X135559469Y-138949040D01*
X135557827Y-138946937D01*
X135556270Y-138944773D01*
X135554800Y-138942550D01*
X135553421Y-138940271D01*
X135552130Y-138937938D01*
X135550932Y-138935553D01*
X135549829Y-138933120D01*
X135548822Y-138930641D01*
X135547914Y-138928119D01*
X135547105Y-138925558D01*
X135546399Y-138922957D01*
X135545794Y-138920322D01*
X135545299Y-138917656D01*
X135544908Y-138914959D01*
X135544627Y-138912237D01*
X135544457Y-138909489D01*
X135544400Y-138906722D01*
X135544458Y-138903952D01*
X135544633Y-138901199D01*
X135544919Y-138898470D01*
X135545320Y-138895765D01*
X135546444Y-138890439D01*
X135547988Y-138885249D01*
X135549937Y-138880215D01*
X135552269Y-138875365D01*
X135554971Y-138870720D01*
X135558027Y-138866306D01*
X135561415Y-138862145D01*
X135565122Y-138858265D01*
X135569130Y-138854683D01*
X135573422Y-138851432D01*
X135577979Y-138848528D01*
X135580353Y-138847216D01*
X135582787Y-138846000D01*
X135585279Y-138844884D01*
X135587827Y-138843871D01*
X135590429Y-138842962D01*
X135593083Y-138842162D01*
X135900000Y-138754321D01*
X135987842Y-138447404D01*
X135988688Y-138444704D01*
X135989636Y-138442062D01*
X135990685Y-138439478D01*
X135991832Y-138436957D01*
X135993072Y-138434498D01*
X135994403Y-138432104D01*
X135995827Y-138429778D01*
X135997333Y-138427519D01*
X135998925Y-138425332D01*
X136000599Y-138423217D01*
X136002349Y-138421175D01*
X136004175Y-138419211D01*
X136006076Y-138417324D01*
X136008044Y-138415516D01*
X136010081Y-138413790D01*
X136012182Y-138412148D01*
X136014347Y-138410591D01*
X136016570Y-138409121D01*
X136018850Y-138407740D01*
X136021183Y-138406451D01*
X136023569Y-138405253D01*
X136026002Y-138404150D01*
X136028480Y-138403143D01*
X136031002Y-138402236D01*
X136033564Y-138401426D01*
X136036164Y-138400720D01*
X136038798Y-138400116D01*
X136041466Y-138399620D01*
X136044162Y-138399229D01*
X136046885Y-138398948D01*
X136049632Y-138398778D01*
X136052401Y-138398721D01*
X136055170Y-138398779D01*
G37*
D14*
%TO.C,J4*%
X150390000Y-49699321D03*
X144610000Y-49699321D03*
D15*
X151820000Y-50199321D03*
D16*
X151820000Y-46019321D03*
D15*
X143180000Y-50199321D03*
D16*
X143180000Y-46019321D03*
%TD*%
D17*
%TO.C,H2*%
X162000000Y-65676642D03*
%TD*%
D18*
%TO.C,J9*%
X159650000Y-50034321D03*
X159650000Y-55074321D03*
X157110000Y-50034321D03*
X157110000Y-55074321D03*
X154570000Y-50034321D03*
X154570000Y-55074321D03*
%TD*%
D17*
%TO.C,H4*%
X162000000Y-129751642D03*
%TD*%
D19*
%TO.C,J3*%
X159495000Y-117554321D03*
X160511000Y-122634321D03*
X158479000Y-122634321D03*
D20*
X160130000Y-118824321D03*
X158860000Y-118824321D03*
X160130000Y-120094321D03*
X158860000Y-120094321D03*
X160130000Y-121364321D03*
X158860000Y-121364321D03*
%TD*%
D17*
%TO.C,H5*%
X133000000Y-129751642D03*
%TD*%
%TO.C,H3*%
X133000000Y-65676642D03*
%TD*%
%LPD*%
M02*
