%TF.GenerationSoftware,KiCad,Pcbnew,9.0.2*%
%TF.CreationDate,2025-05-11T21:09:13+01:00*%
%TF.ProjectId,mariposa,6d617269-706f-4736-912e-6b696361645f,2.0*%
%TF.SameCoordinates,Original*%
%TF.FileFunction,Soldermask,Bot*%
%TF.FilePolarity,Negative*%
%FSLAX46Y46*%
G04 Gerber Fmt 4.6, Leading zero omitted, Abs format (unit mm)*
G04 Created by KiCad (PCBNEW 9.0.2) date 2025-05-11 21:09:13*
%MOMM*%
%LPD*%
G01*
G04 APERTURE LIST*
G04 Aperture macros list*
%AMRoundRect*
0 Rectangle with rounded corners*
0 $1 Rounding radius*
0 $2 $3 $4 $5 $6 $7 $8 $9 X,Y pos of 4 corners*
0 Add a 4 corners polygon primitive as box body*
4,1,4,$2,$3,$4,$5,$6,$7,$8,$9,$2,$3,0*
0 Add four circle primitives for the rounded corners*
1,1,$1+$1,$2,$3*
1,1,$1+$1,$4,$5*
1,1,$1+$1,$6,$7*
1,1,$1+$1,$8,$9*
0 Add four rect primitives between the rounded corners*
20,1,$1+$1,$2,$3,$4,$5,0*
20,1,$1+$1,$4,$5,$6,$7,0*
20,1,$1+$1,$6,$7,$8,$9,0*
20,1,$1+$1,$8,$9,$2,$3,0*%
G04 Aperture macros list end*
%ADD10C,0.000000*%
%ADD11O,1.020000X1.820000*%
%ADD12O,1.020000X2.120000*%
%ADD13C,0.670000*%
%ADD14C,5.600000*%
%ADD15RoundRect,0.250000X0.250000X-1.250000X0.250000X1.250000X-0.250000X1.250000X-0.250000X-1.250000X0*%
%ADD16C,0.787400*%
%ADD17C,0.990600*%
G04 APERTURE END LIST*
D10*
G36*
X155614182Y-129602031D02*
G01*
X155625297Y-129603540D01*
X155636350Y-129605882D01*
X155647298Y-129609068D01*
X155658103Y-129613104D01*
X155663401Y-129615428D01*
X155668579Y-129617931D01*
X155673635Y-129620608D01*
X155678562Y-129623458D01*
X155683361Y-129626471D01*
X155688027Y-129629647D01*
X155692555Y-129632979D01*
X155696947Y-129636463D01*
X155701194Y-129640093D01*
X155705296Y-129643867D01*
X155709251Y-129647778D01*
X155713053Y-129651823D01*
X155716700Y-129655996D01*
X155720190Y-129660292D01*
X155723518Y-129664710D01*
X155726682Y-129669242D01*
X155729678Y-129673884D01*
X155732505Y-129678631D01*
X155735157Y-129683480D01*
X155737633Y-129688424D01*
X155739927Y-129693462D01*
X155742040Y-129698585D01*
X155743966Y-129703792D01*
X155745703Y-129709076D01*
X155747246Y-129714433D01*
X155748594Y-129719859D01*
X155749745Y-129725349D01*
X155750692Y-129730899D01*
X155751434Y-129736502D01*
X155751968Y-129742156D01*
X155752292Y-129747857D01*
X155752399Y-129753597D01*
X155752400Y-129905998D01*
X156514400Y-129905998D01*
X156553627Y-129906989D01*
X156592336Y-129909930D01*
X156630482Y-129914773D01*
X156668017Y-129921472D01*
X156704890Y-129929977D01*
X156741056Y-129940241D01*
X156776467Y-129952217D01*
X156811073Y-129965855D01*
X156844830Y-129981110D01*
X156877687Y-129997934D01*
X156909598Y-130016277D01*
X156940514Y-130036092D01*
X156970387Y-130057332D01*
X156999170Y-130079949D01*
X157026817Y-130103894D01*
X157053276Y-130129120D01*
X157078503Y-130155580D01*
X157102448Y-130183227D01*
X157125066Y-130212011D01*
X157146306Y-130241884D01*
X157166120Y-130272799D01*
X157184464Y-130304711D01*
X157201287Y-130337568D01*
X157216540Y-130371324D01*
X157230180Y-130405931D01*
X157242156Y-130441341D01*
X157252420Y-130477507D01*
X157260926Y-130514381D01*
X157267624Y-130551914D01*
X157272467Y-130590061D01*
X157275409Y-130628771D01*
X157276400Y-130667997D01*
X157276201Y-130675851D01*
X157275614Y-130683600D01*
X157274646Y-130691236D01*
X157273308Y-130698748D01*
X157271609Y-130706128D01*
X157269558Y-130713364D01*
X157267166Y-130720449D01*
X157264442Y-130727372D01*
X157261393Y-130734125D01*
X157258032Y-130740697D01*
X157254365Y-130747079D01*
X157250406Y-130753262D01*
X157246161Y-130759235D01*
X157241641Y-130764991D01*
X157236854Y-130770518D01*
X157231811Y-130775809D01*
X157226520Y-130780852D01*
X157220993Y-130785638D01*
X157215238Y-130790158D01*
X157209265Y-130794403D01*
X157203082Y-130798363D01*
X157196700Y-130802030D01*
X157190128Y-130805391D01*
X157183374Y-130808439D01*
X157176452Y-130811165D01*
X157169366Y-130813556D01*
X157162130Y-130815608D01*
X157154751Y-130817307D01*
X157147239Y-130818644D01*
X157139603Y-130819611D01*
X157131854Y-130820200D01*
X157124000Y-130820398D01*
X157116145Y-130820200D01*
X157108396Y-130819612D01*
X157100760Y-130818645D01*
X157093249Y-130817306D01*
X157085870Y-130815608D01*
X157078632Y-130813556D01*
X157071547Y-130811165D01*
X157064624Y-130808439D01*
X157057872Y-130805391D01*
X157051300Y-130802030D01*
X157044918Y-130798364D01*
X157038735Y-130794403D01*
X157032762Y-130790159D01*
X157027005Y-130785638D01*
X157021478Y-130780851D01*
X157016189Y-130775808D01*
X157011146Y-130770519D01*
X157006359Y-130764991D01*
X157001838Y-130759236D01*
X156997594Y-130753262D01*
X156993633Y-130747080D01*
X156989967Y-130740697D01*
X156986606Y-130734125D01*
X156983558Y-130727372D01*
X156980833Y-130720449D01*
X156978440Y-130713364D01*
X156976390Y-130706128D01*
X156974690Y-130698748D01*
X156973353Y-130691235D01*
X156972385Y-130683601D01*
X156971797Y-130675851D01*
X156971599Y-130667997D01*
X156971005Y-130644477D01*
X156969239Y-130621266D01*
X156966330Y-130598392D01*
X156962308Y-130575882D01*
X156957200Y-130553767D01*
X156951037Y-130532075D01*
X156943847Y-130510834D01*
X156935658Y-130490073D01*
X156926499Y-130469823D01*
X156916400Y-130450110D01*
X156905387Y-130430964D01*
X156893493Y-130412412D01*
X156880744Y-130394486D01*
X156867168Y-130377214D01*
X156852795Y-130360623D01*
X156837655Y-130344743D01*
X156821773Y-130329601D01*
X156805182Y-130315230D01*
X156787911Y-130301653D01*
X156769983Y-130288905D01*
X156751434Y-130277010D01*
X156732288Y-130265997D01*
X156712575Y-130255898D01*
X156692324Y-130246740D01*
X156671563Y-130238551D01*
X156650323Y-130231360D01*
X156628630Y-130225197D01*
X156606514Y-130220090D01*
X156584006Y-130216068D01*
X156561131Y-130213159D01*
X156537919Y-130211392D01*
X156514399Y-130210797D01*
X155752400Y-130210798D01*
X155752400Y-130363197D01*
X155751968Y-130374644D01*
X155750692Y-130385916D01*
X155748595Y-130396980D01*
X155745703Y-130407793D01*
X155742039Y-130418321D01*
X155737633Y-130428520D01*
X155732505Y-130438358D01*
X155726682Y-130447792D01*
X155720189Y-130456785D01*
X155713054Y-130465298D01*
X155705297Y-130473295D01*
X155696947Y-130480735D01*
X155688027Y-130487581D01*
X155678562Y-130493793D01*
X155668579Y-130499335D01*
X155658103Y-130504168D01*
X155647299Y-130508199D01*
X155636350Y-130511369D01*
X155625296Y-130513690D01*
X155614183Y-130515173D01*
X155603054Y-130515827D01*
X155591949Y-130515661D01*
X155580917Y-130514689D01*
X155569996Y-130512919D01*
X155559232Y-130510362D01*
X155548667Y-130507028D01*
X155538346Y-130502927D01*
X155528310Y-130498073D01*
X155518602Y-130492472D01*
X155509269Y-130486138D01*
X155500351Y-130479078D01*
X155491891Y-130471306D01*
X155187091Y-130166507D01*
X155181685Y-130160819D01*
X155176626Y-130154927D01*
X155171918Y-130148845D01*
X155167558Y-130142586D01*
X155163545Y-130136164D01*
X155159883Y-130129592D01*
X155156569Y-130122884D01*
X155153605Y-130116054D01*
X155150989Y-130109115D01*
X155148722Y-130102080D01*
X155146802Y-130094964D01*
X155145234Y-130087779D01*
X155144013Y-130080541D01*
X155143140Y-130073262D01*
X155142617Y-130065955D01*
X155142443Y-130058636D01*
X155142617Y-130051316D01*
X155143141Y-130044008D01*
X155144013Y-130036730D01*
X155145233Y-130029492D01*
X155146803Y-130022308D01*
X155148721Y-130015192D01*
X155150989Y-130008156D01*
X155153605Y-130001218D01*
X155156570Y-129994387D01*
X155159884Y-129987680D01*
X155163546Y-129981108D01*
X155167558Y-129974686D01*
X155171917Y-129968426D01*
X155176626Y-129962345D01*
X155181684Y-129956453D01*
X155187091Y-129950765D01*
X155491891Y-129645965D01*
X155500351Y-129638113D01*
X155509268Y-129630997D01*
X155518602Y-129624622D01*
X155528310Y-129618998D01*
X155538345Y-129614132D01*
X155548667Y-129610034D01*
X155559232Y-129606712D01*
X155569996Y-129604173D01*
X155580916Y-129602429D01*
X155591950Y-129601483D01*
X155603053Y-129601349D01*
X155614182Y-129602031D01*
G37*
G36*
X138638679Y-129914093D02*
G01*
X138640538Y-129914208D01*
X138642378Y-129914398D01*
X138644199Y-129914661D01*
X138647773Y-129915405D01*
X138651245Y-129916428D01*
X138654602Y-129917721D01*
X138657832Y-129919273D01*
X138660920Y-129921074D01*
X138663854Y-129923117D01*
X138666621Y-129925387D01*
X138669207Y-129927878D01*
X138671599Y-129930577D01*
X138673784Y-129933476D01*
X138675748Y-129936564D01*
X138677481Y-129939832D01*
X138678968Y-129943267D01*
X138679613Y-129945046D01*
X138680192Y-129946863D01*
X138738402Y-130151121D01*
X138942659Y-130209329D01*
X138944429Y-130209862D01*
X138946167Y-130210467D01*
X138947870Y-130211143D01*
X138949538Y-130211888D01*
X138951170Y-130212699D01*
X138952760Y-130213576D01*
X138954313Y-130214515D01*
X138955822Y-130215515D01*
X138957288Y-130216573D01*
X138958710Y-130217689D01*
X138960085Y-130218858D01*
X138961411Y-130220082D01*
X138962688Y-130221358D01*
X138963913Y-130222680D01*
X138965088Y-130224053D01*
X138966207Y-130225469D01*
X138967270Y-130226930D01*
X138968276Y-130228430D01*
X138969223Y-130229971D01*
X138970109Y-130231550D01*
X138970933Y-130233164D01*
X138971695Y-130234812D01*
X138972391Y-130236493D01*
X138973020Y-130238202D01*
X138973581Y-130239940D01*
X138974072Y-130241703D01*
X138974492Y-130243491D01*
X138974839Y-130245300D01*
X138975111Y-130247130D01*
X138975308Y-130248978D01*
X138975427Y-130250842D01*
X138975467Y-130252722D01*
X138975429Y-130254599D01*
X138975314Y-130256459D01*
X138975124Y-130258299D01*
X138974860Y-130260121D01*
X138974117Y-130263693D01*
X138973093Y-130267166D01*
X138971801Y-130270524D01*
X138970249Y-130273752D01*
X138968447Y-130276841D01*
X138966405Y-130279774D01*
X138964134Y-130282541D01*
X138961643Y-130285127D01*
X138958944Y-130287520D01*
X138956045Y-130289705D01*
X138952957Y-130291671D01*
X138949689Y-130293402D01*
X138946254Y-130294888D01*
X138944476Y-130295533D01*
X138942658Y-130296112D01*
X138738401Y-130354322D01*
X138680192Y-130558579D01*
X138679659Y-130560349D01*
X138679054Y-130562087D01*
X138678378Y-130563790D01*
X138677633Y-130565458D01*
X138676823Y-130567089D01*
X138675946Y-130568681D01*
X138675008Y-130570232D01*
X138674007Y-130571743D01*
X138672949Y-130573209D01*
X138671832Y-130574630D01*
X138670663Y-130576004D01*
X138669439Y-130577331D01*
X138668165Y-130578609D01*
X138666841Y-130579835D01*
X138665469Y-130581008D01*
X138664053Y-130582128D01*
X138662592Y-130583191D01*
X138661091Y-130584196D01*
X138659550Y-130585144D01*
X138657971Y-130586029D01*
X138656357Y-130586855D01*
X138654710Y-130587615D01*
X138653029Y-130588311D01*
X138651319Y-130588941D01*
X138649583Y-130589502D01*
X138647818Y-130589993D01*
X138646031Y-130590412D01*
X138644222Y-130590759D01*
X138642391Y-130591032D01*
X138640544Y-130591229D01*
X138638679Y-130591347D01*
X138636800Y-130591388D01*
X138634923Y-130591349D01*
X138633064Y-130591234D01*
X138631222Y-130591044D01*
X138629401Y-130590781D01*
X138625829Y-130590037D01*
X138622357Y-130589015D01*
X138618997Y-130587721D01*
X138615769Y-130586170D01*
X138612681Y-130584367D01*
X138609748Y-130582325D01*
X138606980Y-130580054D01*
X138604393Y-130577565D01*
X138602002Y-130574864D01*
X138599817Y-130571964D01*
X138597850Y-130568877D01*
X138596120Y-130565610D01*
X138594633Y-130562174D01*
X138593989Y-130560396D01*
X138593409Y-130558580D01*
X138535200Y-130354320D01*
X138330943Y-130296113D01*
X138329172Y-130295579D01*
X138327435Y-130294975D01*
X138325731Y-130294299D01*
X138324064Y-130293553D01*
X138322432Y-130292742D01*
X138320840Y-130291866D01*
X138319289Y-130290927D01*
X138317779Y-130289929D01*
X138316313Y-130288870D01*
X138314891Y-130287755D01*
X138313516Y-130286584D01*
X138312191Y-130285359D01*
X138310913Y-130284085D01*
X138309685Y-130282761D01*
X138308514Y-130281389D01*
X138307394Y-130279973D01*
X138306331Y-130278514D01*
X138305325Y-130277011D01*
X138304378Y-130275471D01*
X138303492Y-130273892D01*
X138302666Y-130272278D01*
X138301906Y-130270629D01*
X138301210Y-130268950D01*
X138300582Y-130267241D01*
X138300020Y-130265502D01*
X138299529Y-130263739D01*
X138299109Y-130261952D01*
X138298762Y-130260141D01*
X138298489Y-130258312D01*
X138298293Y-130256464D01*
X138298174Y-130254599D01*
X138298134Y-130252722D01*
X138298172Y-130250844D01*
X138298288Y-130248984D01*
X138298477Y-130247143D01*
X138298741Y-130245322D01*
X138299484Y-130241748D01*
X138300507Y-130238276D01*
X138301799Y-130234919D01*
X138303352Y-130231689D01*
X138305155Y-130228601D01*
X138307196Y-130225667D01*
X138309467Y-130222900D01*
X138311957Y-130220315D01*
X138314657Y-130217923D01*
X138317556Y-130215737D01*
X138320644Y-130213773D01*
X138323911Y-130212040D01*
X138327347Y-130210556D01*
X138329125Y-130209909D01*
X138330941Y-130209329D01*
X138535200Y-130151121D01*
X138593409Y-129946862D01*
X138593942Y-129945092D01*
X138594547Y-129943355D01*
X138595223Y-129941651D01*
X138595969Y-129939983D01*
X138596779Y-129938353D01*
X138597655Y-129936762D01*
X138598594Y-129935209D01*
X138599592Y-129933700D01*
X138600652Y-129932233D01*
X138601767Y-129930813D01*
X138602938Y-129929437D01*
X138604163Y-129928110D01*
X138605436Y-129926833D01*
X138606760Y-129925608D01*
X138608132Y-129924433D01*
X138609548Y-129923315D01*
X138611008Y-129922251D01*
X138612510Y-129921245D01*
X138614050Y-129920298D01*
X138615630Y-129919412D01*
X138617244Y-129918588D01*
X138618892Y-129917827D01*
X138620572Y-129917132D01*
X138622281Y-129916501D01*
X138624019Y-129915940D01*
X138625783Y-129915449D01*
X138627570Y-129915029D01*
X138629380Y-129914683D01*
X138631209Y-129914410D01*
X138633058Y-129914214D01*
X138634922Y-129914095D01*
X138636800Y-129914055D01*
X138638679Y-129914093D01*
G37*
G36*
X138050370Y-130378778D02*
G01*
X138053120Y-130378952D01*
X138055852Y-130379240D01*
X138058556Y-130379640D01*
X138063882Y-130380765D01*
X138069074Y-130382308D01*
X138074105Y-130384255D01*
X138078956Y-130386590D01*
X138083600Y-130389291D01*
X138088015Y-130392346D01*
X138092175Y-130395735D01*
X138096057Y-130399442D01*
X138099636Y-130403451D01*
X138102891Y-130407741D01*
X138105792Y-130412299D01*
X138107105Y-130414674D01*
X138108321Y-130417107D01*
X138109437Y-130419600D01*
X138110451Y-130422147D01*
X138111359Y-130424749D01*
X138112158Y-130427403D01*
X138200000Y-130734321D01*
X138506917Y-130822162D01*
X138509617Y-130823007D01*
X138512260Y-130823956D01*
X138514843Y-130825005D01*
X138517365Y-130826151D01*
X138519823Y-130827391D01*
X138522216Y-130828724D01*
X138524544Y-130830145D01*
X138526802Y-130831654D01*
X138528989Y-130833246D01*
X138531104Y-130834918D01*
X138533145Y-130836670D01*
X138535111Y-130838495D01*
X138536996Y-130840395D01*
X138538805Y-130842364D01*
X138540530Y-130844401D01*
X138542173Y-130846503D01*
X138543729Y-130848667D01*
X138545199Y-130850891D01*
X138546580Y-130853170D01*
X138547870Y-130855504D01*
X138549068Y-130857888D01*
X138550171Y-130860322D01*
X138551177Y-130862801D01*
X138552086Y-130865322D01*
X138552895Y-130867884D01*
X138553601Y-130870483D01*
X138554204Y-130873118D01*
X138554702Y-130875786D01*
X138555092Y-130878482D01*
X138555373Y-130881204D01*
X138555543Y-130883951D01*
X138555600Y-130886720D01*
X138555541Y-130889490D01*
X138555367Y-130892241D01*
X138555078Y-130894971D01*
X138554680Y-130897676D01*
X138553556Y-130903001D01*
X138552012Y-130908192D01*
X138550064Y-130913226D01*
X138547732Y-130918076D01*
X138545028Y-130922720D01*
X138541974Y-130927136D01*
X138538585Y-130931296D01*
X138534877Y-130935177D01*
X138530870Y-130938756D01*
X138526579Y-130942009D01*
X138522020Y-130944912D01*
X138519648Y-130946224D01*
X138517213Y-130947441D01*
X138514721Y-130948558D01*
X138512172Y-130949571D01*
X138509569Y-130950478D01*
X138506917Y-130951278D01*
X138200000Y-131039121D01*
X138112158Y-131346037D01*
X138111313Y-131348736D01*
X138110364Y-131351380D01*
X138109315Y-131353963D01*
X138108169Y-131356484D01*
X138106928Y-131358943D01*
X138105596Y-131361337D01*
X138104174Y-131363663D01*
X138102667Y-131365922D01*
X138101075Y-131368109D01*
X138099402Y-131370225D01*
X138097651Y-131372265D01*
X138095824Y-131374230D01*
X138093925Y-131376117D01*
X138091955Y-131377924D01*
X138089918Y-131379650D01*
X138087816Y-131381292D01*
X138085653Y-131382850D01*
X138083429Y-131384319D01*
X138081150Y-131385701D01*
X138078818Y-131386990D01*
X138076431Y-131388187D01*
X138073999Y-131389291D01*
X138071521Y-131390297D01*
X138068998Y-131391206D01*
X138066436Y-131392014D01*
X138063836Y-131392721D01*
X138061201Y-131393324D01*
X138058535Y-131393822D01*
X138055838Y-131394212D01*
X138053115Y-131394494D01*
X138050368Y-131394663D01*
X138047600Y-131394720D01*
X138044830Y-131394662D01*
X138042079Y-131394487D01*
X138039349Y-131394199D01*
X138036643Y-131393801D01*
X138031317Y-131392676D01*
X138026127Y-131391131D01*
X138021094Y-131389184D01*
X138016244Y-131386851D01*
X138011599Y-131384148D01*
X138007186Y-131381094D01*
X138003026Y-131377705D01*
X137999143Y-131373997D01*
X137995563Y-131369990D01*
X137992310Y-131365699D01*
X137989408Y-131361141D01*
X137988095Y-131358766D01*
X137986879Y-131356332D01*
X137985763Y-131353840D01*
X137984749Y-131351292D01*
X137983841Y-131348690D01*
X137983042Y-131346036D01*
X137895200Y-131039121D01*
X137588283Y-130951279D01*
X137585582Y-130950432D01*
X137582940Y-130949483D01*
X137580358Y-130948434D01*
X137577835Y-130947289D01*
X137575376Y-130946048D01*
X137572983Y-130944715D01*
X137570656Y-130943294D01*
X137568399Y-130941787D01*
X137566210Y-130940194D01*
X137564096Y-130938523D01*
X137562054Y-130936772D01*
X137560089Y-130934944D01*
X137558203Y-130933046D01*
X137556394Y-130931076D01*
X137554669Y-130929039D01*
X137553027Y-130926936D01*
X137551470Y-130924772D01*
X137550000Y-130922549D01*
X137548621Y-130920270D01*
X137547330Y-130917937D01*
X137546132Y-130915552D01*
X137545029Y-130913119D01*
X137544022Y-130910640D01*
X137543114Y-130908118D01*
X137542305Y-130905557D01*
X137541599Y-130902956D01*
X137540994Y-130900321D01*
X137540499Y-130897655D01*
X137540108Y-130894958D01*
X137539827Y-130892236D01*
X137539657Y-130889488D01*
X137539600Y-130886721D01*
X137539658Y-130883951D01*
X137539833Y-130881198D01*
X137540119Y-130878469D01*
X137540520Y-130875764D01*
X137541644Y-130870438D01*
X137543188Y-130865248D01*
X137545137Y-130860214D01*
X137547469Y-130855364D01*
X137550171Y-130850719D01*
X137553227Y-130846305D01*
X137556615Y-130842144D01*
X137560322Y-130838264D01*
X137564330Y-130834682D01*
X137568622Y-130831431D01*
X137573179Y-130828527D01*
X137575553Y-130827215D01*
X137577987Y-130825999D01*
X137580479Y-130824883D01*
X137583027Y-130823870D01*
X137585629Y-130822961D01*
X137588283Y-130822161D01*
X137895200Y-130734320D01*
X137983042Y-130427403D01*
X137983888Y-130424703D01*
X137984836Y-130422061D01*
X137985885Y-130419477D01*
X137987032Y-130416956D01*
X137988272Y-130414497D01*
X137989603Y-130412103D01*
X137991027Y-130409777D01*
X137992533Y-130407518D01*
X137994125Y-130405331D01*
X137995799Y-130403216D01*
X137997549Y-130401174D01*
X137999375Y-130399210D01*
X138001276Y-130397323D01*
X138003244Y-130395515D01*
X138005281Y-130393789D01*
X138007382Y-130392147D01*
X138009547Y-130390590D01*
X138011770Y-130389120D01*
X138014050Y-130387739D01*
X138016383Y-130386450D01*
X138018769Y-130385252D01*
X138021202Y-130384149D01*
X138023680Y-130383142D01*
X138026202Y-130382235D01*
X138028764Y-130381425D01*
X138031364Y-130380719D01*
X138033998Y-130380115D01*
X138036666Y-130379619D01*
X138039362Y-130379228D01*
X138042085Y-130378947D01*
X138044832Y-130378777D01*
X138047601Y-130378720D01*
X138050370Y-130378778D01*
G37*
D11*
%TO.C,J4*%
X143180000Y-58169321D03*
D12*
X143180000Y-62349321D03*
D11*
X151820000Y-58169321D03*
D12*
X151820000Y-62349321D03*
D13*
X144610000Y-61849321D03*
X150390000Y-61849321D03*
%TD*%
D14*
%TO.C,H2*%
X162000000Y-65676642D03*
%TD*%
D15*
%TO.C,J9*%
X149410000Y-73154321D03*
X149410000Y-68114321D03*
X151950000Y-73154321D03*
X151950000Y-68114321D03*
X154490000Y-73154321D03*
X154490000Y-68114321D03*
%TD*%
D14*
%TO.C,H4*%
X162000000Y-129751642D03*
%TD*%
D16*
%TO.C,J3*%
X163151000Y-101204321D03*
X161881000Y-101204321D03*
X163151000Y-102474321D03*
X161881000Y-102474321D03*
X163151000Y-103744321D03*
X161881000Y-103744321D03*
D17*
X163532000Y-99934321D03*
X161500000Y-99934321D03*
X162516000Y-105014321D03*
%TD*%
D14*
%TO.C,H5*%
X133000000Y-129751642D03*
%TD*%
%TO.C,H3*%
X133000000Y-65676642D03*
%TD*%
M02*
