%TF.GenerationSoftware,KiCad,Pcbnew,8.0.8*%
%TF.CreationDate,2025-02-04T17:04:15+00:00*%
%TF.ProjectId,mariposa,6d617269-706f-4736-912e-6b696361645f,2.0*%
%TF.SameCoordinates,Original*%
%TF.FileFunction,Soldermask,Top*%
%TF.FilePolarity,Negative*%
%FSLAX46Y46*%
G04 Gerber Fmt 4.6, Leading zero omitted, Abs format (unit mm)*
G04 Created by KiCad (PCBNEW 8.0.8) date 2025-02-04 17:04:15*
%MOMM*%
%LPD*%
G01*
G04 APERTURE LIST*
G04 Aperture macros list*
%AMRoundRect*
0 Rectangle with rounded corners*
0 $1 Rounding radius*
0 $2 $3 $4 $5 $6 $7 $8 $9 X,Y pos of 4 corners*
0 Add a 4 corners polygon primitive as box body*
4,1,4,$2,$3,$4,$5,$6,$7,$8,$9,$2,$3,0*
0 Add four circle primitives for the rounded corners*
1,1,$1+$1,$2,$3*
1,1,$1+$1,$4,$5*
1,1,$1+$1,$6,$7*
1,1,$1+$1,$8,$9*
0 Add four rect primitives between the rounded corners*
20,1,$1+$1,$2,$3,$4,$5,0*
20,1,$1+$1,$4,$5,$6,$7,0*
20,1,$1+$1,$6,$7,$8,$9,0*
20,1,$1+$1,$8,$9,$2,$3,0*%
G04 Aperture macros list end*
%ADD10C,0.238038*%
%ADD11C,0.000000*%
%ADD12C,5.600000*%
%ADD13RoundRect,0.250000X0.250000X-1.250000X0.250000X1.250000X-0.250000X1.250000X-0.250000X-1.250000X0*%
%ADD14RoundRect,0.250000X0.400000X-0.525000X0.400000X0.525000X-0.400000X0.525000X-0.400000X-0.525000X0*%
%ADD15C,0.990600*%
%ADD16C,0.787400*%
%ADD17C,0.670000*%
%ADD18O,1.020000X1.820000*%
%ADD19O,1.020000X2.120000*%
G04 APERTURE END LIST*
D10*
X170496767Y-38200154D02*
X170585993Y-38210897D01*
X170631868Y-38220378D01*
X170680845Y-38234108D01*
X170732085Y-38252038D01*
X170784744Y-38274123D01*
X170837981Y-38300314D01*
X170890955Y-38330565D01*
X170942823Y-38364827D01*
X170992744Y-38403053D01*
X171016711Y-38423638D01*
X171039875Y-38445197D01*
X171062132Y-38467723D01*
X171083376Y-38491210D01*
X171103502Y-38515653D01*
X171122404Y-38541045D01*
X171139978Y-38567381D01*
X171156118Y-38594655D01*
X171170719Y-38622861D01*
X171183675Y-38651993D01*
X171194882Y-38682045D01*
X171204235Y-38713011D01*
X171211627Y-38744885D01*
X171216954Y-38777661D01*
X171220111Y-38811333D01*
X171220992Y-38845896D01*
X171240782Y-38788813D01*
X171269443Y-38730089D01*
X171306636Y-38670858D01*
X171352020Y-38612251D01*
X171405256Y-38555400D01*
X171466001Y-38501437D01*
X171533916Y-38451494D01*
X171608661Y-38406702D01*
X171648488Y-38386592D01*
X171689894Y-38368194D01*
X171732838Y-38351650D01*
X171777276Y-38337101D01*
X171823166Y-38324689D01*
X171870466Y-38314555D01*
X171919133Y-38306841D01*
X171969124Y-38301688D01*
X172020396Y-38299238D01*
X172072908Y-38299632D01*
X172126616Y-38303012D01*
X172181479Y-38309518D01*
X172237453Y-38319294D01*
X172294496Y-38332479D01*
X172352565Y-38349217D01*
X172411618Y-38369647D01*
X172476573Y-38397035D01*
X172539089Y-38429478D01*
X172598942Y-38466758D01*
X172655909Y-38508657D01*
X172709767Y-38554957D01*
X172760293Y-38605439D01*
X172807264Y-38659885D01*
X172850457Y-38718078D01*
X172889648Y-38779799D01*
X172924615Y-38844830D01*
X172955134Y-38912953D01*
X172980983Y-38983950D01*
X173001937Y-39057603D01*
X173017775Y-39133694D01*
X173028273Y-39212004D01*
X173033207Y-39292316D01*
X173032355Y-39374411D01*
X173025494Y-39458071D01*
X173012400Y-39543079D01*
X172992850Y-39629215D01*
X172966621Y-39716262D01*
X172933491Y-39804003D01*
X172893235Y-39892218D01*
X172845632Y-39980689D01*
X172790457Y-40069200D01*
X172727487Y-40157530D01*
X172656500Y-40245463D01*
X172577272Y-40332780D01*
X172489581Y-40419263D01*
X172393202Y-40504694D01*
X172287914Y-40588855D01*
X172173492Y-40671528D01*
X172113678Y-40711124D01*
X172044838Y-40754109D01*
X171885544Y-40847899D01*
X171706532Y-40948206D01*
X171518726Y-41050337D01*
X171160423Y-41241306D01*
X170898020Y-41383270D01*
X170889747Y-41355253D01*
X170879299Y-41327331D01*
X170866770Y-41299501D01*
X170852258Y-41271758D01*
X170817667Y-41216517D01*
X170776293Y-41161572D01*
X170728904Y-41106889D01*
X170676269Y-41052433D01*
X170619157Y-40998170D01*
X170558334Y-40944066D01*
X170030373Y-40512777D01*
X169910543Y-40400969D01*
X169803779Y-40288972D01*
X169709659Y-40177063D01*
X169627762Y-40065516D01*
X169557667Y-39954610D01*
X169498952Y-39844619D01*
X169451196Y-39735820D01*
X169413977Y-39628488D01*
X169386873Y-39522901D01*
X169369464Y-39419334D01*
X169361327Y-39318063D01*
X169362041Y-39219365D01*
X169371185Y-39123516D01*
X169388338Y-39030791D01*
X169413077Y-38941468D01*
X169444981Y-38855821D01*
X169483629Y-38774128D01*
X169528600Y-38696664D01*
X169579471Y-38623706D01*
X169635821Y-38555529D01*
X169697230Y-38492410D01*
X169763274Y-38434625D01*
X169833534Y-38382451D01*
X169907587Y-38336162D01*
X169985012Y-38296036D01*
X170065387Y-38262348D01*
X170148291Y-38235376D01*
X170233303Y-38215394D01*
X170320000Y-38202679D01*
X170407962Y-38197507D01*
X170496767Y-38200154D01*
D11*
G36*
X166730450Y-91013364D02*
G01*
X166741484Y-91014310D01*
X166752404Y-91016054D01*
X166763168Y-91018593D01*
X166773733Y-91021915D01*
X166784055Y-91026013D01*
X166794090Y-91030879D01*
X166803798Y-91036503D01*
X166813132Y-91042878D01*
X166822049Y-91049994D01*
X166830509Y-91057846D01*
X167135309Y-91362646D01*
X167140716Y-91368334D01*
X167145774Y-91374226D01*
X167150483Y-91380307D01*
X167154842Y-91386567D01*
X167158854Y-91392989D01*
X167162516Y-91399561D01*
X167165830Y-91406268D01*
X167168795Y-91413099D01*
X167171411Y-91420037D01*
X167173679Y-91427073D01*
X167175597Y-91434189D01*
X167177167Y-91441373D01*
X167178387Y-91448611D01*
X167179259Y-91455889D01*
X167179783Y-91463197D01*
X167179957Y-91470517D01*
X167179783Y-91477836D01*
X167179260Y-91485143D01*
X167178387Y-91492422D01*
X167177166Y-91499660D01*
X167175598Y-91506845D01*
X167173678Y-91513961D01*
X167171411Y-91520996D01*
X167168795Y-91527935D01*
X167165831Y-91534765D01*
X167162517Y-91541473D01*
X167158855Y-91548045D01*
X167154842Y-91554467D01*
X167150482Y-91560726D01*
X167145774Y-91566808D01*
X167140715Y-91572700D01*
X167135309Y-91578388D01*
X166830509Y-91883187D01*
X166822049Y-91890959D01*
X166813131Y-91898019D01*
X166803798Y-91904353D01*
X166794090Y-91909954D01*
X166784054Y-91914808D01*
X166773733Y-91918909D01*
X166763168Y-91922243D01*
X166752404Y-91924800D01*
X166741483Y-91926570D01*
X166730451Y-91927542D01*
X166719346Y-91927708D01*
X166708217Y-91927054D01*
X166697104Y-91925571D01*
X166686050Y-91923250D01*
X166675101Y-91920080D01*
X166664297Y-91916049D01*
X166653821Y-91911216D01*
X166643838Y-91905674D01*
X166634373Y-91899462D01*
X166625453Y-91892616D01*
X166617103Y-91885176D01*
X166609346Y-91877179D01*
X166602211Y-91868666D01*
X166595718Y-91859673D01*
X166589895Y-91850239D01*
X166584767Y-91840401D01*
X166580361Y-91830202D01*
X166576697Y-91819674D01*
X166573805Y-91808861D01*
X166571708Y-91797797D01*
X166570432Y-91786525D01*
X166570000Y-91775078D01*
X166570000Y-91622679D01*
X165808001Y-91622678D01*
X165784481Y-91623273D01*
X165761269Y-91625040D01*
X165738394Y-91627949D01*
X165715886Y-91631971D01*
X165693770Y-91637078D01*
X165672077Y-91643241D01*
X165650837Y-91650432D01*
X165630076Y-91658621D01*
X165609825Y-91667779D01*
X165590112Y-91677878D01*
X165570966Y-91688891D01*
X165552417Y-91700786D01*
X165534489Y-91713534D01*
X165517218Y-91727111D01*
X165500627Y-91741482D01*
X165484745Y-91756624D01*
X165469605Y-91772504D01*
X165455232Y-91789095D01*
X165441656Y-91806367D01*
X165428907Y-91824293D01*
X165417013Y-91842845D01*
X165406000Y-91861991D01*
X165395901Y-91881704D01*
X165386742Y-91901954D01*
X165378553Y-91922715D01*
X165371363Y-91943956D01*
X165365200Y-91965648D01*
X165360092Y-91987763D01*
X165356070Y-92010273D01*
X165353161Y-92033147D01*
X165351395Y-92056358D01*
X165350801Y-92079878D01*
X165350603Y-92087732D01*
X165350015Y-92095482D01*
X165349047Y-92103116D01*
X165347710Y-92110629D01*
X165346010Y-92118009D01*
X165343960Y-92125245D01*
X165341567Y-92132330D01*
X165338842Y-92139253D01*
X165335794Y-92146006D01*
X165332433Y-92152578D01*
X165328767Y-92158961D01*
X165324806Y-92165143D01*
X165320562Y-92171117D01*
X165316041Y-92176872D01*
X165311254Y-92182400D01*
X165306211Y-92187689D01*
X165300922Y-92192732D01*
X165295395Y-92197519D01*
X165289638Y-92202040D01*
X165283665Y-92206284D01*
X165277482Y-92210245D01*
X165271100Y-92213911D01*
X165264528Y-92217272D01*
X165257776Y-92220320D01*
X165250853Y-92223046D01*
X165243768Y-92225437D01*
X165236530Y-92227489D01*
X165229151Y-92229187D01*
X165221640Y-92230526D01*
X165214004Y-92231493D01*
X165206255Y-92232081D01*
X165198400Y-92232279D01*
X165190546Y-92232081D01*
X165182797Y-92231492D01*
X165175161Y-92230525D01*
X165167649Y-92229188D01*
X165160270Y-92227489D01*
X165153034Y-92225437D01*
X165145948Y-92223046D01*
X165139026Y-92220320D01*
X165132272Y-92217272D01*
X165125700Y-92213911D01*
X165119318Y-92210244D01*
X165113135Y-92206284D01*
X165107162Y-92202039D01*
X165101407Y-92197519D01*
X165095880Y-92192733D01*
X165090589Y-92187690D01*
X165085546Y-92182399D01*
X165080759Y-92176872D01*
X165076239Y-92171116D01*
X165071994Y-92165143D01*
X165068035Y-92158960D01*
X165064368Y-92152578D01*
X165061007Y-92146006D01*
X165057958Y-92139253D01*
X165055234Y-92132330D01*
X165052842Y-92125245D01*
X165050791Y-92118009D01*
X165049092Y-92110629D01*
X165047754Y-92103117D01*
X165046786Y-92095481D01*
X165046199Y-92087732D01*
X165046000Y-92079878D01*
X165046991Y-92040652D01*
X165049933Y-92001942D01*
X165054776Y-91963795D01*
X165061474Y-91926262D01*
X165069980Y-91889388D01*
X165080244Y-91853222D01*
X165092220Y-91817812D01*
X165105860Y-91783205D01*
X165121113Y-91749449D01*
X165137936Y-91716592D01*
X165156280Y-91684680D01*
X165176094Y-91653765D01*
X165197334Y-91623892D01*
X165219952Y-91595108D01*
X165243897Y-91567461D01*
X165269124Y-91541001D01*
X165295583Y-91515775D01*
X165323230Y-91491830D01*
X165352013Y-91469213D01*
X165381886Y-91447973D01*
X165412802Y-91428158D01*
X165444713Y-91409815D01*
X165477570Y-91392991D01*
X165511327Y-91377736D01*
X165545933Y-91364098D01*
X165581344Y-91352122D01*
X165617510Y-91341858D01*
X165654383Y-91333353D01*
X165691918Y-91326654D01*
X165730064Y-91321811D01*
X165768773Y-91318870D01*
X165808000Y-91317879D01*
X166570000Y-91317879D01*
X166570001Y-91165478D01*
X166570108Y-91159738D01*
X166570432Y-91154037D01*
X166570966Y-91148383D01*
X166571708Y-91142780D01*
X166572655Y-91137230D01*
X166573806Y-91131740D01*
X166575154Y-91126314D01*
X166576697Y-91120957D01*
X166578434Y-91115673D01*
X166580360Y-91110466D01*
X166582473Y-91105343D01*
X166584767Y-91100305D01*
X166587243Y-91095361D01*
X166589895Y-91090512D01*
X166592722Y-91085765D01*
X166595718Y-91081123D01*
X166598882Y-91076591D01*
X166602210Y-91072173D01*
X166605700Y-91067877D01*
X166609347Y-91063704D01*
X166613149Y-91059659D01*
X166617104Y-91055748D01*
X166621206Y-91051974D01*
X166625453Y-91048344D01*
X166629845Y-91044860D01*
X166634373Y-91041528D01*
X166639039Y-91038352D01*
X166643838Y-91035339D01*
X166648765Y-91032489D01*
X166653821Y-91029812D01*
X166658999Y-91027309D01*
X166664297Y-91024985D01*
X166675102Y-91020949D01*
X166686050Y-91017763D01*
X166697103Y-91015421D01*
X166708218Y-91013912D01*
X166719347Y-91013230D01*
X166730450Y-91013364D01*
G37*
G36*
X134074804Y-90697104D02*
G01*
X134076668Y-90697223D01*
X134078517Y-90697419D01*
X134080346Y-90697692D01*
X134082156Y-90698038D01*
X134083943Y-90698458D01*
X134085707Y-90698949D01*
X134087445Y-90699510D01*
X134089154Y-90700141D01*
X134090834Y-90700836D01*
X134092482Y-90701597D01*
X134094096Y-90702421D01*
X134095676Y-90703307D01*
X134097216Y-90704254D01*
X134098718Y-90705260D01*
X134100178Y-90706324D01*
X134101594Y-90707442D01*
X134102966Y-90708617D01*
X134104290Y-90709842D01*
X134105563Y-90711119D01*
X134106788Y-90712446D01*
X134107959Y-90713822D01*
X134109074Y-90715242D01*
X134110134Y-90716709D01*
X134111132Y-90718218D01*
X134112071Y-90719771D01*
X134112947Y-90721362D01*
X134113757Y-90722992D01*
X134114503Y-90724660D01*
X134115179Y-90726364D01*
X134115784Y-90728101D01*
X134116317Y-90729871D01*
X134174526Y-90934130D01*
X134378785Y-90992338D01*
X134380601Y-90992918D01*
X134382379Y-90993565D01*
X134385815Y-90995049D01*
X134389082Y-90996782D01*
X134392170Y-90998746D01*
X134395069Y-91000932D01*
X134397769Y-91003324D01*
X134400259Y-91005909D01*
X134402530Y-91008676D01*
X134404571Y-91011610D01*
X134406374Y-91014698D01*
X134407927Y-91017928D01*
X134409219Y-91021285D01*
X134410242Y-91024757D01*
X134410985Y-91028331D01*
X134411249Y-91030152D01*
X134411438Y-91031993D01*
X134411554Y-91033853D01*
X134411592Y-91035731D01*
X134411552Y-91037608D01*
X134411433Y-91039473D01*
X134411237Y-91041321D01*
X134410964Y-91043150D01*
X134410617Y-91044961D01*
X134410197Y-91046748D01*
X134409706Y-91048511D01*
X134409144Y-91050250D01*
X134408516Y-91051959D01*
X134407820Y-91053638D01*
X134407060Y-91055287D01*
X134406234Y-91056901D01*
X134405348Y-91058480D01*
X134404401Y-91060020D01*
X134403395Y-91061523D01*
X134402332Y-91062982D01*
X134401212Y-91064398D01*
X134400041Y-91065770D01*
X134398813Y-91067094D01*
X134397535Y-91068368D01*
X134396210Y-91069593D01*
X134394835Y-91070764D01*
X134393413Y-91071879D01*
X134391947Y-91072938D01*
X134390437Y-91073936D01*
X134388886Y-91074875D01*
X134387294Y-91075751D01*
X134385662Y-91076562D01*
X134383995Y-91077308D01*
X134382291Y-91077984D01*
X134380554Y-91078588D01*
X134378783Y-91079122D01*
X134174526Y-91137329D01*
X134116317Y-91341589D01*
X134115737Y-91343405D01*
X134115093Y-91345183D01*
X134113606Y-91348619D01*
X134111876Y-91351886D01*
X134109909Y-91354973D01*
X134107724Y-91357873D01*
X134105333Y-91360574D01*
X134102746Y-91363063D01*
X134099978Y-91365334D01*
X134097045Y-91367376D01*
X134093957Y-91369179D01*
X134090729Y-91370730D01*
X134087369Y-91372024D01*
X134083897Y-91373046D01*
X134080325Y-91373790D01*
X134078504Y-91374053D01*
X134076662Y-91374243D01*
X134074803Y-91374358D01*
X134072926Y-91374397D01*
X134071047Y-91374356D01*
X134069182Y-91374238D01*
X134067335Y-91374041D01*
X134065504Y-91373768D01*
X134063695Y-91373421D01*
X134061908Y-91373002D01*
X134060143Y-91372511D01*
X134058407Y-91371950D01*
X134056697Y-91371320D01*
X134055016Y-91370624D01*
X134053369Y-91369864D01*
X134051755Y-91369038D01*
X134050176Y-91368153D01*
X134048635Y-91367205D01*
X134047134Y-91366200D01*
X134045673Y-91365137D01*
X134044257Y-91364017D01*
X134042885Y-91362844D01*
X134041561Y-91361618D01*
X134040287Y-91360340D01*
X134039063Y-91359013D01*
X134037894Y-91357639D01*
X134036777Y-91356218D01*
X134035719Y-91354752D01*
X134034718Y-91353241D01*
X134033780Y-91351690D01*
X134032903Y-91350098D01*
X134032093Y-91348467D01*
X134031348Y-91346799D01*
X134030672Y-91345096D01*
X134030067Y-91343358D01*
X134029534Y-91341588D01*
X133971325Y-91137331D01*
X133767068Y-91079121D01*
X133765250Y-91078542D01*
X133763472Y-91077897D01*
X133760037Y-91076411D01*
X133756769Y-91074680D01*
X133753681Y-91072714D01*
X133750782Y-91070529D01*
X133748083Y-91068136D01*
X133745592Y-91065550D01*
X133743321Y-91062783D01*
X133741279Y-91059850D01*
X133739477Y-91056761D01*
X133737925Y-91053533D01*
X133736633Y-91050175D01*
X133735609Y-91046702D01*
X133734866Y-91043130D01*
X133734602Y-91041308D01*
X133734412Y-91039468D01*
X133734297Y-91037608D01*
X133734259Y-91035731D01*
X133734299Y-91033851D01*
X133734418Y-91031987D01*
X133734615Y-91030139D01*
X133734887Y-91028309D01*
X133735234Y-91026500D01*
X133735654Y-91024712D01*
X133736145Y-91022949D01*
X133736706Y-91021211D01*
X133737335Y-91019502D01*
X133738031Y-91017821D01*
X133738793Y-91016173D01*
X133739617Y-91014559D01*
X133740503Y-91012980D01*
X133741450Y-91011439D01*
X133742456Y-91009939D01*
X133743519Y-91008478D01*
X133744638Y-91007062D01*
X133745813Y-91005689D01*
X133747038Y-91004367D01*
X133748315Y-91003091D01*
X133749641Y-91001867D01*
X133751016Y-91000698D01*
X133752438Y-90999582D01*
X133753904Y-90998524D01*
X133755413Y-90997524D01*
X133756966Y-90996585D01*
X133758556Y-90995708D01*
X133760188Y-90994897D01*
X133761856Y-90994152D01*
X133763559Y-90993476D01*
X133765297Y-90992871D01*
X133767067Y-90992338D01*
X133971324Y-90934130D01*
X134029534Y-90729872D01*
X134030113Y-90728055D01*
X134030758Y-90726276D01*
X134032245Y-90722841D01*
X134033978Y-90719573D01*
X134035942Y-90716485D01*
X134038127Y-90713586D01*
X134040519Y-90710887D01*
X134043105Y-90708396D01*
X134045872Y-90706126D01*
X134048806Y-90704083D01*
X134051894Y-90702282D01*
X134055124Y-90700730D01*
X134058481Y-90699437D01*
X134061953Y-90698414D01*
X134065527Y-90697670D01*
X134067348Y-90697407D01*
X134069188Y-90697217D01*
X134071047Y-90697102D01*
X134072926Y-90697064D01*
X134074804Y-90697104D01*
G37*
D10*
X129957267Y-38204970D02*
X130043964Y-38217685D01*
X130128976Y-38237667D01*
X130211880Y-38264639D01*
X130292255Y-38298327D01*
X130369680Y-38338453D01*
X130443733Y-38384742D01*
X130513993Y-38436916D01*
X130580037Y-38494701D01*
X130641446Y-38557820D01*
X130697796Y-38625997D01*
X130748667Y-38698955D01*
X130793638Y-38776419D01*
X130832286Y-38858112D01*
X130864190Y-38943759D01*
X130888929Y-39033082D01*
X130906082Y-39125807D01*
X130915226Y-39221656D01*
X130915940Y-39320354D01*
X130907803Y-39421625D01*
X130890394Y-39525192D01*
X130863290Y-39630779D01*
X130826071Y-39738111D01*
X130778315Y-39846910D01*
X130719600Y-39956901D01*
X130649505Y-40067807D01*
X130567608Y-40179354D01*
X130473488Y-40291263D01*
X130366724Y-40403260D01*
X130246894Y-40515068D01*
X129718933Y-40946357D01*
X129658110Y-41000461D01*
X129600998Y-41054724D01*
X129548363Y-41109180D01*
X129500974Y-41163863D01*
X129459600Y-41218808D01*
X129425009Y-41274049D01*
X129410497Y-41301792D01*
X129397968Y-41329622D01*
X129387520Y-41357544D01*
X129379247Y-41385561D01*
X129116844Y-41243597D01*
X128758541Y-41052628D01*
X128570735Y-40950497D01*
X128391723Y-40850190D01*
X128232429Y-40756400D01*
X128163589Y-40713415D01*
X128103775Y-40673819D01*
X127989353Y-40591146D01*
X127884065Y-40506985D01*
X127787686Y-40421554D01*
X127699995Y-40335071D01*
X127620767Y-40247754D01*
X127549780Y-40159821D01*
X127486810Y-40071491D01*
X127431635Y-39982980D01*
X127384032Y-39894509D01*
X127343776Y-39806294D01*
X127310646Y-39718553D01*
X127284417Y-39631506D01*
X127264867Y-39545370D01*
X127251773Y-39460362D01*
X127244912Y-39376702D01*
X127244060Y-39294607D01*
X127248994Y-39214295D01*
X127259492Y-39135985D01*
X127275330Y-39059894D01*
X127296284Y-38986241D01*
X127322133Y-38915244D01*
X127352652Y-38847121D01*
X127387619Y-38782090D01*
X127426810Y-38720369D01*
X127470003Y-38662176D01*
X127516974Y-38607730D01*
X127567500Y-38557248D01*
X127621358Y-38510948D01*
X127678325Y-38469049D01*
X127738178Y-38431769D01*
X127800694Y-38399326D01*
X127865649Y-38371938D01*
X127924702Y-38351508D01*
X127982771Y-38334770D01*
X128039814Y-38321585D01*
X128095788Y-38311809D01*
X128150651Y-38305303D01*
X128204359Y-38301923D01*
X128256871Y-38301529D01*
X128308143Y-38303979D01*
X128358134Y-38309132D01*
X128406801Y-38316846D01*
X128454101Y-38326980D01*
X128499991Y-38339392D01*
X128544429Y-38353941D01*
X128587373Y-38370485D01*
X128628779Y-38388883D01*
X128668606Y-38408993D01*
X128743351Y-38453785D01*
X128811266Y-38503728D01*
X128872011Y-38557691D01*
X128925247Y-38614542D01*
X128970631Y-38673149D01*
X129007824Y-38732380D01*
X129036485Y-38791104D01*
X129056275Y-38848187D01*
X129057156Y-38813624D01*
X129060313Y-38779952D01*
X129065640Y-38747176D01*
X129073032Y-38715302D01*
X129082385Y-38684336D01*
X129093592Y-38654284D01*
X129106548Y-38625152D01*
X129121149Y-38596946D01*
X129137289Y-38569672D01*
X129154863Y-38543336D01*
X129173765Y-38517944D01*
X129193891Y-38493501D01*
X129215135Y-38470014D01*
X129237392Y-38447488D01*
X129260556Y-38425929D01*
X129284523Y-38405344D01*
X129334444Y-38367118D01*
X129386312Y-38332856D01*
X129439286Y-38302605D01*
X129492523Y-38276414D01*
X129545182Y-38254329D01*
X129596422Y-38236399D01*
X129645399Y-38222669D01*
X129691274Y-38213188D01*
X129780500Y-38202445D01*
X129869305Y-38199798D01*
X129957267Y-38204970D01*
D11*
G36*
X134668360Y-91289787D02*
G01*
X134671107Y-91289957D01*
X134673830Y-91290238D01*
X134676526Y-91290629D01*
X134679194Y-91291125D01*
X134681828Y-91291729D01*
X134684428Y-91292435D01*
X134686990Y-91293245D01*
X134689512Y-91294152D01*
X134691990Y-91295159D01*
X134694423Y-91296262D01*
X134696809Y-91297460D01*
X134699142Y-91298749D01*
X134701422Y-91300130D01*
X134703645Y-91301600D01*
X134705810Y-91303157D01*
X134707911Y-91304799D01*
X134709948Y-91306525D01*
X134711916Y-91308333D01*
X134713817Y-91310220D01*
X134715643Y-91312184D01*
X134717393Y-91314226D01*
X134719067Y-91316341D01*
X134720659Y-91318528D01*
X134722165Y-91320787D01*
X134723589Y-91323113D01*
X134724920Y-91325507D01*
X134726160Y-91327966D01*
X134727307Y-91330487D01*
X134728356Y-91333071D01*
X134729304Y-91335713D01*
X134730150Y-91338413D01*
X134817992Y-91645330D01*
X135124909Y-91733171D01*
X135127563Y-91733971D01*
X135130165Y-91734880D01*
X135132713Y-91735893D01*
X135135205Y-91737009D01*
X135137639Y-91738225D01*
X135140013Y-91739537D01*
X135144570Y-91742441D01*
X135148862Y-91745692D01*
X135152870Y-91749274D01*
X135156577Y-91753154D01*
X135159965Y-91757315D01*
X135163021Y-91761729D01*
X135165723Y-91766374D01*
X135168055Y-91771224D01*
X135170004Y-91776258D01*
X135171548Y-91781448D01*
X135172672Y-91786774D01*
X135173073Y-91789479D01*
X135173359Y-91792208D01*
X135173534Y-91794961D01*
X135173592Y-91797731D01*
X135173535Y-91800498D01*
X135173365Y-91803246D01*
X135173084Y-91805968D01*
X135172693Y-91808665D01*
X135172198Y-91811331D01*
X135171593Y-91813966D01*
X135170887Y-91816567D01*
X135170078Y-91819128D01*
X135169170Y-91821650D01*
X135168163Y-91824129D01*
X135167060Y-91826562D01*
X135165862Y-91828947D01*
X135164571Y-91831280D01*
X135163192Y-91833559D01*
X135161722Y-91835782D01*
X135160165Y-91837946D01*
X135158523Y-91840049D01*
X135156798Y-91842086D01*
X135154989Y-91844056D01*
X135153103Y-91845954D01*
X135151138Y-91847782D01*
X135149096Y-91849533D01*
X135146982Y-91851204D01*
X135144793Y-91852797D01*
X135142536Y-91854304D01*
X135140209Y-91855725D01*
X135137816Y-91857058D01*
X135135357Y-91858299D01*
X135132834Y-91859444D01*
X135130252Y-91860493D01*
X135127610Y-91861442D01*
X135124909Y-91862289D01*
X134817992Y-91950131D01*
X134730150Y-92257046D01*
X134729351Y-92259700D01*
X134728443Y-92262302D01*
X134727429Y-92264850D01*
X134726313Y-92267342D01*
X134725097Y-92269776D01*
X134723784Y-92272151D01*
X134720882Y-92276709D01*
X134717629Y-92281000D01*
X134714049Y-92285007D01*
X134710166Y-92288715D01*
X134706006Y-92292104D01*
X134701593Y-92295158D01*
X134696948Y-92297861D01*
X134692098Y-92300194D01*
X134687065Y-92302141D01*
X134681875Y-92303686D01*
X134676549Y-92304811D01*
X134673843Y-92305209D01*
X134671113Y-92305497D01*
X134668362Y-92305672D01*
X134665592Y-92305730D01*
X134662824Y-92305673D01*
X134660077Y-92305504D01*
X134657354Y-92305222D01*
X134654657Y-92304832D01*
X134651991Y-92304334D01*
X134649356Y-92303731D01*
X134646756Y-92303024D01*
X134644194Y-92302216D01*
X134641671Y-92301307D01*
X134639193Y-92300301D01*
X134636761Y-92299197D01*
X134634374Y-92298000D01*
X134632042Y-92296711D01*
X134629763Y-92295329D01*
X134627539Y-92293860D01*
X134625376Y-92292302D01*
X134623274Y-92290660D01*
X134621237Y-92288934D01*
X134619267Y-92287127D01*
X134617368Y-92285240D01*
X134615541Y-92283275D01*
X134613790Y-92281235D01*
X134612117Y-92279119D01*
X134610525Y-92276932D01*
X134609018Y-92274673D01*
X134607596Y-92272347D01*
X134606264Y-92269953D01*
X134605023Y-92267494D01*
X134603877Y-92264973D01*
X134602828Y-92262390D01*
X134601879Y-92259746D01*
X134601034Y-92257047D01*
X134513192Y-91950131D01*
X134206275Y-91862288D01*
X134203623Y-91861488D01*
X134201020Y-91860581D01*
X134198471Y-91859568D01*
X134195979Y-91858451D01*
X134193544Y-91857234D01*
X134191172Y-91855922D01*
X134186613Y-91853019D01*
X134182322Y-91849766D01*
X134178315Y-91846187D01*
X134174607Y-91842306D01*
X134171218Y-91838146D01*
X134168164Y-91833730D01*
X134165460Y-91829086D01*
X134163128Y-91824236D01*
X134161180Y-91819202D01*
X134159636Y-91814011D01*
X134158512Y-91808686D01*
X134158114Y-91805981D01*
X134157825Y-91803251D01*
X134157651Y-91800500D01*
X134157592Y-91797730D01*
X134157649Y-91794961D01*
X134157819Y-91792214D01*
X134158100Y-91789492D01*
X134158490Y-91786796D01*
X134158988Y-91784128D01*
X134159591Y-91781493D01*
X134160297Y-91778894D01*
X134161106Y-91776332D01*
X134162015Y-91773811D01*
X134163021Y-91771332D01*
X134164124Y-91768898D01*
X134165322Y-91766514D01*
X134166612Y-91764180D01*
X134167993Y-91761901D01*
X134169463Y-91759677D01*
X134171019Y-91757513D01*
X134172662Y-91755411D01*
X134174387Y-91753374D01*
X134176196Y-91751405D01*
X134178081Y-91749505D01*
X134180047Y-91747680D01*
X134182088Y-91745928D01*
X134184203Y-91744256D01*
X134186390Y-91742664D01*
X134188648Y-91741155D01*
X134190976Y-91739734D01*
X134193369Y-91738401D01*
X134195827Y-91737161D01*
X134198349Y-91736015D01*
X134200932Y-91734966D01*
X134203575Y-91734017D01*
X134206275Y-91733172D01*
X134513192Y-91645331D01*
X134601034Y-91338413D01*
X134601833Y-91335759D01*
X134602741Y-91333157D01*
X134603755Y-91330610D01*
X134604871Y-91328117D01*
X134606087Y-91325684D01*
X134607400Y-91323309D01*
X134610301Y-91318751D01*
X134613556Y-91314461D01*
X134617135Y-91310452D01*
X134621017Y-91306745D01*
X134625177Y-91303356D01*
X134629592Y-91300301D01*
X134634236Y-91297600D01*
X134639087Y-91295265D01*
X134644118Y-91293318D01*
X134649310Y-91291775D01*
X134654636Y-91290650D01*
X134657340Y-91290250D01*
X134660072Y-91289962D01*
X134662822Y-91289788D01*
X134665591Y-91289730D01*
X134668360Y-91289787D01*
G37*
D12*
%TO.C,H2*%
X135500000Y-65925000D03*
%TD*%
D13*
%TO.C,J9*%
X137600000Y-49980000D03*
X137600000Y-55020000D03*
X140140000Y-49980000D03*
X140140000Y-55020000D03*
X142680000Y-49980000D03*
X142680000Y-55020000D03*
%TD*%
D12*
%TO.C,H4*%
X135500000Y-130000000D03*
%TD*%
D14*
%TO.C,SW3*%
X165500000Y-103872679D03*
X165499999Y-95912679D03*
X169999999Y-103872679D03*
X169999998Y-95912679D03*
%TD*%
%TO.C,SW1*%
X130000000Y-103873000D03*
X130000000Y-95913000D03*
X134500000Y-103873000D03*
X134500000Y-95913000D03*
%TD*%
D15*
%TO.C,J3*%
X162035000Y-120560000D03*
X163051000Y-125640000D03*
X161019000Y-125640000D03*
D16*
X161400000Y-121830000D03*
X162670000Y-121830000D03*
X161400000Y-123100000D03*
X162670000Y-123100000D03*
X161400000Y-124370000D03*
X162670000Y-124370000D03*
%TD*%
D12*
%TO.C,H5*%
X164500000Y-130000000D03*
%TD*%
%TO.C,H3*%
X164500000Y-65925000D03*
%TD*%
D17*
%TO.C,J4*%
X147110000Y-47431927D03*
X152890000Y-47431927D03*
D18*
X145680000Y-43751927D03*
D19*
X145680000Y-47931927D03*
D18*
X154320000Y-43751927D03*
D19*
X154320000Y-47931927D03*
%TD*%
M02*
