M48
; DRILL file {KiCad 9.0.2} date 2025-05-11T16:43:26+0100
; FORMAT={-:-/ absolute / metric / decimal}
; #@! TF.CreationDate,2025-05-11T16:43:26+01:00
; #@! TF.GenerationSoftware,Kicad,Pcbnew,9.0.2
; #@! TF.FileFunction,Plated,1,6,PTH
FMAT,2
METRIC
; #@! TA.AperFunction,Plated,PTH,ViaDrill
T1C0.200
; #@! TA.AperFunction,Plated,PTH,ComponentDrill
T2C0.200
; #@! TA.AperFunction,Plated,PTH,ComponentDrill
T3C0.203
; #@! TA.AperFunction,Plated,PTH,ViaDrill
T4C0.250
; #@! TA.AperFunction,Plated,PTH,ViaDrill
T5C0.300
; #@! TA.AperFunction,Plated,PTH,ViaDrill
T6C0.350
; #@! TA.AperFunction,Plated,PTH,ViaDrill
T7C0.400
; #@! TA.AperFunction,Plated,PTH,ComponentDrill
T8C0.600
; #@! TA.AperFunction,Plated,PTH,ComponentDrill
T9C3.200
%
G90
G05
T1
X130.7Y-74.484
X130.75Y-91.184
X131.5Y-107.634
X131.97Y-74.454
X132.47Y-72.554
X132.47Y-74.454
X132.97Y-74.454
X133.05Y-57.584
X133.05Y-58.484
X133.05Y-108.084
X133.47Y-72.554
X133.47Y-74.454
X133.5Y-59.234
X133.95Y-58.484
X133.95Y-107.184
X134.05Y-126.084
X134.72Y-58.204
X134.88Y-104.369
X134.95Y-125.184
X135.2Y-87.834
X135.61Y-99.084
X136.2Y-69.059
X136.3Y-86.734
X136.85Y-65.359
X136.9Y-71.884
X136.9Y-73.434
X136.9Y-74.334
X136.9Y-132.084
X137.1Y-76.434
X138.0Y-78.834
X138.0Y-80.234
X138.0Y-81.634
X138.0Y-83.034
X138.4Y-59.034
X138.4Y-71.884
X138.7Y-85.484
X138.7Y-86.284
X138.7Y-98.834
X138.7Y-99.734
X138.975Y-89.534
X139.1Y-68.454
X139.16Y-72.204
X140.25Y-69.184
X140.81Y-62.569
X141.125Y-130.384
X141.5Y-75.234
X141.75Y-103.334
X142.0Y-93.634
X142.0Y-95.634
X142.1Y-81.034
X142.25Y-103.324
X142.3Y-99.134
X142.5Y-78.884
X142.75Y-103.334
X142.98Y-129.054
X143.25Y-103.334
X143.375Y-119.254
X143.38Y-118.614
X143.38Y-119.784
X143.45Y-125.079
X143.45Y-129.054
X143.5Y-87.134
X143.5Y-88.634
X143.5Y-102.234
X143.75Y-103.334
X143.94Y-129.054
X144.0Y-78.884
X144.1Y-73.634
X144.125Y-118.504
X144.125Y-119.254
X144.25Y-103.334
X144.4Y-120.954
X144.4Y-121.704
X144.4Y-122.454
X144.4Y-123.204
X144.4Y-123.954
X144.4Y-124.704
X144.4Y-125.454
X144.75Y-103.334
X145.1Y-102.234
X145.25Y-103.334
X145.25Y-120.184
X145.5Y-78.884
X145.625Y-119.254
X145.64Y-118.504
X145.75Y-62.974
X146.0Y-120.184
X146.01Y-120.964
X146.4Y-68.804
X146.7Y-124.234
X146.7Y-124.834
X146.75Y-62.964
X146.75Y-64.304
X146.75Y-87.684
X147.25Y-63.354
X147.25Y-103.334
X147.5Y-113.634
X147.5Y-114.784
X147.5Y-120.194
X147.51Y-112.384
X147.725Y-127.104
X147.75Y-62.574
X147.75Y-103.334
X148.0Y-94.134
X148.0Y-95.634
X148.0Y-97.134
X148.25Y-62.974
X148.25Y-103.334
X148.25Y-113.034
X148.25Y-114.204
X148.25Y-120.194
X148.25Y-121.084
X148.3Y-71.234
X148.3Y-73.634
X148.475Y-127.104
X148.49Y-68.804
X148.75Y-62.974
X148.75Y-103.334
X148.79Y-69.454
X148.8Y-66.304
X149.0Y-120.204
X149.225Y-127.104
X149.23Y-121.074
X149.25Y-87.684
X149.25Y-122.334
X149.75Y-87.684
X149.76Y-89.454
X149.875Y-127.104
X150.6Y-121.704
X150.6Y-122.454
X150.6Y-125.454
X150.6Y-126.204
X150.98Y-129.054
X151.5Y-87.634
X151.5Y-89.634
X151.5Y-91.634
X151.5Y-93.634
X151.5Y-95.634
X151.5Y-97.634
X151.5Y-99.634
X151.5Y-101.634
X151.55Y-122.079
X151.55Y-122.829
X151.55Y-123.579
X151.55Y-124.329
X151.55Y-126.584
X151.55Y-127.334
X151.55Y-128.079
X151.55Y-129.054
X151.625Y-119.254
X152.14Y-129.054
X152.75Y-103.334
X153.25Y-103.334
X153.48Y-64.829
X153.5Y-87.634
X153.75Y-103.334
X153.8Y-124.034
X154.25Y-103.334
X154.49Y-73.154
X156.1Y-58.034
X156.35Y-116.884
X156.44Y-120.464
X156.56Y-87.124
X156.8Y-128.634
X156.93Y-125.814
X157.05Y-57.434
X157.15Y-116.884
X157.77Y-111.934
X157.95Y-68.134
X157.95Y-68.834
X157.95Y-115.084
X157.95Y-116.884
X158.2Y-132.084
X158.6Y-127.134
X158.75Y-116.884
X158.775Y-115.084
X160.0Y-80.634
X160.05Y-126.084
X160.95Y-125.184
X160.95Y-126.084
X161.05Y-57.534
X161.05Y-58.434
X161.05Y-107.184
X161.05Y-108.084
X161.4Y-97.034
X161.45Y-103.084
X161.95Y-57.534
X161.95Y-58.434
X161.95Y-107.184
X163.6Y-97.034
X163.65Y-103.084
X164.59Y-106.964
T2
X133.255Y-101.619
X133.255Y-102.719
X134.555Y-101.619
X134.555Y-102.719
X135.855Y-101.619
X135.855Y-102.719
T3
X132.17Y-73.504
X133.27Y-73.504
T4
X131.1Y-94.284
X131.4Y-103.384
X132.5Y-94.284
X133.05Y-107.184
X133.45Y-94.284
X133.687Y-71.834
X134.0Y-91.284
X134.79Y-80.304
X134.8Y-120.609
X135.5Y-71.234
X135.85Y-84.684
X136.2Y-71.234
X136.2Y-72.534
X136.7Y-123.634
X138.21Y-63.464
X138.4Y-68.409
X138.4Y-69.059
X138.4Y-71.234
X138.45Y-91.284
X138.48Y-100.434
X138.7Y-87.084
X138.7Y-98.084
X139.45Y-69.134
X139.73Y-126.059
X140.75Y-108.024
X140.76Y-120.914
X141.125Y-132.084
X141.13Y-89.534
X141.2Y-98.584
X141.22Y-107.624
X141.375Y-57.634
X141.4Y-99.834
X142.75Y-69.803
X143.75Y-113.134
X143.88Y-115.304
X144.5Y-60.234
X145.57Y-113.324
X145.89Y-114.204
X146.4Y-69.454
X146.85Y-61.684
X147.2Y-99.134
X147.38Y-123.944
X147.5Y-76.834
X148.15Y-61.684
X149.0Y-76.834
X149.5Y-78.884
X149.75Y-86.184
X150.5Y-76.834
X151.0Y-78.884
X151.75Y-118.514
X151.75Y-119.914
X151.8Y-70.284
X151.95Y-68.114
X151.95Y-73.154
X152.0Y-76.834
X152.5Y-78.884
X153.5Y-121.434
X153.565Y-61.074
X153.575Y-59.634
X153.625Y-57.634
X153.75Y-102.134
X153.875Y-132.084
X154.2Y-88.634
X154.25Y-102.134
X155.4Y-109.984
X155.4Y-111.634
X156.35Y-115.084
X156.5Y-88.634
X156.7Y-63.034
X157.15Y-115.084
X157.45Y-70.259
X158.64Y-72.984
X159.15Y-126.584
X159.5Y-98.634
X159.5Y-100.634
X159.5Y-102.634
X159.5Y-104.634
X159.5Y-106.859
X159.975Y-70.984
X159.975Y-71.984
X161.4Y-93.484
X161.4Y-96.384
X161.4Y-97.684
X161.45Y-102.434
X161.45Y-103.734
X162.4Y-88.734
X163.6Y-93.484
X163.6Y-94.884
X163.6Y-96.384
X163.65Y-102.434
X163.65Y-103.734
T5
X130.5Y-63.234
X130.5Y-68.234
X130.5Y-132.034
X130.7Y-72.809
X132.5Y-69.459
X132.9Y-126.234
X133.3Y-103.834
X133.3Y-104.734
X133.4Y-109.634
X134.0Y-90.484
X134.03Y-69.514
X134.1Y-73.534
X134.45Y-126.734
X134.5Y-122.359
X134.5Y-123.909
X134.65Y-81.359
X134.7Y-77.909
X134.8Y-113.859
X135.49Y-132.084
X135.53Y-108.569
X135.65Y-125.634
X135.9Y-63.634
X136.21Y-83.704
X136.9Y-71.234
X139.29Y-107.174
X139.438Y-95.497
X139.825Y-57.634
X142.15Y-88.934
X142.3Y-75.034
X143.29Y-93.859
X143.308Y-90.094
X144.01Y-71.014
X144.3Y-84.434
X145.1Y-64.734
X146.125Y-72.909
X146.75Y-83.384
X147.0Y-100.434
X147.49Y-59.274
X147.5Y-61.684
X147.5Y-82.634
X147.5Y-84.134
X148.075Y-91.984
X148.25Y-83.384
X150.7Y-84.434
X152.62Y-80.124
X152.65Y-122.834
X152.8Y-71.004
X153.3Y-74.834
X153.39Y-80.124
X154.17Y-80.124
X154.27Y-109.704
X155.175Y-57.634
X157.05Y-83.134
X157.05Y-84.114
X157.06Y-85.124
X158.5Y-64.634
X159.5Y-63.034
X159.5Y-108.409
X159.56Y-132.084
X159.975Y-72.984
X160.5Y-123.909
X161.5Y-59.234
X161.75Y-72.984
X161.99Y-92.834
X162.1Y-126.234
X162.5Y-97.034
X164.3Y-63.274
X164.5Y-132.234
T6
X131.1Y-93.034
X131.5Y-72.034
X132.5Y-93.034
X133.2Y-76.359
X133.45Y-93.034
X134.03Y-71.064
X134.7Y-76.372
X134.875Y-99.634
X134.875Y-100.434
X137.75Y-74.334
X138.675Y-74.334
X140.3Y-71.174
X140.495Y-66.034
X140.76Y-116.009
X141.7Y-85.064
X142.05Y-67.634
X144.1Y-66.334
X144.1Y-69.484
X144.3Y-62.974
X144.9Y-71.012
X145.1Y-62.974
X145.38Y-66.314
X145.79Y-71.014
X147.175Y-94.284
X149.9Y-62.974
X149.9Y-64.084
X149.9Y-64.724
X150.5Y-74.134
X150.7Y-62.974
X152.8Y-70.259
X153.3Y-72.034
X154.178Y-82.114
X155.55Y-68.684
X156.6Y-70.259
X157.05Y-80.124
X157.05Y-81.124
X163.85Y-69.684
X163.85Y-75.284
X164.5Y-68.034
T7
X138.815Y-96.119
X143.5Y-116.624
T9
X133.0Y-65.677
X133.0Y-129.752
X162.0Y-65.677
X162.0Y-129.752
T8
X143.18Y-58.569G85X143.18Y-57.769
G05
X143.18Y-62.899G85X143.18Y-61.799
G05
X151.82Y-58.569G85X151.82Y-57.769
G05
X151.82Y-62.899G85X151.82Y-61.799
G05
M30
